<svg width="130" height="130" xmlns="http://www.w3.org/2000/svg" xmlns:xlink="http://www.w3.org/1999/xlink" xml:space="preserve" overflow="hidden"><defs><clipPath id="clip0"><rect x="3438" y="2266" width="130" height="130"/></clipPath></defs><g clip-path="url(#clip0)" transform="translate(-3438 -2266)"><path d="M3503.12 2299.18C3488.23 2299.18 3476.15 2301.42 3476.15 2304.19L3476.15 2306.08C3476.15 2303.31 3488.23 2301.07 3503.12 2301.07 3517.08 2301.07 3528.57 2303.04 3529.95 2305.56L3530.09 2306.08 3530.09 2304.19C3530.09 2301.42 3518.02 2299.18 3503.12 2299.18ZM3457.15 2275.3C3451.82 2275.3 3447.5 2279.68 3447.5 2285.07L3447.5 2304.09 3447.5 2354.96 3447.5 2376.93C3447.5 2382.32 3451.82 2386.7 3457.15 2386.7L3460.57 2386.7 3465.26 2376.71C3470.81 2366.96 3476.7 2359.48 3482.75 2354.28L3484.57 2353.06 3481 2350.87C3475.37 2345.73 3471.89 2338.63 3471.89 2330.8 3471.89 2326.88 3472.76 2323.14 3474.33 2319.75L3476.15 2317.28 3476.15 2313.1 3458.41 2303.66 3503.12 2279.87 3547.83 2303.66 3539.68 2308 3539.68 2317.44 3540.7 2317.44 3542.59 2327.45 3535.06 2327.45 3536.94 2317.44 3537.96 2317.44 3537.96 2308.91 3530.09 2313.1 3530.09 2317.62 3531.67 2319.75C3533.24 2323.14 3534.11 2326.88 3534.11 2330.8 3534.11 2338.63 3530.63 2345.73 3525 2350.87L3522.02 2352.7 3526.9 2356.26C3532.31 2361.65 3537.48 2369.02 3542.27 2378.38L3546.12 2386.7 3548.85 2386.7C3554.18 2386.7 3558.5 2382.32 3558.5 2376.93L3558.5 2354.96 3558.5 2304.09 3558.5 2285.07C3558.5 2279.68 3554.18 2275.3 3548.85 2275.3ZM3458.48 2266 3547.52 2266C3558.83 2266 3568 2275.28 3568 2286.73L3568 2304.09 3568 2354.96 3568 2375.27C3568 2385.29 3560.98 2393.65 3551.65 2395.58L3549.71 2395.78 3549.79 2396 3547.52 2396 3458.48 2396 3456.21 2396 3456.31 2395.78 3454.35 2395.58C3445.02 2393.65 3438 2385.29 3438 2375.27L3438 2354.96 3438 2304.09 3438 2286.73C3438 2275.28 3447.17 2266 3458.48 2266Z" fill-rule="evenodd"/></g></svg>