<svg width="130" height="130" xmlns="http://www.w3.org/2000/svg" xmlns:xlink="http://www.w3.org/1999/xlink" xml:space="preserve" overflow="hidden"><g transform="translate(-3772 -2266)"><path d="M3791.15 2275.3C3785.82 2275.3 3781.5 2279.68 3781.5 2285.07L3781.5 2304.09 3781.5 2354.96 3781.5 2376.93C3781.5 2382.32 3785.82 2386.7 3791.15 2386.7L3794.57 2386.7 3799.26 2376.71C3804.81 2366.96 3810.7 2359.48 3816.75 2354.28L3818.57 2353.06 3815 2350.87C3809.37 2345.73 3805.89 2338.63 3805.89 2330.8 3805.89 2315.12 3819.82 2302.41 3837 2302.41 3854.18 2302.41 3868.11 2315.12 3868.11 2330.8 3868.11 2338.63 3864.63 2345.73 3859 2350.87L3856.02 2352.7 3860.9 2356.26C3866.31 2361.65 3871.48 2369.02 3876.27 2378.38L3880.12 2386.7 3882.85 2386.7C3888.18 2386.7 3892.5 2382.32 3892.5 2376.93L3892.5 2354.96 3892.5 2304.09 3892.5 2285.07C3892.5 2279.68 3888.18 2275.3 3882.85 2275.3ZM3792.48 2266 3881.52 2266C3892.83 2266 3902 2275.28 3902 2286.73L3902 2304.09 3902 2354.96 3902 2375.27C3902 2385.29 3894.98 2393.65 3885.65 2395.58L3883.71 2395.78 3883.79 2396 3881.52 2396 3792.48 2396 3790.21 2396 3790.31 2395.78 3788.35 2395.58C3779.02 2393.65 3772 2385.29 3772 2375.27L3772 2354.96 3772 2304.09 3772 2286.73C3772 2275.28 3781.17 2266 3792.48 2266Z" fill-rule="evenodd"/></g></svg>