<svg width="130" height="130" xmlns="http://www.w3.org/2000/svg" xmlns:xlink="http://www.w3.org/1999/xlink" xml:space="preserve" overflow="hidden"><g transform="translate(-3605 -2266)"><path d="M64.9999 93.5875C47.8166 93.5875 33.8868 80.88 33.8868 65.2043 33.8868 57.3664 37.3694 50.2706 42.9998 45.1343L46.5731 42.9365 44.746 41.7203C38.6956 36.5151 32.8072 29.0398 27.2624 19.2899L22.5742 9.30372 108.125 9.30372 104.266 17.6238C99.4839 26.9795 94.3107 34.3518 88.8953 39.7372L84.0196 43.3012 87.0002 45.1343C92.6306 50.2706 96.1129 57.3664 96.1129 65.2043 96.1129 80.88 82.1832 93.5875 64.9999 93.5875ZM20.4819 130 109.518 130C118.002 130 125.281 124.78 128.39 117.341L129.317 114.32 129.584 113.45 129.584 113.45 129.584 113.45C129.857 112.101 130 110.704 130 109.273L130 91.9089 130 91.9088 130 41.0421 130 20.727C130 9.27977 120.83 0 109.518 0L20.4819 0C19.0679 0 17.6874 0.144986 16.3541 0.421116L16.3541 0.421116 16.3541 0.421116 13.7009 1.25456 12.5094 1.62885 12.5094 1.62885 12.5094 1.62885 10.2555 2.86686 9.0303 3.53985 9.03024 3.53985 9.03024 3.53985C7.94065 4.28482 6.92563 5.13313 5.99902 6.07082L4.67404 7.69594 3.49802 9.13833 3.49802 9.13839 3.49796 9.13839 2.49817 11.0024 1.60959 12.6592 1.60959 12.6592 1.60959 12.6592 0.611481 15.9129 0.41612 16.5498 0.41612 16.5498 0.41612 16.5498C0.143301 17.8991 0 19.2961 0 20.727L0 41.0421 0 91.9088 0 91.9089 0 109.273C0 120.72 9.17005 130 20.4819 130Z" fill-rule="evenodd" transform="matrix(1 0 0 -1 3605 2396)"/></g></svg>