<svg width="326" height="329" xmlns="http://www.w3.org/2000/svg" xmlns:xlink="http://www.w3.org/1999/xlink" xml:space="preserve" overflow="hidden"><defs><clipPath id="clip0"><rect x="951" y="2078" width="326" height="329"/></clipPath><linearGradient x1="949.507" y1="2405.49" x2="1278.49" y2="2079.51" gradientUnits="userSpaceOnUse" spreadMethod="reflect" id="fill1"><stop offset="0" stop-color="#DAE3F3"/><stop offset="0.027027" stop-color="#D9E2F2"/><stop offset="0.0540541" stop-color="#D9E2F2"/><stop offset="0.0810811" stop-color="#D9E2F2"/><stop offset="0.108108" stop-color="#D9E2F2"/><stop offset="0.135135" stop-color="#D9E2F2"/><stop offset="0.162162" stop-color="#D8E2F2"/><stop offset="0.189189" stop-color="#D8E1F2"/><stop offset="0.216216" stop-color="#D7E1F2"/><stop offset="0.243243" stop-color="#D7E1F2"/><stop offset="0.27027" stop-color="#D6E0F1"/><stop offset="0.297297" stop-color="#D6E0F1"/><stop offset="0.324324" stop-color="#D5DFF1"/><stop offset="0.351351" stop-color="#D4DFF1"/><stop offset="0.378378" stop-color="#D3DEF1"/><stop offset="0.405405" stop-color="#D3DDF0"/><stop offset="0.432432" stop-color="#D2DDF0"/><stop offset="0.459459" stop-color="#D1DCF0"/><stop offset="0.486486" stop-color="#D0DBEF"/><stop offset="0.513514" stop-color="#CFDAEF"/><stop offset="0.540541" stop-color="#CEDAEF"/><stop offset="0.567568" stop-color="#CCD9EE"/><stop offset="0.594595" stop-color="#CBD8EE"/><stop offset="0.621622" stop-color="#CAD7EE"/><stop offset="0.648649" stop-color="#C9D6ED"/><stop offset="0.675676" stop-color="#C7D5ED"/><stop offset="0.702703" stop-color="#C6D4EC"/><stop offset="0.72973" stop-color="#C4D3EC"/><stop offset="0.756757" stop-color="#C3D2EB"/><stop offset="0.783784" stop-color="#C1D1EB"/><stop offset="0.810811" stop-color="#C0D0EA"/><stop offset="0.837838" stop-color="#BECEEA"/><stop offset="0.864865" stop-color="#BDCDE9"/><stop offset="0.891892" stop-color="#BBCCE9"/><stop offset="0.918919" stop-color="#B9CBE8"/><stop offset="0.945946" stop-color="#B7C9E8"/><stop offset="0.972973" stop-color="#B5C8E7"/><stop offset="1" stop-color="#B4C7E7"/></linearGradient><linearGradient x1="1006.56" y1="2421.79" x2="1196.44" y2="2163.21" gradientUnits="userSpaceOnUse" spreadMethod="reflect" id="fill2"><stop offset="0" stop-color="#9EF01A"/><stop offset="0.76609" stop-color="#70E000"/><stop offset="1" stop-color="#38B000"/></linearGradient></defs><g clip-path="url(#clip0)" transform="translate(-951 -2078)"><path d="M1074.54 2205.96 1073.23 2207.31C1064.31 2216.55 1041.17 2240.34 980.26 2302.72 960.649 2322.75 961.907 2355.72 983.069 2376.35L983.069 2376.35C1004.23 2396.99 1037.28 2397.47 1056.89 2377.43 1056.89 2377.43 1056.89 2377.43 1056.89 2377.43 1061.31 2372.92 1063.96 2370.23 1073.33 2360.66L1077.04 2356.87 1061.59 2341.74 1071.96 2331.2 1087.37 2346.31 1088.33 2345.33C1091.55 2342.04 1095.17 2338.34 1099.26 2334.15 1112.1 2321.01 1113.19 2320.12 1129.79 2303.25L1134.43 2298.52 1118.83 2283.24 1129.19 2272.7 1144.78 2287.97 1145.57 2287.16 1151.17 2281.43ZM1172.89 2078 1176.7 2081.72 1176.7 2081.72 1224.94 2128.75 1273.18 2175.79 1277 2179.51 1266.75 2189.98 1262.93 2186.26 1228.8 2221.13 1228.48 2221.52 1065.09 2388.46 1065.09 2388.46C1040.38 2413.7 998.739 2413.09 972.079 2387.1L972.079 2387.1C945.419 2361.11 943.835 2319.57 968.541 2294.33 1023.01 2238.69 1077.47 2183.04 1131.94 2127.39L1132.28 2127.11 1166.45 2092.2 1162.64 2088.47Z" fill="url(#fill1)" fill-rule="evenodd"/><path d="M1237 2193 1235.83 2194.21 1231.23 2198.94 1215.87 2214.73 1214.58 2216.05 1201.89 2229.08 1186.38 2213.89 1176 2224.44 1191.57 2239.68 1186.51 2244.88 1184.25 2247.2 1174.54 2257.16 1172.99 2258.75 1163.73 2268.24 1161.62 2270.4 1157.32 2274.8 1150.44 2281.83 1147.36 2284.99 1144.67 2287.73 1129.07 2272.45 1118.69 2282.99 1134.31 2298.29 1131.03 2301.63 1128.23 2304.48 1125.32 2307.43 1123.07 2309.71 1120.73 2312.08 1118.9 2313.92 1116.94 2315.9 1115.34 2317.51 1112.97 2319.89 1112.97 2319.89 1112.23 2320.63 1109.27 2323.62 1106.96 2325.94 1106.72 2326.19 1106.55 2326.36 1104.44 2328.51 1103.42 2329.54 1103.31 2329.65 1103.18 2329.79C1101.95 2331.04 1100.6 2332.41 1099.1 2333.95 1095 2338.14 1091.37 2341.85 1088.15 2345.14L1087.19 2346.12 1071.76 2331 1061.38 2341.55 1076.84 2356.69 1073.13 2360.48 1068.55 2365.16 1067.97 2365.75 1066.01 2367.75 1063.41 2370.4 1061.68 2372.17 1061.53 2372.32 1059.79 2374.09C1058.78 2375.13 1057.78 2376.14 1056.68 2377.27L1056.68 2377.27 1056.68 2377.27C1037.04 2397.32 1003.94 2396.84 982.754 2376.19L982.754 2376.19C964.213 2358.12 960.931 2330.6 973.556 2310.57L979.942 2302.49 980.289 2302.14 991.992 2290.15 995.195 2286.87 997.128 2284.9 999.188 2282.79 1003.02 2278.87 1010.64 2271.06 1012.19 2269.47 1012.59 2269.06 1013.06 2268.58C1016.25 2265.31 1019.28 2262.2 1022.17 2259.25L1024.03 2257.34 1025.26 2256.08 1026.93 2254.37 1030.39 2250.82 1034.97 2246.13 1036.48 2244.57 1037.03 2244.01 1037.77 2243.26C1040.09 2240.87 1042.28 2238.63 1044.35 2236.51L1045.31 2235.52 1046.01 2234.8 1047.23 2233.55 1050.18 2230.52 1052.86 2227.77 1053.97 2226.63 1054.5 2226.09 1055.3 2225.26C1056.9 2223.62 1058.38 2222.09 1059.77 2220.67L1060.18 2220.25 1060.51 2219.91 1061.27 2219.13 1063.62 2216.71 1065.07 2215.22 1065.78 2214.49 1066.2 2214.05 1066.91 2213.32 1067.74 2212.47 1069.91 2210.24 1071.28 2208.81 1071.97 2208.11 1072.35 2207.71 1073.04 2207C1074.82 2205.15 1076.04 2203.89 1076.88 2203.01L1077.02 2202.86 1077.31 2202.56C1077.8 2202.05 1078.12 2201.71 1078.34 2201.48L1078.39 2201.42 1078.44 2201.36 1078.54 2201.26 1078.75 2201.03 1078.86 2200.9 1079.24 2200.48 1079.37 2200.35 1080.58 2199.11 1081.39 2198.29 1081.98 2197.69 1084.38 2195.25 1084.53 2195.09 1086.59 2193Z" fill="url(#fill2)" fill-rule="evenodd"/></g></svg>