<svg width="325" height="327" xmlns="http://www.w3.org/2000/svg" xmlns:xlink="http://www.w3.org/1999/xlink" xml:space="preserve" overflow="hidden"><defs><clipPath id="clip0"><rect x="1393" y="2064" width="325" height="327"/></clipPath><radialGradient cx="331124" cy="328353" r="466324" fx="331124" fy="328353" gradientUnits="userSpaceOnUse" spreadMethod="pad" id="fill1" gradientTransform="scale(0.000360892 0.000360892)"><stop offset="0" stop-color="#FF006E"/><stop offset="0.97" stop-color="#FB5607"/><stop offset="1" stop-color="#FB5607"/></radialGradient><linearGradient x1="1548.29" y1="2185.88" x2="1598.23" y2="2235.64" gradientUnits="userSpaceOnUse" spreadMethod="reflect" id="fill2"><stop offset="0" stop-color="#F2F2F2"/><stop offset="0.5" stop-color="#F2F2F2"/><stop offset="0.51" stop-color="#BFBFBF"/><stop offset="0.97" stop-color="#BFBFBF"/><stop offset="1" stop-color="#BFBFBF"/></linearGradient><radialGradient cx="275070" cy="0" r="380849" fx="275070" gradientUnits="userSpaceOnUse" spreadMethod="pad" id="fill3" gradientTransform="matrix(0.000254722 -0.000255657 0.000255657 0.000254722 1378.16 2339.24)"><stop offset="0" stop-color="#FF006E"/><stop offset="0.97" stop-color="#FB5607"/><stop offset="1" stop-color="#FB5607"/></radialGradient></defs><g clip-path="url(#clip0)" transform="translate(-1393 -2064)"><path d="M239 0 0 0C11.5649 163.921 33.9235 169.58 117.961 237L121.039 237C205.076 169.58 227.435 163.921 239 0Z" fill="url(#fill1)" fill-rule="evenodd" transform="matrix(-1 0 0 1 1718 2064)"/><path d="M1461.61 2283.83 1616.05 2117.88 1665.32 2118.18 1665.34 2118.2 1665.4 2118.26 1665.4 2118.27 1665.42 2118.28 1665.42 2118.28 1665.48 2118.35 1665.5 2118.37 1665.99 2167.63 1500.6 2322.67 1481.12 2303.26 1481.1 2303.24 1461.61 2283.83Z" fill="url(#fill2)" fill-rule="evenodd"/><path d="M1430.83 2286.37 1448.22 2268.92 1515.56 2336.01 1498.17 2353.47 1481.49 2341.56 1443.99 2370.05 1429.84 2390.74 1393.81 2354.84 1414.45 2340.62 1442.8 2303.01 1430.83 2286.37Z" fill="url(#fill3)" fill-rule="evenodd"/></g></svg>