<svg width="1460" height="1469" xmlns="http://www.w3.org/2000/svg" xmlns:xlink="http://www.w3.org/1999/xlink" xml:space="preserve" overflow="hidden"><defs><clipPath id="clip0"><rect x="1470" y="503" width="1460" height="1469"/></clipPath><radialGradient cx="2022764" cy="2035233" r="2869451" fx="2022764" gradientUnits="userSpaceOnUse" spreadMethod="pad" id="fill1" gradientTransform="matrix(0.000360892 0 0 0.000360892 1470 503)"><stop offset="0" stop-color="#BF9000"/><stop offset="0.53" stop-color="#BF9000"/><stop offset="0.63" stop-color="#EEB000"/><stop offset="1" stop-color="#EEB000"/></radialGradient><radialGradient cx="2022764" cy="2033847" r="2868468" fx="2022764" fy="2033848" gradientUnits="userSpaceOnUse" spreadMethod="pad" id="fill2" gradientTransform="matrix(0.000360892 0 0 0.000360892 1470 503)"><stop offset="0" stop-color="#FFDC0B"/><stop offset="0.34" stop-color="#FFD70B"/><stop offset="0.51" stop-color="#FFBE0B"/><stop offset="1" stop-color="#FFBE0B"/></radialGradient></defs><g clip-path="url(#clip0)" transform="translate(-1470 -503)"><path d="M2234.28 503C2618.52 503 2930 814.511 2930 1198.78 2930 1414.93 2831.44 1608.06 2676.82 1735.68L2585.54 1827.17C2329.45 2024.91 1962.3 2022.92 1709.08 1804.2 1419.68 1554.22 1388.67 1115.82 1639.82 825.009L1697.43 756.199C1825.04 601.564 2018.15 503 2234.28 503Z" fill="url(#fill1)" fill-rule="evenodd"/><path d="M2298.68 1073.53 2298.68 1453.22 2427.49 1453.22 2427.49 1073.53ZM2041.3 1073.53 2041.3 1453.22 2170.11 1453.22 2170.11 1073.53ZM2234.18 740.112 2595.38 1038.19 2595.21 1038.19 2595.21 1073.53 2555.63 1073.53 2555.63 1453.22 2595.21 1453.22 2595.21 1488.56 1873.15 1488.56 1873.15 1453.22 1912.73 1453.22 1912.73 1073.53 1873.15 1073.53 1873.15 1038.19 1872.98 1038.19ZM2234.18 680.843C1948.12 680.843 1716.22 912.721 1716.22 1198.76 1716.22 1484.79 1948.12 1716.67 2234.18 1716.67 2520.24 1716.67 2752.14 1484.79 2752.14 1198.76 2752.14 912.721 2520.24 680.843 2234.18 680.843ZM2234.18 503C2618.47 503 2930 814.501 2930 1198.76 2930 1534.98 2691.49 1815.5 2374.41 1880.38L2337.92 1885.95 2271.67 1962.69 2226.17 1968.82 2187.01 1971 2187.07 1970.92 2188.53 1970.89 2253.53 1893.95 2253.9 1893.52 2234.18 1894.51C2138.11 1894.51 2046.58 1875.05 1963.34 1839.84L1932.26 1824.87 1863.34 1904.69 1851.79 1899.5 1810.18 1876.52 1879.31 1796.45 1845.14 1775.69C1789.62 1738.18 1739.79 1692.87 1697.25 1641.32L1664.21 1597.14 1595.14 1677.14 1573.5 1645.89 1562.3 1625.69 1572.45 1613.68 1631.43 1545.36 1622.34 1530.4C1579.5 1451.53 1551.46 1363.45 1541.95 1269.89L1538.5 1201.4 1470.39 1280.28 1470 1263.29C1470.41 1246.62 1471.42 1229.95 1473.03 1213.32L1477.11 1182.75 1477.24 1182.59 1477.13 1183.26 1498.05 1158.49 1545.66 1103.35 1552.5 1058.54C1617.38 741.493 1897.93 503 2234.18 503Z" fill="url(#fill2)" fill-rule="evenodd"/></g></svg>