<svg width="322" height="323" xmlns="http://www.w3.org/2000/svg" xmlns:xlink="http://www.w3.org/1999/xlink" xml:space="preserve" overflow="hidden"><defs><clipPath id="clip0"><rect x="2705" y="2069" width="322" height="323"/></clipPath><radialGradient cx="446117" cy="447502" r="631885" fx="446116" fy="447502" gradientUnits="userSpaceOnUse" spreadMethod="pad" id="fill1" gradientTransform="matrix(0.000360892 0 0 0.000360892 2705 2069)"><stop offset="0" stop-color="#8338EC"/><stop offset="0.0136986" stop-color="#8438EB"/><stop offset="0.0273973" stop-color="#8638EB"/><stop offset="0.0410959" stop-color="#8838EB"/><stop offset="0.0547945" stop-color="#8A38EB"/><stop offset="0.0684932" stop-color="#8C38EB"/><stop offset="0.0821918" stop-color="#8D38EB"/><stop offset="0.0958904" stop-color="#8F38EB"/><stop offset="0.109589" stop-color="#9138EB"/><stop offset="0.123288" stop-color="#9338EB"/><stop offset="0.136986" stop-color="#9438EB"/><stop offset="0.150685" stop-color="#9638EB"/><stop offset="0.164384" stop-color="#9838EB"/><stop offset="0.178082" stop-color="#9938EB"/><stop offset="0.191781" stop-color="#9B38EB"/><stop offset="0.205479" stop-color="#9C38EB"/><stop offset="0.219178" stop-color="#9E38EB"/><stop offset="0.232877" stop-color="#9F38EB"/><stop offset="0.246575" stop-color="#A138EB"/><stop offset="0.260274" stop-color="#A238EB"/><stop offset="0.273973" stop-color="#A438EB"/><stop offset="0.287671" stop-color="#A538EB"/><stop offset="0.30137" stop-color="#A738EB"/><stop offset="0.315068" stop-color="#A839EB"/><stop offset="0.328767" stop-color="#A939EB"/><stop offset="0.342466" stop-color="#AB39EB"/><stop offset="0.356164" stop-color="#AC39EB"/><stop offset="0.369863" stop-color="#AD39EB"/><stop offset="0.383562" stop-color="#AF39EB"/><stop offset="0.39726" stop-color="#B039EB"/><stop offset="0.410959" stop-color="#B139EB"/><stop offset="0.424658" stop-color="#B239EB"/><stop offset="0.438356" stop-color="#B339EB"/><stop offset="0.452055" stop-color="#B539EB"/><stop offset="0.465753" stop-color="#B639EB"/><stop offset="0.479452" stop-color="#B739EB"/><stop offset="0.493151" stop-color="#B839EB"/><stop offset="0.506849" stop-color="#B939EB"/><stop offset="0.520548" stop-color="#BA39EB"/><stop offset="0.534247" stop-color="#BB39EB"/><stop offset="0.547945" stop-color="#BC39EB"/><stop offset="0.561644" stop-color="#BD39EB"/><stop offset="0.575342" stop-color="#BE39EB"/><stop offset="0.589041" stop-color="#BF39EB"/><stop offset="0.60274" stop-color="#BF39EB"/><stop offset="0.616438" stop-color="#C039EB"/><stop offset="0.630137" stop-color="#C139EB"/><stop offset="0.643836" stop-color="#C239EB"/><stop offset="0.657534" stop-color="#C339EB"/><stop offset="0.671233" stop-color="#C339EB"/><stop offset="0.684932" stop-color="#C439EB"/><stop offset="0.69863" stop-color="#C539EA"/><stop offset="0.712329" stop-color="#C539EA"/><stop offset="0.726027" stop-color="#C639EA"/><stop offset="0.739726" stop-color="#C739EA"/><stop offset="0.753425" stop-color="#C739EA"/><stop offset="0.767123" stop-color="#C839EA"/><stop offset="0.780822" stop-color="#C839EA"/><stop offset="0.794521" stop-color="#C939EA"/><stop offset="0.808219" stop-color="#C939EA"/><stop offset="0.821918" stop-color="#CA39EA"/><stop offset="0.835616" stop-color="#CA39EA"/><stop offset="0.849315" stop-color="#CA39EA"/><stop offset="0.863014" stop-color="#CB39EA"/><stop offset="0.876712" stop-color="#CB39EA"/><stop offset="0.890411" stop-color="#CB39EA"/><stop offset="0.90411" stop-color="#CC39EA"/><stop offset="0.917808" stop-color="#CC39EA"/><stop offset="0.931507" stop-color="#CC39EA"/><stop offset="0.945205" stop-color="#CC39EA"/><stop offset="0.958904" stop-color="#CC39EA"/><stop offset="0.972603" stop-color="#CC39EA"/><stop offset="0.986301" stop-color="#CC39EA"/><stop offset="1" stop-color="#CD3AEA"/></radialGradient><radialGradient cx="379614" cy="381000" r="537837" fx="379614" gradientUnits="userSpaceOnUse" spreadMethod="pad" id="fill2" gradientTransform="matrix(0.000360892 0 0 0.000360892 2729 2093)"><stop offset="0" stop-color="#8338EC"/><stop offset="0.06" stop-color="#8338EC"/><stop offset="1" stop-color="#CD3AEA"/></radialGradient><radialGradient cx="124690" cy="123306" r="175363" fx="124690" gradientUnits="userSpaceOnUse" spreadMethod="pad" id="fill3" gradientTransform="matrix(0.000360892 0 0 0.000360892 2821 2186)"><stop offset="0" stop-color="#FCE00E"/><stop offset="0.29" stop-color="#FCE00E"/><stop offset="0.96" stop-color="#FFBE0B"/><stop offset="1" stop-color="#FFBE0B"/></radialGradient></defs><g clip-path="url(#clip0)" transform="translate(-2705 -2069)"><path d="M2860.95 2069.01C2877 2068.51 2891.77 2090.91 2900.6 2124.87L2901.68 2129.83 2904.25 2127.96C2931.1 2109.43 2956.45 2098.6 2974.76 2097.85 2984.06 2097.47 2991.54 2099.68 2996.49 2104.82 3010.41 2119.25 3000.55 2152.88 2974.45 2189.89L2974.05 2190.43 2985.18 2193.12C3010.4 2200.49 3026.57 2212.04 3026.99 2225.47 3027.5 2241.59 3005.19 2256.42 2971.39 2265.28L2966.88 2266.28 2972.87 2275.08C2997.59 2313.03 3006.2 2347 2991.76 2360.91 2977.32 2374.82 2943.67 2364.96 2906.64 2338.88L2906.02 2338.42 2903.25 2350C2895.92 2375.34 2884.42 2391.57 2871.05 2391.99 2855 2392.49 2840.23 2370.09 2831.4 2336.13L2830.33 2331.23 2821.39 2337.31C2783.42 2362.01 2749.43 2370.62 2735.51 2356.18 2721.59 2341.75 2731.45 2308.12 2757.55 2271.11L2757.95 2270.57 2746.82 2267.88C2721.6 2260.51 2705.43 2248.96 2705.01 2235.53 2704.5 2219.41 2726.81 2204.58 2760.61 2195.72L2765.12 2194.73 2759.13 2185.92C2734.41 2147.97 2725.8 2114 2740.24 2100.09 2744.09 2096.38 2749.3 2094.36 2755.59 2093.89 2771.29 2092.71 2793.66 2101.2 2818 2117.12L2825.95 2122.72 2828.75 2111C2836.08 2085.66 2847.58 2069.43 2860.95 2069.01Z" fill="url(#fill1)" fill-rule="evenodd"/><path d="M2858.67 2093.02C2866.8 2092.59 2874.69 2099.08 2881.47 2110.47L2882 2111.47 2886.21 2107.55C2893.03 2101.82 2899.65 2098.79 2905.56 2099.12 2906.87 2099.19 2908.15 2099.43 2909.38 2099.84 2918.65 2102.92 2923.97 2115.15 2925.19 2132.73L2925.24 2134.52 2926.87 2133.77C2943.13 2126.98 2956.45 2126.24 2963.36 2133.15 2969.11 2138.9 2969.56 2149.11 2965.62 2161.77L2965.23 2162.84 2966.37 2162.86C2979.59 2163.82 2988.93 2167.96 2992.19 2175.42 2994.79 2181.39 2993.2 2188.77 2988.21 2196.78L2984.02 2202.65 2989.9 2205.79C2997.92 2210.75 3002.63 2216.66 3002.98 2223.2 3003.35 2230.06 2998.85 2236.75 2990.69 2242.75L2984.9 2246.47 2985.51 2247.05C2994.64 2256.6 2998.76 2265.96 2996.19 2273.72 2993.48 2281.87 2983.8 2287 2969.69 2289.02L2961.98 2289.73 2962.56 2291C2969.27 2307.23 2969.94 2320.55 2963 2327.49 2958.14 2332.35 2950.15 2333.48 2940.24 2331.42L2933.6 2329.6 2933.58 2330.44C2932.57 2343.61 2928.37 2352.94 2920.88 2356.21 2914.58 2358.96 2906.73 2357.1 2898.25 2351.56L2894.04 2348.41 2890.64 2354.85C2885.72 2362.9 2879.83 2367.63 2873.33 2367.98 2866.5 2368.34 2859.84 2363.82 2853.87 2355.62L2849.99 2349.53 2849.21 2350.36C2839.67 2359.55 2830.34 2363.73 2822.62 2361.16 2814.5 2358.47 2809.42 2348.77 2807.46 2334.6L2806.74 2326.49 2805.13 2327.23C2788.87 2334.02 2775.55 2334.76 2768.64 2327.85 2763.81 2323.02 2762.72 2315.04 2764.83 2305.11L2766.76 2298.16 2765.63 2298.14C2752.41 2297.18 2743.07 2293.04 2739.81 2285.58 2737.08 2279.31 2738.97 2271.49 2744.56 2263.01L2748.05 2258.39 2742.1 2255.21C2734.08 2250.25 2729.37 2244.34 2729.02 2237.8 2728.58 2229.64 2735.04 2221.71 2746.37 2214.9L2747.09 2214.51 2746.49 2213.95C2737.36 2204.4 2733.24 2195.04 2735.81 2187.28 2738.91 2177.97 2751.11 2172.59 2768.63 2171.31L2770.02 2171.27 2767.21 2164.06C2762.68 2150.54 2762.93 2139.59 2769 2133.51 2774.79 2127.73 2785 2127.23 2797.64 2131.1L2798.42 2131.39 2799.15 2124.54C2800.86 2114.56 2804.83 2107.54 2811.12 2104.79 2817.12 2102.17 2824.52 2103.74 2832.54 2108.68L2838.04 2112.57 2839.91 2108.66C2844.17 2100.83 2849.23 2095.6 2854.84 2093.75 2856.09 2093.33 2857.37 2093.09 2858.67 2093.02Z" fill="url(#fill2)" fill-rule="evenodd"/><path d="M2866.83 2186.01C2878.34 2186.22 2889.78 2190.77 2898.4 2199.62 2915.65 2217.32 2915.12 2245.49 2897.23 2262.54 2879.33 2279.6 2850.85 2279.08 2833.6 2261.38 2816.35 2243.68 2816.88 2215.51 2834.77 2198.46 2843.72 2189.93 2855.32 2185.8 2866.83 2186.01Z" fill="url(#fill3)" fill-rule="evenodd"/></g></svg>