<svg width="64" height="65" xmlns="http://www.w3.org/2000/svg" xmlns:xlink="http://www.w3.org/1999/xlink" xml:space="preserve" overflow="hidden"><defs><clipPath id="clip0"><rect x="2011" y="1428" width="64" height="65"/></clipPath></defs><g clip-path="url(#clip0)" transform="translate(-2011 -1428)"><path d="M2057.27 1476.93 2065.71 1476.93 2065.71 1483.45 2065.71 1483.57 2057.27 1483.57 2057.27 1483.45ZM2046.21 1476.93 2053.38 1476.93 2053.38 1483.45 2053.38 1483.57 2046.21 1483.57 2046.21 1483.45ZM2028.73 1476.93 2042.33 1476.93 2042.33 1483.45 2042.33 1483.57 2028.73 1483.57 2028.73 1483.45ZM2020.29 1476.93 2020.4 1476.93 2024.84 1476.93 2024.84 1483.45 2024.84 1483.57 2020.4 1483.57 2020.29 1483.57 2020.29 1483.45ZM2057.27 1466.34 2065.71 1466.34 2065.71 1472.98 2057.27 1472.98ZM2046.21 1466.34 2053.38 1466.34 2053.38 1472.98 2046.21 1472.98ZM2028.73 1466.34 2042.33 1466.34 2042.33 1472.98 2028.73 1472.98ZM2020.29 1466.34 2020.4 1466.34 2024.84 1466.34 2024.84 1472.98 2020.4 1472.98 2020.29 1472.98ZM2057.27 1455.75 2065.71 1455.75 2065.71 1462.39 2057.27 1462.39ZM2046.21 1455.75 2053.38 1455.75 2053.38 1462.39 2046.21 1462.39ZM2028.73 1455.75 2042.33 1455.75 2042.33 1462.39 2028.73 1462.39ZM2020.29 1455.75 2020.4 1455.75 2024.84 1455.75 2024.84 1462.39 2020.4 1462.39 2020.29 1462.39ZM2057.27 1445.16 2065.71 1445.16 2065.71 1451.8 2057.27 1451.8ZM2046.21 1445.16 2053.38 1445.16 2053.38 1451.8 2046.21 1451.8ZM2028.73 1445.16 2042.33 1445.16 2042.33 1451.8 2028.73 1451.8ZM2020.29 1445.16 2020.4 1445.16 2024.84 1445.16 2024.84 1451.8 2020.4 1451.8 2020.29 1451.8ZM2016.4 1433.48 2016.4 1433.49 2016.4 1436.3 2016.4 1483.45 2016.4 1487.51 2016.4 1487.52 2020.4 1487.52 2066.83 1487.52 2069.6 1487.52 2069.6 1487.51 2069.6 1487.51 2069.6 1483.45 2069.6 1436.3 2069.6 1433.49 2069.6 1433.49 2069.6 1433.48 2066.83 1433.48 2020.4 1433.48ZM2011 1428 2075 1428 2075 1493 2011 1493Z" fill-rule="evenodd"/></g></svg>