<svg width="134" height="134" xmlns="http://www.w3.org/2000/svg" xmlns:xlink="http://www.w3.org/1999/xlink" xml:space="preserve" overflow="hidden"><defs><clipPath id="clip0"><rect x="1380" y="1776" width="134" height="134"/></clipPath></defs><g clip-path="url(#clip0)" transform="translate(-1380 -1776)"><path d="M1513.23 1840.23 1513.67 1842.38C1513.98 1845.19 1514.02 1847.46 1513.99 1848.83ZM1410.83 1835.19C1406.06 1835.19 1402.11 1839.03 1402.11 1843.79 1402.11 1848.54 1406.06 1852.38 1410.83 1852.38 1415.6 1852.38 1419.45 1848.54 1419.45 1843.79 1419.45 1839.03 1415.6 1835.19 1410.83 1835.19ZM1476.89 1821.48C1480.75 1821.07 1485.81 1821.9 1490.58 1826.81 1495.4 1832.9 1494.33 1836.97 1494.33 1836.97L1467.24 1836.97 1467.24 1850.31 1513.92 1850.31C1513.6 1853.14 1513.11 1855.99 1512.41 1858.83 1510.25 1862.35 1505.76 1867.96 1497.96 1870.5 1486.19 1874.34 1467.24 1870.94 1462.31 1854.38 1458.36 1837.82 1465.1 1826.28 1470.34 1823.51 1470.34 1823.51 1473.02 1821.88 1476.89 1821.48ZM1443.57 1776.1C1450.16 1775.75 1456.97 1776.33 1463.7 1778.03 1488 1784.19 1505.75 1802.84 1511.9 1825.35L1513.23 1840.23 1511.69 1832.7C1509.54 1825.65 1505.43 1817.89 1497.63 1812.3 1479.43 1799.27 1453.21 1808.34 1445.72 1827.78 1438.22 1847.22 1443.74 1875 1473.83 1885.36 1482.81 1888.45 1491.09 1888.34 1498.16 1886.65 1482.08 1905.31 1456.18 1914.39 1430.65 1907.93 1394.7 1898.83 1372.96 1862.35 1382.08 1826.49 1389.48 1797.35 1414.98 1777.61 1443.57 1776.1Z" fill-rule="evenodd"/></g></svg>