<svg width="117" height="97" xmlns="http://www.w3.org/2000/svg" xmlns:xlink="http://www.w3.org/1999/xlink" xml:space="preserve" overflow="hidden"><g transform="translate(-1510 -177)"><path d="M1519.5 191.066 1519.16 193.216 1519.16 257.784C1519.24 263.816 1519.32 264.808 1525.58 264.763L1610.91 264.763C1616.9 264.683 1617.88 264.603 1617.84 258.298L1617.84 192.703 1617.49 191.081 1578.64 223.305C1569.09 231.024 1567.95 230.586 1558.36 223.305ZM1528.1 186.238 1565.4 217.182C1568.51 220.028 1568.33 219.84 1571.6 217.182L1608.9 186.238ZM1609.34 177C1622.47 177.363 1626.7 177.731 1627 194.292L1627 256.709C1626.7 273.27 1622.47 273.638 1609.34 274L1527.15 274C1510.72 273.701 1510.36 269.433 1510 256.195L1510 194.805C1510.36 181.568 1510.72 177.3 1527.15 177Z" fill-rule="evenodd"/></g></svg>