<svg width="510" height="356" xmlns="http://www.w3.org/2000/svg" xmlns:xlink="http://www.w3.org/1999/xlink" xml:space="preserve" overflow="hidden"><defs><clipPath id="clip0"><rect x="1463" y="1386" width="510" height="356"/></clipPath></defs><g clip-path="url(#clip0)" transform="translate(-1463 -1386)"><path d="M1799.32 1691.02 1973 1691.02 1973 1742 1799.32 1742ZM1463 1595.7 1646.65 1595.7 1646.65 1646.69 1463 1646.69ZM1586.18 1500.39 1887.69 1500.39 1887.69 1551.38 1586.18 1551.38ZM1902.03 1396.3 1902.03 1426.68 1939.54 1426.68 1939.54 1396.3ZM1765.13 1396.3 1765.13 1426.68 1802.63 1426.68 1802.63 1396.3ZM1695.01 1396.3 1695.01 1426.68 1732.51 1426.68 1732.51 1396.3ZM1592.04 1396.3 1592.04 1426.68 1629.54 1426.68 1629.54 1396.3ZM1492.23 1396.3 1492.23 1426.68 1529.73 1426.68 1529.73 1396.3ZM1463 1386 1973 1386 1973 1436.98 1463 1436.98Z" fill-rule="evenodd"/></g></svg>