<svg width="130" height="130" xmlns="http://www.w3.org/2000/svg" xmlns:xlink="http://www.w3.org/1999/xlink" xml:space="preserve" overflow="hidden"><defs><clipPath id="clip0"><rect x="2033" y="1689" width="130" height="130"/></clipPath></defs><g clip-path="url(#clip0)" transform="translate(-2033 -1689)"><path d="M46.1017 33.6442C40.7703 33.6442 36.4483 29.3863 36.4483 24.1339L36.4483 9.05747 55.2828 9.05747 58.9104 9.05747 93.5517 9.05747 93.5517 24.1339C93.5517 29.3863 89.2297 33.6442 83.8984 33.6442L67.4795 33.6442 56.3998 33.6442ZM116.226 119.118 116.226 79.0459 106.726 79.0459 106.726 79.046 80.3732 79.046 80.3732 79.0459 23.2744 79.0459 13.7743 79.0459 13.7743 119.118 12.3275 118.157C10.5806 116.436 9.5001 114.059 9.5001 111.433L9.5001 102.345 9.5001 29.5818 9.5001 20.4939C9.5001 15.2415 13.8221 10.9836 19.1534 10.9836L26.9482 10.9836 26.9482 22.5232C26.9482 33.6675 36.1183 42.7017 47.4301 42.7017L56.3998 42.7017 67.4795 42.7017 82.5699 42.7017C93.8817 42.7017 103.052 33.6675 103.052 22.5232L103.052 10.9836 110.847 10.9836C116.178 10.9836 120.5 15.2415 120.5 20.4939L120.5 29.5818 120.5 102.345 120.5 111.433C120.5 114.059 119.419 116.436 117.673 118.157ZM23.2744 120.943 23.2744 88.4053 47.7973 88.4053 47.7973 88.4053 106.726 88.4053 106.726 120.943 57.6537 120.943 54.0261 120.943ZM20.4818 130 54.0261 130 57.6537 130 109.518 130C120.83 130 130 120.966 130 109.822L130 102.345 130 29.5818 130 22.1046C130 10.9603 120.83 1.92609 109.518 1.92609L103.052 1.92609 103.052 0 58.9104 0 55.2828 0 26.9482 0 26.9482 1.92609 20.4818 1.92609C9.17003 1.92609 0 10.9603 0 22.1046L0 29.5818 0 102.345 0 109.822C0 120.966 9.17003 130 20.4818 130Z" fill-rule="evenodd" transform="matrix(1 0 0 -1 2033 1819)"/></g></svg>