<svg width="130" height="130" xmlns="http://www.w3.org/2000/svg" xmlns:xlink="http://www.w3.org/1999/xlink" xml:space="preserve" overflow="hidden"><defs><clipPath id="clip0"><rect x="4142" y="2204" width="130" height="130"/></clipPath></defs><g clip-path="url(#clip0)" transform="translate(-4142 -2204)"><path d="M104.524 99.8753 120.228 99.8753 120.5 99.8753 120.5 120.5 120.228 120.5 104.524 120.5ZM104.524 72.8523 120.228 72.8523 120.5 72.8523 120.5 90.3752 120.228 90.3752 104.524 90.3752ZM104.524 30.125 120.228 30.125 120.5 30.125 120.5 63.3522 120.228 63.3522 104.524 63.3522ZM104.524 9.50014 120.228 9.50014 120.5 9.50014 120.5 9.76821 120.5 20.6249 120.228 20.6249 104.524 20.6249 104.524 9.76821ZM79.0474 99.8753 95.0235 99.8753 95.0235 120.5 79.0474 120.5ZM79.0474 72.8523 95.0235 72.8523 95.0235 90.3752 79.0474 90.3752ZM79.0474 30.125 95.0235 30.125 95.0235 63.3522 79.0474 63.3522ZM79.0474 9.50014 95.0235 9.50014 95.0235 9.76821 95.0235 20.6249 79.0474 20.6249 79.0474 9.76821ZM53.5711 99.8753 69.5473 99.8753 69.5473 120.5 53.5711 120.5ZM53.5711 72.8523 69.5473 72.8523 69.5473 90.3752 53.5711 90.3752ZM53.5711 30.125 69.5473 30.125 69.5473 63.3522 53.5711 63.3522ZM53.5711 9.50014 69.5473 9.50014 69.5473 9.76821 69.5473 20.6249 53.5711 20.6249 53.5711 9.76824ZM28.0948 99.8753 44.071 99.8753 44.071 120.5 28.0948 120.5ZM28.0948 72.8523 44.071 72.8523 44.071 90.3752 28.0948 90.3752ZM28.0948 30.125 44.071 30.125 44.071 63.3522 28.0948 63.3522ZM28.0948 9.50014 44.071 9.50014 44.071 9.76824 44.071 20.6249 28.0948 20.6249 28.0948 9.76819ZM0 2.12657e-05 0 9.76819 0 123.228 0 129.993 0.00361516 129.993 0.00361516 130 6.76843 130 120.228 130 129.996 130 129.996 129.993 130 129.993 130 123.228 130 9.76821 130 2.12657e-05 129.996 2.12657e-05 129.996 0 120.228 0 6.76843 0 0.00361516 0 0.00361516 2.12657e-05Z" fill-rule="evenodd" transform="matrix(6.12323e-17 1 1 -6.12323e-17 4142 2204)"/></g></svg>