<svg width="2155" height="2475" xmlns="http://www.w3.org/2000/svg" xmlns:xlink="http://www.w3.org/1999/xlink" xml:space="preserve" overflow="hidden"><defs><clipPath id="clip0"><rect x="1122" y="0" width="2155" height="2475"/></clipPath></defs><g clip-path="url(#clip0)" transform="translate(-1122 0)"><path d="M2285.71 2262.1 2285.71 2403.45 2697.75 2403.45 2697.75 2262.1 2285.71 2262.1ZM1701.08 2262.1 1701.08 2403.45 2113.11 2403.45 2113.11 2262.1 1701.08 2262.1ZM3169.57 1225.39C3160.38 1227.18 3149.46 1236.03 3136.97 1256.49L2995.59 1589.7C2987.52 1604.26 2976.65 1618.47 2962.62 1631.97L2720.37 1901.7C2707.22 1916.43 2684.59 1917.66 2670.03 1904.51 2655.29 1891.35 2654.07 1868.73 2667.23 1854.17L2909.46 1584.26C2955.16 1527.3 2939.88 1529.27 2941.39 1512.37 2938.14 1497.11 2932.67 1496.53 2920.86 1492.72 2906.83 1488.2 2867.54 1506.4 2828.77 1552.17 2797.2 1576.49 2747.74 1624.13 2731.42 1638.63L2730.9 1639.16C2629.34 1735.26 2561.84 1761.36 2506.02 1799.63 2450.22 1837.89 2427.18 1841.22 2396.05 1868.73 2364.91 1896.23 2331.84 1932.92 2319.22 1964.66 2306.06 1997.63 2301.32 2037.78 2294.84 2092.86 2292.2 2115.13 2290.28 2137.05 2288.7 2158.97 2287.65 2169.67 2287.12 2180.19 2286.59 2190.54L2670.91 2190.54C2701.78 2159.85 2735.64 2127.93 2770.01 2095.48 2842.11 2027.27 2917.35 1956.07 2994.71 1866.98 3083.12 1765.08 3092.59 1729.83 3119.42 1630.04 3150.88 1552.64 3172.69 1440.79 3183.45 1402.58L3183.97 1400.82C3208.53 1328.92 3210.46 1281.39 3200.29 1254.04 3195.4 1239 3184.89 1222.4 3169.57 1225.39ZM1229.31 1225.27C1213.9 1222.33 1203.3 1238.98 1198.36 1254.04 1188.18 1281.39 1190.12 1328.92 1214.67 1400.82L1279.22 1630.04C1306.06 1729.83 1315.53 1765.08 1403.94 1866.98 1481.29 1956.07 1556.54 2027.27 1628.64 2095.48 1663.02 2127.93 1696.87 2159.85 1727.74 2190.54L2112.24 2190.54C2111.71 2180.19 2111.19 2169.67 2110.13 2158.8 2108.55 2136.87 2106.63 2114.95 2103.99 2092.68 2097.5 2037.61 2092.77 1997.46 2079.61 1964.48 2066.98 1932.74 2033.92 1896.06 2002.78 1868.55 1971.65 1841.05 1948.61 1837.71 1892.8 1799.46 1836.99 1761.19 1769.49 1735.09 1667.92 1638.99L1667.4 1638.46 1573.56 1555.68C1541.99 1531.36 1499.03 1493.05 1477.96 1492.55 1462.45 1492.18 1459.53 1497.51 1457.44 1512.18 1453.05 1530.96 1460.95 1556.73 1486.03 1580.59 1531.73 1637.58 1691.14 1800.18 1731.6 1854.17 1744.75 1868.73 1743.53 1891.35 1728.8 1904.51 1714.24 1917.66 1691.61 1916.43 1678.45 1901.7L1436.39 1631.79C1419.8 1618.78 1408.65 1600.04 1398.5 1581.28L1262.03 1256.31C1249.53 1235.86 1238.56 1227.04 1229.31 1225.27ZM1218.23 1171.29C1254.58 1167.66 1294.53 1182.31 1326.06 1223.52L1326.24 1223.52 1418.67 1443.79C1432.71 1431.51 1450.24 1423.45 1470.77 1421.34L1470.94 1421.34C1512.87 1416.78 1567.59 1438.53 1623.55 1503.95L1715.11 1584.79C1715.81 1585.32 1716.69 1586.02 1717.39 1586.72 1812.29 1676.52 1870.97 1698.26 1926.31 1736.14 1981.64 1774.03 2012.75 1780.31 2049.44 1814.01 2086.13 1847.71 2129.08 1895.03 2146.44 1938.35 2163.28 1980.62 2168.54 2024.63 2175.55 2084.79 2178.19 2107.76 2180.29 2130.92 2181.87 2154.24 2183.45 2177.04 2184.85 2201.59 2184.85 2224.38L2184.85 2439.22C2184.85 2459.04 2168.9 2475 2149.07 2475L1665.3 2475C1645.65 2475 1629.51 2459.04 1629.51 2439.22L1629.51 2226.32C1629.51 2217.37 1632.84 2209.14 1638.28 2202.81L1580.23 2146.87C1506.2 2076.89 1429.19 2003.94 1350.44 1913.27 1250.98 1798.93 1240.46 1759.47 1210.64 1648.1L1147.15 1422.57C1116.97 1334.01 1116.62 1269.99 1132.06 1228.78 1149.16 1196.85 1181.9 1174.93 1218.23 1171.29ZM3168.05 1165.96C3221.34 1162.19 3267.49 1197.09 3266.94 1228.78 3282.38 1269.99 3282.03 1334.01 3251.86 1422.57L3188.36 1648.1C3158.55 1759.47 3148.02 1798.93 3048.56 1913.27 2969.8 2003.94 2892.8 2076.89 2818.78 2146.87 2799.48 2165.64 2780.19 2184.05 2760.55 2202.81 2765.98 2209.14 2769.31 2217.37 2769.31 2226.32L2769.31 2439.22C2769.31 2459.04 2753.35 2475 2733.53 2475L2249.93 2475C2230.11 2475 2214.15 2459.04 2214.15 2439.22L2214.15 2224.38C2214.65 2176.89 2215.58 2177.51 2217.13 2154.24 2218.71 2130.92 2220.82 2107.76 2223.44 2084.79 2230.46 2024.63 2235.73 1980.62 2252.56 1938.35 2269.93 1895.03 2312.87 1847.71 2349.56 1814.01 2386.25 1780.31 2417.36 1774.03 2472.7 1736.14 2528.04 1698.26 2586.71 1676.52 2681.61 1586.72 2732.07 1548.03 2734.37 1531.51 2775.45 1503.95 2831.41 1438.53 2886.13 1416.78 2928.06 1421.34L2928.23 1421.34C2948.76 1423.45 2966.29 1431.51 2980.32 1443.79L3072.77 1223.52 3072.95 1223.52C3101.52 1184.39 3136.07 1168.22 3168.05 1165.96ZM2671.7 0.138222C3007.82 8.08724 3291.49 357.393 3119.1 701.539 3066.56 805.984 2960.25 930.51 2842.18 1052.56 2712.69 1186.67 2569.59 1317.68 2469.15 1417.18L2195.64 1688.49 1969.72 1470.95C1697.75 1208.92 1254.26 879.523 1239.73 471.028 1229.53 184.894 1455.14 1.65866 1715.06 5.05827 1947.16 7.83822 2044.51 123.405 2195.64 270.489 2321.74 139.162 2409.82 25.7619 2603.9 3.20256 2626.65 0.595833 2649.29-0.391568 2671.7 0.138222Z" fill-rule="evenodd"/></g></svg>