<svg width="130" height="130" xmlns="http://www.w3.org/2000/svg" xmlns:xlink="http://www.w3.org/1999/xlink" xml:space="preserve" overflow="hidden"><g transform="translate(-2544 -2187)"><path d="M2611.34 2225.08C2621.05 2225.08 2627.76 2226.72 2631.48 2229.98 2635.2 2233.25 2637.05 2237.02 2637.05 2241.31 2637.05 2246.18 2634.7 2251.02 2629.98 2255.83 2627.65 2258.21 2624.83 2260.16 2621.53 2261.67 2627.59 2262.06 2632.36 2264.27 2635.82 2268.31 2639.29 2272.34 2641.03 2277.13 2641.03 2282.68 2641.03 2290.39 2638.51 2297.25 2633.49 2303.27 2629.91 2307.61 2625.4 2310.98 2619.97 2313.39 2614.53 2315.8 2609.17 2317 2603.91 2317 2596.4 2317 2589.61 2315.48 2583.54 2312.44 2580.27 2310.75 2578.63 2308.43 2578.63 2305.48 2578.63 2303.99 2579.33 2302.55 2580.72 2301.17 2582.12 2299.8 2583.85 2299.11 2585.92 2299.11 2589.68 2299.11 2592.88 2300.97 2595.53 2304.68 2598.71 2308.93 2602.29 2311.06 2606.29 2311.06 2610.04 2311.06 2613.57 2309.47 2616.87 2306.28 2620.17 2303.1 2621.82 2297.73 2621.82 2290.19 2621.82 2276.77 2615.65 2270.03 2603.33 2269.98 2601.35 2269.98 2599 2270.4 2596.25 2271.22 2596.64 2270.35 2596.83 2268.89 2596.83 2266.85 2596.83 2266.17 2596.3 2265.63 2595.24 2265.24 2602.13 2263.69 2607.61 2260.77 2611.71 2256.49 2615.8 2252.21 2617.84 2247.25 2617.84 2241.6 2617.84 2234.55 2614.74 2231.02 2608.53 2231.02 2606.94 2231.02 2605.6 2231.1 2604.52 2231.24 2603.44 2231.39 2602.23 2231.76 2600.91 2232.35 2599.59 2232.94 2598.48 2233.92 2597.59 2235.29 2596.7 2236.67 2596.06 2238.46 2595.67 2240.67 2595.19 2243.37 2594.3 2245.42 2593 2246.82 2591.7 2248.21 2589.53 2248.91 2586.5 2248.91 2582.75 2248.91 2580.87 2247.1 2580.87 2243.48 2580.87 2240.1 2582.24 2237.13 2584.99 2234.57 2587.06 2232.69 2588.91 2231.18 2590.55 2230.05 2592.18 2228.91 2594.88 2227.8 2598.63 2226.71 2602.39 2225.63 2606.63 2225.08 2611.34 2225.08ZM2634.04 2187 2674 2187 2674 2214.06 2634.04 2214.06ZM2589.02 2187 2628.98 2187 2628.98 2214.06 2589.02 2214.06ZM2544 2187 2583.96 2187 2583.96 2214.06 2544 2214.06Z" fill-rule="evenodd"/></g></svg>