<svg width="130" height="130" xmlns="http://www.w3.org/2000/svg" xmlns:xlink="http://www.w3.org/1999/xlink" xml:space="preserve" overflow="hidden"><defs><clipPath id="clip0"><rect x="2713" y="2187" width="130" height="130"/></clipPath></defs><g clip-path="url(#clip0)" transform="translate(-2713 -2187)"><path d="M2774.33 2241.72C2769.52 2248.4 2760.44 2262.97 2747.1 2285.43L2774.33 2285.43ZM2779.57 2225.43 2793.54 2225.43 2793.54 2285.43 2807.24 2285.43C2808.65 2285.43 2809.36 2286.23 2809.36 2287.84 2809.36 2288.72 2808.91 2289.7 2808.03 2290.8 2807.14 2291.9 2806.24 2292.44 2805.33 2292.44L2793.54 2292.44 2793.54 2298.44C2793.54 2301.41 2793.82 2303.82 2794.39 2305.67 2794.95 2307.52 2795.9 2308.88 2797.23 2309.73 2798.56 2310.58 2799.83 2311.13 2801.05 2311.37 2802.27 2311.62 2804.08 2311.79 2806.47 2311.88 2807.19 2312.27 2807.55 2313.1 2807.55 2314.37 2807.55 2315.64 2807.17 2316.51 2806.42 2317 2803.3 2317 2800.15 2316.98 2796.96 2316.93 2793.78 2316.88 2791.26 2316.83 2789.42 2316.78 2787.58 2316.73 2785.81 2316.71 2784.11 2316.71L2761.45 2317C2760.7 2316.61 2760.32 2315.77 2760.32 2314.48 2760.32 2313.19 2760.68 2312.32 2761.4 2311.88 2763.8 2311.79 2765.6 2311.62 2766.82 2311.37 2768.04 2311.13 2769.31 2310.58 2770.64 2309.73 2771.97 2308.88 2772.92 2307.54 2773.48 2305.71 2774.05 2303.88 2774.33 2301.46 2774.33 2298.44L2774.33 2292.44 2748.81 2292.44C2746.33 2292.44 2744.73 2292.1 2744.03 2291.42L2741.92 2288.72C2741.73 2288.33 2741.44 2287.85 2741.04 2287.29 2740.64 2286.73 2740.35 2286.3 2740.16 2286.01 2739.98 2285.72 2739.88 2285.48 2739.88 2285.28 2739.88 2284.99 2740.21 2284.33 2740.88 2283.31 2742.82 2280.24 2745.93 2275.38 2750.21 2268.73 2754.5 2262.08 2758.01 2256.58 2760.76 2252.25 2763.5 2247.91 2766.67 2243.15 2770.27 2237.96 2773.87 2232.77 2776.97 2228.59 2779.57 2225.43ZM2803.04 2187 2843 2187 2843 2214.3 2803.04 2214.3ZM2758.02 2187 2797.98 2187 2797.98 2214.3 2758.02 2214.3ZM2713 2187 2752.96 2187 2752.96 2214.3 2713 2214.3Z" fill-rule="evenodd"/></g></svg>