<svg width="65" height="65" xmlns="http://www.w3.org/2000/svg" xmlns:xlink="http://www.w3.org/1999/xlink" xml:space="preserve" overflow="hidden"><g transform="translate(-1110 -2233)"><path d="M1142.45 2252.29C1137.62 2252.29 1133.81 2253.54 1131 2256.05 1128.19 2258.56 1126.78 2261.19 1126.78 2263.94 1126.78 2264.94 1127.19 2265.87 1128.01 2266.72 1128.82 2267.57 1129.87 2268 1131.14 2268 1132.27 2268 1133.27 2267.62 1134.13 2266.86 1135 2266.1 1135.43 2265.15 1135.43 2263.99 1135.43 2263.7 1135.31 2263.17 1135.07 2262.41 1134.76 2261.73 1134.6 2261.08 1134.6 2260.47 1134.6 2259.46 1135.21 2258.35 1136.44 2257.12 1137.66 2255.9 1139.09 2255.29 1140.72 2255.29 1142.33 2255.26 1143.81 2256.13 1145.15 2257.88 1146.45 2259.57 1147.1 2261.78 1147.1 2264.51 1147.1 2267.34 1146.85 2269.6 1146.36 2271.3 1145.87 2273 1144.71 2274.72 1142.88 2276.48L1136.62 2282.56C1132.34 2286.7 1129.53 2289.62 1128.17 2291.32 1126.81 2293.01 1126.09 2294.41 1125.99 2295.51L1126.28 2297.92 1154.91 2297.92C1155.78 2295.12 1156.54 2291.02 1157.18 2285.63 1156.1 2285.15 1155 2284.91 1153.87 2284.91 1153.07 2287.45 1152.1 2289.26 1150.96 2290.36 1149.83 2291.45 1148.41 2292 1146.71 2292L1137.05 2292C1137.29 2289.46 1138.43 2287.24 1140.47 2285.34L1144.79 2281.28C1145.44 2280.69 1146.45 2279.77 1147.81 2278.51 1149.18 2277.25 1150.06 2276.44 1150.47 2276.08 1150.87 2275.71 1151.53 2275.08 1152.43 2274.17 1153.34 2273.27 1153.9 2272.63 1154.12 2272.25 1154.34 2271.87 1154.69 2271.32 1155.18 2270.6 1155.68 2269.88 1155.99 2269.25 1156.12 2268.7 1156.25 2268.15 1156.38 2267.5 1156.5 2266.74 1156.62 2265.99 1156.68 2265.16 1156.68 2264.25 1156.68 2260.96 1155.61 2258.29 1153.48 2256.25 1150.69 2253.61 1147.01 2252.29 1142.45 2252.29ZM1154.99 2233.08 1154.99 2246.73 1174.92 2246.73 1174.92 2233.08ZM1132.54 2233.08 1132.54 2246.73 1152.46 2246.73 1152.46 2233.08ZM1110.08 2233.08 1110.08 2246.73 1130.01 2246.73 1130.01 2233.08ZM1110 2233 1175 2233 1175 2298 1110 2298Z" fill-rule="evenodd"/></g></svg>