<svg width="65" height="65" xmlns="http://www.w3.org/2000/svg" xmlns:xlink="http://www.w3.org/1999/xlink" xml:space="preserve" overflow="hidden"><defs><clipPath id="clip0"><rect x="951" y="2233" width="65" height="65"/></clipPath></defs><g clip-path="url(#clip0)" transform="translate(-951 -2233)"><path d="M988.763 2252.25C987.83 2252.22 986.61 2252.59 985.103 2253.34 983.38 2254.14 980.647 2255.29 976.905 2256.78 973.162 2258.28 970.583 2259.33 969.166 2259.94 969.214 2261.32 969.754 2262.39 970.787 2263.15 973.692 2261.91 976.249 2261.29 978.459 2261.29 979.011 2261.29 979.383 2261.52 979.575 2261.98 979.767 2262.44 979.863 2263.55 979.863 2265.3L979.863 2288.66C979.863 2290.17 979.683 2291.38 979.321 2292.29 978.959 2293.2 978.357 2293.87 977.512 2294.29 976.668 2294.72 975.896 2294.99 975.196 2295.11 974.497 2295.23 973.508 2295.32 972.23 2295.37 971.844 2295.59 971.651 2296.02 971.651 2296.66 971.651 2297.31 971.844 2297.72 972.228 2297.92L984.744 2297.77C984.889 2297.77 989.001 2297.82 997.08 2297.92 997.465 2297.68 997.657 2297.24 997.657 2296.61 997.657 2295.98 997.464 2295.56 997.078 2295.37 995.775 2295.32 994.781 2295.23 994.093 2295.11 993.406 2294.99 992.64 2294.72 991.796 2294.29 990.952 2293.87 990.349 2293.19 989.987 2292.27 989.625 2291.35 989.445 2290.14 989.445 2288.66L989.445 2261.72C989.445 2259.1 989.637 2256.37 990.021 2253.52 990.021 2252.67 989.602 2252.25 988.763 2252.25ZM995.991 2233.08 995.991 2246.7 1015.92 2246.7 1015.92 2233.08ZM973.536 2233.08 973.536 2246.7 993.464 2246.7 993.464 2233.08ZM951.081 2233.08 951.081 2246.7 971.009 2246.7 971.009 2233.08ZM951 2233 1016 2233 1016 2298 951 2298Z" fill-rule="evenodd"/></g></svg>