<svg width="130" height="130" xmlns="http://www.w3.org/2000/svg" xmlns:xlink="http://www.w3.org/1999/xlink" xml:space="preserve" overflow="hidden"><defs><clipPath id="clip0"><rect x="2207" y="2187" width="130" height="130"/></clipPath></defs><g clip-path="url(#clip0)" transform="translate(-2207 -2187)"><path d="M2282.55 2225.43C2284.23 2225.43 2285.07 2226.28 2285.07 2227.98 2284.3 2233.69 2283.92 2239.17 2283.92 2244.43L2283.92 2298.44C2283.92 2301.41 2284.28 2303.82 2285.01 2305.67 2285.73 2307.52 2286.94 2308.88 2288.63 2309.73 2290.33 2310.58 2291.86 2311.13 2293.24 2311.37 2294.62 2311.62 2296.61 2311.79 2299.22 2311.88 2300 2312.27 2300.38 2313.1 2300.38 2314.37 2300.38 2315.64 2300 2316.51 2299.23 2317 2283.03 2316.81 2274.78 2316.71 2274.49 2316.71L2249.4 2317C2248.63 2316.61 2248.24 2315.77 2248.24 2314.48 2248.24 2313.19 2248.63 2312.32 2249.4 2311.88 2251.97 2311.79 2253.95 2311.62 2255.35 2311.37 2256.75 2311.13 2258.3 2310.58 2259.99 2309.73 2261.69 2308.88 2262.9 2307.54 2263.62 2305.71 2264.35 2303.88 2264.71 2301.46 2264.71 2298.44L2264.71 2251.59C2264.71 2248.08 2264.52 2245.87 2264.13 2244.94 2263.75 2244.01 2263 2243.55 2261.89 2243.55 2257.46 2243.55 2252.33 2244.79 2246.51 2247.28 2244.44 2245.77 2243.36 2243.62 2243.26 2240.85 2246.1 2239.63 2251.27 2237.52 2258.78 2234.53 2266.28 2231.53 2271.76 2229.23 2275.21 2227.62 2278.23 2226.11 2280.68 2225.38 2282.55 2225.43ZM2297.04 2187 2337 2187 2337 2214.3 2297.04 2214.3ZM2252.02 2187 2291.98 2187 2291.98 2214.3 2252.02 2214.3ZM2207 2187 2246.96 2187 2246.96 2214.3 2207 2214.3Z" fill-rule="evenodd"/></g></svg>