<svg width="130" height="130" xmlns="http://www.w3.org/2000/svg" xmlns:xlink="http://www.w3.org/1999/xlink" xml:space="preserve" overflow="hidden"><g transform="translate(-2376 -2187)"><path d="M2440.9 2225.51C2450.05 2225.51 2457.42 2228.16 2463.01 2233.46 2467.29 2237.54 2469.43 2242.89 2469.43 2249.5 2469.43 2251.31 2469.31 2252.98 2469.07 2254.49 2468.83 2256.01 2468.57 2257.32 2468.31 2258.42 2468.04 2259.52 2467.42 2260.79 2466.43 2262.23 2465.45 2263.68 2464.73 2264.78 2464.3 2265.54 2463.87 2266.3 2462.74 2267.58 2460.92 2269.39 2459.1 2271.2 2457.78 2272.47 2456.97 2273.21 2456.16 2273.94 2454.39 2275.57 2451.65 2278.09 2448.91 2280.61 2446.9 2282.45 2445.6 2283.63L2436.93 2291.78C2432.84 2295.59 2430.55 2300.05 2430.07 2305.13L2449.45 2305.13C2452.85 2305.13 2455.69 2304.03 2457.97 2301.84 2460.25 2299.64 2462.19 2296 2463.8 2290.92 2466.06 2290.92 2468.27 2291.4 2470.44 2292.36 2469.14 2303.17 2467.62 2311.38 2465.89 2317L2408.48 2317 2407.9 2312.16C2408.09 2309.96 2409.55 2307.16 2412.27 2303.76 2414.99 2300.36 2420.63 2294.51 2429.2 2286.2L2441.77 2274.02C2445.43 2270.49 2447.75 2267.03 2448.74 2263.63 2449.73 2260.23 2450.22 2255.69 2450.22 2250.01 2450.22 2244.53 2448.92 2240.11 2446.32 2236.73 2443.62 2233.21 2440.66 2231.47 2437.44 2231.52 2434.16 2231.52 2431.3 2232.75 2428.84 2235.2 2426.39 2237.66 2425.16 2239.89 2425.16 2241.91 2425.16 2243.13 2425.47 2244.44 2426.1 2245.81 2426.58 2247.33 2426.82 2248.39 2426.82 2248.98 2426.82 2251.29 2425.95 2253.2 2424.22 2254.73 2422.49 2256.25 2420.49 2257.01 2418.23 2257.01 2415.67 2257.01 2413.58 2256.16 2411.94 2254.45 2410.31 2252.74 2409.49 2250.88 2409.49 2248.88 2409.49 2243.36 2412.3 2238.09 2417.94 2233.06 2423.57 2228.03 2431.23 2225.51 2440.9 2225.51ZM2466.04 2187 2506 2187 2506 2214.37 2466.04 2214.37ZM2421.02 2187 2460.98 2187 2460.98 2214.37 2421.02 2214.37ZM2376 2187 2415.96 2187 2415.96 2214.37 2376 2214.37Z" fill-rule="evenodd"/></g></svg>