<svg width="130" height="130" xmlns="http://www.w3.org/2000/svg" xmlns:xlink="http://www.w3.org/1999/xlink" xml:space="preserve" overflow="hidden"><defs><clipPath id="clip0"><rect x="3933" y="2270" width="130" height="130"/></clipPath></defs><g clip-path="url(#clip0)" transform="translate(-3933 -2270)"><path d="M4004.98 2294.1 4004.98 2341.8C4004.98 2341.8 4007.59 2341.8 4010.81 2341.8L4032.63 2341.8C4035.85 2341.8 4038.47 2341.8 4038.47 2341.8L4038.47 2294.1C4038.47 2294.1 4035.85 2294.1 4032.63 2294.1L4010.81 2294.1C4007.59 2294.1 4004.98 2294.1 4004.98 2294.1ZM3957.53 2294.1 3957.53 2369.2C3957.53 2369.2 3960.15 2369.2 3963.37 2369.2L3985.19 2369.2C3988.41 2369.2 3991.02 2369.2 3991.02 2369.2L3991.02 2294.1C3991.02 2294.1 3988.41 2294.1 3985.19 2294.1L3963.37 2294.1C3960.15 2294.1 3957.53 2294.1 3957.53 2294.1ZM3942.42 2270 4053.58 2270C4058.78 2270 4063 2274.22 4063 2279.42L4063 2390.58C4063 2395.78 4058.78 2400 4053.58 2400L3942.42 2400C3937.22 2400 3933 2395.78 3933 2390.58L3933 2279.42C3933 2274.22 3937.22 2270 3942.42 2270Z" fill="#9E6E30" fill-rule="evenodd"/></g></svg>