<svg width="130" height="130" xmlns="http://www.w3.org/2000/svg" xmlns:xlink="http://www.w3.org/1999/xlink" xml:space="preserve" overflow="hidden"><defs><clipPath id="clip0"><rect x="776" y="1233" width="130" height="130"/></clipPath></defs><g clip-path="url(#clip0)" transform="translate(-776 -1233)"><path d="M847.977 1257.1 847.977 1304.8C847.977 1304.8 850.59 1304.8 853.812 1304.8L875.631 1304.8C878.854 1304.8 881.467 1304.8 881.467 1304.8L881.467 1257.1C881.467 1257.1 878.854 1257.1 875.631 1257.1L853.812 1257.1C850.59 1257.1 847.977 1257.1 847.977 1257.1ZM800.534 1257.1 800.534 1332.2C800.534 1332.2 803.146 1332.2 806.369 1332.2L828.188 1332.2C831.41 1332.2 834.023 1332.2 834.023 1332.2L834.023 1257.1C834.023 1257.1 831.41 1257.1 828.188 1257.1L806.369 1257.1C803.146 1257.1 800.534 1257.1 800.534 1257.1ZM785.422 1233 896.578 1233C901.782 1233 906 1237.22 906 1242.42L906 1353.58C906 1358.78 901.782 1363 896.578 1363L785.422 1363C780.218 1363 776 1358.78 776 1353.58L776 1242.42C776 1237.22 780.218 1233 785.422 1233Z" fill="#C46F88" fill-rule="evenodd"/></g></svg>