<svg width="130" height="130" xmlns="http://www.w3.org/2000/svg" xmlns:xlink="http://www.w3.org/1999/xlink" xml:space="preserve" overflow="hidden"><defs><clipPath id="clip0"><rect x="4076" y="2270" width="130" height="130"/></clipPath></defs><g clip-path="url(#clip0)" transform="translate(-4076 -2270)"><path d="M4147.98 2294.1 4147.98 2341.8C4147.98 2341.8 4150.59 2341.8 4153.81 2341.8L4175.63 2341.8C4178.85 2341.8 4181.47 2341.8 4181.47 2341.8L4181.47 2294.1C4181.47 2294.1 4178.85 2294.1 4175.63 2294.1L4153.81 2294.1C4150.59 2294.1 4147.98 2294.1 4147.98 2294.1ZM4100.53 2294.1 4100.53 2369.2C4100.53 2369.2 4103.15 2369.2 4106.37 2369.2L4128.19 2369.2C4131.41 2369.2 4134.02 2369.2 4134.02 2369.2L4134.02 2294.1C4134.02 2294.1 4131.41 2294.1 4128.19 2294.1L4106.37 2294.1C4103.15 2294.1 4100.53 2294.1 4100.53 2294.1ZM4085.42 2270 4196.58 2270C4201.78 2270 4206 2274.22 4206 2279.42L4206 2390.58C4206 2395.78 4201.78 2400 4196.58 2400L4085.42 2400C4080.22 2400 4076 2395.78 4076 2390.58L4076 2279.42C4076 2274.22 4080.22 2270 4085.42 2270Z" fill="#6B4C7A" fill-rule="evenodd"/></g></svg>