<svg width="130" height="130" xmlns="http://www.w3.org/2000/svg" xmlns:xlink="http://www.w3.org/1999/xlink" xml:space="preserve" overflow="hidden"><defs><clipPath id="clip0"><rect x="633" y="1233" width="130" height="130"/></clipPath></defs><g clip-path="url(#clip0)" transform="translate(-633 -1233)"><path d="M704.977 1257.1 704.977 1304.8C704.977 1304.8 707.59 1304.8 710.812 1304.8L732.631 1304.8C735.854 1304.8 738.467 1304.8 738.467 1304.8L738.467 1257.1C738.467 1257.1 735.854 1257.1 732.631 1257.1L710.812 1257.1C707.59 1257.1 704.977 1257.1 704.977 1257.1ZM657.534 1257.1 657.534 1332.2C657.534 1332.2 660.146 1332.2 663.369 1332.2L685.188 1332.2C688.41 1332.2 691.023 1332.2 691.023 1332.2L691.023 1257.1C691.023 1257.1 688.41 1257.1 685.188 1257.1L663.369 1257.1C660.146 1257.1 657.534 1257.1 657.534 1257.1ZM642.422 1233 753.578 1233C758.782 1233 763 1237.22 763 1242.42L763 1353.58C763 1358.78 758.782 1363 753.578 1363L642.422 1363C637.218 1363 633 1358.78 633 1353.58L633 1242.42C633 1237.22 637.218 1233 642.422 1233Z" fill="#0B839A" fill-rule="evenodd"/></g></svg>