<svg width="2468" height="2468" xmlns="http://www.w3.org/2000/svg" xmlns:xlink="http://www.w3.org/1999/xlink" xml:space="preserve" overflow="hidden"><defs><clipPath id="clip0"><rect x="1592" y="-89" width="2468" height="2468"/></clipPath></defs><g clip-path="url(#clip0)" transform="translate(-1592 89)"><path d="M2390.54 707.952 2390.18 746.614C2337.76 749.039 2247.15 782.499 2270.63 840.379 2333.56 976.266 2556.4 1502.69 2616.63 1636.33 2658.65 1554.08 2776 1334.83 2824.33 1242.16 2786.45 1164.43 2661.27 874.218 2623.75 801.135 2595.44 753.483 2524.4 747.65 2469.7 746.816 2469.7 734.619 2470.34 725.225 2470.11 708.482L2862.62 709.694 2862.62 745.351C2809.48 746.816 2759.18 766.589 2781.98 817.398 2834.79 926.997 2865.62 1005.03 2914.08 1106.4 2929.56 1076.7 3008.91 913.916 3046.74 828.005 3069.59 770.882 3035.45 749.493 2939.87 746.917 2941.13 737.523 2940.3 718.659 2941.13 709.669L3280.13 709.997 3280.28 745.377C3217.98 747.801 3153.48 780.984 3119.82 832.5L2956.58 1171.04C2974.49 1215.82 3131.44 1564.49 3147.95 1603.15L3485.43 824.166C3461.42 761.109 3384.83 747.018 3354.88 746.336 3355.08 736.286 3355.13 720.957 3355.18 708.154L3707.48 709.164 3707.99 710.931 3707.41 746.134C3630.11 748.483 3582.31 789.822 3553.69 857.576 3483.52 1016.17 3268.86 1518.48 3125.63 1845.88 3125.43 1846.03 3088.1 1845.81 3088 1845.76L2862.11 1313.7C2772.59 1489.28 2673.4 1671.81 2588.57 1845.5 2588.07 1846.39 2547.53 1845.91 2547.48 1845.35 2417.81 1542.67 2283.36 1241.98 2153 939.523 2122.83 865.581 2016.97 746.664 1944.52 747.346 1944.52 738.76 1944.11 719.593 1944.01 708.002ZM2826-0.123947C2193.57-0.123947 1680.88 512.565 1680.88 1145 1680.88 1777.43 2193.57 2290.12 2826 2290.12 3458.43 2290.12 3971.12 1777.43 3971.12 1145 3971.12 512.565 3458.43-0.123947 2826-0.123947ZM2826-89C3507.52-89 4060 463.481 4060 1145 4060 1826.52 3507.52 2379 2826 2379 2144.48 2379 1592 1826.52 1592 1145 1592 463.481 2144.48-89 2826-89Z" fill-rule="evenodd"/></g></svg>