<svg width="130" height="130" xmlns="http://www.w3.org/2000/svg" xmlns:xlink="http://www.w3.org/1999/xlink" xml:space="preserve" overflow="hidden"><defs><clipPath id="clip0"><rect x="2908" y="2269" width="130" height="130"/></clipPath></defs><g clip-path="url(#clip0)" transform="translate(-2908 -2269)"><path d="M2950.88 2311.97 2928.19 2311.97C2928.2 2312.56 2928.22 2313.53 2928.22 2313.97 2931.9 2313.94 2937.28 2319.98 2938.81 2323.73 2945.43 2339.1 2952.26 2354.38 2958.85 2369.75 2958.85 2369.78 2960.91 2369.81 2960.94 2369.76 2965.25 2360.94 2970.29 2351.66 2974.83 2342.74L2986.31 2369.78C2986.32 2369.78 2988.21 2369.79 2988.22 2369.78 2995.5 2353.15 3006.41 2327.63 3009.97 2319.57 3011.42 2316.13 3013.85 2314.03 3017.78 2313.91L3017.81 2312.12 3017.78 2312.03 2999.89 2311.98C2999.88 2312.63 2999.88 2313.41 2999.87 2313.92 3001.39 2313.95 3005.28 2314.67 3006.5 2317.87L2989.36 2357.45C2988.52 2355.49 2980.54 2337.77 2979.63 2335.5L2987.93 2318.3C2989.64 2315.68 2992.91 2313.99 2996.08 2313.87L2996.07 2312.07 2978.85 2312.06C2978.81 2312.51 2978.85 2313.47 2978.79 2313.95 2983.64 2314.08 2985.38 2315.17 2984.21 2318.07 2982.29 2322.43 2978.26 2330.7 2977.48 2332.21 2975.01 2327.06 2973.45 2323.1 2970.76 2317.53 2969.61 2314.95 2972.16 2313.94 2974.86 2313.87L2974.86 2312.06 2954.92 2312C2954.93 2312.85 2954.9 2313.32 2954.9 2313.94 2957.68 2313.99 2961.29 2314.28 2962.73 2316.7 2964.63 2320.42 2970.99 2335.16 2972.92 2339.11 2970.46 2343.82 2964.5 2354.96 2962.36 2359.14 2959.3 2352.35 2947.98 2325.6 2944.79 2318.7 2943.59 2315.76 2948.2 2314.06 2950.86 2313.93ZM2973 2269C3008.9 2269 3038 2298.1 3038 2334 3038 2369.9 3008.9 2399 2973 2399 2937.1 2399 2908 2369.9 2908 2334 2908 2298.1 2937.1 2269 2973 2269Z" fill-rule="evenodd"/></g></svg>