<svg width="130" height="65" xmlns="http://www.w3.org/2000/svg" xmlns:xlink="http://www.w3.org/1999/xlink" xml:space="preserve" overflow="hidden"><defs><clipPath id="clip0"><rect x="1229" y="1604" width="130" height="65"/></clipPath></defs><g clip-path="url(#clip0)" transform="translate(-1229 -1604)"><path d="M1231.61 1604C1237.67 1604.72 1243.16 1605.08 1248.08 1605.08L1257.12 1605.08C1263.23 1605.08 1269.03 1604.72 1274.5 1604 1274.67 1604 1274.76 1604.14 1274.76 1604.41L1274.79 1604.89 1282.75 1605.08C1288.71 1605.08 1292.87 1604.99 1295.26 1604.81 1295.55 1605.17 1295.69 1605.95 1295.69 1607.14 1295.69 1608.34 1295.55 1609.11 1295.26 1609.47 1293.43 1609.74 1292.33 1610.23 1291.97 1610.93 1291.6 1611.62 1291.81 1613.32 1292.6 1616.03L1296.61 1626.64C1296.96 1627.67 1297.31 1627.78 1297.65 1626.97L1302.49 1616.16C1304.15 1612.11 1303.44 1609.88 1300.36 1609.47 1300.12 1609.11 1300.01 1608.34 1300.01 1607.14 1300.01 1605.95 1300.12 1605.17 1300.36 1604.81 1302.74 1604.99 1305.72 1605.08 1309.29 1605.08L1314.32 1604.9 1314.37 1604.41C1314.37 1604.14 1314.49 1604 1314.72 1604 1320.78 1604.72 1326.27 1605.08 1331.18 1605.08L1340.22 1605.08C1346.34 1605.08 1352.13 1604.72 1357.61 1604 1357.78 1604 1357.87 1604.14 1357.87 1604.41 1357.92 1610.58 1358.3 1617.18 1359 1624.2 1358.33 1624.65 1357.18 1624.88 1355.56 1624.88 1354.72 1619.16 1353.75 1615.35 1352.65 1613.46 1351.55 1611.57 1349.39 1610.62 1346.17 1610.62 1344.2 1610.62 1343 1611.33 1342.57 1612.75 1342.13 1614.17 1341.92 1617.83 1341.92 1623.73L1341.92 1650.35C1341.92 1656.16 1342.36 1659.89 1343.26 1661.53 1344.16 1663.18 1346.35 1664.09 1349.82 1664.27 1350.11 1664.63 1350.26 1665.42 1350.28 1666.64 1350.29 1667.85 1350.14 1668.64 1349.82 1669 1343.8 1668.82 1339.17 1668.73 1335.94 1668.73 1332.82 1668.73 1328.3 1668.82 1322.39 1669 1322.33 1668.64 1322.3 1667.86 1322.3 1666.67 1322.3 1665.47 1322.44 1664.68 1322.72 1664.27 1326.09 1664.09 1328.2 1663.18 1329.05 1661.53 1329.9 1659.89 1330.32 1656.16 1330.32 1650.35L1330.32 1623.32C1330.32 1617.96 1329.97 1614.51 1329.26 1612.95 1328.54 1611.4 1326.88 1610.62 1324.27 1610.62 1321.48 1610.62 1319.57 1611.57 1318.56 1613.46 1317.54 1615.35 1316.55 1619.29 1315.59 1625.28 1314.05 1625.28 1312.89 1625.06 1312.11 1624.61L1313.62 1611.08 1312.02 1611.89C1310.61 1613.14 1309.36 1614.83 1308.29 1616.97L1300.36 1632.45C1300.12 1632.9 1300.18 1633.64 1300.53 1634.68L1308.37 1654.07C1310.76 1659.97 1313.82 1663.37 1317.57 1664.27 1317.86 1664.63 1318.01 1665.42 1318.01 1666.64 1318.01 1667.85 1317.86 1668.64 1317.57 1669 1315.19 1668.82 1311.21 1668.73 1305.63 1668.73 1299.91 1668.73 1295.85 1668.82 1293.47 1669 1293.18 1668.64 1293.03 1667.86 1293.03 1666.67 1293.03 1665.47 1293.18 1664.68 1293.47 1664.27 1295.13 1663.91 1296.12 1663.41 1296.46 1662.78 1296.79 1662.15 1296.64 1660.58 1296 1658.05L1291.68 1644.68C1291.51 1644.22 1291.22 1644.36 1290.81 1645.08L1285.28 1657.92C1283.91 1661.16 1284.71 1663.28 1287.67 1664.27 1287.91 1664.63 1288.02 1665.42 1288.02 1666.64 1288.02 1667.85 1287.91 1668.64 1287.67 1669 1285.29 1668.82 1282.02 1668.73 1277.87 1668.73 1275.31 1668.73 1272.84 1668.82 1270.46 1669 1270.17 1668.64 1270.02 1667.86 1270.02 1666.67 1270.02 1665.47 1270.17 1664.68 1270.46 1664.27 1274.44 1663.46 1277.39 1661.03 1279.31 1656.97L1287.5 1640.08C1287.91 1639.18 1287.99 1638.44 1287.76 1637.85L1279.83 1619.74C1278.7 1617.18 1277.88 1615.36 1277.37 1614.3L1275.16 1611.32 1275.89 1624.2C1275.23 1624.65 1274.08 1624.88 1272.45 1624.88 1271.61 1619.16 1270.64 1615.35 1269.54 1613.46 1268.44 1611.57 1266.28 1610.62 1263.07 1610.62 1261.1 1610.62 1259.9 1611.33 1259.46 1612.75 1259.03 1614.17 1258.81 1617.83 1258.81 1623.73L1258.81 1650.35C1258.81 1656.16 1259.26 1659.89 1260.16 1661.53 1261.05 1663.18 1263.24 1664.09 1266.72 1664.27 1267.01 1664.63 1267.16 1665.42 1267.17 1666.64 1267.19 1667.85 1267.04 1668.64 1266.72 1669 1260.69 1668.82 1256.07 1668.73 1252.83 1668.73 1249.71 1668.73 1245.2 1668.82 1239.29 1669 1239.23 1668.64 1239.2 1667.86 1239.2 1666.67 1239.2 1665.47 1239.34 1664.68 1239.62 1664.27 1242.98 1664.09 1245.09 1663.18 1245.94 1661.53 1246.79 1659.89 1247.22 1656.16 1247.22 1650.35L1247.22 1623.32C1247.22 1617.96 1246.86 1614.51 1246.15 1612.95 1245.44 1611.4 1243.77 1610.62 1241.16 1610.62 1238.37 1610.62 1236.47 1611.57 1235.45 1613.46 1234.43 1615.35 1233.45 1619.29 1232.49 1625.28 1230.95 1625.28 1229.78 1625.06 1229 1624.61 1230.19 1616.68 1230.95 1609.95 1231.27 1604.41 1231.27 1604.14 1231.38 1604 1231.61 1604Z" fill-rule="evenodd"/></g></svg>