<svg width="65" height="65" xmlns="http://www.w3.org/2000/svg" xmlns:xlink="http://www.w3.org/1999/xlink" xml:space="preserve" overflow="hidden"><defs><clipPath id="clip0"><rect x="2535" y="1409" width="65" height="65"/></clipPath></defs><g clip-path="url(#clip0)" transform="translate(-2535 -1409)"><path d="M2556.03 1429.99 2556.02 1431.01C2554.64 1431.07 2552.25 1431.95 2552.87 1433.48 2554.53 1437.06 2560.4 1450.92 2561.99 1454.44 2563.09 1452.27 2566.18 1446.5 2567.46 1444.06 2566.46 1442.01 2563.16 1434.37 2562.17 1432.44 2561.43 1431.19 2559.56 1431.03 2558.12 1431.01 2558.12 1430.69 2558.13 1430.44 2558.13 1430L2568.46 1430.04 2568.46 1430.97C2567.07 1431.01 2565.74 1431.53 2566.34 1432.87 2567.73 1435.76 2568.54 1437.81 2569.82 1440.48 2570.23 1439.7 2572.32 1435.41 2573.31 1433.15 2573.92 1431.65 2573.02 1431.08 2570.5 1431.02 2570.53 1430.77 2570.51 1430.27 2570.53 1430.03L2579.46 1430.04 2579.46 1430.98C2577.82 1431.04 2576.13 1431.91 2575.24 1433.27L2570.94 1442.19C2571.41 1443.37 2575.54 1452.55 2575.98 1453.57L2584.87 1433.05C2584.24 1431.39 2582.22 1431.02 2581.43 1431 2581.43 1430.74 2581.44 1430.33 2581.44 1429.99L2590.72 1430.02 2590.73 1430.07 2590.71 1430.99C2588.68 1431.06 2587.42 1432.15 2586.67 1433.93 2584.82 1438.11 2579.16 1451.34 2575.39 1459.96 2575.39 1459.96 2574.4 1459.96 2574.4 1459.96L2568.45 1445.94C2566.09 1450.57 2563.48 1455.37 2561.25 1459.95 2561.23 1459.97 2560.17 1459.96 2560.17 1459.95 2556.75 1451.97 2553.21 1444.05 2549.78 1436.09 2548.98 1434.14 2546.19 1431.01 2544.28 1431.03 2544.28 1430.8 2544.27 1430.3 2544.27 1429.99ZM2567.5 1411.34C2550.84 1411.34 2537.34 1424.84 2537.34 1441.5 2537.34 1458.16 2550.84 1471.66 2567.5 1471.66 2584.16 1471.66 2597.66 1458.16 2597.66 1441.5 2597.66 1424.84 2584.16 1411.34 2567.5 1411.34ZM2567.5 1409C2585.45 1409 2600 1423.55 2600 1441.5 2600 1459.45 2585.45 1474 2567.5 1474 2549.55 1474 2535 1459.45 2535 1441.5 2535 1423.55 2549.55 1409 2567.5 1409Z" fill-rule="evenodd"/></g></svg>