<svg width="620" height="620" xmlns="http://www.w3.org/2000/svg" xmlns:xlink="http://www.w3.org/1999/xlink" xml:space="preserve" overflow="hidden"><defs><clipPath id="clip0"><rect x="94" y="975" width="620" height="620"/></clipPath></defs><g clip-path="url(#clip0)" transform="translate(-94 -975)"><path d="M93.9998 1285C93.9998 1113.79 232.792 975 404 975 575.208 975 714 1113.79 714 1285 714 1456.21 575.208 1595 404 1595 232.792 1595 93.9998 1456.21 93.9998 1285Z" fill="#FFFFFF" fill-rule="evenodd"/><path d="M199.173 1200 227.17 1200.64C236.522 1200.64 247.793 1200.43 260.983 1200 261.765 1201.06 262.156 1202.9 262.156 1205.51 262.156 1208.11 261.765 1209.9 260.983 1210.85 256.778 1211.04 253.575 1211.4 251.374 1211.95 249.175 1212.5 247.488 1213.61 246.316 1215.3 245.145 1216.99 245.046 1219.43 246.021 1222.62L291.053 1361.07 291.64 1361.07 329.484 1262.19C330.853 1258.4 331.538 1254.61 331.538 1250.81 331.538 1248.19 331.049 1245.42 330.071 1242.5L325.524 1228.65C324.155 1224.08 321.27 1220.07 316.869 1216.61 312.469 1213.16 306.65 1211.24 299.414 1210.85 298.631 1210 298.24 1208.25 298.24 1205.59 298.24 1202.93 298.631 1201.06 299.414 1200L329.484 1200.64C335.058 1200.64 347.282 1200.43 366.155 1200 366.937 1201.06 367.329 1202.9 367.329 1205.51 367.329 1208.11 366.937 1209.9 366.155 1210.85 363.319 1211.05 361.266 1211.24 359.994 1211.44 358.723 1211.63 356.988 1212.12 354.787 1212.9 352.587 1213.68 351.267 1214.62 350.826 1215.74 350.387 1216.86 349.824 1218.52 349.14 1220.71 348.456 1222.9 348.896 1225.55 350.46 1228.66L393.732 1361.8 394.319 1361.8 442.138 1225.45C442.725 1223.7 443.018 1222.12 443.018 1220.71 443.018 1219.3 442.823 1218.08 442.432 1217.06 442.041 1216.04 441.234 1215.18 440.011 1214.5 438.788 1213.82 437.689 1213.29 436.71 1212.9 435.733 1212.51 434.29 1212.17 432.383 1211.88 430.477 1211.58 428.863 1211.39 427.543 1211.29 426.222 1211.19 424.487 1211.05 422.335 1210.85 421.358 1210 420.868 1208.25 420.868 1205.59 420.868 1202.93 421.358 1201.06 422.335 1200L447.195 1200.48 447.917 1200 518.418 1202.36 544.434 1202.36C571.234 1202.36 593.848 1201.57 612.274 1200 612.864 1200 613.16 1200.29 613.16 1200.86 613.358 1213.7 614.636 1228.03 617 1243.83 614.736 1244.83 611.339 1245.33 606.81 1245.33 604.355 1233.69 599.715 1225.44 592.889 1220.58 586.064 1215.72 576.708 1213.29 564.823 1213.29L558.194 1213.29C552.989 1213.29 549.38 1215.85 547.366 1220.96 545.353 1226.07 544.346 1233.79 544.346 1244.12L544.346 1359.49C544.346 1371.58 546.04 1379.08 549.428 1381.98 552.815 1384.89 560.846 1386.58 573.515 1387.07 574.496 1388.16 575.012 1390.04 575.061 1392.7 575.11 1395.36 574.596 1397.13 573.515 1398L531.5 1397.35C523.005 1397.35 508.828 1397.57 488.97 1398 488.379 1397.13 488.084 1395.36 488.084 1392.7 488.084 1390.04 488.474 1388.16 489.254 1387.07 501.831 1386.68 509.824 1385.01 513.237 1382.06 516.65 1379.11 518.356 1371.58 518.356 1359.49L518.356 1243.24C518.356 1233.4 517.298 1225.95 515.182 1220.89 513.064 1215.82 509.349 1213.29 504.032 1213.29L489.265 1213.29C478.83 1213.29 470.265 1215.77 463.57 1220.73 456.876 1225.7 452.151 1234.19 449.394 1246.21L449.34 1246.21 396.519 1390.99C394.955 1395.57 392.265 1397.9 388.451 1398 383.855 1398 380.726 1395.57 379.064 1390.7L343.859 1284.57C342.099 1279.03 340.73 1276.25 339.752 1276.25 338.579 1276.25 337.161 1278.74 335.498 1283.7L293.693 1390.7C291.933 1395.47 289.154 1397.9 285.358 1398 280.781 1398 277.714 1395.56 276.155 1390.68L221.469 1227.28C218.829 1220.04 216.262 1215.59 213.769 1213.92 211.275 1212.25 206.409 1211.23 199.173 1210.85 198.391 1210 198 1208.25 198 1205.59 198 1202.93 198.391 1201.06 199.173 1200Z" fill-rule="evenodd"/><path d="M435 1595 372 1595 372 1535.38 382.537 1536.16 435 1535Z" fill-rule="evenodd"/><path d="M275.89 1569 222 1537.61 252.11 1485 278.269 1502.07 306 1516.39Z" fill-rule="evenodd"/><path d="M151.229 1467 120 1413.02 172.1 1383 197.1 1428.53 203 1437.17Z" fill-rule="evenodd"/><path d="M154 1316 93.9998 1316 93.9998 1254 153.621 1254 152.842 1264.37Z" fill-rule="evenodd"/><path d="M171.611 1187 119 1156.89 150.388 1103 203 1133.11 185.933 1159.27Z" fill-rule="evenodd"/><path d="M251.829 1084 222 1032.23 275.981 1001 306 1053.1 260.468 1078.1Z" fill-rule="evenodd"/><path d="M372 1035 372 975 435 975 435 1034.62 424.462 1033.84Z" fill-rule="evenodd"/><path d="M555.532 1084 529.06 1067.14 501 1052.99 531.468 1001 586 1032.01Z" fill-rule="evenodd"/><path d="M635.9 1187 610.9 1141.47 605 1132.83 656.771 1103 688 1156.98Z" fill-rule="evenodd"/><path d="M714 1316 653.386 1316 654.178 1305.63 653 1254 714 1254Z" fill-rule="evenodd"/><path d="M656.612 1467 604 1436.53 621.067 1410.06 635.388 1382 688 1412.47Z" fill-rule="evenodd"/><path d="M531.376 1569 501 1516.9 547.073 1491.9 555.816 1486 586 1537.77Z" fill-rule="evenodd"/></g></svg>