<svg width="37" height="26" xmlns="http://www.w3.org/2000/svg" xmlns:xlink="http://www.w3.org/1999/xlink" overflow="hidden"><defs><clipPath id="clip0"><rect x="441" y="366" width="37" height="26"/></clipPath></defs><g clip-path="url(#clip0)" transform="translate(-441 -366)"><path d="M0 10.798C0 10.8253 0.127488 10.7877 0.285994 10.7057 0.358341 10.6715 0.43071 10.651 0.447937 10.6613 0.468601 10.6715 0.482392 10.6647 0.482392 10.6476 0.482392 10.6271 0.51341 10.61 0.547865 10.61 0.585757 10.61 0.620212 10.5929 0.627107 10.5758 0.634003 10.5553 0.67879 10.5348 0.730472 10.5279 0.778718 10.5245 0.840755 10.4972 0.868315 10.4698 0.895874 10.4425 1.09573 10.3365 1.31282 10.2339 1.52644 10.1314 1.7263 10.0254 1.75729 10.0015 1.78485 9.97754 1.93303 9.87498 2.08807 9.77585 2.52568 9.49209 2.57736 9.45109 2.96328 9.07162 3.34231 8.69901 3.40433 8.62379 3.56629 8.33665 3.76613 7.97769 3.8316 7.74865 3.84883 7.32817 3.86951 6.87009 3.80404 6.56583 3.59385 6.14194 3.47326 5.8958 2.92193 5.17449 2.85648 5.17449 2.83923 5.17449 2.82546 5.15056 2.82546 5.12321 2.82546 5.09587 2.81513 5.07193 2.7979 5.07193 2.78411 5.07193 2.71175 5.01725 2.63594 4.95228 2.56013 4.88732 2.48779 4.83263 2.47746 4.83263 2.46366 4.83263 2.44644 4.80186 2.43611 4.76426 2.42575 4.72667 2.38786 4.69589 2.34995 4.69589 2.31205 4.69589 2.26381 4.67539 2.24314 4.64802 2.21902 4.62068 2.09497 4.53521 1.96059 4.45659 1.82966 4.37797 1.72284 4.29591 1.72284 4.27541 1.72284 4.25491 1.71251 4.24807 1.70217 4.26173 1.67805 4.28566 1.06817 3.98483 1.06817 3.94724 1.06817 3.93355 1.01993 3.91989 0.961347 3.91989 0.89931 3.91989 0.83386 3.89596 0.813173 3.86518 0.78905 3.83784 0.740827 3.8139 0.702913 3.81734 0.665021 3.82075 0.640898 3.80706 0.647794 3.77972 0.65123 3.74896 0.630566 3.74212 0.568529 3.75922 0.51341 3.77288 0.482392 3.76606 0.482392 3.74212 0.482392 3.71819 0.447937 3.71135 0.389359 3.72503 0.261871 3.75578 0.258435 3.75922 0.323886 3.82759 0.358341 3.85834 0.43071 3.98826 0.485828 4.11132 0.544406 4.23438 0.602984 4.36088 0.616775 4.38822 0.692581 4.52839 0.861419 5.46164 0.868315 5.75906 0.885542 6.71282 0.851087 7.71446 0.799405 7.73155 0.782177 7.73499 0.775282 7.80677 0.782177 7.88539 0.799405 8.04948 0.630566 9.03061 0.499619 9.50578 0.396255 9.88866 0.196398 10.4254 0.0827009 10.6305 0.0378914 10.7091 0 10.7877 0 10.798ZM3.68894 16.8107C3.71478 16.7992 3.75527 16.753 3.7966 16.6778 3.83106 16.6129 3.92755 16.4385 4.01369 16.2881 4.52366 15.3788 4.93368 14.3942 5.06117 13.7755 5.08529 13.6524 5.11631 13.5396 5.13008 13.5191 5.14387 13.502 5.15766 13.2934 5.1611 13.0576 5.16799 12.5892 5.12321 12.3157 4.98882 12.0423 4.88544 11.8337 4.37205 11.3141 4.26866 11.3141 4.248 11.3141 4.23421 11.3004 4.23421 11.2799 4.23421 11.2628 4.21008 11.256 4.18252 11.2663 4.15496 11.2799 4.13084 11.2731 4.13084 11.256 4.13084 11.2389 4.06537 11.2081 3.98613 11.1876 3.90342 11.1671 3.79316 11.1295 3.73459 11.1056 3.67945 11.0816 3.58641 11.0577 3.53129 11.0509 3.47272 11.044 3.42103 11.027 3.4107 11.0133 3.40035 10.9996 3.3211 10.9859 3.2384 10.9825 3.1557 10.9825 3.0799 10.9688 3.06613 10.9517 3.01788 10.88 0.902227 10.8834 0.850544 10.9552 0.836753 10.9723 0.709266 10.9859 0.568009 10.9859 0.423271 10.9859 0.306138 10.9996 0.306138 11.0133 0.306138 11.0304 0.244101 11.0406 0.168296 11.0406 0.0924903 11.0406 0.0304759 11.0509 0.0304759 11.0611 0.0304759 11.0885 0.123509 11.1774 0.157964 11.1774 0.188982 11.1774 0.433626 11.3449 0.661042 11.5226 1.02971 11.8132 1.99452 12.8217 1.99452 12.9208 1.99452 12.9379 2.00829 12.955 2.02208 12.955 2.03931 12.955 2.11168 13.0405 2.18748 13.1464 2.25983 13.249 2.33909 13.355 2.36319 13.3789 2.439 13.4644 2.8904 14.1959 2.8904 14.2404 2.8904 14.2643 2.90419 14.2882 2.92141 14.2951 2.95241 14.3053 3.2384 14.8933 3.28665 15.0403 3.30044 15.0882 3.32454 15.1429 3.33833 15.16 3.37625 15.2147 3.53819 15.748 3.59677 16.0317 3.63122 16.1958 3.64499 16.353 3.63122 16.4693 3.61399 16.5958 3.62089 16.647 3.64845 16.647 3.67601 16.647 3.6829 16.6778 3.66911 16.7359 3.65189 16.7992 3.6631 16.8222 3.68894 16.8107ZM8.37486 20.6148C8.41361 20.5656 8.46703 20.469 8.52559 20.3374 8.7289 19.8759 9.00111 18.9597 9.00111 18.7341 9.00111 18.6965 9.01144 18.6658 9.02867 18.6658 9.04246 18.6658 9.05279 18.4299 9.05279 18.1393 9.05279 17.8487 9.04246 17.6197 9.0321 17.6265 9.01833 17.6333 9.00111 17.5752 8.98732 17.5 8.94942 17.2607 8.82194 16.9462 8.68755 16.7479 8.5635 16.5634 8.26718 16.2728 8.20514 16.2728 8.18791 16.2728 8.17414 16.2523 8.17414 16.2317 8.17414 16.2078 8.13969 16.1839 8.09834 16.1805 7.98808 16.1736 7.60905 16.0335 7.59526 15.9959 7.58836 15.9788 7.57114 15.9719 7.55391 15.9822 7.53668 15.9924 7.30237 16.0095 7.03017 16.0164 6.29969 16.0437 6.28247 16.0437 6.29969 16.0745 6.31003 16.0882 6.29624 16.1018 6.27211 16.1018 6.24799 16.1018 6.10327 16.1394 5.95166 16.1873 5.80005 16.2352 5.6588 16.2659 5.63121 16.2557 5.60709 16.2488 5.57953 16.2591 5.5692 16.2864 5.55887 16.3104 5.46238 16.3616 5.35557 16.3958 5.24875 16.43 5.14882 16.4745 5.13849 16.4916 5.1247 16.5086 5.09714 16.5086 5.07648 16.4984 5.05579 16.4847 5.03856 16.4881 5.03856 16.5086 5.03856 16.5463 4.90764 16.5975 4.84216 16.5873 4.81804 16.5804 4.79735 16.5941 4.79735 16.6146 4.79735 16.6317 4.78013 16.6488 4.7629 16.6488 4.74224 16.6488 4.69055 16.6796 4.6492 16.7172 4.60785 16.7548 4.55617 16.7787 4.53548 16.7719 4.51138 16.7616 4.4838 16.7787 4.47347 16.8061 4.46314 16.8368 4.43901 16.8471 4.41835 16.8368 4.4011 16.8266 4.38387 16.8266 4.38387 16.8437 4.38387 16.8778 4.18747 16.9907 4.122 16.9907 4.09444 16.9907 4.07378 17.0077 4.07378 17.0283 4.07378 17.0488 4.04965 17.059 4.0221 17.0454 3.99108 17.0351 3.97039 17.0454 3.97039 17.0761 3.97039 17.1 3.94283 17.1308 3.90494 17.1445 3.87048 17.1548 3.81534 17.1924 3.78432 17.2265 3.72921 17.2881 3.73264 17.2915 3.91527 17.312 4.0221 17.3257 4.11513 17.353 4.12546 17.3701 4.13923 17.3872 4.17714 17.4009 4.21503 17.4009 4.24949 17.4009 4.28051 17.418 4.28051 17.4385 4.28051 17.459 4.30463 17.4693 4.33219 17.4556 4.38733 17.4351 4.55617 17.4966 4.59406 17.5479 4.60442 17.565 4.62508 17.5752 4.63887 17.5718 4.68366 17.5581 4.96965 17.6812 4.96965 17.712 4.96965 17.7291 4.99032 17.7427 5.0179 17.7427 5.08335 17.7427 5.47273 17.9479 5.55541 18.0231 5.59332 18.0573 5.64157 18.0846 5.66567 18.0846 5.68979 18.0846 5.75183 18.1222 5.80351 18.1701 5.85519 18.2179 5.92067 18.2555 5.95166 18.2555 5.98268 18.2555 6.0137 18.2795 6.02403 18.3068 6.03782 18.3341 6.06538 18.3581 6.08951 18.3581 6.18941 18.3581 6.9337 18.9666 7.38507 19.4144 7.83301 19.8622 8.31196 20.4776 8.31196 20.6075 8.31196 20.6656 8.33609 20.6639 8.37486 20.6148ZM31.173 21.3662C31.1902 21.3662 31.204 21.3457 31.204 21.3183 31.204 21.291 31.266 21.1337 31.3453 20.9662 31.4245 20.8021 31.5003 20.6346 31.5176 20.597 31.5348 20.5594 31.5623 20.5047 31.5796 20.4774 31.5968 20.45 31.6485 20.3509 31.6933 20.2552 31.9207 19.7834 32.5857 18.6621 32.6546 18.6382 32.6719 18.6314 32.6857 18.6108 32.6857 18.5972 32.6857 18.5459 32.8958 18.2553 32.9303 18.2553 32.9475 18.2553 32.9613 18.2382 32.9613 18.2143 32.9613 18.1459 33.3197 17.7049 33.7193 17.2879 33.9778 17.0144 34.474 16.6076 34.5188 16.6349 34.5325 16.6452 34.5463 16.6315 34.5463 16.6076 34.5463 16.5632 34.8737 16.358 34.9426 16.358 34.9633 16.358 34.9942 16.3375 35.0115 16.3136 35.0322 16.2897 35.1597 16.2281 35.3009 16.1734L35.5559 16.0743 35.4146 16.0025C35.3354 15.9615 35.2699 15.9136 35.2699 15.8931 35.2699 15.8726 35.2561 15.8692 35.2355 15.8794 35.2182 15.8897 35.0976 15.8555 34.9701 15.8008 34.8392 15.7461 34.6807 15.6812 34.6152 15.6572 34.5498 15.6333 34.4808 15.5991 34.4602 15.5854 34.4429 15.5718 34.3499 15.5513 34.2603 15.5376 34.1707 15.5239 34.0708 15.4897 34.0467 15.4624 34.0157 15.4316 33.9674 15.4213 33.9261 15.435 33.8848 15.4487 33.8365 15.4453 33.8124 15.4282 33.7883 15.4111 33.678 15.394 33.5643 15.3872 33.4506 15.3837 33.3541 15.3632 33.3472 15.3461 33.33 15.3017 33.0026 15.3085 32.9889 15.353 32.982 15.3701 32.8958 15.3906 32.7959 15.3906 32.6994 15.394 32.6167 15.4077 32.6167 15.4248 32.6167 15.4384 32.5857 15.4521 32.5513 15.4521 32.4617 15.4521 32.0172 15.7051 31.869 15.8384 31.4934 16.1734 31.204 16.8605 31.0627 17.7425 31.0007 18.1323 30.9904 18.3442 30.9904 19.1271 30.9904 19.6364 31.0076 20.1902 31.0248 20.3577 31.0524 20.5833 31.0489 20.6722 31.0214 20.6893 30.9904 20.7098 30.9904 20.7167 31.0214 20.7167 31.0593 20.7167 31.08 20.7987 31.1179 21.1713 31.1316 21.2773 31.1558 21.3662 31.173 21.3662ZM12.4084 22.6697C12.4188 22.6561 12.3326 22.2322 12.2637 21.9758 12.1156 21.4117 11.8433 20.916 11.5436 20.6596 11.4471 20.5776 11.3678 20.4989 11.361 20.4853 11.3541 20.4682 11.3265 20.4545 11.2989 20.4545 11.2714 20.4545 11.2507 20.4409 11.2507 20.4203 11.2507 20.4032 11.23 20.3964 11.2093 20.4032 11.1611 20.4203 10.8958 20.3383 10.9199 20.3144 10.9268 20.3075 10.7407 20.3007 10.5064 20.3007 10.2721 20.3007 10.0792 20.3109 10.0792 20.328 10.0792 20.3417 10.024 20.352 9.95854 20.352 9.89309 20.352 9.81039 20.3656 9.77594 20.3861 9.66568 20.4477 9.39345 20.5229 9.34523 20.5024 9.31765 20.4921 9.28665 20.5092 9.27286 20.54 9.26253 20.5742 9.23151 20.5913 9.20051 20.5776 9.17293 20.5673 9.14881 20.5742 9.14881 20.5947 9.14881 20.6152 9.12471 20.6254 9.09713 20.6118 9.06956 20.6015 9.03511 20.6152 9.02132 20.6357 9.00409 20.6596 8.92139 20.7143 8.83182 20.7553 8.73878 20.7964 8.66642 20.8442 8.66642 20.8647 8.66642 20.8818 8.72156 20.9058 8.78701 20.9194 8.85248 20.9297 8.90762 20.9536 8.90762 20.9741 8.90762 20.9912 8.92485 20.9946 8.94551 20.9844 9.00066 20.9502 9.1557 20.9981 9.12814 21.0391 9.11435 21.0664 9.13158 21.0699 9.18326 21.0528 9.23151 21.0391 9.26942 21.0425 9.28665 21.0699 9.30042 21.0938 9.37968 21.1177 9.46238 21.1211 9.54506 21.128 9.61743 21.1485 9.62433 21.169 9.63122 21.1895 9.66911 21.2066 9.71046 21.2066 9.75181 21.2066 9.82762 21.2271 9.8793 21.2545 9.92755 21.2818 10.024 21.3194 10.0929 21.3433 10.1618 21.3638 10.217 21.398 10.217 21.4151 10.217 21.4356 10.2308 21.4425 10.2514 21.4288 10.2687 21.4186 10.31 21.4254 10.3445 21.4425 10.3789 21.4596 10.5616 21.5485 10.7511 21.6373 10.9406 21.7262 11.1577 21.8424 11.2335 21.8903 11.3093 21.9416 11.3954 21.9894 11.4299 22.0031 11.5022 22.0271 12.0087 22.3723 12.2293 22.5467 12.3223 22.6185 12.4015 22.6732 12.4084 22.6697ZM18.3647 23.5995C18.3854 23.588 18.4113 23.511 18.4526 23.3623 18.742 22.3265 19.1211 21.5676 19.5759 21.1095 19.762 20.9249 20.0169 20.7437 20.0514 20.7745 20.0617 20.7882 20.0928 20.7711 20.1169 20.7369 20.1479 20.6959 20.2064 20.6788 20.3167 20.6788 20.4029 20.6788 20.4752 20.6651 20.4752 20.648 20.4752 20.5967 21.0989 20.648 21.1333 20.6993 21.1471 20.7232 21.1713 20.7335 21.185 20.7198 21.2126 20.6924 21.6812 20.9317 21.6812 20.9728 21.6812 20.9899 21.7053 21.0035 21.7329 21.0035 21.7605 21.0035 21.8328 21.0446 21.8949 21.0992 22.0465 21.2257 22.5358 21.7112 22.6701 21.8684 22.8872 22.1146 23.2145 22.6308 23.4558 23.1059 23.5901 23.3692 23.7142 23.5811 23.7348 23.5777 23.7796 23.5674 23.7934 23.4341 23.7555 23.3862 23.7348 23.3589 23.7348 23.2119 23.7521 22.9863 23.7693 22.788 23.7831 22.5829 23.7831 22.5282 23.7865 22.4017 23.8692 21.7864 23.9347 21.4308 24.0346 20.8976 24.2896 20.1421 24.4963 19.7763 24.6376 19.5233 24.8202 19.2635 24.8857 19.2156 24.9167 19.1951 24.9477 19.1609 24.9477 19.1473 24.9546 19.0857 25.3681 18.7541 25.5611 18.655 26.1296 18.361 26.8566 18.3644 27.625 18.6653 27.7973 18.7302 28.0075 18.8259 28.0936 18.8772 28.1832 18.9285 28.3383 19.0174 28.4382 19.0755 29.0412 19.4242 29.8785 20.1626 30.6366 21.0138 30.8536 21.2531 31.0328 21.4445 31.0397 21.4377 31.05 21.4308 31.0397 21.318 31.0225 21.1881 30.9984 21.0343 30.9984 20.942 31.0225 20.9146 31.0466 20.8873 31.0431 20.8702 31.0121 20.86 30.9811 20.8497 30.9673 20.7608 30.9673 20.5728 30.9673 20.4258 30.9536 20.2925 30.9363 20.2822 30.895 20.2515 30.8915 18.1696 30.9363 18.1388 30.9536 18.1251 30.9673 18.0226 30.9708 17.9097 30.9742 17.4824 31.1741 16.785 31.4222 16.3133 31.5979 15.9783 31.9873 15.5886 32.2974 15.4381 32.4352 15.3732 32.5524 15.3356 32.5868 15.3493 32.6213 15.3629 32.6557 15.3527 32.6729 15.3287 32.6902 15.3048 32.7556 15.2809 32.8246 15.2809 32.89 15.2775 32.9555 15.2638 32.9693 15.2501 33.0038 15.2194 33.6033 15.2194 33.6033 15.2536 33.6033 15.2672 33.6825 15.2775 33.7825 15.2809 33.8789 15.2809 33.9651 15.298 33.972 15.3185 33.9789 15.3356 34.0237 15.3458 34.0685 15.3356 34.1236 15.3253 34.1615 15.339 34.1753 15.3732 34.1891 15.4142 34.2235 15.4245 34.2959 15.4074 34.3648 15.3937 34.3958 15.404 34.3958 15.4313 34.3958 15.4587 34.4234 15.4655 34.4682 15.4552 34.513 15.445 34.544 15.4552 34.5578 15.4894 34.5681 15.5168 34.6025 15.5339 34.6439 15.5236 34.7266 15.4997 35.1366 15.6638 35.7327 15.9543 35.9636 16.0637 36.0256 16.0535 35.9912 15.8962 35.9498 15.7253 35.7947 15.1783 35.681 14.816 35.6156 14.6006 35.5398 14.3545 35.5156 14.269 35.4709 14.1049 35.1366 13.1717 35.0849 13.0554 35.0677 13.0178 34.9712 12.7785 34.8679 12.5255 34.7645 12.2726 34.6267 11.9478 34.5646 11.8077 34.3682 11.3735 33.7583 10.1941 33.6722 10.0813 33.6584 10.0642 33.6033 9.97191 33.5516 9.87617 33.4413 9.6779 33.4172 9.63346 32.9624 8.95659 32.5386 8.32758 32.4249 8.16691 32.0769 7.73958 32.0252 7.67464 31.97 7.60627 31.9562 7.58575 31.6462 7.16186 30.3816 5.84914 29.8303 5.37738 29.7579 5.31242 29.658 5.22696 29.6166 5.18593 29.5718 5.14149 29.5202 5.10731 29.5064 5.10731 29.4891 5.10731 29.4237 5.04919 29.3582 4.98084 29.2962 4.90904 29.2307 4.84751 29.2169 4.8441 29.1687 4.83382 28.5381 4.34156 28.5381 4.31422 28.5381 4.29712 28.5175 4.28687 28.4933 4.28687 28.4692 4.28687 28.4003 4.25269 28.3417 4.21166 28.2866 4.16722 28.197 4.10226 28.1419 4.06467 28.0902 4.02705 28.0282 3.97577 28.0041 3.95527 27.9765 3.93133 27.942 3.91083 27.9214 3.91083 27.9007 3.91083 27.8662 3.88005 27.8421 3.84246 27.818 3.80484 27.7697 3.77409 27.7353 3.77409 27.7008 3.77409 27.6664 3.75015 27.656 3.72281 27.6423 3.69547 27.6147 3.67153 27.5906 3.67153 27.563 3.67153 27.5217 3.65101 27.4975 3.62709 27.4734 3.60657 27.3769 3.54845 27.2873 3.5006 27.1943 3.45273 27.0944 3.3912 27.0634 3.36386 27.0324 3.33652 26.9497 3.28524 26.8842 3.25446 26.8187 3.22028 26.6706 3.13824 26.5569 3.07328 26.4432 3.00491 26.3226 2.93995 26.2915 2.9297 26.2571 2.91945 26.2295 2.89894 26.2295 2.88185 26.2295 2.86476 26.2054 2.85107 26.1778 2.85107 26.1503 2.85107 26.1261 2.83398 26.1261 2.81005 26.1261 2.78954 26.1192 2.77929 26.1055 2.78954 26.0814 2.81689 25.6782 2.61862 25.6782 2.57759 25.6782 2.5605 25.6541 2.55365 25.6265 2.56393 25.599 2.57759 25.5748 2.56734 25.5748 2.54683 25.5748 2.52631 25.5507 2.50922 25.5232 2.50922 25.4956 2.50922 25.4715 2.49556 25.4715 2.47503 25.4715 2.45794 25.4474 2.4511 25.4198 2.46137 25.3922 2.47503 25.3612 2.45794 25.3474 2.43059 25.3371 2.39982 25.3061 2.38616 25.2785 2.39641 25.2509 2.40666 25.2303 2.39641 25.2303 2.37591 25.2303 2.35538 25.2062 2.34856 25.1786 2.35881 25.151 2.37247 25.1269 2.36222 25.1269 2.34172 25.1269 2.3212 25.1028 2.3041 25.0752 2.3041 25.0476 2.3041 24.996 2.29044 24.9615 2.26992 24.7927 2.1742 23.8072 1.805 23.4558 1.70244 23.342 1.66826 23.2318 1.62382 23.2111 1.59989 23.1904 1.57595 23.1456 1.56229 23.1077 1.57254 23.0595 1.58623 23.025 1.56913 23.0009 1.51101 22.9768 1.46658 22.9596 1.45289 22.9596 1.47683 22.9561 1.52126 22.8527 1.53495 22.8527 1.48708 22.8527 1.47339 22.8149 1.46658 22.7666 1.47683 22.708 1.48708 22.6736 1.47339 22.6598 1.4358 22.646 1.3982 22.615 1.38793 22.5736 1.3982 22.5013 1.42212 22.2325 1.35718 22.2325 1.31615 22.2325 1.30249 22.1877 1.29565 22.1326 1.3059 22.0775 1.31274 22.0223 1.30249 22.012 1.28196 21.9982 1.26146 21.9431 1.24437 21.8845 1.24437 21.8294 1.24437 21.7846 1.23069 21.7846 1.21359 21.7846 1.1965 21.757 1.18966 21.7191 1.19993 21.6847 1.20675 21.633 1.18966 21.602 1.16231 21.5744 1.13156 21.5227 1.11788 21.4951 1.12813 21.4641 1.13838 21.4124 1.13838 21.3814 1.12472 21.347 1.11104 21.2781 1.09394 21.2229 1.09053 21.1713 1.0871 21.1092 1.06319 21.0851 1.0461 21.061 1.02557 21.0059 1.01532 20.9645 1.029 20.9163 1.03925 20.8818 1.029 20.868 0.994817 20.8542 0.95379 20.8198 0.943539 20.7474 0.960632 20.6923 0.970883 20.6268 0.960632 20.5958 0.936697 20.5683 0.916172 20.5304 0.905921 20.5131 0.916172 20.4683 0.943539 20.2995 0.902511 20.3202 0.871735 20.3271 0.858075 20.2892 0.854643 20.234 0.861484 20.1755 0.868326 20.1031 0.864894 20.0721 0.851233 20.0376 0.83755 19.979 0.820457 19.9411 0.817047 19.7103 0.786271 19.4588 0.728173 19.4484 0.704239 19.445 0.690556 19.3864 0.683714 19.3209 0.690556 19.252 0.697397 19.1797 0.690556 19.1555 0.673463 19.1348 0.65296 19.0522 0.635867 18.9764 0.635867 18.9006 0.632435 18.8351 0.618775 18.8282 0.601682 18.8247 0.587999 18.7662 0.581157 18.7007 0.587999 18.6283 0.59825 18.5456 0.581157 18.5008 0.550403 18.4561 0.523059 18.3802 0.505966 18.3286 0.516218 18.2769 0.526469 18.208 0.523059 18.177 0.509376 18.1425 0.492283 18.0391 0.4786 17.9461 0.471781 17.853 0.468349 17.7669 0.451256 17.7566 0.434163 17.7462 0.420502 17.6601 0.403409 17.5636 0.403409 17.2466 0.393136 16.9434 0.352131 16.933 0.317945 16.9262 0.300852 16.871 0.29401 16.8125 0.304262 16.7504 0.314513 16.5334 0.29742 16.3232 0.270076 16.1164 0.239322 15.8201 0.208546 15.6685 0.198295 15.5203 0.191453 15.3859 0.170951 15.3756 0.157268 15.3446 0.109399 15.2378 0.0820547 15.2378 0.123082 15.2378 0.17777 14.7382 0.140175 14.6658 0.0786451 14.6176 0.0410273 14.6038 0.0410273 14.59 0.075213 14.5796 0.109399 14.5004 0.112831 14.2627 0.0957379 14.0869 0.0854867 13.9215 0.0683938 13.894 0.0581202 13.67-0.0170704 9.52139-0.0205024 9.3939 0.0547106 9.3422 0.0888963 8.84947 0.0991475 8.80123 0.0683938 8.77711 0.0547106 8.73232 0.0615522 8.7013 0.0854867 8.66684 0.11624 8.54969 0.133333 8.38431 0.133333 8.23959 0.133333 8.11211 0.147016 8.10175 0.160677 8.09142 0.174361 7.9846 0.191453 7.86057 0.194863 7.73995 0.201705 7.62626 0.211956 7.60559 0.225639 7.54701 0.259825 7.33337 0.270076 7.28168 0.239322 7.25412 0.222229 7.22656 0.229049 7.20588 0.256415 7.18865 0.287169 7.11974 0.304262 7.01981 0.300852 6.93368 0.300852 6.86476 0.307671 6.86476 0.321355 6.86476 0.348699 6.56498 0.399977 6.36512 0.403409 6.28932 0.406819 6.20664 0.427321 6.17906 0.451256 6.14806 0.482032 6.09292 0.492283 6.03091 0.4786 5.97922 0.468349 5.93441 0.471781 5.93441 0.488873 5.93441 0.519627 5.74835 0.557245 5.53816 0.570906 5.48304 0.574338 5.4279 0.587999 5.41757 0.59825 5.38655 0.639277 4.86626 0.769178 4.82835 0.745266 4.80769 0.734993 4.78013 0.738425 4.76634 0.755517 4.73878 0.799954 4.0462 1.01873 3.94627 1.01532 3.90146 1.01191 3.867 1.02557 3.867 1.04266 3.867 1.05976 3.84634 1.07344 3.82222 1.07344 3.79809 1.07344 3.71539 1.10419 3.63959 1.13838 3.56378 1.176 3.45352 1.21702 3.3984 1.23069 3.34326 1.24437 3.26746 1.27512 3.22956 1.29906 3.19165 1.31958 3.02281 1.3982 2.85054 1.46999 2.6817 1.54177 2.4336 1.65801 2.30611 1.72979 2.17862 1.805 2.05803 1.85287 2.04424 1.84262 2.02701 1.83578 2.00635 1.84603 1.99599 1.86996 1.98566 1.89387 1.90296 1.95199 1.81338 1.99986 1.72035 2.0443 1.63765 2.08874 1.62732 2.10242 1.61699 2.11267 1.51016 2.18788 1.38611 2.26992 0.955401 2.5605 0.435095 2.99807 0.142228 3.31942L0.0147406 3.45617 0.218034 3.49717C0.331731 3.5177 0.421327 3.55188 0.421327 3.56554 0.421327 3.58263 0.452323 3.58948 0.490237 3.57922 0.531587 3.56897 0.566042 3.58263 0.579833 3.61682 0.590165 3.6476 0.617725 3.66128 0.634952 3.65101 0.65218 3.63735 0.703862 3.64419 0.741776 3.66469 0.783127 3.68519 0.865805 3.71597 0.920946 3.73306 0.979524 3.75015 1.02087 3.78434 1.01398 3.80827 1.00708 3.83221 1.02431 3.84246 1.05533 3.83221 1.12424 3.80484 1.38611 3.91767 1.38611 3.97236 1.38611 3.99629 1.3999 4.00655 1.42057 3.99629 1.46538 3.96895 1.73068 4.10567 1.75481 4.17063 1.76514 4.19798 1.7927 4.21507 1.81682 4.20482 1.84094 4.19798 1.88919 4.21507 1.92708 4.24585 1.96154 4.2766 2.02357 4.32106 2.06146 4.34497 2.09592 4.3655 2.1235 4.39968 2.12004 4.42018 2.11315 4.44071 2.13037 4.44753 2.15796 4.43728 2.18552 4.42703 2.22687 4.44753 2.25099 4.48171 2.27855 4.5159 2.34402 4.56718 2.39914 4.59452 2.5163 4.65264 3.10551 5.22012 3.28814 5.44916 3.47075 5.67821 3.71539 6.11579 3.81188 6.38927 3.91525 6.67642 3.97726 7.02512 3.93248 7.07299 3.89113 7.11399 3.89113 7.28492 3.93248 7.30885 3.9635 7.32936 3.94281 7.60627 3.90492 7.63703 3.89459 7.6473 3.88079 7.69174 3.87736 7.73958 3.87046 7.88317 3.64994 8.39252 3.52243 8.57372 3.18475 9.03864 2.33713 9.82489 2.16829 9.82489 2.1476 9.82489 2.10627 9.85567 2.08215 9.89326 2.05803 9.93088 2.02011 9.95138 1.98912 9.94113 1.9581 9.92745 1.93744 9.94113 1.93744 9.96847 1.93744 9.99582 1.81682 10.0779 1.67211 10.1531 1.52395 10.2249 1.39644 10.2967 1.38611 10.3069 1.35512 10.3479 1.14836 10.4402 1.09322 10.4402 1.06566 10.4402 1.04154 10.4573 1.04154 10.4778 1.04154 10.4984 1.02431 10.5086 1.00019 10.5018 0.979524 10.4949 0.931278 10.5154 0.893387 10.553 0.858932 10.5872 0.80725 10.6078 0.779668 10.5975 0.755545 10.5872 0.72109 10.5975 0.707321 10.6214 0.672866 10.6727 0.438555 10.7821 0.362749 10.7821 0.314503 10.7821 0.314503 10.7889 0.373081 10.8334 0.459218 10.8983 0.524692 10.8983 0.662512 10.83 0.752108 10.7821 0.83135 10.7787 1.07945 10.7958 1.28275 10.8094 1.38611 10.806 1.38611 10.7821 1.38611 10.7616 1.5894 10.7479 1.97189 10.7479 2.29578 10.7479 2.55765 10.7616 2.55765 10.7752 2.55765 10.7923 2.66791 10.8026 2.80573 10.8026 2.96769 10.7992 3.05727 10.8129 3.06416 10.8402 3.07449 10.8676 3.11584 10.8744 3.17788 10.8607 3.233 10.8505 3.30537 10.8539 3.33982 10.8676 3.37428 10.8812 3.43975 10.8949 3.48454 10.8983 3.53279 10.9017 3.57414 10.9222 3.58447 10.9462 3.59136 10.9701 3.63271 10.977 3.69816 10.9633 3.7602 10.953 3.79809 10.9599 3.79809 10.9838 3.79809 11.0043 3.82911 11.0214 3.867 11.0214 3.9566 11.0214 4.28394 11.1786 4.47345 11.312 4.92138 11.6333 5.16259 12.0435 5.24529 12.611 5.28318 12.8845 5.29008 13.1546 5.25906 13.1853 5.24529 13.1956 5.2315 13.305 5.22461 13.4212 5.20738 13.7972 4.98342 14.5322 4.68709 15.192 4.55615 15.486 4.0703 16.4364 4.00139 16.5287 3.96693 16.5799 3.93591 16.6381 3.93591 16.6551 3.93591 16.6757 3.92558 16.6962 3.91181 16.703 3.867 16.7201 3.72575 17.0038 3.7602 17.0038 3.80155 17.0038 4.01518 16.8944 4.0393 16.8603 4.04963 16.8466 4.28738 16.7201 4.56648 16.5799 4.88349 16.4158 5.09368 16.3304 5.13157 16.3441 5.16259 16.3577 5.17982 16.3509 5.16603 16.3338 5.13847 16.2894 5.36932 16.2039 5.42103 16.2381 5.44513 16.2518 5.45202 16.2483 5.44169 16.2278 5.41413 16.1868 5.5106 16.1389 5.55885 16.1697 5.57607 16.18 5.58986 16.1697 5.58986 16.1492 5.58986 16.1253 5.61742 16.1184 5.66221 16.1321 5.707 16.1458 5.74835 16.1355 5.77247 16.1048 5.82761 16.0398 6.23076 15.9338 6.33067 15.9578 6.37891 15.9714 6.41683 15.9612 6.4237 15.9372 6.43406 15.9133 6.52709 15.8962 6.66834 15.8928 6.7924 15.8928 6.90955 15.8791 6.91988 15.8655 6.9578 15.8279 7.16799 15.8381 7.19211 15.8757 7.20244 15.8928 7.29891 15.9065 7.40228 15.8996 7.53322 15.8962 7.5987 15.9065 7.61936 15.9407 7.63659 15.9646 7.66761 15.9749 7.68827 15.9646 7.73995 15.9304 8.07076 16.0432 8.09488 16.0979 8.10175 16.1253 8.13277 16.1355 8.15689 16.1287 8.18102 16.1184 8.2258 16.1458 8.25682 16.1902 8.28782 16.2313 8.31194 16.2552 8.31194 16.2415 8.31194 16.2278 8.34985 16.2415 8.39808 16.2723 8.44632 16.303 8.48424 16.3509 8.48424 16.3748 8.48424 16.4022 8.5049 16.4227 8.52903 16.4227 8.59793 16.4227 8.81502 16.7235 8.93217 16.9833 9.09412 17.3457 9.21127 18.0397 9.12857 18.1696 9.10101 18.2174 9.09755 18.2413 9.12857 18.2721 9.14926 18.2926 9.15959 18.3712 9.14926 18.4499 9.07345 19.1985 8.96663 19.6224 8.68064 20.3198 8.62549 20.46 8.56348 20.5899 8.54969 20.6104 8.53246 20.6275 8.51869 20.6719 8.51869 20.7095 8.51869 20.7608 8.52903 20.7677 8.55658 20.7403 8.57727 20.7198 8.61862 20.7095 8.64272 20.7198 8.6703 20.73 8.69097 20.7198 8.69097 20.6959 8.69097 20.6719 8.71509 20.6617 8.74265 20.6754 8.77023 20.6856 8.79433 20.6788 8.79433 20.6617 8.79433 20.6001 9.54206 20.2993 9.62476 20.3267 9.65232 20.3369 9.69367 20.3198 9.72122 20.2925 9.74881 20.2686 9.80738 20.2515 9.85217 20.2617 9.89696 20.2686 9.94175 20.2617 9.95554 20.2446 9.96587 20.2241 10.0555 20.2173 10.1726 20.2309 10.3001 20.2446 10.3828 20.2412 10.3966 20.2173 10.4242 20.1694 10.5861 20.1728 10.5861 20.2207 10.5861 20.248 10.6033 20.248 10.6378 20.2173 10.7033 20.1626 11.0651 20.248 11.32 20.3779 11.6749 20.5625 12.0057 20.9625 12.2056 21.4479 12.2469 21.5505 12.2952 21.6667 12.3124 21.7043 12.3572 21.8103 12.4709 22.2616 12.5157 22.5179 12.5398 22.6444 12.5708 22.747 12.5846 22.747 12.5984 22.747 12.6363 22.6923 12.6742 22.6273 12.7087 22.5624 12.75 22.5077 12.7638 22.5077 12.781 22.5077 12.7913 22.4906 12.7913 22.4701 12.7913 22.3846 13.4322 21.6975 13.732 21.4548 13.9181 21.3044 14.2213 21.1266 14.2833 21.13 14.3143 21.1334 14.3419 21.1198 14.3419 21.1027 14.3419 21.0856 14.4143 21.0377 14.5073 20.9967 14.5969 20.9591 14.7037 20.9112 14.745 20.8907 14.7829 20.8736 14.8346 20.8702 14.8553 20.8805 14.876 20.8941 14.8932 20.8873 14.8932 20.8702 14.8932 20.8497 14.938 20.8326 14.9931 20.8326 15.0517 20.8326 15.1068 20.8155 15.1206 20.795 15.1344 20.7711 15.2033 20.7642 15.2929 20.7745 15.3756 20.7813 15.4445 20.7779 15.4445 20.7608 15.4445 20.7437 15.5548 20.73 15.6857 20.73 15.8201 20.73 15.9269 20.7437 15.9269 20.7608 15.9269 20.7813 15.9821 20.7847 16.0475 20.7745 16.1199 20.7642 16.1888 20.7711 16.2198 20.7984 16.2474 20.8223 16.3232 20.8463 16.3852 20.8497 16.5919 20.8634 16.9779 21.089 17.2673 21.3727 17.4155 21.5163 17.5774 21.6906 17.6256 21.7556 17.8737 22.0906 18.2045 22.9145 18.3079 23.4444 18.3286 23.5572 18.3441 23.611 18.3647 23.5995ZM18.2092 23.785C18.2471 23.7474 18.0128 22.8585 17.8646 22.4654 17.775 22.2364 17.4511 21.6894 17.3581 21.6108 17.3478 21.6005 17.272 21.5219 17.1927 21.433 17.11 21.3441 17.0446 21.2792 17.0446 21.2894 17.0446 21.2997 16.9928 21.2689 16.9343 21.2245 16.7586 21.0946 16.5277 20.9784 16.3485 20.9305 16.2555 20.9031 16.1831 20.8724 16.1831 20.8621 16.1831 20.8485 15.9592 20.8416 15.6869 20.8416 15.4147 20.8416 15.1977 20.8519 15.208 20.869 15.2218 20.8929 15.146 20.9066 15.0392 20.8997 15.0047 20.8963 14.9771 20.9066 14.9771 20.9236 14.9771 20.951 14.7911 21.0091 14.7118 21.0057 14.6877 21.0057 14.667 21.016 14.667 21.033 14.667 21.0501 14.636 21.0638 14.5981 21.0638 14.5602 21.0638 14.5292 21.0775 14.5292 21.0912 14.5292 21.1083 14.4637 21.1493 14.3845 21.1869 14.3018 21.2211 14.2156 21.2689 14.1915 21.2929 14.1674 21.3168 14.1295 21.3373 14.1123 21.3373 14.095 21.3373 14.0503 21.3681 14.0089 21.4091 13.971 21.4467 13.9159 21.4706 13.8883 21.4604 13.8607 21.4501 13.8401 21.4535 13.8401 21.4706 13.8401 21.4877 13.6953 21.645 13.5196 21.8193 13.2577 22.086 12.7857 22.6842 12.7443 22.8073 12.7305 22.8415 12.8615 22.8278 13.1061 22.7662 13.1888 22.7457 13.3163 22.7389 13.3921 22.7526 13.4783 22.7662 13.5299 22.7594 13.5299 22.7389 13.5299 22.7184 13.7953 22.7047 14.2708 22.7047 14.6774 22.7047 15.0116 22.7184 15.0116 22.7321 15.0116 22.7491 15.1012 22.7526 15.2149 22.7457 15.3389 22.7355 15.4457 22.7491 15.4974 22.7765 15.5422 22.8004 15.6456 22.8141 15.7283 22.8107 15.8179 22.8039 15.873 22.8175 15.873 22.8415 15.873 22.8654 15.9144 22.8722 15.9867 22.8585 16.0729 22.8415 16.1211 22.8517 16.159 22.8927 16.19 22.9235 16.2348 22.9372 16.2555 22.9269 16.3037 22.8962 16.7413 23.0124 16.7896 23.0705 16.8102 23.0944 16.8516 23.1081 16.8792 23.0978 16.955 23.0671 17.6613 23.3679 17.8129 23.491 17.8371 23.5115 17.9335 23.5867 18.0266 23.6585 18.123 23.7337 18.2023 23.7884 18.2092 23.785ZM23.8584 23.7899C23.8653 23.7967 23.9307 23.7318 24.0031 23.6429 24.1857 23.4139 24.4442 23.1848 24.4889 23.2087 24.5096 23.2224 24.5338 23.2053 24.5407 23.1711 24.5648 23.0925 24.8198 22.9079 24.868 22.9353 24.8852 22.9489 24.899 22.9353 24.899 22.9079 24.899 22.8601 25.0954 22.7575 25.1505 22.7746 25.1643 22.778 25.1747 22.7643 25.1747 22.7438 25.1747 22.7233 25.1988 22.7131 25.2263 22.7267 25.2539 22.737 25.2884 22.7233 25.3021 22.6994 25.3331 22.6447 25.6329 22.4943 25.7707 22.4601 25.8328 22.4464 25.8638 22.4533 25.8672 22.4806 25.8672 22.5045 25.8845 22.4908 25.9051 22.4533 25.9465 22.3644 26.0843 22.296 26.1601 22.3268 26.1911 22.337 26.229 22.3268 26.2463 22.2994 26.2738 22.2584 26.2807 22.2584 26.3083 22.2994 26.3324 22.337 26.3427 22.3336 26.36 22.2789 26.3841 22.2071 26.6873 22.0977 26.8561 22.0977 26.8975 22.0977 26.9319 22.0841 26.9319 22.067 26.9319 22.043 27.1249 21.9917 27.2765 21.9781 27.3041 21.9747 27.373 21.9541 27.4247 21.9336 27.4798 21.9097 27.535 21.8994 27.5522 21.9097 27.5694 21.9199 27.5901 21.9131 27.6004 21.896 27.6211 21.8653 27.9794 21.8071 28.0621 21.8208 28.0897 21.8242 28.131 21.8106 28.1586 21.7866 28.1862 21.7627 28.262 21.7559 28.3447 21.7661 28.4308 21.7764 28.4825 21.7695 28.4928 21.7456 28.4997 21.7217 28.5824 21.7046 28.6755 21.7012 28.7685 21.6977 28.8684 21.6875 28.896 21.6738 28.9821 21.6396 29.437 21.6123 30.1881 21.5986 30.5671 21.5918 30.8807 21.5849 30.8876 21.5849 30.9117 21.5849 30.1123 20.6824 29.8987 20.4739 29.7643 20.344 29.654 20.2175 29.654 20.1936 29.654 20.1697 29.6334 20.1492 29.6058 20.1492 29.5817 20.1492 29.5403 20.1252 29.5162 20.0979 29.4473 20.0158 28.8305 19.5304 28.517 19.3082 27.4247 18.5459 26.36 18.3442 25.5743 18.7578 25.3848 18.8535 25.0058 19.192 24.8129 19.4313 24.675 19.5988 24.3787 20.2415 24.2615 20.6243 24.134 21.038 23.9687 21.8003 23.9687 21.9781 23.9687 22.0362 23.9583 22.0943 23.948 22.1046 23.9376 22.1182 23.9204 22.2447 23.9135 22.3917 23.9032 22.5387 23.8894 22.6686 23.8791 22.6823 23.8584 22.7165 23.8377 23.7694 23.8584 23.7899ZM23.6031 24C23.6686 24.0068 23.4274 23.3675 23.1965 22.9265 22.7968 22.1676 22.1456 21.3916 21.6287 21.06 21.4323 20.9335 21.1394 20.79 21.0774 20.79 21.0602 20.79 21.043 20.7763 21.043 20.7626 21.043 20.7455 20.8914 20.7352 20.7087 20.7352 20.4331 20.7387 20.3332 20.7558 20.1678 20.8241 19.6234 21.0498 19.1272 21.7779 18.7585 22.8753 18.6 23.347 18.4415 23.9316 18.4656 23.9555 18.4725 23.9624 18.5724 23.9247 18.6861 23.8701 18.9549 23.7367 19.1409 23.6718 19.4752 23.5863 19.6268 23.5453 19.7853 23.5009 19.8267 23.4804 19.868 23.4633 19.9472 23.4564 20.0058 23.4667 20.0644 23.4804 20.1126 23.4735 20.1195 23.4496 20.1264 23.4325 20.2263 23.4085 20.3366 23.4051 20.4503 23.3983 20.5709 23.3846 20.6019 23.371 20.6605 23.347 21.0843 23.3607 21.6253 23.4017 21.7666 23.412 21.8941 23.4393 21.9078 23.4598 21.9216 23.4838 21.9595 23.4906 21.9905 23.4769 22.0629 23.4496 22.4523 23.5384 22.7486 23.6478 22.7865 23.6615 22.8382 23.6752 22.8657 23.682 22.8933 23.6854 22.9243 23.7094 22.9381 23.7333 22.9519 23.7538 22.9794 23.7641 23.0001 23.7504 23.0552 23.7162 23.2103 23.8017 23.2344 23.8769 23.2517 23.9247 23.262 23.9316 23.2827 23.9008 23.3033 23.8666 23.3378 23.8735 23.4446 23.9282 23.517 23.9658 23.5859 24 23.6031 24Z" fill-rule="evenodd" transform="matrix(1 0 0 -1 441 391)"/></g></svg>