<?xml version="1.0" standalone="no"?>
<!DOCTYPE svg PUBLIC "-//W3C//DTD SVG 20010904//EN"
 "http://www.w3.org/TR/2001/REC-SVG-20010904/DTD/svg10.dtd">
<svg version="1.0" xmlns="http://www.w3.org/2000/svg"
 width="1005.000000pt" height="785.000000pt" viewBox="0 0 1005.000000 785.000000"
 preserveAspectRatio="xMidYMid meet">

<g transform="translate(0.000000,785.000000) scale(0.100000,-0.100000)"
fill="#000000" stroke="none">
<path d="M3140 7822 c-47 -1 -89 -7 -94 -12 -6 -6 -21 -10 -35 -10 -15 -1 -44
-9 -66 -20 -22 -11 -46 -19 -53 -20 -7 0 -20 -4 -30 -9 -9 -5 -28 -14 -42 -20
-14 -6 -38 -20 -55 -31 -29 -19 -47 -28 -73 -36 -7 -2 -16 -14 -21 -26 -12
-30 -59 -74 -90 -83 -29 -9 -79 -62 -88 -94 -3 -14 -12 -36 -19 -50 -8 -14
-14 -33 -14 -42 0 -26 -111 -146 -142 -154 -69 -17 -148 -74 -148 -107 0 -5
-11 -24 -25 -42 -14 -18 -25 -37 -25 -42 0 -6 -20 -30 -45 -54 -25 -24 -45
-50 -45 -57 0 -7 -5 -13 -10 -13 -39 0 -24 -170 21 -238 16 -24 29 -46 29 -50
0 -16 57 -72 93 -92 21 -11 59 -23 85 -27 25 -3 57 -12 72 -20 14 -7 52 -13
86 -13 60 0 88 -10 173 -61 31 -18 53 -20 251 -23 119 -1 222 -6 228 -10 7 -4
12 -15 12 -24 0 -10 9 -34 20 -55 16 -30 20 -56 20 -141 0 -91 -3 -111 -25
-153 -13 -27 -33 -57 -45 -68 -11 -10 -20 -26 -20 -35 0 -10 -7 -23 -15 -30
-8 -7 -15 -19 -15 -26 0 -8 -7 -14 -15 -14 -8 0 -15 -6 -15 -14 0 -7 -9 -16
-20 -19 -21 -5 -40 -44 -40 -79 0 -29 -32 -97 -46 -98 -7 0 -14 -8 -18 -17 -5
-16 -13 -31 -38 -67 -4 -6 -21 -27 -38 -47 -16 -20 -30 -41 -30 -46 0 -13 -66
-73 -80 -73 -5 0 -10 -6 -10 -13 0 -8 -25 -41 -55 -74 -30 -34 -55 -65 -55
-70 0 -5 -11 -20 -25 -33 -13 -12 -22 -26 -20 -30 2 -4 -2 -16 -10 -26 -8 -10
-15 -32 -15 -49 0 -16 -9 -41 -20 -55 -11 -14 -20 -30 -20 -37 0 -19 -34 -75
-61 -102 -14 -14 -29 -34 -32 -43 -4 -12 -17 -18 -36 -18 -16 0 -32 -4 -35 -9
-3 -5 -15 -7 -26 -4 -13 4 -27 -2 -38 -15 -10 -11 -30 -24 -45 -27 -15 -4 -30
-11 -32 -16 -3 -4 -11 -6 -18 -3 -7 2 -43 -11 -81 -31 -37 -19 -75 -35 -84
-35 -9 0 -30 -7 -46 -15 -15 -8 -35 -15 -42 -15 -8 0 -31 -16 -53 -35 -21 -19
-45 -35 -53 -35 -8 0 -29 -15 -47 -34 -18 -19 -45 -37 -59 -41 -13 -3 -36 -19
-51 -36 -14 -16 -30 -29 -36 -29 -15 0 -65 -53 -65 -68 0 -7 -6 -12 -13 -12
-7 0 -33 -20 -57 -45 -24 -25 -50 -45 -57 -45 -7 0 -28 -14 -46 -30 -19 -17
-40 -30 -46 -30 -6 0 -11 -4 -11 -8 0 -5 -21 -19 -47 -32 -27 -12 -66 -40 -88
-60 -30 -28 -52 -39 -86 -44 -33 -5 -54 -15 -74 -36 -19 -20 -39 -30 -57 -30
-31 0 -68 -17 -81 -37 -4 -7 -13 -13 -18 -13 -6 0 -25 -11 -42 -24 -18 -13
-44 -26 -59 -30 -16 -3 -28 -11 -28 -16 0 -6 -5 -10 -12 -10 -6 0 -20 -8 -31
-17 -15 -15 -36 -18 -105 -16 -47 1 -95 6 -106 11 -29 14 -59 26 -71 27 -9 2
-19 5 -65 23 -8 3 -17 6 -20 6 -3 1 -24 15 -45 32 -36 29 -48 32 -127 36 l-88
4 0 -426 0 -427 61 -7 c34 -3 67 -10 73 -15 6 -5 45 -12 86 -16 41 -3 80 -10
85 -14 6 -5 37 -11 69 -14 32 -3 64 -11 69 -16 6 -6 20 -11 31 -11 12 0 33 -7
48 -14 16 -8 48 -18 73 -22 25 -3 48 -10 51 -15 3 -5 33 -9 67 -9 37 0 71 -6
82 -14 11 -7 53 -15 92 -18 58 -4 79 -11 107 -32 22 -17 47 -26 70 -26 19 0
38 -5 41 -11 4 -6 13 -8 21 -5 7 3 16 1 19 -4 4 -6 14 -10 24 -10 10 0 32 -7
47 -15 16 -8 41 -15 56 -15 14 0 39 -6 55 -14 88 -45 163 -76 181 -76 12 0 24
-5 27 -10 7 -12 88 -50 107 -50 7 0 24 -9 38 -20 14 -11 32 -20 41 -20 8 0 20
-5 26 -11 6 -6 17 -11 24 -13 13 -1 153 -66 189 -87 8 -5 29 -16 47 -24 17 -9
39 -25 49 -36 9 -10 22 -19 29 -19 7 0 20 -9 30 -20 10 -11 23 -19 29 -17 10
4 23 -5 81 -52 6 -4 23 -11 38 -15 15 -3 27 -11 27 -16 0 -5 16 -17 35 -26 19
-9 35 -20 35 -25 0 -5 11 -14 25 -19 14 -5 25 -14 25 -20 0 -5 5 -10 10 -10
14 0 64 -35 113 -80 21 -19 49 -39 63 -45 34 -14 164 -134 164 -151 0 -8 5
-14 10 -14 6 0 10 -6 10 -13 0 -7 16 -28 35 -47 19 -19 35 -38 35 -42 0 -5 11
-19 25 -32 14 -13 25 -28 25 -33 0 -11 63 -73 74 -73 4 0 25 -13 46 -30 21
-16 42 -30 47 -30 4 0 37 -25 71 -55 35 -30 67 -55 72 -55 5 0 11 -9 15 -19 6
-19 125 -84 178 -96 15 -4 30 -11 33 -16 3 -5 16 -9 28 -9 13 0 29 -7 36 -15
18 -22 69 -45 99 -45 19 0 43 -17 86 -60 54 -54 63 -60 102 -60 23 0 45 -5 48
-10 8 -13 58 -13 72 1 7 7 28 9 55 5 23 -4 96 -10 160 -14 69 -5 123 -13 130
-20 7 -7 19 -12 28 -12 8 0 27 -6 42 -14 15 -8 40 -17 57 -21 17 -4 31 -11 31
-16 0 -5 8 -9 18 -9 9 0 44 -14 76 -30 32 -17 69 -30 81 -30 12 0 28 -7 35
-15 7 -8 23 -15 35 -15 12 0 28 -7 35 -15 7 -8 20 -15 30 -15 9 0 23 -12 30
-28 29 -57 61 -82 106 -82 39 0 44 -3 60 -36 26 -55 71 -84 132 -84 29 0 52
-4 52 -9 0 -5 14 -25 32 -45 48 -54 90 -48 123 18 12 24 80 35 98 17 18 -18
46 -12 63 14 19 29 74 34 121 11 60 -30 82 -36 198 -52 66 -9 125 -21 132 -26
7 -5 17 -7 22 -4 5 4 12 2 16 -4 3 -5 17 -10 30 -10 13 0 27 -5 30 -10 3 -6
14 -10 23 -10 9 0 30 -7 46 -15 15 -8 36 -15 46 -15 10 0 25 -6 32 -14 8 -7
29 -17 47 -21 18 -4 44 -13 59 -21 15 -8 35 -14 44 -14 9 0 19 -4 22 -9 3 -5
18 -12 33 -15 16 -4 60 -22 98 -40 75 -36 198 -76 233 -76 12 0 22 -3 22 -8 0
-10 92 -42 123 -42 13 0 30 -6 36 -14 6 -7 30 -16 54 -19 23 -3 63 -17 88 -30
25 -14 60 -28 77 -32 18 -3 32 -11 32 -16 0 -5 7 -9 15 -9 8 0 15 -7 15 -15 0
-9 9 -15 21 -15 12 0 38 -13 59 -30 21 -16 45 -30 53 -30 8 0 20 -7 27 -15 7
-8 40 -34 74 -57 l61 -43 1043 -3 c615 -1 1041 1 1038 7 -31 49 -433 293 -602
365 -49 21 -94 44 -100 52 -6 8 -16 14 -21 14 -6 0 -16 7 -23 15 -7 8 -25 15
-41 15 -28 0 -68 16 -80 33 -3 5 -8 8 -10 8 -13 -2 -49 13 -49 20 0 5 -3 9 -7
8 -16 -2 -53 14 -53 22 0 5 -6 9 -13 9 -7 0 -29 9 -50 20 -20 11 -48 20 -61
20 -13 0 -29 7 -36 15 -7 8 -18 15 -25 15 -8 0 -26 6 -42 14 -51 26 -101 46
-116 46 -8 0 -20 7 -27 15 -7 8 -20 15 -30 15 -10 0 -31 7 -46 15 -16 8 -41
15 -56 15 -16 0 -28 5 -28 10 0 6 -5 10 -10 10 -6 0 -28 11 -50 25 -22 14 -49
25 -61 25 -18 0 -48 12 -99 41 -8 5 -34 18 -57 30 -23 11 -47 27 -54 35 -6 8
-16 14 -21 14 -5 0 -26 13 -46 29 -20 17 -49 33 -64 36 -16 4 -28 11 -28 15 0
4 -12 11 -26 14 -14 4 -31 11 -37 16 -60 49 -77 61 -77 55 0 -3 -13 3 -30 15
-16 12 -30 18 -30 14 0 -5 -5 -3 -12 4 -7 7 -20 12 -30 12 -16 0 -30 5 -78 31
-58 31 -121 59 -134 59 -8 0 -17 4 -20 9 -4 5 -24 12 -46 16 -22 4 -42 11 -46
16 -3 5 -20 9 -37 9 -18 0 -44 6 -58 14 -24 12 -88 29 -116 31 -6 0 -15 4 -19
8 -4 4 -22 7 -39 7 -18 0 -38 7 -45 15 -7 8 -27 15 -45 15 -18 0 -38 7 -45 15
-7 9 -29 15 -51 15 -21 0 -40 4 -44 9 -3 5 -19 12 -35 16 -42 9 -41 52 1 95
l32 31 -7 125 c-3 69 -10 133 -15 142 -8 16 -25 135 -40 278 -3 34 -11 67 -17
75 -6 8 -14 75 -18 149 -3 74 -9 153 -12 175 -3 22 -8 110 -10 195 -2 86 -9
165 -16 177 -6 12 -8 42 -6 68 3 25 2 48 -3 51 -5 3 -9 45 -9 94 0 49 -4 91
-9 94 -4 3 -12 33 -15 68 -4 34 -14 71 -22 82 -8 11 -14 32 -14 46 0 14 -7 34
-15 44 -9 12 -15 42 -15 71 0 77 15 86 138 89 55 1 106 6 113 13 8 6 43 13 79
16 107 10 133 18 168 50 29 28 40 32 105 35 60 3 76 8 98 29 31 29 129 44 153
24 21 -17 56 -93 56 -119 0 -12 12 -41 26 -63 14 -23 28 -57 31 -77 4 -20 12
-47 20 -62 7 -14 13 -37 13 -52 0 -16 4 -28 10 -28 5 0 13 -12 16 -27 4 -15
18 -39 31 -53 12 -13 23 -32 23 -41 0 -9 9 -24 20 -34 11 -10 20 -26 20 -35 0
-10 7 -23 15 -30 8 -7 15 -18 15 -25 0 -7 7 -26 15 -41 8 -16 15 -36 15 -45 0
-22 36 -93 54 -108 9 -8 30 -42 48 -78 17 -35 35 -66 40 -69 4 -3 15 -20 23
-37 16 -35 28 -55 61 -102 12 -16 24 -40 28 -51 4 -12 18 -34 31 -48 13 -14
32 -42 41 -61 9 -19 21 -35 26 -35 5 0 7 -4 4 -9 -3 -5 1 -14 9 -21 8 -7 15
-18 15 -25 0 -6 9 -20 20 -30 11 -10 20 -24 20 -32 0 -22 53 -83 72 -83 19 0
183 -164 202 -202 6 -13 24 -29 39 -36 16 -8 32 -25 37 -38 5 -13 16 -24 23
-24 7 0 26 -14 42 -30 16 -17 34 -30 41 -30 7 0 34 -11 60 -25 26 -14 53 -25
60 -25 8 0 14 -6 14 -12 0 -7 33 -28 73 -47 39 -18 83 -44 97 -57 14 -12 39
-26 55 -30 17 -4 44 -18 61 -31 17 -12 36 -23 42 -23 7 0 29 -16 51 -35 21
-19 47 -35 58 -35 30 0 95 -35 127 -69 17 -17 38 -31 48 -31 10 0 18 -6 18
-13 0 -7 10 -17 23 -22 12 -6 26 -20 32 -32 5 -13 14 -23 18 -23 11 0 46 -42
47 -56 0 -5 14 -23 30 -39 17 -16 30 -36 30 -46 0 -9 7 -22 15 -29 8 -7 15
-20 15 -30 0 -10 7 -23 15 -30 8 -7 15 -18 15 -25 0 -7 7 -18 15 -25 8 -7 15
-20 15 -30 0 -10 7 -31 15 -46 8 -16 15 -36 15 -45 0 -9 7 -30 15 -45 8 -16
15 -39 15 -51 0 -12 5 -25 10 -28 6 -3 10 -16 10 -28 0 -13 7 -32 15 -44 8
-11 17 -40 21 -64 4 -24 13 -53 20 -64 8 -11 14 -29 14 -41 0 -11 7 -34 15
-51 8 -16 22 -60 31 -99 9 -38 20 -76 24 -84 18 -39 38 -69 77 -115 24 -27 43
-55 43 -61 0 -6 9 -19 20 -29 11 -10 20 -23 21 -29 0 -6 18 -26 41 -44 29 -23
50 -32 78 -32 21 0 40 -5 42 -10 2 -6 21 -13 43 -17 22 -3 43 -11 47 -17 4 -6
41 -12 82 -14 l76 -4 0 156 0 156 -55 0 -55 0 0 34 c0 18 -7 39 -15 46 -8 7
-15 19 -15 26 0 8 -4 14 -8 14 -4 0 -13 12 -20 28 -15 32 -29 56 -60 100 -28
38 -40 76 -52 157 -18 122 -30 179 -40 189 -5 5 -10 18 -10 27 0 10 -5 30 -11
46 -7 15 -13 41 -15 57 -3 16 -11 37 -19 46 -8 9 -15 34 -15 56 0 22 -6 48
-14 59 -9 14 -15 62 -18 149 -3 89 -8 131 -16 134 -7 2 -12 14 -12 27 0 24
-70 100 -92 100 -7 0 -18 11 -25 25 -12 26 -111 124 -131 131 -6 2 -51 40 -99
84 -48 44 -90 80 -94 80 -4 0 -32 24 -63 52 -31 29 -60 53 -65 53 -4 0 -13 11
-19 25 -6 14 -19 25 -28 25 -10 0 -14 3 -11 7 9 9 -33 53 -50 53 -7 0 -13 7
-13 15 0 8 -7 15 -15 15 -8 0 -15 9 -15 19 0 11 -7 26 -15 35 -8 8 -15 18 -15
23 0 4 -14 17 -30 28 -16 11 -30 25 -30 30 0 6 -20 31 -45 55 -25 24 -45 48
-45 53 0 14 -60 87 -72 87 -12 0 -38 25 -38 37 0 14 -54 63 -69 63 -7 0 -32
16 -55 35 -24 19 -50 35 -58 35 -9 0 -21 7 -28 15 -7 8 -18 15 -24 15 -7 0
-22 10 -34 23 -30 32 -44 195 -18 216 18 15 24 131 6 131 -13 0 -13 147 0 155
14 8 13 102 -1 107 -6 2 -13 46 -16 106 -3 56 -10 105 -14 108 -13 7 -11 104
1 104 17 0 12 172 -5 194 -10 14 -15 45 -15 102 0 53 -5 92 -15 110 -8 16 -15
50 -15 76 0 26 -4 49 -8 52 -5 3 -12 53 -15 112 -4 75 -11 111 -22 123 -9 11
-15 36 -15 62 0 25 -6 51 -13 57 -8 9 -13 68 -15 205 -4 186 -4 192 -27 215
-14 14 -27 42 -31 68 -3 24 -10 44 -15 44 -5 0 -9 5 -9 12 0 7 -20 33 -44 58
-24 25 -53 61 -63 80 -11 19 -30 40 -44 47 -16 8 -26 23 -29 44 -4 27 -11 34
-43 43 -20 6 -60 30 -87 54 -27 23 -55 42 -63 42 -8 0 -20 7 -27 15 -7 8 -20
15 -30 15 -10 0 -23 7 -30 15 -7 8 -23 15 -36 15 -14 0 -24 6 -24 14 0 17 -49
55 -95 75 -16 7 -37 17 -45 22 -61 35 -162 78 -195 83 -22 3 -41 10 -43 16 -2
5 -9 10 -15 10 -7 0 -24 6 -38 14 -14 7 -38 16 -55 20 -16 4 -31 11 -34 14 -7
10 -93 51 -116 55 -10 2 -26 7 -34 10 -8 3 -28 8 -45 11 -49 10 -52 11 -69 25
-25 21 -89 51 -108 51 -19 0 -95 37 -104 51 -3 5 -14 9 -26 9 -11 0 -34 6 -51
14 -18 8 -50 17 -72 20 -22 3 -41 10 -43 16 -2 5 -10 10 -19 10 -8 0 -29 6
-46 14 -18 8 -49 16 -70 19 -20 3 -51 15 -67 27 -17 12 -30 18 -30 14 0 -3
-15 5 -34 20 -19 14 -43 26 -54 26 -10 0 -39 11 -63 25 -24 14 -51 27 -59 31
-8 3 -23 10 -32 15 -10 5 -24 9 -31 9 -8 0 -22 9 -32 20 -10 11 -26 20 -35 20
-9 0 -21 5 -26 10 -6 6 -34 13 -62 17 -29 3 -57 12 -63 19 -7 8 -31 14 -60 14
-26 0 -50 4 -54 9 -9 15 -66 41 -90 41 -13 0 -25 7 -29 15 -3 8 -13 15 -23 15
-30 0 -157 32 -173 44 -34 25 -80 46 -102 46 -12 0 -32 7 -42 15 -11 8 -30 15
-43 15 -13 0 -23 5 -23 10 0 6 -9 10 -20 10 -11 0 -28 9 -37 20 -10 11 -22 20
-28 20 -7 0 -22 11 -35 25 -13 14 -30 25 -37 25 -8 0 -16 7 -19 15 -4 8 -11
15 -16 15 -6 0 -27 14 -47 30 -57 48 -58 49 -85 56 -15 3 -34 16 -44 28 -9 12
-24 25 -32 29 -8 4 -28 16 -45 27 -16 11 -37 22 -45 26 -8 3 -28 11 -45 19
-26 11 -57 24 -75 30 -76 26 -132 59 -140 81 -5 13 -16 24 -25 24 -8 0 -15 6
-15 13 0 6 -27 25 -60 41 -44 21 -60 34 -62 50 -1 11 -2 29 -3 38 -1 24 -35
58 -57 58 -10 0 -18 6 -18 13 0 6 -23 22 -51 35 -27 13 -53 31 -56 40 -9 25
-44 62 -60 62 -7 0 -13 5 -13 10 0 17 -52 70 -69 70 -23 1 -119 96 -123 123
-2 14 -11 23 -27 25 -25 4 -56 34 -67 66 -12 36 -38 56 -73 56 -23 0 -41 8
-57 25 -17 18 -33 25 -60 25 -21 0 -45 6 -53 14 -22 18 -51 22 -151 18z m387
-2779 c26 -15 70 -51 100 -80 29 -29 57 -53 62 -53 5 0 16 -11 25 -25 9 -13
29 -31 45 -40 16 -8 43 -38 60 -68 16 -29 47 -66 67 -82 21 -17 45 -38 54 -48
8 -10 66 -70 128 -132 61 -63 112 -123 112 -133 0 -10 4 -22 10 -28 15 -15 52
-124 60 -179 8 -59 -4 -257 -25 -415 -4 -30 -12 -61 -18 -67 -17 -23 -27
-1057 -12 -1336 l8 -148 -42 -39 c-30 -28 -51 -40 -72 -40 -16 0 -46 -7 -67
-16 -20 -8 -77 -24 -127 -35 -49 -10 -104 -26 -120 -35 -29 -15 -34 -15 -77 5
-26 11 -58 21 -72 21 -14 0 -27 4 -30 9 -3 4 -21 11 -39 14 -44 7 -141 75
-197 139 -25 29 -71 80 -102 115 -32 34 -58 66 -58 70 0 22 -162 175 -216 203
-32 17 -63 37 -69 44 -18 22 -97 76 -112 76 -12 0 -73 39 -93 60 -27 27 -116
75 -132 72 -5 -1 -8 2 -8 8 0 5 -6 10 -13 10 -8 0 -22 9 -32 20 -10 11 -22 17
-27 14 -5 -3 -30 7 -56 22 -91 53 -221 114 -244 114 -16 0 -30 10 -42 31 -10
16 -29 34 -43 40 -13 5 -39 20 -56 33 -18 13 -43 27 -57 30 -14 4 -34 11 -45
16 -11 4 -40 13 -65 20 -25 7 -58 23 -73 36 -16 13 -33 24 -38 24 -6 0 -25 11
-42 24 -18 14 -45 28 -62 32 -16 4 -47 18 -67 31 -21 12 -51 23 -66 23 -16 0
-42 6 -58 14 -18 9 -77 17 -157 20 -73 3 -149 12 -175 21 -26 8 -96 27 -157
41 -60 14 -124 32 -142 39 -36 15 -44 42 -15 51 18 5 106 45 155 70 16 8 33
14 38 14 6 0 43 16 83 36 41 19 100 39 134 44 36 5 73 17 91 31 32 23 98 36
196 38 39 1 59 8 89 31 22 17 45 30 51 30 7 0 20 9 30 20 11 12 31 20 50 20
18 0 49 7 68 15 20 8 54 15 75 15 21 0 47 7 58 15 10 8 35 15 55 15 20 0 47 8
60 18 13 11 42 22 64 25 21 4 51 15 66 26 14 11 44 24 66 30 23 6 46 18 53 25
6 8 17 13 25 10 7 -3 36 6 64 20 28 14 65 26 84 26 24 0 41 8 61 29 17 18 41
31 59 33 33 3 33 3 73 103 30 73 56 104 188 220 69 61 186 189 243 267 45 62
160 182 213 222 60 46 128 49 197 9z m1595 -943 c25 0 44 -7 57 -21 12 -13 48
-28 93 -39 67 -16 73 -19 76 -45 3 -19 -4 -36 -21 -54 -34 -35 -61 -147 -52
-209 4 -26 20 -85 36 -132 19 -57 32 -124 39 -200 16 -177 49 -381 70 -425 21
-47 45 -137 55 -213 4 -30 18 -80 31 -113 13 -32 24 -68 24 -79 0 -29 57 -145
108 -220 50 -72 119 -220 128 -271 6 -37 20 -101 36 -166 23 -92 -9 -148 -90
-160 -20 -2 -46 -9 -57 -14 -11 -5 -69 -13 -130 -18 -144 -13 -259 -33 -317
-55 -44 -17 -52 -18 -110 -3 -35 9 -85 19 -113 23 -27 3 -62 13 -77 20 -19 10
-66 14 -152 14 -109 0 -131 3 -168 22 -101 51 -113 68 -80 116 10 15 26 54 35
87 10 33 23 74 29 90 5 17 14 47 19 68 5 21 18 50 28 65 10 15 29 61 41 102
12 41 26 83 32 93 32 64 87 246 99 332 19 138 27 182 41 220 36 97 41 112 49
155 5 25 13 72 18 105 5 33 14 94 21 135 6 41 18 113 27 160 8 47 16 111 18
142 1 32 7 63 12 70 6 7 11 54 11 103 1 50 6 122 12 160 7 39 14 86 17 105 7
45 22 63 47 56 12 -3 38 -6 58 -6z"/>
</g>
</svg>
