<svg width="31" height="33" xmlns="http://www.w3.org/2000/svg" xmlns:xlink="http://www.w3.org/1999/xlink" overflow="hidden"><defs><clipPath id="clip0"><rect x="591" y="359" width="31" height="33"/></clipPath></defs><g clip-path="url(#clip0)" transform="translate(-591 -359)"><path d="M19.0529 19.1021C19.1359 19.1021 19.124 17.9583 19.0351 17.3333 18.8929 16.337 18.5344 15.5351 18.0485 15.1401 17.8145 14.9485 16.9938 14.4798 16.2561 14.1143L15.5391 13.7576 15.545 10.6476 15.5539 7.53765 15.9539 7.46984C16.8486 7.3195 17.6219 7.07483 18.3833 6.69455 18.81 6.48232 19.0974 6.30545 19.7166 5.87211 20.875 5.06146 21.5268 4.69298 22.0127 4.56916 22.2616 4.5043 22.9312 4.45715 23.0763 4.49253L23.1534 4.5102 23.1504 7.85012 23.1504 11.1871 22.4186 11.5467C21.1328 12.1776 20.561 12.5578 20.2795 12.9705 19.8292 13.6308 19.6336 14.4327 19.6069 15.7503 19.5921 16.4254 19.5951 16.5079 19.6366 16.5079 19.7936 16.5079 20.8276 16.1159 21.3905 15.8417 22.6527 15.2315 23.5178 14.4975 23.9237 13.6927 24.1014 13.342 24.1637 13.1002 24.1814 12.6846L24.1992 12.322 24.3651 12.322 24.531 12.322 24.6584 12.5991C25.091 13.5277 26.1843 14.3943 27.7664 15.0576 28.2137 15.2433 28.9544 15.4939 28.9811 15.4644 29.0137 15.432 29.0018 14.241 28.9633 13.9286 28.8241 12.7936 28.51 12.0243 28.0034 11.5674 27.7219 11.3138 26.7116 10.7302 25.8584 10.3293L25.4347 10.1317 25.4347 7.3077 25.4347 4.48367 25.651 4.37755C26.3472 4.03854 26.8716 3.33696 27.2064 2.29638 27.402 1.68911 27.5205 1.0347 27.556 0.362584L27.5768 0 14.6118 0 1.64674 0 1.61119 0.126755C1.45713 0.69569 1.38898 1.39434 1.43639 1.9161 1.55787 3.222 2.19486 4.1889 3.27626 4.70772L3.56957 4.84921 3.56957 7.48753 3.56957 10.1259 3.07479 10.3617C2.26004 10.7508 1.43639 11.2136 1.06307 11.4995 0.778651 11.7177 0.488302 12.154 0.313502 12.6374 0.209811 12.9145 0.0912881 13.4392 0.0379654 13.8401-0.000544307 14.1497-0.0153572 15.4261 0.0201977 15.4644 0.0498236 15.4909 0.846806 15.2168 1.28826 15.0281 2.35187 14.5741 3.33254 13.9286 3.82141 13.3655 4.0436 13.1061 4.2836 12.7406 4.37841 12.5136L4.45247 12.3367 4.61839 12.3279 4.78431 12.319 4.78431 12.5225C4.78431 13.2889 5.09242 13.9374 5.77386 14.6095 6.23012 15.0576 6.81675 15.4555 7.55448 15.8152 8.26257 16.1601 9.31139 16.5551 9.36769 16.4961 9.41212 16.4519 9.38841 15.2138 9.33509 14.8277 9.19287 13.79 8.87586 13.0354 8.40181 12.6079 8.12925 12.3662 7.21672 11.8415 6.33381 11.42L5.82127 11.1723 5.82127 8.15079 5.82127 5.12926 5.92199 5.12926C5.97533 5.12926 6.19161 5.144 6.40197 5.15874 7.58411 5.25011 8.76625 5.50362 9.79728 5.8839 10.2684 6.05782 11.1394 6.48232 11.5571 6.74763 12.1497 7.11609 12.5052 7.26644 13.163 7.42858L13.2874 7.461 13.2874 10.0816 13.2874 12.7023 12.6593 13.0118C11.5809 13.5395 10.8431 13.9875 10.5765 14.2735 10.1854 14.695 9.91283 15.3524 9.77356 16.2279 9.72024 16.5698 9.67876 17.9996 9.72322 18.0438 9.73803 18.0585 9.89802 18.0202 10.1321 17.9406 11.1275 17.6104 12.049 17.1535 12.76 16.6406 13.32 16.2367 13.9155 15.5469 14.0903 15.0959L14.1614 14.9161 14.3303 14.9161 14.5021 14.9161 14.5021 15.149C14.5021 15.5617 14.6147 15.9891 14.8162 16.3576 15.3821 17.3834 16.7598 18.3327 18.6055 18.9606 18.8337 19.0372 19.0351 19.1021 19.0529 19.1021ZM0.116054 19.4636C0.127912 19.4636 0.281971 19.4164 0.459726 19.3575 1.89963 18.8858 3.25953 18.0869 3.91133 17.3382 4.26984 16.9225 4.4861 16.5246 4.58981 16.0942 4.64314 15.876 4.64907 15.7463 4.64907 14.7853 4.64907 14.1958 4.63721 13.7153 4.62239 13.7153 4.575 13.7153 3.88171 14.0071 3.36915 14.2459 2.80326 14.5082 2.22554 14.8089 1.64186 15.1538 1.15597 15.4398 0.824159 15.7552 0.613804 16.1296 0.347151 16.6071 0.154564 17.3293 0.0864282 18.1223 0.0538281 18.5173 0.0479185 19.1835 0.0745701 19.3545 0.0864282 19.4135 0.104196 19.4636 0.116054 19.4636ZM28.8824 19.4637C28.9298 19.4637 28.9328 18.3582 28.8854 17.9367 28.8172 17.3117 28.6454 16.6514 28.4528 16.2653 28.3195 16.0029 28.1092 15.717 27.9344 15.5607 27.5107 15.1775 25.5227 14.1399 24.4028 13.7183L24.3228 13.6859 24.3316 14.812C24.3435 15.8673 24.3494 15.9557 24.4087 16.1533 24.5568 16.6426 24.8087 17.0553 25.2234 17.4798 25.9404 18.2197 27.1522 18.9065 28.5476 19.3635 28.7106 19.4165 28.8617 19.4607 28.8824 19.4637ZM9.36697 20.4849C9.44103 20.4879 9.46177 20.2403 9.44103 19.6183 9.39659 18.3802 9.17142 17.5341 8.72109 16.9033 8.48704 16.5702 8.24113 16.3933 7.33452 15.8892 6.67679 15.5237 5.24874 14.8604 4.89618 14.7543L4.82803 14.7366 4.82803 15.6593C4.82803 16.697 4.85172 16.9682 4.97913 17.3425 5.37317 18.5217 6.76864 19.5917 8.87219 20.3287 9.1181 20.4142 9.3403 20.4849 9.36697 20.4849ZM19.5544 20.4937 19.664 20.4731C19.7262 20.4613 19.9633 20.3876 20.1914 20.3051 21.8417 19.7155 23.1008 18.8813 23.6963 17.9851 23.7971 17.8318 23.9215 17.6019 23.9719 17.4722 24.1319 17.0595 24.1467 16.9033 24.1467 15.7683 24.1467 15.2024 24.1408 14.7395 24.1348 14.7395 24.1259 14.7395 23.9097 14.825 23.6519 14.9311 22.6535 15.3438 21.0299 16.1958 20.6358 16.5171 20.0699 16.977 19.7055 17.8436 19.587 19.011 19.5692 19.179 19.5544 19.5799 19.5544 19.9042ZM9.75871 22.0391C9.80908 22.0391 10.6801 21.7295 10.9616 21.6116 12.5378 20.9484 13.6458 20.064 14.0843 19.1148 14.2858 18.6815 14.2888 18.6638 14.3006 17.4021L14.3125 16.2613 14.1555 16.3232C12.7955 16.8538 10.9764 17.8266 10.612 18.2187 10.2091 18.652 9.93353 19.327 9.79131 20.2114 9.74094 20.5239 9.69058 21.9005 9.72613 21.9919 9.73799 22.0184 9.74983 22.0391 9.75871 22.0391ZM19.0422 23.0632C19.0985 23.0632 19.1193 22.4501 19.0837 21.9195 18.9919 20.6224 18.6897 19.7469 18.1505 19.2163 17.7446 18.8183 16.2691 18.0254 14.8914 17.4594 14.6988 17.3798 14.527 17.3149 14.5122 17.3149 14.4944 17.3149 14.4885 17.7335 14.4944 18.4292 14.5092 19.6496 14.5152 19.7056 14.7226 20.1567 15.2114 21.2326 16.6483 22.2585 18.5919 22.9217 18.8201 22.9984 19.0215 23.0632 19.0422 23.0632ZM28.8706 23.3823C28.9239 23.3853 28.9239 23.3558 28.9091 22.613 28.8973 22.0145 28.8795 21.7551 28.8321 21.4839 28.6691 20.5465 28.3966 19.9304 27.9551 19.5089 27.5611 19.1315 26.0027 18.3002 24.6724 17.7519L24.3228 17.6075 24.3316 18.7513 24.3435 19.8921 24.4383 20.1721C24.6013 20.6556 24.859 21.0535 25.2886 21.478 25.9671 22.1501 27.0544 22.7662 28.3699 23.2261 28.6158 23.3116 28.838 23.3823 28.8706 23.3823ZM0.124821 23.3853C0.20186 23.3853 0.989959 23.1023 1.40179 22.9254 3.18239 22.1649 4.28749 21.1656 4.59265 20.0395 4.65192 19.8213 4.65783 19.7152 4.67267 18.7041L4.6845 17.6046 4.52749 17.6665C3.22683 18.1735 1.48769 19.0932 1.04328 19.503 0.696636 19.8272 0.427029 20.3343 0.264086 20.9798 0.115937 21.5665 0.0270599 22.5275 0.0714987 23.0994 0.0833568 23.2762 0.104099 23.3853 0.124821 23.3853ZM9.36699 24.4066C9.40254 24.4095 9.42328 24.3771 9.4381 24.3004 9.46475 24.1589 9.42921 23.0447 9.39068 22.744 9.25144 21.7152 8.92258 20.9428 8.44557 20.5124 8.07225 20.1764 6.62644 19.3982 5.49467 18.9206 5.20136 18.7968 4.92878 18.6877 4.89027 18.6759L4.82212 18.6553 4.83693 19.7401C4.84879 20.7306 4.85472 20.8485 4.91397 21.0637 4.99101 21.3555 5.17172 21.7358 5.35245 21.9893 5.98649 22.8825 7.31083 23.7197 8.99071 24.2945 9.17144 24.3564 9.34032 24.4066 9.36699 24.4066ZM19.5959 24.4095C19.6641 24.4095 20.0966 24.268 20.4581 24.1294 22.449 23.363 23.7023 22.3224 24.0608 21.1344 24.123 20.9281 24.1289 20.8514 24.1408 19.7902 24.1467 19.1682 24.1437 18.6612 24.1319 18.6612 24.12 18.6612 23.8712 18.7643 23.5749 18.8882 22.529 19.3274 20.9469 20.1646 20.5973 20.4623 20.4018 20.6274 20.2003 20.8956 20.0522 21.1845 19.6789 21.9126 19.5307 22.7675 19.5515 24.1235 19.5544 24.3505 19.5633 24.4095 19.5959 24.4095ZM9.76167 25.9606C9.80315 25.9606 10.2594 25.8074 10.6061 25.6747 12.3304 25.0203 13.5362 24.1271 14.0428 23.1307 14.2917 22.6414 14.2917 22.6384 14.3036 21.3414L14.3125 20.1829 14.2295 20.2153C13.2636 20.5808 11.4179 21.5212 10.8312 21.9457 10.5172 22.1756 10.1972 22.6679 10.0165 23.2074 9.90091 23.5523 9.78834 24.1212 9.74983 24.5663 9.71427 24.9584 9.70537 25.7219 9.73502 25.8693 9.74685 25.9194 9.75871 25.9606 9.76167 25.9606ZM19.0422 26.9849C19.1311 26.9878 19.1252 25.9796 19.0333 25.284 18.9 24.2611 18.5771 23.5035 18.0882 23.0731 17.7801 22.7989 16.6039 22.1416 15.6439 21.7053 15.1877 21.4989 14.5537 21.2365 14.5122 21.2365 14.4944 21.2365 14.4885 21.6493 14.4974 22.3361 14.5062 23.2293 14.5181 23.4681 14.5596 23.6184 14.9033 24.9331 16.432 26.1359 18.7104 26.8846 18.8733 26.9377 19.0215 26.9819 19.0422 26.9849ZM4.38189 28.4539 4.46781 28.3713C4.61003 28.2387 5.04555 27.6904 5.25886 27.375 5.92549 26.3845 6.21584 25.4707 6.0914 24.7543 6.02622 24.3918 5.65292 23.4396 5.19961 22.4845 4.98926 22.0364 4.48855 21.1137 4.45893 21.1137 4.45004 21.1137 4.15079 21.4704 3.79824 21.9067 2.9657 22.9414 2.84127 23.1831 2.77016 23.9319 2.66646 25.0373 3.1642 26.5407 4.14488 28.0766ZM24.5899 28.4539C24.6136 28.4539 25.0076 27.8378 25.2031 27.4871 25.9201 26.2165 26.2727 25.0315 26.2253 24.0469 26.1868 23.2569 26.0505 22.971 25.1824 21.895 24.8298 21.4587 24.5365 21.0961 24.5336 21.0932 24.5306 21.0873 24.4299 21.2612 24.3114 21.4764 23.6122 22.7499 22.9574 24.3034 22.8892 24.8517 22.7767 25.7478 23.2744 26.8975 24.3173 28.1415 24.4595 28.3124 24.5839 28.4539 24.5899 28.4539ZM14.0572 31C14.0986 31 14.5342 30.4782 14.7682 30.1451 15.4822 29.1399 15.817 28.2674 15.7667 27.5363 15.7459 27.2238 15.5711 26.6844 15.2541 25.9415 15.0378 25.4286 14.5134 24.3614 14.2705 23.9311L14.1164 23.6599 14.0483 23.7395C13.6009 24.273 12.8187 25.2753 12.7387 25.4168 12.6173 25.632 12.5076 25.9327 12.4573 26.195 12.401 26.4721 12.4099 27.1825 12.4721 27.5215 12.6469 28.4914 13.1239 29.6116 13.8113 30.6699 13.9298 30.8497 14.0424 31 14.0572 31Z" fill-rule="evenodd" transform="matrix(1 0 0 -1 592 391)"/></g></svg>