<svg width="36" height="32" xmlns="http://www.w3.org/2000/svg" xmlns:xlink="http://www.w3.org/1999/xlink" overflow="hidden"><defs><clipPath id="clip0"><rect x="68" y="360" width="36" height="32"/></clipPath></defs><g clip-path="url(#clip0)" transform="translate(-68 -360)"><path d="M19.3177 24.4338C19.3677 24.3668 19.5357 24.2999 19.6072 24.321 19.6501 24.3316 19.6822 24.3245 19.6822 24.3069 19.6822 24.2893 19.7108 24.2646 19.7465 24.254 19.9431 24.1905 20.2791 24.0389 20.3398 23.986 20.7079 23.6722 20.8223 23.5523 20.976 23.3267 21.1368 23.0975 21.3048 22.7202 21.4049 22.3817 21.4228 22.3182 21.4478 22.2653 21.4656 22.2653 21.4799 22.2653 21.4871 22.2159 21.4764 22.1595 21.4692 22.0996 21.4799 22.0291 21.5049 22.0009 21.5764 21.9162 21.5729 20.0298 21.4978 19.9875 21.4835 19.9769 21.4692 19.9311 21.4692 19.8817 21.4692 19.7265 21.2298 19.0107 21.0689 18.6863 20.9009 18.3408 20.615 17.9459 20.5293 17.9318 20.2576 17.8965 20.0754 17.9141 19.9789 17.9847 19.768 18.1398 19.7573 18.1962 19.7465 19.039 19.7394 19.5784 19.7251 19.8112 19.6965 19.8217 19.6679 19.8323 19.6608 19.8852 19.6715 19.9734 19.6822 20.0509 19.6751 20.1144 19.6572 20.1144 19.6393 20.1144 19.6251 20.1673 19.6251 20.2308 19.6215 20.3295 19.5178 20.5869 19.382 20.809 19.3034 20.9466 19.2105 21.0312 19.139 21.0312 19.1032 21.0312 19.0747 21.0488 19.0747 21.07 19.0747 21.0876 19.0139 21.1299 18.9424 21.1616 18.7887 21.2251 18.2062 21.211 18.1347 21.1405 18.1133 21.1193 18.0668 21.1017 18.031 21.1017 17.9953 21.1017 17.9667 21.0841 17.9667 21.0629 17.9667 21.0417 17.9345 21.0347 17.8952 21.0488 17.8559 21.0629 17.8238 21.0559 17.8238 21.0347 17.8238 21.0135 17.7988 20.9959 17.7701 20.9959 17.6844 20.9959 17.3234 20.8267 17.3234 20.7843 17.3234 20.7632 17.3091 20.7526 17.2912 20.7632 17.2555 20.7843 16.8481 20.5798 16.8302 20.534 16.823 20.5164 16.8052 20.5023 16.7873 20.5023 16.7694 20.5023 16.7123 20.4846 16.6586 20.467 16.5872 20.4388 16.5729 20.4176 16.6015 20.3894 16.6372 20.3542 17.1268 20.1708 17.3163 20.125 17.3592 20.1144 17.3949 20.0932 17.3949 20.0756 17.3949 20.058 17.4092 20.0439 17.4306 20.0439 17.4878 20.0439 17.7952 19.8006 17.906 19.6701 17.9632 19.6031 18.031 19.5502 18.0597 19.5502 18.0882 19.5502 18.1097 19.5291 18.1097 19.5044 18.1097 19.4762 18.1597 19.3598 18.2169 19.2399 18.2776 19.12 18.3241 18.9966 18.3241 18.9684 18.3241 18.9437 18.342 18.9085 18.3599 18.8979 18.3813 18.8873 18.3956 18.8309 18.3956 18.7745 18.3956 18.7181 18.4099 18.6652 18.4242 18.6546 18.4742 18.6264 18.4778 17.6497 18.4313 17.5897 18.4063 17.565 18.3956 17.4875 18.4028 17.4205 18.4099 17.3535 18.4063 17.3041 18.3956 17.3112 18.3813 17.3182 18.342 17.2265 18.3063 17.1066 18.0382 16.1934 17.5271 15.0721 17.0554 14.3493 16.991 14.2541 16.9195 14.1307 16.891 14.0813 16.8624 14.0284 16.7587 13.8697 16.6586 13.7287 15.9868 12.7731 15.0325 11.8105 14.2141 11.2675 14.0854 11.1829 13.9782 11.0982 13.971 11.0806 13.9639 11.0665 13.9424 11.0524 13.921 11.0524 13.8602 11.0524 13.392 10.7632 13.392 10.728 13.392 10.7068 13.3599 10.6998 13.3206 10.7104 13.2741 10.7209 13.2455 10.7068 13.2276 10.6575 13.2134 10.6081 13.1955 10.5975 13.1812 10.6257 13.149 10.6716 12.8917 10.5834 12.8917 10.5235 12.8917 10.5058 12.8667 10.4988 12.8381 10.5094 12.8095 10.5235 12.7773 10.5058 12.763 10.4776 12.7523 10.4459 12.7201 10.4318 12.688 10.4424 12.6594 10.453 12.6236 10.4494 12.6094 10.4318 12.5915 10.4001 12.1983 10.3084 11.8374 10.2449 11.7587 10.2308 11.6587 10.1956 11.6158 10.1674 11.555 10.1321 11.5157 10.1285 11.4728 10.1532 11.4049 10.192 11.1547 10.1956 11.119 10.1603 11.1047 10.1462 11.0618 10.1603 11.0189 10.1885 10.9796 10.2167 10.9046 10.2414 10.8545 10.2414 10.8045 10.2414 10.6758 10.2731 10.5686 10.3155 10.4614 10.3542 10.3256 10.4036 10.2648 10.4248 10.2076 10.4459 10.1505 10.4741 10.1397 10.4882 10.129 10.4988 10.0575 10.5482 9.9789 10.594 9.44638 10.9113 8.96033 11.5601 8.74588 12.2301 8.69584 12.3817 8.63867 12.5122 8.61721 12.5228 8.59219 12.5298 8.58506 12.6039 8.59578 12.7096 8.6065 12.8154 8.59935 12.8859 8.57791 12.8859 8.52787 12.8859 8.52787 14.3704 8.57432 14.4304 8.59578 14.4551 8.60293 14.5362 8.58863 14.6208 8.57432 14.7125 8.57791 14.7759 8.60293 14.79 8.62437 14.8041 8.65654 14.8676 8.67441 14.9346 8.7566 15.2555 8.9067 15.7421 8.96746 15.8831 9.00679 15.9713 9.07111 16.1299 9.114 16.2357 9.21409 16.479 9.36419 16.5883 9.6072 16.5883 9.82521 16.5883 10.054 16.472 10.1004 16.3344 10.1219 16.2816 10.154 16.2357 10.1719 16.2357 10.2219 16.2357 10.2255 15.7526 10.1755 15.7244 10.129 15.6962 10.129 15.0827 10.1755 15.0545 10.1969 15.0404 10.2041 14.9804 10.1898 14.9099 10.1612 14.7477 10.2291 14.4868 10.3792 14.2012 10.5007 13.9614 10.6544 13.7851 10.7116 13.8204 10.7259 13.8309 10.7652 13.7992 10.7974 13.7534 10.8903 13.6088 11.1655 13.5453 11.5657 13.5665 11.9589 13.5876 12.1519 13.637 12.252 13.7357 12.2913 13.7745 12.3377 13.7957 12.3556 13.7851 12.3949 13.7604 12.6058 13.8627 12.6058 13.905 12.6058 13.9191 12.6487 13.9508 12.6987 13.972 12.7487 13.9967 12.7773 14.0319 12.7666 14.0531 12.7523 14.0742 12.7666 14.0848 12.8059 14.0778 12.8488 14.0707 12.8738 14.0883 12.8738 14.1201 12.8738 14.1589 12.8023 14.1835 12.6058 14.2118 12.4592 14.2329 12.2448 14.2788 12.134 14.3105 12.0196 14.3457 11.9124 14.3634 11.891 14.3493 11.8731 14.3387 11.8552 14.3493 11.8552 14.3775 11.8552 14.4057 11.8088 14.448 11.7516 14.4727 11.6944 14.4938 11.6122 14.5502 11.5657 14.5996 11.5228 14.6455 11.4657 14.6843 11.4407 14.6843 11.4156 14.6843 11.3727 14.7195 11.3513 14.7654 11.3263 14.8076 11.2655 14.8923 11.2083 14.9557 10.9796 15.2167 10.7437 15.9572 10.7437 16.412 10.7473 16.8704 10.9617 17.8436 11.1547 18.2632 11.2012 18.3619 11.2512 18.4783 11.2655 18.5277 11.2941 18.6123 11.3942 18.8062 11.6301 19.2329 11.7623 19.4656 11.966 19.7724 12.0983 19.9311 12.1519 19.9945 12.2198 20.0897 12.2484 20.1426 12.3199 20.2731 12.5736 20.594 12.738 20.7667 12.8131 20.8443 12.9453 20.9959 13.0346 21.1017 13.1204 21.2075 13.3956 21.4931 13.6458 21.7364 13.8924 21.9797 14.1068 22.2054 14.1176 22.2371 14.1319 22.2724 14.1604 22.29 14.189 22.2794 14.2176 22.2688 14.2998 22.3288 14.3856 22.4204 14.4678 22.5086 14.5357 22.5721 14.5357 22.5615 14.5357 22.5403 14.7037 22.6567 14.8038 22.7484 14.8895 22.8295 15.4578 23.1927 15.5436 23.2279 15.5793 23.2385 15.6973 23.3055 15.8045 23.376 15.9153 23.443 16.0118 23.4994 16.0261 23.4994 16.0368 23.4994 16.1547 23.5594 16.287 23.6334 16.4156 23.711 16.5693 23.7815 16.6265 23.7956 16.6837 23.8097 16.798 23.852 16.8838 23.8908 16.966 23.9261 17.0482 23.9578 17.0661 23.9578 17.084 23.9578 17.1376 23.9966 17.1876 24.0425 17.2948 24.1376 17.3949 24.1835 17.3949 24.1341 17.3949 24.113 17.4199 24.0989 17.4485 24.0989 17.4771 24.0989 17.5021 24.1165 17.5021 24.1376 17.5021 24.1588 17.5235 24.1694 17.5522 24.1588 17.6093 24.1376 18.0739 24.2717 18.0739 24.3104 18.0739 24.3245 18.1133 24.3281 18.1633 24.3175 18.2133 24.3104 18.2776 24.321 18.3063 24.3457 18.342 24.3739 18.5064 24.388 18.8245 24.3845 19.1819 24.381 19.2891 24.388 19.2891 24.4233 19.2891 24.4515 19.2998 24.455 19.3177 24.4338ZM26.8375 29.9997C27.2498 29.997 27.6609 29.9794 27.8878 29.9476 28.113 29.9159 28.3846 29.8877 28.4846 29.8842 28.5883 29.8807 28.6919 29.8595 28.717 29.8348 28.7384 29.8137 28.7849 29.7925 28.817 29.7925 28.8456 29.7925 28.96 29.7608 29.0672 29.7184 29.1744 29.6797 29.3067 29.6444 29.3603 29.6444 29.4139 29.6409 29.4604 29.6268 29.4604 29.6091 29.4604 29.5633 29.5676 29.5774 29.5676 29.6268 29.5676 29.6515 29.5962 29.6373 29.6319 29.5986 29.6641 29.5563 29.732 29.5069 29.782 29.4857 29.832 29.4646 29.9786 29.3976 30.1144 29.3376 30.2466 29.2812 30.3538 29.2389 30.3538 29.2495 30.3538 29.26 30.3789 29.246 30.4074 29.2178 30.436 29.1895 30.5754 29.1014 30.7184 29.0238 31.0758 28.8263 31.6655 28.3962 31.8871 28.1705 31.9514 28.1035 32.0193 28.0506 32.0372 28.0577 32.055 28.0612 32.0693 28.0436 32.0693 28.0224 32.0693 27.9977 32.1766 27.8743 32.3052 27.7544 32.4339 27.631 32.634 27.4089 32.7484 27.2608 32.8663 27.1091 33.0093 26.9364 33.07 26.8729 33.1272 26.8059 33.1773 26.746 33.1773 26.7354 33.1773 26.7248 33.2595 26.5908 33.356 26.4392 33.4561 26.2876 33.5347 26.1571 33.5347 26.1465 33.5347 26.136 33.5883 26.0513 33.6562 25.9596 33.7205 25.8645 33.7884 25.7516 33.8027 25.7022 33.817 25.6529 33.8742 25.5259 33.9278 25.4202 34.0779 25.1169 34.3746 24.3482 34.4996 23.9216 34.5604 23.71 34.6247 23.509 34.6354 23.4808 34.6462 23.4526 34.6605 23.3962 34.6641 23.3574 34.6819 23.1987 34.7462 22.8602 34.7641 22.8109 34.782 22.758 34.8499 22.2573 34.95 21.4533 34.975 21.2206 35 20.734 35 20.3673 35 19.6833 34.9607 19.2813 34.7606 17.8744 34.7498 17.7862 34.7391 17.6487 34.7355 17.5676 34.7355 17.483 34.7212 17.416 34.7069 17.416 34.6891 17.416 34.6783 17.3596 34.6783 17.2926 34.6783 17.2256 34.6641 17.1409 34.6426 17.1057 34.5961 17.0211 34.3924 16.1889 34.3924 16.0761 34.3924 16.0267 34.3781 15.9703 34.3603 15.9527 34.3317 15.9209 34.2137 15.5612 34.0636 15.0359 34.0422 14.9583 34.01 14.8807 33.9993 14.8596 33.96 14.8032 33.7848 14.2672 33.7848 14.2002 33.7848 14.1685 33.7706 14.1367 33.7563 14.1297 33.7277 14.1191 33.5347 13.7101 33.5347 13.6607 33.5347 13.6466 33.4632 13.4844 33.3738 13.301 33.2845 13.1177 33.213 12.9626 33.213 12.952 33.213 12.9132 32.752 12.0281 32.6483 11.8659 32.584 11.7672 32.534 11.679 32.534 11.6614 32.534 11.6473 32.4267 11.471 32.2945 11.2736 31.9979 10.8257 31.9728 10.787 31.93 10.6918 31.9121 10.653 31.8764 10.6071 31.8585 10.593 31.837 10.5824 31.7513 10.4731 31.6691 10.3533 31.5869 10.2334 31.4796 10.0853 31.4296 10.0253 30.9328 9.42941 30.4825 8.94633 30.2037 8.70656 30.0822 8.60078 29.9285 8.46679 29.8678 8.40684 29.807 8.35044 29.7284 8.3046 29.6962 8.31166 29.6641 8.31869 29.614 8.30812 29.5926 8.28697 29.5604 8.26228 29.5068 8.26582 29.421 8.29403 29.2173 8.36455 29.1137 8.44916 29.0458 8.60078 29.01 8.67836 28.9707 8.74182 28.9529 8.74182 28.9385 8.74182 28.9243 8.78062 28.9243 8.82998 28.9243 8.87935 28.935 8.91813 28.9529 8.91813 28.9671 8.91813 29.0422 9.0486 29.1208 9.21079 29.1994 9.36947 29.3067 9.57046 29.3603 9.65509 29.4175 9.74325 29.4604 9.83492 29.4604 9.86312 29.4604 9.89132 29.4961 9.95833 29.5354 10.0183 29.6069 10.1135 29.8928 10.727 30.0215 11.0514 30.05 11.129 30.1251 11.2947 30.1823 11.4146 30.2395 11.538 30.3324 11.7602 30.3896 11.9082 30.4468 12.0599 30.5325 12.2891 30.5826 12.4195 30.6326 12.55 30.6755 12.7052 30.6755 12.7616 30.6755 12.8215 30.6898 12.8673 30.7077 12.8673 30.7934 12.8673 31.3367 14.8208 31.2974 14.9936 31.2867 15.0464 31.2938 15.0888 31.3117 15.0888 31.3903 15.0888 31.5547 16.129 31.5904 16.8694 31.6619 18.2375 31.5797 19.3095 31.3545 20.0782 31.3367 20.1381 31.2867 20.3038 31.2438 20.4484 31.2009 20.593 31.1401 20.7763 31.1044 20.8539 31.0686 20.9315 31.0079 21.076 30.9686 21.1712 30.8792 21.3899 30.797 21.4181 30.7613 21.2453 30.7505 21.1748 30.7505 21.076 30.7613 21.0267 30.7792 20.9667 30.772 20.9456 30.747 20.9597 30.7077 20.9844 30.6969 20.8962 30.7077 20.7058 30.7148 20.6423 30.7005 20.5894 30.6827 20.5894 30.6648 20.5894 30.6398 20.5365 30.6326 20.4766 30.6219 20.4131 30.5611 20.1134 30.4968 19.8137 30.4289 19.514 30.3753 19.2213 30.3753 19.1614 30.3717 19.105 30.3538 19.038 30.3324 19.0133 30.311 18.9921 30.2573 18.8334 30.2145 18.6607 30.168 18.4914 30.118 18.3081 30.0965 18.2552 30.0787 18.2058 30.0715 18.1318 30.0822 18.093 30.0965 18.0472 30.0858 18.0154 30.05 18.0013 30.0215 17.9907 29.9964 17.9625 29.9964 17.9378 29.9964 17.892 29.6962 16.9576 29.639 16.8342 29.6212 16.7954 29.589 16.7002 29.564 16.6226 29.5425 16.545 29.5104 16.4675 29.4925 16.4463 29.4747 16.4287 29.4604 16.3864 29.4604 16.3511 29.4604 16.3158 29.4389 16.2488 29.4103 16.2065 29.3817 16.1642 29.2995 15.9703 29.228 15.7764 29.153 15.5824 29.0386 15.3109 28.9743 15.1699 28.9064 15.0324 28.8528 14.8948 28.8528 14.8631 28.8528 14.8314 28.8385 14.8067 28.8242 14.8067 28.8099 14.8067 28.7634 14.7326 28.7277 14.6409 28.6884 14.5458 28.5311 14.2249 28.3739 13.9252 27.9486 13.1071 27.8592 12.9414 27.7055 12.691 27.6305 12.5641 27.509 12.3596 27.4375 12.2326 27.366 12.1057 27.198 11.8483 27.0694 11.6579 26.9407 11.464 26.8192 11.2841 26.7978 11.2524 26.7799 11.2171 26.7048 11.1149 26.6369 11.0197 26.569 10.9245 26.4546 10.7552 26.3796 10.6494 26.1509 10.3145 26.1258 10.2792 26.0436 10.1875 26.0007 10.1382 25.9114 10.0253 25.8435 9.93364 25.7792 9.84197 25.6291 9.64804 25.5111 9.49994 25.3932 9.35184 25.2609 9.18613 25.2216 9.12969 25.1537 9.03803 24.9 8.75594 24.4318 8.24819 24.346 8.1565 24.2781 8.0754 24.2781 8.06835 24.2781 8.05072 22.6627 6.44988 22.6412 6.44988 22.5912 6.44988 22.098 5.96682 22.098 5.91393 22.098 5.87513 22.0765 5.85398 22.0336 5.86104 21.9693 5.86807 21.7692 5.71999 21.4833 5.45554 21.4046 5.38147 21.326 5.32155 21.3081 5.32155 21.2938 5.32155 21.2581 5.29332 21.2331 5.25454 21.2081 5.21928 21.1723 5.18754 21.158 5.18754 21.1259 5.18402 20.8507 4.97951 20.6112 4.78558 20.5219 4.71154 20.4397 4.65159 20.4254 4.65159 20.4111 4.65159 20.3539 4.60927 20.2931 4.5599 20.2359 4.51054 20.0715 4.39065 19.9286 4.29546 19.7892 4.20025 19.6605 4.09093 19.6498 4.04863 19.6319 3.99574 19.6141 3.98515 19.5962 4.01337 19.5783 4.04158 19.5104 4.00983 19.3782 3.90405 19.271 3.82295 19.1781 3.75597 19.1673 3.75949 19.153 3.76301 18.6134 3.43508 17.945 3.00843 17.8128 2.9238 17.6877 2.85328 17.6734 2.85328 17.6555 2.85328 17.5412 2.78981 17.4197 2.71225 17.2981 2.63468 17.1838 2.57121 17.1659 2.57121 17.1445 2.57121 17.1302 2.55358 17.1302 2.53241 17.1302 2.51478 17.1159 2.50421 17.1016 2.51478 17.0837 2.52535 17.0122 2.49363 16.9407 2.4478 16.8693 2.39842 16.7942 2.35964 16.7763 2.35964 16.7549 2.35964 16.737 2.34553 16.737 2.32438 16.737 2.30675 16.712 2.28912 16.6834 2.28912 16.6548 2.28912 16.6298 2.27149 16.6298 2.2468 16.6298 2.22566 16.6191 2.21506 16.6084 2.22917 16.5762 2.26092 16.0866 2.01055 16.1116 1.97529 16.1187 1.95766 16.1044 1.93651 16.0794 1.92594 16.0508 1.91534 16.0186 1.9224 16.0079 1.94709 16.0008 1.97177 15.9793 1.95414 15.965 1.90831 15.9508 1.85188 15.9329 1.83779 15.915 1.86599 15.8972 1.89771 15.8221 1.87656 15.6505 1.79193 15.5219 1.72846 15.4146 1.665 15.4146 1.64737 15.4146 1.63328 15.3896 1.61916 15.3575 1.61916 15.2717 1.61916 14.8678 1.43934 14.8178 1.37939 14.7964 1.35119 14.7606 1.34059 14.7428 1.35119 14.7249 1.36176 14.6463 1.34059 14.5712 1.30533 14.4926 1.27007 14.3711 1.22072 14.2996 1.19251 14.2245 1.16783 14.1638 1.12551 14.1638 1.0973 14.1638 1.06556 14.1388 1.05147 14.0923 1.06556 14.0565 1.07616 14.0065 1.06204 13.9815 1.03384 13.96 1.00563 13.9279 0.995037 13.91 1.00563 13.8743 1.02678 13.6956 0.97389 13.4847 0.885737 13.4168 0.853993 13.3382 0.825789 13.3096 0.822272 13.281 0.815215 13.2488 0.801101 13.2381 0.783471 13.2274 0.76938 13.1845 0.75175 13.1452 0.75175 13.0737 0.744693 12.6234 0.617762 12.5198 0.575444 12.4911 0.561331 12.4375 0.54724 12.4018 0.5437 12.3625 0.540183 12.3232 0.519036 12.3089 0.494349 12.2946 0.473178 12.2553 0.462605 12.2267 0.473178 12.1981 0.483775 12.148 0.473178 12.1195 0.444974 12.0873 0.413253 12.0301 0.399139 11.9729 0.409713 11.9158 0.420287 11.8764 0.413253 11.8764 0.392082 11.8764 0.370935 11.8335 0.353305 11.7799 0.356821 11.6405 0.363878 11.1259 0.243981 11.1259 0.205204 11.1259 0.187573 11.0901 0.180516 11.0437 0.19109 10.9901 0.205204 10.9436 0.19463 10.9115 0.155829 10.8757 0.113534 10.8292 0.106477 10.7113 0.124108 10.6255 0.134681 10.5255 0.134681 10.4933 0.117051 10.4576 0.102937 10.3396 0.0888467 10.2324 0.0817899 10.1252 0.078273 9.89287 0.0571025 9.71418 0.0359552 9.15307-0.0310501 7.64128 0.000694115 7.28746 0.0888467 7.2124 0.106477 7.19453 0.0994204 7.19453 0.0465288 7.19453 0.00775095 7.18023-0.00636272 7.16595 0.0148078 7.09088 0.113534 6.80139 0.187573 6.80139 0.102937 6.80139 0.0606425 6.69774 0.0959036 6.61555 0.162886 6.58338 0.19109 6.52618 0.20872 6.49045 0.201687 6.45471 0.19463 6.41182 0.20872 6.39039 0.229891 6.34034 0.286299 5.78639 0.427343 5.71491 0.399139 5.67559 0.385026 5.63628 0.402656 5.60411 0.441457 5.57909 0.480235 5.54335 0.497866 5.52907 0.483775 5.51477 0.469661 5.48618 0.476718 5.46472 0.504922 5.40396 0.578961 4.92864 0.75175 4.91433 0.702375 4.90718 0.681228 4.87503 0.691801 4.83929 0.730579 4.80712 0.76938 4.66773 0.857533 4.53193 0.931572 4.16023 1.12551 3.6849 1.4076 3.58481 1.49575 3.53479 1.53807 3.39897 1.64031 3.28104 1.72143 3.06303 1.87305 2.39112 2.50772 2.18026 2.75809 2.11591 2.83564 2.0087 2.9626 1.94079 3.04369 1.59054 3.44566 1.08303 4.29898 0.797133 4.96894 0.750656 5.07472 0.686332 5.22986 0.650595 5.31095 0.611269 5.39559 0.582684 5.47317 0.582684 5.48726 0.582684 5.50137 0.525513 5.69531 0.457602 5.92096 0.261021 6.55215 0.207415 6.79192 0.114506 7.44776 0.0894849 7.61701 0.0608995 7.75454 0.0501594 7.75454-0.021316 7.75454-0.0141638 10.1099 0.0573116 10.3286 0.0680282 10.3568 0.0930493 10.5084 0.11807 10.6636 0.214567 11.33 0.346801 11.9259 0.518361 12.4724 0.557663 12.5958 0.579119 12.7334 0.568403 12.7792 0.554098 12.8356 0.561251 12.8638 0.586272 12.8603 0.607705 12.8532 0.750656 13.16 0.904346 13.5373 1.05801 13.9146 1.24029 14.3448 1.3082 14.4893 1.37968 14.6339 1.46189 14.8243 1.49763 14.9125 1.58697 15.1346 2.45544 16.8271 2.60554 17.0669 2.67346 17.1762 2.72706 17.2749 2.72706 17.289 2.72706 17.3031 2.76995 17.3772 2.82356 17.4618 2.96294 17.6699 3.00583 17.7439 3.03442 17.8038 3.04872 17.832 3.12379 17.9484 3.19883 18.0577 3.27389 18.167 3.33465 18.2728 3.33465 18.2904 3.33465 18.3081 3.37039 18.361 3.40969 18.4068 3.45258 18.4526 3.55623 18.5937 3.64201 18.7206 3.96367 19.1896 4.4247 19.7855 4.69275 20.0782 4.96794 20.3744 5.6863 21.0831 5.71491 21.0831 5.72919 21.0831 5.7971 21.136 5.86858 21.1995 6.09018 21.3863 6.19383 21.471 6.2117 21.471 6.2653 21.471 6.47973 21.6367 6.47973 21.6755 6.47973 21.7002 6.49403 21.7107 6.51547 21.7002 6.55836 21.6755 7.01582 21.9188 7.01582 21.9681 7.01582 21.9858 7.07301 21.9999 7.14092 21.9999 7.20884 21.9999 7.26601 21.9823 7.26601 21.9646 7.26601 21.9435 7.29459 21.9188 7.33033 21.9047 7.41611 21.8765 7.65914 21.6402 7.65914 21.5873 7.65914 21.5626 7.67701 21.5415 7.69488 21.5415 7.71634 21.5415 7.73062 21.478 7.73062 21.4004 7.73062 21.3229 7.71634 21.2594 7.69845 21.2594 7.68058 21.2594 7.65199 21.2241 7.63771 21.1818 7.62697 21.136 7.59482 21.076 7.5698 21.0478 7.53047 21.002 7.27672 20.526 6.88358 19.7784 6.82998 19.6691 6.74779 19.5034 6.7049 19.4082 6.57981 19.1296 6.41182 18.7629 6.25815 18.4421 6.18309 18.2799 6.12592 18.1282 6.13663 18.1 6.14735 18.0754 6.12948 18.0472 6.1009 18.0366 6.07231 18.026 6.05085 17.9907 6.05085 17.959 6.05085 17.9273 6.02583 17.8603 5.99725 17.8109 5.7435 17.3701 4.93579 14.7961 4.92864 14.4012 4.92505 14.2954 4.90361 14.2108 4.87503 14.1861 4.83929 14.1579 4.83214 14.1121 4.84644 14.0345 4.86072 13.964 4.85716 13.9287 4.8357 13.9428 4.81427 13.9534 4.79997 13.9498 4.79997 13.9322 4.79997 13.9146 4.76423 13.7101 4.72134 13.4809 4.67488 13.2164 4.6463 12.9167 4.64271 12.6734 4.64271 12.4407 4.62843 12.275 4.60697 12.2608 4.54621 12.2221 4.55337 10.6036 4.61412 10.5331 4.64271 10.4978 4.64986 10.4308 4.63556 10.3356 4.5891 10.0535 4.87859 8.82646 5.10732 8.32223 5.48259 7.49714 5.53263 7.47245 5.4969 8.12124 5.48259 8.43153 5.48618 8.61841 5.50761 8.64664 5.52907 8.66778 5.56122 8.81589 5.58624 8.97102 5.6077 9.12618 5.65056 9.3871 5.67917 9.54577 5.71132 9.70798 5.73993 9.87723 5.7435 9.91955 5.74706 9.96185 5.76493 10.0183 5.77923 10.0394 5.79354 10.0641 5.7971 10.1276 5.78639 10.1734 5.77208 10.2228 5.77567 10.2545 5.79354 10.2439 5.81141 10.2334 5.84715 10.2933 5.86858 10.3744 6.1009 11.1607 6.59768 11.9682 6.94078 12.1163 7.07658 12.1727 7.26601 12.2044 7.26601 12.1656 7.26601 12.1551 7.33748 12.1057 7.42326 12.0634 7.51976 12.0105 7.59839 11.94 7.62341 11.8765 7.64843 11.8201 7.68058 11.7743 7.69488 11.7743 7.70919 11.7743 7.7199 11.5627 7.7199 11.3088 7.7199 10.861 7.76995 10.5472 7.87359 10.3039 7.92361 10.191 7.96294 10.0853 8.00939 9.94422 8.14163 9.54931 8.69558 8.91461 9.08872 8.70656 9.15307 8.67484 9.1745 8.67484 9.19596 8.70656 9.21383 8.73831 9.2317 8.72773 9.24957 8.67484 9.26385 8.62547 9.29246 8.60432 9.3246 8.61489 9.35321 8.62547 9.37465 8.61841 9.37465 8.60078 9.37465 8.53026 9.79996 8.38921 10.0215 8.38921 10.0894 8.38921 10.1609 8.37512 10.1824 8.35749 10.2002 8.33986 10.4826 8.33632 10.8328 8.35044 11.1688 8.36101 11.4476 8.35749 11.4476 8.33986 11.4476 8.32575 11.5155 8.32223 11.6012 8.3328 11.6834 8.34692 11.8228 8.36101 11.9122 8.37158 12.1874 8.39627 12.7413 8.54085 12.7592 8.59021 12.7699 8.61841 12.8092 8.62901 12.8628 8.61489 12.9165 8.60078 12.9486 8.60784 12.9486 8.63604 12.9486 8.66073 12.9701 8.6713 12.9986 8.66073 13.0773 8.62901 13.6634 8.85818 13.6634 8.91813 13.6634 8.93576 13.6991 8.94987 13.7456 8.94282 13.7921 8.9393 13.8207 8.95339 13.8171 8.97808 13.8099 9.00276 13.8314 9.01334 13.86 9.00276 13.9207 8.97808 14.3067 9.14733 14.3067 9.1967 14.3067 9.21785 14.3317 9.22491 14.3603 9.21433 14.3889 9.20022 14.4139 9.20727 14.4139 9.22842 14.4139 9.24605 14.4568 9.27428 14.5069 9.28485 14.6105 9.31306 14.8893 9.47525 14.9071 9.52108 14.9143 9.53871 14.9465 9.55283 14.9786 9.55283 15.0573 9.55283 15.3789 9.75382 15.3789 9.79965 15.3789 9.8208 15.3932 9.8314 15.4111 9.82434 15.4647 9.81023 15.9186 10.1205 15.8972 10.1558 15.8864 10.1734 15.8972 10.177 15.9257 10.1699 15.9793 10.1487 16.2724 10.3427 16.2724 10.3991 16.2724 10.4202 16.2939 10.4344 16.3224 10.4344 16.3475 10.4344 16.4261 10.4767 16.494 10.5331 16.5619 10.586 16.6727 10.6671 16.737 10.7164 17.1659 11.0303 18.3346 12.0528 18.4168 12.1833 18.4454 12.2291 18.4847 12.2679 18.5026 12.2679 18.5776 12.2679 19.7999 13.5655 19.9 13.7524 19.9179 13.7912 19.9464 13.8194 19.9607 13.8194 20.0179 13.8194 20.8828 14.9266 20.8828 15.0041 20.8828 15.0324 20.8971 15.0535 20.915 15.0535 20.9364 15.0535 21.0115 15.1452 21.083 15.258 21.158 15.3673 21.2545 15.5013 21.2938 15.5507 21.3653 15.6388 21.5726 15.9773 21.9622 16.6402 22.0587 16.806 22.1516 16.9646 22.1695 16.9928 22.2231 17.074 22.7056 18.0401 22.7056 18.0648 22.7056 18.0754 22.7484 18.1706 22.7985 18.2728 22.8485 18.3715 22.92 18.5443 22.9629 18.6501 23.0022 18.7559 23.063 18.9075 23.0951 18.9851 23.1952 19.2037 23.3238 19.6057 23.3024 19.6268 23.2881 19.6374 23.3024 19.6656 23.3274 19.6903 23.3917 19.7573 23.6098 20.5083 23.6133 20.6776 23.6169 20.7552 23.6348 20.8363 23.6562 20.8539 23.7027 20.8927 23.8528 21.5062 23.8635 21.7072 23.8707 21.7813 23.8885 21.8694 23.9028 21.9047 23.9171 21.9399 23.9207 22.0281 23.9064 22.1056 23.8921 22.1938 23.8993 22.2467 23.9278 22.2537 23.9493 22.2608 23.9707 22.356 23.9779 22.4618 23.9815 22.564 23.9957 22.6769 24.0065 22.7051 24.0172 22.7333 24.0422 22.9308 24.0637 23.1423 24.103 23.5372 24.0851 23.7946 24.0136 23.8405 23.985 23.8616 23.9886 23.8687 24.0208 23.8687 24.0922 23.8687 24.078 24.0203 23.9493 24.521 23.8635 24.863 23.6491 25.2262 23.3953 25.459 23.1988 25.6423 22.895 25.8433 22.8021 25.8539 22.7592 25.8574 22.7056 25.8821 22.6877 25.9068 22.6662 25.9314 22.5983 25.9526 22.5376 25.9596 22.4732 25.9632 22.4196 25.9843 22.4196 26.0055 22.4196 26.0513 21.9014 26.1748 21.8442 26.1395 21.8228 26.1289 21.7906 26.136 21.7763 26.1571 21.7477 26.2065 20.2395 26.2135 20.2073 26.1677 20.1716 26.1183 20.0608 26.0901 20.0608 26.1289 20.0608 26.1924 19.3996 26.0831 19.3246 26.009 19.3103 25.9949 19.2602 25.9843 19.2102 25.9843 19.1602 25.9843 19.0923 25.9491 19.0565 25.9068 19.0172 25.868 18.9886 25.8503 18.9886 25.8715 18.9886 25.8962 18.9636 25.9138 18.935 25.9138 18.9064 25.9138 18.8814 25.9032 18.8814 25.8891 18.8814 25.8715 18.8278 25.8574 18.7635 25.8539 18.5991 25.8468 18.1309 25.6599 18.1309 25.6035 18.1309 25.5718 18.1059 25.5647 18.0594 25.5788 17.9629 25.6106 17.4947 25.392 17.4661 25.3038 17.4518 25.258 17.4339 25.2474 17.4197 25.2756 17.3803 25.3355 16.8907 25.0781 16.8621 24.9829 16.8514 24.9406 16.8335 24.9265 16.8228 24.9477 16.8049 24.9865 16.3332 24.7714 16.3153 24.7114 16.3082 24.6938 16.2867 24.6903 16.2653 24.7008 16.2474 24.715 16.1902 24.7008 16.1402 24.6762 16.0687 24.6374 16.0401 24.6374 15.9758 24.6762 15.9221 24.7114 15.8972 24.715 15.8864 24.6832 15.8793 24.6621 15.8078 24.7079 15.7292 24.789 15.3932 25.131 15.4111 25.4413 15.7792 25.741 15.8828 25.8257 15.9758 25.9068 15.9793 25.9244 15.9865 25.9385 16.0115 25.9491 16.0365 25.9491 16.0866 25.9491 16.4618 26.2171 16.4797 26.2664 16.4868 26.2876 16.5154 26.3017 16.544 26.3017 16.6155 26.3017 16.8764 26.4886 16.88 26.5379 16.88 26.5626 16.9014 26.5732 16.9264 26.5626 16.9515 26.5556 17.0301 26.5873 17.098 26.6367 17.1623 26.686 17.2481 26.7354 17.2838 26.746 17.316 26.7601 17.3446 26.7812 17.3446 26.7989 17.3446 26.8165 17.3696 26.8306 17.3982 26.8306 17.4268 26.8306 17.4518 26.8447 17.4518 26.8623 17.4518 26.88 17.4947 26.9046 17.5447 26.9152 17.5948 26.9293 17.6734 26.9787 17.7234 27.0245 17.7699 27.0704 17.8449 27.1197 17.8878 27.1303 18.0165 27.1691 18.3203 27.3595 18.3882 27.4406 18.4275 27.49 18.4525 27.5006 18.4525 27.4723 18.4525 27.4406 18.5276 27.4653 18.6777 27.5464 18.7992 27.6134 19.0029 27.7297 19.1316 27.8003 19.2602 27.8708 19.3925 27.9378 19.4282 27.9484 19.4604 27.9589 19.489 27.9907 19.489 28.0189 19.489 28.0541 19.5104 28.0612 19.5604 28.0471 19.6105 28.0295 19.6319 28.04 19.6319 28.0823 19.6319 28.1141 19.6498 28.1282 19.6677 28.1176 19.7141 28.0894 20.0251 28.234 20.0465 28.2939 20.0572 28.3186 20.0966 28.3327 20.1359 28.3221 20.1716 28.3115 20.2038 28.3186 20.2038 28.3362 20.2038 28.3539 20.2252 28.3715 20.2538 28.3715 20.3253 28.3715 20.8113 28.6042 20.8113 28.6395 20.8113 28.6571 20.8256 28.6606 20.8435 28.65 20.8757 28.6289 21.301 28.7876 21.5369 28.911 21.6155 28.9498 21.6977 28.9815 21.7263 28.9815 21.7549 28.9815 21.7763 28.9956 21.7763 29.0168 21.7763 29.0344 21.8121 29.0485 21.8585 29.0485 21.9515 29.045 22.3553 29.1895 22.3875 29.2389 22.4018 29.2565 22.4375 29.2636 22.4697 29.253 22.5054 29.2389 22.5376 29.2495 22.5519 29.2847 22.5626 29.3129 22.5948 29.3306 22.6233 29.32 22.6841 29.2953 23.2488 29.4681 23.281 29.521 23.2952 29.5386 23.3346 29.5457 23.3703 29.5316 23.4096 29.5175 23.4561 29.5351 23.5025 29.5845 23.549 29.6338 23.5812 29.6479 23.5919 29.6233 23.6098 29.5704 23.7063 29.5668 23.7063 29.6197 23.7063 29.6373 23.7206 29.6479 23.7384 29.6373 23.7813 29.6091 24.4568 29.7608 24.4389 29.7925 24.4318 29.8066 24.4604 29.8101 24.5068 29.8031 24.5533 29.7925 24.6141 29.8101 24.6426 29.8419 24.6855 29.8842 24.7427 29.8912 24.8821 29.8736 24.9893 29.863 25.0644 29.8665 25.0644 29.8877 25.0644 29.9053 25.1644 29.923 25.2895 29.9265 25.411 29.9265 25.6326 29.9441 25.7792 29.9618 26.0115 29.99 26.4252 30.0023 26.8375 29.9997Z" fill-rule="evenodd" transform="matrix(1 0 0 -1 68 391)"/></g></svg>