<svg width="34" height="32" xmlns="http://www.w3.org/2000/svg" xmlns:xlink="http://www.w3.org/1999/xlink" overflow="hidden"><defs><clipPath id="clip0"><rect x="326" y="360" width="34" height="32"/></clipPath></defs><g clip-path="url(#clip0)" transform="translate(-326 -360)"><path d="M1.3623 30.1632C1.33672 30.1567 1.20562 30.137 1.07451 30.1141 0.53734 30.0322-0.191694 29.8194-0.396354 29.6851-0.421929 29.6688-0.489065 29.6328-0.546634 29.6033-0.687326 29.528-0.722489 29.4264-0.741686 29.0466-0.754462 28.7617-0.744874 28.6831-0.687326 28.5063-0.549823 28.1002-0.348373 27.8742 0.13765 27.5632 0.38385 27.4093 0.482981 27.3601 0.994579 27.1211 1.13527 27.0556 1.28876 26.9803 1.33672 26.9541 1.38149 26.9279 1.44863 26.905 1.48381 26.905 1.52216 26.905 1.55735 26.8919 1.56693 26.8755 1.6181 26.7903 2.86832 26.4465 3.12413 26.4465 3.38313 26.4465 3.54302 26.3253 3.98427 25.8047 4.09299 25.6737 4.4767 25.1399 4.53105 25.0384 4.55663 24.9958 4.62379 24.8878 4.68133 24.8026 4.73569 24.7175 4.78365 24.6389 4.78365 24.6291 4.78365 24.6193 4.82203 24.5505 4.86999 24.4719 5.01708 24.2361 5.64698 22.9164 5.64698 22.8477 5.64698 22.828 5.67577 22.756 5.71095 22.6905 5.74611 22.6217 5.7749 22.5497 5.7749 22.5267 5.7749 22.5006 5.79088 22.458 5.80687 22.4252 5.85483 22.3434 6.09465 21.7048 6.09465 21.6622 6.09465 21.6426 6.11704 21.5869 6.14261 21.5411 6.16819 21.492 6.22574 21.3413 6.27372 21.2071 6.424 20.7683 6.44957 20.6995 6.49434 20.5947 6.51992 20.539 6.5423 20.4768 6.5423 20.4605 6.5423 20.4408 6.56469 20.3851 6.59026 20.3327 6.61584 20.2836 6.68939 20.1002 6.75334 19.9299 6.87805 19.5959 6.88124 19.5861 7.08587 19.0949 7.24895 18.6987 7.7222 17.7097 7.96521 17.2611 8.06113 17.081 8.16026 16.8976 8.18262 16.8518 8.20501 16.8059 8.29134 16.6618 8.37449 16.5309 8.45763 16.3999 8.52477 16.2885 8.52477 16.2787 8.52477 16.2624 8.90207 15.6532 9.014 15.4928 9.05237 15.4404 9.1291 15.3225 9.18667 15.2308 9.36252 14.9492 10.2578 13.7245 10.3474 13.6426 10.357 13.6328 10.4049 13.5673 10.4593 13.4953 10.5104 13.4232 10.6735 13.23 10.8174 13.063 10.9645 12.8993 11.0828 12.7454 11.0828 12.729 11.0828 12.7093 11.0956 12.693 11.1116 12.693 11.1467 12.693 11.5816 12.1756 11.7095 11.9791 11.831 11.799 11.8982 11.4584 11.9301 10.9083 11.9429 10.7118 11.9653 10.4891 11.9845 10.4171 12.0037 10.345 12.0357 10.1682 12.0581 10.0241 12.0804 9.88006 12.1316 9.60171 12.17 9.40194 12.2531 8.97623 12.3138 8.61275 12.3778 8.14121 12.4034 7.95128 12.4385 7.72532 12.4577 7.64019 12.4737 7.55503 12.4897 7.40769 12.4897 7.31272 12.4897 7.10969 12.5121 7.06712 12.6176 7.06712 12.7839 7.06712 13.4778 6.98525 13.8039 6.92631 13.9893 6.89357 14.1812 6.86409 14.2324 6.86409 14.2803 6.86409 14.437 6.84118 14.5809 6.81496 15.1756 6.7069 16.0582 6.62833 16.1029 6.68398 16.1157 6.70035 16.1253 6.91649 16.1253 7.16209 16.1253 7.56814 16.1317 7.62053 16.1956 7.72861 16.2372 7.7941 16.2756 7.84649 16.282 7.84649 16.2916 7.84649 16.3747 7.81048 16.4642 7.76789 16.7136 7.65327 17.3244 7.46663 17.6697 7.40441 17.836 7.37166 18.1397 7.33891 18.3412 7.32583 18.8432 7.29308 18.856 7.28324 18.9008 6.94595 18.9263 6.73639 19.0063 6.54646 19.0766 6.5268 19.3548 6.45148 20.8896 6.7331 21.2893 6.93287 21.3181 6.94924 21.43 6.99181 21.5387 7.02782 21.6442 7.06385 21.8937 7.17847 22.0919 7.27997 22.7506 7.62053 23.2846 8.03315 23.8729 8.65205 24.2982 9.0974 24.4996 9.34955 24.7491 9.73923 24.9633 10.07 25.0081 10.0601 24.9761 9.67373 24.9633 9.50673 24.9409 9.343 24.9217 9.31025 24.9057 9.27751 24.8802 9.18255 24.8642 9.0974 24.8322 8.92385 24.7363 8.62912 24.6595 8.48505 24.6307 8.43264 24.6084 8.3737 24.6084 8.35733 24.6084 8.2722 24.1639 7.65656 23.9177 7.40441 23.5979 7.07039 23.5308 7.018 23.2174 6.80843 23.0959 6.72657 22.9584 6.63486 22.9137 6.6054 22.7826 6.51371 22.2966 6.28448 22.0855 6.20917 21.9768 6.17314 21.8617 6.1273 21.8329 6.11093 21.7306 6.05526 21.1998 5.90461 20.7553 5.80639 19.7865 5.58698 18.4595 5.48545 17.4779 5.55095 17.1709 5.57387 16.7233 5.60335 16.4866 5.61644 16.0709 5.64266 15.4218 5.71797 15.0413 5.78673 14.939 5.8031 14.7056 5.83258 14.5201 5.84896 14.3347 5.86533 14.1684 5.88826 14.1492 5.89808 14.1333 5.91116 13.9574 5.94064 13.7591 5.96357 13.2283 6.03233 12.6911 6.10438 12.4737 6.14368 12.2947 6.17314 11.8726 6.22881 10.795 6.35653 9.9029 6.4613 8.40327 6.49734 7.40563 6.43511 6.77892 6.39581 5.86442 6.24192 5.27926 6.08145 5.13859 6.04215 4.95313 5.98976 4.86359 5.96357 4.68773 5.91772 4.61739 5.89152 4.19212 5.72779 3.47586 5.44617 2.96746 5.20713 2.5198 4.93531 2.42707 4.87966 2.34393 4.83381 2.33755 4.83381 2.33115 4.83381 2.24161 4.77813 2.13929 4.70937 2.03697 4.64061 1.86752 4.526 1.7652 4.45722 1.65967 4.38846 1.56054 4.3197 1.54136 4.30659 1.52216 4.29022 1.3495 4.15596 1.15447 4.00532 0.962605 3.85795 0.690809 3.62546 0.550117 3.49121 0.294329 3.24232-0.204492 2.63979-0.204492 2.57756-0.204492 2.56119-0.246054 2.48261-0.297224 2.40401-0.348373 2.32543-0.421929 2.18134-0.460302 2.0831-0.498674 1.98486-0.546634 1.86042-0.572209 1.80475-0.594595 1.75236-0.629757 1.61811-0.652143 1.51003-0.67134 1.40197-0.706502 1.26445-0.725699 1.20877-0.776848 1.05486-0.732098 1.02867-0.527438 1.09416-0.322799 1.15965-0.0030421 1.44453 0.214374 1.75892 0.527731 2.20753 0.802737 2.49898 1.20243 2.81335 1.84832 3.31765 2.68607 3.74334 3.66452 4.06099 4.17614 4.22799 4.50548 4.3197 4.76767 4.36226 4.82203 4.37208 5.01389 4.4081 5.19933 4.44084 5.92518 4.57512 6.31847 4.60787 7.24576 4.6144 8.30733 4.62095 8.81255 4.60787 9.02678 4.56856 9.10992 4.55219 9.29538 4.52271 9.43608 4.50634 9.81657 4.46377 10.4849 4.32952 10.859 4.22472 11.1691 4.1363 11.4793 4.04135 11.5944 3.99876 12.09 3.81539 12.2659 3.74007 12.2787 3.69751 12.3011 3.63857 12.2723 3.29799 12.2179 3.01638 12.1764 2.80026 12.1604 2.69547 12.0581 2.06672 12.0357 1.92265 11.9845 1.63448 11.9493 1.42816 11.911 1.22186 11.8598 0.897679 11.8342 0.707752 11.8086 0.517825 11.7767 0.327876 11.7671 0.282044 11.7287 0.115044 11.6967-0.74948 11.7319-0.788759 11.7543-0.821506 12.0484-0.831347 12.9981-0.831347 13.9414-0.831347 14.2483-0.821506 14.2867-0.788759 14.3123-0.76912 14.3954-0.549712 14.4722-0.307399 14.5457-0.0650638 14.6161 0.170696 14.6321 0.21655 14.6448 0.262404 14.6896 0.409743 14.7248 0.544018 14.8303 0.914052 14.923 1.23497 14.9678 1.36267 14.9902 1.42489 15.0381 1.57225 15.0733 1.69013 15.1692 2.00123 15.2428 2.21408 15.3099 2.36471 15.3419 2.43676 15.3675 2.51207 15.3675 2.53173 15.3675 2.55137 15.3899 2.58412 15.4154 2.60704 15.4666 2.64961 15.6841 2.6136 15.9111 2.52518 16.0294 2.48261 16.2244 2.43676 16.5985 2.36471 16.7233 2.3418 16.8959 2.30577 16.9823 2.28613 17.1325 2.25012 17.3052 2.22064 17.7816 2.14859 18.1078 2.09947 18.7601 2.02089 19.0127 2.00123 19.1438 1.99141 19.3324 1.96848 19.4316 1.94884 19.5307 1.93247 19.7353 1.91281 19.8888 1.90299 20.0423 1.89643 20.1766 1.88006 20.1926 1.87353 20.2245 1.85387 20.2981 1.55588 20.3876 1.08434 20.426 0.887859 20.4707 0.642258 20.4899 0.544018 20.5091 0.445778 20.5443 0.180537 20.5667-0.0454244 20.6274-0.621759 20.6466-0.742927 20.6818-0.788759 20.7074-0.821506 20.9951-0.831347 21.9224-0.831347 22.8497-0.831347 23.1375-0.821506 23.1631-0.788759 23.1791-0.76912 23.2014-0.513699 23.211-0.225532 23.2238 0.0626358 23.2462 0.550572 23.2686 0.855112 23.2878 1.16292 23.2942 1.55261 23.2846 1.72617 23.2622 2.08965 23.2686 2.09947 23.5052 2.13222 23.5947 2.14532 23.7386 2.17478 23.825 2.201 23.9145 2.2239 24.1287 2.28286 24.3046 2.32543 24.8322 2.45968 24.9761 2.5088 25.4429 2.69547 25.5964 2.75767 25.7691 2.81335 25.833 2.82645 25.9417 2.84283 25.9449 2.84283 25.9673 2.70528 25.9801 2.62997 26.0089 2.52844 26.0345 2.48261 26.06 2.43349 26.0792 2.37782 26.0792 2.35489 26.0792 2.33525 26.0952 2.27631 26.1176 2.2239 26.1751 2.07654 26.367 1.52313 26.4182 1.34629 26.4437 1.25789 26.4885 1.11053 26.5173 1.01885 26.6484 0.576765 26.7443-0.051978 26.7475-0.510433 26.7507-0.729819 26.7603-0.76912 26.8147-0.798601 26.8594-0.821506 27.2847-0.831347 28.1448-0.824794 29.216-0.814974 29.411-0.80842 29.4366-0.765854 29.5326-0.605386 29.3599 2.90503 29.2128 3.78593 29.1968 3.88415 29.168 4.13304 29.1457 4.33934 29.1265 4.54564 29.0977 4.74867 29.0817 4.79124 29.0657 4.83709 29.0529 4.93531 29.0529 5.01391 29.0529 5.17109 29.0369 5.1449 29.5006 5.79655 29.6509 6.0094 29.7884 6.20588 29.8044 6.23536 29.8235 6.26482 29.8811 6.36306 29.9354 6.45475 30.1401 6.78877 30.2648 7.02127 30.4183 7.33891 30.6645 7.84976 30.7156 7.96437 30.7156 8.02004 30.7156 8.04952 30.7284 8.07898 30.7444 8.0888 30.7604 8.10191 30.8116 8.23616 30.8595 8.39663 30.9075 8.55381 30.9651 8.74047 30.9874 8.81252 31.0098 8.88455 31.0514 9.05483 31.077 9.18909 31.272 10.1256 31.304 10.8985 31.1793 11.6123 31.1729 11.6385 31.1601 11.7433 31.1505 11.8416 31.0929 12.3426 30.7444 13.3086 30.4119 13.8882 30.3511 13.9963 30.2776 14.1305 30.252 14.1829 30.2264 14.2386 30.1241 14.3925 30.0282 14.5268 29.9291 14.661 29.8427 14.792 29.8331 14.8117 29.8235 14.8346 29.7564 14.9165 29.686 14.9918 29.6157 15.0704 29.523 15.185 29.475 15.2472 29.3695 15.3913 28.8195 15.9513 28.5126 16.2296 28.1225 16.58 27.2303 17.2415 26.8786 17.4412 26.7827 17.4969 26.6036 17.5984 26.4789 17.6704 26.1624 17.8571 25.6156 18.1387 25.4077 18.2271 25.3118 18.2664 25.1168 18.3483 24.9761 18.4072 24.6595 18.5382 24.538 18.5841 24.3462 18.6365 24.2662 18.6627 24.1671 18.6954 24.1319 18.7151 24.0968 18.7347 24.0392 18.7511 24.004 18.7511 23.9688 18.7511 23.9017 18.7675 23.8505 18.7904 23.7578 18.8297 23.534 18.8853 23.1503 18.9639 23.0256 18.9868 22.8657 19.0229 22.7986 19.0425 22.7282 19.0589 22.5459 19.0916 22.3861 19.108 22.2294 19.1277 21.9896 19.1604 21.8585 19.1768 21.5419 19.2259 19.7033 19.2259 19.2365 19.1801 19.0351 19.1604 18.6258 19.1211 18.3252 19.0949 18.0278 19.0687 17.6665 19.0327 17.5258 19.0163 17.1325 18.9639 15.9047 18.9148 15.5274 18.9345 14.8815 18.9672 14.0533 19.0818 13.935 19.1571 13.9158 19.167 13.8391 19.1899 13.7623 19.2063 13.6056 19.239 12.931 19.5206 12.8095 19.6025 12.7647 19.632 12.7071 19.6647 12.6816 19.6745 12.656 19.6876 12.4801 19.8022 12.2915 19.9365 11.799 20.2836 11.3002 20.7846 10.7407 21.5018 10.3634 21.9897 10.1108 22.3466 9.98923 22.5726 9.95726 22.6315 9.86134 22.7789 9.7782 22.9001 9.69186 23.0245 9.57356 23.2112 9.50961 23.3192 9.44885 23.4273 9.32736 23.627 9.24102 23.7613 9.15469 23.8956 9.06515 24.0462 9.03637 24.0953 8.98841 24.187 8.70702 24.6586 8.62069 24.7928 8.59511 24.8321 8.52158 24.9533 8.46401 25.0581 8.40327 25.1661 8.29455 25.3397 8.22421 25.4477 8.15065 25.5558 8.08031 25.6704 8.06113 25.7032 7.87888 26.0175 7.02193 27.3503 6.93559 27.4453 6.90362 27.4813 6.82688 27.5861 6.76933 27.6745 6.70857 27.7662 6.64781 27.8448 6.63822 27.8546 6.62864 27.8644 6.5487 27.966 6.46237 28.0838 6.1522 28.4997 5.60863 29.0171 5.11621 29.3708 4.88918 29.5312 4.29444 29.8292 4.06421 29.9013 3.9587 29.934 3.83718 29.9733 3.79562 29.9897 3.75406 30.0061 3.58139 30.0486 3.41192 30.0879 3.15292 30.1436 2.96746 30.1567 2.2576 30.1665 1.79077 30.1698 1.38787 30.1698 1.3623 30.1632Z" fill-rule="evenodd" transform="matrix(1 0 0 -1 328 391)"/></g></svg>