<?xml version="1.0" standalone="no"?>
<!DOCTYPE svg PUBLIC "-//W3C//DTD SVG 20010904//EN"
 "http://www.w3.org/TR/2001/REC-SVG-20010904/DTD/svg10.dtd">
<svg version="1.0" xmlns="http://www.w3.org/2000/svg"
 width="474.000000pt" height="462.000000pt" viewBox="0 0 474.000000 462.000000"
 preserveAspectRatio="xMidYMid meet">

<g transform="translate(0.000000,462.000000) scale(0.100000,-0.100000)"
fill="#000000" stroke="none">
<path d="M2539 4587 c-26 -32 -57 -89 -99 -182 -13 -27 -27 -57 -31 -66 -4 -9
-11 -33 -14 -53 -4 -20 -11 -39 -16 -42 -5 -3 -9 -21 -9 -41 0 -20 -6 -41 -14
-47 -12 -9 -32 -91 -50 -206 -9 -52 -27 -126 -35 -140 -5 -9 -12 -31 -16 -50
-4 -19 -13 -46 -20 -60 -8 -14 -23 -50 -34 -80 -11 -30 -23 -64 -27 -75 -4
-11 -9 -24 -9 -30 -1 -5 -5 -21 -9 -35 -9 -36 -28 -216 -28 -280 0 -67 15
-159 33 -191 7 -13 12 -26 12 -29 -1 -13 13 -38 40 -72 34 -45 63 -49 105 -13
17 14 35 25 40 25 6 0 14 9 17 20 4 11 17 32 29 48 40 48 83 137 91 188 4 27
11 54 17 61 5 6 8 20 7 30 -1 10 1 25 4 33 3 8 24 71 47 140 23 68 53 146 66
172 13 26 24 50 24 53 1 3 9 24 19 47 10 24 21 61 25 83 4 22 11 51 16 65 8
22 19 81 51 290 6 36 14 74 19 85 13 32 30 134 30 184 0 71 -16 114 -60 159
l-39 42 -78 -1 c-75 0 -79 -2 -104 -32z"/>
<path d="M3628 4464 c-21 -9 -38 -20 -38 -25 0 -4 -29 -41 -65 -81 -36 -39
-65 -77 -65 -84 0 -7 -3 -14 -7 -16 -12 -5 -65 -85 -108 -163 -47 -84 -74
-147 -104 -246 -13 -41 -29 -92 -37 -114 -7 -22 -18 -83 -25 -135 -6 -52 -16
-105 -21 -116 -11 -23 -8 -60 12 -161 14 -75 41 -104 85 -96 40 8 133 103 169
173 16 30 32 57 35 60 9 6 83 142 196 355 17 34 51 94 76 135 117 200 130 232
135 340 4 72 -19 126 -67 162 -35 27 -124 33 -171 12z"/>
<path d="M4273 3877 c-29 -17 -54 -51 -92 -127 -17 -36 -63 -119 -101 -185
-188 -329 -188 -328 -217 -475 -8 -41 -18 -82 -21 -90 -3 -8 -7 -22 -8 -30 -2
-8 -8 -33 -13 -55 -14 -52 -14 -112 -1 -120 25 -15 212 158 337 311 176 216
195 245 257 394 37 88 40 102 40 192 1 94 0 98 -29 129 -46 48 -117 75 -152
56z"/>
<path d="M2992 3197 c-28 -13 -57 -66 -66 -122 -4 -22 -11 -53 -16 -70 -39
-132 -40 -141 -47 -224 -4 -59 -3 -65 23 -92 23 -24 36 -29 75 -29 49 0 130
29 163 58 10 9 34 51 53 92 18 41 40 86 47 100 8 14 17 43 21 65 4 22 12 45
16 51 6 7 3 26 -6 48 -14 32 -19 36 -51 36 -43 0 -68 12 -114 55 -42 39 -67
47 -98 32z"/>
<path d="M4545 2893 c-29 -6 -127 -74 -139 -98 -6 -10 -17 -25 -23 -33 -26
-28 -103 -131 -103 -137 0 -4 -13 -24 -29 -44 -16 -20 -36 -52 -45 -71 -22
-46 -84 -151 -101 -170 -8 -9 -26 -38 -40 -65 -15 -27 -48 -75 -73 -107 -140
-172 -182 -234 -182 -264 0 -8 -5 -23 -12 -33 -17 -27 18 -83 59 -95 63 -17
136 19 286 141 29 24 66 53 82 64 33 24 57 57 119 164 22 39 57 91 78 116 21
25 38 48 38 52 0 4 24 33 54 64 45 49 104 118 134 158 20 27 54 130 59 179 4
38 10 56 19 56 19 0 18 16 -1 24 -9 3 -15 18 -15 40 0 45 -32 66 -97 65 -26
-1 -57 -4 -68 -6z"/>
<path d="M144 2853 c-19 -2 -48 -20 -70 -41 -74 -71 -74 -71 -74 -197 0 -71 4
-115 10 -115 6 0 26 -24 44 -52 19 -29 112 -134 206 -233 94 -99 184 -198 199
-220 15 -22 40 -58 55 -80 36 -52 85 -96 132 -119 22 -11 47 -23 56 -27 44
-22 108 3 128 50 20 50 -4 217 -53 361 -61 178 -77 224 -87 245 -4 11 -22 54
-38 95 -36 92 -66 137 -140 213 -81 84 -155 119 -257 122 -44 2 -94 1 -111 -2z"/>
<path d="M3491 2785 c-39 -37 -53 -58 -70 -113 -32 -103 -45 -156 -42 -170 1
-8 -2 -19 -7 -25 -16 -20 -24 -94 -13 -116 15 -27 70 -36 118 -20 48 15 207
174 251 250 28 48 29 55 17 79 -8 15 -21 32 -29 39 -9 8 -16 23 -16 35 0 12
-15 36 -33 54 -28 27 -41 32 -80 32 -43 0 -53 -5 -96 -45z"/>
<path d="M2155 2690 c-11 -4 -47 -16 -80 -26 -97 -29 -185 -112 -185 -174 0
-15 -4 -30 -9 -35 -6 -6 -15 -65 -20 -133 -6 -69 -18 -136 -26 -152 -37 -72
-6 -127 66 -117 37 5 55 18 148 110 114 112 121 116 234 124 105 7 111 4 156
-86 22 -42 55 -91 73 -107 l34 -30 99 8 c89 8 100 7 115 -9 19 -20 56 -119 66
-175 12 -71 98 -146 185 -162 21 -4 41 -12 47 -19 5 -6 12 -54 15 -106 3 -55
11 -97 18 -101 25 -16 6 -200 -21 -200 -4 0 -12 -11 -18 -25 -16 -35 -93 -116
-143 -151 -41 -28 -42 -28 -228 -32 -167 -3 -190 -6 -229 -25 -24 -12 -48 -31
-53 -42 -5 -11 -18 -33 -29 -50 -27 -41 -40 -72 -50 -120 -22 -109 -57 -165
-136 -221 -37 -27 -171 -95 -181 -92 -32 6 -141 -40 -148 -63 -4 -11 -11 -19
-16 -19 -11 0 -12 -134 0 -158 4 -9 18 -39 30 -65 28 -64 101 -140 164 -173
42 -21 71 -27 149 -31 136 -8 206 7 348 71 112 51 241 156 296 241 17 27 67
88 109 135 160 178 230 262 282 343 25 40 54 84 64 98 10 14 22 46 29 70 6 24
15 53 20 64 9 19 29 113 34 165 2 14 7 34 11 44 5 11 9 115 9 231 l1 211 -59
88 c-32 48 -64 93 -70 100 -15 17 -34 47 -48 76 -71 155 -74 159 -151 220 -41
33 -78 60 -83 60 -10 0 -64 51 -64 61 0 5 -10 19 -22 32 -13 13 -33 42 -46 63
-26 44 -67 73 -132 94 -77 25 -113 48 -176 111 -40 40 -73 64 -100 71 -46 13
-250 19 -279 8z"/>
<path d="M1602 1855 c-44 -41 -83 -75 -87 -75 -4 0 -25 -15 -48 -33 -62 -50
-141 -88 -192 -92 -5 0 -14 -3 -20 -6 -5 -4 -27 -10 -49 -13 -57 -11 -80 -25
-168 -106 -62 -57 -95 -109 -108 -172 -7 -38 5 -242 17 -268 4 -8 8 -28 9 -45
2 -16 10 -73 19 -125 9 -52 20 -144 25 -204 6 -61 14 -114 20 -120 5 -5 10
-17 10 -25 0 -24 91 -150 141 -194 152 -136 245 -172 369 -144 59 13 151 88
170 139 6 18 17 43 22 54 6 12 8 44 5 70 -6 55 -39 194 -56 238 -19 48 -26
208 -11 263 7 26 18 54 24 62 7 9 13 124 17 327 3 200 9 317 16 326 6 7 14 40
18 74 3 33 10 66 15 73 4 7 3 26 -3 42 -9 24 -17 29 -43 29 -26 0 -47 -14
-112 -75z"/>
</g>
</svg>
