<svg width="33" height="34" xmlns="http://www.w3.org/2000/svg" xmlns:xlink="http://www.w3.org/1999/xlink" overflow="hidden"><defs><clipPath id="clip0"><rect x="354" y="358" width="33" height="34"/></clipPath></defs><g clip-path="url(#clip0)" transform="translate(-354 -358)"><path d="M12.1492 11.6132 12.1732 11.1927C12.1835 10.962 12.2109 10.4736 12.2315 10.1107 12.2554 9.74782 12.2863 9.18141 12.3034 8.85581 12.3582 7.87562 12.3994 7.18373 12.4473 6.41382 12.5021 5.49807 12.5021 4.95541 12.4473 4.56537 12.3925 4.1855 12.348 3.83954 12.3068 3.52412 12.276 3.29349 12.2418 3.03574 12.1664 2.47949 12.1492 2.3574 12.1184 2.13016 12.0978 1.97075 12.0773 1.81133 12.0465 1.56713 12.0259 1.42808 11.9882 1.15336 11.9505 0.858286 11.8957 0.420753 11.8374-0.0506746 12.1595 0.00358305 9.37393 0.00358305 8.04451 0.00358305 6.95839 0.0103708 6.95839 0.0205414 6.95839 0.0307119 6.97208 0.0646285 6.98921 0.0985451 7.01662 0.152825 7.04746 0.220658 7.1297 0.427541 7.21192 0.634423 7.24277 0.702256 7.27017 0.756536 7.2873 0.790453 7.30102 0.848115 7.30102 0.885415 7.30102 0.922714 7.31815 0.953248 7.33528 0.953248 7.35583 0.953248 7.36955 0.983782 7.36955 1.02108 7.36955 1.05838 7.38324 1.11604 7.40037 1.14996 7.4175 1.18049 7.44491 1.24492 7.46204 1.29241 7.48261 1.33991 7.51343 1.4145 7.53056 1.462 7.55114 1.50949 7.58196 1.58409 7.59909 1.63158 7.61966 1.67907 7.65048 1.75708 7.67447 1.81133 7.69504 1.86221 7.72931 1.94362 7.74986 1.99787 7.7704 2.04875 7.80125 2.11658 7.81838 2.14712 7.83551 2.18103 7.84923 2.2387 7.84923 2.27261 7.84923 2.30991 7.86636 2.35062 7.88349 2.36079 7.90404 2.37096 7.91775 2.41166 7.91775 2.44896 7.91775 2.48288 7.93489 2.51341 7.95202 2.51341 7.97257 2.51341 7.98628 2.54395 7.98628 2.58124 7.98628 2.61854 7.99997 2.67621 8.0171 2.71012 8.04795 2.76779 8.0959 2.88311 8.15416 3.03233 8.20213 3.15783 8.26724 3.30707 8.29807 3.36811 8.3152 3.40203 8.32891 3.45969 8.32891 3.49361 8.32891 3.53091 8.34604 3.57161 8.36317 3.58178 8.38372 3.59195 8.39744 3.63266 8.39744 3.66996 8.39744 3.70388 8.41457 3.73441 8.4317 3.73441 8.45225 3.73441 8.46596 3.77171 8.46596 3.81582 8.46596 3.86329 8.48309 3.91078 8.50023 3.92095 8.52077 3.93112 8.53449 3.97183 8.53449 4.00912 8.53449 4.04304 8.55162 4.07357 8.56875 4.07357 8.5893 4.07357 8.60301 4.10411 8.60301 4.14141 8.60301 4.17871 8.61671 4.23637 8.63384 4.27029 8.65097 4.30082 8.68182 4.37544 8.7058 4.4297 8.72979 4.48736 8.76062 4.55858 8.77775 4.58911 8.79488 4.62303 8.80859 4.6705 8.80859 4.70103 8.80859 4.72816 8.83942 4.80278 8.87712 4.87062 8.9148 4.93845 8.94565 5.01986 8.94565 5.05716 8.94565 5.09107 8.96278 5.13178 8.97991 5.14195 9.00046 5.15212 9.01417 5.19282 9.01417 5.23012 9.01417 5.26404 9.0313 5.29457 9.04844 5.29457 9.06898 5.29457 9.0827 5.33187 9.0827 5.37598 9.0827 5.42345 9.09983 5.47094 9.11696 5.48111 9.13751 5.49128 9.15122 5.53199 9.15122 5.56929 9.15122 5.6032 9.16835 5.63374 9.18549 5.63374 9.20604 5.63374 9.21975 5.67104 9.21975 5.71515 9.21975 5.76262 9.23688 5.81011 9.25401 5.82028 9.27456 5.83045 9.28828 5.86437 9.28828 5.8915 9.28828 5.91865 9.3191 6.00682 9.3568 6.08144 9.39448 6.15945 9.42533 6.24424 9.42533 6.26798 9.42533 6.29173 9.45615 6.36295 9.49385 6.43078 9.53153 6.49861 9.56238 6.58002 9.56238 6.61732 9.56238 6.65124 9.57951 6.69194 9.59664 6.70211 9.61719 6.71228 9.63091 6.75299 9.63091 6.79029 9.63091 6.8242 9.64804 6.85474 9.66517 6.85474 9.68572 6.85474 9.69943 6.89204 9.69943 6.93614 9.69943 6.98361 9.71656 7.03111 9.7337 7.04128 9.75424 7.05145 9.76796 7.08536 9.76796 7.1159 9.76796 7.18711 10.1106 7.86206 10.2099 7.98415 10.2374 8.01469 10.2476 8.04182 10.2305 8.04182 10.2168 8.04182 10.2237 8.06556 10.2476 8.09269 10.2888 8.14357 10.4806 8.4929 10.7273 8.97452 10.8061 9.12376 10.8986 9.30011 10.9398 9.36456 10.9774 9.42901 11.1042 9.66643 11.2241 9.89027 11.3406 10.1141 11.4708 10.3583 11.5154 10.4329 11.5599 10.5076 11.6832 10.7382 11.7895 10.9417 11.8957 11.1486 12.0225 11.3826 12.067 11.464ZM9.6497 11.9308C9.65998 11.9173 9.65314 11.8732 9.63257 11.8291 9.61202 11.7884 9.58803 11.7171 9.57776 11.6697 9.5709 11.6222 9.54349 11.5238 9.52292 11.4492 9.49896 11.3746 9.47497 11.2627 9.46469 11.2016 9.4544 11.1406 9.43385 11.0829 9.41672 11.0727 9.39959 11.0626 9.38587 11.0117 9.38587 10.9574 9.38587 10.9031 9.37218 10.8489 9.35161 10.8387 9.33448 10.8285 9.31735 10.7743 9.31735 10.72 9.31735 10.6657 9.30365 10.6149 9.28652 10.6047 9.26939 10.5945 9.24882 10.5368 9.23854 10.4758 9.22827 10.4148 9.20428 10.3028 9.18029 10.2282 9.15633 10.1536 9.13234 10.0417 9.12206 9.98063 9.11177 9.91956 9.09122 9.86192 9.07409 9.85173 9.05696 9.84156 9.04324 9.79068 9.04324 9.73642 9.04324 9.68214 9.02955 9.62788 9.00898 9.61771 8.99185 9.60754 8.97472 9.55326 8.97472 9.49901 8.97472 9.44473 8.96102 9.39385 8.94389 9.38368 8.92676 9.37351 8.90619 9.31585 8.89591 9.2548 8.88564 9.19376 8.86165 9.0886 8.8411 9.02417 8.77258 8.79355 8.73146 8.63413 8.71432 8.54934 8.70405 8.50185 8.68348 8.43402 8.66635 8.39672 8.64922 8.3594 8.62867 8.29156 8.61839 8.24409 8.61154 8.1966 8.58755 8.10164 8.567 8.0338 8.48476 7.74551 8.45735 7.66072 8.42309 7.54201 8.40254 7.4708 8.37855 7.36226 8.36828 7.30122 8.35798 7.24015 8.33743 7.18251 8.3203 7.17231 8.30317 7.16214 8.28945 7.11127 8.28945 7.05361 8.28945 6.99935 8.27576 6.95526 8.25519 6.95526 8.23806 6.95526 8.22093 6.92473 8.22093 6.88743 8.22093 6.85011 8.20724 6.79247 8.1901 6.75855 8.17297 6.72802 8.14557 6.66357 8.12844 6.6161 8.10786 6.5686 8.07704 6.4906 8.05305 6.43972 8.03248 6.38547 8.00166 6.30744 7.98109 6.25997 7.96395 6.21248 7.92969 6.13448 7.90914 6.0836 7.88515 6.02932 7.85433 5.95132 7.83376 5.90385 7.81663 5.85635 7.78922 5.7919 7.77209 5.76139 7.75496 5.72748 7.74124 5.66981 7.74124 5.6359 7.74124 5.5986 7.72755 5.55789 7.70698 5.54772 7.68985 5.53753 7.67272 5.49685 7.67272 5.45953 7.67272 5.42561 7.65903 5.3951 7.63846 5.3951 7.62132 5.3951 7.60419 5.36456 7.60419 5.32726 7.60419 5.28994 7.5905 5.23228 7.57337 5.19836 7.54252 5.13732 7.47744 4.9881 7.42946 4.8626 7.37121 4.71336 7.32325 4.59806 7.29241 4.5404 7.27528 4.50648 7.26156 4.45899 7.26156 4.42847 7.26156 4.40132 7.23074 4.32673 7.19304 4.25889 7.15536 4.19106 7.12451 4.10965 7.12451 4.07235 7.12451 4.03843 7.11082 3.99773 7.09025 3.98756 7.07312 3.97737 7.05598 3.93668 7.05598 3.89936 7.05598 3.86545 7.04229 3.83493 7.02172 3.83493 7.00459 3.83493 6.98746 3.8044 6.98746 3.7671 6.98746 3.72978 6.97377 3.67212 6.95664 3.6382 6.9395 3.60769 6.90866 3.53645 6.88467 3.47881 6.8607 3.42453 6.82986 3.34991 6.81273 3.3194 6.79559 3.28548 6.78188 3.23799 6.78188 3.20748 6.78188 3.18033 6.75106 3.10573 6.71335 3.03789 6.67567 2.97006 6.64483 2.89544 6.64483 2.86831 6.64483 2.84116 6.614 2.76656 6.5763 2.69873 6.53862 2.6309 6.50778 2.54949 6.50778 2.51219 6.50778 2.47827 6.49408 2.43757 6.47351 2.4274 6.45638 2.4172 6.43925 2.37652 6.43925 2.3392 6.43925 2.30528 6.42556 2.27477 6.40499 2.27477 6.38786 2.27477 6.37072 2.24424 6.37072 2.20694 6.37072 2.1391 6.35703 2.10519 6.27137 1.94237 6.2508 1.89828 6.24053 1.85081 6.2508 1.83724 6.25766 1.82028 6.24397 1.78975 6.21654 1.76602 6.18913 1.74228 6.16514 1.69478 6.16514 1.66087 6.16514 1.62695 6.13432 1.54556 6.09662 1.47773 6.05894 1.4099 6.02809 1.32849 6.02809 1.29457 6.02809 1.26066 6.01782 1.22336 6.00413 1.20978 5.99041 1.19961 5.9767 1.16908 5.97328 1.14533 5.96986 1.12161 5.93902 1.04358 5.90476 0.968982 5.87049 0.894361 5.84309 0.826528 5.83965 0.816357 5.83623 0.806165 5.82251 0.75529 5.80538 0.697649 5.79169 0.643369 5.76085 0.575536 5.74371 0.55179 5.72317 0.524661 5.70259 0.473786 5.69576 0.433082 5.6889 0.395783 5.66833 0.344908 5.64778 0.317779 5.62723 0.294033 5.62038 0.273692 5.63407 0.273692 5.64778 0.273692 5.63751 0.249946 5.61352 0.219412 5.58953 0.1889 5.56554 0.141408 5.56212 0.110874 5.55527 0.0837455 5.53128 0.0464462 5.50731 0.0328706 5.48332 0.0159123 4.23614 0.00574179 2.73884 0.0125296L0.0149283 0.0193173 0.00465384 0.436487C-0.00562058 0.850274-0.00562058 0.850274 0.0765972 0.850274 0.124574 0.850274 0.175969 0.884191 0.210232 0.945236 0.241078 0.996111 0.302747 1.07411 0.347284 1.12161 0.391822 1.16908 0.453491 1.24031 0.480919 1.2844 0.511742 1.32511 0.590543 1.41666 0.655652 1.4879 0.720761 1.55573 0.785847 1.63712 0.806418 1.66766 0.82355 1.69819 0.892076 1.78636 0.957162 1.86437 1.21413 2.16962 1.37176 2.35956 1.39572 2.39348 1.40944 2.41382 1.47111 2.48844 1.53278 2.56306 1.59447 2.63766 1.65614 2.71569 1.66983 2.73265 1.71095 2.79029 1.99533 3.13286 2.13238 3.29227 2.20435 3.37706 2.27287 3.46185 2.28656 3.47881 2.31741 3.51949 2.57438 3.83493 2.72171 4.0079 2.83477 4.14357 2.87248 4.18765 3.04721 4.41152 3.11232 4.4929 3.21852 4.6184 3.28363 4.68962 3.34872 4.76085 3.4241 4.85243 3.45495 4.89311 3.48235 4.93722 3.52689 4.99148 3.55088 5.01523 3.57487 5.04236 3.63995 5.11698 3.69135 5.18481 3.78386 5.31031 3.9175 5.4697 3.99972 5.55111 4.02029 5.57485 4.04084 5.60877 4.04084 5.62573 4.04084 5.64607 4.05111 5.66643 4.06824 5.6732 4.09567 5.68339 4.26013 5.87331 4.44858 6.10735 4.51368 6.18535 4.58905 6.27014 4.61303 6.29727 4.63702 6.32102 4.65757 6.34815 4.65757 6.36172 4.65757 6.37527 4.67814 6.40243 4.70213 6.42615 4.72268 6.4499 4.80834 6.54486 4.88714 6.63644 5.0893 6.87385 5.14411 6.9349 5.42166 7.24015 5.87391 7.73873 5.9767 7.85065 6.04522 7.92527 6.08293 7.96259 6.19257 8.08806 6.29192 8.1966 6.38786 8.30514 6.52835 8.46115 6.60029 8.53577 6.67226 8.61377 6.80931 8.76639 6.90866 8.87493 7.00459 8.98685 7.13481 9.12931 7.19989 9.19376 7.26156 9.26159 7.41233 9.42777 7.53567 9.56684 7.65903 9.70589 7.78237 9.84496 7.80977 9.87209 7.8372 9.89922 7.97767 10.0518 8.11814 10.2113 8.25863 10.3707 8.3991 10.5233 8.42651 10.5504 8.45393 10.5775 8.5944 10.7302 8.73487 10.8896 8.87537 11.049 9.05696 11.2457 9.13234 11.3305 9.38587 11.6018 9.62571 11.8901 9.62571 11.9206 9.62571 11.9376 9.63601 11.941 9.6497 11.9308ZM16.1128 12.0592 16.1642 11.9405C16.1917 11.8761 16.2259 11.7947 16.243 11.7641 16.2602 11.7302 16.2739 11.6726 16.2739 11.6386 16.2739 11.6013 16.291 11.5606 16.3081 11.5505 16.3287 11.5403 16.3424 11.4928 16.3424 11.4487 16.3424 11.4046 16.3595 11.3571 16.3767 11.347 16.3972 11.3368 16.4109 11.2893 16.4109 11.2452 16.4109 11.2011 16.4281 11.1536 16.4452 11.1435 16.4658 11.1333 16.4794 11.0858 16.4794 11.0383 16.4794 10.9942 16.4966 10.9569 16.5137 10.9569 16.5343 10.9569 16.548 10.9264 16.548 10.8925 16.548 10.8552 16.5651 10.8145 16.5822 10.8043 16.6028 10.7941 16.6165 10.7466 16.6165 10.7026 16.6165 10.6585 16.6336 10.611 16.6508 10.6008 16.6713 10.5906 16.685 10.5431 16.685 10.4991 16.685 10.455 16.7022 10.4075 16.7193 10.3973 16.7399 10.3871 16.7536 10.3464 16.7536 10.3091 16.7536 10.2752 16.7673 10.2176 16.7844 10.1836 16.8358 10.0853 16.8837 9.96318 16.9283 9.82072 16.9523 9.7461 16.9865 9.67148 17.0002 9.65452 17.014 9.63418 17.0277 9.58669 17.0277 9.54601 17.0277 9.5019 17.0448 9.45781 17.0619 9.44764 17.0825 9.43747 17.0962 9.39677 17.0962 9.35947 17.0962 9.32555 17.1133 9.26448 17.1304 9.22718 17.151 9.18989 17.1818 9.12882 17.199 9.09152 17.2195 9.05422 17.2332 8.99994 17.2332 8.97281 17.2332 8.94568 17.2504 8.8914 17.2675 8.8541 17.2881 8.8168 17.3189 8.75573 17.336 8.71844 17.3566 8.68114 17.3703 8.62007 17.3703 8.58615 17.3703 8.54885 17.3874 8.50815 17.4045 8.49798 17.4251 8.48781 17.4388 8.4471 17.4388 8.4098 17.4388 8.34535 17.4525 8.31482 17.5347 8.15202 17.5587 8.10794 17.5759 8.04349 17.5759 8.00957 17.5759 7.97227 17.5896 7.93497 17.6033 7.92478 17.617 7.91461 17.6512 7.82982 17.6787 7.73485 17.7061 7.63989 17.7403 7.5551 17.754 7.54493 17.7677 7.53474 17.7814 7.49065 17.7814 7.44656 17.7814 7.40248 17.7986 7.35498 17.8157 7.34481 17.8363 7.33464 17.85 7.29394 17.85 7.25664 17.85 7.22272 17.8671 7.16165 17.8842 7.12436 17.9048 7.08706 17.9356 7.02599 17.9528 6.98869 17.9733 6.95139 17.987 6.89711 17.987 6.86998 17.987 6.84285 18.0042 6.78857 18.0213 6.75127 18.0419 6.71397 18.0727 6.65291 18.0898 6.61561 18.1104 6.57831 18.1241 6.51724 18.1241 6.48332 18.1241 6.44602 18.1412 6.40532 18.1583 6.39515 18.1789 6.38498 18.1926 6.34427 18.1926 6.30697 18.1926 6.27306 18.2097 6.21199 18.2269 6.17469 18.2474 6.13739 18.2783 6.07632 18.2954 6.03902 18.316 6.00172 18.3297 5.94744 18.3297 5.92032 18.3297 5.89319 18.3434 5.84231 18.3605 5.8084 18.4119 5.71003 18.4598 5.49298 18.501 5.17415 18.5524 4.74341 18.6038 4.36353 18.638 4.10578 18.6826 3.79036 18.7305 3.42406 18.7751 3.07132 18.7956 2.90512 18.8265 2.66771 18.8436 2.54561 18.8607 2.42352 18.8916 2.19628 18.9121 2.03687 18.9327 1.87745 18.9635 1.65021 18.9806 1.52812 18.9978 1.40603 19.0286 1.17878 19.0492 1.01937 19.0697 0.859955 19.1006 0.625944 19.1211 0.49366 19.1417 0.364781 19.152 0.201986 19.1451 0.137536L19.1348 0.0188277 16.1711 0.0188277 13.2073 0.0188277 13.1971 0.137536C13.1902 0.201986 13.2005 0.368164 13.221 0.503831 13.2416 0.636114 13.2724 0.859955 13.293 0.995621 13.3101 1.1279 13.341 1.35515 13.3581 1.4942 13.3786 1.63325 13.4095 1.87745 13.43 2.03687 13.4506 2.19628 13.4814 2.42352 13.4986 2.54561 13.5157 2.66771 13.5465 2.89495 13.5671 3.05436 13.5877 3.21378 13.6185 3.44102 13.6356 3.56311 13.6527 3.6852 13.6836 3.92262 13.7041 4.08882 13.8172 4.98082 13.8789 5.35731 13.9132 5.38103 13.9303 5.39123 13.944 5.43531 13.944 5.4794 13.944 5.52349 13.9611 5.57098 13.9782 5.58115 13.9988 5.59132 14.0125 5.63881 14.0125 5.6829 14.0125 5.72699 14.0296 5.77448 14.0468 5.78465 14.0673 5.79482 14.081 5.84231 14.081 5.8864 14.081 5.93049 14.0982 5.97798 14.1153 5.98815 14.1359 5.99832 14.1496 6.04581 14.1496 6.0899 14.1496 6.13399 14.1667 6.18148 14.1838 6.19165 14.2044 6.20182 14.2181 6.24931 14.2181 6.2934 14.2181 6.33749 14.2352 6.38498 14.2523 6.39515 14.2729 6.40532 14.2866 6.45281 14.2866 6.4969 14.2866 6.54099 14.3037 6.58848 14.3209 6.59865 14.3414 6.60882 14.3551 6.65631 14.3551 6.7004 14.3551 6.74448 14.3723 6.79198 14.3894 6.80215 14.41 6.81232 14.4237 6.85981 14.4237 6.9039 14.4237 6.94798 14.4408 6.99548 14.4579 7.00565 14.4785 7.01582 14.4922 7.06331 14.4922 7.1074 14.4922 7.15148 14.5093 7.19898 14.5265 7.20915 14.547 7.21932 14.5607 7.26002 14.5607 7.29732 14.5607 7.33124 14.5744 7.3889 14.5916 7.42282 14.6087 7.45335 14.7012 7.73147 14.8006 8.0401 14.8999 8.34873 14.9924 8.62686 15.0096 8.65739 15.0267 8.69131 15.0404 8.74897 15.0404 8.78289 15.0404 8.82018 15.0575 8.86089 15.0747 8.87106 15.0952 8.88123 15.1089 8.92872 15.1089 8.97281 15.1089 9.0169 15.1261 9.06439 15.1432 9.07456 15.1638 9.08473 15.1775 9.13222 15.1775 9.17631 15.1775 9.2204 15.1946 9.26789 15.2117 9.27806 15.2323 9.28823 15.246 9.33572 15.246 9.37981 15.246 9.4239 15.2631 9.47139 15.2802 9.48156 15.3008 9.49173 15.3145 9.53922 15.3145 9.58331 15.3145 9.6274 15.3316 9.67489 15.3488 9.68506 15.3693 9.69523 15.383 9.74272 15.383 9.78681 15.383 9.8309 15.4002 9.87839 15.4173 9.88856 15.4379 9.89873 15.4516 9.94622 15.4516 9.99031 15.4516 10.0344 15.4687 10.0819 15.4858 10.0921 15.5064 10.1022 15.5201 10.1429 15.5201 10.1802 15.5201 10.2141 15.5338 10.2718 15.5509 10.3057 15.5955 10.3871 16.0546 11.7981 16.0854 11.9405ZM19.8629 12.6C19.88 12.5898 19.9211 12.5288 19.952 12.4643 19.9828 12.3999 20.0205 12.3456 20.0376 12.3456 20.0547 12.3456 20.0685 12.3321 20.0685 12.3117 20.0685 12.2948 20.2398 12.0234 20.4453 11.7148 20.6543 11.4061 20.8222 11.1416 20.8222 11.128 20.8222 11.1111 20.8531 11.0738 20.8908 11.0399 20.9284 11.0059 20.9593 10.9652 20.9593 10.9517 20.9593 10.9347 21.1546 10.6294 21.3979 10.2699 21.6377 9.91043 21.8467 9.59161 21.8604 9.56448 21.9118 9.46952 21.9701 9.37794 22.3401 8.82849 22.5423 8.52662 22.7067 8.26886 22.7067 8.24852 22.7067 8.23156 22.7375 8.19086 22.7752 8.15694 22.8129 8.12303 22.8438 8.0857 22.8438 8.06875 22.8438 8.05519 22.9534 7.88561 23.0836 7.6889 23.2172 7.49216 23.3234 7.31581 23.3234 7.29545 23.3234 7.27511 23.3371 7.25815 23.3509 7.25815 23.368 7.25815 23.4022 7.21745 23.4297 7.16657 23.4571 7.11232 23.505 7.04108 23.5393 7.00716 23.5701 6.96986 23.5975 6.91899 23.5975 6.89524 23.5975 6.87149 23.6112 6.85115 23.625 6.85115 23.6421 6.85115 23.6763 6.81045 23.7038 6.75957 23.7277 6.70532 23.8545 6.50858 23.9813 6.31866 24.1115 6.12873 24.2143 5.96253 24.2143 5.95236 24.2143 5.94219 24.2451 5.90149 24.2828 5.86078 24.3205 5.82008 24.3513 5.76582 24.3513 5.74208 24.3513 5.71833 24.3685 5.69799 24.3856 5.69799 24.4061 5.69799 24.4199 5.67763 24.4199 5.6539 24.4199 5.63016 24.4644 5.52162 24.5227 5.4097 24.5775 5.29778 24.6254 5.17907 24.6254 5.14854 24.6254 5.11462 24.6426 5.08749 24.6597 5.08749 24.6803 5.08749 24.694 5.06713 24.694 5.04 24.694 5.0027 24.7933 4.78224 24.9372 4.50412 24.9544 4.4702 24.9681 4.41933 24.9681 4.3922 24.9681 4.36507 24.9852 4.34132 25.0023 4.34132 25.0229 4.34132 25.0366 4.32096 25.0366 4.29383 25.0366 4.25653 25.1359 4.03608 25.2799 3.75795 25.297 3.72404 25.3107 3.67316 25.3107 3.64603 25.3107 3.61891 25.3278 3.59516 25.345 3.59516 25.3655 3.59516 25.3792 3.5748 25.3792 3.54767 25.3792 3.52392 25.4272 3.40521 25.4854 3.2865 25.5471 3.1678 25.6054 3.03892 25.6191 3.00162 25.6465 2.93038 25.8452 2.49966 25.8966 2.40129 25.9137 2.36737 25.9274 2.3165 25.9274 2.28937 25.9274 2.26224 25.9446 2.2385 25.9617 2.2385 25.9822 2.2385 25.996 2.21813 25.996 2.191 25.996 2.1537 26.0953 1.93325 26.2392 1.65513 26.2564 1.62121 26.2701 1.57033 26.2701 1.54321 26.2701 1.51608 26.2872 1.49233 26.3043 1.49233 26.3249 1.49233 26.3386 1.47197 26.3386 1.44484 26.3386 1.40754 26.4379 1.18708 26.5819 0.90896 26.599 0.875044 26.6127 0.824169 26.6127 0.79704 26.6127 0.769911 26.6298 0.746165 26.647 0.746165 26.6675 0.746165 26.6812 0.725802 26.6812 0.698673 26.6812 0.671544 26.7086 0.59354 26.7463 0.51892 26.9313 0.145837 26.9622 0.0712159 26.9416 0.0372994 26.9245 0.0101705 25.9891 0 23.7346 0 20.5755 0 20.5516 0 20.5139 0.0678332 20.4933 0.105133 20.4625 0.257757 20.4453 0.406999 20.4076 0.69529 20.3563 1.09888 20.3083 1.45841 20.2089 2.191 20.1987 2.26224 20.1027 3.00162 20.0856 3.15084 20.0547 3.38149 20.0376 3.51037 20.0205 3.64263 19.9862 3.87666 19.9657 4.03608 19.9451 4.19549 19.9108 4.42271 19.8903 4.54482 19.8663 4.69066 19.8492 6.11178 19.8389 8.69282 19.832 11.2908 19.8389 12.6136 19.8629 12.6ZM7.68794 12.9064C7.71105 12.9056 7.70078 12.8869 7.66822 12.8496 7.63396 12.8157 7.60999 12.7682 7.60999 12.7479 7.60999 12.7241 7.59628 12.7072 7.57573 12.7072 7.5586 12.7072 7.54147 12.6902 7.54147 12.6699 7.54147 12.6529 7.48322 12.5478 7.41125 12.4426 7.33931 12.3375 7.26051 12.2086 7.23652 12.1577 7.20911 12.1034 7.17485 12.0628 7.15772 12.0628 7.144 12.0628 7.13031 12.0458 7.13031 12.0254 7.13031 12.0051 7.08919 11.9237 7.0378 11.8457 6.98296 11.7711 6.92129 11.6659 6.89389 11.6151 6.86648 11.5608 6.83222 11.5201 6.81509 11.5201 6.80137 11.5201 6.78768 11.5031 6.78768 11.4828 6.78768 11.4658 6.71571 11.3403 6.62664 11.2047 6.53754 11.069 6.43475 10.9096 6.40049 10.8485 6.36623 10.7875 6.28743 10.662 6.22234 10.5704 6.15723 10.4754 6.10242 10.3907 6.10242 10.3805 6.10242 10.3703 6.02704 10.2448 5.9311 10.1058 5.83859 9.96669 5.75979 9.8446 5.75979 9.83443 5.75979 9.82426 5.66383 9.70215 5.54735 9.5597 5.43085 9.41386 5.32464 9.28498 5.31093 9.26464 5.29724 9.24768 5.22527 9.16289 5.15333 9.0781 5.08136 8.99331 4.93062 8.81015 4.81756 8.6711 4.70447 8.53203 4.56742 8.36244 4.50919 8.29461 4.3961 8.16235 4.4064 8.1759 4.00208 7.67733 3.84789 7.4874 3.70057 7.31103 3.67658 7.28728 3.65261 7.26015 3.59092 7.18553 3.53953 7.1177 3.48813 7.04648 3.42646 6.97186 3.40247 6.94812 3.37851 6.92099 3.31682 6.84637 3.26542 6.77853 3.21403 6.7107 3.13867 6.61914 3.09755 6.57844 3.05643 6.53774 2.98104 6.44277 2.92623 6.37494 2.87484 6.3037 2.80973 6.2257 2.78574 6.20195 2.76177 6.17482 2.70008 6.1002 2.64869 6.03237 2.59729 5.96454 2.49794 5.84583 2.42942 5.77123 2.35745 5.69661 2.29922 5.62537 2.29922 5.60841 2.29922 5.59486 2.26152 5.54398 2.21698 5.4999 2.169 5.4524 2.0902 5.35744 2.03539 5.28961 1.984 5.21837 1.92575 5.14377 1.9052 5.12341 1.75785 4.96061 1.68249 4.86903 1.68249 4.85548 1.68249 4.84529 1.64822 4.8012 1.6071 4.75711 1.56257 4.71641 1.4906 4.63162 1.44265 4.56719 1.39467 4.50612 1.32956 4.42474 1.29188 4.38403 1.25762 4.34673 1.18909 4.25854 1.13769 4.19411 1.08972 4.12966 1.03149 4.05844 1.01092 4.03808 0.993786 4.01774 0.921842 3.93633 0.856734 3.85494 0.795065 3.77692 0.716264 3.68536 0.688858 3.65144 0.66143 3.62091 0.599761 3.5429 0.551806 3.48186 0.462709 3.36992 0.404457 3.2987 0.25713 3.13591 0.212593 3.08503 0.174912 3.03416 0.174912 3.02399 0.174912 2.99683 0.0584091 2.87136 0.0310031 2.87136 0.000157376 2.87136-0.00669973 9.16289 0.024146 9.27481 0.0378602 9.31551 0.0618264 9.34943 0.085815 9.34943 0.106386 9.34943 1.2953 9.9294 2.72751 10.6383 4.1597 11.3471 5.34863 11.9271 5.3726 11.9271 5.39317 11.9271 5.41716 11.9373 5.42399 11.9542 5.43771 11.9881 5.86258 12.1984 5.91739 12.1984 5.9448 12.1984 5.96537 12.2154 5.96537 12.2323 5.96537 12.2527 5.99619 12.2663 6.03389 12.2663 6.07157 12.2663 6.10242 12.2832 6.10242 12.3002 6.10242 12.3205 6.12297 12.3341 6.15037 12.3341 6.19149 12.3341 6.45874 12.4528 6.69173 12.5749 6.72599 12.5918 6.78424 12.6054 6.8185 12.6054 6.85621 12.6054 6.8973 12.6224 6.9076 12.6393 6.91788 12.6597 6.959 12.6733 6.99668 12.6733 7.03094 12.6733 7.08919 12.6868 7.12345 12.7038 7.22624 12.7546 7.34616 12.8055 7.5072 12.8564 7.60828 12.8903 7.66481 12.9073 7.68794 12.9064ZM23.6424 13.049C23.6655 13.0427 23.7101 13.0088 23.7837 12.9443 23.8523 12.8866 24.003 12.751 24.1229 12.6492 24.2394 12.5475 24.3662 12.4389 24.4005 12.4118 24.4381 12.3847 24.5307 12.3033 24.6095 12.2321 24.6883 12.1608 24.8219 12.0455 24.9075 11.9777 24.9898 11.9098 25.1131 11.8013 25.1817 11.7403 25.2468 11.6758 25.3701 11.5707 25.4558 11.5028 25.538 11.4316 25.6613 11.3265 25.7299 11.2654 25.795 11.201 25.9046 11.1094 25.9697 11.0619 26.0348 11.0111 26.1753 10.8889 26.2849 10.7872 26.3911 10.6888 26.5145 10.5803 26.559 10.5532 26.6002 10.5226 26.6892 10.448 26.7578 10.3836 26.8229 10.3226 26.9359 10.2208 27.0079 10.1631 27.0833 10.1021 27.2066 9.99694 27.282 9.92572 27.3608 9.85449 27.4841 9.74597 27.5561 9.68831 27.772 9.51194 27.8028 9.4814 27.8576 9.4068 27.885 9.36948 27.9741 9.25756 28.0597 9.15581 28.1454 9.05745 28.2688 8.91501 28.3339 8.83699 28.399 8.76239 28.464 8.68436 28.4778 8.66402 28.4915 8.64706 28.5668 8.55548 28.6491 8.46052 28.7313 8.36894 28.8067 8.27736 28.8204 8.25702 28.8341 8.24006 28.9129 8.1451 28.9917 8.05014 29.0739 7.95516 29.2178 7.78219 29.3104 7.66686 29.4063 7.55156 29.5502 7.38198 29.6358 7.28702 29.7215 7.19203 29.8037 7.0869 29.8209 7.05637 29.838 7.02585 29.9168 6.93428 29.9922 6.85627 30.071 6.77486 30.1464 6.68328 30.1635 6.65277 30.1841 6.62224 30.2492 6.53745 30.3143 6.46961 30.3794 6.3984 30.4582 6.30682 30.489 6.26611 30.5164 6.22203 30.5952 6.13045 30.6603 6.06261 30.722 5.9914 30.8008 5.89982 30.8282 5.85911 30.859 5.81503 30.9413 5.72007 31.0132 5.64544 31.0852 5.57082 31.1434 5.4962 31.1434 5.47586 31.1469 5.4589 31.2222 5.36732 31.3147 5.27236 31.4107 5.18078 31.4861 5.0892 31.4861 5.07565 31.4861 5.06207 31.5409 4.98745 31.6094 4.91624 31.6779 4.84162 31.7602 4.74665 31.791 4.70595 31.8184 4.66186 31.8801 4.59065 31.9212 4.54316L32 4.45836 31.9931 2.23683 31.9829 0.0152892 30.2868 0.00511865C29.3549 0.00171363 28.5566 0.00511865 28.5154 0.0152892 28.4435 0.0322475 28.3339 0.198448 28.3339 0.29341 28.3339 0.317156 28.3202 0.337497 28.2996 0.337497 28.2825 0.337497 28.2653 0.357838 28.2653 0.384989 28.2653 0.412118 28.2379 0.490122 28.2002 0.564743 28.166 0.635958 28.1043 0.761454 28.0666 0.846246 28.0289 0.931037 27.9501 1.10741 27.8884 1.23629 27.8268 1.36857 27.7514 1.53475 27.7171 1.60937 27.6829 1.68399 27.6143 1.83321 27.5664 1.94175 27.5184 2.0469 27.4362 2.22325 27.3882 2.33179 27.3402 2.43694 27.2683 2.58957 27.234 2.67095 27.1998 2.74896 27.1381 2.87786 27.1038 2.95925 27.0661 3.03725 26.9873 3.21024 26.9291 3.33912 26.8674 3.4714 26.7749 3.67149 26.7201 3.78682 26.6652 3.90212 26.6207 4.00387 26.6207 4.01406 26.6207 4.02424 26.5522 4.17346 26.4665 4.34983 26.3809 4.5262 26.3123 4.67882 26.3123 4.68899 26.3123 4.69916 26.2644 4.81111 26.2027 4.93998 26.141 5.06548 26.0896 5.1774 26.0896 5.18757 26.0862 5.19774 26.0417 5.29611 25.9903 5.40803 25.9354 5.51995 25.8909 5.62849 25.8875 5.64544 25.884 5.66579 25.8669 5.70311 25.8498 5.73024 25.8326 5.75736 25.8155 5.7879 25.8155 5.79807 25.8155 5.80824 25.7573 5.93374 25.6853 6.07957 25.6168 6.22881 25.5585 6.37465 25.5585 6.41195 25.5585 6.44927 25.5449 6.50353 25.5277 6.53745 25.4832 6.62564 25.4215 6.82914 25.4215 6.89357 25.4215 6.92749 25.4078 6.97836 25.3907 7.01228 25.3461 7.10048 25.2844 7.30398 25.2844 7.3684 25.2844 7.40232 25.2708 7.45319 25.2536 7.48711 25.2091 7.57531 25.1474 7.77881 25.1474 7.84324 25.1474 7.87715 25.1337 7.92803 25.1166 7.96194 25.072 8.05014 25.0103 8.25364 25.0103 8.31807 25.0103 8.35198 24.9966 8.40286 24.9795 8.43678 24.935 8.52497 24.8733 8.72847 24.8733 8.7929 24.8733 8.82682 24.8596 8.87769 24.8425 8.91161 24.7979 8.99981 24.7362 9.2033 24.7362 9.26773 24.7362 9.30165 24.7225 9.35252 24.7054 9.38644 24.6609 9.47464 24.5992 9.67814 24.5992 9.74257 24.5992 9.77648 24.5855 9.82736 24.5684 9.86127 24.5238 9.94947 24.4621 10.153 24.4621 10.2174 24.4621 10.2513 24.4484 10.3022 24.4313 10.3361 24.3867 10.4243 24.3251 10.6278 24.3251 10.6922 24.3251 10.7261 24.3114 10.777 24.2943 10.8109 24.2497 10.8991 24.188 11.1026 24.188 11.1671 24.188 11.201 24.1743 11.2519 24.1572 11.2858 24.1126 11.374 24.051 11.5775 24.051 11.6419 24.051 11.6758 24.0373 11.7267 24.0201 11.7606 23.9722 11.859 23.9139 12.0557 23.9139 12.1337 23.9139 12.171 23.9002 12.2151 23.8797 12.2253 23.8625 12.2354 23.8454 12.2829 23.8454 12.327 23.8454 12.3711 23.8317 12.4186 23.8111 12.4288 23.794 12.4389 23.7769 12.5 23.7769 12.5644 23.7769 12.6289 23.7632 12.6899 23.7426 12.7001 23.7255 12.7103 23.7083 12.7578 23.7083 12.8018 23.7083 12.8459 23.6947 12.89 23.6775 12.9002 23.6604 12.9104 23.6398 12.9511 23.6295 12.9884 23.6175 13.0342 23.6193 13.0554 23.6424 13.049ZM26.3522 14.783C26.3625 14.7999 26.503 14.749 26.664 14.6676 26.825 14.5896 26.9553 14.532 26.9553 14.5421 26.9553 14.5523 26.9861 14.5354 27.0238 14.5014 27.0615 14.4675 27.0923 14.4506 27.0923 14.4608 27.0923 14.4743 27.1505 14.454 27.2225 14.4166 27.3698 14.342 27.5103 14.2878 27.5412 14.2946 27.5549 14.2946 27.596 14.2674 27.6371 14.2335 27.6782 14.1962 27.709 14.1792 27.709 14.1894 27.709 14.2539 28.569 13.7146 28.7027 13.5687 28.7129 13.5586 28.7746 13.5111 28.8397 13.467 28.9048 13.4229 28.9802 13.3618 29.0076 13.3381 29.035 13.311 29.2063 13.1787 29.3914 13.043 29.5729 12.9074 29.8196 12.7208 29.9396 12.6293 30.0595 12.5377 30.313 12.3444 30.5015 12.2019 30.6899 12.0561 30.8681 11.9204 30.8955 11.8966 30.9229 11.8729 31.0017 11.8186 31.0668 11.7712 31.1319 11.7271 31.1936 11.6796 31.2039 11.6694 31.2142 11.6592 31.3135 11.5846 31.4266 11.4998 31.5397 11.415 31.6493 11.3336 31.6698 11.3133 31.6938 11.2963 31.7726 11.2285 31.8514 11.1674L31.9919 11.0521 31.9919 8.81024 31.9885 6.56495 31.896 6.67011C31.7658 6.81595 31.6561 6.94482 31.478 7.15849 31.3923 7.26024 31.3032 7.3654 31.2792 7.38914 31.2553 7.41627 31.1936 7.49089 31.1422 7.55873 31.0908 7.62994 30.9983 7.74186 30.9332 7.8097 30.8681 7.88094 30.7927 7.97249 30.7619 8.0132 30.7345 8.05728 30.6557 8.14886 30.5906 8.2167 30.5289 8.28793 30.4501 8.37949 30.4192 8.4202 30.3918 8.46428 30.313 8.55586 30.2479 8.6237 30.1863 8.69493 30.1075 8.78649 30.0766 8.8272 30.0492 8.87128 30.0081 8.92216 29.9875 8.94252 29.967 8.96286 29.895 9.04427 29.8299 9.12566 29.7682 9.20368 29.686 9.30203 29.6517 9.33935 29.6141 9.38003 29.5387 9.47161 29.4804 9.54285 29.34 9.71243 29.2646 9.80061 29.1721 9.90574 29.1275 9.95323 29.0693 10.0244 29.0419 10.0686 29.011 10.1092 28.9357 10.2008 28.8706 10.2721 28.6855 10.4721 28.5553 10.6519 28.4423 10.8724 28.384 10.9843 28.2847 11.1674 28.223 11.2794 28.1613 11.3913 28.0311 11.6355 27.9352 11.822 27.8392 12.0086 27.7536 12.168 27.7433 12.1782 27.7227 12.1985 27.6508 12.3342 27.3664 12.8734 27.2602 13.0803 27.13 13.3245 27.0786 13.4161 27.0238 13.5111 26.8764 13.7892 26.7428 14.0402 26.455 14.5896 26.4345 14.6236 26.3796 14.6948 26.3522 14.7253 26.3419 14.766 26.3522 14.783ZM0.126306 15.2705C0.354524 15.2711 1.10939 15.2279 3.70482 15.0778 4.03373 15.0609 4.46544 15.0371 4.66418 15.0269 4.8629 15.0168 5.28775 14.993 5.60641 14.9761 6.13405 14.9456 7.34353 14.8777 7.41892 14.8743 7.45662 14.8743 7.37096 14.7726 7.32984 14.7726 7.31271 14.7726 7.26817 14.7421 7.22705 14.7047 7.18593 14.6674 7.13112 14.6369 7.10713 14.6369 7.08314 14.6369 7.06259 14.6234 7.06259 14.6098 7.06259 14.5928 7.02147 14.5589 6.97008 14.5318 6.91525 14.5046 6.8433 14.4572 6.80904 14.4266 6.77136 14.3927 6.71996 14.3656 6.69597 14.3656 6.67199 14.3656 6.65144 14.352 6.65144 14.3384 6.65144 14.3215 6.61032 14.2876 6.55892 14.2604 6.50409 14.2333 6.43215 14.1858 6.39788 14.1553 6.3602 14.1214 6.30881 14.0942 6.28482 14.0942 6.26083 14.0942 6.24028 14.0807 6.24028 14.0671 6.24028 14.0502 6.19916 14.0162 6.14777 13.9891 6.09293 13.962 6.02099 13.9145 5.98673 13.884 5.94905 13.8501 5.89765 13.8229 5.87366 13.8229 5.84967 13.8229 5.82912 13.8094 5.82912 13.7958 5.82912 13.7788 5.788 13.7449 5.73661 13.7178 5.68178 13.6906 5.60983 13.6432 5.57557 13.6126 5.53789 13.5787 5.48649 13.5516 5.46251 13.5516 5.43852 13.5516 5.41797 13.538 5.41797 13.5244 5.41797 13.5075 5.37685 13.4736 5.32545 13.4464 5.27062 13.4193 5.19868 13.3718 5.16441 13.3413 5.12673 13.3074 5.07534 13.2802 5.05135 13.2802 5.02736 13.2802 5.00681 13.2667 5.00681 13.2497 5.00681 13.2328 4.1331 12.7884 3.06409 12.2627 1.99166 11.7404 0.874674 11.191 0.580021 11.0417 0.285346 10.8959 0.0352298 10.7874 0.0249554 10.7976-0.00245057 10.8247 0.000966739 15.2304 0.0249554 15.2576 0.0326668 15.2652 0.0502255 15.2703 0.126306 15.2705ZM31.988 16.5921 31.988 14.6759C31.988 13.621 31.9777 12.7595 31.9641 12.7595 31.9469 12.7595 31.8887 12.8036 31.827 12.8545 31.6591 13.0004 31.6008 13.0444 31.4741 13.1326 31.409 13.1767 31.3473 13.2242 31.337 13.2344 31.3267 13.2446 31.2651 13.292 31.2 13.3361 31.1349 13.3802 31.0629 13.4345 31.0424 13.4549 31.0218 13.4718 30.9533 13.5261 30.8916 13.5736 30.8299 13.621 30.7614 13.6753 30.7409 13.6923 30.7203 13.7126 30.6483 13.7669 30.5833 13.811 30.5181 13.8551 30.4565 13.9025 30.4462 13.9127 30.4359 13.9229 30.3742 13.9704 30.3091 14.0145 30.244 14.0586 30.1721 14.1128 30.1515 14.1332 30.0522 14.218 29.9631 14.2858 29.9459 14.2858 29.9323 14.2858 29.898 14.3129 29.8671 14.3469 29.8363 14.3808 29.7575 14.4452 29.6924 14.4893 29.6273 14.5334 29.5656 14.5809 29.5554 14.5911 29.5451 14.6012 29.4834 14.6487 29.4183 14.6928 29.3532 14.7369 29.2813 14.7912 29.2607 14.8115 29.1716 14.8895 29.0722 14.9641 29.0585 14.9641 29.0106 14.9641 28.829 15.1371 28.3596 15.6391 28.178 15.8358 27.9484 16.0834 27.8456 16.1919L27.6606 16.3886 27.9484 16.3886C28.106 16.3886 28.4452 16.4022 28.6988 16.4191 28.9523 16.4361 29.5485 16.47 30.0179 16.4904 30.4907 16.5141 31.0766 16.5413 31.3199 16.5548 31.5666 16.5718 31.8167 16.5854 31.8784 16.5887ZM6.45368 32 7.04987 32C7.37879 32 7.67002 31.9898 7.69743 31.9797 7.72827 31.9695 7.76939 31.8949 7.79338 31.8101 7.81735 31.7287 7.85161 31.6608 7.86533 31.6608 7.87904 31.6608 7.89273 31.6405 7.89273 31.6134 7.89273 31.5896 7.9544 31.4506 8.02978 31.3047 8.10517 31.1589 8.16684 31.013 8.16684 30.9791 8.16684 30.9418 8.18397 30.9147 8.2011 30.9147 8.22167 30.9147 8.23536 30.8842 8.23536 30.8468 8.23536 30.8095 8.25249 30.779 8.26962 30.779 8.2902 30.779 8.30389 30.7587 8.30389 30.7349 8.30389 30.7112 8.36556 30.5721 8.44094 30.4229 8.51632 30.2737 8.57799 30.1244 8.57799 30.0939 8.57799 30.06 8.59512 30.0328 8.61226 30.0328 8.63283 30.0328 8.64652 30.0125 8.64652 29.9854 8.64652 29.9616 8.70819 29.8226 8.78357 29.6767 8.85895 29.5309 8.92062 29.385 8.92062 29.3511 8.92062 29.3138 8.93775 29.2867 8.95489 29.2867 8.97546 29.2867 8.98915 29.2562 8.98915 29.2188 8.98915 29.1815 9.00628 29.151 9.02341 29.151 9.04398 29.151 9.05767 29.1307 9.05767 29.1069 9.05767 29.0832 9.11934 28.9441 9.19473 28.7949 9.27011 28.6457 9.33178 28.4964 9.33178 28.4659 9.33178 28.432 9.34891 28.4048 9.36604 28.4048 9.38661 28.4048 9.4003 28.3845 9.4003 28.3642 9.4003 28.3268 9.57506 27.947 9.71211 27.6858 9.72924 27.6519 9.74294 27.601 9.74294 27.5739 9.74294 27.5468 9.76007 27.523 9.7772 27.523 9.79777 27.523 9.81146 27.5027 9.81146 27.4755 9.81146 27.4382 9.91083 27.2178 10.0547 26.9397 10.0719 26.9057 10.0856 26.8549 10.0856 26.8277 10.0856 26.8006 10.1027 26.7768 10.1198 26.7768 10.1404 26.7768 10.1541 26.7565 10.1541 26.7362 10.1541 26.6988 10.3288 26.319 10.4659 26.0578 10.483 26.0239 10.4967 25.973 10.4967 25.9459 10.4967 25.9188 10.5139 25.895 10.531 25.895 10.5516 25.895 10.5652 25.8713 10.5652 25.8441 10.5652 25.7593 10.692 25.7865 10.7606 25.8916 10.9216 26.1392 11.5897 26.8379 11.8775 27.0618 11.946 27.1126 12.0043 27.1737 12.0043 27.1906 12.0043 27.2313 11.8912 27.4925 11.6514 27.9978 11.5863 28.1369 11.5041 28.3133 11.4732 28.3879 11.4424 28.4625 11.3567 28.6457 11.2848 28.7949 11.2128 28.9441 11.1203 29.1442 11.0792 29.2358 11.0381 29.3308 10.9593 29.497 10.9079 29.6089 10.8531 29.7208 10.7743 29.8972 10.7263 29.9989 10.6783 30.1007 10.6064 30.2635 10.5618 30.355 10.5173 30.45 10.483 30.5314 10.4796 30.5416 10.4796 30.5518 10.4351 30.6467 10.3837 30.7519 10.2911 30.9452 10.2192 31.1216 10.2192 31.1521 10.2192 31.1623 10.1918 31.1962 10.1609 31.2335 10.1301 31.2674 10.1096 31.2979 10.1164 31.3013 10.1267 31.3013 10.0684 31.4404 9.98622 31.6066 9.90739 31.7728 9.85258 31.9322 9.85944 31.9559 9.87313 31.9898 10.0136 32 10.4899 32L11.0998 32 11.1751 31.861C11.2162 31.7863 11.2505 31.7015 11.2505 31.6744 11.2505 31.6473 11.2676 31.6269 11.2848 31.6269 11.3053 31.6269 11.319 31.6066 11.319 31.5794 11.319 31.5557 11.3636 31.4438 11.4184 31.3352 11.4732 31.2267 11.5486 31.0673 11.5863 30.9825 11.624 30.8977 11.7028 30.7281 11.761 30.6027 11.8193 30.4738 11.9152 30.2703 11.9735 30.1448 12.0317 30.0159 12.1105 29.8565 12.1448 29.7852 12.1825 29.7106 12.2099 29.6326 12.2099 29.6055 12.2099 29.5784 12.227 29.558 12.2441 29.558 12.2647 29.558 12.2784 29.5377 12.2784 29.5105 12.2784 29.4834 12.3092 29.4054 12.3435 29.3308 12.3812 29.2595 12.46 29.0967 12.5217 28.9645 12.6656 28.649 12.8198 28.3167 12.8986 28.1573 12.9363 28.0826 12.9637 28.0046 12.9637 27.9775 12.9637 27.9097 13.0973 27.9198 13.2378 27.9978 13.3029 28.0352 13.4125 28.0894 13.4776 28.12 13.8785 28.3031 14.0532 28.3811 14.1217 28.4082 14.1629 28.4252 14.2314 28.4523 14.2759 28.4693 14.3171 28.4896 14.3822 28.5066 14.4198 28.5134 14.5261 28.5303 14.5192 28.6423 14.4027 28.8593 14.3479 28.9679 14.2999 29.0866 14.2999 29.1205 14.2999 29.1544 14.2862 29.1849 14.2657 29.1849 14.2485 29.1849 14.2314 29.2155 14.2314 29.2528 14.2314 29.2901 14.2177 29.3206 14.1971 29.3206 14.18 29.3206 14.1629 29.341 14.1629 29.3681 14.1629 29.4054 14.0635 29.6258 13.9196 29.904 13.9025 29.9379 13.8888 29.9887 13.8888 30.0159 13.8888 30.043 13.8751 30.0668 13.8545 30.0668 13.8374 30.0668 13.8202 30.0871 13.8202 30.1142 13.8202 30.138 13.7723 30.2567 13.714 30.3754 13.6558 30.4941 13.577 30.6501 13.5427 30.7214 13.505 30.796 13.4776 30.874 13.4776 30.9011 13.4776 30.9282 13.4639 30.9486 13.4433 30.9486 13.4262 30.9486 13.4091 30.9689 13.4091 30.9961 13.4091 31.0198 13.3611 31.1385 13.3029 31.2572 13.2446 31.3759 13.1658 31.532 13.1316 31.6032 13.0939 31.6778 13.0665 31.7558 13.0665 31.7829 13.0665 31.8101 13.0528 31.8304 13.0322 31.8304 13.0151 31.8304 12.9979 31.8677 12.9979 31.9152L12.9979 32 13.6318 32 14.2622 32 14.3205 31.8779C14.3548 31.8101 14.3787 31.7355 14.3787 31.7083 14.3787 31.6812 14.3924 31.6608 14.4096 31.6608 14.4233 31.6608 14.437 31.6405 14.437 31.6167 14.437 31.5964 14.5124 31.4234 14.6083 31.2369 14.7008 31.0503 14.7796 30.8706 14.7796 30.8401 14.7796 30.8062 14.7967 30.779 14.8139 30.779 14.8344 30.779 14.8481 30.7587 14.8481 30.7315 14.8481 30.7078 14.9098 30.5687 14.9852 30.4229 15.0606 30.277 15.1222 30.1312 15.1222 30.0973 15.1222 30.06 15.1394 30.0328 15.1565 30.0328 15.1771 30.0328 15.1908 30.0023 15.1908 29.965 15.1908 29.9277 15.2079 29.8972 15.225 29.8972 15.2456 29.8972 15.2593 29.8768 15.2593 29.8497 15.2593 29.8124 15.3587 29.5919 15.5026 29.3138 15.5197 29.2799 15.5334 29.229 15.5334 29.2019 15.5334 29.1747 15.5505 29.151 15.5677 29.151 15.5882 29.151 15.6019 29.1307 15.6019 29.1069 15.6019 29.0221 15.6876 28.8831 15.7492 28.8661 15.7835 28.8593 15.8589 28.8661 15.9206 28.8831 15.9823 28.9034 16.39 28.9272 16.8285 28.9373L17.6269 28.9577 17.6029 29.0628C17.5892 29.1205 17.5686 29.1883 17.5549 29.2188 17.4042 29.5071 17.178 30.0023 17.178 30.0464 17.178 30.0769 17.1643 30.1007 17.1438 30.1007 17.1266 30.1007 17.1095 30.121 17.1095 30.1414 17.1095 30.1651 17.0581 30.2906 16.993 30.4229 16.9279 30.5518 16.8491 30.7214 16.8183 30.796 16.784 30.8706 16.6846 31.0877 16.5921 31.2742 16.4996 31.4641 16.4242 31.6439 16.4242 31.6744 16.4242 31.7049 16.4105 31.7287 16.39 31.7287 16.3728 31.7287 16.3557 31.7592 16.3557 31.7931 16.3557 31.8304 16.342 31.8711 16.3214 31.8813 16.3043 31.8915 16.2872 31.9254 16.2872 31.9525 16.2872 31.9932 16.39 32 16.9176 32L17.5481 32 17.6714 31.7524C17.7399 31.6167 17.7948 31.4879 17.7948 31.4641 17.7948 31.4438 17.8119 31.4234 17.829 31.4234 17.8496 31.4234 17.8633 31.3929 17.8633 31.359 17.8633 31.3217 17.8804 31.281 17.8975 31.2708 17.9181 31.2606 17.9318 31.2199 17.9318 31.1826 17.9318 31.1487 17.9489 31.1182 17.9661 31.1182 17.9866 31.1182 18.0003 31.0978 18.0003 31.0707 18.0003 31.0334 18.0997 30.8129 18.2436 30.5348 18.2607 30.5009 18.2744 30.45 18.2744 30.4229 18.2744 30.3957 18.2916 30.372 18.3087 30.372 18.3293 30.372 18.343 30.3517 18.343 30.3245 18.343 30.2974 18.3909 30.1889 18.4457 30.0837 18.504 29.9786 18.5485 29.87 18.5485 29.8429 18.5485 29.8158 18.5657 29.7954 18.5828 29.7954 18.6034 29.7954 18.6171 29.7649 18.6171 29.731 18.6171 29.6937 18.6342 29.653 18.6513 29.6428 18.6719 29.6326 18.6856 29.5919 18.6856 29.5546 18.6856 29.5207 18.7027 29.4902 18.7199 29.4902 18.7404 29.4902 18.7541 29.4698 18.7541 29.4427 18.7541 29.4054 18.8535 29.1849 18.9974 28.9068 19.0145 28.8729 19.0282 28.8322 19.0282 28.8118 19.0282 28.7576 19.1413 28.6423 19.1961 28.6423 19.2441 28.6423 19.5799 28.5371 19.7409 28.4693 19.782 28.4523 19.8574 28.4218 19.9122 28.4015 19.9636 28.3811 20.0321 28.3506 20.063 28.3336 20.0972 28.3167 20.1486 28.3031 20.176 28.3031 20.2034 28.3031 20.2274 28.2895 20.2274 28.2692 20.2274 28.2522 20.248 28.2353 20.2754 28.2353 20.3199 28.2353 20.6386 28.0792 21.0258 27.8656 21.132 27.8045 21.2348 27.7638 21.2519 27.774 21.2896 27.7977 21.2588 27.9639 21.2176 27.9639 21.2005 27.9639 21.1868 27.9843 21.1868 28.008 21.1868 28.0318 21.1251 28.1708 21.0497 28.32 20.9744 28.4693 20.9127 28.6185 20.9127 28.6525 20.9127 28.683 20.899 28.7101 20.8784 28.7101 20.8613 28.7101 20.8442 28.7305 20.8442 28.7542 20.8442 28.7881 20.6694 29.168 20.5324 29.4291 20.5152 29.463 20.5015 29.5139 20.5015 29.541 20.5015 29.5682 20.4878 29.5919 20.4673 29.5919 20.4501 29.5919 20.433 29.6123 20.433 29.6326 20.433 29.6564 20.3816 29.7819 20.3165 29.9141 20.2514 30.043 20.1726 30.2126 20.1418 30.2872 20.1109 30.3618 20.0219 30.5518 19.9465 30.7112 19.8711 30.8706 19.7957 31.03 19.782 31.0673 19.7683 31.1046 19.6895 31.2742 19.6107 31.4404 19.5319 31.61 19.4497 31.7795 19.4291 31.8202 19.3503 31.9898 19.3914 32 20.0253 32 20.5255 32 20.6249 31.9898 20.6797 31.9424 20.714 31.9118 20.7414 31.8711 20.7414 31.8508 20.7414 31.8304 20.7928 31.7083 20.8579 31.576 20.923 31.4472 21.0052 31.2708 21.0429 31.186 21.0806 31.1012 21.1457 30.9588 21.1902 30.8638 21.2348 30.7722 21.269 30.684 21.269 30.6705 21.2724 30.6569 21.293 30.6264 21.317 30.6027 21.3376 30.5823 21.3581 30.545 21.3581 30.5246 21.3581 30.5009 21.3787 30.4398 21.4061 30.3856 21.4883 30.216 21.6117 29.948 21.6151 29.9311 21.6151 29.9209 21.6836 29.7785 21.7624 29.6157 21.8412 29.4495 21.9063 29.307 21.9063 29.2969 21.9063 29.2867 21.9646 29.1544 22.04 29.0018 22.1119 28.8525 22.1976 28.666 22.2318 28.5914 22.3552 28.3099 22.4134 28.1776 22.5231 27.947 22.5847 27.8181 22.6772 27.6146 22.7321 27.4993 22.7869 27.3806 22.8794 27.1838 22.9376 27.0584 22.9959 26.9295 23.0713 26.7667 23.1055 26.6921 23.174 26.5394 23.4379 25.9764 23.4859 25.8882 23.503 25.8543 23.5167 25.8035 23.5167 25.7763 23.5167 25.7492 23.5338 25.7254 23.5509 25.7254 23.5715 25.7254 23.5852 25.7051 23.5852 25.678 23.5852 25.6542 23.6297 25.5423 23.6846 25.4338 23.7394 25.3252 23.8148 25.1658 23.8525 25.081 23.8902 24.9962 23.9998 24.7622 24.0992 24.5553 24.1985 24.3518 24.291 24.1517 24.3047 24.1144 24.3184 24.0771 24.363 23.9753 24.4041 23.8872 24.4452 23.799 24.476 23.6938 24.476 23.6599 24.476 23.6226 24.4932 23.5819 24.5103 23.5717 24.5309 23.5616 24.5446 23.5141 24.5446 23.4666 24.5446 23.4225 24.5583 23.3581 24.5754 23.3241 24.5925 23.2936 24.6234 23.1986 24.6474 23.1139 24.6679 23.0291 24.7022 22.9138 24.7193 22.8561 24.7365 22.7984 24.7502 22.7204 24.7502 22.6797 24.7502 22.639 24.7639 22.5407 24.781 22.4627 24.8598 22.1099 24.8906 21.7572 24.8906 21.1263 24.8872 20.4141 24.8324 19.9257 24.6782 19.2813 24.6611 19.1965 24.6337 19.088 24.6234 19.0337 24.6131 18.9828 24.5925 18.9319 24.5754 18.9218 24.5583 18.9116 24.5446 18.8675 24.5446 18.8234 24.5446 18.7793 24.5309 18.7318 24.5103 18.7217 24.4932 18.7115 24.476 18.664 24.476 18.6199 24.476 18.5758 24.4624 18.5283 24.4418 18.5182 24.4247 18.508 24.4075 18.4673 24.4075 18.4334 24.4075 18.3961 24.3767 18.3147 24.339 18.2468 24.3013 18.179 24.2705 18.1078 24.2705 18.084 24.2705 18.0603 24.1917 17.8907 24.0957 17.7042 23.9998 17.5176 23.9038 17.3311 23.8799 17.2904 23.8593 17.2463 23.8319 17.2124 23.8182 17.2124 23.8011 17.2124 23.7908 17.1954 23.7908 17.1751 23.7908 17.1547 23.7497 17.0767 23.6983 16.9987 23.6435 16.9207 23.5886 16.8325 23.5681 16.802 23.4619 16.6324 23.3454 16.4696 23.3042 16.4289 23.2768 16.4018 23.2392 16.3577 23.222 16.3238 23.1398 16.1779 22.3277 15.313 22.2729 15.313 22.2592 15.313 22.2113 15.2791 22.1667 15.2384 22.0331 15.1061 21.8721 14.9739 21.8515 14.9739 21.8412 14.9739 21.8138 14.9535 21.7864 14.9332 21.7042 14.8518 21.5979 14.7704 21.5774 14.7704 21.5705 14.7704 21.5294 14.7399 21.4883 14.7025 21.4472 14.6652 21.3924 14.6347 21.3684 14.6347 21.3444 14.6347 21.3238 14.6211 21.3238 14.6076 21.3238 14.5906 21.2827 14.5567 21.2313 14.533 21.1765 14.5058 21.0909 14.4549 21.036 14.4176 20.899 14.3261 20.0184 13.8885 19.9705 13.8885 19.9499 13.8885 19.8677 13.858 19.7889 13.8207 19.7135 13.7834 19.6244 13.7529 19.597 13.7529 19.5696 13.7529 19.5387 13.7393 19.5285 13.7224 19.5182 13.7054 19.4668 13.685 19.4154 13.6749 19.3606 13.6647 19.2578 13.6376 19.1824 13.6172 18.874 13.529 18.6308 13.4782 18.1374 13.3934 17.7468 13.3255 16.3146 13.3086 16.0131 13.3696 15.9103 13.39 15.7081 13.4239 15.5677 13.4476 15.4272 13.468 15.2833 13.5019 15.2524 13.5189 15.2182 13.5358 15.1668 13.5494 15.1325 13.5494 15.1017 13.5494 15.0297 13.5629 14.9715 13.5833 14.9132 13.6002 14.7933 13.6342 14.7042 13.6579 14.6117 13.6817 14.5398 13.7122 14.5398 13.7257 14.5398 13.7393 14.5021 13.7529 14.4541 13.7529 14.4061 13.7529 14.3376 13.7698 14.2999 13.7868 14.2622 13.8071 14.2006 13.8377 14.1629 13.8546 14.1252 13.875 14.0704 13.8885 14.0429 13.8885 14.0155 13.8885 13.9916 13.9055 13.9916 13.9225 13.9916 13.9428 13.9641 13.9564 13.9299 13.9564 13.8579 13.9564 13.1007 14.3295 13.0322 14.3973 13.0219 14.4075 12.9705 14.438 12.9123 14.4651 12.8575 14.4923 12.7787 14.5431 12.7444 14.5771 12.7067 14.6076 12.6553 14.6347 12.6313 14.6347 12.6073 14.6347 12.5868 14.6483 12.5868 14.6619 12.5868 14.6788 12.5456 14.7127 12.4943 14.7399 12.4394 14.767 12.3778 14.8077 12.3538 14.8314 12.3264 14.8552 12.251 14.9162 12.1825 14.9671 12.1105 15.018 12.0386 15.0756 12.018 15.0926 11.9974 15.1129 11.8981 15.1943 11.7987 15.2791 11.552 15.486 11.343 15.6895 11.0792 15.9914 10.9559 16.1304 10.8394 16.2661 10.8154 16.2898 10.7914 16.3136 10.7708 16.3475 10.7708 16.3577 10.7708 16.3712 10.7366 16.4187 10.692 16.4662 10.579 16.5917 10.2329 17.1242 10.065 17.4328 10.017 17.5278 9.95537 17.6262 9.93138 17.6533 9.856 17.7415 9.57506 18.3214 9.59561 18.3452 9.60932 18.3554 9.59903 18.3655 9.57848 18.3655 9.55449 18.3655 9.53736 18.3961 9.53736 18.4334 9.53736 18.4707 9.52367 18.5012 9.50309 18.5012 9.48596 18.5012 9.46883 18.5216 9.46883 18.5453 9.46883 18.5656 9.35919 18.8064 9.22557 19.0778 8.71504 20.1021 8.64652 20.2479 8.64652 20.292 8.64652 20.3123 8.63283 20.3327 8.61226 20.3327 8.59512 20.3327 8.57799 20.3632 8.57799 20.4005 8.57799 20.4378 8.5643 20.4684 8.54373 20.4684 8.5266 20.4684 8.50947 20.4887 8.50947 20.5125 8.50947 20.5396 8.41695 20.7397 8.30389 20.9601 8.19082 21.1806 8.09831 21.3807 8.09831 21.4079 8.09831 21.4316 8.08462 21.4519 8.06405 21.4519 8.04692 21.4519 8.02978 21.4723 8.02978 21.496 8.02978 21.5232 7.93727 21.7233 7.8242 21.9437 7.71114 22.1642 7.61863 22.3643 7.61863 22.3914 7.61863 22.4152 7.60494 22.4355 7.58436 22.4355 7.56723 22.4355 7.5501 22.4661 7.5501 22.5034 7.5501 22.5407 7.53641 22.5712 7.51584 22.5712 7.49871 22.5712 7.48157 22.5915 7.48157 22.6187 7.48157 22.6424 7.41991 22.7815 7.34452 22.9273 7.26914 23.0732 7.20747 23.2122 7.20747 23.236 7.20747 23.2631 7.19378 23.2834 7.17321 23.2834 7.15608 23.2834 7.13894 23.314 7.13894 23.3513 7.13894 23.3886 7.12525 23.4191 7.10468 23.4191 7.08755 23.4191 7.07042 23.4395 7.07042 23.4632 7.07042 23.4869 6.96421 23.721 6.83058 23.9787 6.70038 24.2365 6.59073 24.4705 6.59073 24.4943 6.59073 24.518 6.57704 24.5383 6.55647 24.5383 6.53934 24.5383 6.52221 24.5689 6.52221 24.6062 6.52221 24.6435 6.50852 24.674 6.48795 24.674 6.47081 24.674 6.45368 24.6944 6.45368 24.7215 6.45368 24.7486 6.40915 24.8572 6.35089 24.9623 6.29608 25.0675 6.2481 25.176 6.2481 25.2031 6.2481 25.2303 6.23441 25.2506 6.21384 25.2506 6.19671 25.2506 6.17958 25.2811 6.17958 25.3184 6.17958 25.3558 6.16589 25.3863 6.14532 25.3863 6.12818 25.3863 6.11105 25.4066 6.11105 25.4304 6.11105 25.4507 5.97058 25.7526 5.79927 26.0985 5.62795 26.4445 5.45664 26.7836 5.42237 26.8549 5.38811 26.9295 5.35727 27.0075 5.35727 27.0346 5.35727 27.0618 5.34357 27.0821 5.323 27.0821 5.30587 27.0821 5.28874 27.1126 5.28874 27.1499 5.28874 27.1872 5.27505 27.2178 5.25448 27.2178 5.23734 27.2178 5.22021 27.2381 5.22021 27.2619 5.22021 27.2822 5.06603 27.6146 4.87417 27.9978 4.68228 28.3811 4.48356 28.7847 4.42875 28.8932 4.37391 29.0018 4.32937 29.1137 4.32937 29.1374 4.32937 29.1646 4.31568 29.1849 4.29511 29.1849 4.27798 29.1849 4.26085 29.2053 4.26085 29.2256 4.26085 29.2494 4.11694 29.558 3.93879 29.9141 3.76062 30.2669 3.5516 30.6976 3.4728 30.8638 3.394 31.0334 3.24323 31.3386 3.14044 31.5489 3.03765 31.7592 2.96229 31.9457 2.97598 31.9661 2.9897 31.9898 3.20213 32 3.62012 31.9932L4.24372 31.983 4.51782 31.437C4.66859 31.1351 4.86389 30.7383 4.95297 30.5552 5.04204 30.372 5.20308 30.0362 5.31273 29.8124 5.41893 29.5885 5.51145 29.3986 5.51145 29.3884 5.51145 29.3783 5.62451 29.151 5.75815 28.8797 5.89178 28.6083 6.08023 28.2217 6.17958 28.0148 6.27895 27.8113 6.42628 27.5027 6.50852 27.3365 6.59073 27.1669 6.65926 27.0109 6.65926 26.9871 6.65926 26.9668 6.67639 26.9464 6.69352 26.9464 6.7141 26.9464 6.72779 26.9261 6.72779 26.9057 6.72779 26.882 6.86828 26.5801 7.03959 26.2342 7.21091 25.8882 7.39592 25.5152 7.45075 25.4066 7.50556 25.2981 7.5501 25.1862 7.5501 25.1624 7.5501 25.1353 7.56723 25.1149 7.58436 25.1149 7.60494 25.1149 7.61863 25.0844 7.61863 25.0471 7.61863 25.0098 7.63576 24.9793 7.65289 24.9793 7.67346 24.9793 7.68715 24.9488 7.68715 24.9114 7.68715 24.8741 7.70428 24.8436 7.72142 24.8436 7.74199 24.8436 7.75568 24.8233 7.75568 24.8029 7.75568 24.769 8.21481 23.8159 8.41012 23.4463 8.42725 23.4123 8.44094 23.3615 8.44094 23.3343 8.44094 23.3072 8.45807 23.2834 8.4752 23.2834 8.49577 23.2834 8.50947 23.2529 8.50947 23.2156 8.50947 23.1783 8.5266 23.1478 8.54373 23.1478 8.5643 23.1478 8.57799 23.1173 8.57799 23.0799 8.57799 23.0426 8.59512 23.0121 8.61226 23.0121 8.63283 23.0121 8.64652 22.9816 8.64652 22.9443 8.64652 22.907 8.66365 22.8764 8.68078 22.8764 8.70135 22.8764 8.71504 22.8561 8.71504 22.8358 8.71504 22.812 8.79729 22.6288 8.89663 22.4288 9.10565 22.0048 9.17418 21.9607 9.20844 22.2422 9.21872 22.3372 9.2427 22.5034 9.26325 22.6051 9.28382 22.7069 9.31123 22.8493 9.3215 22.9205 9.33178 22.9884 9.35235 23.0562 9.36948 23.0664 9.38661 23.0766 9.4003 23.1139 9.4003 23.1512 9.4003 23.2393 9.61274 23.8736 9.647 23.8872 9.66413 23.8939 9.67441 23.9346 9.67441 23.9753 9.67441 24.016 9.69154 24.0669 9.71553 24.0907 9.73952 24.1144 9.74294 24.1313 9.72924 24.1313 9.71211 24.1313 9.72239 24.1551 9.74638 24.1856 9.77034 24.2161 9.79433 24.2568 9.79777 24.2806 9.8046 24.3009 9.82518 24.3654 9.84916 24.4264 9.88685 24.518 9.88685 24.5451 9.83887 24.596 9.80804 24.6299 9.78064 24.6672 9.78064 24.6842 9.78064 24.6978 9.7258 24.8233 9.65728 24.9623 9.59219 25.1014 9.53736 25.237 9.53736 25.2676 9.53736 25.2947 9.52367 25.3184 9.50309 25.3184 9.48596 25.3184 9.46883 25.3388 9.46883 25.3659 9.46883 25.4032 9.36948 25.6237 9.22557 25.9018 9.20844 25.9357 9.19473 25.9866 9.19473 26.0137 9.19473 26.0409 9.18104 26.0646 9.16046 26.0646 9.14333 26.0646 9.1262 26.085 9.1262 26.1121 9.1262 26.1358 9.06453 26.2749 8.98915 26.4207 8.91376 26.5666 8.8521 26.7124 8.8521 26.7463 8.8521 26.7836 8.8384 26.8108 8.81783 26.8108 8.8007 26.8108 8.78357 26.8413 8.78357 26.8786 8.78357 26.9159 8.76988 26.9464 8.74931 26.9464 8.73218 26.9464 8.71504 26.9668 8.71504 26.9939 8.71504 27.0312 8.61569 27.2517 8.47179 27.5298 8.45465 27.5637 8.44094 27.6146 8.44094 27.6417 8.44094 27.6689 8.42725 27.6926 8.40668 27.6926 8.38955 27.6926 8.37241 27.713 8.37241 27.7401 8.37241 27.7638 8.32446 27.8825 8.26621 28.0012 8.20796 28.12 8.12916 28.276 8.09489 28.3472 8.05719 28.4218 8.02978 28.4998 8.02978 28.527 8.02978 28.5541 8.01609 28.5744 7.99552 28.5744 7.97839 28.5744 7.96126 28.5948 7.96126 28.6219 7.96126 28.6592 7.86191 28.8797 7.718 29.1578 7.70087 29.1917 7.68715 29.2426 7.68715 29.2697 7.68715 29.2969 7.67346 29.3206 7.65289 29.3206 7.63576 29.3206 7.61863 29.341 7.61863 29.3681 7.61863 29.3918 7.57067 29.5105 7.51242 29.6292 7.45417 29.748 7.37537 29.904 7.3411 29.9752 7.3034 30.0498 7.276 30.1278 7.276 30.1549 7.276 30.1821 7.2623 30.2024 7.24173 30.2024 7.2246 30.2024 7.20747 30.2228 7.20747 30.2499 7.20747 30.277 7.18006 30.355 7.14238 30.4297 7.10812 30.5009 7.0293 30.6569 6.97107 30.7756 6.91282 30.8943 6.86484 31.013 6.86484 31.0368 6.86484 31.0639 6.85115 31.0843 6.83058 31.0843 6.81345 31.0843 6.79631 31.1148 6.79631 31.1487 6.79631 31.186 6.78262 31.2267 6.76205 31.2369 6.74492 31.2471 6.72779 31.2878 6.72779 31.3251 6.72779 31.359 6.7141 31.3895 6.69352 31.3895 6.67639 31.3895 6.65926 31.4132 6.65926 31.4404 6.65926 31.4675 6.62844 31.5421 6.59073 31.61 6.55306 31.6778 6.52221 31.7524 6.52221 31.7795 6.52221 31.8067 6.50852 31.8304 6.48795 31.8304 6.47081 31.8304 6.45368 31.8677 6.45368 31.9152Z" fill-rule="evenodd" transform="matrix(1 0 0 -1 354 391)"/></g></svg>