<svg width="46" height="18" xmlns="http://www.w3.org/2000/svg" xmlns:xlink="http://www.w3.org/1999/xlink" overflow="hidden"><defs><clipPath id="clip0"><rect x="1165" y="374" width="46" height="18"/></clipPath></defs><g clip-path="url(#clip0)" transform="translate(-1165 -374)"><path d="M30.4904 15.892C30.4904 15.8542 30.5195 15.8164 30.5528 15.8038 30.5985 15.7828 30.6152 15.7114 30.6152 15.5309 30.6152 15.3923 30.6318 15.2831 30.6567 15.2831 30.6817 15.2831 30.6983 15.1991 30.6983 15.0941 30.6983 14.9556 30.7149 14.9052 30.7607 14.9052 30.8023 14.9052 30.823 14.859 30.823 14.7582 30.823 14.6784 30.8438 14.6112 30.8646 14.6112 30.8896 14.6112 30.9062 14.565 30.9062 14.5062 30.9062 14.439 30.9312 14.4012 30.9685 14.4012 31.0018 14.4012 31.0309 14.3718 31.0309 14.3382 31.0309 14.3046 31.0517 14.2752 31.0725 14.2752 31.0974 14.2752 31.1141 14.2374 31.1141 14.1954 31.1141 14.1535 31.1432 14.1031 31.1806 14.0905 31.2139 14.0778 31.2305 14.0485 31.218 14.0233 31.2056 14.0023 31.2222 13.9813 31.2554 13.9813 31.297 13.9813 31.322 13.9435 31.322 13.8931 31.322 13.8133 31.4093 13.6873 31.4675 13.6873 31.5091 13.6873 31.613 13.5697 31.613 13.5235 31.613 13.4983 31.6338 13.4773 31.6587 13.4773 31.7294 13.4773 31.8209 13.364 31.8209 13.2716 31.8209 13.2212 31.8417 13.1834 31.8624 13.1834 31.8874 13.1834 31.904 12.986 31.904 12.6794 31.904 12.3057 31.9165 12.1755 31.9581 12.1755 31.9955 12.1755 32.0038 12.0831 31.9955 11.8185 31.983 11.5162 31.9913 11.4616 32.0454 11.4616 32.0828 11.4616 32.1119 11.4448 32.1119 11.4196 32.1119 11.3986 32.0662 11.3776 32.008 11.3776 31.9498 11.3776 31.904 11.3608 31.904 11.3356 31.904 11.3146 31.8749 11.2936 31.8417 11.2936 31.8084 11.2936 31.7793 11.3146 31.7793 11.3356 31.7793 11.3608 31.6961 11.3776 31.5922 11.3776 31.4883 11.3776 31.4051 11.3608 31.4051 11.3356 31.4051 11.3104 31.2928 11.2936 31.1557 11.2936 30.9603 11.2936 30.9062 11.281 30.9062 11.2306 30.9062 11.1844 30.8563 11.1676 30.7191 11.1676 30.6152 11.1676 30.532 11.1508 30.532 11.1256 30.532 11.1046 30.4406 11.0836 30.3241 11.0836 30.1662 11.0836 30.1163 11.0668 30.1163 11.0206 30.1163 10.987 30.0872 10.9576 30.0539 10.9576 30.0082 10.9576 29.9915 11.0038 29.9915 11.1256 29.9915 11.2474 30.0082 11.2936 30.0539 11.2936 30.1079 11.2936 30.1163 11.365 30.1079 11.7891 30.0955 12.2637 30.0913 12.2805 30.004 12.2931 29.9499 12.3015 29.9084 12.3267 29.9084 12.3477 29.9084 12.3687 29.8626 12.3855 29.8044 12.3855 29.7462 12.3855 29.7005 12.4065 29.7005 12.4275 29.7005 12.4527 29.6547 12.4695 29.5966 12.4695 29.53 12.4695 29.4926 12.4946 29.4926 12.5325 29.4926 12.5702 29.4552 12.5954 29.3887 12.5954 29.3304 12.5954 29.2847 12.6164 29.2847 12.6374 29.2847 12.6626 29.2182 12.6794 29.1392 12.6794 29.0394 12.6794 28.9937 12.7004 28.9937 12.7424 28.9937 12.7802 28.9563 12.8054 28.8897 12.8054 28.8315 12.8054 28.7858 12.8264 28.7858 12.8474 28.7858 12.8726 28.7484 12.8894 28.7027 12.8894 28.6569 12.8894 28.6195 12.9104 28.6195 12.9314 28.6195 12.9566 28.553 12.9734 28.474 12.9734 28.3825 12.9734 28.316 12.9986 28.3035 13.0364 28.2869 13.0742 28.2245 13.0994 28.1372 13.0994 28.0582 13.0994 27.9959 13.1204 27.9959 13.1414 27.9959 13.1666 27.8919 13.1834 27.7672 13.1834 27.6425 13.1834 27.5385 13.1666 27.5385 13.1414 27.5385 13.1204 27.472 13.0994 27.393 13.0994 27.2932 13.0994 27.2475 13.0784 27.2475 13.0364 27.2475 12.9944 27.2018 12.9734 27.102 12.9734 27.023 12.9734 26.9565 12.9566 26.9565 12.9314 26.9565 12.9104 26.865 12.8894 26.7486 12.8894L26.5407 12.8894 26.5407 12.4275C26.5407 12.0369 26.5324 11.9655 26.4742 11.9655 26.4201 11.9655 26.4118 11.8857 26.4243 11.3776 26.4368 10.8317 26.4326 10.7897 26.3619 10.7897 26.3204 10.7897 26.2996 10.8107 26.312 10.8317 26.3245 10.8569 26.3079 10.8736 26.2746 10.8736 26.2372 10.8736 26.2081 10.8946 26.2081 10.9156 26.2081 10.9409 26.1707 10.9576 26.1249 10.9576 26.0792 10.9576 26.0293 10.987 26.0168 11.0206 26.0002 11.0542 25.9545 11.0836 25.9129 11.0836 25.8713 11.0836 25.8339 11.1046 25.8339 11.1256 25.8339 11.1508 25.7217 11.1676 25.5844 11.1676 25.4473 11.1676 25.335 11.1508 25.335 11.1256 25.335 11.1046 25.2602 11.0836 25.1687 11.0836 25.0772 11.0836 25.0024 11.1046 25.0024 11.1256 25.0024 11.1508 24.965 11.1676 24.9192 11.1676 24.8735 11.1676 24.8361 11.197 24.8361 11.2306 24.8361 11.2684 24.7987 11.2936 24.7322 11.2936 24.6739 11.2936 24.6282 11.3146 24.6282 11.3356 24.6282 11.3608 24.6074 11.3776 24.5825 11.3776 24.5367 11.3776 24.4203 11.4826 24.4203 11.5246 24.4203 11.5666 24.3039 11.6716 24.2582 11.6716 24.2332 11.6716 24.2125 11.6926 24.2125 11.7177 24.2125 11.7639 24.1085 11.8815 24.0669 11.8815 24.0253 11.8815 23.9214 11.9991 23.9214 12.0453 23.9214 12.0747 23.8258 12.0915 23.6886 12.0915 23.4641 12.0915 23.3393 12.1503 23.3393 12.2553 23.3393 12.2805 23.3186 12.3015 23.2978 12.3015 23.2396 12.3015 23.0234 12.5198 23.04 12.5618 23.0442 12.5786 23.0317 12.5954 23.0067 12.5954 22.9527 12.5954 22.5245 13.028 22.5411 13.0658 22.5452 13.0868 22.5037 13.0994 22.4455 13.0994 22.3872 13.0994 22.3415 13.1204 22.3415 13.1414 22.3415 13.1666 22.3207 13.1834 22.2958 13.1834 22.2376 13.1834 22.1336 13.2883 22.1336 13.3471 22.1336 13.3723 22.0962 13.3933 22.0463 13.3933 21.9549 13.3933 21.8426 13.4857 21.8426 13.5571 21.8426 13.5823 21.8218 13.6033 21.801 13.6033 21.7428 13.6033 21.5516 13.7965 21.5516 13.8553 21.5516 13.8763 21.5308 13.8973 21.5058 13.8973 21.4476 13.8973 21.3437 14.0023 21.3437 14.0611 21.3437 14.0862 21.3063 14.1072 21.2564 14.1072 21.2065 14.1072 21.0901 14.1912 20.9861 14.2962 20.8864 14.4012 20.7699 14.4852 20.72 14.4852 20.6743 14.4852 20.6369 14.5146 20.6369 14.5482 20.6369 14.5944 20.587 14.6112 20.4498 14.6112 20.3126 14.6112 20.2627 14.5944 20.2627 14.5482 20.2627 14.4936 20.1671 14.4852 19.6598 14.4852 19.1526 14.4852 19.057 14.4936 19.057 14.5482 19.057 14.5986 19.003 14.6112 18.8076 14.6112 18.6703 14.6112 18.5581 14.628 18.5581 14.6532 18.5581 14.6784 18.3502 14.6952 18.0217 14.6952 17.7058 14.6952 17.4729 14.712 17.4563 14.7372 17.4397 14.7624 17.157 14.7792 16.7454 14.7792 16.1675 14.7792 16.0635 14.7876 16.0635 14.8422 16.0635 14.8967 15.8432 14.9052 14.3381 14.9052 12.8331 14.9052 12.6127 14.8967 12.6127 14.8422 12.6127 14.7876 12.4963 14.7792 11.8228 14.7792 11.3238 14.7792 11.0328 14.7624 11.0328 14.7372 11.0328 14.712 10.7917 14.6952 10.3884 14.6952 9.9851 14.6952 9.74395 14.6784 9.74395 14.6532 9.74395 14.628 9.46123 14.6112 8.97478 14.6112 8.38858 14.6112 8.20979 14.5986 8.21811 14.5608 8.22225 14.5314 8.18485 14.502 8.13496 14.4936 8.08092 14.4852 8.03935 14.46 8.03935 14.439 8.03935 14.418 7.97696 14.4012 7.89798 14.4012 7.81066 14.4012 7.7483 14.376 7.73166 14.3382 7.7192 14.3004 7.65683 14.2752 7.58615 14.2752 7.51962 14.2752 7.44897 14.2584 7.43647 14.2332 7.42401 14.2122 7.32839 14.1912 7.22443 14.1912 7.12467 14.1912 7.04149 14.1745 7.04149 14.1492 7.04149 14.1282 6.97499 14.1072 6.89599 14.1072 6.7962 14.1072 6.75048 14.0862 6.75048 14.0443 6.75048 14.0023 6.7089 13.9813 6.60912 13.9813 6.53011 13.9813 6.45111 13.9645 6.43865 13.9393 6.42618 13.9183 6.31392 13.8973 6.1892 13.8973 6.0312 13.8973 5.96469 13.8805 5.94391 13.8343 5.93141 13.8007 5.88152 13.7713 5.8358 13.7713 5.79008 13.7713 5.75265 13.7545 5.75265 13.7293 5.75265 13.7083 5.66118 13.6873 5.54475 13.6873 5.4325 13.6873 5.33689 13.6705 5.33689 13.6453 5.33689 13.6243 5.27035 13.6033 5.19138 13.6033 5.09159 13.6033 5.04584 13.5823 5.04584 13.5403 5.04584 13.5025 5.00844 13.4773 4.94191 13.4773 4.88369 13.4773 4.83797 13.4605 4.83797 13.4353 4.83797 13.4143 4.77144 13.3933 4.69246 13.3933 4.59268 13.3933 4.54693 13.3723 4.54693 13.3303 4.54693 13.2883 4.50121 13.2673 4.40142 13.2673 4.32242 13.2673 4.25591 13.2506 4.25591 13.2253 4.25591 13.2043 4.21017 13.1834 4.15198 13.1834 4.09376 13.1834 4.04802 13.1666 4.04802 13.1414 4.04802 13.1204 3.98151 13.0994 3.90251 13.0994 3.80272 13.0994 3.757 13.0784 3.757 13.0364 3.757 12.9986 3.71957 12.9734 3.65307 12.9734 3.59485 12.9734 3.5491 12.9566 3.5491 12.9314 3.5491 12.9104 3.4826 12.8894 3.4036 12.8894 3.32459 12.8894 3.25809 12.8726 3.25809 12.8474 3.25809 12.8264 3.22066 12.8054 3.17494 12.8054 3.12919 12.8054 3.0793 12.776 3.06683 12.7424 3.05019 12.7088 2.99615 12.6794 2.94211 12.6794 2.88804 12.6794 2.84232 12.6626 2.84232 12.6374 2.84232 12.6164 2.77579 12.5954 2.69681 12.5954 2.59703 12.5954 2.55128 12.5744 2.55128 12.5325 2.55128 12.4946 2.51388 12.4695 2.45566 12.4695 2.40577 12.4695 2.33509 12.4317 2.30184 12.3855 2.26858 12.3393 2.1979 12.3015 2.14801 12.3015 2.09394 12.3015 2.05237 12.2805 2.05237 12.2553 2.05237 12.1839 1.94011 12.0915 1.84864 12.0915 1.79875 12.0915 1.76135 12.0663 1.76135 12.0285 1.76135 11.9907 1.72392 11.9655 1.66571 11.9655 1.61581 11.9655 1.54513 11.9277 1.51188 11.8815 1.47862 11.8353 1.42873 11.7975 1.39962 11.7975 1.37052 11.7975 1.34973 11.7723 1.3539 11.7471 1.3622 11.7177 1.3248 11.6884 1.2749 11.68 1.22086 11.6716 1.17926 11.6464 1.17926 11.6254 1.17926 11.6044 1.13354 11.5876 1.07533 11.5876 1.00882 11.5876 0.971392 11.5624 0.971392 11.5246 0.971392 11.4868 0.933965 11.4616 0.875778 11.4616 0.825884 11.4616 0.755203 11.4238 0.721949 11.3776 0.688668 11.3314 0.617987 11.2936 0.568093 11.2936 0.514053 11.2936 0.472479 11.2726 0.472479 11.2474 0.472479 11.1886 0.368545 11.0836 0.31033 11.0836 0.285397 11.0836 0.26461 11.0542 0.26461 11.0206 0.26461 10.9829 0.227183 10.9576 0.160648 10.9576 0.085821 10.9576 0.0567139 10.9366 0.0567139 10.8736 0.0567139 10.8107 0.0276067 10.7897-0.0472206 10.7897-0.105435 10.7897-0.147009 10.7771-0.142835 10.7603-0.126222 10.7141-0.379838 10.4537-0.438025 10.4537-0.546133 10.4537-0.691642 10.2479-0.691642 10.0967-0.691642 9.96238-0.683349 9.94976-0.56692 9.94976-0.483773 9.94976-0.442199 9.97075-0.442199 10.0127-0.442199 10.0631-0.375665 10.0757-0.109581 10.0757 0.085821 10.0757 0.223036 10.0925 0.223036 10.1177 0.223036 10.1429 0.555627 10.1597 1.14186 10.1597 1.69481 10.1597 2.04822 10.1765 2.03158 10.1975 1.99 10.2689 2.10643 10.2983 2.1563 10.2311 2.1979 10.1724 2.29352 10.1597 2.77579 10.1597 3.12505 10.1597 3.34123 10.1429 3.34123 10.1177 3.34123 10.0925 3.45349 10.0757 3.59068 10.0757 3.78611 10.0757 3.84015 10.0631 3.84015 10.0127 3.84015 9.96656 3.89004 9.94976 4.04802 9.94976 4.16444 9.94976 4.25591 9.93297 4.25591 9.90776 4.25591 9.88676 4.32242 9.86576 4.40142 9.86576 4.48042 9.86576 4.54693 9.84898 4.54693 9.82377 4.54693 9.80277 4.59268 9.78177 4.65089 9.78177 4.7174 9.78177 4.75483 9.75659 4.75483 9.71881 4.75483 9.681 4.79223 9.65582 4.85876 9.65582 4.91697 9.65582 4.96269 9.63901 4.96269 9.61382 4.96269 9.59282 5.00012 9.57183 5.04584 9.57183 5.09159 9.57183 5.12902 9.54242 5.12902 9.50883 5.12902 9.47521 5.1581 9.44584 5.19138 9.44584 5.22463 9.44584 5.25374 9.42903 5.25374 9.40385 5.25374 9.38285 5.29114 9.36185 5.34103 9.36185 5.42003 9.36185 5.54475 9.27364 5.54475 9.21487 5.54475 9.17287 5.66118 9.06789 5.7069 9.06789 5.73186 9.06789 5.75265 9.04267 5.75265 9.0133 5.75265 8.9839 5.79008 8.9335 5.8358 8.8999 5.88152 8.86631 5.91895 8.79492 5.91895 8.74452 5.91895 8.68993 5.93973 8.64793 5.96469 8.64793 6.03538 8.64793 6.12684 8.53454 6.12684 8.44215 6.12684 8.39178 6.15178 8.35397 6.18503 8.35397 6.23078 8.35397 6.2391 8.31616 6.22246 8.20699 6.19752 8.06 6.20167 8.06 6.35135 8.06 6.4345 8.06 6.50101 8.081 6.50101 8.102 6.50101 8.12718 6.54675 8.14399 6.60497 8.14399 6.67148 8.14399 6.7089 8.16918 6.7089 8.20699 6.7089 8.24058 6.73801 8.26998 6.77126 8.26998 6.80452 8.26998 6.83362 8.24058 6.83362 8.20699 6.83362 8.17339 6.87105 8.14399 6.91677 8.14399 6.97913 8.14399 6.99992 8.17339 6.99992 8.24898 6.99992 8.34556 7.01241 8.35397 7.20782 8.35397 7.32422 8.35397 7.41568 8.37497 7.41568 8.39596 7.41568 8.42115 7.67762 8.43796 8.12249 8.43796 8.56734 8.43796 8.82928 8.42115 8.82928 8.39596 8.82928 8.37497 8.89581 8.35397 8.97478 8.35397 9.05379 8.35397 9.12032 8.33716 9.12032 8.31197 9.12032 8.29098 9.18683 8.26998 9.26583 8.26998 9.36562 8.26998 9.41134 8.24898 9.41134 8.20699 9.41134 8.16918 9.44876 8.14399 9.5153 8.14399 9.57348 8.14399 9.61923 8.12718 9.61923 8.102 9.61923 8.081 9.65663 8.06 9.70653 8.06 9.79799 8.06 9.91025 7.96761 9.91025 7.89621 9.91025 7.87103 9.93936 7.85003 9.97261 7.85003 10.0059 7.85003 10.035 7.83322 10.035 7.81222 10.035 7.79125 10.0766 7.76604 10.1306 7.75763 10.1805 7.74926 10.2179 7.71985 10.2138 7.69045 10.2054 7.66526 10.2304 7.64005 10.2637 7.64005 10.2969 7.64005 10.326 7.62327 10.326 7.59806 10.326 7.57706 10.3634 7.55606 10.4133 7.55606 10.4923 7.55606 10.6171 7.46788 10.6171 7.40908 10.6171 7.36708 10.7335 7.2621 10.7792 7.2621 10.8041 7.2621 10.8249 7.2411 10.8249 7.21591 10.8249 7.1697 10.9289 7.05212 10.9704 7.05212 11.0037 7.05212 11.116 6.93876 11.116 6.90514 11.116 6.86314 11.2324 6.75815 11.2781 6.75815 11.3031 6.75815 11.3238 6.73716 11.3238 6.71197 11.3238 6.66579 11.4278 6.54818 11.4694 6.54818 11.5276 6.54818 11.6149 6.42222 11.6149 6.34242 11.6149 6.29202 11.6357 6.25424 11.6565 6.25424 11.6814 6.25424 11.698 6.22484 11.698 6.19125 11.698 6.15763 11.7188 6.12826 11.7396 6.12826 11.7978 6.12826 12.014 5.90987 12.0015 5.86788 11.9932 5.85107 12.0348 5.83429 12.093 5.83429 12.1512 5.83429 12.1969 5.85529 12.1969 5.87628 12.1969 5.98127 12.4048 6.12826 12.5503 6.12826 12.6501 6.12826 12.6959 6.14504 12.6959 6.19125 12.6959 6.23324 12.7416 6.25424 12.8414 6.25424 12.9204 6.25424 12.9869 6.27524 12.9869 6.29624 12.9869 6.32142 13.07 6.33823 13.1698 6.33823 13.2946 6.33823 13.3611 6.35923 13.3777 6.40122 13.3943 6.4516 13.4775 6.46422 13.7353 6.46422 13.9307 6.46422 14.0679 6.481 14.0679 6.50618 14.0679 6.5314 14.2674 6.54818 14.5876 6.54818 14.9077 6.54818 15.1073 6.5314 15.1073 6.50618 15.1073 6.481 15.232 6.46422 15.3983 6.46422 15.6311 6.46422 15.6893 6.4516 15.6893 6.40122 15.6893 6.35082 15.7475 6.33823 15.9762 6.33823 16.1384 6.33823 16.2797 6.32142 16.2922 6.29624 16.3047 6.27524 16.3754 6.25424 16.4419 6.25424 16.5125 6.25424 16.5749 6.22903 16.5874 6.19125 16.604 6.15344 16.6664 6.12826 16.7537 6.12826 16.8327 6.12826 16.8951 6.11145 16.8951 6.08626 16.8951 6.06526 16.9408 6.04426 16.999 6.04426 17.0572 6.04426 17.1029 6.02746 17.1029 6.00227 17.1029 5.98127 17.1695 5.96027 17.2484 5.96027 17.3482 5.96027 17.394 5.93928 17.394 5.89728 17.394 5.85948 17.4314 5.83429 17.4979 5.83429 17.5561 5.83429 17.6018 5.81748 17.6018 5.79229 17.6018 5.7713 17.6393 5.7503 17.685 5.7503 17.7307 5.7503 17.7681 5.7209 17.7681 5.68731 17.7681 5.6495 17.8056 5.62431 17.8721 5.62431 17.9303 5.62431 17.976 5.6075 17.976 5.58232 17.976 5.56132 18.0135 5.54032 18.0633 5.54032 18.1548 5.54032 18.267 5.44793 18.267 5.37653 18.267 5.35135 18.3045 5.33035 18.3502 5.33035 18.4458 5.33035 18.6038 5.20436 18.5747 5.15396 18.5622 5.13718 18.5997 5.12037 18.6579 5.12037 18.7161 5.12037 18.766 5.10356 18.766 5.07838 18.766 5.05738 18.7951 5.03638 18.8283 5.03638 18.8616 5.03638 18.8907 5.01957 18.8907 4.99858 18.8907 4.97758 18.9323 4.95239 18.9863 4.94399 19.0362 4.93558 19.0736 4.90621 19.0695 4.87681 19.0611 4.85159 19.0778 4.82641 19.1028 4.82641 19.1609 4.82641 19.2649 4.72142 19.2649 4.66261 19.2649 4.63743 19.2857 4.61643 19.3065 4.61643 19.3647 4.61643 19.5809 4.39805 19.5684 4.35606 19.5601 4.33927 19.6017 4.32247 19.6598 4.32247 19.7181 4.32247 19.7638 4.30568 19.7638 4.28047 19.7638 4.25947 19.7929 4.23848 19.8262 4.23848 19.8594 4.23848 19.8885 4.21748 19.8885 4.19229 19.8885 4.14189 20.0964 3.94451 20.1504 3.94451 20.1671 3.94451 20.1796 3.92351 20.1796 3.89833 20.1796 3.78075 20.3043 3.73453 20.6327 3.73453 20.903 3.73453 20.9695 3.72194 20.9695 3.67154 20.9695 3.62955 21.0152 3.60855 21.115 3.60855 21.194 3.60855 21.2606 3.59177 21.2606 3.56655 21.2606 3.54556 21.3271 3.52456 21.4061 3.52456 21.4851 3.52456 21.5516 3.50778 21.5516 3.48256 21.5516 3.46157 21.5807 3.44057 21.6139 3.44057 21.6472 3.44057 21.6763 3.41119 21.6763 3.37758 21.6763 3.34398 21.6971 3.31458 21.7179 3.31458 21.7428 3.31458 21.7595 3.28099 21.7595 3.23481 21.7595 3.19281 21.8052 3.12142 21.8634 3.07942 21.9216 3.03743 21.9673 2.96603 21.9673 2.92403 21.9673 2.84004 22.0588 2.72668 22.1295 2.72668 22.1586 2.72668 22.1669 2.68468 22.1503 2.62169 22.1295 2.54189 22.1419 2.5167 22.1918 2.5167 22.2334 2.5167 22.2584 2.4789 22.2584 2.41172 22.2584 2.35291 22.2792 2.30673 22.2999 2.30673 22.3249 2.30673 22.3415 2.23952 22.3415 2.15974 22.3415 2.01695 22.3457 2.01276 22.5078 2.01276 22.645 2.01276 22.7032 2.03795 22.8155 2.15974 22.8945 2.23952 22.9984 2.30673 23.0442 2.30673 23.0941 2.30673 23.1315 2.33191 23.1315 2.36972 23.1315 2.4075 23.1689 2.43271 23.2188 2.43271 23.3102 2.43271 23.4225 2.52511 23.4225 2.59648 23.4225 2.62169 23.4641 2.64269 23.5181 2.64269 23.568 2.64269 23.6387 2.68047 23.6719 2.72668 23.7052 2.77286 23.7759 2.81067 23.8258 2.81067 23.8798 2.81067 23.9214 2.83167 23.9214 2.85685 23.9214 2.92403 24.0295 3.02064 24.1085 3.02064 24.1459 3.02064 24.2083 3.05002 24.2457 3.08783 24.2997 3.14241 24.3164 3.14663 24.333 3.10042 24.3413 3.07102 24.3289 3.03743 24.3039 3.02902 24.2748 3.02064 24.254 2.96603 24.254 2.91144 24.254 2.84845 24.2291 2.81067 24.1875 2.81067 24.1335 2.81067 24.1251 2.77286 24.1376 2.62169 24.1459 2.49149 24.1335 2.43271 24.1002 2.43271 24.0711 2.43271 24.0461 2.3865 24.0461 2.32773 24.0461 2.26892 24.0669 2.22274 24.0877 2.22274 24.1127 2.22274 24.1293 2.17653 24.1293 2.11775 24.1293 2.05895 24.1501 2.01276 24.175 2.01276 24.2332 2.01276 24.3372 1.90777 24.3372 1.84897 24.3372 1.82378 24.4037 1.80279 24.4827 1.80279 24.5825 1.80279 24.6282 1.82378 24.6282 1.86578 24.6282 1.90359 24.6656 1.92877 24.7155 1.92877 24.8194 1.92877 24.9192 2.02117 24.9192 2.11775 24.9192 2.19752 25.0149 2.30673 25.0814 2.30673 25.1063 2.30673 25.1271 2.37391 25.1271 2.4579 25.1271 2.60488 25.202 2.72668 25.2893 2.72668 25.3142 2.72668 25.335 2.74768 25.335 2.76867 25.335 2.79386 25.4722 2.81067 25.6634 2.81067 25.9171 2.81067 25.9961 2.82326 26.0168 2.87366 26.0335 2.91985 26.1083 2.93665 26.3328 2.93665 26.4991 2.93665 26.6239 2.95344 26.6239 2.97865 26.6239 3.00384 26.6904 3.02064 26.7694 3.02064 26.8484 3.02064 26.9149 3.03743 26.9149 3.05842 26.9149 3.07942 26.9648 3.10463 27.023 3.11723L27.1311 3.13823 27.0271 3.03743C26.9648 2.98284 26.8982 2.93665 26.8733 2.93665 26.8525 2.93665 26.8317 2.89044 26.8317 2.83586 26.8317 2.78127 26.8026 2.72246 26.7652 2.70987 26.7153 2.68887 26.7028 2.65107 26.7236 2.5587 26.7403 2.4663 26.732 2.43271 26.6862 2.43271 26.6488 2.43271 26.6239 2.39072 26.6239 2.32773 26.6239 2.26473 26.6488 2.22274 26.6821 2.22274 26.7278 2.22274 26.7361 2.18074 26.7195 2.05476 26.6821 1.79019 26.786 1.7188 27.1851 1.7188 27.3639 1.7188 27.4969 1.73561 27.4969 1.76079 27.4969 1.78598 27.5427 1.80279 27.6009 1.80279 27.6591 1.80279 27.7048 1.82378 27.7048 1.84897 27.7048 1.90777 27.8088 2.01276 27.867 2.01276 27.8919 2.01276 27.9127 2.04216 27.9127 2.07575 27.9127 2.10934 27.9418 2.13875 27.9792 2.13875 28.025 2.13875 28.0374 2.16393 28.0166 2.22274 27.9959 2.28151 28.0084 2.30673 28.0541 2.30673 28.104 2.30673 28.1206 2.35291 28.1206 2.5167 28.1206 2.63428 28.1414 2.72668 28.1622 2.72668 28.1871 2.72668 28.2038 2.76446 28.2038 2.81486 28.2038 2.86104 28.2287 2.92825 28.2619 2.96184 28.3326 3.02902 28.5363 3.04164 28.5363 2.97865 28.5363 2.95344 28.6486 2.93665 28.7858 2.93665 28.9812 2.93665 29.0353 2.92403 29.0353 2.87366 29.0353 2.82326 29.0935 2.81067 29.3263 2.81067 29.4926 2.81067 29.6173 2.79386 29.6173 2.76867 29.6173 2.74768 29.6839 2.72668 29.7629 2.72668 29.8419 2.72668 29.9084 2.70987 29.9084 2.68468 29.9084 2.66369 30.004 2.64269 30.1246 2.64269 30.3158 2.64269 30.3324 2.63428 30.2618 2.58807 30.2202 2.55448 30.1994 2.5083 30.216 2.48311 30.2327 2.45371 30.2202 2.43271 30.1828 2.43271 30.137 2.43271 30.1163 2.39072 30.1163 2.28992 30.1163 2.20174 30.0913 2.13875 30.0539 2.12194 30.0165 2.10934 29.9915 2.04635 29.9915 1.97077 29.9915 1.89518 30.0165 1.83219 30.0539 1.8196 30.0872 1.80279 30.1163 1.7566 30.1163 1.71461 30.1163 1.67261 30.137 1.63481 30.1578 1.63481 30.1828 1.63481 30.1994 1.58862 30.1994 1.52982 30.1994 1.46264 30.2243 1.42483 30.2618 1.42483 30.295 1.42483 30.3241 1.39543 30.3241 1.36184 30.3241 1.31144 30.3823 1.29884 30.6152 1.29884 30.7939 1.29884 30.9062 1.31565 30.9062 1.34503 30.9062 1.41643 31.0184 1.50882 31.1099 1.50882 31.1723 1.50882 31.1972 1.53401 31.1972 1.597 31.1972 1.68939 31.2887 1.80279 31.3594 1.80279 31.3843 1.80279 31.4051 1.87837 31.4051 1.97077 31.4051 2.06316 31.4259 2.13875 31.4467 2.13875 31.4716 2.13875 31.4883 2.21014 31.4924 2.29832 31.4924 2.38231 31.5049 2.42431 31.5174 2.39072 31.5631 2.27733 31.6463 2.22274 31.7751 2.22274 31.8458 2.22274 31.904 2.20593 31.904 2.18493 31.904 2.15974 31.9747 2.13875 32.062 2.13034 32.1576 2.12194 32.2117 2.09675 32.2075 2.06735 32.1992 2.03795 32.2242 2.01276 32.2574 2.01276 32.2907 2.01276 32.3198 1.99595 32.3198 1.97077 32.3198 1.94977 32.353 1.92877 32.3988 1.92877 32.4404 1.92877 32.511 1.88259 32.5526 1.82378 32.5942 1.76498 32.6649 1.7188 32.7064 1.7188 32.7896 1.7188 32.9018 1.6264 32.9018 1.555 32.9018 1.52982 32.9226 1.50882 32.9476 1.50882 33.0058 1.50882 33.1097 1.40383 33.1097 1.34503 33.1097 1.31984 33.1471 1.29884 33.1929 1.29884 33.2386 1.29884 33.276 1.31984 33.276 1.34503 33.276 1.46264 33.4008 1.50882 33.7292 1.50882 34.0078 1.50882 34.0618 1.52141 34.0785 1.58441 34.0951 1.65161 34.0992 1.65161 34.1034 1.58441 34.1076 1.51723 34.1616 1.50882 34.648 1.50882 34.9807 1.50882 35.1885 1.49201 35.1885 1.46683 35.1885 1.44164 35.3133 1.42483 35.4796 1.42483 35.7041 1.42483 35.7789 1.40802 35.7956 1.36184 35.8122 1.32403 35.8745 1.29884 35.9619 1.29884 36.0409 1.29884 36.1032 1.28204 36.1032 1.25685 36.1032 1.23585 36.1697 1.21485 36.2487 1.21485 36.3277 1.21485 36.3943 1.19807 36.3943 1.17286 36.3943 1.15186 36.4608 1.13086 36.5398 1.13086 36.6396 1.13086 36.6853 1.10987 36.6853 1.06787 36.6853 1.02588 36.731 1.00488 36.8308 1.00488 36.9098 1.00488 36.9763 0.988098 36.9763 0.962884 36.9763 0.941886 37.022 0.920889 37.0802 0.920889 37.1468 0.920889 37.1842 0.895703 37.1842 0.857896 37.1842 0.820117 37.2216 0.794904 37.2881 0.794904 37.3463 0.794904 37.3921 0.778122 37.3921 0.752908 37.3921 0.731911 37.4378 0.710913 37.496 0.710913 37.5542 0.710913 37.6 0.694132 37.6 0.673134 37.6 0.652137 37.6415 0.626923 37.6956 0.618519 37.7455 0.610142 37.7829 0.580739 37.7787 0.551337 37.7704 0.521935 37.812 0.500938 37.8702 0.500938 37.9284 0.500938 37.9741 0.484156 37.9741 0.458943 37.9741 0.437945 38.0033 0.416948 38.0365 0.416948 38.0698 0.416948 38.0989 0.387573 38.0989 0.353955 38.0989 0.316176 38.1404 0.290962 38.207 0.290962 38.2652 0.290962 38.3026 0.274181 38.2859 0.248967 38.2693 0.223781 38.3067 0.206972 38.3649 0.206972 38.4232 0.206972 38.4731 0.19019 38.4731 0.164977 38.4731 0.143979 38.5188 0.122982 38.577 0.122982 38.6435 0.122982 38.6809 0.0977957 38.6809 0.0599891 38.6809 0.0138055 38.7267-0.00300359 38.8306-0.00300359 38.9096-0.00300359 38.9678 0.0138055 38.9553 0.0306145 38.9262 0.0809866 39.0842 0.206972 39.1798 0.206972 39.2256 0.206972 39.263 0.22797 39.263 0.248967 39.263 0.274181 39.3087 0.290962 39.3669 0.290962 39.4293 0.290962 39.4667 0.31196 39.4584 0.345578 39.4542 0.374952 39.5083 0.400166 39.6081 0.408571 39.6912 0.416948 39.7619 0.437945 39.7619 0.463159 39.7619 0.484156 39.8949 0.500938 40.0529 0.500938 40.2858 0.500938 40.344 0.513558 40.344 0.56393 40.344 0.61433 40.4063 0.626923 40.6558 0.626923 40.9053 0.626923 40.9676 0.61433 40.9676 0.56393 40.9676 0.513558 41.0258 0.500938 41.2545 0.500938 41.4166 0.500938 41.558 0.484156 41.5705 0.458943 41.5829 0.437945 41.6619 0.416948 41.7409 0.416948 41.8407 0.416948 41.8823 0.39595 41.8823 0.353955 41.8823 0.307771 41.9322 0.290962 42.0694 0.290962 42.1733 0.290962 42.2565 0.274181 42.2565 0.248967 42.2565 0.22797 42.323 0.206972 42.402 0.206972 42.481 0.206972 42.5475 0.19019 42.5475 0.164977 42.5475 0.143979 42.5933 0.122982 42.6514 0.122982 42.7097 0.122982 42.7554 0.0977957 42.7554 0.0642051 42.7554 0.00540095 42.955-0.0449987 43.1878-0.0449987L43.3084-0.0449987 43.2834 0.509342C43.2626 0.937698 43.2418 1.08046 43.1919 1.11408 43.1587 1.13927 43.1296 1.21907 43.1296 1.29466 43.1296 1.36603 43.113 1.42483 43.088 1.42483 43.0672 1.42483 43.0464 1.49201 43.0464 1.57181 43.0464 1.6768 43.0298 1.7188 42.9841 1.7188 42.9383 1.7188 42.9258 1.7482 42.9466 1.82378 42.9674 1.90359 42.955 1.92877 42.9051 1.92877 42.8677 1.92877 42.8386 1.96236 42.8386 2.00855 42.8386 2.05476 42.8219 2.10516 42.797 2.11775 42.7762 2.13034 42.7554 2.18074 42.7554 2.22693 42.7554 2.26892 42.7263 2.30673 42.693 2.30673 42.6598 2.30673 42.6307 2.33613 42.6307 2.36972 42.6307 2.40331 42.614 2.43271 42.5891 2.43271 42.5683 2.43271 42.5475 2.47049 42.5475 2.51249 42.5475 2.55448 42.5226 2.60069 42.4893 2.61329 42.4519 2.63007 42.4394 2.67206 42.4519 2.72246 42.4685 2.78546 42.456 2.81067 42.4061 2.81067 42.3646 2.81067 42.3396 2.84845 42.3396 2.90725 42.3396 2.97024 42.3022 3.02902 42.2357 3.06264 42.1775 3.09201 42.1317 3.14241 42.1317 3.176 42.1317 3.20541 42.1151 3.23059 42.0902 3.23059 42.0694 3.23059 42.0486 3.2768 42.0486 3.33558 42.0486 3.39857 42.0237 3.44057 41.9904 3.44057 41.953 3.44057 41.9405 3.46997 41.953 3.52456 41.9696 3.58336 41.953 3.60855 41.9072 3.60855 41.8698 3.60855 41.8407 3.63376 41.8407 3.66316 41.8407 3.69675 41.795 3.74715 41.7368 3.77653 41.6703 3.81015 41.6328 3.86892 41.6328 3.93192 41.6328 3.9865 41.6162 4.0285 41.5913 4.0285 41.5705 4.0285 41.5497 4.07471 41.5497 4.13349 41.5497 4.21748 41.5289 4.23848 41.4457 4.23848 41.3667 4.23848 41.3418 4.25947 41.3418 4.32668 41.3418 4.40646 41.2545 4.53244 41.1963 4.53244 41.1547 4.53244 41.0508 4.65002 41.0508 4.69623 41.0508 4.72142 41.03 4.74242 41.005 4.74242 40.9593 4.74242 40.8429 4.8474 40.8429 4.8894 40.8429 4.93139 40.7265 5.03638 40.6808 5.03638 40.6516 5.03638 40.6433 5.07838 40.66 5.14137 40.6808 5.23376 40.6724 5.24636 40.5726 5.24636 40.4729 5.24636 40.344 5.32613 40.344 5.39334 40.344 5.42693 40.2317 5.54032 40.1985 5.54032 40.1569 5.54032 40.0529 5.6579 40.0529 5.70409 40.0529 5.7293 40.0238 5.7503 39.9906 5.7503 39.9573 5.7503 39.9282 5.7713 39.9282 5.79229 39.9282 5.81748 39.8908 5.83429 39.8451 5.83429 39.7827 5.83429 39.7619 5.86366 39.7619 5.93928 39.7619 5.99805 39.7411 6.04426 39.7162 6.04426 39.6289 6.04426 39.554 6.16603 39.554 6.31302 39.554 6.39701 39.5374 6.46422 39.5125 6.46422 39.4917 6.46422 39.4709 6.502 39.4709 6.54818 39.4709 6.61539 39.4376 6.62798 39.2131 6.64057 39.0302 6.64898 38.9553 6.66998 38.9636 6.70778 38.9678 6.74137 38.9013 6.75815 38.7225 6.75815 38.5853 6.75815 38.4731 6.77496 38.4731 6.80015 38.4731 6.82536 38.3982 6.84214 38.3067 6.84214 38.1862 6.84214 38.1404 6.85895 38.1404 6.90514 38.1404 6.93876 38.103 6.96813 38.0573 6.96813 38.0115 6.96813 37.9741 6.98913 37.9741 7.01012 37.9741 7.03534 37.9284 7.05212 37.8702 7.05212 37.7787 7.05212 37.7663 7.06893 37.7663 7.1991 37.7663 7.2789 37.7496 7.34609 37.7247 7.34609 37.7039 7.34609 37.6831 7.3923 37.6831 7.45107 37.6831 7.51828 37.6582 7.55606 37.6207 7.55606 37.5792 7.55606 37.5584 7.60227 37.5584 7.70304 37.5584 7.78285 37.5417 7.85003 37.5168 7.85003 37.496 7.85003 37.4752 7.89621 37.4752 7.95501 37.4752 8.0222 37.4503 8.06 37.4087 8.06 37.363 8.06 37.3505 8.08519 37.3713 8.14399 37.3879 8.19858 37.3754 8.23639 37.3339 8.25317 37.2923 8.26998 37.2673 8.32878 37.2673 8.42115 37.2673 8.50095 37.2507 8.56394 37.2258 8.56394 37.205 8.56394 37.1842 8.63113 37.1842 8.71093 37.1842 8.8117 37.1634 8.85791 37.1218 8.85791 37.0802 8.85791 37.0595 8.90409 37.0595 9.00489 37.0595 9.08467 37.0428 9.15188 37.0179 9.15188 36.9971 9.15188 36.9763 9.19806 36.9763 9.25686 36.9763 9.32404 36.9514 9.36185 36.914 9.36185 36.8807 9.36185 36.8516 9.38285 36.8516 9.40385 36.8516 9.42903 36.8807 9.44584 36.914 9.44584 36.9472 9.44584 36.9763 9.47521 36.9763 9.50883 36.9763 9.54242 36.9971 9.57183 37.0179 9.57183 37.0428 9.57183 37.0595 9.61801 37.0595 9.67681 37.0595 9.744 37.0844 9.78177 37.1218 9.78177 37.1551 9.78177 37.1842 9.81958 37.1842 9.86576 37.1842 9.91198 37.205 9.94976 37.2258 9.94976 37.2507 9.94976 37.2673 10.0254 37.2673 10.1177 37.2673 10.2437 37.284 10.2857 37.3339 10.2857 37.3921 10.2857 37.4004 10.3193 37.3838 10.4747 37.3671 10.6175 37.3754 10.6637 37.417 10.6637 37.4544 10.6637 37.4752 10.7141 37.4752 10.8107 37.4752 10.8905 37.496 10.9576 37.5168 10.9576 37.5417 10.9576 37.5584 11.0038 37.5584 11.0626 37.5584 11.1298 37.5833 11.1676 37.6249 11.1676 37.679 11.1676 37.6873 11.2012 37.6748 11.3146 37.6623 11.4154 37.6748 11.4616 37.7122 11.4616 37.7413 11.4616 37.7663 11.5078 37.7663 11.5624 37.7663 11.617 37.7954 11.6757 37.8328 11.6884 37.8744 11.7051 37.8868 11.743 37.8702 11.7975 37.8494 11.8563 37.8619 11.8815 37.9076 11.8815 37.9575 11.8815 37.9741 11.9235 37.9741 12.0285 37.9741 12.1083 37.9949 12.1755 38.0157 12.1755 38.0407 12.1755 38.0573 12.2049 38.0573 12.2385 38.0573 12.2721 38.0864 12.3015 38.1197 12.3015 38.1612 12.3015 38.182 12.3477 38.182 12.4485 38.182 12.587 38.1737 12.5954 38.0365 12.5954 37.9367 12.5954 37.891 12.5744 37.891 12.5325 37.891 12.4946 37.8536 12.4695 37.7954 12.4695 37.7455 12.4695 37.6748 12.4317 37.6415 12.3855 37.6083 12.3393 37.5584 12.3015 37.5293 12.3015 37.5002 12.3015 37.4752 12.2805 37.4752 12.2553 37.4752 12.1965 37.3713 12.0915 37.3131 12.0915 37.2881 12.0915 37.2673 12.0495 37.2673 12.0033 37.2673 11.9529 37.2174 11.8689 37.1593 11.8185 37.0678 11.7387 37.0511 11.6967 37.0719 11.5918 37.0927 11.4952 37.0844 11.4616 37.0387 11.4616 37.0054 11.4616 36.9763 11.4238 36.9763 11.3776 36.9763 11.3314 36.9597 11.2936 36.9347 11.2936 36.9098 11.2936 36.8932 11.1466 36.8932 10.9366 36.8932 10.6385 36.8807 10.5797 36.8266 10.5797 36.7726 10.5797 36.7643 10.5377 36.7767 10.3277 36.7851 10.1471 36.7726 10.0757 36.7393 10.0757 36.7102 10.0757 36.6853 10.0547 36.6853 10.0296 36.6853 10.0044 36.6562 9.95816 36.6229 9.92457 36.5689 9.86576 36.5606 9.86998 36.5606 9.94976 36.5606 10.0464 36.4732 10.1597 36.3984 10.1597 36.3693 10.1597 36.361 10.2017 36.3776 10.2647 36.3984 10.3445 36.3859 10.3697 36.336 10.3697 36.2945 10.3697 36.2695 10.4075 36.2695 10.4747 36.2695 10.5335 36.2487 10.5797 36.2238 10.5797 36.1406 10.5797 36.0616 10.7015 36.0616 10.8275 36.0616 10.8989 36.045 10.9576 36.0201 10.9576 35.9993 10.9576 35.9785 10.987 35.9785 11.0206 35.9785 11.0542 35.9577 11.0836 35.9327 11.0836 35.8745 11.0836 35.7706 11.1886 35.7706 11.2474 35.7706 11.2726 35.7415 11.2936 35.7041 11.2936 35.6708 11.2936 35.6542 11.3146 35.6667 11.3356 35.6791 11.3608 35.6542 11.3776 35.6043 11.3776 35.5128 11.3776 35.1594 11.701 35.1761 11.7639 35.1844 11.7807 35.1594 11.7975 35.1262 11.7975 35.0929 11.7975 35.0638 11.8185 35.0638 11.8395 35.0638 11.8647 35.0264 11.8815 34.9765 11.8815 34.8975 11.8815 34.7728 11.9697 34.7728 12.0285 34.7728 12.0705 34.6564 12.1755 34.6106 12.1755 34.5857 12.1755 34.5649 12.1881 34.5649 12.2091 34.5649 12.2595 34.7271 12.3855 34.7936 12.3855 34.8268 12.3855 34.8559 12.4065 34.8559 12.4275 34.8559 12.4527 34.9017 12.4695 34.9599 12.4695 35.0181 12.4695 35.0638 12.4946 35.0638 12.524 35.0638 12.5576 35.1095 12.608 35.1677 12.6374 35.226 12.6668 35.2717 12.7088 35.2717 12.7298 35.2717 12.7844 35.3798 12.8894 35.4338 12.8894 35.4588 12.8894 35.4796 12.9272 35.4796 12.9776 35.4796 13.07 35.571 13.1834 35.6417 13.1834 35.6667 13.1834 35.6875 13.2212 35.6875 13.2716 35.6875 13.364 35.7789 13.4773 35.8496 13.4773 35.8745 13.4773 35.8953 13.5655 35.8953 13.6873L35.8953 13.8973 35.6459 13.8973C35.4962 13.8973 35.3964 13.8805 35.3964 13.8511 35.3964 13.7797 35.2841 13.6873 35.1927 13.6873 35.1428 13.6873 35.1054 13.6705 35.1054 13.6453 35.1054 13.6243 35.0763 13.6033 35.043 13.6033 35.0097 13.6033 34.9848 13.5781 34.9931 13.5529 34.9973 13.5193 34.9432 13.4941 34.8476 13.4857 34.7603 13.4773 34.6896 13.4563 34.6896 13.4311 34.6896 13.4101 34.6522 13.3933 34.6106 13.3933 34.569 13.3933 34.5233 13.364 34.5067 13.3303 34.4942 13.2967 34.4443 13.2673 34.3986 13.2673 34.3529 13.2673 34.3154 13.2506 34.3154 13.2253 34.3154 13.2043 34.2697 13.1834 34.2115 13.1834 34.1533 13.1834 34.1076 13.1666 34.1076 13.1414 34.1076 13.0742 34.0286 13.091 33.9329 13.1834 33.8831 13.2296 33.8082 13.2673 33.7666 13.2673 33.7251 13.2673 33.6918 13.2967 33.6918 13.3303 33.6918 13.3681 33.6502 13.3933 33.5837 13.3933L33.4798 13.3933 33.4922 12.8474C33.5005 12.4317 33.4922 12.3015 33.4548 12.3015 33.4215 12.3015 33.4008 12.2427 33.4008 12.1503 33.4008 11.9655 33.3218 11.8815 33.1555 11.8815 33.0848 11.8815 33.0266 11.8647 33.0266 11.8395 33.0266 11.8185 32.9808 11.7975 32.9226 11.7975 32.8561 11.7975 32.8187 11.7723 32.8187 11.7345 32.8187 11.6967 32.7813 11.6716 32.7148 11.6716 32.6565 11.6716 32.6108 11.6547 32.6108 11.6296 32.6108 11.6086 32.5817 11.5876 32.5485 11.5876 32.5027 11.5876 32.4861 11.638 32.4861 11.7765 32.4861 11.8815 32.4695 11.9655 32.4445 11.9655 32.4196 11.9655 32.4029 12.3309 32.4029 12.9734 32.4029 13.8427 32.3946 13.9813 32.3406 13.9813 32.3073 13.9813 32.2782 14.0107 32.2782 14.0443 32.2782 14.0778 32.2616 14.1072 32.2366 14.1072 32.2158 14.1072 32.1951 14.1366 32.1951 14.1702 32.1951 14.208 32.1493 14.2794 32.0911 14.334 32.0329 14.3886 31.9872 14.4726 31.9872 14.523 31.9872 14.5902 31.9622 14.6112 31.8791 14.6112 31.7918 14.6112 31.7793 14.628 31.8001 14.6952 31.8209 14.754 31.8084 14.7792 31.7627 14.7792 31.7253 14.7792 31.6961 14.8086 31.6961 14.8422 31.6961 14.8757 31.6754 14.9052 31.6504 14.9052 31.5922 14.9052 31.4883 15.0101 31.4883 15.0689 31.4883 15.0941 31.4716 15.1151 31.4467 15.1151 31.4259 15.1151 31.4051 15.1529 31.4051 15.1991 31.4051 15.2453 31.376 15.2831 31.3427 15.2831 31.3095 15.2831 31.2804 15.3125 31.2804 15.3461 31.2804 15.3797 31.2637 15.4091 31.2388 15.4091 31.218 15.4091 31.1972 15.4553 31.1972 15.5141 31.1972 15.5729 31.1764 15.6191 31.1557 15.6191 31.085 15.6191 30.9062 15.8164 30.9062 15.892 30.9062 15.9382 30.8563 15.955 30.6983 15.955 30.5403 15.955 30.4904 15.9382 30.4904 15.892ZM33.9246 11.8227C33.9579 11.7891 33.9828 11.722 33.9828 11.6757 33.9828 11.6254 34.0078 11.5876 34.0452 11.5876 34.0785 11.5876 34.1076 11.5666 34.1076 11.5414 34.1076 11.4952 34.2115 11.3776 34.2531 11.3776 34.2946 11.3776 34.3986 11.26 34.3986 11.2138 34.3986 11.1886 34.436 11.1676 34.4859 11.1676 34.5774 11.1676 34.6896 11.0752 34.6896 11.0038 34.6896 10.9786 34.7645 10.9576 34.8601 10.9576 34.9599 10.9576 35.0181 10.9409 35.0015 10.9156 34.9848 10.8905 35.0222 10.8736 35.0804 10.8736 35.1386 10.8736 35.1885 10.8569 35.1885 10.8317 35.1885 10.8107 35.2343 10.7897 35.2925 10.7897 35.359 10.7897 35.3964 10.7645 35.3964 10.7267 35.3964 10.6889 35.4338 10.6637 35.5004 10.6637 35.5793 10.6637 35.6043 10.6427 35.6043 10.5755 35.6043 10.4957 35.6916 10.3697 35.7498 10.3697 35.808 10.3697 35.8953 10.2437 35.8953 10.1639 35.8953 10.1135 35.9161 10.0757 35.9369 10.0757 35.9619 10.0757 35.9785 10.0296 35.9785 9.97075 35.9785 9.90357 36.0034 9.86576 36.045 9.86576 36.0907 9.86576 36.099 9.84058 36.0824 9.78599 36.0658 9.7314 36.0824 9.68941 36.1323 9.65582 36.1864 9.6222 36.1905 9.6012 36.1573 9.58861 36.1281 9.57602 36.1032 9.53821 36.1032 9.50462 36.1032 9.45843 36.0034 9.44584 35.5669 9.44584 35.2509 9.44584 35.0181 9.42903 35.0015 9.40385 34.989 9.38285 34.8268 9.36185 34.6439 9.36185 34.4526 9.36185 34.3154 9.34504 34.3154 9.31986 34.3154 9.25265 33.9038 9.26946 33.8332 9.33664 33.7999 9.37023 33.7749 9.45422 33.7749 9.52562 33.7749 9.59701 33.7583 9.65582 33.7334 9.65582 33.7126 9.65582 33.6918 9.68519 33.6918 9.71881 33.6918 9.7524 33.6669 9.78177 33.6336 9.78177 33.5962 9.78177 33.5837 9.81118 33.5962 9.86576 33.6128 9.92457 33.5962 9.94976 33.5504 9.94976 33.513 9.94976 33.4839 9.97916 33.4839 10.0127 33.4839 10.0464 33.4631 10.0757 33.4382 10.0757 33.38 10.0757 33.276 10.1807 33.276 10.2395 33.276 10.2647 33.2594 10.2857 33.2345 10.2857 33.2137 10.2857 33.1929 10.3151 33.1929 10.3487 33.1929 10.3865 33.1471 10.4579 33.0889 10.5125 33.0307 10.5671 32.985 10.6511 32.985 10.7015 32.985 10.7477 32.9684 10.7897 32.9434 10.7897 32.9226 10.7897 32.9018 10.8275 32.9018 10.8736 32.9018 10.9199 32.8728 10.9576 32.8395 10.9576 32.7938 10.9576 32.7771 11.0038 32.7771 11.1256 32.7771 11.2768 32.7896 11.2936 32.8811 11.2936 32.9393 11.2936 32.985 11.3146 32.985 11.3356 32.985 11.3608 33.0515 11.3776 33.1305 11.3776 33.2095 11.3776 33.276 11.3986 33.276 11.4196 33.276 11.4448 33.3426 11.4616 33.4215 11.4616 33.5213 11.4616 33.5671 11.4826 33.5671 11.5246 33.5671 11.5582 33.5962 11.5876 33.6294 11.5876 33.6627 11.5876 33.6918 11.6254 33.6918 11.6716 33.6918 11.7597 33.7708 11.8773 33.829 11.8815 33.8498 11.8815 33.8914 11.8563 33.9246 11.8227ZM32.4029 10.7687C32.4029 10.7099 32.4279 10.6637 32.4611 10.6637 32.4986 10.6637 32.511 10.6301 32.4944 10.5587 32.4861 10.4957 32.4944 10.4537 32.5277 10.4537 32.6025 10.4537 32.694 10.3403 32.694 10.2479 32.694 10.1975 32.7148 10.1597 32.7397 10.1597 32.7979 10.1597 32.9018 10.0547 32.9018 9.99597 32.9018 9.97075 32.9226 9.94976 32.9434 9.94976 33.0224 9.94976 33.1929 9.74818 33.1929 9.65582 33.1929 9.60961 33.2178 9.57183 33.2469 9.57183 33.2802 9.57183 33.301 9.51721 33.301 9.42484L33.301 9.27786 33.0806 9.27786C32.9601 9.27786 32.8603 9.29886 32.8603 9.31986 32.8603 9.34504 32.7397 9.36185 32.5859 9.36185 32.3198 9.36185 32.1951 9.41644 32.1951 9.52562 32.1951 9.55502 32.0953 9.57183 31.9456 9.57183 31.7668 9.57183 31.7003 9.55502 31.7086 9.52143 31.7128 9.48362 31.6338 9.46262 31.4467 9.45422 31.297 9.44584 31.1598 9.42484 31.139 9.39963 31.1141 9.37863 31.0808 9.36185 31.0559 9.36185 31.0351 9.36185 31.085 9.42903 31.1681 9.50883 31.2513 9.58861 31.3386 9.65582 31.3635 9.65582 31.3843 9.65582 31.4051 9.68519 31.4051 9.71881 31.4051 9.7524 31.4425 9.78177 31.4883 9.78177 31.534 9.78177 31.5714 9.80277 31.5714 9.82377 31.5714 9.84898 31.5922 9.86576 31.613 9.86576 31.7003 9.86576 31.825 10.0212 31.7959 10.0884 31.7793 10.1387 31.7918 10.1597 31.8375 10.1597 31.8791 10.1597 31.904 10.1975 31.904 10.2563 31.904 10.3067 31.9414 10.3781 31.9872 10.4117 32.0329 10.4453 32.0703 10.4957 32.0703 10.5251 32.0703 10.5545 32.0911 10.5797 32.1161 10.5797 32.1867 10.5797 32.2782 10.6931 32.2782 10.7855 32.2782 10.8359 32.3032 10.8736 32.3406 10.8736 32.378 10.8736 32.4029 10.8359 32.4029 10.7687ZM35.9785 8.8999C35.9785 8.87891 35.9619 8.85791 35.9369 8.85791 35.9161 8.85791 35.8953 8.8201 35.8953 8.7697 35.8953 8.67734 35.8039 8.56394 35.7332 8.56394 35.7082 8.56394 35.6875 8.52614 35.6875 8.47574 35.6875 8.38337 35.596 8.26998 35.5253 8.26998 35.5004 8.26998 35.4837 8.24479 35.492 8.21958 35.4962 8.1818 35.4463 8.16499 35.334 8.16499 35.2218 8.16499 35.1719 8.1818 35.1802 8.21958 35.1844 8.25317 35.1345 8.26998 35.0222 8.26998 34.9308 8.26998 34.8559 8.29098 34.8559 8.31197 34.8559 8.33716 34.8975 8.35397 34.9516 8.35397 35.0015 8.35397 35.0804 8.40015 35.122 8.45896 35.1636 8.51773 35.2343 8.56394 35.2759 8.56394 35.3216 8.56394 35.3548 8.58494 35.3548 8.60594 35.3548 8.63113 35.4006 8.64793 35.4588 8.64793 35.517 8.64793 35.5627 8.66893 35.5627 8.69412 35.5627 8.76133 35.6916 8.85369 35.7831 8.85791 35.8205 8.85791 35.8537 8.87891 35.8537 8.8999 35.8537 8.92509 35.8829 8.9419 35.9161 8.9419 35.9494 8.9419 35.9785 8.92509 35.9785 8.8999ZM36.573 8.71093C36.5564 8.59335 36.5647 8.56394 36.6188 8.56394 36.6603 8.56394 36.6853 8.52614 36.6853 8.45896 36.6853 8.40015 36.7061 8.35397 36.7268 8.35397 36.7518 8.35397 36.7684 8.28679 36.7684 8.20699 36.7684 8.10619 36.7892 8.06 36.8308 8.06 36.8724 8.06 36.8932 8.01382 36.8932 7.91302 36.8932 7.81222 36.8724 7.76604 36.8308 7.76604 36.7934 7.76604 36.7684 7.72826 36.7684 7.66105 36.7684 7.56447 36.756 7.55606 36.5606 7.55606 36.4483 7.55606 36.3527 7.57287 36.3527 7.59387 36.3527 7.61487 36.3111 7.64005 36.2612 7.64846 36.2071 7.65686 36.1697 7.68626 36.178 7.71564 36.1822 7.74085 36.1573 7.76604 36.124 7.76604 36.0866 7.76604 36.0616 7.80384 36.0616 7.87103 36.0616 7.93821 36.0866 7.97601 36.124 7.97601 36.1656 7.97601 36.1864 8.01801 36.1864 8.10619 36.1864 8.23639 36.2654 8.35397 36.3527 8.35397 36.3859 8.35397 36.3943 8.39178 36.3776 8.45896 36.3568 8.53454 36.3693 8.56394 36.415 8.56394 36.4483 8.56394 36.4774 8.60172 36.4774 8.64793 36.4774 8.71933 36.5481 8.84951 36.5897 8.85791 36.5938 8.85791 36.5855 8.7907 36.573 8.71093Z" fill-rule="evenodd" transform="matrix(1 0 0 -1 1167 391)"/></g></svg>