<svg width="32" height="34" xmlns="http://www.w3.org/2000/svg" xmlns:xlink="http://www.w3.org/1999/xlink" overflow="hidden"><defs><clipPath id="clip0"><rect x="1074" y="358" width="32" height="34"/></clipPath></defs><g clip-path="url(#clip0)" transform="translate(-1074 -358)"><path d="M19.9247 9.5474C19.8437 9.52043 19.7187 9.37556 19.6309 9.20374 19.5025 8.95441 19.462 8.88028 19.4181 8.82975 19.3472 8.75226 18.9993 8.05822 18.9993 8.00094 18.9993 7.97061 18.9621 7.90661 18.9148 7.84933 18.8574 7.78194 18.8304 7.70782 18.8304 7.62359 18.8304 7.5562 18.8169 7.48546 18.8034 7.46861 18.7426 7.39785 18.6514 7.01378 18.6716 6.9127 18.6885 6.83522 18.675 6.7813 18.6244 6.71055 18.5636 6.62968 18.5568 6.59599 18.5838 6.48481 18.6311 6.28602 18.7223 6.29615 18.8642 6.51514 18.925 6.61284 19.0263 6.75771 19.0905 6.83522 19.1513 6.9127 19.2019 6.98345 19.2019 6.99355 19.2019 7.00367 19.2627 7.09801 19.337 7.20244 19.4113 7.31026 19.4721 7.41469 19.4721 7.43492 19.4721 7.45851 19.5025 7.50231 19.5397 7.536 19.5768 7.56969 19.6072 7.61685 19.6072 7.63707 19.6072 7.66066 19.6309 7.69771 19.6579 7.7213 19.7626 7.80889 19.8774 8.06496 19.8774 8.2233 19.8808 8.30753 19.9011 8.41534 19.9281 8.46252 19.9551 8.50968 19.9754 8.61075 19.9788 8.69162 19.9788 8.76911 19.9922 8.86008 20.0091 8.89377 20.0733 9.02518 20.124 9.19363 20.1409 9.33512 20.151 9.45304 20.1409 9.49348 20.0936 9.53055 20.0294 9.57771 20.0294 9.57771 19.9247 9.5474ZM24.7681 10.7839C24.6465 10.7704 24.5519 10.7435 24.5249 10.7165 24.5046 10.6996 24.4573 10.6862 24.4168 10.6862 24.3763 10.6862 24.3256 10.6626 24.302 10.6356 24.2783 10.6087 24.2412 10.5851 24.2175 10.5851 24.1939 10.5851 24.1399 10.5581 24.0959 10.5211 24.052 10.4874 23.9608 10.4469 23.8967 10.4368 23.7346 10.4032 23.3934 10.2381 23.39 10.1943 23.39 10.1741 23.3596 10.1303 23.3191 10.0932 23.282 10.0595 23.211 9.9517 23.1671 9.85398 23.1198 9.75627 23.0624 9.67542 23.0354 9.67542 23.0118 9.67542 22.9746 9.65183 22.951 9.62488 22.9273 9.59794 22.8328 9.53391 22.7382 9.49012 22.647 9.44294 22.4646 9.31492 22.3363 9.20374 22.2079 9.09256 22.0762 9.00159 22.0458 9.00159 22.0154 9.00159 21.9512 8.97126 21.9039 8.9342 21.8566 8.89713 21.7925 8.86682 21.7587 8.86682 21.6709 8.86682 21.2419 8.63772 21.0494 8.48947 20.9582 8.41873 20.8704 8.36144 20.8535 8.36144 20.8366 8.36144 20.8231 8.34122 20.8231 8.31427 20.8231 8.28732 20.786 8.21994 20.7387 8.16604 20.6914 8.10876 20.6543 8.05148 20.6543 8.03799 20.6543 8.02453 20.4516 7.80553 20.2084 7.55284 19.7727 7.10475 19.5498 6.84194 19.5025 6.72065 19.489 6.68696 19.4316 6.61622 19.3742 6.5623 19.3167 6.50502 19.2695 6.44776 19.2695 6.43428 19.2695 6.41743 19.1816 6.28941 19.077 6.1479 18.9689 6.00639 18.8608 5.86152 18.8338 5.82108 18.8067 5.78065 18.7426 5.70654 18.6953 5.64926 18.6041 5.54819 18.4589 5.27191 18.4589 5.20117 18.4589 5.15735 18.2697 4.86761 18.2191 4.84066 18.2022 4.82718 18.1887 4.78338 18.1887 4.74295 18.1887 4.69915 18.1684 4.64525 18.1414 4.62503 18.1144 4.60144 18.0705 4.53744 18.0401 4.4768 18.0097 4.41613 17.9691 4.34539 17.9522 4.31844 17.9354 4.29149 17.8915 4.19714 17.8509 4.10955 17.8138 4.02532 17.7597 3.94445 17.7327 3.93435 17.7057 3.92424 17.682 3.89055 17.682 3.85686 17.6787 3.82317 17.6347 3.73558 17.5807 3.66145 17.5267 3.58733 17.4287 3.42223 17.3612 3.29084 17.2936 3.16282 17.2024 2.99436 17.1551 2.92023 17.1112 2.84611 17.0572 2.75514 17.0403 2.71808 17.02 2.68101 16.939 2.5294 16.8546 2.38117 16.5337 1.80167 16.5033 1.68375 16.6823 1.66354 16.7938 1.65005 16.8951 1.73092 17.0504 1.96002 17.2092 2.19586 17.3477 2.32725 17.5301 2.41822 17.6246 2.4654 17.7293 2.5294 17.7665 2.56309 17.8036 2.59342 17.9083 2.65744 17.9961 2.70124 18.2258 2.81916 18.2596 2.83937 18.415 2.96403 18.4893 3.02131 18.567 3.07185 18.5838 3.07185 18.6007 3.07185 18.7021 3.16282 18.8135 3.274 18.925 3.38518 19.0263 3.47615 19.0432 3.47615 19.0601 3.47615 19.1479 3.5132 19.2425 3.56038 19.3336 3.60753 19.4248 3.64461 19.4451 3.64461 19.4654 3.64461 19.5329 3.68166 19.5937 3.72884 19.6545 3.77599 19.7187 3.81307 19.7356 3.81307 19.7525 3.81307 19.8234 3.86696 19.8909 3.93099 19.9922 4.02532 20.0463 4.04891 20.1476 4.04891 20.2185 4.04891 20.2861 4.06237 20.2962 4.07922 20.3266 4.12639 21.1372 4.16009 22.0559 4.1466 22.5389 4.13988 23.2043 4.13314 23.5319 4.13314 24.1027 4.1365 24.1331 4.13988 24.2108 4.21062 24.2547 4.25106 24.3222 4.28475 24.3594 4.28475 24.3999 4.28475 24.4742 4.30496 24.5283 4.3319 24.6836 4.40941 24.8559 4.45321 25.0045 4.45321 25.0788 4.45321 25.1497 4.46667 25.1598 4.48352 25.17 4.497 25.3355 4.52059 25.5246 4.53405 25.9975 4.56439 26.2846 4.62167 26.3521 4.69915 26.4197 4.7699 26.4298 5.1203 26.369 5.15735 26.3082 5.19443 26.1596 5.49427 26.1596 5.58188 26.1596 5.62567 26.1427 5.67285 26.1224 5.68295 26.0549 5.72675 26.0211 5.84467 25.913 6.40733 25.886 6.54545 25.8387 6.76783 25.8083 6.89586 25.7813 7.02724 25.7543 7.20244 25.7543 7.29005 25.7543 7.37764 25.7408 7.45513 25.7239 7.46523 25.707 7.47536 25.6834 7.61685 25.6732 7.77858 25.6597 7.94366 25.6361 8.11212 25.6226 8.15929 25.6057 8.20645 25.5753 8.35806 25.5517 8.49621 25.5314 8.63434 25.4909 8.79944 25.4638 8.86008 25.4368 8.92746 25.4166 9.08243 25.4166 9.25764 25.4166 9.49686 25.403 9.57096 25.3321 9.70911 25.2848 9.80009 25.2477 9.90452 25.2477 9.93821 25.2477 9.97526 25.224 10.0224 25.197 10.046 25.17 10.0696 25.1463 10.1202 25.1463 10.1606 25.1463 10.201 25.1328 10.2482 25.1159 10.2684 25.1024 10.2852 25.0619 10.3695 25.0281 10.4604 24.9944 10.548 24.9336 10.6558 24.8896 10.703 24.8457 10.7502 24.7917 10.7839 24.7681 10.7839ZM5.54664 12.9031C5.36424 12.9132 5.35072 12.9064 5.32034 12.8256 5.30006 12.7751 5.28656 12.6571 5.28656 12.5561 5.28656 12.455 5.27305 12.364 5.25279 12.3539 5.2359 12.3438 5.21901 12.3 5.21562 12.2596 5.21562 12.2191 5.18524 12.1417 5.14807 12.0844 5.1143 12.0305 5.07039 11.9496 5.05014 11.9058 5.00623 11.8047 4.52662 11.3263 4.46583 11.3263 4.44219 11.3263 4.37463 11.2758 4.31384 11.2151 4.22602 11.1242 4.20576 11.077 4.20576 10.9591 4.20576 10.858 4.22602 10.7973 4.26655 10.767 4.33747 10.7131 4.6043 10.7064 4.73264 10.7569 4.83736 10.794 5.02649 10.986 5.10417 11.1343 5.13119 11.1848 5.17172 11.2252 5.19537 11.2252 5.24266 11.2252 5.50271 11.488 5.6108 11.6464 5.68847 11.7576 5.70875 11.8452 5.76618 12.3303 5.7898 12.5291 5.79319 12.6874 5.77291 12.7683 5.74253 12.893 5.74253 12.893 5.54664 12.9031ZM18.0143 13.7062C17.9674 13.7092 17.9421 13.7016 17.9185 13.6847 17.8915 13.6679 17.8374 13.651 17.7969 13.651 17.7597 13.651 17.6922 13.614 17.6483 13.5668 17.6044 13.5196 17.5503 13.4826 17.5301 13.4826 17.5098 13.4826 17.4456 13.4388 17.3916 13.3849 17.2869 13.2838 17.1281 13.1794 16.9491 13.0985 16.8917 13.0715 16.8241 13.0176 16.8039 12.9738 16.7532 12.8862 16.5978 12.7447 16.5472 12.7414 16.5269 12.7414 16.4763 12.711 16.4324 12.674 16.3885 12.6369 16.3412 12.6066 16.3243 12.6066 16.277 12.6066 15.9291 12.4381 15.9088 12.4044 15.8987 12.3876 15.8177 12.3404 15.7332 12.3034 15.5576 12.2259 15.4867 12.2528 15.4867 12.391 15.4867 12.455 15.463 12.4786 15.3853 12.4954 15.3279 12.5055 15.2739 12.5291 15.2637 12.5426 15.2536 12.5594 15.2165 12.5729 15.1793 12.5729 15.0982 12.5729 15.0949 12.6605 15.1759 12.7043 15.2097 12.7211 15.3178 12.7481 15.4123 12.7616 15.5103 12.7751 15.5981 12.7953 15.6082 12.8121 15.615 12.829 15.6893 12.8694 15.767 12.9031 15.8447 12.9368 15.9798 13.0311 16.071 13.112 16.2128 13.24 16.2297 13.2737 16.2297 13.3984 16.2297 13.5668 16.2027 13.5837 15.946 13.5837 15.7906 13.5837 15.7433 13.5668 15.5677 13.4421 15.3819 13.3074 15.3549 13.2973 15.1692 13.304 15.0611 13.3074 14.9564 13.3242 14.9361 13.3444 14.9158 13.3647 14.8652 13.3815 14.8247 13.3815 14.7841 13.3815 14.7335 13.4051 14.7098 13.432 14.6761 13.4725 14.6119 13.4826 14.443 13.4758L14.2201 13.4657 14.21 13.3175C14.2032 13.2164 14.2167 13.1524 14.2572 13.1052 14.3113 13.0513 14.3113 13.0345 14.2708 13.0109 14.2437 12.9907 14.1491 12.9772 14.0613 12.9772 13.9127 12.9772 13.8925 12.9671 13.8182 12.8525 13.6999 12.6639 13.6324 12.6167 13.4297 12.5931 13.3149 12.5763 13.1933 12.5325 13.1089 12.4786 13.0312 12.428 12.9231 12.364 12.8623 12.3404 12.6158 12.2394 12.5752 11.9294 12.8015 11.8519 12.8792 11.8249 13.0548 11.5655 13.0548 11.4745 13.0548 11.4375 13.0785 11.3802 13.1055 11.3465 13.1325 11.3095 13.1562 11.2522 13.1562 11.2219 13.1562 11.1882 13.1933 11.1174 13.2406 11.0635 13.2879 11.0062 13.325 10.9389 13.325 10.9119 13.325 10.8816 13.3419 10.8479 13.3588 10.8378 13.3791 10.8277 13.3926 10.7704 13.3926 10.7165 13.3926 10.575 13.5716 10.2448 13.7304 10.0999 13.8047 10.0325 13.8992 9.91462 13.9431 9.83714 13.9837 9.76301 14.0343 9.67204 14.0546 9.63835 14.0715 9.60466 14.1255 9.49348 14.1694 9.3924 14.2133 9.28797 14.2572 9.20374 14.2708 9.20374 14.2843 9.20374 14.3147 9.13971 14.3383 9.06223 14.3653 8.98136 14.4059 8.88367 14.4329 8.83987 14.5105 8.71857 14.4734 8.39514 14.3619 8.25027 14.2674 8.1256 14.0478 7.98745 13.8182 7.90997 13.7405 7.88302 13.6358 7.83922 13.5784 7.81227 13.3825 7.71456 13.1595 7.62023 13.1292 7.62023 13.1123 7.62023 13.0616 7.5899 13.0143 7.5562 12.9704 7.51915 12.886 7.47872 12.8319 7.46523 12.7779 7.45177 12.6901 7.41469 12.6327 7.38439 12.5786 7.35405 12.4942 7.32036 12.4469 7.3069 12.3388 7.27993 12.1058 7.33385 12.0585 7.39449 12.0416 7.42144 11.9909 7.45177 11.9504 7.46523 11.9099 7.47872 11.8491 7.536 11.8119 7.59664 11.7613 7.68087 11.7072 7.71792 11.5485 7.7651 11.437 7.79543 11.3019 7.82238 11.2479 7.82238 11.1905 7.82238 11.1094 7.84597 11.0621 7.87292 11.0148 7.89986 10.954 7.9302 10.927 7.94366 10.9 7.95714 10.8324 8.0043 10.7818 8.04812 10.7277 8.09191 10.6568 8.1256 10.6196 8.1256 10.5386 8.1256 10.3866 8.21994 10.3866 8.27047 10.3866 8.32775 10.5014 8.39175 10.6061 8.39514 10.6737 8.39514 10.7413 8.35806 10.8257 8.28058 11.0351 8.07843 11.3999 8.00768 11.687 8.10876 11.7613 8.13571 11.8423 8.15929 11.866 8.15929 11.9335 8.15929 12.1767 8.40188 12.2274 8.51642 12.2679 8.61749 12.2814 8.62424 12.5009 8.63772 12.7002 8.64782 12.761 8.66803 12.9231 8.77585 13.0278 8.84323 13.1427 8.90051 13.1764 8.90051 13.2102 8.90051 13.271 8.9241 13.3048 8.95105 13.3419 8.978 13.3994 9.00159 13.4331 9.00159 13.4669 9.00159 13.5547 9.05549 13.6256 9.12287 13.8047 9.28122 13.835 9.45979 13.7337 9.69227 13.6932 9.77986 13.6628 9.87083 13.6628 9.89442 13.6628 9.91462 13.6324 9.9618 13.5953 9.99549 13.5074 10.0763 13.2203 10.0494 13.1123 9.95506 13.0717 9.91462 12.9873 9.87419 12.9299 9.86073 12.8691 9.85062 12.8117 9.82703 12.8015 9.81019 12.761 9.74617 12.6833 9.81693 12.7036 9.89778 12.7205 9.95842 12.7002 10.0022 12.6191 10.0763 12.5617 10.1303 12.5144 10.1842 12.5144 10.1976 12.5144 10.2111 12.484 10.2583 12.4469 10.3055 12.4097 10.3526 12.3793 10.4267 12.3793 10.4672 12.3793 10.5076 12.3557 10.5615 12.3321 10.5851 12.305 10.6053 12.2645 10.6761 12.2442 10.7401 12.224 10.8041 12.1868 10.8546 12.1666 10.858 12.1429 10.8614 12.0889 10.8647 12.045 10.8647 11.9875 10.8715 11.9538 10.9052 11.9133 11.0029 11.866 11.1208 11.866 11.1478 11.9166 11.2892 11.947 11.3802 11.9774 11.6295 11.9909 11.9058 12.0146 12.3438 12.0112 12.3775 11.9369 12.5291 11.8964 12.6201 11.8254 12.738 11.7815 12.7953 11.7376 12.8525 11.7038 12.9132 11.7038 12.93 11.7038 12.9503 11.6431 13.0244 11.5687 13.0951L11.4303 13.2299 11.1195 13.24C10.7108 13.2535 10.6298 13.2063 10.4879 12.8829 10.3832 12.6403 10.1975 12.5055 9.97792 12.5055 9.84621 12.5055 9.61315 12.61 9.56588 12.6942 9.54899 12.7245 9.48144 12.7414 9.38348 12.7414 9.2619 12.7414 9.21124 12.7245 9.15043 12.6571 9.10652 12.61 9.03561 12.5729 8.98494 12.5729 8.93428 12.5729 8.86673 12.5561 8.82956 12.5358 8.67758 12.455 8.37023 12.6605 8.22837 12.9368 8.16758 13.0547 8.14056 13.0783 8.05949 13.0783 8.00546 13.0783 7.94467 13.0581 7.92439 13.0345 7.87712 12.9738 7.87036 12.3303 7.91763 12.2427 7.93791 12.2057 7.99534 12.1585 8.046 12.1417 8.10003 12.1214 8.17771 12.0743 8.225 12.0372L8.30944 11.9665 8.225 11.9024C8.16758 11.8553 8.12704 11.8452 8.0899 11.8687 8.06289 11.8856 7.99534 11.9294 7.93791 11.9631 7.88386 11.9934 7.79268 12.0844 7.74202 12.1619 7.68797 12.2394 7.62718 12.3034 7.60353 12.3034 7.57651 12.3034 7.53598 12.327 7.51233 12.3573 7.44817 12.4348 7.22524 12.5729 7.16445 12.5729 7.14081 12.5729 7.10029 12.5965 7.07665 12.6234 7.053 12.6504 6.99897 12.674 6.95504 12.674 6.8706 12.674 6.76254 12.5493 6.79969 12.492 6.80981 12.4718 6.83009 12.0372 6.84359 11.5285L6.86387 10.6019 6.98882 10.3695C7.06652 10.2212 7.11042 10.0865 7.11042 10.009 7.11042 9.93821 7.14757 9.80681 7.19486 9.71586 7.24213 9.6215 7.2793 9.52381 7.2793 9.49686 7.2793 9.46989 7.30294 9.40251 7.32996 9.35197 7.35698 9.29807 7.38062 9.21384 7.38062 9.16666 7.38062 9.11951 7.41101 9.05212 7.44817 9.01843 7.48532 8.98474 7.51572 8.93082 7.51572 8.90051 7.51572 8.87018 7.55287 8.80954 7.60016 8.76575 7.64743 8.72195 7.6846 8.65793 7.6846 8.6276 7.6846 8.5939 7.70825 8.51306 7.73863 8.44903 7.80957 8.30416 7.78253 8.22668 7.66095 8.22668 7.58664 8.22668 7.49208 8.15255 7.22188 7.88302 7.02935 7.69097 6.874 7.51915 6.874 7.49556 6.874 7.45851 6.7828 7.34059 6.49908 7.00367 6.29306 6.76109 6.13094 6.50502 6.07689 6.33994 6.0465 6.24561 6.00934 6.16138 5.99245 6.15126 5.97556 6.14115 5.96207 6.1041 5.96207 6.06703 5.96207 6.03334 5.9249 5.93226 5.881 5.84131 5.83373 5.7537 5.73577 5.55493 5.66146 5.39657 5.58378 5.23822 5.50947 5.08661 5.49258 5.05966 5.4757 5.03271 5.42166 4.92489 5.371 4.82382 5.32371 4.72274 5.26968 4.61492 5.25616 4.58797 5.23927 4.56103 5.20213 4.48352 5.17172 4.41952 5.14134 4.35549 5.09404 4.26452 5.06703 4.21737 5.04001 4.17019 4.98596 4.06575 4.94881 3.98152 4.90828 3.89729 4.82721 3.7322 4.76305 3.61091 4.69887 3.48961 4.6482 3.35823 4.6482 3.32115 4.64484 3.28074 4.62119 3.2302 4.59417 3.20661 4.55364 3.17292 4.54351 3.1089 4.55027 2.95729L4.5604 2.75178 6.24916 2.74167C7.44817 2.73493 7.95817 2.74503 8.00883 2.77198 8.05949 2.79893 8.10003 2.79893 8.14732 2.77198 8.18447 2.75514 8.38036 2.72819 8.58301 2.7147 8.94441 2.6945 9.20109 2.63386 9.30917 2.54288 9.33619 2.51929 9.38012 2.49909 9.40374 2.49909 9.44428 2.49909 9.65369 2.41822 9.73136 2.37106 9.91037 2.26325 10.0725 2.14194 10.1097 2.08805 10.1333 2.05435 10.2042 2.00382 10.2616 1.98023 10.3224 1.95328 10.4069 1.896 10.4542 1.8522 10.5014 1.80841 10.5926 1.75113 10.6568 1.72754 10.9101 1.62646 11.1229 1.52539 11.1466 1.4917 11.1567 1.47149 11.2681 1.41085 11.3897 1.35357 11.5113 1.29629 11.6565 1.21206 11.7106 1.16827 11.7646 1.12109 11.8322 1.08404 11.8626 1.08404 11.8896 1.08404 11.9605 1.05035 12.0179 1.00991 12.2071 0.871784 12.2915 0.841452 12.5077 0.824607L12.7171 0.8044 12.7171 0.945888C12.7171 1.0234 12.6934 1.14132 12.6664 1.2087 12.6394 1.2727 12.6158 1.39062 12.6158 1.46811 12.6158 1.54562 12.5989 1.62646 12.582 1.64331 12.5617 1.66354 12.5415 1.78818 12.5347 1.92295 12.5212 2.18912 12.4604 2.29694 12.3253 2.29694 12.2814 2.29694 12.1801 2.35422 12.0956 2.42496 12.0146 2.49235 11.8862 2.58668 11.8119 2.63047 11.7376 2.67429 11.589 2.79221 11.4809 2.89329 11.3728 2.99436 11.2445 3.0988 11.1905 3.12575 11.1398 3.15269 11.0959 3.19313 11.0959 3.21672 11.0959 3.24031 11.052 3.30431 10.9979 3.35484 10.8662 3.47951 10.7683 3.70189 10.8189 3.75242 10.8493 3.78273 10.8696 3.76253 10.9067 3.67492 10.9574 3.557 11.3154 3.19651 11.4674 3.10554 11.6059 3.02805 12.1666 3.01793 12.4469 3.09205 12.7002 3.15608 12.7509 3.21336 12.6833 3.34138 12.6529 3.39866 12.6597 3.44246 12.7137 3.557 12.7509 3.63786 12.8083 3.71199 12.8387 3.72545 12.9164 3.75578 13.0244 3.63786 13.1021 3.44246 13.2676 3.03477 13.3217 2.97077 13.4973 2.97077 13.6662 2.97077 13.8114 3.05836 13.8823 3.20323 14.0174 3.48289 14.0478 3.53343 14.1458 3.6345 14.1998 3.69176 14.2606 3.76927 14.2843 3.80632 14.3045 3.84337 14.3687 3.94783 14.4227 4.03542 14.5173 4.19042 14.5241 4.22073 14.5173 4.50036 14.5072 4.90466 14.4869 4.92489 14.1052 4.92489 13.9465 4.92489 13.7607 4.94174 13.6966 4.96194 13.5345 5.01248 13.2203 5.02597 13.1427 4.98553 13.1089 4.96869 12.967 4.93835 12.8218 4.92151 12.6799 4.9013 12.4976 4.8811 12.4131 4.86761 12.3321 4.85751 12.2071 4.81371 12.1362 4.7699 12.0652 4.7261 11.974 4.68905 11.9301 4.68905 11.8119 4.68905 11.6363 4.78674 11.6025 4.87097 11.589 4.91141 11.5519 4.96533 11.5214 4.98889 11.4539 5.04617 11.4505 5.27191 11.5181 5.34266 11.5451 5.36963 11.6025 5.40332 11.6464 5.41342 11.687 5.42352 11.7511 5.44711 11.7883 5.46396 12.0213 5.56839 12.1395 5.59873 12.3152 5.59873 12.4232 5.59873 12.5212 5.61557 12.5313 5.63242 12.5415 5.65262 12.6259 5.66611 12.7171 5.66611 12.8083 5.66611 12.8927 5.65262 12.9029 5.63242 12.9299 5.58862 13.2474 5.58862 13.2744 5.62903 13.2845 5.64588 13.3352 5.66947 13.3892 5.68295 13.4433 5.69306 13.5074 5.72675 13.5311 5.7537 13.5513 5.78065 13.5953 5.80088 13.629 5.80088 13.6628 5.80088 13.7067 5.82446 13.7304 5.85141 13.754 5.88172 13.8486 5.93564 13.9398 5.97608 14.0917 6.04008 14.1019 6.05356 14.1019 6.17148 14.1019 6.26246 14.085 6.30625 14.0445 6.3231 13.9026 6.37363 13.0616 6.2793 12.9704 6.20179 12.9265 6.158 12.6901 6.16474 12.609 6.20854 12.555 6.23549 12.5043 6.23549 12.4064 6.20518 12.2949 6.1681 12.2375 6.1681 12.0044 6.22202 11.7444 6.28266 11.7207 6.28266 11.5687 6.22876 11.4708 6.19507 11.3053 6.17148 11.1533 6.17148 10.9979 6.17148 10.8628 6.15126 10.802 6.12431 10.7514 6.09736 10.6568 6.05692 10.5926 6.03334 10.4339 5.97608 10.2954 5.84803 10.2143 5.69306 10.1772 5.61893 10.1299 5.56503 10.1063 5.57514 10.0421 5.59534 10.0387 5.73011 10.0961 5.81772 10.1265 5.86152 10.1502 5.9188 10.1502 5.94239 10.1502 5.97944 10.2785 6.13779 10.5352 6.41407 10.6095 6.4983 10.7514 6.52525 10.8764 6.47807 11.0317 6.42417 11.1466 6.43091 11.3256 6.5185 11.4573 6.57914 11.5383 6.59263 11.7984 6.58925 11.9842 6.58589 12.1294 6.56904 12.153 6.54545 12.1733 6.52525 12.2949 6.5084 12.43 6.5084 12.6327 6.5084 12.6833 6.5185 12.7374 6.57914 12.8421 6.69371 12.9704 6.74424 13.1629 6.74424 13.2609 6.74424 13.4027 6.76783 13.477 6.79478 13.5547 6.82173 13.7405 6.84194 13.9195 6.84532 14.1829 6.84532 14.2336 6.85542 14.2876 6.9127 14.3417 6.97334 14.3923 6.98008 14.8179 6.98008 15.2232 6.98008 15.3077 6.99019 15.4428 7.05083 15.6251 7.13506 15.8548 7.12495 15.9595 7.03062 16.0642 6.93629 16.0541 6.64653 15.9426 6.51514 15.8312 6.38374 15.7602 6.36689 15.1996 6.3433 14.7605 6.3231 14.7267 6.31971 14.7166 6.25571 14.7098 6.21864 14.6153 6.1041 14.5038 5.99964 14.2876 5.79413 14.2539 5.6897 14.3687 5.58524 14.4261 5.53134 14.4565 5.52796 14.6085 5.56165 14.7031 5.58188 14.9091 5.59873 15.0645 5.59873 15.3279 5.59873 15.3516 5.59198 15.4157 5.51111 15.4833 5.42352 15.4833 5.25507 15.4157 5.18094 15.3516 5.1102 15.3853 4.96533 15.4799 4.8912 15.6724 4.73959 15.7569 4.59808 15.7839 4.39593 15.8075 4.20726 15.8109 4.20052 15.9156 4.19042 16 4.18029 16.0473 4.20052 16.1149 4.27465 16.1622 4.32518 16.2162 4.39929 16.2331 4.43636 16.25 4.47341 16.3175 4.57113 16.3783 4.65536 16.4425 4.73959 16.4965 4.82382 16.4965 4.84402 16.4999 4.86425 16.5303 4.92151 16.5675 4.96533 16.6012 5.01248 16.6587 5.12366 16.689 5.21463 16.7194 5.3056 16.7701 5.41004 16.8039 5.44711 16.9052 5.56503 16.9086 5.58862 16.9255 6.38374 16.9356 6.81163 16.9592 7.23613 16.9761 7.32711 17.0099 7.47872 17.0065 7.49556 16.9018 7.65728 16.8174 7.78869 16.787 7.87966 16.7769 8.02115 16.7667 8.19635 16.7769 8.2233 16.9052 8.40188 16.9795 8.50631 17.0842 8.61075 17.1382 8.63434 17.27 8.69162 17.2835 8.79944 17.2936 9.7327 17.3038 10.3526 17.3139 10.4941 17.3578 10.5581 17.3882 10.5986 17.4118 10.6525 17.4118 10.6761 17.4118 10.7199 17.5301 10.9119 17.655 11.0702 17.6989 11.1275 17.7496 11.2118 17.7732 11.2657 17.7969 11.3162 17.8306 11.36 17.8509 11.36 17.8678 11.36 17.8847 11.3836 17.8847 11.4105 17.8847 11.4409 17.9421 11.5251 18.013 11.606 18.0806 11.6834 18.1549 11.771 18.1718 11.8014 18.192 11.8317 18.2495 11.9227 18.3035 12.0001 18.3575 12.081 18.415 12.2023 18.4319 12.2663 18.4521 12.3337 18.4893 12.4146 18.5163 12.4449 18.594 12.5291 18.594 13.2602 18.5163 13.4186 18.4487 13.5668 18.3677 13.6342 18.2393 13.6645 18.1296 13.6898 18.0612 13.7033 18.0143 13.7062ZM2.10663 13.9631C1.95127 13.9677 1.855 13.9627 1.83137 13.9475 1.81109 13.934 1.71653 13.9138 1.62196 13.9037 1.53076 13.8902 1.42607 13.8566 1.39566 13.8296 1.32811 13.769 1.28421 13.5297 1.31798 13.3849 1.33824 13.2939 1.35513 13.2804 1.45308 13.2804 1.51724 13.2804 1.57806 13.2973 1.58819 13.3141 1.63209 13.3815 1.69964 13.3444 1.7199 13.24 1.74354 13.1153 1.82798 13.0109 1.90905 13.0109 1.93943 13.0109 2.00025 12.9738 2.04415 12.9267 2.08805 12.8795 2.13872 12.8424 2.1556 12.8424 2.17249 12.8424 2.2468 12.7885 2.31772 12.7245 2.43593 12.6201 2.46971 12.6066 2.63521 12.6066 2.89529 12.6066 3.12495 12.7178 3.12495 12.8424 3.12495 12.8728 3.1621 12.9334 3.20939 12.9772 3.32085 13.0816 3.31409 13.2232 3.20263 13.24 3.11144 13.2535 3.09794 13.3512 3.17562 13.4152 3.23978 13.4657 3.24317 13.7487 3.18575 13.8296 3.15197 13.8734 3.04728 13.8936 2.73654 13.9206 2.47647 13.9441 2.26198 13.9585 2.10663 13.9631ZM3.93385 14.7974C3.86041 14.7957 3.79031 14.7561 3.72615 14.6786 3.67212 14.618 3.63158 14.554 3.63158 14.5338 3.63158 14.5169 3.59781 14.463 3.56064 14.4125 3.45932 14.2844 3.45595 14.0621 3.5539 13.9981 3.61469 13.9576 3.61806 13.9374 3.58768 13.8532 3.55727 13.7757 3.56064 13.7319 3.60793 13.6342 3.63834 13.5702 3.67885 13.5163 3.69913 13.5163 3.76329 13.5163 3.73291 13.4219 3.64508 13.3579 3.58092 13.3107 3.5539 13.2535 3.54038 13.1423 3.52013 12.9637 3.55727 12.9199 3.7464 12.9031L3.8815 12.893 3.88826 12.7279C3.89502 12.6369 3.91867 12.5493 3.94232 12.5325 4.0166 12.4887 4.17198 12.5021 4.19224 12.5561 4.20576 12.583 4.23278 12.6066 4.25979 12.6066 4.32734 12.6066 4.31721 12.5089 4.24966 12.4819 4.17874 12.455 4.1078 12.4011 3.90178 12.2124 3.81395 12.1315 3.72615 12.0675 3.70589 12.0675 3.66536 12.0675 3.61806 11.8721 3.63834 11.7778 3.65184 11.7003 3.83423 11.6565 4.03012 11.6834 4.34086 11.7239 4.84749 12.0406 4.84749 12.1922 4.84749 12.2191 4.88463 12.2764 4.92853 12.3168 4.97246 12.3607 5.01636 12.4247 5.02649 12.4617 5.03662 12.4954 5.06363 12.5695 5.08728 12.6302 5.12106 12.711 5.12106 12.7548 5.09404 12.8155 5.07039 12.8593 5.04675 12.9637 5.03325 13.048 5.01973 13.1524 4.98596 13.2299 4.93192 13.2804 4.88463 13.3242 4.84749 13.3781 4.84749 13.3984 4.84749 13.4219 4.79343 13.496 4.72927 13.5634 4.66509 13.6342 4.61106 13.7218 4.61106 13.7622 4.61106 13.8027 4.58741 13.8667 4.5604 13.9003 4.53338 13.9374 4.50974 14.0014 4.50974 14.0385 4.50974 14.0789 4.47933 14.1396 4.44219 14.1733 4.40502 14.207 4.37463 14.2609 4.37463 14.2912 4.37463 14.3249 4.35099 14.3687 4.32397 14.3923 4.29696 14.4158 4.27331 14.4664 4.27331 14.5068 4.27331 14.5472 4.22265 14.6281 4.16186 14.6887 4.08416 14.7629 4.00732 14.7991 3.93385 14.7974ZM22.8593 15.8688C22.7787 15.8688 22.6774 15.8528 22.5625 15.8208 22.4714 15.7972 22.3565 15.7736 22.3126 15.7736 22.2045 15.7736 22.0289 15.7163 21.8195 15.6186 21.5966 15.5108 21.3534 15.5108 21.019 15.622L20.7589 15.7062 20.6205 15.6355C20.428 15.5344 20.3841 15.4569 20.3841 15.211 20.3841 15.0156 20.3739 14.9886 20.2658 14.8673 20.1544 14.746 20.1476 14.7224 20.1476 14.5135 20.1476 14.3046 20.1578 14.2743 20.2827 14.1059 20.357 14.0048 20.4178 13.9105 20.4178 13.8936 20.4178 13.8363 20.661 13.7521 20.8333 13.7521 21.0427 13.7555 21.1271 13.8094 21.1271 13.9442 21.1271 14.0183 21.1744 14.089 21.3298 14.244 21.5256 14.4361 21.5324 14.4529 21.5425 14.6281L21.5493 14.8134 21.6776 14.8033C21.7486 14.7966 21.8263 14.8067 21.8499 14.8303 21.8769 14.8505 21.9749 14.874 22.0728 14.8875 22.1843 14.901 22.2822 14.9381 22.343 14.9886 22.3937 15.029 22.4477 15.0661 22.4646 15.0661 22.4781 15.0661 22.5153 15.0863 22.5423 15.1132 22.5727 15.1368 22.6436 15.1739 22.701 15.1941 22.7584 15.211 22.8699 15.2682 22.9476 15.3154 23.0827 15.403 23.0861 15.4098 23.0861 15.5849 23.0861 15.7062 23.0692 15.7871 23.032 15.8208 22.9999 15.8528 22.94 15.8688 22.8593 15.8688ZM5.11051 16.5818C5.04169 16.5814 4.97583 16.562 4.94542 16.5249 4.84749 16.4037 4.77994 16.2487 4.77994 16.151 4.77994 16.0937 4.76642 16.0364 4.74616 16.0263 4.72927 16.0162 4.71239 15.9252 4.71239 15.8242 4.71239 15.7231 4.69887 15.6321 4.67861 15.622 4.63132 15.5917 4.63808 15.2817 4.68874 15.1908 4.75629 15.0695 4.85761 14.965 4.90491 14.965 5.0096 14.965 5.11769 15.0728 5.11769 15.1806 5.11769 15.3154 5.27644 16.0971 5.32034 16.1779 5.37437 16.279 5.36087 16.4643 5.29332 16.5249 5.2511 16.5637 5.17932 16.5822 5.11051 16.5818ZM20.1534 18.6222C20.1534 18.6424 20.1804 18.639 20.2209 18.6188 20.2986 18.5784 20.3121 18.484 20.2412 18.484 20.1973 18.484 20.1534 18.5514 20.1534 18.6222ZM3.2993 18.6711C3.23133 18.6644 3.16041 18.629 3.10131 18.5666 2.98309 18.4487 2.95608 18.3072 2.95608 17.7614 2.95608 17.2493 2.97634 17.1718 3.13508 17.0168 3.21276 16.9461 3.29383 16.8854 3.31748 16.8854 3.34449 16.8854 3.37151 16.8585 3.38503 16.8282 3.39516 16.7945 3.45258 16.7069 3.50998 16.6328 3.66873 16.4306 3.69574 16.3868 3.76668 16.1611 3.83423 15.9522 3.89839 15.8747 4.00311 15.8747 4.09431 15.8747 4.20576 15.9623 4.20576 16.0364 4.20576 16.0566 4.2429 16.1577 4.2902 16.2588 4.35775 16.4037 4.37463 16.498 4.37463 16.7035 4.37463 16.8753 4.35775 16.9831 4.32734 17.0168 4.25642 17.1011 4.14158 17.4548 4.11793 17.6772 4.07403 18.0579 3.87138 18.2702 3.69574 18.1118 3.64171 18.0647 3.63158 18.0074 3.63158 17.7884 3.63158 17.5626 3.64508 17.4986 3.71939 17.374 3.81395 17.2123 3.80383 17.155 3.68561 17.155 3.57079 17.155 3.48972 17.2662 3.47283 17.4481 3.46607 17.5357 3.44243 17.6435 3.42217 17.6839 3.40192 17.7244 3.39852 17.785 3.41204 17.8187 3.42893 17.8524 3.45258 17.9872 3.46607 18.1152 3.47959 18.2466 3.49985 18.3948 3.51337 18.4454 3.53026 18.5128 3.5235 18.5565 3.47959 18.6037 3.4323 18.6559 3.3673 18.6778 3.2993 18.6711ZM27.8787 18.7216C27.8011 18.7351 27.747 18.7317 27.7335 18.7082 27.72 18.688 27.6322 18.6711 27.541 18.6711 27.3924 18.6711 27.3687 18.661 27.3417 18.5835 27.2472 18.3409 27.3248 18.2601 27.666 18.2432 27.8146 18.2365 27.9699 18.2163 28.0172 18.1994 28.0645 18.1826 28.1557 18.1623 28.2199 18.1522 28.2942 18.1388 28.3955 18.0781 28.4901 17.9939 28.6995 17.8019 28.7637 17.7614 28.8549 17.7614 28.8988 17.7614 28.9832 17.7277 29.0406 17.6873 29.1082 17.6368 29.2061 17.6098 29.3311 17.5997L29.5202 17.5896 29.6655 17.7614C29.8884 18.0343 29.8614 18.1219 29.4865 18.3477 29.3446 18.4319 29.2163 18.5026 29.1994 18.5026 29.1825 18.5026 29.1149 18.533 29.0507 18.5734 28.9528 18.6307 28.8413 18.6475 28.4664 18.6711 28.2098 18.688 27.9463 18.7115 27.8787 18.7216ZM24.7482 19.339C24.7073 19.3416 24.6532 19.3332 24.562 19.3146 24.4101 19.2843 24.3256 19.2843 24.2581 19.3079 24.079 19.3752 23.8224 19.3348 23.7413 19.227 23.7008 19.1731 23.7177 19.008 23.7649 19.008 23.7818 19.008 23.7953 18.9878 23.7953 18.9608 23.7953 18.9204 23.7379 18.9171 23.4677 18.9305 23.2853 18.9406 23.1097 18.9642 23.0793 18.9777 23.0489 18.9945 22.9881 19.008 22.9442 19.008 22.9003 19.008 22.8159 19.0383 22.7551 19.0754 22.6132 19.163 22.5389 19.1596 22.4511 19.0653 22.3295 18.9339 22.3565 18.8429 22.5794 18.6206L22.7855 18.4184 23.0962 18.4218C23.2921 18.4218 23.4644 18.4454 23.569 18.4791 23.6805 18.5195 23.8426 18.5363 24.1027 18.5363 24.4438 18.5363 24.4945 18.5262 24.6836 18.4386 24.8998 18.3409 25.2105 18.0343 25.2815 17.849 25.2983 17.8019 25.3287 17.7614 25.3456 17.7614 25.3625 17.7614 25.43 17.6738 25.4942 17.566 25.5618 17.4616 25.6496 17.3403 25.6969 17.2965 25.7408 17.2561 25.7982 17.155 25.8219 17.0775 25.8455 17 25.8759 16.9057 25.8928 16.8686 25.9063 16.8315 25.9232 16.7641 25.9299 16.717 25.9401 16.6395 25.957 16.6328 26.136 16.6227 26.2542 16.6159 26.3521 16.6294 26.3825 16.653 26.4568 16.7136 26.4433 17.0606 26.3623 17.2123 26.3251 17.283 26.2846 17.3874 26.2744 17.4481 26.2643 17.5087 26.2339 17.5727 26.2069 17.5963 26.1799 17.6166 26.1596 17.6503 26.1596 17.6671 26.1596 17.6839 26.0853 17.7749 25.9907 17.8692 25.8995 17.9636 25.8083 18.0882 25.7881 18.1455 25.7644 18.2028 25.734 18.2735 25.7171 18.3005 25.7002 18.3274 25.6766 18.3746 25.6665 18.4016 25.6462 18.4589 25.5483 18.5262 25.2308 18.6981 25.1193 18.7587 25.0247 18.8227 25.018 18.8396 25.0112 18.8598 24.9707 18.8733 24.9268 18.8733 24.812 18.8733 24.7816 18.944 24.8694 19.0013 24.9741 19.072 24.9673 19.227 24.8559 19.2978 24.817 19.323 24.7892 19.3365 24.7482 19.339ZM17.6658 19.9231C17.686 19.9231 17.7029 19.9096 17.7029 19.8894 17.7029 19.8726 17.6961 19.8557 17.6894 19.8557 17.6793 19.8557 17.6624 19.8726 17.6522 19.8894 17.6421 19.9096 17.6489 19.9231 17.6658 19.9231ZM20.3402 20.1535C20.2354 20.1502 20.0868 20.0525 20.07 19.9783 20.0395 19.8672 20.1003 19.6718 20.1814 19.5976 20.2185 19.5639 20.249 19.5201 20.249 19.4966 20.249 19.473 20.2793 19.4292 20.3165 19.3955 20.4111 19.3112 20.4009 19.2573 20.2658 19.1394 20.1679 19.0518 20.1476 19.0114 20.1476 18.8968L20.1476 18.7621 20.07 18.8328C20.0294 18.8733 19.9551 18.9103 19.9112 18.9137 19.8301 18.9238 19.8268 18.9171 19.8268 18.7048 19.8268 18.469 19.8335 18.4521 20.1139 18.1219 20.1814 18.0444 20.2591 17.94 20.2929 17.8895 20.3233 17.8423 20.3773 17.7917 20.4144 17.7783 20.4516 17.7682 20.4887 17.7311 20.4989 17.7008 20.509 17.6705 20.5799 17.6064 20.6543 17.5593 20.7319 17.5121 20.813 17.4414 20.84 17.4009 20.867 17.3605 20.9481 17.2998 21.0157 17.2695 21.0866 17.2358 21.1676 17.1887 21.198 17.1651 21.2352 17.1314 21.323 17.1213 21.4682 17.128 21.6641 17.1381 21.6844 17.1449 21.6945 17.2156 21.708 17.3133 21.6202 17.4178 21.475 17.4818 21.3466 17.5357 21.3162 17.6435 21.4412 17.6098 21.4817 17.5997 21.5763 17.5761 21.6506 17.5559 21.7249 17.5357 21.8634 17.4852 21.9546 17.438 22.0492 17.3942 22.1505 17.3571 22.1843 17.3571 22.2147 17.3571 22.2687 17.3436 22.3025 17.3268 22.3329 17.31 22.4072 17.2763 22.4612 17.2493 22.6402 17.1684 22.9138 16.973 22.9577 16.8888 22.9813 16.845 23.0489 16.754 23.1097 16.69 23.2313 16.5586 23.2448 16.5148 23.2853 16.1105 23.3191 15.7938 23.3799 15.5074 23.4306 15.4502 23.4475 15.4266 23.4745 15.2682 23.4947 15.0964 23.5386 14.7123 23.5961 14.6281 23.8156 14.6281 23.9811 14.6281 24.0048 14.6517 24.0385 14.8808 24.0824 15.184 24.0959 15.2783 24.1365 15.7264 24.1736 16.1274 24.1702 16.1813 24.1162 16.3329 24.052 16.5081 24.0149 16.5485 23.5522 17.0101 23.3867 17.1718 23.2549 17.3201 23.2549 17.3403 23.2549 17.3639 23.2245 17.3942 23.1874 17.411 23.1502 17.4279 22.9408 17.6166 22.7247 17.8322 22.5051 18.0478 22.2924 18.2365 22.2484 18.25 22.2079 18.2601 22.1505 18.3173 22.1235 18.3712 22.0931 18.4252 22.0593 18.469 22.0424 18.469 22.012 18.469 21.6337 18.8396 21.6337 18.8699 21.6337 18.8834 21.5493 18.9811 21.448 19.0923 21.3466 19.2034 21.2622 19.3112 21.2622 19.3281 21.2622 19.3584 21.2115 19.3955 20.9413 19.5572 20.786 19.6515 20.6205 19.8234 20.6205 19.8874 20.6205 19.9177 20.5664 19.9918 20.5023 20.0491 20.4347 20.1064 20.3638 20.1535 20.3402 20.1535ZM25.2815 20.8712C25.0416 20.7937 25.018 20.6859 25.197 20.5275 25.2646 20.4702 25.3287 20.4231 25.3456 20.4231 25.3861 20.4231 25.4503 20.2647 25.4503 20.1636 25.4503 20.1131 25.4166 20.0525 25.3659 20.012 25.2679 19.9345 25.2477 19.7189 25.3321 19.6482 25.403 19.5909 25.3963 19.5471 25.3118 19.5471 25.197 19.5471 25.1126 19.4831 25.1126 19.3921 25.1126 19.3315 25.2038 19.2169 25.4503 18.9709 25.6361 18.7823 25.7881 18.6105 25.7881 18.5902 25.7881 18.5666 25.8522 18.4858 25.9299 18.4049 26.0042 18.3241 26.0785 18.2129 26.0887 18.1556 26.1157 18.031 26.2508 17.977 26.4433 18.0107L26.5649 18.0343 26.5649 18.2466C26.5649 18.415 26.5514 18.4723 26.4974 18.5195 26.4602 18.5532 26.423 18.6105 26.4095 18.6475 26.396 18.6846 26.3184 18.789 26.2305 18.8766 26.0515 19.0586 25.9704 19.1866 26.0042 19.2405 26.0414 19.2944 26.1934 19.2843 26.342 19.2135 26.4805 19.1461 26.6696 19.1495 26.9297 19.2203 27.0681 19.2573 27.0715 19.2641 27.0715 19.3988 27.0715 19.5639 26.9939 19.6482 26.8419 19.6482 26.7135 19.6482 26.5649 19.7122 26.5649 19.7694 26.5649 19.8301 26.7608 19.9851 26.8351 19.9851 26.906 19.9851 27.004 20.1064 27.004 20.194 27.004 20.2984 26.7912 20.3793 26.3386 20.4433 26.2575 20.4568 26.1765 20.4871 26.1562 20.5107 26.136 20.5376 26.0954 20.5578 26.0718 20.5578 26.0042 20.5578 25.8928 20.6252 25.7678 20.7364 25.7104 20.7869 25.6124 20.8442 25.5483 20.8611 25.4267 20.8981 25.3625 20.8981 25.2815 20.8712ZM16.5755 23.9093C16.4965 23.9194 16.4087 23.9203 16.3581 23.9068 16.3243 23.8967 16.2871 23.8461 16.2736 23.799 16.2534 23.708 16.1047 23.4924 15.9021 23.2565 15.8413 23.1858 15.7906 23.115 15.7906 23.0982 15.7906 23.0274 15.2637 22.5524 15.1624 22.5322 15.1084 22.5187 15.0375 22.4783 15.0104 22.4378 14.9091 22.2829 14.5781 22.0234 14.4227 21.9729 14.3484 21.9493 14.2539 21.919 14.21 21.9021 14.166 21.8853 14.058 21.8718 13.9634 21.8718 13.8486 21.8718 13.7472 21.8449 13.6493 21.7909 13.5243 21.7236 13.4601 21.7101 13.1562 21.7101 12.8184 21.7067 12.7306 21.6865 12.5144 21.5618 12.3152 21.4507 12.3152 21.4507 12.1835 21.5753 12.0416 21.7067 11.8153 21.7842 11.6667 21.7539 11.5958 21.7371 11.5248 21.7539 11.4303 21.8011 11.2783 21.8819 11.1263 21.8887 10.7885 21.8314 10.5926 21.8011 10.5285 21.7741 10.4069 21.6629 10.3258 21.5922 10.2279 21.5349 10.1907 21.5349 10.1502 21.5349 10.1097 21.5214 10.0995 21.5012 10.0894 21.4844 10.0522 21.4675 10.0185 21.4675 9.98468 21.4675 9.93741 21.4439 9.91376 21.417 9.8597 21.353 9.74488 21.353 9.62328 21.417 9.42063 21.5214 9.17071 21.4271 9.17071 21.2451 9.17071 21.1373 9.1268 21.1037 8.95117 21.0801 8.75188 21.0497 8.54587 20.9554 8.51546 20.8779 8.47492 20.7735 8.4952 20.6589 8.56275 20.6016 8.63367 20.541 8.65395 20.4568 8.59653 20.4568 8.48844 20.4568 8.29931 20.2816 8.21148 20.103 8.09327 19.8604 7.9109 19.692 7.61705 19.5606 7.46506 19.4932 7.19823 19.355 6.95843 19.227 6.80981 19.1461 6.65107 19.0619 6.60379 19.0417 6.5565 19.0215 6.47545 18.9811 6.4214 18.9541 6.36737 18.9272 6.30658 18.9069 6.28293 18.9069 6.26265 18.9069 6.20862 18.8699 6.16472 18.8227 6.12081 18.7755 6.06339 18.7385 6.03975 18.7385 6.01273 18.7385 5.98571 18.7115 5.97219 18.6812 5.96207 18.6475 5.93166 18.597 5.90801 18.57 5.88776 18.5431 5.85061 18.4521 5.82697 18.3679 5.80669 18.2837 5.76618 18.1522 5.73914 18.0714 5.70536 17.9636 5.69187 17.7277 5.69187 17.1213 5.69187 16.3834 5.69863 16.2891 5.77291 15.9994 5.81684 15.8275 5.87763 15.6389 5.90801 15.5816 5.93842 15.5209 5.96207 15.4064 5.96207 15.3255 5.96207 15.2447 5.97219 15.1672 5.98571 15.1537 5.99921 15.1402 6.0161 14.9448 6.01949 14.7191 6.03299 14.2541 6.05326 14.2103 6.25252 14.2171 6.38762 14.2238 6.50247 14.3013 6.50247 14.3923 6.50247 14.4226 6.55313 14.4933 6.61392 14.554 6.70849 14.6449 6.74902 14.6618 6.89764 14.6618 7.0091 14.6618 7.08341 14.6449 7.11042 14.6113 7.13407 14.5843 7.17121 14.5607 7.19147 14.5607 7.21512 14.5607 7.2793 14.4933 7.33672 14.4125 7.39412 14.3316 7.48532 14.244 7.53598 14.2171 7.59003 14.1867 7.6846 14.1396 7.74202 14.1092 7.80281 14.0755 7.88725 14.0553 7.92778 14.0621 8.03924 14.0755 8.05274 14.2609 7.9548 14.3586 7.79942 14.5135 7.98518 14.6348 8.15406 14.4866 8.28579 14.3687 8.38036 14.3249 8.4952 14.3249 8.55263 14.3249 8.65732 14.2945 8.73163 14.2575 8.80594 14.2204 8.88023 14.1901 8.90387 14.1901 8.92415 14.1901 8.98831 14.1665 9.04573 14.1396 9.10652 14.1126 9.21798 14.0688 9.29905 14.0385 9.37673 14.0115 9.50507 13.9644 9.58614 13.934 9.70435 13.8869 9.81919 13.8835 10.2988 13.9003 10.6129 13.9138 10.8865 13.934 10.9067 13.9509 10.927 13.9644 11.0858 13.9981 11.2614 14.0217 11.6059 14.0654 11.947 14.1766 12.1395 14.3013 12.2071 14.3451 12.305 14.4091 12.3591 14.4462 12.4131 14.4798 12.4976 14.5371 12.5448 14.5675 12.5921 14.6012 12.6563 14.6382 12.6833 14.6517 12.7103 14.6618 12.7948 14.7224 12.8657 14.7865 12.94 14.8471 13.0177 14.8976 13.038 14.8976 13.0582 14.8976 13.1123 14.9347 13.1562 14.9819 13.2001 15.029 13.2541 15.0661 13.2778 15.0661 13.298 15.0661 13.3352 15.0897 13.3588 15.1166 13.3825 15.1436 13.4264 15.1672 13.4568 15.1672 13.4905 15.1672 13.5513 15.2042 13.5919 15.248 13.6324 15.2918 13.7101 15.3356 13.7641 15.3457 13.8182 15.3592 13.9094 15.4098 13.9735 15.4637 14.0343 15.5142 14.1525 15.5917 14.237 15.6355 14.3214 15.6759 14.443 15.7467 14.5072 15.7938 14.622 15.8781 14.6355 15.8781 15.1388 15.868 15.6082 15.8578 15.6589 15.8511 15.7535 15.7837 15.8413 15.7163 15.8953 15.7062 16.1757 15.7062 16.456 15.7062 16.5067 15.7163 16.5911 15.7837 16.6418 15.8242 16.7431 15.8848 16.814 15.9185 16.9153 15.9623 16.939 15.9926 16.939 16.0701 16.939 16.1206 16.8985 16.2184 16.8512 16.2824 16.7397 16.4306 16.6789 16.5788 16.6519 16.7675 16.6384 16.8518 16.5978 16.9562 16.5641 17 16.4999 17.0809 16.4763 17.3032 16.5269 17.3369 16.5438 17.347 16.5776 17.438 16.6012 17.5391 16.6249 17.6469 16.6789 17.758 16.7262 17.7985 16.7667 17.8423 16.8039 17.8895 16.8039 17.9063 16.8039 17.9231 16.8512 17.9905 16.9052 18.0546 17.0403 18.2062 17.0471 18.3982 16.9187 18.5262 16.8208 18.6206 16.841 18.661 16.9897 18.6778 17.0775 18.688 17.091 18.7048 17.1011 18.7991 17.1079 18.8598 17.0876 18.9541 17.0606 19.0148 16.9964 19.1394 16.9897 19.382 17.0471 19.4393 17.1281 19.5201 17.3916 19.4561 17.4287 19.3483 17.4389 19.318 17.5402 19.1967 17.6584 19.0754 17.8543 18.8733 17.8881 18.853 18.0873 18.8126 18.2089 18.7856 18.4014 18.7587 18.5197 18.7486 18.7088 18.7317 18.7426 18.7385 18.8169 18.8092 18.8608 18.8497 18.8979 18.9204 18.8979 18.9608 18.8979 19.0417 18.7527 19.1765 18.6649 19.1765 18.6379 19.1765 18.5534 19.1967 18.4758 19.2236 18.4014 19.2506 18.2866 19.2809 18.2224 19.2944 18.0333 19.3247 17.9489 19.4123 17.9286 19.5909L17.9083 19.7492 18.084 19.7492C18.1819 19.7492 18.2934 19.7324 18.3339 19.7088 18.4285 19.6583 18.8912 19.6583 18.9925 19.7122 19.0398 19.7358 19.0668 19.7829 19.0668 19.8368 19.0668 19.9177 18.9351 20.1603 18.8675 20.2041 18.8236 20.2277 18.6953 20.514 18.6953 20.5814 18.6953 20.605 18.6311 20.696 18.5534 20.7802 18.2393 21.107 18.1853 21.1744 18.2022 21.2182 18.2123 21.2451 18.2393 21.262 18.263 21.2586 18.2934 21.2519 18.3103 21.2991 18.317 21.4001 18.3271 21.545 18.317 21.5618 18.138 21.7371 17.9455 21.9291 17.9218 21.9729 17.9961 22.0369 18.0299 22.0639 18.0671 22.0436 18.1583 21.9527 18.263 21.8449 18.371 21.7775 18.5366 21.7236 18.567 21.7135 18.594 21.6831 18.594 21.6528 18.594 21.5484 18.8 21.2047 18.925 21.107 19.104 20.9621 19.3607 20.8274 19.4518 20.8274 19.5802 20.8274 19.641 20.9285 19.641 21.1373 19.641 21.289 19.6275 21.3328 19.5566 21.4001 19.5093 21.4439 19.4721 21.4978 19.4721 21.5181 19.4721 21.5383 19.4113 21.5989 19.3404 21.6562 19.2661 21.7101 19.1816 21.7943 19.1513 21.8482 19.1209 21.8988 19.0803 21.9392 19.0601 21.9392 19.0398 21.9392 18.9621 21.9931 18.8844 22.0605 18.8067 22.1245 18.675 22.2357 18.5906 22.3031 18.5061 22.3705 18.2832 22.5558 18.1008 22.7141 17.78 22.9937 17.6077 23.0847 17.4186 23.0847 17.3375 23.0847 17.2261 22.9398 17.2531 22.8691 17.2632 22.8455 17.2463 22.7882 17.2193 22.7478 17.1416 22.64 17.1484 21.8887 17.2261 21.8044 17.2531 21.7741 17.2767 21.7371 17.2767 21.7202 17.2767 21.7067 17.3139 21.6427 17.3612 21.5821 17.4085 21.5214 17.4456 21.4574 17.4456 21.4406 17.4456 21.4203 17.4693 21.4001 17.4963 21.3866 17.5638 21.3631 17.5604 21.3092 17.4794 21.2081 17.3983 21.1037 17.395 20.9689 17.4693 20.8105 17.5132 20.7162 17.5165 20.6825 17.4862 20.6522 17.4253 20.5915 17.2632 20.6859 17.2497 20.7869 17.243 20.8274 17.1754 20.9116 17.1011 20.979 16.9964 21.0666 16.9289 21.0969 16.8343 21.0969 16.7059 21.0969 16.6958 21.0868 16.6215 20.8543 16.5978 20.7701 16.5202 20.7802 16.4391 20.8712 16.402 20.9116 16.3175 21.0059 16.2534 21.0801L16.1351 21.2148 15.8075 21.2114C15.5407 21.2114 15.4698 21.198 15.436 21.1542 15.4123 21.1239 15.3853 21.0969 15.3718 21.0969 15.3617 21.0969 15.2874 21.0666 15.2063 21.0329 15.007 20.9419 14.8247 20.9217 14.774 20.9823 14.7436 21.0194 14.7504 21.0329 14.7976 21.0497 14.8348 21.0632 14.9091 21.1037 14.9631 21.1441 15.0206 21.1845 15.132 21.2519 15.2165 21.2957 15.3009 21.3429 15.4056 21.4069 15.4495 21.4406 15.4934 21.4743 15.5542 21.5012 15.5846 21.5012 15.6724 21.5046 16.1486 21.7505 16.2702 21.8583 16.5236 22.0874 16.635 22.239 16.635 22.3637 16.635 22.5726 16.5911 22.613 16.3648 22.613 16.179 22.613 16.1115 22.6467 16.1959 22.6973 16.2162 22.7074 16.2297 22.7444 16.2297 22.7781 16.2297 22.8084 16.2837 22.8859 16.3479 22.95 16.4121 23.014 16.4661 23.078 16.4661 23.0948 16.4661 23.1117 16.5134 23.1791 16.5675 23.2431 16.6249 23.3037 16.6688 23.3846 16.6688 23.4149 16.6688 23.4486 16.6823 23.489 16.6992 23.5092 16.7465 23.5564 16.7735 23.8023 16.7397 23.8562 16.7245 23.8798 16.6544 23.8992 16.5755 23.9093ZM16.9014 26.6308C16.7161 26.6426 16.4796 26.6409 16.1959 26.6257L15.8075 26.6055 15.3988 26.4C14.9935 26.1978 14.899 26.1372 14.6456 25.9249 14.5747 25.8643 14.5004 25.8137 14.4768 25.8137 14.4261 25.8137 13.8655 25.2679 13.8655 25.2208 13.8655 25.1972 13.8283 25.1332 13.781 25.0793 13.7202 25.0085 13.6966 24.9378 13.6966 24.84 13.6966 24.6648 13.754 24.6345 14.0242 24.6682 14.2032 24.6918 14.2471 24.7087 14.3349 24.8131 14.3923 24.8771 14.5241 24.9715 14.622 25.0186 14.7233 25.0691 14.8551 25.1534 14.9158 25.2107 15.0206 25.3084 15.2739 25.4398 15.4529 25.4903 15.5002 25.5038 15.5846 25.5375 15.6386 25.5611 15.7535 25.6116 15.9257 25.5914 15.9257 25.5274 15.9257 25.46 15.7265 25.3084 15.642 25.3084 15.5407 25.3084 15.4191 25.1905 15.4191 25.0894 15.4191 25.0085 15.4225 25.0085 15.8109 24.9984 16.2331 24.9883 16.2398 24.9849 16.277 24.7996 16.2939 24.7188 16.3141 24.7087 16.5742 24.6716 16.7296 24.6514 16.939 24.6211 17.0403 24.6042 17.4085 24.5503 17.5334 24.4425 17.3679 24.3246 17.27 24.2538 17.2463 24.1191 17.3206 24.0719 17.3781 24.0382 17.6145 23.708 17.6145 23.6676 17.6145 23.6238 17.8543 23.398 18.3204 23.0106 18.6379 22.7478 18.7561 22.6737 18.8574 22.6872 18.9452 22.6973 18.9486 22.7074 18.9587 22.923 18.9723 23.2228 18.8439 23.6507 18.6953 23.8091 18.6142 23.8933 18.6142 23.8967 18.675 23.9978 18.7628 24.1494 18.7493 24.3549 18.6345 24.6042 18.5771 24.7221 18.4994 24.8502 18.4622 24.8838 18.4217 24.9209 18.3913 24.9647 18.3913 24.9883 18.3913 25.0422 18.1549 25.2646 18.0164 25.3387 17.8982 25.4027 17.8543 25.4937 17.9083 25.5476 17.9286 25.5678 17.9793 25.551 18.0401 25.5038 18.1245 25.4364 18.1718 25.4263 18.4758 25.4263L18.8135 25.4263 18.8067 25.5442C18.8034 25.6251 18.7763 25.679 18.7156 25.7228 18.6683 25.7565 18.6277 25.807 18.6277 25.834 18.6277 25.9216 18.0198 26.3191 17.8847 26.3191 17.8577 26.3191 17.7901 26.3461 17.7327 26.3798 17.6787 26.4135 17.5875 26.4539 17.5334 26.4674 17.4794 26.4808 17.3747 26.5213 17.3004 26.555 17.221 26.5937 17.0868 26.619 16.9014 26.6308ZM16.2929 28.1547C16.2929 28.1143 16.2253 28.0704 16.2017 28.094 16.1915 28.1041 16.1949 28.1277 16.2084 28.148 16.2354 28.1951 16.2929 28.1951 16.2929 28.1547ZM14.8449 28.2968C14.7976 28.3002 14.747 28.2968 14.7267 28.2901 14.7098 28.2833 14.6524 28.2699 14.6051 28.2598 14.5477 28.2463 14.5004 28.2059 14.4734 28.1418 14.4531 28.0879 14.3957 28.0071 14.3484 27.9633 14.3011 27.9228 14.2302 27.8285 14.1931 27.7544 14.0816 27.559 14.0512 27.5118 14.0073 27.4545 13.9634 27.404 13.9161 27.1917 13.8789 26.8919 13.8688 26.8077 13.8756 26.6493 13.8992 26.5381 13.9229 26.4269 13.9499 26.282 13.9566 26.218 13.987 26.0193 14.112 25.9317 14.3045 25.9721 14.4531 25.9991 14.4971 26.1338 14.5004 26.5684 14.5038 26.9896 14.5241 27.057 14.7537 27.5253 14.899 27.8251 14.9226 27.9026 14.926 28.0812 14.9294 28.28 14.926 28.2901 14.8449 28.2968ZM9.13017 28.7382C9.07614 28.7921 8.97142 28.7887 8.86673 28.7281 8.81944 28.7011 8.74852 28.6809 8.71135 28.6775 8.67084 28.6775 8.61678 28.654 8.59314 28.6236 8.56951 28.5933 8.43441 28.5158 8.29255 28.4518 8.15406 28.3878 8.00546 28.3035 7.96493 28.2665 7.88725 28.1924 7.85348 28.1722 7.62718 28.0475 7.48532 27.97 7.22188 27.7005 7.09353 27.4983 7.04963 27.4343 6.96856 27.3366 6.91114 27.2827 6.85372 27.2254 6.80645 27.1648 6.80645 27.1479 6.80645 27.1277 6.77267 27.0738 6.72877 27.0266 6.61392 26.902 6.50923 26.6257 6.4653 26.3461 6.44505 26.2113 6.41464 26.0462 6.39438 25.9755 6.37413 25.9081 6.37074 25.8036 6.38087 25.7396 6.39438 25.679 6.41803 25.524 6.43153 25.3926 6.44505 25.2646 6.48895 25.0927 6.52948 25.0152 6.57002 24.9378 6.60379 24.8367 6.60379 24.7929 6.60379 24.7457 6.62744 24.6918 6.65446 24.6682 6.68147 24.6446 6.70512 24.6008 6.70512 24.5672 6.70512 24.4964 6.86048 24.1763 6.93816 24.082 7.00234 24.0079 7.3232 23.7922 7.3705 23.7922 7.39075 23.7922 7.42453 23.7687 7.44817 23.7417 7.48195 23.7013 7.57651 23.6912 7.9109 23.6912 8.30944 23.6912 8.33309 23.6878 8.41076 23.6069 8.45804 23.5631 8.4952 23.5059 8.4952 23.4789 8.4952 23.4115 8.35671 23.2936 8.24189 23.2666 8.18783 23.2565 8.1034 23.2094 8.05613 23.1689 7.93791 23.0645 7.8332 23.0308 7.41777 22.9601 7.29279 22.9398 6.98882 22.9971 6.8132 23.0746 6.68147 23.1319 6.43492 23.361 6.43492 23.425 6.43492 23.4486 6.41464 23.4924 6.38762 23.5193 6.30319 23.617 6.17148 24.0752 6.14783 24.3482 6.11742 24.7525 6.11066 24.7693 6.0026 24.7693 5.95194 24.7693 5.89452 24.7558 5.87424 24.7424 5.80669 24.7019 5.55677 24.1932 5.53649 24.055 5.52299 23.9843 5.49934 23.9169 5.48582 23.9068 5.44192 23.8832 5.44868 23.1622 5.48921 23.1353 5.50947 23.1218 5.54664 23.0645 5.57365 23.0072 5.60067 22.9466 5.6547 22.8556 5.69187 22.7983 5.72564 22.7444 5.77967 22.6501 5.81008 22.5894 5.84046 22.5288 5.88776 22.4648 5.91477 22.4412 5.94179 22.421 5.96207 22.3637 5.96207 22.3166 5.96207 22.2357 5.95868 22.2357 5.78643 22.2626 5.45544 22.3132 5.36087 22.2997 5.2494 22.1851 5.19537 22.1245 5.15146 22.0639 5.15146 22.047 5.15146 22.0335 5.10417 21.9763 5.05014 21.9224 4.94542 21.8213 4.94205 21.7775 5.02312 21.6124 5.04338 21.572 5.05014 21.5147 5.04001 21.4877 5.01973 21.4406 5.00284 21.4406 4.88463 21.5046 4.68874 21.6056 4.62795 21.5821 4.63132 21.4069 4.63471 21.2384 4.70563 21.1474 4.87787 21.0935 4.94542 21.0733 5.01636 21.043 5.03325 21.0261 5.05351 21.0127 5.16496 20.9891 5.28656 20.9756 5.40815 20.9655 5.52299 20.9386 5.54664 20.9217 5.57026 20.9015 5.66146 20.8981 5.74929 20.9082 6.58352 21.0026 6.65783 21.0194 6.8132 21.1542 6.84359 21.1811 7.07665 21.3092 7.33333 21.4372 7.59003 21.5652 7.82307 21.6899 7.85008 21.7168 7.88049 21.7438 7.94128 21.7842 7.98858 21.8044 8.11016 21.8583 8.1946 21.9089 8.34658 22.0234 8.4952 22.138 8.58977 22.1986 8.66408 22.2323 8.69109 22.2424 8.75528 22.2829 8.80594 22.3166 8.8566 22.3502 8.95454 22.3772 9.03221 22.3772 9.10991 22.3772 9.19772 22.3907 9.2315 22.4075 9.2619 22.4243 9.38012 22.458 9.49157 22.4783 9.60302 22.5019 9.74825 22.5423 9.81243 22.5692 10.005 22.6535 10.5318 22.9095 10.623 22.9668 10.6703 22.9937 10.7615 23.0409 10.8257 23.0679 11.133 23.206 11.204 23.2734 11.2479 23.4823 11.2681 23.5766 11.2546 23.6036 11.16 23.6945 11.0486 23.799 10.802 23.927 10.7108 23.927 10.6838 23.927 10.6501 23.9439 10.6399 23.9607 10.6298 23.9809 10.5791 23.9944 10.5318 23.9944 10.4845 23.9944 10.3731 24.0314 10.2785 24.0786 10.1873 24.1258 10.0928 24.1629 10.0691 24.1629 10.0421 24.1629 9.98807 24.1898 9.94414 24.2269 9.90024 24.2605 9.80904 24.301 9.74488 24.3145 9.6807 24.3279 9.52195 24.3886 9.397 24.4526 9.25175 24.5234 9.12341 24.5638 9.04236 24.5638 8.97481 24.5604 8.84645 24.5705 8.75528 24.584 8.62354 24.6042 8.58301 24.5975 8.52898 24.5503 8.46819 24.4964 8.44791 24.493 8.3297 24.5335 8.25539 24.5571 8.14732 24.6278 8.08651 24.6884 8.02572 24.7525 7.95817 24.803 7.93452 24.803 7.9109 24.803 7.85348 24.8535 7.80281 24.9142 7.75552 24.9715 7.66095 25.0793 7.60016 25.1467 7.53598 25.214 7.48195 25.2915 7.48195 25.3185 7.48195 25.3454 7.45154 25.3926 7.4144 25.4263 7.35698 25.4768 7.34685 25.5307 7.34685 25.7632 7.34685 25.9687 7.36034 26.0529 7.39751 26.0833 7.42453 26.1069 7.48532 26.2012 7.53261 26.2989 7.58327 26.3932 7.65758 26.5314 7.70149 26.6055 7.74876 26.6796 7.79942 26.7706 7.81631 26.8077 7.8332 26.8447 7.89062 26.9222 7.94467 26.9761 7.99534 27.0334 8.06962 27.1378 8.1034 27.212 8.1811 27.3703 8.35334 27.5657 8.41752 27.5657 8.44454 27.5657 8.47492 27.5994 8.49181 27.6432 8.5087 27.687 8.63367 27.842 8.77216 27.9902 8.91063 28.1351 9.05586 28.3002 9.0964 28.3541 9.17747 28.4619 9.19772 28.6708 9.13017 28.7382ZM16.5582 28.8767C16.4923 28.8771 16.4205 28.8612 16.3648 28.8292 16.3175 28.8022 16.2331 28.782 16.1757 28.7786 16.1183 28.7786 16.0507 28.755 16.0271 28.7281 16.0034 28.7011 15.973 28.6775 15.9561 28.6775 15.9392 28.6775 15.8649 28.6405 15.7906 28.5933 15.7163 28.5461 15.6319 28.5091 15.6049 28.5091 15.5745 28.5091 15.5441 28.4821 15.5306 28.4518 15.517 28.4181 15.4664 28.3406 15.4157 28.28 15.3617 28.2193 15.2874 28.1048 15.2502 28.0206 15.2131 27.9397 15.1692 27.8622 15.1489 27.8521 15.132 27.842 15.1151 27.7881 15.1151 27.7375 15.1151 27.687 15.0847 27.6163 15.0476 27.5826 15.0104 27.5489 14.98 27.5017 14.98 27.4781 14.98 27.4141 14.7875 27.0031 14.747 26.9795 14.6929 26.9458 14.7031 26.5516 14.7571 26.4775 14.7909 26.4337 14.8382 26.4202 14.9158 26.4269 15.0172 26.437 15.0375 26.4606 15.1894 26.7537 15.2772 26.9289 15.3516 27.1075 15.3516 27.1513 15.3516 27.2456 15.4867 27.4916 15.5914 27.5859 15.6319 27.6196 15.6893 27.7038 15.7231 27.7679 15.794 27.9094 16.0203 28.1385 16.0845 28.1385 16.1588 28.1385 16.1351 28.0206 16.0439 27.9363 15.8379 27.7443 15.9392 27.4411 16.1925 27.4848 16.2837 27.5017 16.3817 27.5725 16.5844 27.7679 16.7329 27.9127 16.9086 28.0542 16.9728 28.0812 17.1484 28.1553 17.3477 28.1924 17.4726 28.1722L17.5841 28.1553 17.5098 28.0778C17.4659 28.0273 17.4118 28.0037 17.3747 28.0138 17.2767 28.0408 16.8816 27.9329 16.8039 27.8622 16.7667 27.8285 16.7363 27.778 16.7363 27.751 16.7363 27.6836 16.8714 27.5657 16.9728 27.5455 17.02 27.5354 17.1146 27.4983 17.1855 27.4613 17.2599 27.4276 17.3544 27.3973 17.4017 27.3973 17.5436 27.3973 17.7023 27.2894 17.6584 27.2187 17.6483 27.2018 17.5875 27.1682 17.5267 27.1412 17.4389 27.1041 17.4118 27.0738 17.4118 27.0098 17.4118 26.9559 17.4355 26.9155 17.4726 26.9053 17.503 26.8919 17.5942 26.8582 17.6685 26.8211 17.7462 26.7874 17.8509 26.7504 17.8982 26.7369 17.9455 26.7268 17.9961 26.7032 18.0063 26.6863 18.0164 26.6695 18.0536 26.656 18.0873 26.656 18.2968 26.656 19.0364 26.1709 19.0871 25.9991 19.1006 25.962 19.1614 25.8811 19.2222 25.8238 19.3167 25.7329 19.364 25.7127 19.4856 25.7127 19.6376 25.7127 19.7423 25.7733 19.7423 25.8609 19.7423 25.8845 19.7119 25.9451 19.6748 25.9923 19.6376 26.0395 19.6072 26.117 19.6072 26.1675 19.6072 26.245 19.6207 26.2551 19.6984 26.245 19.7592 26.2383 19.8065 26.2046 19.8335 26.1507 19.9146 25.9788 20.0395 25.898 20.2219 25.898 20.4009 25.898 20.4854 25.962 20.4854 26.0934 20.4854 26.2282 19.8842 26.6729 19.7829 26.6089 19.766 26.5988 19.7153 26.6156 19.6714 26.6493 19.6275 26.683 19.5228 26.7302 19.4417 26.7537 19.2256 26.8144 18.7291 27.0536 18.7291 27.094 18.7291 27.1109 18.7021 27.1277 18.6683 27.1277 18.5872 27.1277 18.4791 27.2456 18.5095 27.2962 18.5366 27.3433 18.6885 27.313 18.7628 27.2456 18.7899 27.2221 18.9351 27.1479 19.0837 27.0772 19.2323 27.0098 19.3809 26.939 19.4113 26.9222 19.4451 26.9053 19.5025 26.8919 19.5397 26.8919 19.5735 26.8919 19.6579 26.8615 19.7254 26.8245 19.793 26.7874 19.8707 26.7571 19.9044 26.7571 19.9348 26.7571 20.0395 26.7099 20.1307 26.656 20.5597 26.4034 20.6205 26.4067 20.6205 26.6729 20.6205 26.8548 20.5901 26.9053 20.4178 26.9862 20.3199 27.03 20.0834 27.094 19.9112 27.1176 19.7761 27.1345 19.4485 27.276 19.364 27.3535 19.2357 27.468 19.337 27.7106 19.5194 27.7173 19.8099 27.7308 19.6781 28.0542 19.3066 28.2362 19.2019 28.2867 19.0871 28.344 19.0499 28.3676 18.7291 28.5495 18.2866 28.6371 17.5571 28.6641 17.2396 28.6775 17.1079 28.6708 16.9897 28.6304 16.7836 28.5596 16.7701 28.5596 16.7701 28.6742 16.7701 28.7281 16.7465 28.7988 16.7161 28.8258 16.684 28.8595 16.624 28.8763 16.5582 28.8767ZM16.152 30.4893C16.0828 30.475 16.0271 30.4245 16.0271 30.3453 16.0271 30.2543 15.9865 30.2071 15.7433 30.0218 15.6488 29.9511 15.5137 29.8433 15.4428 29.7826 15.3313 29.6883 15.3043 29.6782 15.2502 29.7152 15.1388 29.7826 15.0206 29.7624 14.8247 29.6378 14.72 29.5704 14.5984 29.5198 14.5376 29.5198 14.4835 29.5198 14.3822 29.4962 14.3147 29.4693 14.1525 29.4019 14.0242 29.4053 13.9296 29.4828L13.8519 29.5468 13.9803 29.7287C14.0782 29.8736 14.1052 29.941 14.0951 30.0286 14.085 30.133 14.0749 30.1431 13.9566 30.1532 13.8621 30.16 13.8249 30.1499 13.808 30.1027 13.7945 30.069 13.7337 29.978 13.6729 29.8972 13.6121 29.8163 13.5615 29.7321 13.5615 29.7119 13.5581 29.6681 13.3217 29.476 13.298 29.4996 13.2913 29.5097 13.3385 29.5838 13.4061 29.6647 13.5209 29.8062 13.5277 29.8264 13.5277 30.0555 13.5277 30.2846 13.5243 30.2981 13.4399 30.3284 13.3115 30.379 13.1899 30.288 13.0346 30.032 13.0008 29.9713 12.9603 29.9241 12.9468 29.9241 12.9332 29.9241 12.9197 29.9073 12.9197 29.8871 12.9197 29.7995 12.6732 29.5535 12.4976 29.4693 12.3962 29.4188 12.2983 29.3581 12.278 29.3345 12.2577 29.3109 12.1699 29.2604 12.0821 29.22 11.9943 29.1795 11.8524 29.102 11.7646 29.0482 11.6565 28.9808 11.5383 28.9437 11.3931 28.9268 11.2749 28.9134 11.1634 28.8898 11.1398 28.8729 11.0925 28.8359 11.0047 29.0077 10.9878 29.1661 10.9777 29.2604 10.9675 29.2671 10.8493 29.2604 10.7784 29.2537 10.6737 29.2166 10.6129 29.1694 10.5521 29.1256 10.3832 29.0313 10.2346 28.9605 10.086 28.8932 9.93065 28.8056 9.89011 28.7685 9.84958 28.7314 9.78542 28.6843 9.75164 28.6641 9.55573 28.5495 9.4105 28.4383 9.33282 28.3372 9.28553 28.2732 9.21798 28.1924 9.18083 28.1553 9.14706 28.1182 9.0964 28.0374 9.07275 27.9801 9.0491 27.9195 9.01196 27.8689 8.99507 27.8689 8.97818 27.8689 8.95793 27.842 8.94441 27.8117 8.93428 27.778 8.87349 27.6836 8.81607 27.5994 8.52559 27.1951 8.44115 26.7571 8.63706 26.6628 8.7789 26.5954 8.9005 26.6594 8.89374 26.7975 8.89038 26.9053 8.9917 27.1243 9.08964 27.2254 9.17071 27.313 9.1842 27.185 9.10652 27.0469 9.04573 26.9424 9.03561 26.8649 9.03561 26.5449 9.03561 26.1574 9.08288 25.7902 9.1403 25.7295 9.15719 25.7127 9.17071 25.6722 9.17071 25.6352 9.17071 25.6015 9.20448 25.524 9.24838 25.4667 9.28892 25.4061 9.33958 25.3353 9.35647 25.305 9.37673 25.2747 9.4544 25.1669 9.5321 25.0658 9.67733 24.8704 9.66045 24.8805 10.9777 24.2403 11.1263 24.1662 11.2783 24.0887 11.3154 24.0685 11.5316 23.9506 11.8457 23.8226 11.8964 23.8327 11.9605 23.8428 11.9909 23.9573 11.9605 24.0752 11.9504 24.1123 11.893 24.1763 11.8356 24.21 11.7748 24.2471 11.5991 24.4021 11.4471 24.5571 11.2951 24.712 11.1499 24.8367 11.1229 24.8367 11.0689 24.8367 10.7919 25.1062 10.7919 25.1601 10.7919 25.1803 10.7379 25.2443 10.6737 25.3084 10.6095 25.3724 10.5555 25.4499 10.5555 25.4802 10.5555 25.5139 10.542 25.5476 10.5251 25.5611 10.5048 25.5712 10.4508 25.6655 10.3967 25.7733 10.2853 25.9991 10.2752 26.2484 10.3731 26.3562 10.4373 26.4269 10.4913 26.5179 10.5656 26.6729 10.5926 26.7302 10.6365 26.7942 10.6669 26.8211 10.7007 26.8447 10.7244 26.8851 10.7244 26.9053 10.7277 26.993 10.9709 27.2659 11.0891 27.3164 11.3695 27.4377 11.437 27.4815 11.5012 27.5859 11.5755 27.7038 11.6768 27.751 11.9099 27.7847 12.0348 27.8016 12.0923 27.8319 12.2307 27.9734 12.4165 28.1587 12.6563 28.2934 12.7846 28.2766 12.8319 28.2732 12.8995 28.2395 12.94 28.2025 13.0413 28.1081 13.2271 28.1182 13.325 28.2227 13.369 28.2699 13.4297 28.3069 13.4601 28.3069 13.4905 28.3069 13.5311 28.3238 13.5513 28.344 13.5986 28.3912 13.7135 28.4585 13.8655 28.5259 14.0884 28.627 14.2876 28.718 14.3451 28.7483 14.443 28.7988 14.4937 28.7854 14.6423 28.6607 14.72 28.5967 14.8044 28.5428 14.828 28.5428 14.8922 28.5428 15.2266 28.6843 15.3853 28.7752 15.4833 28.8359 15.6859 28.9134 15.7872 28.9336 15.8447 28.9471 15.9021 28.9673 15.9122 28.9841 15.919 29.001 15.9933 29.0414 16.0743 29.0785 16.1925 29.129 16.2263 29.1627 16.2466 29.2537 16.2804 29.3985 16.2094 29.4524 16.0203 29.4255 15.9156 29.412 15.8852 29.4188 15.8987 29.4524 15.9122 29.4962 16.1014 29.6209 16.2297 29.6782 16.2567 29.6883 16.3243 29.7354 16.3749 29.7793 16.429 29.8231 16.4932 29.8568 16.5202 29.8568 16.5911 29.8568 16.6755 30.0488 16.662 30.1869 16.6519 30.3015 16.6418 30.3116 16.5371 30.3217 16.4627 30.3284 16.3986 30.3621 16.3581 30.416 16.304 30.4817 16.2213 30.5036 16.152 30.4893ZM13.2575 31.9962C13.3723 31.9692 13.629 31.6997 13.629 31.6053 13.629 31.4504 13.7168 31.4066 14.0174 31.4066 14.389 31.4066 14.5139 31.3526 14.5747 31.1707 14.5984 31.0966 14.6389 31.0191 14.6659 30.9989 14.6896 30.9787 14.7098 30.918 14.7098 30.8675 14.7098 30.7934 14.7267 30.7698 14.8044 30.7563 14.8551 30.7462 14.9395 30.7597 14.9935 30.7866 15.0476 30.8136 15.1151 30.8338 15.1421 30.8338 15.2063 30.8338 15.517 30.9955 15.615 31.0831 15.6555 31.1202 15.6893 31.1673 15.6893 31.1943 15.6893 31.2449 15.8447 31.255 15.8751 31.2044 15.9122 31.1404 16.1486 31.1673 16.2128 31.2381 16.25 31.2785 16.331 31.3324 16.3952 31.3594 16.4627 31.3897 16.5438 31.4268 16.581 31.447 16.6215 31.4672 16.6553 31.4672 16.6789 31.4436 16.6992 31.4234 16.7431 31.4066 16.7735 31.4066 16.841 31.4066 17.1079 31.1269 17.1079 31.0528 17.1079 30.9753 17.3511 30.9854 17.4287 31.0697 17.4625 31.1067 17.5199 31.1438 17.5604 31.1572 17.5976 31.1673 17.7023 31.2449 17.7901 31.3291 17.9083 31.447 17.9894 31.4908 18.1245 31.5211 18.4454 31.5952 18.8372 31.474 19.0364 31.2415 19.2222 31.0259 19.3843 30.8069 19.4113 30.7327 19.4248 30.6957 19.4518 30.6654 19.4755 30.6654 19.4958 30.6654 19.5903 30.598 19.6849 30.5205 19.7829 30.4396 19.8842 30.3621 19.9112 30.352 19.9382 30.3385 19.9922 30.3082 20.0294 30.288 20.1713 30.1937 20.4415 30.0387 20.5563 29.9814 20.6205 29.9477 20.8366 29.7725 21.0359 29.594 21.2352 29.4154 21.448 29.2234 21.5155 29.1728 21.5797 29.1189 21.6337 29.0583 21.6337 29.038 21.6337 28.9909 22.4849 28.1385 22.5321 28.1385 22.549 28.1385 22.6267 28.0778 22.701 28.0037 22.8091 27.8993 22.8462 27.8352 22.8631 27.7241 22.88 27.6129 22.9206 27.5455 23.0219 27.4444 23.0962 27.3737 23.1942 27.2355 23.2381 27.1446 23.282 27.0502 23.3495 26.9458 23.3867 26.9121 23.4272 26.875 23.4576 26.8312 23.4576 26.8144 23.4576 26.7942 23.5893 26.6392 23.7548 26.4707 24.0824 26.1271 24.1432 26.0529 24.2344 25.8777 24.2682 25.8137 24.3222 25.7396 24.3492 25.716 24.3797 25.6891 24.4033 25.6554 24.4033 25.6352 24.4033 25.5745 24.5452 25.2983 24.6262 25.2006 24.6667 25.15 24.7309 25.0422 24.7748 24.958 24.8154 24.8737 24.8593 24.7963 24.8761 24.7861 24.893 24.776 24.9369 24.6985 24.9808 24.6076 25.0214 24.52 25.0788 24.4223 25.1058 24.3886 25.1666 24.3212 25.224 24.2235 25.2916 24.0752 25.3186 24.018 25.3558 23.9607 25.3726 23.9506 25.3895 23.9371 25.4706 23.7956 25.5483 23.6339 25.626 23.4722 25.707 23.3138 25.7239 23.2869 25.8522 23.0881 26.0921 22.5423 26.0921 22.4513 26.0921 22.3907 26.1056 22.3166 26.1224 22.2829 26.1427 22.2525 26.1765 22.1818 26.2035 22.1245 26.2812 21.9628 26.3386 21.8651 26.4602 21.6899 26.5717 21.5282 26.6223 21.3934 26.6561 21.1643 26.6662 21.0834 26.7237 20.9958 26.8283 20.888L26.9837 20.7263 27.2944 20.7263C27.5579 20.7263 27.6187 20.7364 27.7133 20.8038 27.8146 20.8712 27.9092 20.9925 27.9699 21.1306 28.0037 21.2047 28.1929 21.4001 28.2334 21.4001 28.2503 21.4001 28.2976 21.4304 28.3381 21.4675 28.4428 21.5652 28.7198 21.5922 28.8954 21.5214 29.1183 21.4338 29.1487 21.3833 29.1487 21.134L29.1487 20.9116 29.4696 20.8644C29.8343 20.8139 30.0201 20.7398 30.162 20.5915 30.216 20.5376 30.2802 20.4905 30.3072 20.4905 30.3612 20.4905 30.628 20.2344 30.6821 20.1266 30.7159 20.0659 30.7159 20.0356 30.6787 19.9918 30.5841 19.8705 30.4963 19.82 30.3781 19.8166 30.2532 19.8166 30.1113 19.7189 30.1113 19.6279 30.1113 19.5639 30.2633 19.4123 30.3274 19.4123 30.395 19.4123 30.6618 19.1091 30.7868 18.8935 30.8746 18.7351 30.8881 18.6812 30.8881 18.4454 30.8881 18.2634 30.905 18.1388 30.9422 18.0647 31.0198 17.913 31.0198 17.7244 30.9388 17.6098 30.9016 17.5593 30.8577 17.4919 30.8375 17.4616 30.8206 17.4313 30.7733 17.3605 30.7327 17.3066 30.6348 17.1651 30.5841 17.0034 30.5841 16.8248 30.5841 16.7304 30.5639 16.6496 30.5301 16.6125 30.4761 16.5519 30.4288 16.2419 30.395 15.7399 30.3849 15.6018 30.3612 15.4738 30.3443 15.4569 30.3274 15.4367 30.3139 15.3727 30.3139 15.3087 30.3139 15.2413 30.2802 15.1537 30.2295 15.0863 30.1822 15.0257 30.1451 14.9616 30.1451 14.9448 30.1451 14.8774 29.7364 14.527 29.6621 14.527 29.6148 14.527 29.527 14.4664 29.4358 14.3754 29.3547 14.2912 29.2703 14.2238 29.2466 14.2238 29.2264 14.2238 29.1892 14.2002 29.1656 14.1733 29.0879 14.0789 28.7637 13.8869 28.6826 13.8869 28.6387 13.8869 28.5847 13.8667 28.5644 13.8431 28.5441 13.8195 28.4259 13.7791 28.3043 13.7521 28.1794 13.7252 28.0747 13.6948 28.0645 13.678 28.0544 13.6645 27.8923 13.651 27.6997 13.651L27.3552 13.651 27.3113 13.5264C27.2843 13.4556 27.2607 13.2299 27.2539 13.021 27.2472 12.8121 27.2269 12.6133 27.2066 12.5763 27.1897 12.5392 27.1729 12.4786 27.1729 12.4415 27.1729 12.3573 27.0074 12.1652 26.879 12.1012 26.8283 12.0743 26.7608 12.0338 26.7304 12.0103 26.7034 11.9867 26.6122 11.953 26.5277 11.9361 26.2103 11.8687 26.0211 11.8014 25.9164 11.7138 25.8387 11.6464 25.7881 11.6295 25.7239 11.6464 25.6462 11.6632 25.5989 11.7037 25.4469 11.8923 25.4233 11.9193 25.349 11.9328 25.2375 11.926 25.0822 11.9159 25.0619 11.9058 25.0518 11.8384 25.045 11.7946 25.072 11.6935 25.1092 11.6093 25.1497 11.5285 25.1801 11.451 25.1801 11.4409 25.1801 11.4307 25.2038 11.3701 25.2308 11.3061 25.2578 11.2421 25.3051 11.141 25.3321 11.077 25.3591 11.013 25.3828 10.9523 25.3828 10.9422 25.3828 10.9321 25.4199 10.8411 25.4672 10.7401 25.5145 10.639 25.5517 10.5379 25.5517 10.5177 25.5517 10.4941 25.582 10.4402 25.6192 10.3931 25.6563 10.3459 25.6868 10.2718 25.6868 10.2313 25.6868 10.1909 25.6969 10.1471 25.7104 10.1336 25.7475 10.0966 25.8219 9.86747 25.8421 9.72596 25.8522 9.65183 25.8725 9.56086 25.886 9.52381 25.9401 9.39578 26.065 8.71521 26.0819 8.46252 26.0921 8.32437 26.1123 8.19299 26.1292 8.17276 26.1461 8.15255 26.1697 8.06158 26.1799 7.97061 26.19 7.87966 26.2103 7.7752 26.2272 7.73815 26.244 7.70107 26.2677 7.59664 26.2778 7.50231 26.2879 7.41133 26.3082 7.21929 26.3251 7.08116 26.3386 6.94301 26.369 6.76109 26.3893 6.67686 26.4095 6.59263 26.4433 6.43428 26.4636 6.32646 26.4872 6.21528 26.548 6.03334 26.602 5.91541 26.6561 5.80088 26.7 5.6897 26.7 5.67285 26.7 5.65601 26.727 5.60547 26.7608 5.56165 26.7946 5.51786 26.8554 5.38309 26.8959 5.26181 26.9533 5.08661 26.9601 5.01586 26.9364 4.90805 26.9195 4.83392 26.9027 4.72274 26.9027 4.6621 26.9027 4.59133 26.8621 4.49026 26.8013 4.39929 26.6899 4.23757 26.6088 4.18367 26.494 4.18367 26.4298 4.18367 26.2846 4.1466 26.1427 4.0927 26.1258 4.08596 26.065 4.05227 26.0076 4.01858 25.9232 3.9613 25.8387 3.95119 25.4672 3.94783 24.9572 3.94445 24.7478 3.90065 24.4236 3.72884L24.1905 3.60417 22.4139 3.61428C21.1203 3.62438 20.6205 3.61428 20.5698 3.58733 20.5327 3.56712 20.3976 3.5233 20.2658 3.49299 20.1375 3.46266 19.999 3.40876 19.9619 3.37507 19.9247 3.34138 19.7727 3.25041 19.6241 3.17292 19.4215 3.07185 19.3404 3.00782 19.3032 2.92698 19.2391 2.79557 19.0432 2.65406 18.6041 2.42496 18.138 2.18576 18.1312 2.18238 18.0637 2.12174 18.0299 2.09141 17.9421 2.04425 17.8678 2.01056 17.7226 1.94654 17.4456 1.70059 17.4456 1.63995 17.4456 1.61636 17.3409 1.49844 17.2126 1.37716 17.0538 1.22216 16.9525 1.15142 16.8951 1.15142 16.8512 1.15142 16.7938 1.13119 16.7735 1.10424 16.7228 1.0436 16.5607 1.01327 16.179 0.993065 16.0135 0.986322 15.8616 0.962734 15.8413 0.945888 15.8244 0.929042 15.7636 0.915579 15.7028 0.915579 15.6454 0.915579 15.5069 0.871784 15.3988 0.814504 15.1996 0.713428 15.0206 0.703325 14.9294 0.784172 14.8855 0.827967 14.6625 0.821246 14.6186 0.777429 14.5781 0.737017 14.3991 0.75048 14.1255 0.811121 14.0242 0.83471 13.9364 0.83471 13.8823 0.814504 13.8047 0.784172 13.7979 0.763966 13.7979 0.571919 13.7979 0.383254 13.7878 0.352923 13.6898 0.251848 13.629 0.191207 13.5547 0.140669 13.5243 0.140669 13.4905 0.140669 13.4534 0.110338 13.4433 0.0732861 13.4129-0.0244287 13.1224-0.0244287 13.065 0.0732861 13.0413 0.110338 12.967 0.147412 12.8961 0.157515 12.8252 0.167618 12.7407 0.191207 12.7103 0.211413 12.6766 0.228259 12.6158 0.241745 12.5752 0.241745 12.5313 0.245105 12.4064 0.299025 12.2949 0.363026 12.1835 0.427049 12.0484 0.501175 11.9909 0.528124 11.9369 0.558433 11.866 0.592125 11.8389 0.608971 11.8119 0.622456 11.7342 0.659508 11.6701 0.68648 11.6059 0.716789 11.4843 0.770709 11.3999 0.807761 11.3154 0.848195 11.2073 0.88863 11.1567 0.902093 11.1094 0.912196 11.0418 0.94927 11.0081 0.986322 10.9777 1.02001 10.9236 1.05035 10.8932 1.05035 10.8595 1.05035 10.8156 1.07055 10.7953 1.0975 10.775 1.12109 10.6771 1.16827 10.5757 1.19858 10.4744 1.23227 10.3258 1.29965 10.2448 1.35019 10.1671 1.40073 10.0725 1.45126 10.0387 1.46475 10.005 1.47823 9.95429 1.53213 9.92052 1.58941 9.89011 1.64669 9.82593 1.70059 9.77866 1.71408 9.73136 1.72754 9.63343 1.77133 9.55912 1.81177 9.48481 1.85556 9.38685 1.9061 9.33958 1.92633 9.29229 1.94992 9.21124 1.98697 9.16058 2.01392 9.10652 2.04087 9.00183 2.0611 8.93089 2.0611 8.8566 2.0611 8.76201 2.07794 8.7215 2.10153 8.67084 2.1251 8.33309 2.14194 7.70149 2.15207 7.18134 2.15879 6.14783 2.17902 5.40478 2.19586L4.05377 2.22617 3.96257 2.33063C3.85449 2.44855 3.84773 2.50919 3.91867 2.67765 3.94569 2.74503 3.96933 2.8798 3.96933 2.97752 3.96933 3.20661 4.02336 3.39866 4.12469 3.53343 4.16859 3.59069 4.20576 3.66145 4.20576 3.6884 4.20576 3.74904 4.30032 3.94109 4.34423 3.96468 4.36112 3.97814 4.37463 4.02532 4.37463 4.0725 4.37463 4.16009 4.52662 4.50711 4.58065 4.5408 4.59754 4.5509 4.61106 4.58123 4.61106 4.61156 4.61106 4.63851 4.6482 4.70589 4.6955 4.76318 4.74277 4.81707 4.77994 4.8811 4.77994 4.90805 4.77994 4.94848 4.85761 5.09335 5.03662 5.37973 5.08052 5.45386 5.13458 5.55493 5.15483 5.60883 5.17511 5.65937 5.20213 5.6998 5.21901 5.6998 5.23251 5.6998 5.25279 5.72675 5.26629 5.76044 5.27644 5.79077 5.29669 5.84131 5.31358 5.86826 5.39465 6.00639 5.42166 6.07715 5.42166 6.14454 5.42166 6.18833 5.44531 6.25233 5.47233 6.28602 5.49934 6.3231 5.52299 6.37363 5.52299 6.39722 5.52299 6.43428 5.63781 6.71055 5.73577 6.90596 5.75603 6.94975 5.86074 7.07106 5.96883 7.18224 6.07689 7.29005 6.16472 7.39449 6.16472 7.41133 6.16472 7.42818 6.18836 7.46523 6.22214 7.48882 6.25252 7.51577 6.29306 7.57643 6.31671 7.63033 6.33696 7.68087 6.4653 7.83248 6.59703 7.97061 6.73214 8.10537 6.84022 8.23342 6.84022 8.25027 6.84022 8.26711 6.89425 8.33111 6.95843 8.39514 7.02259 8.45914 7.07665 8.54001 7.07665 8.57706 7.07665 8.65457 7.01586 8.85333 6.96519 8.95105 6.81994 9.2172 6.67134 9.5474 6.67134 9.59794 6.67134 9.63163 6.6477 9.68888 6.62068 9.72258 6.59367 9.75965 6.57002 9.81019 6.57002 9.83378 6.57002 9.86073 6.53961 9.94495 6.50247 10.0191 6.4653 10.0966 6.43492 10.1875 6.43492 10.2212 6.43492 10.3189 6.2728 10.5514 6.20186 10.5514 6.16809 10.5514 6.08365 10.4773 6.00934 10.3762 5.89113 10.2178 5.83033 10.1741 5.45544 9.99211 4.9657 9.75291 4.8441 9.70911 4.6516 9.70911 4.57729 9.70911 4.50298 9.69563 4.49285 9.67542 4.45568 9.61478 4.1551 9.63499 4.06727 9.70237 4.02336 9.73942 3.91528 9.7765 3.82747 9.7866 3.64847 9.81019 3.24317 9.92811 3.14184 9.98875 3.10468 10.009 2.87501 10.0325 2.61833 10.0393 2.1556 10.0528 1.83474 10.1202 1.70301 10.2347 1.67599 10.2616 1.63209 10.2819 1.61183 10.2819 1.58819 10.2819 1.5713 10.3021 1.5713 10.329 1.5713 10.356 1.53752 10.42 1.49699 10.4739 1.39903 10.5952 1.35176 10.6727 1.28082 10.8209 1.2538 10.8849 1.2099 10.9692 1.19301 11.0062 1.17276 11.0433 1.15248 11.141 1.14911 11.2252 1.14911 11.3095 1.12883 11.4105 1.10521 11.451 1.08156 11.4914 1.06467 11.5419 1.06467 11.5622 1.06467 11.6497 0.919442 11.798 0.750566 11.8822 0.311489 12.1012 0.0851914 12.2933 0.0851914 12.4415 0.0851914 12.492 0.0716725 12.5426 0.0547849 12.5527 0.0412881 12.5628 0.0176411 12.6672 0.00751298 12.7852-0.0093746 12.9738-0.0026373 13.021 0.0784319 13.1827 0.206773 13.4354 0.368889 13.6611 0.50399 13.7757 0.618834 13.8734 0.794469 14.153 0.794469 14.2406 0.794469 14.2676 0.831613 14.2979 0.878907 14.3114 0.926179 14.3215 0.963345 14.3518 0.963345 14.372 0.963345 14.4327 1.09505 14.5405 1.22679 14.5944 1.31459 14.6281 1.35513 14.6281 1.41255 14.5978 1.45984 14.5742 1.60844 14.5607 1.80772 14.5675L2.12859 14.5776 2.12859 14.7595 2.12859 14.9381 1.9766 14.9987C1.82798 15.056 1.64222 15.2581 1.63885 15.3626 1.63885 15.3862 1.6152 15.4401 1.58819 15.4839 1.54089 15.5546 1.54428 15.5647 1.60507 15.622 1.67599 15.686 1.77732 15.75 1.89553 15.8039 1.93606 15.8208 2.0205 15.8781 2.08129 15.932 2.14548 15.9825 2.25017 16.0566 2.31435 16.0903 2.55754 16.2217 2.55078 16.1981 2.55078 16.8147 2.54739 17.2527 2.53726 17.3874 2.50011 17.438 2.4731 17.475 2.44945 17.5323 2.44945 17.566 2.44945 17.6031 2.41904 17.694 2.3819 17.7682 2.32448 17.8861 2.31435 17.977 2.31435 18.3173 2.31435 18.6172 2.30083 18.7418 2.26369 18.7924 2.22652 18.8463 2.21303 19.0215 2.19614 19.4999 2.18938 19.8503 2.17249 20.4028 2.16236 20.7263 2.14884 21.0935 2.1556 21.3395 2.17586 21.3833 2.19614 21.4203 2.22652 21.5686 2.2468 21.7168 2.28394 21.9931 2.34137 22.1548 2.4731 22.33 2.517 22.3873 2.55078 22.458 2.55078 22.485 2.55078 22.5726 2.65886 22.7613 2.77707 22.8758 2.83787 22.9365 2.88853 23.0005 2.88853 23.0207 2.88853 23.0881 3.4323 23.6777 3.53702 23.7215 3.59781 23.7485 3.70589 23.8158 3.77344 23.8765 3.84099 23.9338 3.96594 24.0146 4.05038 24.055 4.13482 24.0988 4.21252 24.1494 4.22602 24.1662 4.23614 24.1864 4.32397 24.237 4.42191 24.2808 4.57389 24.3515 4.6043 24.3818 4.64484 24.4998 4.67522 24.5907 4.71915 24.6514 4.76981 24.6716 4.86437 24.7087 4.90152 24.84 4.84073 24.9445 4.81708 24.9849 4.7867 25.1736 4.77318 25.3589 4.73603 25.8744 4.6955 26.1945 4.6516 26.2753 4.57729 26.4101 4.6043 26.5752 4.72927 26.7706 4.79343 26.8717 4.84749 26.966 4.84749 26.9829 4.84749 27.03 5.13119 27.2962 5.18524 27.2962 5.21225 27.2962 5.26629 27.3198 5.30006 27.3467 5.33723 27.3737 5.39465 27.3973 5.42503 27.3973 5.48582 27.3973 5.59054 27.5657 5.59054 27.6634 5.59391 27.6937 5.63107 27.778 5.67498 27.8521 5.82697 28.1014 5.86074 28.2092 5.86074 28.4518 5.86074 28.7078 5.89113 28.8258 6.02286 29.1155 6.10393 29.2941 6.25592 29.5266 6.30995 29.5468 6.32347 29.5535 6.33359 29.5771 6.33359 29.5973 6.33359 29.6479 6.60716 29.9241 6.65783 29.9241 6.6781 29.9241 6.71525 29.9443 6.7355 29.9679 6.8132 30.0656 7.06652 30.1566 7.30294 30.1734 7.51233 30.1869 7.57651 30.2071 7.7285 30.3082 7.85008 30.3891 7.95141 30.4295 8.02911 30.4295 8.0899 30.4295 8.15745 30.443 8.17434 30.4598 8.1946 30.4767 8.2689 30.4969 8.34321 30.5036L8.47832 30.5137 8.48844 30.79C8.49857 31.0595 8.50196 31.0697 8.61003 31.1539 8.68097 31.2078 8.7654 31.2381 8.84308 31.2381 8.91063 31.2381 8.97481 31.255 8.98494 31.2718 8.99507 31.292 9.03561 31.3055 9.07275 31.3055 9.10652 31.3055 9.20785 31.3425 9.29905 31.3863 9.52871 31.5043 9.69759 31.575 9.74825 31.575 9.76853 31.575 9.86985 31.5009 9.96779 31.4066 10.0657 31.3156 10.1738 31.2381 10.211 31.2381 10.3055 31.2381 10.4879 31.1404 10.4879 31.0865 10.4879 31.0629 10.5116 31.0259 10.5386 31.0023 10.5656 30.9787 10.5893 30.9349 10.5893 30.9046 10.5893 30.8742 10.6872 30.7496 10.8088 30.6317L11.0317 30.4127 11.2951 30.4127C11.5519 30.4127 11.6802 30.4497 11.8153 30.5609 11.8457 30.5879 11.8727 30.6317 11.8727 30.6586 11.8727 30.6822 11.8964 30.7597 11.9267 30.8271 11.9572 30.8978 11.9977 30.9888 12.0179 31.036 12.0821 31.1775 12.2206 31.3055 12.3962 31.3897 12.4908 31.4302 12.5888 31.4908 12.6124 31.5211 12.636 31.5514 12.6766 31.575 12.6968 31.575 12.7171 31.575 12.8353 31.6727 12.9535 31.794 13.1359 31.9793 13.1866 32.013 13.2575 31.9962Z" fill-rule="evenodd" transform="matrix(1 0 0 -1 1074 391)"/></g></svg>