<svg width="2813" height="2063" xmlns="http://www.w3.org/2000/svg" xmlns:xlink="http://www.w3.org/1999/xlink" xml:space="preserve" overflow="hidden"><defs><clipPath id="clip0"><rect x="512" y="146" width="2813" height="2063"/></clipPath></defs><g clip-path="url(#clip0)" transform="translate(-512 -146)"><path d="M2309 146 2312.21 147.78 2320.38 169.464 2323.94 174.084 2333.89 174.447 2346.7 168.752 2368.73 155.24 2391.13 151.332 2415.65 157.02 2463.29 176.576 2552.88 207.507 2553.59 215.687 2550.39 220.67 2545.41 224.578 2541.14 230.266 2540.79 240.581 2550.74 261.561 2553.23 272.581 2529.41 339.426 2531.54 357.914 2542.21 375.341 2547.18 379.961 2598.38 426.184 2613.31 446.451 2614.37 448.587 2614.02 451.428 2610.46 456.054 2609.4 459.251 2607.62 470.278 2605.84 474.898 2597.32 488.054 2595.89 492.319 2597.32 496.232 2601.93 502.982 2604.06 505.481 2606.2 507.252 2608.33 509.033 2609.76 512.238 2609.4 514.72 2606.2 520.411 2606.56 523.612 2609.76 527.521 2614.37 529.65 2617.93 532.854 2618.64 539.259 2621.48 545.651 2627.53 549.568 2633.57 552.765 2637.48 557.036 2637.48 560.24 2634.28 566.632 2634.64 570.541 2636.77 573.038 2644.24 578.013 2647.08 581.21 2649.92 587.967 2653.12 591.876 2654.19 594.018 2659.88 598.987 2671.61 606.816 2675.52 611.43 2679.43 615.701 2686.18 618.186 2688.67 621.745 2686.54 628.501 2682.99 635.97 2681.57 641.656 2686.54 650.541 2695.79 653.746 2743.07 652.322 2746.62 653.041 2747.68 655.523 2747.68 658.728 2747.68 660.856 2747.68 662.28 2746.26 663.703 2746.62 666.189 2750.88 670.105 2757.99 673.299 2764.03 673.657 2777.54 672.595 2793.9 677.573 2813.09 688.947 2827.67 704.237 2829.45 720.597 2836.2 731.617 2847.93 740.155 2886.68 757.931 2893.08 760.066 2908.01 761.836 2914.05 763.617 2919.39 767.176 2926.14 774.995 2916.54 778.908 2909.78 775.356 2903.75 770.374 2897.34 768.246 2895.57 770.374 2893.79 774.287 2890.23 786.734 2887.74 787.438 2879.93 784.241 2860.73 779.62 2832.3 768.246 2824.83 766.822 2820.2 781.394 2820.56 869.58 2820.56 875.975 2821.63 883.086 2824.83 888.773 2835.13 894.47 2860.38 896.605 2871.04 901.935 2939.29 959.18 3021.05 1028.16 3031.01 1033.85 3042.74 1037.05 3124.5 1044.16 3130.55 1043.45 3136.59 1039.18 3140.85 1033.14 3144.77 1026.03 3150.81 1017.14 3152.94 1012.16 3154.72 1010.38 3157.57 1010.03 3160.05 1011.09 3162.9 1011.45 3166.81 1008.96 3172.85 1002.21 3176.05 1000.43 3210.54 1003.27 3225.11 1007.18 3234.35 1018.2 3236.12 1025.31 3237.55 1027.09 3241.46 1031 3245.01 1034.2 3251.77 1038.11 3254.97 1042.03 3257.11 1047.01 3258.53 1051.63 3261.01 1073.32 3262.79 1077.94 3265.64 1083.63 3267.77 1086.48 3272.39 1091.45 3273.81 1094.3 3273.81 1095.72 3272.39 1099.63 3272.39 1101.41 3273.1 1109.22 3270.61 1113.14 3265.64 1114.56 3244.31 1116.34 3242.53 1115.98 3238.62 1114.21 3237.55 1113.85 3235.42 1114.92 3232.93 1118.48 3231.15 1119.89 3210.89 1124.16 3205.56 1128.79 3204.49 1139.09 3211.24 1151.9 3224.61 1170.62 3224.61 1170.62 3306.16 1284.88 3325 1300.53 3321.8 1302.3 3312.2 1335.73 3306.87 1345.33 3293.36 1360.62 3289.46 1370.93 3289.46 1376.97 3289.46 1381.23 3288.38 1384.44 3283.41 1389.41 3264.22 1400.08 3238.26 1421.42 3189.91 1470.84 3180.32 1475.82 3167.51 1474.75 3152.59 1468.71 3143.34 1464.44 3139.07 1463.73 3135.52 1466.22 3129.48 1464.44 3122.73 1465.51 3108.86 1471.2 3102.11 1471.91 3086.11 1470.84 3080.78 1472.62 3074.03 1475.82 3057.67 1479.38 3051.63 1482.57 3044.52 1484.72 3037.05 1470.84 3031.01 1471.2 3031.37 1469.07 3032.43 1463.73 3033.14 1461.23 2999.73 1458.75 2992.62 1457.33 2986.93 1454.12 2984.8 1459.11 2981.25 1461.23 2976.62 1462.66 2971.99 1466.22 2969.15 1470.49 2968.81 1473.69 2971.99 1481.15 2966.31 1484.72 2958.49 1488.27 2951.03 1492.89 2948.18 1500 2950.32 1506.05 2953.51 1511.02 2954.22 1515.65 2948.18 1520.98 2945.7 1518.13 2943.2 1517.07 2940.71 1518.13 2938.22 1520.98 2936.09 1517.07 2931.83 1512.44 2927.92 1510.31 2926.14 1514.93 2926.85 1517.77 2930.41 1520.98 2931.11 1524.53 2930.41 1527.38 2926.14 1535.91 2914.41 1530.22 2908.36 1528.44 2901.97 1528.44 2898.76 1529.16 2896.99 1530.22 2894.86 1530.94 2892.01 1530.94 2892.37 1529.16 2889.53 1524.89 2886.32 1522.4 2882.42 1528.09 2878.86 1531.64 2877.08 1535.91 2883.84 1546.93 2885.26 1559.38 2887.04 1565.78 2883.48 1564.35 2876.37 1560.8 2872.46 1560.8 2871.04 1562.94 2868.55 1569.34 2866.42 1570.76 2854.69 1573.61 2852.91 1574.31 2853.27 1579.64 2854.33 1579.29 2856.82 1577.16 2860.02 1577.86 2860.38 1579.64 2860.02 1583.91 2860.02 1585.69 2861.09 1586.4 2864.64 1587.82 2865.35 1587.82 2866.07 1592.09 2866.07 1596.35 2866.42 1600.27 2868.9 1604.18 2872.82 1608.45 2872.46 1614.13 2871.4 1615.91 2868.55 1613.42 2866.07 1609.87 2865.35 1608.09 2861.44 1606.67 2850.42 1605.61 2849.35 1605.96 2845.44 1607.74 2842.96 1608.09 2842.6 1607.02 2840.47 1603.46 2839.4 1602.76 2837.62 1602.05 2835.85 1600.27 2833.36 1598.49 2825.54 1597.43 2824.11 1596.72 2822.34 1597.43 2820.2 1600.62 2818.08 1604.89 2814.87 1609.51 2813.81 1610.58 2813.45 1614.13 2813.45 1618.05 2814.87 1621.6 2817.72 1622.67 2819.5 1624.8 2819.85 1629.07 2819.13 1633.33 2817.72 1635.11 2811.31 1635.11 2806.34 1634.4 2795.68 1628.36 2715.34 1630.13 2692.94 1634.4 2648.5 1650.05 2652.77 1634.76 2647.08 1633.33 2648.5 1631.56 2648.86 1630.13 2649.22 1628.71 2649.56 1627.29 2649.56 1625.87 2648.86 1625.16 2648.14 1624.8 2608.68 1616.63 2434.49 1580.71 2416.01 1576.8 2368.03 1566.84 2366.95 1572.53 2368.37 1576.09 2369.09 1579.29 2366.24 1584.63 2361.98 1589.24 2343.85 1602.05 2337.44 1594.58 2330.7 1588.89 2323.94 1588.89 2317.19 1597.77 2315.41 1603.11 2314.69 1611.29 2312.92 1615.2 2308.65 1618.4 2299.41 1623.02 2295.86 1627.29 2295.15 1628 2294.08 1629.07 2292.65 1629.43 2291.59 1629.78 2277.73 1629.43 2270.26 1630.13 2265.29 1632.27 2262.09 1638.32 2259.24 1647.2 2255.68 1655.38 2249.64 1659.3 2232.58 1642.58 2233.64 1640.09 2236.13 1637.24 2237.55 1634.4 2235.77 1631.91 2232.22 1631.56 2229.73 1632.27 2228.31 1631.91 2227.6 1628 2225.47 1628 2184.59 1627.29 2182.8 1624.44 2181.02 1623.74 2178.9 1624.44 2176.76 1627.29 2169.3 1628.36 2161.12 1637.24 2155.08 1637.96 2157.21 1632.98 2153.66 1633.33 2151.88 1632.27 2149.39 1627.29 2146.55 1625.16 2143.7 1624.8 2094.65 1620.89 2084.69 1622.31 2081.49 1628 1993.33 1626.94 1984.45 1625.52 1972.71 1620.89 1964.54 1617.69 1919.74 1616.27 1913.7 1618.05 1910.85 1624.44 1906.94 1626.94 1505.24 1630.85 1497.42 1630.85 1497.07 1627.29 1466.49 1626.58 1466.85 1628.71 1466.14 1631.21 1468.27 1638.32 1472.18 1644.72 1474.32 1651.47 1472.18 1660 1467.57 1664.98 1461.88 1669.6 1456.89 1674.94 1454.41 1682.76 1450.5 1699.47 1444.45 1709.07 1443.03 1717.61 1441.25 1720.8 1437.35 1724.72 1436.28 1726.85 1437.35 1730.76 1437.7 1732.19 1438.05 1732.19 1439.83 1732.54 1441.25 1733.25 1442.32 1735.03 1442.32 1737.16 1441.61 1738.94 1440.55 1740.36 1438.41 1746.05 1433.79 1754.94 1432.72 1758.5 1434.14 1765.25 1444.81 1784.45 1445.52 1788.01 1446.23 1795.84 1447.3 1799.39 1448.72 1801.52 1453.69 1806.14 1454.77 1807.92 1455.83 1815.03 1458.68 1819.66 1471.12 1830.68 1475.38 1832.81 1481.43 1833.88 1489.96 1834.23 1491.38 1835.65 1489.96 1839.21 1486.4 1842.42 1482.49 1844.19 1477.87 1844.54 1474.67 1845.61 1471.82 1848.1 1469.34 1851.3 1466.85 1856.63 1465.07 1864.1 1465.07 1871.57 1467.91 1877.62 1471.12 1879.03 1474.67 1879.39 1477.87 1880.1 1478.93 1882.59 1480.01 1886.5 1482.13 1887.56 1485.34 1887.56 1488.89 1888.64 1492.45 1890.77 1494.57 1891.83 1495.65 1893.97 1496 1898.59 1494.93 1903.57 1492.09 1906.77 1484.98 1912.46 1480.35 1919.92 1480.35 1927.03 1483.91 1943.4 1483.91 1974.33 1485.69 1981.79 1493.87 1993.88 1496 2000.64 1495.65 2009.88 1492.45 2026.24 1493.87 2035.48 1502.4 2049.34 1503.46 2052.91 1500.98 2056.46 1488.89 2070.33 1482.85 2082.42 1481.43 2090.24 1483.91 2097.7 1486.76 2100.91 1488.89 2101.26 1490.67 2100.91 1493.87 2102.69 1495.65 2105.53 1496 2108.73 1497.07 2112.29 1500.98 2115.13 1496.71 2119.04 1493.51 2124.37 1491.73 2130.42 1491.02 2136.11 1491.73 2142.15 1493.51 2145.71 1506.31 2157.45 1519.11 2173.8 1508.09 2184.46 1499.56 2203.31 1492.8 2209 1484.27 2208.29 1476.09 2202.24 1440.55 2154.24 1423.12 2119.4 1416.73 2102.69 1412.11 2094.15 1406.77 2088.46 1400.02 2087.04 1387.57 2090.59 1381.17 2090.24 1375.13 2084.9 1371.58 2076.73 1366.95 2058.95 1359.84 2050.42 1351.67 2048.29 1343.84 2048.29 1337.45 2044.73 1336.03 2037.26 1336.73 2028.73 1336.73 2021.62 1332.48 2019.12 1326.79 2023.03 1314.7 2040.46 1310.07 2045.44 1301.55 2046.15 1297.99 2041.53 1297.28 2034.06 1297.63 2026.95 1295.86 2024.46 1292.3 2025.88 1288.04 2028.37 1284.83 2029.44 1280.93 2027.66 1274.88 2021.62 1270.26 2019.84 1214.45 2015.22 1193.13 2018.07 1187.08 2016.99 1183.17 2014.14 1181.03 2011.3 1178.19 2008.46 1173.57 2007.04 1172.15 2007.75 1168.95 2012.01 1167.17 2013.08 1165.04 2012.73 1160.06 2009.88 1157.58 2009.53 1140.15 2011.66 1135.18 2013.44 1131.62 2015.92 1125.93 2021.97 1122.74 2024.1 1115.97 2026.24 1092.52 2026.95 1091.81 2026.95 1085.05 2029.09 1071.9 2037.62 1064.08 2039.75 1058.75 2042.59 1057.32 2048.29 1055.19 2053.62 1043.82 2053.62 1040.62 2054.68 1035.29 2057.18 1034.93 2058.24 1034.93 2060.02 1034.22 2061.8 1032.08 2062.51 1029.96 2061.8 1026.04 2059.66 1005.78 2053.62 999.736 2054.33 993.335 2059.31 983.022 2073.88 976.625 2077.44 963.115 2079.22 957.075 2081.35 952.455 2085.62 953.878 2085.97 958.141 2087.4 947.474 2098.77 945.346 2101.97 945.346 2105.18 946.412 2114.06 945.346 2118.33 940.726 2127.57 938.584 2130.42 928.99 2126.15 923.301 2124.73 922.235 2130.42 922.59 2136.47 921.173 2139.66 916.192 2137.53 914.064 2133.62 910.86 2121.53 907.66 2116.2 899.131 2114.06 886.337 2114.78 874.962 2113.71 869.981 2106.24 870.692 2099.48 874.243 2090.24 874.962 2083.84 873.886 2082.06 871.758 2080.99 869.269 2080.28 862.521 2080.28 861.445 2080.99 861.098 2082.42 860.022 2084.9 858.252 2089.89 858.252 2094.86 856.828 2098.42 851.852 2100.19 847.582 2098.42 842.606 2090.96 838.343 2087.4 833.717 2092.37 829.81 2094.51 825.19 2095.22 820.215 2095.22 820.564 2095.92 819.141 2098.07 817.012 2100.55 813.81 2102.69 810.97 2103.76 810.97 2103.4 810.97 2101.97 809.191 2100.19 804.216 2098.07 802.436 2096.64 801.725 2093.8 801.013 2089.89 799.945 2087.75 795.682 2083.84 793.553 2081.35 792.479 2079.22 790.707 2078.15 787.148 2077.44 783.596 2078.15 782.173 2079.22 782.885 2080.99 785.02 2082.78 779.333 2083.84 774.707 2076.01 770.088 2077.44 769.02 2074.59 768.316 2073.18 765.113 2070.33 765.113 2067.48 768.665 2067.84 771.504 2067.48 777.198 2065.35 773.995 2059.31 772.223 2051.13 769.376 2045.44 762.622 2047.92 760.131 2040.46 755.156 2035.84 748.046 2033.71 739.875 2033 736.672 2032.29 735.605 2030.51 733.826 2028.73 729.918 2028.02 727.071 2029.79 725.292 2033 723.163 2035.48 720.323 2034.06 709.654 2024.46 709.292 2020.19 714.274 2005.26 713.918 2003.12 710.011 1994.59 705.74 1989.26 704.324 1985.7 711.79 1985.35 713.213 1980.36 710.716 1973.97 706.808 1968.28 702.545 1965.44 697.925 1963.31 694.011 1959.75 692.238 1953.35 688.68 1956.2 684.41 1957.97 680.503 1957.62 677.662 1953.35 682.631 1950.86 680.147 1950.15 678.018 1949.43 675.883 1948.73 672.68 1948.73 675.883 1945.52 684.41 1942.68 683.705 1939.84 674.815 1933.79 672.68 1930.23 674.815 1923.48 665.577 1923.84 665.577 1919.92 668.773 1913.52 667.705 1906.06 666.638 1908.55 664.859 1910.68 663.079 1912.46 660.595 1913.52 655.97 1913.17 655.62 1911.39 657.044 1909.25 658.111 1907.48 658.111 1887.56 655.264 1881.87 649.578 1878.32 643.528 1877.62 641.044 1882.59 637.841 1882.95 620.425 1872.63 614.738 1874.06 598.383 1871.57 592.347 1871.21 589.5 1872.99 587.721 1875.47 585.586 1877.62 581.316 1878.68 577.408 1879.03 575.629 1878.68 573.856 1877.62 572.077 1876.9 570.654 1877.97 569.593 1880.1 567.814 1881.17 560.704 1880.81 554.654 1879.39 549.686 1876.9 545.772 1873.69 544.704 1871.21 543.637 1868.01 542.213 1865.17 540.085 1863.74 536.526 1863.74 534.042 1863.39 529.067 1861.61 528.711 1855.21 524.441 1845.97 518.042 1837.79 512 1834.23 513.772 1828.9 516.619 1810.41 518.042 1807.56 526.576 1794.41 531.195 1775.21 530.134 1772.01 527.643 1769.52 527.993 1763.83 530.49 1758.13 534.042 1754.58 528.355 1752.45 527.993 1749.61 526.22 1743.56 526.22 1740.36 529.416 1720.8 531.195 1715.47 533.686 1712.98 536.526 1711.56 539.024 1709.79 539.373 1706.22 539.373 1703.03 544.355 1682.05 542.931 1677.78 538.661 1669.96 532.263 1644.72 527.288 1634.76 519.466 1636.54 521.601 1627.29 518.042 1608.45 517.331 1605.24 518.398 1599.56 523.729 1596 558.924 1591.38 564.967 1589.6 571.016 1587.11 579.543 1581.78 583.095 1576.8 585.237 1561.87 588.789 1553.33 599.806 1542.31 604.07 1534.49 604.788 1528.79 602.646 1490.75 604.07 1484.35 609.401 1479.73 617.229 1475.82 620.069 1472.62 619.713 1468 617.934 1459.82 617.934 1429.6 614.382 1416.79 601.941 1406.84 598.034 1406.13 594.12 1406.49 590.923 1405.77 588.426 1401.86 588.426 1397.6 590.205 1393.68 593.052 1390.13 594.831 1386.22 598.034 1371.99 598.739 1364.17 598.383 1357.77 595.536 1350.66 591.272 1345.68 585.942 1342.12 578.831 1338.93 575.28 1337.86 572.077 1337.5 566.035 1338.93 564.611 1337.5 555.373 1332.17 553.238 1331.1 551.103 1327.19 551.103 1325.42 553.238 1324.7 558.213 1323.99 559.636 1324.35 564.262 1327.55 566.39 1328.26 568.17 1327.9 570.654 1325.06 572.077 1324.35 584.163 1322.21 585.586 1321.51 587.009 1320.08 588.789 1319.01 590.923 1319.01 593.407 1320.08 595.187 1321.51 597.315 1322.57 599.806 1322.21 602.297 1320.08 609.401 1310.12 623.272 1298.75 632.51 1288.08 638.197 1283.46 648.859 1280.26 660.595 1273.15 665.926 1270.66 671.613 1270.3 685.477 1270.66 691.883 1269.95 696.146 1270.3 699.698 1269.23 703.256 1267.1 706.452 1264.61 714.274 1261.41 721.74 1262.12 729.562 1263.9 736.672 1263.9 751.953 1258.56 759.426 1258.56 766.536 1264.61 772.572 1262.49 782.529 1260.7 787.867 1257.86 790.351 1253.95 792.835 1249.68 795.326 1245.06 799.24 1241.86 802.792 1240.79 810.258 1241.86 813.81 1241.5 820.92 1237.95 821.276 1237.23 822.699 1233.32 823.411 1227.63 826.969 1220.52 839.767 1213.41 850.428 1212.7 853.987 1208.79 845.097 1191.72 862.233 1177.5 862.232 1177.5 864.67 1175.48 870.517 1170.62 870.519 1170.62 876.378 1165.76 877.801 1164.34 878.151 1161.85 877.447 1157.94 878.87 1152.26 878.87 1149.41 879.575 1146.92 883.487 1144.43 888.818 1144.08 892.37 1146.92 895.219 1150.83 898.42 1153.67 908.732 1151.54 905.532 1136.25 892.734 1105.32 895.573 1096.43 901.623 1089.32 908.372 1082.56 913.346 1075.81 915.845 1070.83 915.48 1069.41 913.7 1068.34 910.506 1063.36 903.04 1046.65 896.996 1040.61 881.71 1028.87 878.512 1022.83 880.647 1003.98 882.07 1002.92 884.198 1003.63 888.107 1002.92 898.42 999.002 910.149 996.162 922.235 995.093 932.548 997.221 942.854 1003.63 947.474 1005.05 954.947 1003.98 961.692 1001.5 965.965 998.645 966.319 998.291 969.87 994.027 977.336 970.553 978.048 965.936 973.428 949.583 974.497 928.96 971.651 919 965.253 910.472 954.583 901.935 950.32 895.529 940.726 874.913 930.413 865.31 928.285 862.105 928.285 857.487 930.062 854.29 932.548 851.443 936.811 839.354 942.854 836.864 965.607 837.93 969.87 836.864 972.355 833.66 971.293 830.469 963.834 826.199 961.338 822.64 963.115 817.307 968.447 810.915 974.854 805.222 980.183 801.305 983.737 800.954 986.938 801.659 990.496 801.659 994.05 799.531 1000.79 791.709 1006.49 783.171 1012.53 768.246 1016.08 761.489 1022.12 756.15 1024.97 754.726 1034.57 752.24 1037.77 750.105 1043.1 744.06 1047.37 742.283 1051.28 741.213 1056.62 737.662 1061.23 733.398 1063.37 730.194 1060.52 728.058 1055.9 727.711 1053.77 726.287 1058.75 720.597 1059.81 719.525 1061.23 719.174 1062.3 719.525 1063.73 720.597 1065.85 723.437 1067.64 730.905 1068.7 733.04 1071.9 734.103 1080.43 735.884 1082.2 736.95 1082.2 740.859 1079.72 742.283 1076.17 742.637 1073.67 743.706 1066.21 750.463 1063.37 752.24 1058.75 756.507 1063.37 760.066 1071.54 762.194 1078.65 762.548 1085.76 761.836 1091.45 762.913 1103.53 767.881 1118.11 771.797 1124.86 774.637 1151.17 795.618 1167.52 805.576 1196.31 828.327 1199.16 829.046 1203.79 828.327 1205.92 829.046 1211.6 835.083 1214.81 837.218 1217.29 837.583 1225.12 837.218 1240.4 839.711 1244.67 840.423 1248.93 839.354 1252.48 833.309 1252.14 826.91 1247.86 814.467 1249.29 804.152 1257.11 800.954 1315.41 797.396 1320.38 794.195 1307.59 703.883 1312.92 690.371 1314.7 681.837 1316.48 661.575 1313.99 653.041 1306.52 647.35 1313.63 640.24 1323.23 643.792 1339.23 655.523 1348.83 656.593 1356.65 655.169 1364.11 654.812 1373 660.151 1379.39 666.189 1381.17 669.393 1382.24 674.723 1384.73 680.413 1388.65 678.99 1395.04 672.24 1398.95 670.105 1401.79 669.393 1410.68 670.105 1413.53 671.171 1416.01 672.952 1418.5 674.018 1421 673.657 1433.44 668.689 1445.88 664.061 1435.92 629.925 1434.14 610.371 1439.83 596.501 1446.23 586.186 1460.1 539.259 1459.38 538.541 1459.03 537.836 1457.96 537.124 1455.83 537.478 1465.07 522.188 1517.69 493.031 1523.73 486.274 1543.99 463.871 1551.81 457.122 1580.61 440.763 1600.16 435.787 1627.18 441.831 1710.36 481.298 1721.74 483.789 1727.07 483.071 1734.18 479.874 1751.6 472.051 1754.44 469.566 1755.87 465.651 1762.26 376.758 1765.1 367.162 1775.77 362.178 1792.83 361.474 1821.98 363.958 1847.23 362.535 1872.11 357.914 1995.11 278.624 2010.4 271.157 2078.29 254.804 2091.8 249.117 2104.24 241.286 2104.6 240.937 2177.84 176.576 2197.03 157.732 2207.34 149.908 2219.42 146.705Z" fill-rule="evenodd"/></g></svg>