<?xml version="1.0" standalone="no"?>
<!DOCTYPE svg PUBLIC "-//W3C//DTD SVG 20010904//EN"
 "http://www.w3.org/TR/2001/REC-SVG-20010904/DTD/svg10.dtd">
<svg version="1.0" xmlns="http://www.w3.org/2000/svg"
 width="396.000000pt" height="337.000000pt" viewBox="0 0 396.000000 337.000000"
 preserveAspectRatio="xMidYMid meet">

<g transform="translate(0.000000,337.000000) scale(0.100000,-0.100000)"
fill="#000000" stroke="none">
<path d="M1863 3351 c-46 -4 -87 -11 -93 -17 -15 -15 -24 -144 -12 -175 10
-25 14 -26 114 -32 130 -7 195 -23 203 -49 10 -29 -5 -97 -34 -163 -36 -78
-92 -128 -260 -230 -214 -130 -254 -183 -286 -379 -16 -100 -20 -272 -6 -280
4 -3 25 22 46 55 45 73 166 195 248 249 61 41 196 90 248 90 18 0 32 -6 36
-17 11 -28 -16 -154 -46 -219 -59 -126 -119 -167 -355 -244 -268 -86 -341
-125 -401 -215 -60 -91 -69 -129 -69 -300 0 -106 5 -170 17 -217 61 -246 242
-491 448 -607 31 -17 59 -31 62 -31 4 0 7 16 7 36 0 73 109 129 250 129 l75 0
0 -117 c0 -154 -2 -157 -147 -171 -142 -13 -285 2 -371 41 -75 35 -124 87
-171 187 -18 39 -41 76 -49 84 -9 7 -67 19 -129 27 -137 18 -175 35 -206 91
-26 47 -39 140 -23 163 9 13 16 13 57 -3 26 -9 49 -15 51 -13 2 2 -14 48 -35
102 -91 229 -116 357 -93 485 22 131 82 242 206 381 35 40 63 74 61 75 -3 4
-64 -15 -191 -61 -77 -27 -101 -32 -107 -22 -4 7 -12 53 -18 102 -13 113 -38
231 -56 267 -16 30 -43 35 -90 17 -15 -6 -62 -15 -103 -21 -120 -15 -137 -26
-81 -49 31 -13 31 -17 13 -66 -6 -16 112 -38 189 -36 90 3 100 -12 100 -137 0
-49 -3 -94 -6 -100 -4 -6 -89 -52 -189 -103 -157 -80 -190 -101 -243 -154
-131 -133 -147 -299 -49 -499 50 -103 164 -247 203 -257 7 -2 25 19 40 46 40
74 69 90 160 94 100 5 115 -8 120 -109 5 -84 -2 -115 -26 -122 -11 -2 -70 4
-133 13 -63 10 -154 21 -203 25 l-90 8 -205 137 c-113 75 -213 140 -221 144
-25 12 185 -188 330 -316 74 -66 162 -135 195 -155 74 -44 129 -95 161 -149
13 -22 49 -110 79 -195 85 -238 131 -289 276 -309 254 -33 791 -53 1289 -47
386 4 449 7 555 26 156 28 233 54 282 96 50 43 134 165 247 360 113 194 144
240 175 258 14 8 95 31 180 51 85 20 159 40 164 45 6 6 -24 46 -75 103 -122
136 -184 217 -254 335 -137 227 -204 477 -204 760 0 114 16 253 32 268 12 12
77 -58 148 -162 76 -108 69 -134 -51 -202 -90 -50 -94 -66 -9 -35 168 60 205
84 216 138 8 44 -13 97 -90 230 -73 125 -93 146 -143 146 -39 0 -52 20 -46 72
3 21 3 38 0 38 -3 0 -63 -71 -133 -157 -192 -237 -307 -373 -315 -373 -4 0
-11 17 -16 38 l-10 37 -17 -60 c-55 -192 -127 -380 -266 -695 -111 -251 -161
-350 -175 -350 -26 0 -87 78 -130 165 -57 114 -77 217 -77 385 1 283 82 461
298 653 63 55 114 101 114 102 0 6 -98 -20 -329 -86 -134 -39 -253 -69 -264
-67 -30 4 -40 54 -35 171 3 72 8 101 18 107 48 31 190 20 414 -31 70 -16 132
-29 137 -29 5 0 -17 37 -48 82 -90 134 -114 199 -139 390 -20 153 -4 146 -204
88 -154 -44 -175 -47 -184 -24 -3 9 -6 119 -6 245 l0 229 -82 -2 c-46 0 -120
-4 -165 -7z m1555 -2282 c166 -18 293 -57 415 -127 62 -37 85 -64 64 -79 -14
-12 -219 -53 -260 -53 -27 0 -28 1 -26 50 2 27 0 53 -4 56 -3 3 -115 -15 -249
-41 -433 -83 -409 -79 -419 -64 -5 8 -9 53 -9 102 l0 87 32 20 c78 47 277 69
456 49z m-534 -116 c7 -31 -8 -122 -24 -153 -6 -10 -26 -31 -46 -46 -32 -25
-37 -26 -60 -13 -15 7 -48 38 -75 67 -62 68 -57 79 54 133 99 48 143 51 151
12z m-384 -244 c181 -26 205 -32 205 -49 0 -10 -39 -27 -123 -52 -96 -29 -136
-46 -178 -78 -75 -56 -112 -70 -190 -70 l-67 0 7 46 c3 26 6 89 6 142 l0 95
103 -7 c56 -4 163 -16 237 -27z"/>
</g>
</svg>
