<?xml version="1.0" standalone="no"?>
<!DOCTYPE svg PUBLIC "-//W3C//DTD SVG 20010904//EN"
 "http://www.w3.org/TR/2001/REC-SVG-20010904/DTD/svg10.dtd">
<svg version="1.0" xmlns="http://www.w3.org/2000/svg"
 width="873.000000pt" height="964.000000pt" viewBox="0 0 873.000000 964.000000"
 preserveAspectRatio="xMidYMid meet">

<g transform="translate(0.000000,964.000000) scale(0.100000,-0.100000)"
fill="#000000" stroke="none">
<path d="M5166 9618 c-8 -13 -22 -48 -30 -79 -21 -84 -41 -115 -90 -144 -44
-26 -545 -198 -816 -280 -144 -43 -314 -87 -545 -140 -125 -28 -250 -67 -297
-91 -89 -46 -148 -140 -147 -234 0 -59 17 -121 35 -127 6 -2 30 26 53 61 101
156 231 218 486 231 387 19 708 69 915 142 64 22 272 21 307 -3 25 -16 26 -19
20 -89 -4 -39 -9 -79 -13 -88 -3 -9 -54 -31 -127 -55 -400 -130 -627 -257
-827 -465 -235 -245 -360 -584 -347 -942 7 -212 54 -355 168 -521 56 -81 87
-108 111 -99 8 3 41 37 72 75 90 108 272 278 376 352 156 110 378 207 485 211
l50 2 9 -160 c6 -108 5 -195 -2 -270 -14 -137 -26 -178 -55 -193 -12 -7 -101
-25 -197 -42 -247 -41 -309 -55 -445 -101 -573 -191 -942 -571 -1105 -1136
-110 -382 -113 -899 -9 -1433 54 -278 192 -738 280 -933 71 -160 163 -297 198
-297 10 0 49 25 87 55 223 178 489 326 734 408 124 42 311 87 359 87 21 0 21
-1 15 -502 -6 -618 -23 -866 -62 -905 -13 -12 -33 -14 -116 -8 -147 11 -265
38 -338 77 -35 19 -441 261 -903 539 -462 278 -851 510 -865 516 -14 6 -585
342 -1270 748 -889 526 -1249 734 -1259 728 -52 -33 -67 -156 -28 -226 20 -36
238 -240 1032 -966 411 -376 437 -411 475 -626 29 -171 61 -269 145 -440 119
-244 152 -373 200 -780 46 -391 61 -487 100 -620 52 -183 120 -308 229 -422
112 -119 241 -196 407 -242 121 -33 806 -126 1149 -156 616 -52 1258 -43 1820
25 836 103 1601 321 2357 672 330 153 359 185 447 486 123 420 224 943 233
1212 5 143 3 160 -17 213 -14 37 -40 77 -72 110 -59 62 -60 20 13 466 27 168
74 457 104 641 30 184 58 355 63 381 16 86 -1 89 -107 20 -89 -57 -962 -601
-966 -601 -1 0 -2 78 -1 173 0 94 -5 245 -12 334 -13 166 -4 360 18 419 11 27
11 27 88 20 42 -3 160 -15 262 -25 148 -16 188 -17 198 -7 10 10 6 31 -24 112
-94 260 -153 461 -175 604 -7 47 -10 140 -6 250 4 151 9 191 35 290 47 183
152 419 278 629 42 69 44 98 7 112 -111 42 -309 49 -533 20 -74 -10 -140 -16
-147 -14 -23 8 -28 114 -25 503 3 415 -5 542 -46 664 -16 48 -19 51 -54 54
-44 4 -39 19 -77 -212 -17 -99 -34 -183 -38 -187 -4 -4 -57 26 -118 67 -197
135 -309 180 -423 171 -135 -11 -208 -106 -236 -310 -7 -53 13 -57 66 -14 63
50 87 60 148 61 72 0 130 -30 373 -191 158 -104 191 -131 204 -161 13 -32 13
-53 -6 -211 -12 -97 -21 -194 -21 -216 0 -52 -18 -115 -38 -138 -9 -10 -58
-43 -108 -72 -233 -137 -482 -364 -628 -570 -331 -468 -442 -1105 -285 -1636
10 -37 26 -72 33 -79 12 -9 57 17 238 137 222 148 391 240 518 281 85 28 201
54 208 48 6 -6 -14 -686 -28 -950 l-9 -170 -55 -55 c-65 -66 -102 -141 -116
-236 -5 -39 -10 -224 -10 -411 0 -261 -3 -344 -12 -352 -31 -25 -589 -188
-943 -276 -240 -59 -661 -152 -737 -162 -58 -8 -55 -17 -63 196 -3 85 -15 373
-26 638 -11 266 -18 490 -15 498 7 19 33 18 132 -6 227 -55 466 -168 928 -440
258 -152 311 -180 322 -168 11 11 7 25 -24 86 -20 40 -73 127 -116 195 -230
353 -455 901 -536 1307 -125 622 -1 1220 346 1671 143 186 249 285 509 482 88
66 163 125 167 131 11 16 10 30 -6 51 -12 17 -76 23 -841 71 -639 40 -830 55
-841 65 -11 12 -14 73 -14 323 -1 170 3 313 7 317 5 5 35 1 68 -7 165 -43 478
-113 486 -108 16 10 9 32 -26 86 -100 150 -191 368 -221 525 -20 105 -14 284
11 378 37 137 156 335 264 440 51 49 52 68 4 88 -92 36 -142 40 -364 34 -190
-6 -220 -5 -233 9 -12 12 -16 38 -16 112 0 153 -19 379 -40 477 -23 110 -62
227 -78 233 -6 2 -18 -7 -26 -20z"/>
</g>
</svg>
