<?xml version="1.0" standalone="no"?>
<!DOCTYPE svg PUBLIC "-//W3C//DTD SVG 20010904//EN"
 "http://www.w3.org/TR/2001/REC-SVG-20010904/DTD/svg10.dtd">
<svg version="1.0" xmlns="http://www.w3.org/2000/svg"
 width="9017.000000pt" height="7102.000000pt" viewBox="0 0 9017.000000 7102.000000"
 preserveAspectRatio="xMidYMid meet">

<g transform="translate(0.000000,7102.000000) scale(0.100000,-0.100000)"
fill="#000000" stroke="none">
<path d="M43392 70660 c-129 -18 -244 -70 -289 -129 -15 -20 -55 -66 -89 -102
-42 -45 -68 -83 -83 -125 -54 -142 -52 79 -40 -3539 6 -1842 9 -3408 7 -3480
-6 -173 -14 -190 -136 -301 -95 -86 -109 -94 -302 -182 -19 -8 -63 -35 -97
-59 -34 -24 -113 -67 -176 -97 -63 -30 -144 -73 -178 -97 -35 -24 -107 -62
-161 -85 -53 -23 -135 -68 -182 -99 -47 -31 -116 -70 -153 -86 -91 -40 -136
-65 -208 -114 -33 -22 -105 -60 -160 -84 -98 -43 -119 -55 -206 -117 -24 -17
-97 -54 -161 -83 -64 -29 -143 -73 -176 -97 -32 -24 -109 -66 -172 -93 -62
-28 -149 -75 -194 -104 -44 -29 -114 -68 -154 -86 -40 -17 -106 -52 -145 -77
-40 -24 -126 -71 -192 -103 -67 -32 -144 -75 -172 -95 -28 -20 -104 -62 -170
-92 -65 -31 -139 -71 -164 -89 -54 -38 -133 -81 -241 -129 -43 -19 -106 -55
-140 -79 -35 -25 -114 -68 -176 -95 -62 -28 -141 -71 -175 -95 -35 -25 -105
-64 -156 -87 -105 -47 -145 -70 -212 -117 -25 -18 -82 -49 -125 -68 -100 -45
-162 -78 -244 -130 -36 -23 -94 -54 -130 -69 -36 -16 -108 -55 -161 -87 -53
-32 -135 -77 -183 -99 -48 -22 -130 -68 -182 -100 -52 -33 -134 -78 -183 -99
-49 -21 -118 -59 -153 -84 -35 -25 -115 -69 -178 -98 -63 -29 -143 -72 -177
-96 -33 -23 -117 -69 -186 -101 -68 -33 -151 -78 -184 -100 -33 -22 -113 -66
-177 -96 -65 -31 -144 -73 -175 -95 -32 -21 -105 -61 -162 -88 -57 -27 -137
-71 -178 -97 -41 -26 -120 -69 -176 -96 -56 -26 -130 -66 -164 -89 -34 -24
-109 -65 -167 -92 -101 -47 -210 -122 -315 -217 -62 -57 -163 -226 -185 -312
-20 -80 -15 -241 11 -313 24 -68 143 -246 193 -288 23 -20 94 -62 158 -95
l115 -59 117 1 c101 0 126 4 182 26 133 52 348 156 430 208 47 29 127 73 177
96 51 24 121 62 155 84 35 23 117 67 184 99 66 33 144 75 171 95 28 20 107 63
176 95 68 33 147 75 174 95 28 20 111 65 185 100 74 35 157 80 184 99 28 20
103 61 168 92 64 30 144 73 176 95 33 22 97 58 142 80 110 54 118 58 227 125
52 31 126 71 165 87 39 17 105 52 147 79 41 27 125 72 185 100 60 28 131 67
158 86 49 35 237 133 255 133 5 0 46 25 91 56 45 30 136 80 202 110 67 29 145
72 175 95 50 37 80 53 233 121 25 11 78 43 119 70 40 28 119 71 175 97 55 26
139 72 186 101 46 29 121 70 165 90 44 21 119 62 167 92 48 30 122 70 165 88
43 19 120 60 170 93 51 32 139 79 195 104 57 25 131 65 165 90 35 24 118 70
186 102 67 32 146 74 173 94 28 20 105 62 170 93 65 30 155 79 199 108 44 29
116 68 160 87 44 18 114 56 155 83 41 27 122 72 180 99 58 27 136 70 174 95
38 24 121 69 184 99 64 30 137 70 163 89 26 19 108 63 183 99 74 35 159 81
188 103 29 21 69 46 88 54 157 71 215 101 263 137 30 23 105 64 166 91 61 26
145 71 186 99 41 28 117 69 167 92 51 22 134 67 184 100 50 32 127 75 172 94
45 19 112 54 150 78 86 56 109 68 215 116 49 22 110 56 136 75 45 33 198 113
258 133 15 6 56 32 91 58 35 26 118 72 185 102 67 30 150 75 184 99 35 25 110
66 166 91 56 24 138 69 182 98 44 30 112 68 150 85 97 43 162 78 215 116 25
18 99 58 165 89 65 31 133 66 150 79 42 32 148 88 226 120 36 15 90 46 120 69
30 22 90 57 134 77 163 76 191 91 250 133 33 23 109 64 168 90 60 26 136 69
171 95 34 27 89 59 122 72 100 40 197 91 242 127 24 20 93 57 155 84 62 27
149 75 195 105 46 31 112 67 147 81 34 13 87 39 116 58 138 87 174 107 247
136 42 18 109 55 147 82 39 28 123 74 188 102 64 27 147 72 183 99 36 26 106
66 157 88 131 56 168 76 203 109 17 16 89 56 161 88 72 32 156 78 186 101 31
23 102 62 158 86 56 25 145 74 198 108 53 35 128 75 166 90 39 14 114 55 167
89 54 35 117 72 140 82 122 52 149 66 205 107 34 25 116 69 182 98 66 29 138
67 159 85 20 18 72 54 114 79 228 139 341 360 309 608 -24 183 -66 265 -191
373 -125 108 -160 131 -239 156 -50 15 -92 20 -171 20 -168 -1 -235 -19 -356
-97 -33 -22 -102 -57 -153 -78 -51 -21 -135 -67 -187 -101 -52 -35 -131 -77
-176 -95 -46 -17 -126 -60 -178 -95 -52 -35 -135 -79 -185 -99 -49 -20 -105
-49 -125 -64 -58 -47 -110 -76 -217 -121 -56 -24 -123 -61 -149 -83 -55 -45
-85 -62 -199 -109 -86 -35 -130 -60 -199 -113 -24 -18 -79 -48 -122 -66 -95
-38 -176 -82 -224 -121 -20 -16 -86 -51 -148 -78 -62 -27 -142 -71 -179 -97
-37 -26 -112 -67 -166 -91 -55 -24 -134 -66 -176 -95 -42 -29 -125 -73 -184
-99 -60 -27 -127 -63 -150 -82 -46 -37 -128 -80 -222 -117 -33 -13 -90 -45
-127 -71 -76 -54 -116 -76 -232 -126 -44 -18 -109 -56 -146 -83 -36 -26 -89
-58 -118 -69 -87 -34 -193 -91 -247 -132 -29 -22 -81 -51 -116 -65 -91 -37
-157 -71 -211 -110 -54 -38 -118 -71 -206 -107 -35 -15 -92 -47 -128 -72 -36
-26 -104 -65 -152 -86 -115 -52 -160 -76 -202 -109 -39 -31 -122 -74 -220
-115 -36 -15 -95 -49 -132 -77 -37 -27 -107 -67 -157 -88 -123 -54 -169 -78
-211 -111 -19 -15 -96 -58 -170 -94 -74 -37 -155 -82 -181 -100 -83 -60 -149
-67 -211 -24 -34 25 -56 91 -62 194 -3 44 -8 658 -11 1365 -16 3996 -22 4677
-40 4756 -22 95 -62 192 -99 243 -51 68 -165 175 -214 200 -86 44 -291 69
-420 51z"/>
<path d="M62405 67078 c-80 -15 -186 -48 -240 -76 -93 -46 -196 -175 -251
-310 -60 -149 -57 -67 -50 -1457 3 -698 11 -1823 16 -2500 43 -5227 75 -10966
90 -15850 5 -1754 12 -3590 15 -4080 3 -489 7 -1455 10 -2145 3 -690 10 -2018
15 -2950 5 -932 12 -2260 15 -2950 8 -1877 24 -4341 40 -6160 3 -349 10 -1260
15 -2025 25 -3558 31 -4205 40 -4279 20 -161 75 -227 205 -245 39 -6 249 -11
468 -11 439 0 427 -2 485 64 50 57 63 118 69 321 3 99 0 1179 -6 2400 -16
3180 -29 6079 -41 9210 -16 4418 -29 7562 -35 8450 -3 457 -10 1552 -15 2435
-14 2273 -28 4387 -35 5070 -20 2055 -43 5585 -55 8220 -33 7463 -39 8352 -64
8450 -20 78 -41 115 -109 193 -131 149 -135 152 -238 185 -155 50 -241 60
-344 40z"/>
<path d="M49014 63968 c-73 -11 -133 -39 -204 -96 -33 -27 -82 -58 -108 -67
-76 -28 -174 -79 -243 -127 -36 -25 -101 -59 -145 -78 -43 -18 -123 -61 -177
-96 -54 -34 -133 -77 -175 -94 -42 -18 -110 -54 -149 -81 -84 -56 -126 -78
-235 -124 -44 -19 -103 -52 -131 -74 -55 -42 -105 -69 -227 -121 -41 -18 -104
-54 -140 -80 -36 -26 -118 -71 -182 -99 -64 -29 -143 -73 -176 -97 -33 -24
-106 -65 -163 -89 -56 -25 -137 -69 -178 -97 -42 -28 -119 -70 -171 -92 -52
-23 -129 -64 -170 -90 -41 -27 -125 -72 -185 -101 -61 -28 -133 -68 -160 -87
-52 -37 -128 -78 -229 -122 -32 -14 -88 -47 -123 -72 -36 -26 -118 -70 -183
-99 -64 -29 -142 -71 -172 -93 -30 -23 -110 -67 -179 -98 -68 -31 -151 -76
-184 -99 -33 -24 -118 -70 -188 -103 -70 -34 -150 -77 -177 -97 -27 -20 -87
-52 -132 -72 -46 -20 -126 -63 -178 -96 -52 -33 -133 -77 -180 -98 -47 -20
-126 -63 -175 -95 -48 -31 -134 -77 -189 -102 -56 -24 -129 -64 -164 -89 -35
-24 -113 -67 -175 -95 -62 -28 -140 -71 -174 -95 -34 -24 -122 -72 -195 -107
-73 -34 -147 -75 -164 -89 -17 -15 -93 -56 -169 -92 -76 -36 -160 -81 -188
-101 -28 -20 -100 -60 -161 -88 -61 -29 -144 -74 -185 -100 -41 -26 -120 -69
-176 -96 -56 -26 -130 -66 -164 -89 -33 -23 -112 -66 -175 -95 -63 -30 -142
-73 -176 -96 -34 -23 -113 -66 -175 -95 -63 -30 -147 -76 -187 -103 -40 -27
-118 -69 -173 -93 -55 -24 -128 -63 -163 -86 -34 -24 -126 -74 -203 -112 -77
-38 -155 -81 -173 -95 -18 -13 -86 -51 -152 -84 -66 -32 -149 -77 -185 -100
-36 -23 -106 -61 -155 -83 -49 -23 -119 -62 -155 -86 -37 -24 -125 -71 -195
-104 -71 -34 -151 -77 -179 -97 -27 -20 -105 -62 -172 -94 -67 -32 -146 -75
-175 -94 -29 -20 -114 -67 -188 -104 -131 -66 -271 -151 -336 -204 -50 -41
-68 -88 -61 -161 8 -79 45 -181 89 -241 20 -27 70 -113 111 -192 42 -78 87
-157 101 -175 13 -17 51 -89 84 -159 33 -69 74 -147 92 -173 17 -25 47 -80 66
-123 49 -107 123 -252 145 -283 10 -14 36 -66 57 -115 57 -127 92 -200 133
-274 20 -36 56 -110 80 -165 23 -55 64 -142 91 -193 27 -51 69 -145 94 -210
25 -64 68 -164 96 -222 28 -58 72 -159 98 -225 26 -66 71 -168 98 -227 28 -59
64 -145 81 -190 36 -103 80 -213 119 -298 16 -36 51 -126 77 -200 26 -74 67
-184 91 -243 25 -60 72 -190 105 -290 34 -100 76 -218 94 -262 32 -78 48 -127
136 -405 23 -74 53 -158 65 -186 12 -28 48 -141 79 -250 31 -110 74 -251 96
-314 22 -63 69 -223 105 -355 36 -132 79 -282 95 -334 16 -52 53 -185 80 -295
28 -111 77 -300 109 -421 32 -121 75 -296 95 -390 20 -93 56 -249 80 -345 46
-185 66 -283 140 -660 25 -129 57 -286 71 -348 13 -61 42 -217 64 -345 92
-546 122 -718 140 -812 10 -55 33 -206 50 -335 17 -129 37 -282 45 -340 8 -58
26 -199 40 -315 14 -115 35 -264 45 -330 19 -117 43 -313 54 -445 3 -36 15
-159 26 -275 20 -215 23 -247 40 -445 9 -118 13 -165 30 -405 6 -77 12 -156
15 -175 7 -52 42 -509 55 -715 6 -99 13 -198 15 -220 5 -48 21 -517 35 -1010
23 -872 22 -1996 -5 -3065 -14 -532 -49 -1237 -80 -1589 -8 -91 -24 -303 -35
-471 -42 -634 -114 -1517 -135 -1670 -31 -221 -41 -305 -70 -605 -14 -139 -49
-464 -85 -785 -6 -52 -24 -189 -40 -305 -80 -566 -101 -724 -120 -895 -23
-208 -43 -342 -100 -675 -21 -126 -50 -313 -65 -415 -45 -323 -75 -510 -110
-700 -46 -248 -78 -431 -119 -695 -19 -121 -62 -360 -96 -530 -33 -171 -70
-366 -81 -435 -28 -174 -56 -318 -84 -435 -13 -55 -44 -212 -70 -350 -66 -358
-104 -550 -125 -630 -18 -68 -57 -258 -120 -580 -17 -88 -51 -239 -75 -335
-74 -297 -97 -418 -97 -511 0 -103 13 -150 53 -184 47 -39 89 -34 186 22 46
27 109 63 140 80 32 18 110 63 173 99 63 36 159 88 212 115 54 27 127 67 163
89 36 22 105 60 154 85 49 24 125 65 168 91 43 25 130 72 193 104 63 32 150
79 193 104 43 26 122 69 175 95 54 27 132 70 175 95 43 26 124 70 180 98 56
28 138 72 182 98 76 46 136 79 480 262 83 44 187 102 233 129 45 27 98 55 117
63 19 8 101 53 182 99 82 47 174 97 205 111 32 15 108 56 170 92 62 37 145 81
183 99 39 17 104 52 145 77 41 25 134 76 205 113 72 38 148 80 170 94 22 14
105 60 185 102 241 127 410 219 505 274 50 29 136 76 192 104 57 28 126 66
155 85 29 18 104 59 165 90 62 31 143 75 180 98 38 23 121 68 187 100 65 33
136 71 158 84 63 40 106 63 223 122 61 30 121 62 135 72 14 9 95 54 180 100
85 46 166 91 180 100 14 9 88 50 165 90 77 40 158 85 180 98 22 14 96 55 165
90 69 35 157 84 195 107 39 23 113 64 165 89 52 26 132 70 176 97 45 27 117
65 160 86 44 20 123 63 177 95 54 32 153 86 220 119 67 34 133 69 147 79 14
10 84 48 155 85 72 38 157 85 191 105 33 21 107 61 164 90 57 29 135 71 174
95 39 23 112 63 163 88 50 26 131 70 180 99 48 29 128 72 178 96 49 24 139 74
200 109 60 36 142 80 181 98 39 18 97 49 129 70 32 20 124 71 204 112 80 42
157 84 171 93 14 10 93 52 176 94 164 82 240 143 275 220 24 53 24 83 -2 175
-28 101 -19 199 36 388 14 49 48 194 75 323 27 129 71 323 99 430 27 107 68
297 90 421 23 125 61 307 85 405 48 195 95 427 122 599 9 61 27 162 41 225 73
347 107 527 138 721 20 119 49 281 66 360 54 256 68 339 119 699 28 195 61
411 75 480 58 293 108 625 150 990 9 74 23 173 31 220 41 232 107 732 139
1045 19 193 49 456 65 585 17 129 37 289 45 355 8 66 17 138 20 160 7 55 50
590 75 930 17 234 43 526 65 735 17 167 65 960 90 1500 25 553 50 2213 41
2795 -11 725 -25 1427 -31 1495 -3 36 -10 184 -15 330 -6 146 -12 303 -15 350
-3 47 -8 126 -11 175 -2 50 -9 140 -14 200 -5 61 -12 151 -15 200 -13 196 -44
558 -70 805 -16 158 -27 280 -50 555 -30 360 -46 515 -81 750 -49 337 -73 514
-99 735 -25 221 -60 446 -110 725 -14 77 -34 199 -45 270 -61 381 -96 580
-135 760 -40 181 -64 306 -96 495 -21 118 -80 390 -105 483 -13 51 -49 211
-79 357 -30 146 -80 353 -110 460 -30 107 -75 283 -99 390 -25 107 -61 247
-80 310 -20 63 -63 215 -96 338 -33 122 -84 297 -114 390 -30 92 -72 235 -94
317 -22 83 -67 227 -100 320 -33 94 -87 251 -120 350 -33 99 -73 218 -90 265
-17 47 -51 148 -75 225 -24 77 -64 185 -87 240 -23 55 -65 165 -93 245 -27 80
-73 199 -102 265 -28 66 -69 172 -90 235 -21 63 -60 165 -87 225 -27 61 -72
171 -100 245 -28 74 -74 185 -103 245 -29 61 -73 160 -98 221 -25 62 -70 161
-100 220 -30 60 -71 150 -92 199 -20 50 -58 131 -85 180 -26 50 -69 140 -95
200 -26 61 -74 160 -106 220 -32 61 -74 148 -94 195 -20 47 -61 126 -90 176
-30 50 -75 135 -101 189 -25 53 -65 127 -88 164 -24 36 -73 127 -109 201 -67
138 -162 282 -208 319 -35 28 -94 39 -155 29z"/>
<path d="M63759 61271 c-23 -19 -24 -23 -24 -163 1 -134 3 -151 38 -273 46
-164 56 -225 112 -662 27 -212 63 -448 90 -578 47 -233 74 -406 100 -650 28
-257 52 -410 113 -710 24 -118 52 -299 67 -440 32 -288 58 -474 86 -604 11
-53 29 -136 39 -184 18 -85 42 -258 95 -692 14 -115 37 -259 50 -320 59 -276
88 -455 125 -795 24 -215 54 -410 81 -530 38 -164 60 -286 80 -450 11 -91 29
-241 40 -335 24 -197 47 -336 83 -490 29 -125 56 -307 86 -575 31 -281 47
-382 105 -675 30 -148 63 -353 75 -455 52 -466 59 -508 134 -865 14 -66 42
-257 61 -425 45 -389 59 -480 100 -670 43 -198 69 -358 95 -590 31 -281 58
-457 100 -660 47 -229 62 -325 100 -660 34 -293 60 -463 89 -578 37 -144 61
-297 96 -607 43 -380 47 -411 90 -606 45 -203 68 -352 100 -634 33 -291 57
-448 100 -650 47 -218 61 -308 85 -535 32 -301 66 -521 104 -687 44 -191 48
-212 91 -588 36 -310 56 -438 95 -615 30 -139 57 -303 80 -495 51 -424 72
-570 101 -705 61 -293 79 -401 109 -675 39 -349 53 -448 90 -605 43 -188 56
-264 85 -510 46 -399 56 -471 100 -685 56 -270 78 -415 110 -710 28 -254 50
-390 114 -705 24 -121 49 -290 66 -445 35 -332 57 -483 99 -656 43 -183 60
-288 91 -574 37 -339 52 -443 90 -616 40 -180 79 -414 95 -574 24 -232 62
-505 85 -615 13 -63 35 -171 49 -238 15 -68 42 -259 61 -425 47 -405 61 -501
95 -642 41 -166 64 -312 94 -580 39 -347 54 -443 96 -645 58 -279 67 -332 100
-627 34 -311 52 -438 81 -573 66 -310 81 -398 104 -615 35 -328 61 -507 95
-655 55 -242 65 -302 105 -670 33 -299 50 -406 91 -585 71 -308 115 -399 224
-462 92 -53 165 -89 301 -148 81 -35 183 -82 226 -104 44 -21 156 -73 249
-114 93 -41 207 -93 254 -115 47 -22 110 -51 140 -65 30 -13 123 -56 205 -94
83 -39 200 -92 260 -118 61 -26 151 -68 200 -93 50 -25 144 -69 210 -97 66
-29 235 -106 375 -170 218 -100 420 -192 495 -225 11 -5 92 -42 181 -84 88
-41 201 -93 250 -114 49 -22 134 -61 189 -87 55 -25 143 -65 195 -87 52 -22
138 -62 190 -88 52 -26 140 -67 195 -90 55 -23 143 -64 195 -90 52 -26 145
-69 205 -95 61 -26 161 -72 224 -102 62 -29 155 -71 207 -93 51 -22 142 -63
201 -91 59 -28 153 -71 208 -96 55 -25 161 -73 235 -108 135 -64 351 -162 615
-279 77 -35 176 -81 220 -103 44 -22 148 -70 230 -106 83 -36 182 -81 220
-100 39 -19 120 -56 180 -82 61 -26 141 -63 178 -82 38 -19 117 -55 175 -80
59 -25 186 -82 282 -128 96 -46 203 -95 238 -109 35 -15 100 -44 145 -66 45
-22 156 -73 247 -113 280 -126 532 -242 588 -271 29 -15 124 -58 210 -95 86
-38 200 -89 252 -114 152 -72 579 -268 644 -294 33 -13 109 -48 170 -78 127
-60 174 -82 266 -120 36 -15 105 -47 154 -72 48 -24 136 -65 194 -90 58 -24
142 -63 186 -85 45 -23 155 -73 246 -113 246 -109 530 -240 760 -353 170 -83
216 -111 271 -161 102 -93 111 -144 33 -177 -30 -13 -1329 -14 -9788 -14
-6779 0 -9777 -3 -9832 -10 -168 -23 -278 -74 -384 -179 -65 -65 -134 -172
-174 -271 -24 -60 -32 -191 -16 -273 14 -79 73 -187 155 -288 121 -147 253
-212 465 -227 79 -6 18462 -9 19125 -3 116 1 1965 -1 4110 -4 2708 -4 3935 -2
4014 5 129 12 202 34 293 87 118 69 149 112 264 363 37 80 39 89 38 180 l-1
95 -71 148 c-57 118 -82 158 -123 198 -66 64 -166 122 -259 151 l-75 23 -3485
2 c-2620 1 -3499 5 -3540 14 -105 22 -127 45 -204 211 -24 53 -58 117 -75 142
-35 51 -38 57 -97 225 -24 68 -59 147 -77 175 -50 76 -72 122 -107 227 -30 88
-50 130 -129 271 -18 31 -47 103 -66 158 -31 92 -54 138 -130 265 -14 22 -37
76 -51 120 -40 121 -64 174 -111 245 -25 39 -59 113 -84 185 -46 134 -54 151
-109 236 -21 33 -53 104 -71 157 -34 104 -78 201 -134 297 -19 33 -49 103 -66
155 -34 101 -65 169 -123 264 -19 32 -53 113 -76 180 -22 66 -56 146 -75 176
-59 95 -74 127 -120 256 -29 84 -59 149 -89 193 -29 43 -59 106 -85 182 -43
126 -68 180 -112 246 -33 47 -36 56 -90 208 -21 60 -61 145 -87 190 -56 94
-63 108 -109 240 -19 55 -59 141 -89 191 -30 51 -70 136 -88 190 -43 126 -50
143 -106 234 -27 43 -65 128 -89 200 -24 69 -51 139 -61 155 -9 17 -34 56 -53
89 -20 32 -54 113 -77 181 -24 73 -59 151 -86 196 -51 82 -50 80 -104 232 -22
60 -64 151 -94 202 -30 52 -73 147 -97 215 -26 74 -64 158 -98 213 -30 50 -72
139 -93 199 -44 125 -57 154 -105 225 -19 28 -57 112 -83 187 -43 122 -60 157
-123 257 -10 15 -40 90 -67 165 -28 78 -67 163 -90 200 -40 60 -63 114 -125
287 -15 42 -45 104 -66 137 -43 66 -74 137 -109 245 -27 82 -59 148 -106 219
-19 29 -51 103 -72 166 -42 123 -64 171 -117 254 -19 30 -52 105 -73 167 -51
145 -59 164 -98 219 -44 63 -57 91 -94 205 -37 112 -57 156 -107 231 -19 28
-52 101 -73 160 -51 146 -69 186 -123 273 -26 41 -61 117 -78 170 -36 108 -71
182 -122 258 -19 29 -52 103 -72 165 -42 125 -61 167 -111 243 -19 28 -54 111
-79 184 -31 89 -62 159 -95 210 -32 51 -64 121 -95 211 -28 84 -65 167 -97
220 -30 49 -69 137 -94 209 -27 78 -64 159 -100 218 -31 51 -69 130 -84 175
-42 125 -60 168 -96 225 -50 79 -69 120 -107 230 -40 114 -60 156 -109 228
-18 28 -53 107 -77 177 -23 70 -58 151 -76 180 -61 95 -77 131 -117 248 -23
70 -58 147 -89 198 -30 49 -70 137 -99 217 -27 77 -70 170 -99 218 -29 49 -68
135 -92 203 -45 131 -53 149 -109 235 -21 33 -55 110 -76 172 -41 124 -72 191
-116 253 -16 23 -49 98 -74 168 -48 140 -58 160 -113 246 -22 33 -58 115 -82
187 -26 75 -63 159 -92 206 -45 75 -85 161 -102 217 -18 62 -61 159 -91 207
-50 79 -72 125 -108 231 -36 108 -53 143 -103 218 -18 27 -55 112 -82 187 -27
76 -59 152 -70 170 -62 100 -83 144 -120 254 -25 75 -61 156 -92 208 -30 51
-70 138 -95 213 -25 70 -60 152 -78 182 -51 83 -81 147 -111 235 -29 84 -87
210 -109 235 -22 25 -45 76 -82 182 -39 112 -67 171 -119 252 -19 30 -53 109
-76 176 -23 67 -63 156 -88 198 -53 87 -77 141 -115 258 -15 45 -41 103 -58
130 -46 72 -92 170 -118 249 -25 78 -54 138 -111 235 -21 36 -54 112 -74 169
-39 113 -68 174 -122 262 -19 31 -54 113 -78 181 -46 134 -65 176 -99 223 -24
32 -71 141 -105 245 -12 36 -35 88 -51 115 -64 111 -91 167 -126 269 -20 59
-52 132 -71 164 -54 89 -78 139 -118 251 -36 101 -68 167 -107 223 -21 30 -62
126 -102 241 -16 42 -49 112 -75 155 -26 43 -60 111 -75 152 -62 169 -80 208
-121 275 -24 39 -64 129 -90 200 -25 72 -65 162 -89 200 -46 76 -63 116 -107
245 -16 47 -56 132 -88 190 -33 58 -75 151 -94 207 -38 107 -64 163 -121 257
-19 32 -45 88 -57 125 -40 122 -77 208 -117 269 -21 33 -60 118 -86 188 -27
71 -68 163 -92 204 -52 91 -83 160 -118 266 -15 44 -47 114 -73 155 -25 41
-67 132 -94 203 -26 71 -70 167 -97 215 -27 47 -61 115 -74 151 -14 36 -37 97
-51 135 -15 39 -49 108 -76 154 -27 46 -54 96 -60 110 -5 14 -26 71 -46 127
-20 55 -58 138 -85 183 -26 46 -65 131 -85 189 -45 131 -69 184 -107 240 -16
24 -54 108 -84 189 -30 80 -69 171 -88 202 -47 78 -73 132 -92 188 -30 91 -67
178 -92 218 -42 66 -80 148 -117 252 -20 54 -61 143 -93 198 -31 55 -71 140
-88 190 -44 125 -66 173 -112 247 -22 34 -61 121 -87 192 -26 71 -67 163 -92
204 -25 41 -68 136 -95 211 -27 75 -66 163 -86 196 -48 78 -66 119 -109 240
-19 55 -59 143 -89 196 -30 52 -68 133 -84 180 -44 121 -58 154 -112 250 -26
47 -70 146 -98 220 -28 74 -66 159 -84 189 -50 83 -63 111 -107 232 -22 61
-56 139 -77 172 -47 77 -65 117 -109 236 -19 52 -61 145 -93 205 -32 61 -76
158 -98 217 -22 59 -65 152 -96 207 -32 55 -73 143 -92 196 -37 103 -74 185
-116 250 -14 22 -44 90 -66 150 -56 153 -69 181 -113 256 -21 36 -59 121 -84
188 -24 68 -61 153 -81 190 -57 102 -71 132 -109 238 -20 54 -62 146 -94 204
-33 59 -76 153 -96 210 -21 57 -51 129 -68 159 -76 137 -97 181 -125 262 -30
83 -63 154 -131 283 -17 33 -49 107 -71 165 -22 58 -60 139 -85 181 -25 42
-65 131 -90 197 -46 127 -72 183 -111 242 -13 19 -48 99 -78 178 -30 78 -74
177 -98 220 -52 91 -61 110 -100 222 -30 85 -76 183 -107 230 -22 33 -52 102
-100 233 -22 60 -58 136 -79 170 -43 71 -58 103 -107 241 -19 54 -52 126 -72
160 -47 75 -61 106 -108 234 -20 56 -60 141 -87 189 -28 48 -72 146 -98 216
-27 70 -71 165 -98 210 -29 48 -67 131 -90 198 -53 152 -69 183 -134 249 -29
31 -70 87 -90 126 -48 92 -58 100 -89 75z"/>
<path d="M32599 58332 c-112 -32 -191 -75 -265 -145 -85 -80 -135 -169 -171
-304 -26 -96 -26 -107 -34 -538 -4 -242 -8 -7683 -8 -16536 -1 -13707 -3
-16102 -15 -16141 -20 -69 -53 -108 -112 -135 -41 -19 -62 -22 -91 -17 -46 8
-199 62 -393 139 -80 31 -210 81 -290 110 -80 29 -202 76 -272 104 -69 28
-191 73 -270 100 -78 27 -169 61 -200 75 -32 14 -127 50 -211 80 -84 30 -243
89 -353 131 -109 43 -235 90 -279 105 -44 15 -127 47 -185 70 -58 23 -172 66
-255 95 -82 29 -213 78 -290 108 -77 31 -192 74 -255 97 -63 23 -169 63 -235
90 -66 26 -172 66 -235 88 -63 22 -169 61 -235 87 -66 26 -199 75 -295 110
-96 35 -218 81 -270 103 -52 21 -138 54 -190 72 -52 18 -185 67 -295 110 -110
42 -225 85 -255 95 -30 10 -109 39 -175 65 -127 51 -179 70 -395 149 -74 27
-164 62 -200 77 -36 15 -148 57 -250 94 -325 119 -612 226 -720 270 -58 23
-172 66 -255 95 -82 29 -206 76 -275 103 -69 28 -183 71 -255 96 -71 26 -186
69 -255 96 -69 27 -177 68 -240 90 -63 23 -182 67 -265 100 -82 32 -206 79
-275 104 -69 24 -201 74 -295 109 -267 102 -455 173 -655 246 -102 38 -246 93
-320 123 -74 30 -191 74 -260 98 -69 23 -163 59 -210 78 -47 19 -157 61 -245
93 -199 72 -570 211 -775 291 -85 33 -211 79 -280 103 -69 23 -186 67 -260 98
-74 30 -189 74 -255 97 -66 23 -183 67 -260 97 -77 31 -183 70 -235 88 -52 18
-140 51 -195 73 -55 23 -174 68 -265 100 -91 33 -239 89 -330 125 -91 35 -190
72 -220 82 -30 10 -134 49 -230 87 -96 39 -229 88 -295 110 -66 22 -160 57
-210 78 -49 22 -175 70 -280 108 -221 81 -490 182 -765 287 -108 41 -227 85
-265 98 -39 14 -134 50 -212 81 -79 31 -198 76 -265 100 -68 24 -197 73 -288
109 -91 35 -183 70 -205 77 -22 7 -123 45 -225 85 -102 40 -243 93 -315 118
-71 25 -175 64 -230 87 -55 23 -156 62 -225 86 -69 25 -172 63 -230 85 -58 22
-181 69 -275 103 -93 35 -215 81 -270 103 -55 22 -161 61 -235 88 -74 26 -183
67 -241 91 -58 24 -193 75 -300 113 -107 38 -228 84 -269 101 -41 17 -127 49
-190 72 -63 22 -180 66 -260 98 -258 103 -359 131 -491 137 -102 5 -125 3
-190 -17 -41 -12 -91 -31 -113 -42 -52 -27 -205 -159 -235 -204 -72 -105 -102
-360 -62 -529 32 -133 59 -181 149 -262 42 -38 93 -81 113 -96 43 -32 318
-149 509 -216 74 -27 182 -67 240 -90 58 -24 186 -72 285 -107 99 -36 209 -78
245 -94 36 -16 117 -47 180 -68 143 -50 347 -127 419 -158 29 -13 57 -24 62
-24 5 0 93 -32 196 -71 104 -39 274 -102 378 -141 105 -38 232 -87 283 -109
51 -22 139 -55 197 -74 57 -19 168 -60 247 -91 79 -31 215 -82 303 -114 88
-31 230 -85 315 -118 85 -34 211 -81 280 -106 69 -24 161 -60 205 -79 44 -18
118 -46 165 -62 47 -15 157 -56 245 -90 88 -35 243 -93 345 -130 102 -37 196
-73 210 -80 14 -7 104 -41 200 -75 96 -34 247 -90 335 -125 88 -35 196 -75
240 -90 44 -15 159 -58 255 -95 96 -38 239 -91 317 -119 77 -28 163 -60 190
-72 26 -11 134 -51 238 -89 105 -37 224 -83 265 -100 41 -18 140 -56 220 -85
80 -29 199 -74 265 -100 66 -26 188 -71 270 -100 83 -29 206 -75 275 -103 69
-27 161 -62 205 -77 44 -15 136 -50 205 -77 69 -28 215 -83 325 -123 295 -107
680 -252 760 -285 39 -16 153 -59 255 -96 102 -36 223 -82 270 -101 47 -19
139 -54 205 -78 66 -23 170 -62 230 -85 189 -72 237 -91 335 -125 52 -19 140
-52 195 -75 55 -23 163 -64 240 -91 77 -28 208 -77 290 -109 83 -33 242 -93
355 -134 113 -41 320 -118 460 -172 140 -53 316 -119 390 -146 74 -27 194 -72
265 -100 72 -27 202 -76 290 -107 88 -32 230 -86 315 -119 85 -33 178 -68 205
-77 28 -9 122 -45 210 -80 88 -35 239 -91 335 -125 96 -34 222 -81 280 -105
58 -23 134 -53 170 -65 71 -24 428 -159 720 -272 101 -39 245 -92 320 -118 74
-26 200 -73 280 -105 80 -31 199 -76 265 -100 66 -24 192 -71 280 -105 88 -34
214 -81 280 -105 66 -23 185 -68 265 -98 197 -76 454 -173 695 -262 110 -40
229 -85 265 -100 35 -15 125 -48 200 -75 74 -26 193 -71 264 -99 71 -29 199
-77 285 -107 86 -30 203 -75 261 -99 58 -24 177 -69 265 -100 88 -31 216 -78
285 -105 184 -72 453 -173 635 -239 291 -106 340 -133 410 -229 71 -96 66 92
66 -2367 0 -1264 4 -2270 9 -2335 5 -63 15 -132 22 -152 24 -68 72 -124 129
-151 l54 -25 410 8 c355 6 417 10 460 25 109 39 150 95 166 228 6 54 8 6926 7
19802 l-3 19720 -22 86 c-30 122 -41 142 -126 250 -90 112 -119 134 -253 184
-87 33 -112 38 -204 42 -80 2 -121 -1 -171 -15z"/>
<path d="M31142 53213 c-25 -10 -215 -240 -264 -321 -28 -45 -75 -108 -103
-140 -29 -31 -69 -84 -90 -116 -21 -33 -55 -78 -75 -100 -21 -23 -66 -84 -100
-136 -35 -52 -86 -124 -115 -160 -28 -36 -71 -94 -95 -130 -24 -36 -62 -86
-86 -112 -24 -25 -60 -72 -80 -105 -20 -32 -61 -87 -89 -123 -29 -36 -83 -110
-121 -165 -37 -55 -83 -117 -101 -138 -19 -22 -57 -73 -84 -115 -27 -42 -70
-97 -94 -123 -24 -26 -63 -78 -88 -115 -24 -38 -63 -91 -86 -118 -24 -27 -75
-97 -113 -155 -39 -58 -89 -126 -110 -151 -22 -24 -60 -76 -86 -115 -26 -38
-68 -93 -93 -121 -25 -28 -67 -83 -92 -122 -26 -39 -68 -100 -95 -134 -27 -35
-73 -99 -102 -143 -29 -44 -77 -107 -105 -140 -29 -33 -69 -86 -89 -118 -20
-33 -56 -80 -80 -105 -24 -26 -68 -86 -100 -134 -31 -47 -76 -110 -99 -140
-24 -29 -67 -87 -95 -129 -28 -43 -74 -103 -102 -135 -28 -32 -72 -89 -97
-128 -25 -38 -62 -88 -83 -110 -21 -23 -59 -75 -86 -116 -26 -41 -71 -104 -99
-140 -29 -36 -76 -101 -105 -145 -29 -44 -72 -100 -95 -125 -22 -25 -65 -81
-95 -125 -29 -44 -69 -98 -89 -120 -20 -22 -59 -74 -85 -115 -27 -41 -86 -122
-130 -180 -45 -58 -95 -125 -110 -149 -16 -25 -48 -65 -71 -90 -23 -26 -62
-78 -88 -118 -25 -39 -61 -88 -80 -110 -19 -21 -66 -86 -105 -144 -39 -58 -90
-128 -113 -155 -23 -27 -63 -80 -88 -119 -24 -38 -68 -94 -96 -125 -28 -30
-65 -80 -83 -111 -17 -31 -49 -76 -70 -100 -22 -24 -76 -98 -122 -164 -45 -66
-97 -136 -115 -155 -18 -19 -60 -75 -93 -125 -33 -49 -74 -103 -92 -120 -17
-16 -48 -57 -67 -90 -20 -33 -66 -98 -103 -145 -37 -47 -90 -120 -119 -163
-28 -42 -72 -100 -97 -129 -25 -28 -66 -82 -91 -121 -24 -38 -64 -90 -87 -116
-24 -25 -64 -80 -91 -121 -26 -41 -71 -104 -99 -140 -29 -36 -80 -105 -113
-155 -33 -49 -73 -101 -88 -115 -15 -14 -52 -63 -82 -108 -30 -46 -71 -103
-92 -125 -21 -23 -62 -78 -91 -122 -30 -44 -77 -109 -106 -145 -28 -36 -79
-105 -112 -155 -33 -49 -72 -101 -87 -115 -15 -14 -52 -63 -82 -110 -31 -47
-72 -103 -92 -125 -20 -22 -61 -76 -90 -120 -29 -44 -77 -110 -107 -146 -29
-36 -74 -99 -100 -140 -26 -41 -69 -96 -95 -124 -25 -27 -63 -77 -84 -110 -21
-33 -59 -85 -84 -115 -26 -30 -80 -104 -120 -164 -40 -60 -86 -123 -102 -140
-16 -17 -55 -69 -85 -116 -31 -47 -78 -107 -104 -135 -26 -27 -63 -77 -83
-110 -20 -33 -56 -84 -82 -114 -25 -29 -76 -99 -112 -155 -37 -55 -86 -121
-109 -146 -23 -25 -63 -79 -89 -120 -26 -41 -68 -97 -95 -125 -26 -27 -63 -77
-83 -111 -20 -33 -54 -80 -75 -105 -21 -24 -74 -96 -116 -159 -43 -63 -95
-133 -116 -155 -21 -22 -58 -71 -82 -110 -25 -38 -65 -92 -90 -120 -25 -27
-62 -77 -83 -110 -20 -33 -61 -89 -90 -125 -29 -36 -81 -108 -115 -160 -35
-52 -86 -120 -115 -151 -28 -31 -66 -81 -82 -111 -17 -30 -53 -79 -80 -109
-28 -30 -67 -81 -88 -114 -21 -33 -72 -105 -115 -160 -42 -55 -94 -127 -115
-160 -21 -33 -61 -86 -90 -117 -29 -31 -67 -81 -83 -110 -17 -29 -49 -73 -72
-98 -23 -25 -66 -83 -97 -130 -30 -47 -86 -123 -123 -170 -37 -47 -84 -112
-104 -145 -21 -33 -59 -82 -86 -110 -26 -27 -65 -79 -86 -114 -21 -35 -57 -85
-80 -110 -23 -25 -71 -91 -107 -146 -36 -55 -87 -125 -113 -155 -26 -30 -67
-86 -92 -125 -24 -38 -63 -90 -87 -115 -24 -25 -60 -72 -80 -105 -21 -33 -59
-85 -85 -115 -25 -30 -83 -109 -127 -175 -44 -66 -91 -129 -103 -140 -13 -11
-48 -58 -78 -105 -30 -47 -76 -107 -102 -135 -26 -27 -62 -75 -80 -105 -18
-30 -56 -84 -85 -120 -29 -36 -81 -108 -115 -160 -35 -52 -87 -120 -115 -151
-28 -31 -66 -81 -82 -111 -17 -30 -53 -79 -80 -109 -27 -30 -70 -85 -95 -124
-24 -38 -71 -104 -104 -145 -33 -41 -80 -106 -104 -145 -24 -38 -69 -97 -100
-131 -31 -33 -70 -85 -87 -115 -17 -30 -53 -79 -80 -109 -27 -30 -75 -94 -106
-142 -30 -48 -82 -120 -115 -160 -32 -40 -74 -98 -92 -128 -19 -30 -59 -82
-90 -115 -31 -33 -71 -86 -88 -117 -18 -31 -52 -78 -76 -105 -24 -27 -75 -96
-114 -153 -38 -58 -90 -130 -116 -160 -27 -30 -62 -79 -78 -108 -17 -29 -58
-84 -92 -121 -34 -37 -77 -92 -94 -123 -18 -31 -52 -78 -76 -105 -23 -26 -73
-94 -110 -151 -37 -56 -92 -130 -122 -165 -30 -34 -69 -87 -86 -117 -17 -30
-54 -79 -83 -110 -29 -30 -70 -83 -90 -118 -20 -35 -56 -85 -79 -111 -24 -27
-74 -95 -111 -152 -37 -57 -87 -125 -110 -150 -24 -25 -68 -84 -98 -130 -31
-46 -72 -100 -92 -119 -20 -19 -54 -64 -75 -100 -21 -36 -62 -94 -91 -129 -28
-36 -79 -106 -112 -155 -33 -50 -84 -116 -112 -147 -28 -31 -66 -81 -82 -111
-17 -30 -53 -79 -80 -109 -71 -78 -198 -268 -222 -334 -43 -116 -24 -177 71
-223 78 -38 297 -124 483 -190 77 -27 185 -68 240 -90 55 -22 136 -52 180 -67
44 -15 154 -56 245 -92 91 -36 246 -94 345 -130 99 -35 218 -79 265 -98 113
-45 505 -192 706 -265 88 -32 200 -75 250 -95 49 -21 158 -62 242 -91 84 -30
208 -76 275 -104 67 -27 203 -78 302 -114 212 -76 509 -187 687 -257 70 -27
210 -79 310 -115 101 -36 221 -81 268 -101 47 -19 155 -60 240 -90 85 -30 227
-83 315 -117 88 -34 201 -77 250 -95 50 -18 142 -53 205 -78 63 -25 167 -63
230 -85 63 -22 169 -61 235 -88 66 -27 203 -79 305 -115 101 -37 218 -80 260
-97 41 -17 152 -59 245 -94 94 -34 238 -88 320 -119 83 -30 206 -76 275 -101
69 -25 134 -51 145 -57 11 -6 121 -47 245 -93 252 -92 336 -123 1135 -424 105
-40 285 -107 400 -150 116 -43 257 -97 315 -119 58 -22 184 -69 280 -104 201
-74 428 -159 580 -218 58 -23 184 -70 280 -106 96 -35 231 -86 300 -113 69
-27 181 -69 250 -93 69 -24 177 -65 240 -90 63 -25 178 -68 256 -95 77 -28
203 -75 280 -106 76 -30 204 -78 284 -106 80 -28 188 -69 240 -90 52 -21 140
-54 195 -73 55 -20 143 -52 195 -72 52 -20 181 -68 285 -106 105 -39 269 -101
365 -139 96 -37 222 -85 280 -105 58 -20 179 -66 270 -100 91 -35 206 -78 255
-95 50 -18 126 -47 170 -66 44 -18 166 -63 270 -99 105 -37 226 -83 270 -102
138 -63 271 -88 327 -62 38 17 67 71 83 153 13 68 15 1713 15 13627 0 10079
-3 13561 -11 13594 -19 77 -74 119 -127 98z"/>
<path d="M53363 33158 c-40 -4 -108 -19 -150 -33 -73 -25 -427 -205 -558 -285
-33 -20 -111 -62 -173 -93 -62 -31 -138 -73 -170 -93 -31 -21 -97 -56 -147
-79 -49 -23 -142 -73 -204 -110 -63 -36 -153 -86 -200 -109 -48 -24 -111 -59
-141 -78 -30 -19 -111 -63 -180 -98 -69 -35 -143 -75 -165 -90 -22 -15 -101
-58 -175 -95 -74 -37 -158 -82 -186 -100 -28 -18 -93 -54 -145 -80 -52 -26
-134 -71 -184 -100 -49 -29 -132 -73 -182 -99 -51 -25 -122 -64 -158 -86 -36
-22 -130 -72 -208 -111 -78 -40 -166 -87 -195 -105 -29 -19 -98 -57 -155 -85
-56 -29 -126 -67 -155 -85 -29 -19 -103 -59 -164 -90 -61 -31 -143 -75 -182
-99 -39 -23 -112 -63 -163 -88 -50 -26 -129 -68 -175 -95 -45 -27 -141 -79
-213 -117 -71 -37 -142 -76 -158 -87 -15 -11 -89 -51 -165 -90 -75 -39 -161
-86 -190 -104 -29 -19 -103 -59 -164 -90 -61 -30 -158 -83 -215 -116 -57 -33
-130 -71 -161 -86 -31 -14 -106 -55 -167 -90 -60 -35 -150 -84 -199 -109 -49
-25 -108 -57 -130 -71 -23 -15 -106 -61 -186 -103 -80 -41 -187 -99 -237 -127
-51 -29 -135 -75 -185 -104 -51 -28 -163 -88 -248 -133 -85 -44 -175 -93 -199
-109 -24 -15 -96 -54 -160 -86 -64 -32 -159 -83 -211 -115 -52 -31 -133 -75
-180 -98 -47 -22 -116 -60 -155 -82 -38 -23 -128 -72 -200 -109 -71 -38 -141
-76 -155 -86 -14 -9 -83 -47 -155 -85 -71 -38 -148 -80 -170 -93 -22 -14 -104
-58 -182 -98 -78 -40 -170 -91 -205 -112 -35 -21 -94 -53 -133 -71 -38 -18
-118 -62 -177 -97 -59 -35 -154 -87 -210 -115 -57 -28 -135 -71 -174 -94 -39
-24 -122 -69 -185 -100 -63 -32 -125 -65 -139 -75 -14 -10 -88 -51 -165 -90
-77 -40 -167 -90 -200 -110 -33 -20 -103 -59 -155 -85 -52 -27 -131 -70 -175
-96 -44 -25 -127 -70 -185 -99 -58 -30 -129 -69 -158 -87 -29 -18 -103 -58
-164 -89 -61 -31 -146 -77 -187 -102 -42 -25 -129 -72 -193 -104 -64 -32 -141
-73 -170 -91 -29 -19 -100 -58 -158 -87 -58 -29 -145 -76 -195 -105 -49 -29
-137 -77 -195 -106 -58 -29 -127 -66 -155 -84 -27 -17 -113 -64 -190 -105 -77
-40 -167 -90 -200 -110 -34 -21 -82 -46 -107 -58 -26 -11 -109 -56 -185 -100
-76 -44 -176 -99 -223 -122 -47 -23 -125 -66 -175 -95 -49 -29 -126 -70 -170
-92 -44 -21 -120 -63 -169 -91 -48 -29 -138 -78 -199 -108 -60 -31 -128 -67
-149 -80 -21 -13 -104 -60 -186 -103 -195 -104 -351 -189 -497 -271 -66 -38
-157 -86 -202 -109 -45 -22 -117 -61 -160 -87 -43 -25 -117 -66 -165 -90 -47
-24 -122 -64 -165 -90 -43 -25 -126 -70 -184 -100 -59 -29 -144 -75 -190 -102
-46 -27 -120 -68 -165 -91 -45 -23 -105 -62 -135 -87 -154 -128 -158 -133
-203 -227 -71 -148 -80 -179 -80 -297 0 -97 3 -112 36 -197 19 -50 47 -111 61
-135 83 -140 234 -246 407 -284 64 -15 87 -15 156 -6 128 19 330 96 452 173
35 22 116 67 180 101 64 33 149 80 188 103 39 24 121 68 182 99 61 31 141 74
177 96 36 22 105 60 154 85 49 24 125 65 168 91 43 25 128 71 188 101 61 31
134 71 163 89 29 19 97 56 151 84 55 27 137 72 184 99 47 28 139 78 206 111
67 33 150 78 186 100 36 22 107 61 158 86 50 26 133 70 182 99 50 29 142 80
205 112 63 33 139 74 168 91 29 18 105 59 170 93 64 34 140 76 167 93 28 18
81 47 119 65 37 18 125 65 195 106 69 40 164 92 211 115 47 23 126 67 177 97
51 29 123 68 160 85 37 18 118 61 178 96 61 35 150 84 199 109 49 25 106 55
125 67 20 13 92 52 161 87 69 35 159 87 200 115 130 87 287 87 329 0 38 -80
36 62 51 -3871 7 -1573 15 -3058 19 -3300 6 -414 8 -443 27 -485 27 -60 88
-112 160 -140 57 -22 69 -22 459 -23 364 0 403 2 435 18 66 33 118 84 147 143
l28 57 -2 1545 c-2 1640 -21 6195 -27 6490 -5 287 10 356 103 462 56 63 118
107 231 164 52 26 123 65 157 86 35 21 123 69 197 107 74 38 151 80 172 93 22
14 98 55 169 93 72 37 148 79 170 93 22 14 96 55 165 90 69 36 149 80 177 98
29 18 106 60 171 92 65 32 152 80 194 105 42 26 121 68 175 95 54 27 142 74
197 106 54 31 135 75 180 98 44 22 113 60 152 83 39 24 121 68 182 99 61 31
135 71 164 90 29 18 108 61 175 95 67 33 146 76 175 95 29 18 98 56 153 84 55
27 135 71 178 96 43 26 122 69 175 95 54 27 132 70 175 95 43 26 124 70 180
98 56 28 134 69 172 93 39 23 127 72 197 108 70 36 144 77 165 90 21 13 101
57 178 97 77 40 151 81 165 90 14 9 93 52 175 95 83 42 168 90 190 105 22 15
99 57 171 93 72 36 156 81 186 101 30 19 97 55 149 80 52 25 136 70 188 101
51 31 142 80 202 110 60 29 121 62 136 73 16 11 100 58 188 105 306 162 440
235 505 275 36 22 112 63 170 93 58 29 137 72 175 95 39 23 111 62 162 87 50
26 127 67 170 93 43 25 126 70 184 100 59 29 149 79 200 110 52 31 127 72 167
91 40 18 114 57 165 87 51 29 150 84 222 120 71 37 137 73 145 80 8 7 69 41
135 76 292 151 382 209 490 315 91 89 105 108 133 177 75 180 80 296 22 471
-40 120 -77 172 -182 260 -98 82 -148 109 -243 130 -95 22 -128 24 -212 15z"/>
<path d="M951 20289 c-63 -11 -141 -47 -241 -114 -82 -55 -119 -109 -200 -299
-57 -131 -68 -188 -51 -265 13 -60 121 -301 157 -348 33 -44 206 -161 271
-184 29 -10 87 -23 129 -28 91 -13 23461 -14 23591 -1 153 15 254 63 400 189
61 52 79 76 113 144 88 182 92 405 10 572 -37 76 -151 200 -222 243 -30 18
-94 47 -144 65 l-89 32 -11835 1 c-7016 1 -11857 -2 -11889 -7z"/>
<path d="M61290 19159 c-65 -27 -184 -171 -270 -328 -35 -63 -84 -139 -108
-170 -25 -30 -65 -90 -89 -133 -23 -43 -71 -117 -106 -165 -34 -49 -81 -119
-104 -158 -23 -38 -58 -88 -78 -110 -20 -22 -61 -78 -92 -125 -30 -47 -65 -96
-78 -110 -13 -14 -63 -81 -111 -150 -48 -69 -108 -150 -134 -180 -26 -30 -60
-75 -75 -100 -16 -25 -54 -72 -85 -105 -31 -33 -76 -87 -100 -120 -24 -33 -65
-82 -90 -110 -26 -27 -72 -82 -103 -122 -31 -39 -61 -74 -66 -78 -6 -3 -45
-47 -88 -98 -321 -382 -936 -1004 -1338 -1352 -44 -39 -106 -93 -138 -122 -32
-29 -100 -86 -150 -126 -51 -41 -99 -82 -107 -92 -8 -10 -42 -38 -75 -63 -33
-24 -80 -63 -105 -86 -25 -23 -88 -75 -140 -115 -52 -39 -122 -93 -156 -119
-108 -83 -340 -252 -390 -283 -27 -17 -72 -51 -100 -74 -28 -24 -77 -59 -110
-78 -32 -20 -97 -63 -144 -97 -47 -34 -128 -87 -180 -118 -52 -31 -122 -77
-155 -103 -33 -25 -85 -59 -115 -74 -30 -15 -98 -56 -151 -91 -52 -34 -136
-83 -185 -109 -49 -26 -118 -67 -154 -90 -36 -24 -117 -69 -180 -100 -63 -32
-133 -70 -156 -86 -41 -28 -257 -139 -270 -139 -4 0 -48 -25 -98 -55 -50 -30
-135 -72 -189 -94 -54 -22 -145 -65 -202 -96 -56 -30 -145 -71 -196 -90 -52
-20 -157 -67 -234 -105 -77 -38 -194 -88 -260 -111 -66 -23 -158 -61 -205 -84
-47 -23 -152 -64 -235 -90 -82 -26 -202 -70 -265 -97 -63 -28 -198 -74 -300
-103 -102 -29 -214 -65 -250 -80 -111 -47 -169 -65 -360 -110 -102 -24 -230
-60 -285 -80 -128 -46 -214 -68 -438 -111 -100 -19 -245 -53 -322 -74 -191
-54 -284 -73 -530 -110 -218 -32 -258 -39 -563 -96 -100 -19 -255 -43 -345
-54 -138 -16 -266 -27 -767 -66 -36 -2 -86 -7 -111 -9 -57 -6 -575 -32 -889
-45 -333 -13 -13496 -13 -13705 0 -233 15 -458 37 -730 70 -314 39 -439 63
-609 115 -78 24 -223 62 -322 85 -171 38 -254 65 -384 123 -30 13 -118 43
-195 66 -77 24 -187 65 -245 93 -58 27 -156 68 -219 89 -114 40 -202 80 -274
126 -22 14 -88 44 -146 68 -124 49 -180 77 -236 115 -22 15 -96 54 -165 88
-69 33 -150 77 -180 97 -30 21 -98 59 -150 85 -53 27 -136 75 -185 108 -50 32
-121 76 -160 97 -38 21 -101 61 -140 90 -38 29 -88 62 -110 73 -22 11 -76 45
-120 75 -44 31 -120 81 -169 114 -48 32 -111 77 -140 101 -28 23 -77 59 -109
80 -32 20 -93 64 -135 97 -42 33 -117 89 -167 124 -49 36 -117 88 -150 116
-33 28 -82 67 -110 85 -27 19 -75 57 -105 85 -30 28 -86 74 -125 102 -38 28
-83 66 -100 83 -16 18 -55 51 -85 73 -30 22 -84 68 -120 102 -36 33 -92 83
-125 110 -94 77 -292 251 -385 340 -47 44 -135 125 -195 180 -312 287 -808
785 -1065 1070 -69 77 -157 173 -196 215 -174 186 -478 527 -502 563 -9 12
-43 51 -77 87 -34 36 -80 90 -102 120 -23 30 -62 75 -88 100 -26 25 -66 70
-88 100 -23 30 -68 85 -102 121 -33 36 -89 103 -125 149 -36 45 -102 129 -147
187 -45 57 -106 133 -135 167 -29 35 -74 92 -100 129 -60 84 -204 202 -272
222 -43 13 -1378 15 -10865 15 -10512 0 -10817 0 -10841 -18 -61 -45 -98 -150
-86 -241 8 -65 55 -151 93 -174 20 -11 92 -27 195 -43 233 -35 460 -82 553
-114 44 -15 118 -41 165 -58 47 -17 136 -46 199 -66 62 -20 173 -65 245 -100
72 -36 169 -82 216 -104 47 -21 126 -64 175 -94 50 -31 115 -68 145 -83 30
-15 87 -50 125 -79 39 -28 109 -77 157 -110 48 -32 111 -79 140 -104 29 -24
85 -68 123 -97 39 -29 84 -67 100 -85 17 -18 62 -58 100 -90 39 -32 88 -79
109 -106 22 -27 59 -65 82 -84 23 -19 59 -57 80 -85 21 -27 65 -79 99 -115 34
-36 84 -96 110 -135 27 -38 80 -108 117 -155 37 -47 84 -115 104 -153 19 -37
54 -88 76 -115 23 -26 67 -101 98 -168 32 -66 77 -147 102 -181 25 -33 55 -89
67 -124 65 -185 87 -238 115 -284 45 -70 60 -112 91 -250 43 -196 64 -272 96
-353 59 -149 90 -356 109 -747 6 -121 10 -1300 10 -2987 0 -2021 3 -2802 11
-2840 22 -104 66 -160 143 -183 44 -13 3923 -15 32678 -15 32193 0 32629 0
32667 19 20 11 44 27 52 37 8 9 44 41 81 71 60 47 74 66 129 169 33 63 80 140
104 172 23 31 63 98 88 147 25 50 65 114 90 143 24 29 67 100 96 157 29 58 72
129 96 158 24 28 65 95 92 147 27 52 73 128 102 168 30 41 73 113 97 160 23
48 63 111 88 141 24 30 70 103 100 162 31 59 74 129 97 156 22 26 60 89 84
138 25 50 70 124 101 165 31 41 76 116 100 166 24 50 64 113 88 142 24 28 69
100 101 159 31 59 77 135 102 168 25 33 63 96 85 139 22 43 61 102 87 130 26
28 69 83 96 121 65 94 321 347 420 414 44 30 105 75 135 99 30 25 89 60 130
79 41 18 131 62 200 97 131 68 185 84 430 135 182 37 348 56 615 71 370 21
725 91 895 179 53 27 132 63 175 80 95 38 151 69 224 125 30 22 83 57 118 76
81 44 191 138 363 310 164 164 261 278 313 367 21 38 58 91 82 118 46 55 70
97 120 218 19 43 52 107 74 141 54 82 64 109 106 277 24 93 54 181 86 251 28
60 61 151 75 210 62 259 77 308 115 386 48 100 58 131 105 332 26 112 50 186
86 265 33 71 61 155 80 235 50 212 76 297 114 371 42 85 67 161 94 295 30 148
46 198 102 318 39 85 58 147 89 285 31 135 51 201 88 281 65 140 67 147 96
285 37 173 51 218 105 335 26 58 57 143 68 190 11 47 33 135 47 195 16 64 46
150 72 205 31 63 57 142 80 235 59 247 66 268 110 353 91 172 97 363 13 437
-22 20 -40 20 -9439 25 -6656 4 -9428 9 -9456 17 -22 6 -76 20 -119 32 -94 25
-221 35 -256 20z m-46105 -1972 l1000 -2 60 -30 c80 -40 101 -78 115 -211 17
-153 9 -3507 -8 -3556 -18 -53 -59 -92 -127 -119 l-60 -24 -2420 -2 c-2140 -2
-2427 -1 -2480 13 -83 21 -132 56 -158 112 l-22 47 0 1790 c0 1476 2 1798 14
1835 23 79 107 136 225 152 19 3 1761 1 3861 -5z m7497 -12 c122 -25 160 -74
179 -227 6 -53 9 -702 7 -1804 l-3 -1720 -30 -59 c-36 -70 -82 -98 -185 -115
-43 -7 -858 -10 -2455 -10 l-2391 1 -50 29 c-74 42 -130 110 -144 173 -8 37
-10 541 -8 1792 3 1644 4 1743 21 1786 23 58 87 125 146 153 l46 21 2399 -3
c2032 -2 2410 -5 2468 -17z m43049 10 c135 -29 187 -77 209 -196 7 -36 11
-642 10 -1794 0 -1915 4 -1807 -61 -1872 -17 -18 -56 -42 -87 -55 l-57 -23
-2390 -3 c-1827 -2 -2404 0 -2448 9 -76 16 -154 63 -192 117 l-30 44 -5 1716
c-3 945 -2 1752 3 1794 13 133 52 193 156 242 l46 21 2355 5 c1295 3 2369 6
2387 8 17 1 64 -5 104 -13z m6609 -17 c68 -34 97 -100 111 -248 16 -172 8
-3472 -9 -3521 -30 -90 -92 -144 -175 -154 -29 -3 -1134 -5 -2457 -3 l-2405 3
-46 21 c-66 31 -123 86 -148 144 l-21 49 0 1723 c0 1058 3 1742 9 1773 15 79
37 120 87 164 86 75 -130 70 2574 70 l2436 1 44 -22z m-57365 -4471 c993 -2
1206 -5 1237 -16 61 -23 105 -66 130 -129 l23 -57 0 -1800 0 -1800 -22 -47
c-26 -57 -49 -73 -134 -92 -57 -14 -359 -16 -2500 -16 -2223 -1 -2439 1 -2488
16 -74 22 -115 64 -130 132 -8 38 -11 541 -11 1816 0 1739 0 1765 20 1829 21
67 56 109 120 142 64 33 -206 31 3755 22z m6630 0 c1166 -2 1117 0 1179 -54
37 -33 64 -93 76 -170 16 -103 9 -3566 -7 -3612 -15 -40 -49 -80 -81 -92 -69
-27 -238 -29 -2568 -29 l-2423 -1 -49 25 c-61 31 -109 84 -119 133 -4 21 -8
837 -8 1813 l0 1775 24 50 c42 84 108 145 178 164 21 6 974 5 3798 -2z m44172
-13 c70 -19 124 -72 152 -147 l21 -58 1 -1779 c0 -1308 -3 -1790 -11 -1822
-12 -44 -40 -82 -75 -100 -71 -39 -30 -38 -2536 -38 -2652 0 -2481 -4 -2574
60 -23 16 -49 44 -56 62 -12 27 -14 342 -17 1818 -3 1992 -8 1836 69 1923 21
25 61 56 87 69 l47 23 2365 5 c1301 3 2390 4 2420 2 30 -2 79 -10 107 -18z
m-36490 -11 c52 -28 106 -97 130 -166 17 -49 18 -140 18 -1817 0 -1681 -1
-1767 -18 -1812 -10 -26 -34 -61 -53 -77 -74 -65 110 -61 -2579 -61 -1796 0
-2451 3 -2476 11 -48 16 -86 55 -106 108 -17 43 -18 149 -18 1841 l0 1795 22
55 c30 73 69 118 118 135 34 12 397 14 2480 12 l2440 -2 42 -22z m43026 16
c73 -20 122 -106 136 -240 6 -48 9 -826 7 -1814 -1 -1369 -4 -1738 -14 -1768
-18 -53 -67 -105 -110 -117 -25 -6 -855 -10 -2488 -10 -2168 0 -2456 2 -2495
15 -85 30 -133 85 -150 170 -5 22 -8 824 -9 1782 0 1715 0 1743 20 1796 37 99
105 169 184 187 51 13 4875 12 4919 -1z"/>
<path d="M26755 17349 c-98 -12 -161 -65 -152 -130 9 -71 109 -215 212 -306
12 -10 42 -45 68 -79 26 -33 60 -70 77 -82 17 -13 49 -46 71 -75 51 -65 166
-190 328 -358 143 -147 170 -163 312 -179 267 -30 310 -70 359 -332 12 -61 31
-130 42 -152 44 -87 142 -206 265 -322 304 -286 449 -425 468 -446 11 -13 43
-40 70 -62 28 -21 64 -53 80 -70 56 -59 85 -76 130 -76 51 0 90 27 114 79 14
31 17 107 21 601 l5 565 23 43 c29 54 96 129 134 148 25 13 332 15 2363 15
1701 0 2347 -3 2378 -12 64 -17 104 -46 134 -96 55 -94 53 -28 53 -1778 0
-1068 3 -1639 10 -1675 21 -111 63 -158 163 -180 67 -15 823 -14 884 2 61 15
117 68 145 136 l23 57 3 600 c1 330 3 1073 5 1650 l2 1050 22 58 c28 75 85
150 130 171 32 15 210 17 2375 17 2613 0 2402 6 2471 -70 19 -21 45 -65 57
-97 22 -59 22 -60 16 -539 -3 -264 -8 -547 -11 -630 -3 -82 -7 -332 -10 -555
-3 -223 -10 -666 -15 -985 -5 -319 -7 -596 -5 -615 21 -149 44 -200 110 -234
39 -20 53 -21 485 -21 341 0 454 3 482 13 78 28 119 101 138 247 5 39 14 358
20 710 7 352 22 1068 35 1590 25 1048 21 1001 91 1097 18 26 52 57 75 68 l40
21 2353 0 c2151 0 2357 -2 2394 -16 39 -16 81 -60 110 -115 43 -80 42 -49 42
-1815 0 -1899 -7 -1743 81 -1839 90 -98 75 -96 532 -97 394 -1 397 -1 444 22
58 28 122 90 147 144 11 22 22 69 27 105 4 36 7 812 7 1725 l1 1660 22 59 c27
73 87 136 147 154 33 10 518 13 2387 13 2562 0 2369 4 2426 -58 15 -15 40 -53
55 -83 35 -66 33 12 36 -1415 l3 -950 30 -55 c38 -69 91 -101 167 -101 62 0
233 67 333 130 63 40 93 53 255 117 112 43 287 146 358 209 27 25 57 63 65 84
33 81 37 200 37 1053 0 833 0 848 21 903 33 89 87 138 174 159 17 5 539 8
1160 8 678 0 1154 3 1189 9 116 19 210 86 509 363 264 244 307 284 372 346 39
36 95 85 126 108 76 57 199 219 206 270 4 33 1 43 -26 69 -21 22 -48 35 -84
42 -56 12 -31307 22 -31402 10z"/>
<path d="M7099 6659 c-120 -8 -172 -34 -196 -97 -17 -44 -18 -99 -18 -857 0
-445 3 -822 7 -837 14 -49 54 -85 111 -100 43 -11 5211 -13 31867 -13 l31815
0 50 25 c75 37 143 112 192 210 22 47 64 114 93 149 28 35 73 107 100 160 26
53 71 128 100 166 29 39 69 106 89 150 21 44 51 96 68 115 47 55 87 118 133
210 23 47 61 108 85 135 23 28 61 88 85 135 23 47 64 116 90 155 67 100 82
132 83 182 0 35 -5 49 -28 73 -16 16 -42 32 -59 35 -42 8 -64559 12 -64667 4z"/>
<path d="M38505 3941 l-31461 -6 -49 -26 c-41 -21 -55 -35 -80 -84 l-30 -59
-3 -1640 c-1 -903 0 -1651 3 -1663 11 -44 63 -90 118 -105 43 -11 5030 -13
30507 -13 l30455 0 57 28 c86 42 177 146 238 271 27 56 69 126 94 156 26 30
71 103 101 161 30 58 73 128 95 155 22 27 59 87 81 134 22 47 69 124 104 171
35 47 82 123 103 170 22 46 61 108 87 138 25 30 70 102 100 160 29 58 72 129
95 156 23 28 64 95 90 150 26 55 69 125 94 155 26 30 69 100 98 155 28 55 70
123 93 150 23 28 65 96 93 151 28 56 74 132 103 169 28 37 69 104 90 150 21
45 62 111 90 146 28 35 75 111 104 169 30 58 72 125 95 150 64 68 80 107 80
192 0 115 -37 160 -132 163 -29 0 -14210 -1 -31513 -4z"/>
</g>
</svg>
