<?xml version="1.0" standalone="no"?>
<!DOCTYPE svg PUBLIC "-//W3C//DTD SVG 20010904//EN"
 "http://www.w3.org/TR/2001/REC-SVG-20010904/DTD/svg10.dtd">
<svg version="1.0" xmlns="http://www.w3.org/2000/svg"
 width="588.000000pt" height="234.000000pt" viewBox="0 0 588.000000 234.000000"
 preserveAspectRatio="xMidYMid meet">

<g transform="translate(0.000000,234.000000) scale(0.100000,-0.100000)"
fill="#000000" stroke="none">
<path d="M4642 2308 c-7 -7 -24 -13 -40 -14 -15 -1 -37 -2 -50 -3 -16 -1 -26
-10 -33 -30 -6 -16 -17 -32 -25 -35 -8 -3 -14 -14 -14 -25 0 -11 -8 -25 -19
-30 -13 -7 -17 -18 -13 -36 3 -18 -2 -33 -16 -48 -15 -16 -18 -27 -12 -37 5
-8 10 -29 10 -45 0 -17 5 -36 11 -42 16 -16 21 -86 6 -79 -7 2 -43 14 -82 26
-38 12 -131 48 -205 80 -197 84 -271 104 -460 119 -58 5 -135 14 -171 21 -79
13 -480 7 -584 -9 -38 -6 -108 -15 -155 -20 -47 -5 -116 -16 -155 -25 -38 -9
-119 -28 -180 -42 -118 -28 -348 -96 -405 -121 -87 -37 -129 -59 -182 -95 -31
-21 -60 -38 -64 -38 -5 0 -19 -11 -33 -24 -65 -60 -400 -232 -562 -287 -35
-12 -80 -30 -99 -40 -19 -10 -78 -33 -130 -50 -88 -31 -107 -33 -252 -37 -236
-6 -352 20 -580 133 -162 80 -173 75 -71 -31 80 -83 201 -180 293 -235 93 -55
382 -156 483 -169 131 -16 281 -12 377 9 47 11 119 27 160 35 41 8 118 25 170
37 129 31 353 33 450 5 111 -33 190 -83 274 -174 35 -38 84 -62 127 -62 31 0
46 -15 31 -33 -6 -7 -24 -41 -42 -76 -49 -95 -141 -187 -253 -250 -111 -63
-119 -77 -116 -203 1 -46 -2 -99 -6 -119 -4 -23 -2 -45 4 -58 9 -17 9 -21 -2
-21 -10 0 -13 -8 -10 -25 7 -33 18 -40 83 -58 30 -8 63 -18 73 -22 10 -4 17
-3 17 4 0 9 5 9 20 1 11 -6 24 -8 29 -5 5 3 11 -1 14 -7 3 -9 7 -8 12 4 5 13
12 14 43 6 26 -7 37 -7 40 1 2 6 8 9 13 5 5 -3 9 0 9 5 0 6 9 11 20 11 32 0
24 17 -37 81 -51 54 -57 64 -60 112 -5 69 20 111 85 139 71 30 225 108 242
122 18 15 118 76 125 76 3 0 -5 -23 -16 -52 -17 -43 -18 -57 -9 -78 7 -14 23
-59 35 -100 13 -41 30 -91 39 -111 8 -20 12 -40 8 -44 -4 -5 -2 -6 4 -2 5 3
18 -10 29 -28 25 -49 51 -62 139 -74 43 -6 88 -14 100 -17 14 -3 29 1 38 10
11 11 18 12 26 4 7 -7 14 -9 18 -6 9 9 -25 76 -42 82 -8 3 -14 10 -14 15 0 6
-11 26 -24 46 -33 47 -66 149 -66 201 0 26 8 53 23 75 12 19 27 45 33 59 6 14
27 44 45 66 19 23 51 69 71 103 l37 61 101 0 100 0 -21 -42 c-48 -95 -49 -106
-24 -235 13 -66 26 -165 30 -221 4 -56 11 -104 15 -107 4 -2 6 -17 4 -32 -3
-34 11 -53 43 -53 14 0 21 -4 18 -10 -3 -5 2 -11 12 -12 96 -9 245 -10 253 -2
3 3 -8 17 -25 30 -16 13 -43 36 -59 49 l-29 25 6 178 c3 97 11 194 17 215 12
40 94 157 111 157 5 0 9 -16 9 -37 0 -74 106 -195 243 -275 111 -65 185 -126
199 -164 7 -19 15 -34 18 -34 4 0 13 -18 20 -40 7 -22 19 -40 26 -40 7 0 19
-9 27 -21 8 -11 26 -21 39 -23 13 -1 29 -6 36 -10 7 -4 12 -2 12 3 0 6 12 11
26 11 14 0 23 -4 19 -10 -10 -17 7 -11 20 6 11 15 14 15 40 -2 27 -17 28 -17
41 1 7 10 11 22 8 26 -3 5 2 9 10 9 8 0 18 -5 21 -10 3 -6 11 -10 17 -10 5 0
0 9 -13 19 -13 11 -20 23 -16 27 4 5 12 2 17 -6 5 -8 12 -11 16 -7 4 3 2 13
-4 20 -7 8 -10 16 -7 19 3 2 -5 10 -18 17 -30 17 -110 120 -163 212 -29 48
-85 117 -159 194 -63 65 -115 123 -115 128 0 10 42 68 90 123 19 22 56 70 82
107 25 36 58 73 73 83 52 34 154 55 262 55 109 -1 142 -6 280 -46 177 -51 215
-68 312 -137 107 -77 214 -118 304 -118 74 0 128 40 73 54 -13 3 -39 23 -57
43 l-33 38 31 3 c55 5 111 -16 128 -48 8 -16 21 -27 28 -25 19 8 75 96 86 138
14 55 2 146 -29 207 l-17 35 43 92 c24 50 46 115 50 144 l7 53 -24 -15 c-84
-53 -148 -88 -176 -94 -29 -6 -35 -2 -71 44 -26 32 -42 65 -46 91 -3 22 -9 58
-12 80 -6 42 -22 51 -44 25 -7 -8 -22 -15 -34 -15 -28 0 -122 126 -171 229
-23 47 -58 96 -98 138 -66 70 -182 163 -202 163 -7 0 -25 10 -41 22 -15 12
-34 23 -43 25 -8 1 -27 11 -43 23 -18 13 -36 19 -49 15 -11 -4 -27 -1 -36 6
-8 8 -29 19 -47 25 -17 6 -38 14 -46 18 -9 3 -21 1 -28 -6z m-2257 -2217 c10
-17 -12 -21 -25 -6 -10 12 -10 15 3 15 9 0 18 -4 22 -9z m-245 -31 c0 -5 -5
-10 -11 -10 -5 0 -7 5 -4 10 3 6 8 10 11 10 2 0 4 -4 4 -10z"/>
</g>
</svg>
