<?xml version="1.0" standalone="no"?>
<!DOCTYPE svg PUBLIC "-//W3C//DTD SVG 20010904//EN"
 "http://www.w3.org/TR/2001/REC-SVG-20010904/DTD/svg10.dtd">
<svg version="1.0" xmlns="http://www.w3.org/2000/svg"
 width="180.000000pt" height="156.000000pt" viewBox="0 0 180.000000 156.000000"
 preserveAspectRatio="xMidYMid meet">

<g transform="translate(0.000000,156.000000) scale(0.100000,-0.100000)"
fill="#000000" stroke="none">
<path d="M966 1533 c5 -10 10 -128 12 -262 l3 -245 -95 -93 -94 -93 -216 0
c-119 0 -216 2 -216 4 0 3 33 54 73 113 51 74 80 109 95 111 36 5 14 22 -28
22 -38 0 -62 -14 -38 -22 12 -4 -109 -208 -124 -208 -4 0 -8 15 -8 34 0 18 -3
60 -6 93 -6 52 -4 63 14 81 l20 20 -31 6 c-18 4 -86 11 -152 17 -94 8 -126 8
-150 -2 -28 -12 -21 -13 80 -20 61 -3 122 -10 136 -13 l26 -7 7 -192 c10 -292
-7 -347 -110 -347 -83 0 -111 -20 -57 -41 38 -14 98 -2 134 28 51 43 71 97 77
201 3 50 8 92 13 92 4 0 30 -35 58 -77 27 -43 57 -88 66 -100 18 -26 75 -40
102 -24 16 9 15 11 -12 21 -21 7 -47 36 -87 95 l-58 85 189 0 189 0 86 -115
c47 -63 86 -118 86 -122 0 -3 -8 -15 -17 -26 -13 -15 -15 -21 -5 -24 14 -5 16
-131 6 -306 -6 -93 -9 -106 -26 -111 -35 -9 -8 -26 40 -26 73 -1 195 -19 206
-31 8 -7 4 -16 -13 -30 -14 -12 -18 -19 -9 -19 19 0 38 20 38 42 0 25 -27 36
-115 49 l-77 12 7 226 8 226 94 113 95 112 223 0 c123 0 234 -4 247 -9 38 -15
78 -58 78 -85 0 -48 -67 -72 -115 -40 -23 15 -25 15 -31 0 -13 -33 3 -46 55
-46 88 0 141 35 141 93 0 42 -22 72 -68 96 -20 10 -46 29 -57 41 l-20 22 24
19 c27 22 59 24 96 7 22 -10 28 -9 36 3 22 35 11 42 -56 37 -72 -6 -92 -18
-112 -65 l-13 -33 -210 0 -209 0 -63 83 c-97 127 -98 130 -98 287 0 156 7 176
45 140 31 -29 87 -194 89 -262 l1 -48 42 0 42 0 -18 33 c-10 17 -31 69 -45
113 -15 45 -42 107 -61 138 -35 59 -35 60 7 70 41 9 88 54 88 83 0 67 -50 93
-176 93 -79 0 -85 -2 -78 -17z m174 -13 c49 -49 30 -111 -41 -130 -61 -17 -69
-10 -69 59 0 33 3 66 6 75 9 24 79 21 104 -4z m-116 -542 c21 -30 20 -44 -5
-79 -26 -37 -44 -37 -64 1 -17 32 -15 41 18 78 25 28 32 28 51 0z m-83 -105
c13 -20 22 -48 21 -62 -1 -23 5 -19 53 34 l55 60 20 -25 c11 -14 28 -38 36
-53 18 -33 9 -52 -41 -97 -56 -51 -81 -76 -96 -99 l-15 -24 -75 97 c-41 53
-75 101 -77 106 -4 10 76 100 88 100 5 0 19 -17 31 -37z"/>
</g>
</svg>
