<?xml version="1.0" standalone="no"?>
<!DOCTYPE svg PUBLIC "-//W3C//DTD SVG 20010904//EN"
 "http://www.w3.org/TR/2001/REC-SVG-20010904/DTD/svg10.dtd">
<svg version="1.0" xmlns="http://www.w3.org/2000/svg"
 width="209.000000pt" height="167.000000pt" viewBox="0 0 209.000000 167.000000"
 preserveAspectRatio="xMidYMid meet">

<g transform="translate(0.000000,167.000000) scale(0.100000,-0.100000)"
fill="#000000" stroke="none">
<path d="M1105 1636 c-107 -35 -197 -73 -339 -142 -49 -24 -91 -44 -93 -44 -2
0 -1 11 3 25 3 14 4 32 0 40 -5 14 -9 14 -33 1 -16 -8 -44 -30 -62 -50 -19
-20 -43 -36 -54 -36 -39 0 -107 -52 -133 -102 -16 -31 -19 -84 -4 -93 6 -4 -3
-31 -21 -67 -27 -54 -29 -64 -18 -89 9 -24 9 -33 -3 -47 -140 -163 -149 -184
-102 -221 14 -11 30 -21 36 -23 8 -3 8 -13 0 -37 -9 -26 -9 -33 3 -38 19 -7
19 -20 0 -39 -20 -21 -19 -30 7 -56 16 -16 21 -32 19 -60 -1 -21 1 -47 4 -59
10 -30 64 -49 141 -49 l67 0 -7 -31 c-3 -17 -6 -53 -6 -80 l0 -49 -48 0 c-160
0 -348 -105 -432 -242 l-30 -48 891 0 891 0 -30 52 c-15 29 -39 70 -51 90
l-23 38 58 -35 c92 -56 137 -41 95 30 -12 20 -21 37 -21 39 0 1 19 2 43 2 42
-1 42 -1 41 34 0 19 -4 43 -8 52 -7 16 -3 17 38 12 58 -8 69 11 39 68 l-21 38
39 0 c43 0 79 27 79 58 0 11 -14 38 -31 61 -24 34 -28 45 -18 57 24 29 -12 67
-131 139 l-54 33 79 -4 c89 -6 117 4 99 33 -21 34 -74 61 -239 118 -91 32
-163 60 -160 63 2 3 104 -6 226 -19 229 -24 254 -23 254 16 0 32 -48 55 -204
99 -83 24 -155 47 -159 51 -4 4 18 4 48 0 101 -11 178 -11 192 3 21 21 -19 48
-122 80 l-95 30 55 1 c116 2 135 30 40 58 -63 19 -78 33 -34 33 43 0 112 21
128 39 15 16 15 19 -2 34 -11 10 -42 23 -70 29 -56 14 -63 21 -32 38 46 24 17
53 -64 65 l-50 8 27 21 c15 12 27 27 27 33 0 37 -199 60 -369 42 -78 -8 -85
-7 -98 11 -21 29 -80 25 -198 -14z m183 -4 c2 -7 -6 -12 -20 -12 -23 0 -144
-24 -181 -36 -32 -10 -10 14 34 36 72 37 156 43 167 12z m408 -13 c12 -21
-134 -30 -216 -13 -43 9 -41 9 45 15 126 7 165 7 171 -2z m-67 -43 c-3 -3 -63
-10 -134 -16 -201 -17 -386 -39 -549 -65 -83 -14 -151 -23 -153 -21 -4 4 172
50 252 66 118 24 273 38 429 39 88 1 157 -1 155 -3z m114 -67 c21 -5 37 -16
37 -24 0 -17 -66 -21 -90 -5 -13 9 -13 10 0 10 11 1 10 4 -4 15 -20 15 -20 15
0 15 10 0 36 -5 57 -11z m-148 -38 c38 -5 9 -8 -119 -14 -182 -8 -329 -21
-442 -38 -40 -6 -78 -9 -85 -7 -17 6 108 37 215 53 87 14 350 18 431 6z m-745
-75 c0 -19 -23 -33 -28 -18 -2 7 -12 12 -22 12 -10 0 -22 5 -25 10 -4 6 10 10
34 10 29 0 41 -4 41 -14z m1050 -11 c0 -30 -125 -44 -435 -49 -137 -2 -227 -2
-200 0 28 2 120 8 205 14 163 12 346 35 383 49 27 10 47 4 47 -14z m-1304 -20
c-43 -39 -54 -41 -80 -22 -17 12 -13 15 35 35 77 30 90 26 45 -13z m154 0
c-33 -40 -110 -66 -110 -36 0 5 95 45 119 50 2 1 -2 -6 -9 -14z m213 -24 c11
-2 9 -29 -3 -36 -6 -3 -17 1 -26 9 -8 9 -25 16 -37 17 -21 0 -21 1 -2 8 17 7
37 8 68 2z m-355 -71 c67 -32 161 -117 196 -181 19 -34 19 -34 -30 11 -102 95
-197 144 -300 156 -42 5 -54 10 -50 21 4 8 6 19 6 25 0 19 112 -1 178 -32z
m227 5 c-53 -25 -90 -31 -100 -16 -3 5 23 16 57 24 89 21 101 19 43 -8z m956
-5 c-32 -19 -412 -55 -521 -48 -36 2 47 14 235 34 160 16 292 29 295 27 2 -2
-2 -8 -9 -13z m-701 -34 c0 -19 -20 -32 -29 -18 -3 5 -22 15 -41 20 -35 10
-35 10 18 11 39 1 52 -3 52 -13z m-526 -48 c75 -25 139 -68 177 -121 l30 -41
-26 -20 c-19 -16 -28 -35 -34 -76 -9 -54 -43 -100 -76 -100 -7 0 -21 -7 -29
-16 -20 -20 -21 -130 -2 -229 16 -81 19 -78 -76 -100 -143 -32 -193 -13 -193
73 0 33 -6 56 -18 69 -20 23 -22 33 -4 33 6 1 26 7 42 14 l30 13 -45 23 c-25
12 -46 24 -48 25 -1 1 2 14 7 29 10 24 8 27 -29 46 -61 31 -55 55 40 154 79
82 80 83 69 116 -11 29 -9 39 17 87 l29 54 40 -7 c22 -3 67 -15 99 -26z m446
23 c-8 -5 -47 -18 -86 -29 -60 -17 -73 -17 -89 -6 -10 8 -17 16 -14 18 4 4
139 23 179 24 19 1 21 -1 10 -7z m116 -52 c10 -17 -14 -35 -28 -21 -7 7 -20
12 -30 12 -10 0 -18 5 -18 10 0 14 67 13 76 -1z m744 -10 c0 -11 -214 -12
-250 -1 -15 4 23 9 100 12 130 5 150 4 150 -11z m-841 -33 c-2 -2 -37 -13 -76
-24 -70 -20 -73 -20 -73 -2 0 11 9 20 23 23 29 6 132 8 126 3z m491 -50 c41
-8 86 -19 100 -25 21 -9 15 -10 -35 -6 -150 13 -316 25 -380 26 -57 1 -64 3
-35 9 60 13 271 10 350 -4z m428 -41 c51 -19 102 -41 114 -49 19 -14 20 -16 4
-22 -32 -12 -299 23 -274 36 7 4 33 11 58 15 44 7 44 8 22 23 -12 8 -22 18
-22 23 0 12 -8 14 98 -26z m-955 -46 c21 -23 27 -39 27 -75 0 -39 -5 -51 -35
-81 -31 -31 -40 -35 -68 -29 -100 20 -117 171 -24 211 40 18 65 11 100 -26z
m96 -16 c6 -13 11 -38 10 -56 0 -31 -1 -31 -23 18 -12 28 -30 56 -39 64 -28
23 -19 33 12 15 16 -10 34 -28 40 -41z m-297 -25 c-4 -65 11 -108 37 -108 15
0 20 -10 27 -57 6 -50 8 -54 13 -28 8 38 17 25 27 -40 l9 -50 5 45 5 45 22
-45 21 -45 1 43 c1 23 5 42 10 42 4 0 24 -49 44 -109 20 -59 54 -150 77 -201
22 -52 38 -95 37 -97 -2 -2 -21 14 -41 35 -39 38 -59 69 -88 137 -21 50 -22
39 -3 -130 9 -76 14 -140 11 -142 -7 -7 -56 127 -80 219 -23 89 -26 91 -40 25
-4 -15 -11 -25 -16 -22 -19 12 -52 141 -59 228 -6 83 -8 90 -19 69 -8 -13 -14
-37 -14 -53 -1 -43 -20 -31 -41 27 -14 35 -17 64 -14 102 6 52 49 162 64 162
4 0 7 -24 5 -52z m628 -23 c52 -8 115 -21 140 -30 25 -8 34 -13 20 -10 -55 11
-268 44 -305 48 l-40 4 45 1 c25 1 88 -5 140 -13z m450 -59 c133 -64 120 -86
-40 -66 -55 7 -100 16 -100 20 0 5 16 14 36 20 l36 12 -34 35 c-31 34 -32 35
-8 28 14 -4 63 -26 110 -49z m-380 -33 c77 -22 206 -81 197 -90 -2 -2 -58 12
-125 31 -66 19 -182 45 -259 58 -113 19 -132 24 -103 30 59 11 201 -3 290 -29z
m-815 -43 c-3 -5 -1 -10 5 -10 6 0 8 -11 6 -24 -2 -14 1 -27 7 -30 9 -4 8 -8
-2 -12 -11 -5 -11 -8 0 -15 12 -8 12 -10 0 -18 -11 -7 -11 -9 0 -14 12 -4 11
-7 -1 -16 -13 -9 -13 -11 3 -11 9 0 17 -4 17 -9 0 -11 -58 -61 -70 -61 -19 0
-31 141 -16 188 4 11 16 24 29 30 29 14 29 14 22 2z m600 -22 c125 -30 248
-94 335 -175 33 -31 59 -58 56 -60 -2 -3 -49 24 -103 58 -83 53 -154 90 -363
187 -24 11 -24 11 5 6 17 -3 48 -10 70 -16z m600 -63 c79 -43 120 -75 96 -75
-6 0 -54 14 -106 30 -90 29 -121 50 -73 50 20 0 21 1 3 20 -27 30 -11 25 80
-25z m-18 -75 c93 -45 177 -117 171 -147 -8 -40 -107 -14 -248 64 l-65 37 33
13 c37 15 37 16 16 48 -23 35 -6 33 93 -15z m-1116 -68 c-5 -10 -17 -24 -25
-32 -25 -20 -19 -27 29 -35 56 -8 49 -25 -11 -25 -24 0 -44 -4 -44 -8 0 -4 23
-16 50 -26 70 -25 73 -38 8 -31 l-53 6 65 -35 65 -35 -45 -1 -45 -1 38 -20
c20 -11 37 -24 37 -29 0 -6 -24 -10 -52 -10 l-53 -1 38 -14 c21 -7 41 -16 44
-19 5 -5 -74 -106 -82 -106 -2 0 -34 41 -70 91 -70 95 -84 134 -71 202 5 27
14 38 44 51 20 9 60 34 87 56 58 45 59 46 46 22z m478 -224 c25 -29 38 -37 53
-32 17 5 19 3 13 -18 -4 -12 -11 -27 -16 -32 -22 -24 -93 86 -153 233 -38 93
-32 88 23 -18 26 -52 62 -112 80 -133z m608 152 c133 -87 166 -137 88 -133
-35 3 -199 74 -240 106 -19 14 -17 15 28 22 26 4 47 9 47 11 0 3 -7 16 -16 29
-9 14 -12 25 -7 25 5 0 50 -27 100 -60z m-275 -190 c51 -68 105 -159 80 -135
-6 6 -37 46 -69 90 -33 44 -97 125 -142 180 l-82 100 78 -80 c43 -44 104 -114
135 -155z m-267 118 c71 -108 145 -198 179 -219 25 -15 27 -19 13 -25 -26 -10
-63 20 -116 93 -45 61 -138 223 -128 223 2 0 26 -33 52 -72z m-364 -44 c19
-42 19 -47 5 -70 -27 -40 -36 -28 -36 46 0 39 3 70 6 70 3 0 14 -21 25 -46z
m847 2 c71 -46 120 -92 109 -102 -12 -12 -77 7 -157 47 -44 22 -80 44 -80 50
0 5 17 9 37 9 29 0 34 3 25 12 -13 13 -16 28 -6 28 3 0 36 -20 72 -44z m-289
-76 c60 -97 31 -120 -52 -41 -54 52 -58 69 -12 51 26 -10 27 -9 21 15 -10 41
10 29 43 -25z m258 -32 c59 -45 90 -85 75 -100 -12 -12 -98 22 -170 69 l-57
37 39 11 c24 7 35 14 28 19 -7 4 -12 12 -12 17 0 13 33 -5 97 -53z m-1187 -13
c40 -42 35 -52 -15 -31 -47 20 -56 20 -49 1 5 -13 2 -14 -21 -5 -41 16 -50 12
-29 -11 21 -25 29 -24 -63 -3 -28 7 -28 7 -9 -15 l19 -21 -53 0 c-51 0 -52 -1
-37 -18 10 -10 17 -21 17 -24 0 -3 -29 -5 -65 -3 -61 2 -64 1 -50 -15 24 -26
19 -30 -45 -30 -33 0 -60 4 -60 8 0 15 105 112 147 136 70 40 150 62 234 65
39 1 49 -3 79 -34z"/>
<path d="M430 1130 c-10 -24 -10 -36 0 -60 7 -16 16 -30 21 -30 5 0 9 -12 9
-27 1 -28 1 -28 13 -6 12 22 14 22 36 6 14 -9 21 -11 17 -5 -4 7 -22 19 -39
28 -57 30 -58 54 -1 54 19 0 51 -7 72 -15 33 -13 35 -13 17 0 -22 17 -79 35
-114 35 -20 0 -22 4 -17 25 9 34 1 31 -14 -5z"/>
<path d="M379 988 c-53 -71 -52 -68 -31 -68 23 0 52 21 55 40 2 8 6 21 11 28
5 8 4 18 -1 23 -6 6 -19 -3 -34 -23z"/>
<path d="M470 980 c-9 -6 -10 -10 -3 -10 6 0 15 5 18 10 8 12 4 12 -15 0z"/>
<path d="M321 884 c0 -11 3 -14 6 -6 3 7 2 16 -1 19 -3 4 -6 -2 -5 -13z"/>
<path d="M391 873 c7 -10 15 -20 16 -22 2 -2 3 5 3 17 0 14 -6 22 -16 22 -14
0 -15 -3 -3 -17z"/>
<path d="M448 863 c-23 -6 -23 -6 6 -52 17 -26 26 -57 28 -92 l3 -54 18 33
c10 19 13 32 7 32 -7 0 -8 5 -3 13 13 21 12 37 -4 37 -13 0 -13 2 -2 17 12 15
12 16 -5 10 -17 -7 -17 -6 -5 10 12 15 12 16 -5 10 -14 -6 -17 -4 -12 8 4 11
2 14 -6 9 -8 -5 -9 -2 -5 9 3 10 5 16 4 16 -1 -1 -10 -3 -19 -6z"/>
<path d="M330 820 c19 -13 30 -13 30 0 0 6 -10 10 -22 10 -19 0 -20 -2 -8 -10z"/>
<path d="M400 711 c0 -17 4 -32 8 -35 4 -2 6 11 4 30 -5 42 -12 45 -12 5z"/>
<path d="M490 599 c0 -6 -14 -24 -31 -40 -33 -31 -25 -41 9 -11 19 16 40 62
28 62 -3 0 -6 -5 -6 -11z"/>
<path d="M939 958 c35 -22 35 -22 10 -28 -23 -6 -23 -6 -4 -19 13 -8 16 -14 8
-17 -7 -3 -9 -12 -6 -21 5 -12 3 -14 -7 -8 -9 6 -11 4 -5 -5 4 -7 2 -16 -6
-21 -11 -7 -9 -9 7 -9 32 0 54 31 54 78 0 44 -25 72 -65 72 -16 0 -13 -5 14
-22z"/>
</g>
</svg>
