<?xml version="1.0" standalone="no"?>
<!DOCTYPE svg PUBLIC "-//W3C//DTD SVG 20010904//EN"
 "http://www.w3.org/TR/2001/REC-SVG-20010904/DTD/svg10.dtd">
<svg version="1.0" xmlns="http://www.w3.org/2000/svg"
 width="70.000000pt" height="50.000000pt" viewBox="0 0 70.000000 50.000000"
 preserveAspectRatio="xMidYMid meet">

<g transform="translate(0.000000,50.000000) scale(0.100000,-0.100000)"
fill="#000000" stroke="none">
<path d="M320 488 c-30 -5 -77 -12 -105 -17 l-50 -8 30 -12 c23 -10 53 -11
132 -3 116 11 135 18 108 39 -21 14 -34 15 -115 1z"/>
<path d="M425 389 c-60 -10 -168 -25 -240 -32 l-130 -14 38 -17 c33 -14 47
-15 90 -5 29 6 63 9 77 8 l25 -4 0 -115 0 -115 -33 -5 -33 -5 36 -43 c20 -23
41 -39 47 -36 6 4 18 25 28 48 22 51 21 245 -1 272 -12 15 1 16 151 13 136 -3
165 -2 165 10 0 19 -44 50 -80 55 -16 2 -79 -4 -140 -15z"/>
<path d="M107 202 c-30 -63 -34 -94 -14 -111 36 -29 84 93 61 153 -10 25 -17
19 -47 -42z"/>
<path d="M456 173 c26 -38 54 -74 62 -80 38 -31 59 50 22 87 -23 23 -93 60
-115 60 -12 0 -3 -19 31 -67z"/>
</g>
</svg>
