<svg width="18" height="32" xmlns="http://www.w3.org/2000/svg" xmlns:xlink="http://www.w3.org/1999/xlink" overflow="hidden"><defs><clipPath id="clip0"><rect x="561" y="233" width="18" height="32"/></clipPath></defs><g clip-path="url(#clip0)" transform="translate(-561 -233)"><path d="M8.18183 29.4415C8.14428 29.403 8.12116 29.4 8.04316 29.4296 7.96516 29.4622 7.93917 29.4593 7.86406 29.4148 7.8005 29.3734 7.74561 29.3674 7.63872 29.3822 7.51451 29.397 7.47116 29.3852 7.24872 29.2785 7.00028 29.1571 6.99738 29.1571 6.6594 29.1571 6.28961 29.1571 6.17984 29.1245 6.1654 29.0179 6.15674 28.9527 6.17694 28.9409 6.3445 28.9142 6.45717 28.8964 6.41962 28.8312 6.25494 28.7512 6.03539 28.6446 5.75518 28.4165 5.75518 28.3484 5.75518 28.3187 5.79273 28.2714 5.84184 28.2447 5.9285 28.1943 5.95163 28.1292 5.90251 28.0758 5.84472 28.0107 5.61072 27.516 5.61072 27.4538 5.61072 27.3797 5.65406 27.3323 5.73784 27.3175 5.84472 27.2967 5.85917 27.2168 5.77829 27.0923 5.64251 26.885 5.65117 26.6687 5.79561 26.6687 5.83318 26.6687 5.88517 26.6954 5.91406 26.728 5.97761 26.802 6.09894 26.805 6.12207 26.7369 6.13073 26.7072 6.17118 26.6539 6.21161 26.6184L6.28673 26.5532 6.22896 26.485C6.19717 26.4465 6.15674 26.3814 6.13651 26.334 6.11917 26.2895 6.04407 26.2125 5.97473 26.1622 5.82162 26.0496 5.76384 25.8896 5.82452 25.7385 5.89962 25.5549 6.03251 25.5223 6.04983 25.6823 6.05561 25.7474 6.07584 25.7682 6.13939 25.7741 6.2405 25.7859 6.27229 25.7119 6.20873 25.6052 6.17694 25.5519 6.1625 25.4394 6.15962 25.232 6.15384 24.8528 6.15096 24.8617 6.20583 24.8617 6.2665 24.8617 6.33584 25.0454 6.36473 25.2883 6.40228 25.5964 6.48606 25.6556 6.63051 25.4719 6.68251 25.4008 6.70851 25.3327 6.70851 25.2586 6.70851 25.1816 6.73162 25.1224 6.79806 25.0483L6.88472 24.9446 6.86739 24.6425C6.84429 24.3196 6.8125 24.2366 6.68539 24.1685 6.64206 24.1448 6.5814 24.0974 6.54961 24.0618 6.3994 23.893 5.68872 23.4694 5.55295 23.4694 5.52694 23.4694 5.46917 23.4427 5.42874 23.4101 5.38829 23.3775 5.34206 23.3509 5.32762 23.3509 5.31029 23.3509 5.19184 23.2472 5.05895 23.1228 4.92896 22.9954 4.80185 22.8828 4.77584 22.8739 4.6863 22.8384 4.61406 22.7258 4.40319 22.2992 4.25585 22.003 4.24719 21.9556 4.16917 21.3068 4.16051 21.218 4.16341 21.0788 4.17785 20.9958 4.22118 20.7825 4.21828 20.2345 4.17495 20.1486 4.15473 20.1101 4.1143 19.9234 4.08251 19.7339 4.04784 19.5443 4.01317 19.3636 4.00163 19.331 3.96984 19.251 3.51919 18.7029 3.12341 18.2586 2.92407 18.0364 2.75363 17.8172 2.70741 17.7224 2.66408 17.6335 2.61207 17.5239 2.58896 17.4795 2.56586 17.438 2.54851 17.3817 2.54851 17.358 2.54851 17.3136 2.43585 17.0322 2.35785 16.887 2.33474 16.8455 2.31742 16.7685 2.31742 16.7211 2.31742 16.5967 2.27409 16.4901 2.17296 16.3656 2.12385 16.3064 2.0863 16.2412 2.0863 16.2234 2.0863 16.2057 2.0603 16.1672 2.02853 16.1376 1.99674 16.1079 1.97075 16.0724 1.97075 16.0576 1.97075 15.9983 1.63563 15.5984 1.31785 15.2785 1.2543 15.2133 1.08386 15.0267 0.942301 14.8637 0.578312 14.4431 0.387645 14.2594 0.240309 14.1883 0.101636 14.1172 0.101636 14.1172 0.0120932 13.8713-0.0341376 13.744-0.0514624 13.6018-0.068806 13.2344-0.0803495 12.9263-0.100574 12.7338-0.12658 12.6805-0.149686 12.636-0.16703 12.562-0.16703 12.5146-0.16703 12.4642-0.193017 12.3694-0.224804 12.2983-0.311466 12.1028-0.299903 11.9043-0.195917 11.7177-0.146805 11.6318-0.0947931 11.5607-0.0803495 11.5607-0.0630248 11.5607 0.0496427 11.4629 0.173873 11.3415 0.44542 11.0749 0.569631 10.9682 0.604299 10.9682 0.621643 10.9682 0.656311 10.9416 0.685198 10.909 0.714085 10.8764 0.751635 10.8497 0.77186 10.8497 0.81809 10.8497 0.945202 10.7046 1.01452 10.5683 1.06653 10.4676 1.07519 10.3995 1.07519 10.0943 1.07519 9.82772 1.06363 9.71515 1.02896 9.64998 1.00298 9.60259 0.971189 9.48705 0.956745 9.39819 0.884527 8.98641 0.881646 8.9094 0.919196 8.79386 0.942301 8.73166 0.959645 8.65462 0.959645 8.625 0.959645 8.59538 0.985632 8.52134 1.01452 8.45912 1.06075 8.36431 1.07231 8.25472 1.08386 7.75705 1.1012 7.15864 1.07807 6.79723 1.00586 6.55433 0.924977 6.29364 0.890308 5.94408 0.924977 5.81966 0.974089 5.65377 0.968307 5.36937 0.916314 5.31013 0.893189 5.28348 0.841196 5.19756 0.797866 5.11757L0.722748 4.96945 0.722748 4.23776C0.725648 3.55939 0.719867 3.50014 0.667854 3.43201 0.636086 3.39053 0.61298 3.31351 0.61298 3.24536 0.61298 3.14465 0.633186 3.11206 0.792084 2.95505 1.10986 2.64105 1.38141 2.30926 1.4912 2.09598 1.55185 1.98044 1.63275 1.84713 1.6703 1.79382 1.70785 1.74345 1.73964 1.68125 1.73964 1.66051 1.73964 1.61905 1.91874 1.45907 1.96785 1.45907 2.03141 1.45907 2.28853 1.30502 2.28853 1.26652 2.28853 1.23985 2.24518 1.21615 2.17296 1.20431 2.10941 1.19246 2.04875 1.17172 2.04007 1.15988 2.03141 1.14507 1.9823 1.11247 1.93318 1.08582 1.76274 1.00287 1.66742 0.946582 1.64719 0.914003 1.58652 0.822158 1.67896 0.549634 1.82342 0.386703 1.9043 0.291903 1.95919 0.285975 2.25386 0.339294 2.3983 0.362989 2.49364 0.365963 2.60919 0.342268 2.75653 0.312644 2.77675 0.315599 2.95007 0.398541L3.13786 0.487413 3.31118 0.392613C3.51919 0.280046 3.70986 0.253396 3.89762 0.303741 3.97274 0.327456 4.18652 0.345222 4.36852 0.348177 4.6314 0.351151 4.73541 0.365963 4.87406 0.419282 4.96941 0.454834 5.13119 0.505199 5.23517 0.528894 5.33918 0.552589 5.46341 0.585167 5.5125 0.602953 5.56161 0.617765 5.76962 0.629603 5.97473 0.629603 6.27807 0.629603 6.37629 0.617765 6.5005 0.570356 6.58428 0.537777 6.68539 0.511108 6.72584 0.511108 6.76917 0.511108 6.8905 0.47853 6.99738 0.440022 7.12739 0.389658 7.28917 0.360034 7.49138 0.348177 7.76871 0.327456 7.8005 0.33041 7.91605 0.392613 7.98539 0.428165 8.07205 0.508153 8.1125 0.567401 8.18183 0.671084 8.18183 0.685896 8.18183 1.2754 8.18183 1.79382 8.17317 1.90936 8.12406 2.09005 8.00561 2.5196 7.94206 2.70325 7.91605 2.72104 7.90161 2.73287 7.86406 2.7951 7.83227 2.86323 7.80338 2.9284 7.74273 3.04392 7.6994 3.11798 7.57517 3.33128 7.51451 3.60382 7.54628 3.79933 7.56072 3.8882 7.58673 4.11038 7.60695 4.28812 7.62716 4.46882 7.65606 4.64656 7.67627 4.68805 7.6965 4.72951 7.7225 4.82135 7.73406 4.89539 7.74561 4.96945 7.77161 5.0613 7.79184 5.10276 7.84383 5.21237 7.92183 5.45529 7.95362 5.60341 7.96806 5.6745 7.99117 5.74856 8.00561 5.76634 8.01717 5.78411 8.04606 5.87298 8.06629 5.96185 8.08649 6.05072 8.12116 6.15145 8.14138 6.18403 8.16449 6.21661 8.18183 6.2729 8.18183 6.30845 8.18183 6.34399 8.20784 6.44176 8.23961 6.5247 8.27139 6.60765 8.29738 6.70837 8.29738 6.74984 8.29738 6.78834 8.32339 6.89795 8.35516 6.98978 8.43606 7.22677 8.43894 7.8548 8.36094 8.05919 8.27428 8.2873 8.18183 8.58947 8.18183 8.65167 8.18183 8.68425 8.15873 8.76128 8.13272 8.82348 8.06339 8.99234 8.03738 10.1654 8.10383 10.2217 8.17027 10.281 8.28006 10.1269 8.25405 10.0055 8.20206 9.73589 8.20494 9.57889 8.26271 9.48114 8.2945 9.42782 8.34361 9.30339 8.3696 9.20564 8.43316 8.98346 8.45628 8.95384 8.56895 8.95384 8.70182 8.95384 8.75383 9.00716 8.76828 9.1612 8.77694 9.23526 8.80583 9.35967 8.83183 9.4367 8.88961 9.59963 8.9445 9.61147 9.0196 9.47225 9.08315 9.34783 9.24783 9.26784 9.35182 9.30932 9.42982 9.33895 9.43272 9.34485 9.41828 9.52557 9.39515 9.7744 9.44426 9.94621 9.53671 9.94621 9.58872 9.94621 9.62627 9.91068 9.68694 9.79809 9.73027 9.71813 9.76782 9.62333 9.76782 9.58777 9.77072 9.5552 9.79671 9.50186 9.8285 9.47225 9.88049 9.42484 9.88627 9.38041 9.88627 9.05455L9.88627 8.69315 9.98738 8.60131C10.0972 8.50355 10.2676 8.47393 10.3109 8.54799 10.3225 8.56575 10.3283 8.66648 10.3225 8.76721 10.3196 8.86792 10.3225 8.97753 10.334 9.01011 10.36 9.09898 10.4323 9.08714 10.4496 8.99234 10.4583 8.94495 10.4843 8.84422 10.5074 8.76128 10.5305 8.68129 10.5565 8.52725 10.5652 8.42061 10.5796 8.23991 10.6749 7.9407 10.7443 7.85183 10.7616 7.83111 10.8049 7.73038 10.8367 7.62967 10.8916 7.46081 10.8974 7.37489 10.8974 6.69652 10.8974 6.28474 10.9118 5.89965 10.9234 5.84336 10.9696 5.65968 11.1314 5.21535 11.2007 5.07018 11.2729 4.92502 11.5243 4.64656 11.7727 4.43624 11.9027 4.32368 12.2552 3.83488 12.2552 3.76378 12.2552 3.74601 12.2812 3.68676 12.3158 3.63047 12.3823 3.52086 12.3794 3.45273 12.2956 3.23648 12.2552 3.1328 12.2436 3.01727 12.2436 2.71806 12.2436 2.33297 12.2436 2.33297 12.3505 2.10487L12.4574 1.87973 12.414 1.7079C12.3909 1.61312 12.3707 1.50351 12.3707 1.46795 12.3707 1.42945 12.3447 1.32281 12.3129 1.23096 12.2812 1.13618 12.2552 1.0236 12.2552 0.97916 12.2552 0.934725 12.2407 0.890289 12.2263 0.881406 12.2089 0.869568 12.1685 0.807346 12.1367 0.742189 12.0934 0.653318 12.0818 0.59407 12.0963 0.514082 12.1483 0.217844 12.1454 0.0786081 12.0847-0.0250753 12.024-0.125785 12.0067-0.276878 12.0471-0.336125 12.0587-0.350937 12.1252-0.398328 12.1974-0.436835 12.3187-0.504965 12.3563-0.510894 12.7867-0.510894L13.246-0.510894 13.2749-0.422023C13.2894-0.371658 13.3183-0.29169 13.3414-0.238351 13.3645-0.188006 13.3818-0.131713 13.3818-0.113947 13.3818-0.0724656 13.5234-0.013218 13.5754-0.0339585 13.6014-0.0458158 13.6129-0.0961608 13.61-0.179104 13.6043-0.327223 13.6216-0.368704 13.7082-0.410185 13.7429-0.424997 13.8036-0.457575 13.844-0.48127 13.9451-0.543492 14.3582-0.540518 14.4449-0.478316 14.4796-0.454621 14.5085-0.413139 14.5085-0.389444 14.5085-0.300573 14.5951-0.312411 14.7107-0.419068 14.7742-0.478316 14.8436-0.525706 14.8667-0.525706 14.9245-0.525706 15.0516-0.416094 15.0718-0.347963 15.0949-0.273904 15.1642-0.273904 15.274-0.347963 15.3723-0.416094 15.5167-0.424997 15.5831-0.368704 15.6063-0.350937 15.6496-0.29169 15.6785-0.238351 15.7276-0.152454 15.7276-0.131713 15.6929-0.0221012 15.6698 0.0460296 15.6178 0.149713 15.5745 0.205987 15.5311 0.26228 15.4907 0.315599 15.4849 0.327456 15.4791 0.339294 15.4271 0.383729 15.3694 0.425211 15.2654 0.496296 15.0862 0.718475 15.0862 0.771794 15.0862 0.786605 15.0603 0.822158 15.0314 0.848827 14.9158 0.955465 14.7714 1.32281 14.7511 1.55387 14.7396 1.67237 14.7165 1.79974 14.6934 1.8353 14.6182 1.95675 14.5374 2.21448 14.52 2.37741 14.5114 2.46628 14.4796 2.59366 14.4507 2.65881 14.4218 2.72399 14.39 2.8573 14.3785 2.95505 14.3669 3.05281 14.3496 3.14761 14.3351 3.16242 14.3236 3.18021 14.3034 3.23945 14.2918 3.29573 14.2802 3.35202 14.2514 3.42608 14.2311 3.45866 14.208 3.49126 14.1907 3.55939 14.1907 3.61271 14.1907 3.75194 14.1416 3.85562 14.0636 3.8882 13.9914 3.91487 13.896 4.03039 13.9163 4.06595 13.922 4.07778 13.9422 4.21999 13.9567 4.37995 13.974 4.53993 14.0058 4.80654 14.0289 4.96945 14.0809 5.32198 14.0925 7.06681 14.0462 7.23566 14.0289 7.29195 13.9971 7.43118 13.974 7.54375 13.9509 7.65632 13.9134 7.77481 13.8932 7.81036 13.87 7.84294 13.844 7.92589 13.8325 7.99106 13.8209 8.05624 13.766 8.17176 13.7111 8.25175 13.6563 8.32878 13.6129 8.4058 13.6129 8.42356 13.6129 8.44135 13.5869 8.48874 13.5551 8.53022 13.5234 8.57168 13.4974 8.62797 13.4974 8.65462 13.4974 8.68129 13.48 8.72868 13.4569 8.76128 13.4367 8.79386 13.4078 8.86792 13.3963 8.92421 13.3847 8.98049 13.35 9.06047 13.3212 9.09898 13.246 9.19378 13.246 9.33895 13.3212 9.33895 13.35 9.33895 13.3818 9.32116 13.3905 9.30042 13.4049 9.26191 13.6591 9.06936 13.8036 8.98939 13.8411 8.96865 13.9509 8.94495 14.052 8.93902 14.1965 8.93014 14.2456 8.93902 14.312 8.98641 14.4045 9.05455 14.4131 9.11677 14.3496 9.27079 14.2889 9.41596 14.3294 9.45447 14.4651 9.38929 14.7771 9.23526 15.0978 9.46039 14.9129 9.70331 14.8811 9.74478 14.8551 9.80107 14.8551 9.82772 14.8551 9.85734 14.8291 9.92549 14.7945 9.98177 14.7511 10.0529 14.7425 10.0914 14.7627 10.118 14.7945 10.1536 14.9447 10.2395 15.0371 10.2691 15.0978 10.2899 15.1007 10.3639 15.04 10.4794 15.0169 10.5298 14.9851 10.6216 14.9707 10.6868 14.9563 10.752 14.936 10.8349 14.9274 10.8705 14.91 10.9208 14.9245 10.9445 14.9938 10.9801 15.0429 11.0067 15.092 11.0541 15.1007 11.0897 15.1383 11.2082 15.0834 11.8332 15.0111 12.1206 14.9476 12.3635 14.8378 12.6508 14.6905 12.9382 14.6645 12.9886 14.6182 13.1337 14.5865 13.2641 14.5287 13.4833 14.5258 13.5869 14.5229 14.5527 14.5229 15.4592 14.5287 15.6221 14.5691 15.7228 14.5951 15.788 14.6298 15.8946 14.6471 15.9598 14.6616 16.025 14.6876 16.1198 14.7049 16.1672 14.7223 16.2175 14.7627 16.3508 14.7945 16.4634 14.8262 16.5789 14.8811 16.7537 14.9129 16.8574 14.9851 17.0885 14.9851 17.2395 14.9129 17.3521 14.8811 17.4025 14.8551 17.4736 14.8551 17.515 14.8551 17.5565 14.8291 17.6691 14.7974 17.7639 14.7511 17.8913 14.7338 18.0275 14.728 18.3208 14.7165 18.7 14.7165 18.7059 14.6298 18.7977 14.5489 18.8866 14.5431 18.9103 14.5229 19.2036 14.4883 19.7783 14.4796 19.8583 14.4622 19.8909 14.4507 19.9086 14.4218 20.0123 14.3987 20.1189 14.3467 20.3589 14.3409 20.7203 14.3871 20.9988 14.4045 21.1143 14.4276 21.4402 14.4362 21.7246 14.4507 22.2489 14.4247 22.5303 14.3467 22.6607 14.3236 22.6962 14.3063 22.7495 14.3063 22.7762 14.3063 22.8651 14.1156 23.1228 13.8325 23.419 13.6794 23.579 13.5551 23.7212 13.5551 23.736 13.5551 23.7508 13.5263 23.7715 13.4945 23.7804 13.4598 23.7923 13.3789 23.8515 13.3125 23.9108 13.1334 24.0767 13.0611 24.1211 12.96 24.1211 12.8994 24.1211 12.8329 24.1507 12.7723 24.204L12.6769 24.284 11.738 24.2781C11.1256 24.2751 10.7674 24.2603 10.7125 24.2396 10.6374 24.2129 10.6143 24.2159 10.5536 24.2692 10.3081 24.4706 10.1636 24.524 9.70139 24.5951 9.60894 24.6069 9.52226 24.6306 9.50782 24.6454 9.49337 24.6602 9.5136 24.758 9.55983 24.8765 9.60026 24.992 9.64071 25.1253 9.64649 25.1786 9.66672 25.3179 9.71293 25.3446 9.85738 25.306 9.92382 25.2883 9.99604 25.2794 10.0192 25.2883 10.0914 25.3179 10.0538 25.5164 9.93248 25.7504 9.91228 25.7919 9.88339 25.8778 9.87183 25.94 9.86316 26.0052 9.83428 26.0851 9.81115 26.1177 9.7476 26.2125 9.76204 26.3103 9.84294 26.3488 9.95561 26.4021 10.0018 26.3399 10.0018 26.1325 10.0018 25.9667 10.0076 25.9548 10.0972 25.8985 10.1492 25.863 10.2272 25.8422 10.2734 25.8452 10.36 25.8541 10.36 25.8541 10.3514 26.0318 10.3485 26.1385 10.3225 26.257 10.2849 26.328 10.2416 26.4199 10.2301 26.4762 10.2445 26.5858 10.2618 26.7102 10.256 26.7339 10.1752 26.8257 10.0076 27.0212 10.0914 27.2493 10.2618 27.0598 10.3514 26.9561 10.4554 26.9205 10.5652 26.9472 10.6634 26.9738 10.6547 27.042 10.5478 27.1457 10.4438 27.2434 10.3398 27.436 10.3629 27.4893 10.3687 27.51 10.4063 27.5278 10.4467 27.5278 10.5796 27.5278 10.5594 27.59 10.3514 27.7944 10.1809 27.9603 10.1463 28.0107 10.1463 28.0877 10.1463 28.1736 10.1521 28.1825 10.2127 28.1617 10.3629 28.1114 10.3918 28.1262 10.4005 28.2714 10.4092 28.4047 10.4034 28.4165 10.2358 28.5883 10.1376 28.689 10.0249 28.7779 9.98159 28.7898 9.93826 28.7987 9.84004 28.8312 9.76494 28.8638 9.68982 28.8934 9.5945 28.9201 9.54827 28.9201 9.50494 28.9201 9.44138 28.9409 9.41249 28.9645 9.38071 28.9882 9.3345 29.009 9.31139 29.009 9.28538 29.009 9.21605 29.0623 9.15539 29.1245 9.08315 29.1986 9.00516 29.2489 8.93872 29.2608 8.88094 29.2726 8.80873 29.2993 8.77694 29.323 8.74517 29.3467 8.69028 29.3645 8.65849 29.3645 8.62672 29.3645 8.56317 29.3852 8.51694 29.4089 8.38404 29.48 8.23095 29.4948 8.18183 29.4415ZM12.2552 18.4274C12.2638 18.3504 12.2927 18.2645 12.3187 18.2349 12.3418 18.2053 12.3707 18.1223 12.3794 18.0483 12.3909 17.9742 12.4111 17.8557 12.4285 17.7817 12.4429 17.7076 12.466 17.3225 12.4747 16.9226 12.4891 16.3064 12.5007 16.1761 12.5469 16.0664 12.5787 15.9953 12.6018 15.9094 12.6018 15.8739 12.6018 15.8413 12.622 15.7465 12.6451 15.6695 12.7087 15.4562 12.7231 14.9319 12.6712 14.7008 12.648 14.5942 12.6163 14.4609 12.6047 14.4016 12.5932 14.3424 12.5614 14.2624 12.5354 14.2239 12.5065 14.1854 12.4863 14.1261 12.4863 14.0906 12.4863 13.978 12.4545 13.9306 12.3823 13.9306 12.3014 13.9306 12.2552 14.0224 12.2552 14.1913 12.2552 14.2624 12.2147 14.3779 12.1396 14.5171 12.076 14.6356 12.024 14.7512 12.024 14.7719 12.024 14.7926 12.0645 14.8548 12.1136 14.9111 12.2205 15.0326 12.3707 15.2548 12.3707 15.2933 12.3707 15.3081 12.1916 15.5066 11.9749 15.7376L11.5791 16.1583 11.5705 16.6649C11.5618 16.964 11.5445 17.204 11.5243 17.2425 11.5011 17.2958 11.5011 17.3343 11.53 17.4054 11.5503 17.4587 11.5763 17.5476 11.5907 17.6039 11.6023 17.6602 11.6456 17.7668 11.686 17.8409 11.7265 17.915 11.7814 18.0157 11.8045 18.0631 11.8305 18.1134 11.8767 18.1934 11.9085 18.2408 11.9403 18.2912 11.9894 18.3771 12.0212 18.4393 12.1252 18.6318 12.2349 18.6289 12.2552 18.4274ZM5.82162 17.2899C5.83318 17.1773 5.84762 17.044 5.8534 16.9966 5.86207 16.8959 5.80429 16.5049 5.76096 16.3864 5.73205 16.3094 5.57029 16.1524 5.52118 16.1524 5.50674 16.1524 5.4374 16.0635 5.36518 15.9539 5.29585 15.8413 5.16584 15.6725 5.07917 15.5747 4.92608 15.4029 4.88273 15.2992 4.84518 15.0267 4.8394 14.9852 4.83361 14.9437 4.83361 14.9348 4.83073 14.9259 4.7874 14.8993 4.73829 14.8726 4.6863 14.846 4.58807 14.7778 4.52162 14.7156 4.41473 14.6238 4.40319 14.6001 4.42918 14.5468 4.44652 14.5142 4.50429 14.4609 4.55919 14.4283 4.64007 14.3809 4.65741 14.3512 4.65741 14.2713 4.65741 14.212 4.6314 14.1379 4.58807 14.0876 4.47541 13.9484 4.45518 13.8832 4.45518 13.664L4.45518 13.4536 4.58807 13.3974C4.66029 13.3648 4.72963 13.3381 4.74117 13.3381 4.75273 13.3381 4.79896 13.4063 4.8423 13.4862 4.92029 13.6314 4.98963 13.6758 5.0214 13.5929 5.03006 13.5692 5.0214 13.3115 5.00408 13.0211 4.93762 12.0406 4.93762 11.7829 4.98963 11.4748 5.01562 11.3178 5.05319 11.1519 5.07629 11.1015 5.16007 10.909 5.26406 10.512 5.26406 10.3876 5.26406 10.3136 5.2785 10.2276 5.29295 10.1951 5.31029 10.1654 5.3565 10.0262 5.39407 9.88994 5.48939 9.55222 5.51828 9.13453 5.47495 8.76128 5.41718 8.26656 5.4374 7.9733 5.54429 7.81332 5.5934 7.7363 5.5905 7.49636 5.53563 7.2949 5.5125 7.20603 5.47785 7.00459 5.46341 6.85056 5.44895 6.69652 5.42584 6.47729 5.4114 6.36177 5.38539 6.12183 5.4374 5.54119 5.55007 4.85098 5.56739 4.7532 5.5934 4.58139 5.61072 4.46587 5.62517 4.3533 5.65406 4.1637 5.67428 4.04816 5.70607 3.85265 5.70317 3.82896 5.63961 3.66307 5.59918 3.56827 5.54717 3.4557 5.51828 3.4172 5.48939 3.37867 5.46629 3.33128 5.46629 3.31054 5.46629 3.24241 5.24095 3.04097 4.93474 2.83656 4.7614 2.72399 4.56785 2.59068 4.49851 2.54034 3.99873 2.18188 4.01317 2.18188 3.99007 2.51072 3.98141 2.64105 3.9583 2.7951 3.94096 2.85137 3.92073 2.90766 3.89762 3.08541 3.88606 3.24536 3.86874 3.51198 3.87452 3.5416 3.92941 3.62159 3.96406 3.66898 3.99297 3.72527 3.99297 3.74601 3.99297 3.76675 4.01895 3.826 4.04784 3.87635 4.07673 3.92671 4.1114 4.02446 4.12296 4.0926 4.14028 4.19925 4.13162 4.23481 4.06807 4.33256 4.02762 4.39774 3.99297 4.46882 3.99297 4.48956 3.99297 4.54881 3.73006 4.80654 3.66941 4.80654 3.63474 4.80654 3.58563 4.85986 3.53652 4.94873 3.49319 5.02575 3.40941 5.13536 3.34873 5.19461L3.24184 5.30124 3.26785 5.6834C3.29386 6.00629 3.29096 6.0922 3.25053 6.22846 3.18697 6.45953 3.0714 6.69947 2.96164 6.83278 2.90962 6.89795 2.86629 6.97497 2.86629 7.00164 2.86629 7.03126 2.83741 7.11125 2.80274 7.18234 2.75941 7.26825 2.7363 7.37194 2.73052 7.51708 2.72474 7.62967 2.70741 7.76296 2.69297 7.81036 2.67563 7.85775 2.66408 7.95255 2.66408 8.02069 2.66408 8.21029 2.53697 8.67536 2.4243 8.89754L2.32318 9.09603 2.31452 9.56408C2.31164 9.8692 2.29429 10.0706 2.26831 10.1358 2.24808 10.1891 2.23074 10.2751 2.23074 10.3224 2.23074 10.4202 2.15274 10.6128 2.11231 10.6128 2.04875 10.6128 2.09496 10.752 2.19031 10.8527 2.27409 10.9386 2.29719 10.9919 2.30874 11.1075 2.31742 11.1845 2.33764 11.2645 2.35209 11.2852 2.36653 11.3059 2.3983 11.3859 2.41852 11.4629 2.43875 11.54 2.48496 11.6762 2.51675 11.7651 2.55141 11.8569 2.56874 11.9577 2.56008 12.005 2.55141 12.0495 2.56296 12.1473 2.58896 12.2243 2.6323 12.3546 2.6323 12.3753 2.5774 12.5916 2.54275 12.716 2.47342 12.9086 2.41852 13.0211 2.3463 13.1633 2.31742 13.2611 2.31742 13.3589 2.31742 13.4803 2.33186 13.507 2.44163 13.6166 2.64096 13.8151 2.92407 14.0609 2.9934 14.0935 3.02807 14.1113 3.11763 14.1676 3.19273 14.2209 3.27073 14.2713 3.34007 14.3157 3.35163 14.3157 3.36319 14.3157 3.42385 14.3661 3.4874 14.4283 3.55384 14.4875 3.68385 14.606 3.78208 14.689 4.05652 14.923 4.33963 15.2785 4.33963 15.3881 4.33963 15.5214 4.97517 16.0635 5.13407 16.0635 5.18606 16.0635 5.30451 16.2294 5.38829 16.4219 5.42874 16.5108 5.48939 16.73 5.52694 16.9078 5.5934 17.2366 5.70895 17.5269 5.76672 17.5062 5.78407 17.5002 5.80717 17.4025 5.82162 17.2899Z" fill-rule="evenodd" transform="matrix(1 0 0 -1 562 263)"/></g></svg>