<?xml version="1.0" standalone="no"?>
<!DOCTYPE svg PUBLIC "-//W3C//DTD SVG 20010904//EN"
 "http://www.w3.org/TR/2001/REC-SVG-20010904/DTD/svg10.dtd">
<svg version="1.0" xmlns="http://www.w3.org/2000/svg"
 width="522.000000pt" height="152.000000pt" viewBox="0 0 522.000000 152.000000"
 preserveAspectRatio="xMidYMid meet">

<g transform="translate(0.000000,152.000000) scale(0.100000,-0.100000)"
fill="#000000" stroke="none">
<path d="M2600 1499 c-221 -25 -435 -94 -510 -164 -24 -23 -28 -23 -140 -15
-161 12 -469 12 -635 0 -589 -44 -1043 -178 -1229 -365 -80 -80 -88 -110 -84
-306 3 -157 4 -166 30 -210 196 -333 1221 -522 2188 -403 249 31 533 100 696
170 l81 34 129 -35 c164 -45 432 -97 649 -126 231 -31 719 -34 888 -6 254 43
429 124 484 225 11 20 33 100 48 177 24 123 26 146 15 192 -80 360 -1020 750
-2005 833 -141 12 -497 11 -605 -1z m795 -68 c620 -84 1177 -264 1514 -489
156 -103 261 -230 261 -314 -3 -367 -1141 -422 -2165 -105 -560 174 -959 434
-959 626 1 86 53 150 169 206 95 46 193 70 410 99 17 2 163 3 325 1 227 -3
329 -8 445 -24z m-1398 -167 c18 -5 20 -10 13 -28 -4 -12 -20 -83 -34 -158
-23 -115 -25 -143 -16 -184 33 -149 210 -306 502 -447 70 -34 128 -65 128 -68
0 -4 -62 -19 -137 -33 -578 -110 -1265 -97 -1780 34 -477 122 -702 307 -592
487 49 79 193 173 364 238 208 78 550 142 885 165 131 9 629 5 667 -6z"/>
</g>
</svg>
