<?xml version="1.0" standalone="no"?>
<!DOCTYPE svg PUBLIC "-//W3C//DTD SVG 20010904//EN"
 "http://www.w3.org/TR/2001/REC-SVG-20010904/DTD/svg10.dtd">
<svg version="1.0" xmlns="http://www.w3.org/2000/svg"
 width="637.000000pt" height="375.000000pt" viewBox="0 0 637.000000 375.000000"
 preserveAspectRatio="xMidYMid meet">

<g transform="translate(0.000000,375.000000) scale(0.100000,-0.100000)"
fill="#000000" stroke="none">
<path d="M1047 3726 c10 -13 31 -40 47 -60 l29 -36 -16 -53 c-8 -28 -92 -299
-187 -602 -94 -302 -187 -599 -206 -660 -18 -60 -96 -308 -172 -550 l-137
-440 -163 -3 -162 -2 0 -144 0 -144 82 -22 c223 -60 453 -160 577 -250 137
-100 269 -284 475 -662 36 -66 37 -66 67 -58 64 19 119 70 147 137 9 24 20 43
24 43 3 0 12 -16 18 -36 7 -20 33 -58 59 -84 71 -73 151 -88 239 -42 43 22
101 93 109 134 9 44 21 43 35 -4 17 -58 92 -133 149 -148 101 -27 193 21 244
127 17 35 33 63 36 63 4 0 10 -15 13 -34 14 -75 121 -166 195 -166 86 0 179
67 208 151 17 48 33 64 33 34 0 -26 36 -88 72 -122 69 -66 143 -79 226 -37 54
27 108 93 119 147 8 37 18 34 31 -12 17 -55 83 -126 137 -147 112 -42 241 32
276 160 l12 41 13 -39 c8 -21 23 -54 35 -73 24 -39 93 -93 118 -93 9 0 27 21
41 47 74 139 291 414 446 563 125 120 281 242 337 264 30 11 51 27 57 41 10
25 244 166 460 275 55 27 345 186 455 248 261 148 645 373 645 378 0 1 -89
-42 -199 -96 l-199 -99 -43 41 c-48 43 -121 110 -354 319 -82 73 -152 136
-155 139 -3 3 -41 37 -85 75 -44 39 -84 75 -90 81 -5 6 -92 83 -192 172 -100
89 -185 166 -188 172 -3 5 -12 7 -19 4 -11 -4 -17 10 -26 53 -57 292 -205 576
-406 777 -44 45 -93 91 -110 104 -16 12 -67 52 -114 87 l-85 65 -1488 0 -1489
0 19 -24z m2026 -168 c-5 -24 -8 -140 -8 -258 l0 -216 -60 0 c-33 0 -70 -4
-81 -8 -20 -7 -22 -3 -33 91 -17 136 -58 339 -77 375 -9 16 -14 32 -11 34 5 5
164 21 230 23 l47 1 -7 -42z m-1785 -144 c124 -169 317 -455 366 -546 20 -36
45 -90 55 -118 l19 -52 -28 -27 c-16 -14 -95 -114 -176 -221 -81 -107 -182
-240 -224 -295 -213 -277 -490 -641 -558 -732 l-77 -102 -97 -1 c-57 0 -98 4
-98 10 0 8 151 498 302 975 27 88 60 194 73 235 13 41 48 154 78 250 30 96 75
240 100 320 25 80 67 214 93 298 27 86 52 151 58 149 6 -2 57 -66 114 -143z
m2366 -346 c3 -35 9 -96 12 -136 l7 -72 -34 7 c-19 5 -139 8 -267 8 l-232 0 6
41 c4 27 0 53 -10 79 -9 21 -15 39 -14 40 2 1 68 10 148 20 80 9 193 30 250
45 58 15 110 28 116 29 7 0 14 -24 18 -61z m-1204 -59 c52 -4 165 -5 251 -2
l156 6 -5 -55 c-2 -32 1 -64 8 -77 6 -13 10 -24 8 -26 -2 -2 -59 -11 -127 -20
-151 -20 -313 -51 -357 -70 -33 -14 -33 -14 -38 18 -3 18 -8 68 -11 112 -3 44
-8 93 -12 109 -5 25 -3 28 13 21 11 -4 62 -11 114 -16z m644 -221 c42 -287 74
-436 98 -465 6 -7 9 -13 7 -13 -38 -5 -285 -27 -286 -25 -2 1 2 17 8 36 7 20
11 124 11 260 l-1 226 54 -5 c29 -2 61 1 71 7 29 16 33 14 38 -21z m-1330
-228 c43 -186 45 -510 6 -699 -28 -131 -29 -128 37 -92 55 30 77 33 58 7 -34
-44 -129 -194 -185 -292 -19 -34 -56 -92 -81 -130 -25 -38 -63 -96 -84 -129
l-38 -60 -37 43 c-21 23 -45 58 -54 77 l-17 35 -309 0 c-209 0 -310 3 -310 10
0 9 518 695 710 940 25 32 97 126 160 209 63 83 118 151 122 151 3 0 14 -32
22 -70z m3168 -130 c95 -85 265 -238 378 -340 114 -102 271 -243 351 -314 79
-72 145 -133 147 -137 5 -12 -281 -146 -530 -250 -68 -28 -141 -59 -163 -69
-68 -31 -237 -90 -257 -90 -10 0 -18 4 -18 9 0 4 -46 104 -103 222 -57 118
-112 231 -121 253 l-18 38 36 77 c39 83 88 239 107 341 13 70 16 362 4 399 -4
15 -3 22 3 20 6 -2 89 -74 184 -159z m-1437 -325 c167 -19 316 -48 474 -90
120 -32 335 -104 411 -138 19 -8 38 -13 42 -11 5 3 8 1 8 -4 0 -5 24 -20 54
-33 39 -17 54 -29 54 -44 0 -11 57 -145 127 -298 70 -153 126 -280 123 -283
-14 -14 -162 -47 -318 -71 -189 -29 -426 -36 -622 -19 -81 7 -103 6 -139 -8
-57 -23 -113 -63 -198 -140 -82 -76 -134 -112 -182 -127 -19 -6 -100 -14 -182
-18 l-147 -6 0 647 0 647 33 4 c81 10 344 5 462 -8z m-615 -651 l0 -636 -92 6
c-418 30 -764 82 -978 148 -77 24 -177 73 -242 120 l-46 33 64 104 c36 58 75
123 86 145 11 23 33 57 48 76 15 19 51 76 80 125 29 50 75 125 102 168 27 43
46 82 43 87 -6 10 142 70 250 100 182 51 216 61 355 95 168 43 264 63 303 64
l27 1 0 -636z m-1017 -828 c70 -29 90 -120 39 -177 -23 -26 -38 -33 -80 -37
-49 -4 -54 -2 -87 31 -29 29 -35 42 -35 76 0 92 78 143 163 107z m365 -6 c127
-77 28 -254 -112 -200 -31 11 -55 47 -62 91 -4 25 0 43 18 69 41 61 97 76 156
40z m347 6 c40 -17 65 -60 65 -112 0 -28 -8 -44 -35 -71 -33 -33 -38 -35 -87
-31 -42 4 -57 11 -80 37 -50 56 -32 147 37 177 39 17 58 17 100 0z m386 -22
c74 -71 23 -194 -81 -194 -104 0 -156 123 -82 192 35 33 49 38 96 34 24 -3 49
-14 67 -32z m329 21 c37 -19 60 -62 60 -111 0 -28 -8 -44 -34 -70 -49 -49
-113 -49 -162 0 -26 26 -34 42 -34 70 0 95 89 153 170 111z"/>
</g>
</svg>
