<?xml version="1.0" standalone="no"?>
<!DOCTYPE svg PUBLIC "-//W3C//DTD SVG 20010904//EN"
 "http://www.w3.org/TR/2001/REC-SVG-20010904/DTD/svg10.dtd">
<svg version="1.0" xmlns="http://www.w3.org/2000/svg"
 width="196.000000pt" height="146.000000pt" viewBox="0 0 196.000000 146.000000"
 preserveAspectRatio="xMidYMid meet">

<g transform="translate(0.000000,146.000000) scale(0.100000,-0.100000)"
fill="#000000" stroke="none">
<path d="M81 1330 c-1 -14 -8 -101 -16 -195 -8 -93 -15 -209 -15 -256 0 -79
-2 -88 -22 -101 -23 -15 -23 -16 -5 -52 10 -23 17 -60 17 -100 0 -55 -3 -66
-23 -79 l-22 -14 24 -43 c24 -43 24 -43 17 -266 l-8 -224 946 0 946 0 0 228
c1 184 3 231 15 246 22 29 19 67 -5 73 -18 5 -20 14 -20 72 1 42 6 73 15 85
19 25 19 53 1 63 -9 6 -15 45 -20 138 -9 184 -32 413 -38 395 -7 -19 -28 -362
-28 -456 0 -55 -4 -73 -15 -78 -17 -6 -20 -42 -5 -51 6 -3 10 -42 10 -86 0
-62 -3 -81 -15 -85 -19 -8 -19 -33 1 -59 12 -16 15 -49 13 -162 0 -79 -3 -143
-6 -143 -3 0 -23 5 -43 11 -53 16 -103 4 -139 -33 -28 -29 -33 -30 -55 -19
-13 7 -39 16 -57 20 -32 6 -34 9 -37 54 -2 31 2 55 12 69 20 28 20 54 1 62
-19 7 -20 75 -3 123 10 28 10 36 -1 43 -11 6 -13 27 -8 89 3 45 1 84 -4 87 -5
3 -9 36 -9 73 0 116 -13 282 -21 274 -4 -4 -11 -80 -14 -168 -4 -88 -11 -170
-17 -182 -8 -16 -8 -30 -1 -46 13 -27 5 -119 -11 -129 -7 -5 -7 -17 2 -41 17
-48 16 -116 -3 -123 -19 -8 -19 -33 0 -58 9 -12 15 -42 15 -78 0 -55 -1 -58
-25 -58 -13 0 -36 5 -50 12 -21 9 -25 18 -25 55 0 24 5 53 11 64 7 13 7 24 1
32 -6 7 -10 55 -9 107 0 52 -3 145 -8 205 -7 92 -10 104 -16 73 -8 -36 -19
-227 -19 -333 0 -51 -20 -92 -39 -80 -6 3 -11 14 -11 24 0 21 -27 48 -55 53
-15 2 -21 12 -23 40 -4 47 -23 64 -52 48 -20 -11 -26 -8 -51 23 -16 20 -46 46
-67 58 -20 12 -47 31 -59 42 -14 12 -23 15 -23 8 0 -6 -19 -20 -43 -30 -23
-10 -59 -37 -80 -60 -23 -26 -46 -41 -61 -41 -29 0 -43 -16 -48 -55 -2 -24 -8
-31 -31 -33 -16 -2 -34 -14 -43 -28 -9 -13 -23 -24 -30 -24 -8 0 -14 -8 -14
-17 0 -13 -4 -10 -14 9 -9 17 -15 63 -16 125 -2 170 -11 284 -21 278 -5 -4 -9
-44 -9 -90 0 -46 -4 -86 -9 -89 -5 -4 -5 -23 0 -48 6 -26 6 -45 0 -51 -5 -5
-7 -32 -4 -58 3 -29 1 -54 -5 -62 -7 -8 -7 -18 -2 -27 6 -8 10 -37 10 -63 0
-47 -1 -48 -27 -45 -27 3 -28 6 -31 65 -2 41 2 72 12 91 14 27 14 31 -4 47
-24 22 -27 83 -5 124 13 26 13 30 0 41 -19 15 -20 112 -3 140 10 15 10 22 0
32 -7 7 -12 41 -13 82 0 39 -6 134 -12 211 l-12 140 -13 -165 c-7 -91 -12
-185 -12 -211 0 -25 -5 -50 -12 -57 -9 -9 -9 -18 0 -37 19 -40 15 -122 -5
-134 -16 -8 -16 -12 1 -50 21 -44 17 -93 -10 -122 -14 -16 -14 -20 0 -48 10
-19 16 -56 16 -101 l0 -70 -54 0 c-38 0 -60 -6 -79 -20 -14 -11 -40 -20 -61
-20 l-35 0 -3 173 c-3 154 -1 176 16 211 l20 39 -22 15 c-19 13 -22 23 -22 86
0 48 5 79 15 92 18 24 18 29 1 46 -9 10 -15 53 -19 138 -5 123 -25 386 -31
425 -2 15 -4 14 -5 -5z"/>
</g>
</svg>
