<?xml version="1.0" standalone="no"?>
<!DOCTYPE svg PUBLIC "-//W3C//DTD SVG 20010904//EN"
 "http://www.w3.org/TR/2001/REC-SVG-20010904/DTD/svg10.dtd">
<svg version="1.0" xmlns="http://www.w3.org/2000/svg"
 width="148.000000pt" height="146.000000pt" viewBox="0 0 148.000000 146.000000"
 preserveAspectRatio="xMidYMid meet">

<g transform="translate(0.000000,146.000000) scale(0.100000,-0.100000)"
fill="#000000" stroke="none">
<path d="M652 1420 c-284 -39 -526 -260 -588 -536 -25 -113 -16 -283 21 -382
81 -221 240 -375 465 -449 74 -24 254 -29 344 -9 479 107 709 665 438 1063
-155 228 -417 348 -680 313z m213 -175 c149 -38 285 -143 352 -271 204 -387
-116 -836 -551 -773 -327 48 -535 394 -422 704 92 254 368 405 621 340z"/>
<path d="M624 1100 c-71 -23 -142 -81 -180 -146 -78 -133 -71 -342 15 -467
116 -170 403 -193 538 -44 40 45 89 145 77 156 -5 5 -38 16 -74 25 -36 10 -72
19 -82 22 -12 4 -20 -5 -28 -33 -27 -81 -77 -123 -145 -123 -47 0 -99 25 -120
56 -48 74 -57 247 -17 337 37 84 122 116 206 78 40 -17 50 -28 69 -70 12 -28
27 -49 33 -47 5 2 45 10 87 16 87 14 86 12 41 101 -27 55 -81 104 -143 132
-67 30 -197 33 -277 7z"/>
</g>
</svg>
