<?xml version="1.0" standalone="no"?>
<!DOCTYPE svg PUBLIC "-//W3C//DTD SVG 20010904//EN"
 "http://www.w3.org/TR/2001/REC-SVG-20010904/DTD/svg10.dtd">
<svg version="1.0" xmlns="http://www.w3.org/2000/svg"
 width="217.000000pt" height="269.000000pt" viewBox="0 0 217.000000 269.000000"
 preserveAspectRatio="xMidYMid meet">

<g transform="translate(0.000000,269.000000) scale(0.100000,-0.100000)"
fill="#000000" stroke="none">
<path d="M870 2680 c-1 -3 37 -40 82 -83 80 -75 82 -78 63 -93 -22 -17 -22
-17 -127 106 -25 30 -48 53 -50 50 -6 -10 4 -420 10 -420 4 0 38 28 76 62 50
45 70 58 76 48 5 -9 -10 -37 -46 -84 -57 -75 -57 -71 1 -91 17 -6 15 -10 -20
-25 -23 -10 -51 -34 -65 -56 -44 -67 -31 -200 27 -266 13 -15 12 -18 -9 -31
-54 -34 -61 -36 -99 -20 -35 14 -46 13 -156 -12 -65 -14 -166 -30 -226 -35
-93 -9 -120 -16 -200 -52 -50 -22 -118 -61 -149 -85 l-58 -44 0 -68 c0 -78 20
-154 49 -185 11 -11 48 -93 82 -180 34 -88 82 -191 106 -230 30 -50 41 -76 36
-91 -3 -11 -6 -31 -5 -43 1 -13 -7 -36 -17 -51 -19 -26 -19 -81 0 -81 18 0 9
-52 -10 -57 -29 -7 -42 -50 -48 -150 -6 -87 -4 -94 22 -140 50 -86 67 -99 218
-154 112 -42 400 -99 501 -100 45 0 107 -4 139 -8 32 -4 60 -4 63 1 3 4 45 8
93 8 159 0 491 78 628 149 45 22 61 39 98 104 26 46 28 53 22 140 -6 100 -19
143 -48 150 -19 5 -28 57 -10 57 19 0 19 55 0 81 -10 15 -18 38 -17 51 1 12
-2 32 -5 43 -5 15 6 41 36 91 24 39 72 142 106 230 34 87 71 169 82 180 29 31
49 107 49 185 l0 68 -57 44 c-32 24 -100 63 -150 85 -80 36 -107 43 -200 52
-60 5 -161 21 -226 35 -110 25 -121 26 -156 12 -38 -16 -45 -14 -99 20 -21 13
-22 16 -9 31 35 41 51 88 51 158 1 59 -3 77 -24 108 -14 22 -42 46 -65 56 -35
15 -37 19 -20 25 58 20 58 16 1 91 -36 47 -51 75 -46 84 6 10 26 -3 76 -48 38
-34 72 -62 76 -62 6 0 16 410 10 420 -2 3 -25 -20 -50 -50 -105 -123 -105
-123 -127 -106 -19 15 -17 18 63 93 45 43 83 80 82 83 0 3 -97 5 -215 5 -118
0 -215 -2 -215 -5z"/>
</g>
</svg>
