<?xml version="1.0" standalone="no"?>
<!DOCTYPE svg PUBLIC "-//W3C//DTD SVG 20010904//EN"
 "http://www.w3.org/TR/2001/REC-SVG-20010904/DTD/svg10.dtd">
<svg version="1.0" xmlns="http://www.w3.org/2000/svg"
 width="557.000000pt" height="612.000000pt" viewBox="0 0 557.000000 612.000000"
 preserveAspectRatio="xMidYMid meet">

<g transform="translate(0.000000,612.000000) scale(0.100000,-0.100000)"
fill="#000000" stroke="none">
<path d="M42 6077 l-32 -33 3 -1340 c3 -1198 5 -1352 20 -1464 79 -575 248
-1027 562 -1500 411 -620 1112 -1223 1858 -1596 302 -152 332 -158 475 -95
594 261 1211 704 1655 1186 565 614 873 1259 962 2015 13 104 15 347 15 1461
l0 1336 -39 31 -40 32 -2703 0 -2704 0 -32 -33z m5331 -147 c3 -3 8 -570 12
-1261 6 -918 5 -1269 -4 -1305 -6 -27 -20 -112 -32 -189 -35 -240 -107 -517
-186 -715 -6 -14 -20 -53 -32 -88 -12 -34 -44 -110 -71 -168 -28 -58 -50 -107
-50 -109 0 -2 -34 -61 -76 -132 -187 -314 -487 -686 -703 -871 -351 -300 -502
-409 -918 -658 -128 -76 -413 -216 -485 -238 -56 -17 -64 -14 -378 141 -183
91 -280 147 -443 256 -233 155 -346 239 -457 339 -41 37 -78 68 -82 68 -22 0
-371 351 -475 478 -129 157 -223 284 -223 301 0 6 -13 26 -30 44 -16 19 -30
37 -30 40 0 3 -13 26 -29 50 -38 55 -90 149 -142 257 -23 47 -46 93 -50 102
-5 10 -9 23 -9 30 0 6 -6 19 -13 27 -29 33 -147 365 -147 411 0 14 -4 30 -10
36 -11 11 -51 170 -74 294 -50 274 -50 253 -53 1590 -2 690 -1 1260 2 1268 4
11 438 13 2594 10 1424 -2 2592 -5 2594 -8z"/>
<path d="M2093 5478 c245 -598 351 -1032 402 -1651 l7 -78 -84 6 c-576 42
-1130 158 -1601 336 -72 27 -134 49 -139 49 -4 0 -8 -292 -8 -650 l0 -649 68
26 c530 202 1123 332 1630 359 l132 7 -5 -69 c-27 -320 -75 -619 -140 -874
-44 -170 -108 -394 -126 -435 -16 -38 -51 -130 -55 -145 -2 -8 -19 -54 -39
-102 -19 -48 -35 -92 -35 -98 0 -7 210 -10 633 -11 347 0 651 -1 675 -2 23 -1
42 2 42 7 0 4 -18 49 -41 99 -23 51 -42 99 -44 107 -2 9 -11 34 -20 56 -9 21
-27 71 -40 109 -142 428 -226 849 -259 1294 l-4 64 123 -7 c201 -10 498 -51
780 -106 224 -44 630 -162 838 -244 l87 -34 0 649 c0 458 -3 649 -11 649 -6 0
-38 -11 -72 -24 -108 -42 -398 -138 -507 -168 -361 -98 -832 -175 -1170 -190
l-65 -3 3 75 c13 304 97 764 207 1125 32 106 136 395 180 498 l15 37 -681 0
c-541 0 -680 -3 -676 -12z"/>
</g>
</svg>
