<?xml version="1.0" standalone="no"?>
<!DOCTYPE svg PUBLIC "-//W3C//DTD SVG 20010904//EN"
 "http://www.w3.org/TR/2001/REC-SVG-20010904/DTD/svg10.dtd">
<svg version="1.0" xmlns="http://www.w3.org/2000/svg"
 width="474.000000pt" height="246.000000pt" viewBox="0 0 474.000000 246.000000"
 preserveAspectRatio="xMidYMid meet">

<g transform="translate(0.000000,246.000000) scale(0.100000,-0.100000)"
fill="#000000" stroke="none">
<path d="M2152 2431 c-29 -10 -83 -39 -120 -64 -59 -41 -219 -169 -232 -186
-10 -13 -97 -69 -215 -139 -85 -50 -138 -90 -183 -136 -51 -53 -71 -67 -103
-72 -33 -6 -39 -10 -39 -30 0 -17 7 -25 24 -30 42 -10 95 16 164 80 37 34 120
95 184 135 138 84 186 121 329 251 173 157 266 207 263 140 -1 -14 4 -28 10
-32 25 -17 112 -7 171 19 33 14 73 26 89 27 24 1 30 -4 40 -34 10 -31 16 -36
53 -41 58 -7 104 -42 179 -136 76 -96 115 -130 242 -207 52 -32 108 -77 129
-102 21 -24 45 -44 54 -44 17 0 42 -25 52 -52 3 -10 19 -20 34 -24 15 -4 37
-14 48 -23 11 -10 38 -26 59 -37 68 -34 141 -109 177 -182 39 -76 44 -82 80
-82 65 0 115 -37 217 -161 74 -90 104 -112 232 -172 92 -43 158 -95 197 -153
19 -29 13 -37 -40 -54 -20 -6 -45 -23 -55 -36 -49 -71 -64 -84 -96 -84 -23 0
-43 -9 -65 -31 l-33 -31 -103 7 -104 7 -43 -47 c-111 -122 -105 -117 -140
-110 -29 6 -35 3 -50 -23 -10 -17 -18 -37 -18 -46 0 -24 -37 -38 -101 -39 -43
0 -64 5 -79 18 -15 13 -29 16 -59 11 -36 -5 -44 -2 -78 29 -21 19 -43 35 -50
35 -7 0 -28 -14 -46 -30 -19 -17 -46 -30 -60 -30 -28 0 -37 -9 -52 -55 -5 -16
-22 -36 -37 -44 -35 -20 -76 -2 -84 37 -4 21 -14 30 -42 39 -20 6 -41 8 -47 4
-5 -5 -29 -11 -53 -15 -60 -9 -118 11 -148 50 -34 44 -50 48 -95 24 -35 -17
-48 -19 -122 -11 -45 4 -99 16 -120 24 -21 9 -50 14 -65 11 -22 -4 -30 0 -45
27 -16 29 -20 31 -55 24 -20 -5 -62 -9 -92 -9 -73 -2 -83 -10 -77 -57 7 -52
-16 -52 -66 -3 -35 36 -37 36 -61 20 -40 -26 -75 -20 -112 19 -35 38 -64 44
-85 19 -7 -9 -22 -20 -33 -24 -22 -8 -88 4 -124 22 -24 12 -28 10 -47 -27 -3
-6 -7 -5 -11 3 -11 25 -55 34 -80 17 -42 -27 -121 -16 -130 19 -5 20 -12 22
-72 22 -38 1 -78 7 -91 13 -18 10 -30 10 -62 -3 -52 -21 -58 -20 -69 9 -13 34
-34 41 -87 27 -45 -12 -60 -8 -115 31 -12 8 -22 9 -32 2 -60 -44 -64 -46 -106
-39 -24 4 -51 15 -62 26 -10 10 -22 18 -26 18 -4 0 -12 15 -17 33 -8 24 -16
33 -37 35 -21 3 -30 -3 -43 -27 -8 -17 -27 -34 -41 -37 -36 -9 -108 2 -151 24
-36 19 -36 20 -15 31 25 13 29 36 8 44 -21 8 -50 -17 -43 -36 5 -14 3 -15 -13
-4 -14 8 -20 23 -20 49 0 34 3 38 24 38 14 0 36 -4 50 -10 36 -13 53 -4 66 36
17 50 53 64 183 73 62 4 122 13 134 19 33 18 46 71 34 138 -17 91 -14 121 12
139 16 10 35 13 55 9 29 -6 32 -4 32 19 0 26 32 57 59 57 8 0 25 -10 37 -21
31 -29 105 -37 138 -15 22 14 106 168 106 194 0 18 60 92 75 92 23 0 45 54 45
108 0 91 26 132 84 132 14 0 26 5 26 10 0 6 -22 10 -49 10 -43 0 -52 -4 -79
-35 -17 -19 -34 -51 -37 -72 -15 -91 -16 -93 -54 -112 -44 -23 -56 -36 -65
-74 -4 -15 -24 -66 -46 -113 -44 -95 -57 -101 -130 -64 -60 31 -94 27 -127
-15 -15 -20 -46 -44 -68 -54 -71 -32 -79 -49 -85 -169 l-5 -107 -95 -8 c-105
-8 -175 -28 -216 -59 -21 -17 -30 -19 -45 -10 -34 22 -85 15 -108 -14 -38 -48
-40 -158 -3 -171 9 -3 49 -25 87 -49 82 -50 144 -68 202 -60 25 3 43 2 43 -4
0 -14 55 -40 87 -40 15 0 37 -7 47 -15 24 -18 61 -19 105 -4 29 10 35 9 57
-12 21 -20 37 -24 92 -25 37 -1 84 -9 104 -18 47 -20 98 -20 145 -1 51 22 78
19 97 -10 25 -38 91 -68 140 -62 29 3 56 -3 91 -19 43 -20 57 -22 87 -14 20 6
41 17 48 25 9 10 24 13 55 8 29 -4 53 0 74 10 28 14 34 14 62 0 21 -10 44 -13
73 -9 41 6 42 6 55 -29 29 -82 161 -88 191 -9 6 14 15 26 22 28 7 2 28 8 47
14 40 13 102 0 136 -28 53 -46 126 -58 205 -35 107 32 108 31 145 -12 56 -66
131 -78 229 -38 33 13 60 23 61 22 30 -62 83 -97 147 -97 64 0 94 16 117 63
12 24 32 46 48 52 25 11 32 9 62 -18 29 -25 40 -28 72 -23 29 5 49 0 85 -19
63 -34 147 -35 195 -2 29 20 72 71 81 97 2 5 17 12 35 16 l32 6 -11 -30 c-9
-24 -9 -34 1 -46 16 -19 60 -21 65 -3 17 54 16 69 -4 74 -24 6 -24 6 -2 66 29
76 37 81 161 87 99 5 111 8 145 34 21 15 59 36 86 45 59 21 83 41 113 93 11
22 36 48 54 59 42 26 51 59 27 102 -31 56 -106 114 -215 168 -134 66 -154 81
-243 192 -97 122 -125 146 -188 167 -48 16 -56 23 -78 68 -40 80 -84 126 -176
188 -47 31 -91 68 -97 81 -9 21 -24 28 -54 24 -7 -1 -19 12 -28 29 -8 16 -23
30 -33 30 -10 0 -41 21 -70 46 -29 25 -87 69 -130 96 -48 32 -127 101 -209
184 -112 114 -139 136 -177 146 -37 10 -46 16 -46 35 0 12 -10 29 -22 37 -37
26 -96 20 -178 -19 -84 -41 -113 -42 -119 -5 -6 45 -35 50 -119 21z m1595
-2007 c8 -20 -13 -42 -27 -28 -12 12 -3 44 11 44 5 0 12 -7 16 -16z"/>
<path d="M2366 2293 c-11 -11 -6 -23 9 -23 8 0 15 4 15 9 0 13 -16 22 -24 14z"/>
<path d="M2532 2248 c2 -12 11 -24 21 -26 14 -3 18 1 15 20 -2 12 -11 24 -21
26 -14 3 -18 -1 -15 -20z"/>
<path d="M2690 2140 c0 -5 5 -10 11 -10 5 0 7 5 4 10 -3 6 -8 10 -11 10 -2 0
-4 -4 -4 -10z"/>
<path d="M2662 2059 c1 -13 8 -23 13 -21 15 3 12 35 -3 40 -9 3 -13 -3 -10
-19z"/>
<path d="M2540 2025 c0 -8 5 -15 10 -15 6 0 10 7 10 15 0 8 -4 15 -10 15 -5 0
-10 -7 -10 -15z"/>
<path d="M2704 1985 c-4 -9 -2 -21 4 -27 15 -15 44 -1 40 19 -4 23 -36 29 -44
8z"/>
<path d="M2683 1873 c-18 -6 -16 -30 2 -37 9 -3 18 1 22 10 7 18 -7 33 -24 27z"/>
<path d="M3830 1164 c0 -8 5 -12 10 -9 6 4 8 11 5 16 -9 14 -15 11 -15 -7z"/>
<path d="M676 1123 c-11 -11 -6 -23 9 -23 8 0 15 4 15 9 0 13 -16 22 -24 14z"/>
<path d="M3755 1080 c-8 -12 20 -24 35 -15 5 3 10 10 10 16 0 12 -37 12 -45
-1z"/>
<path d="M3976 1075 c4 -8 10 -15 15 -15 5 0 9 7 9 15 0 8 -7 15 -15 15 -9 0
-12 -6 -9 -15z"/>
<path d="M4040 1070 c0 -5 5 -10 10 -10 6 0 10 5 10 10 0 6 -4 10 -10 10 -5 0
-10 -4 -10 -10z"/>
<path d="M3880 1049 c0 -5 5 -7 10 -4 6 3 10 8 10 11 0 2 -4 4 -10 4 -5 0 -10
-5 -10 -11z"/>
<path d="M3966 1033 c-11 -11 -6 -23 9 -23 8 0 15 4 15 9 0 13 -16 22 -24 14z"/>
<path d="M640 1005 c-15 -18 -5 -35 21 -35 24 0 37 29 18 41 -19 12 -25 11
-39 -6z"/>
<path d="M4106 1001 c-7 -11 18 -33 27 -24 4 3 7 12 7 20 0 15 -26 18 -34 4z"/>
<path d="M3747 994 c-14 -15 -6 -34 14 -34 14 0 19 5 17 17 -3 18 -20 27 -31
17z"/>
<path d="M4456 964 c-3 -8 -1 -24 5 -35 14 -26 53 -22 56 6 1 16 1 16 -3 3 -7
-23 -40 -23 -48 -2 -4 9 -1 23 5 30 7 9 8 14 1 14 -5 0 -13 -7 -16 -16z"/>
<path d="M3896 963 c-11 -11 -6 -23 9 -23 8 0 15 4 15 9 0 13 -16 22 -24 14z"/>
<path d="M4077 954 c-8 -8 1 -24 14 -24 5 0 9 7 9 15 0 15 -12 20 -23 9z"/>
<path d="M755 930 c3 -5 14 -10 23 -10 15 0 15 2 2 10 -20 13 -33 13 -25 0z"/>
<path d="M3990 910 c0 -5 5 -10 11 -10 5 0 7 5 4 10 -3 6 -8 10 -11 10 -2 0
-4 -4 -4 -10z"/>
<path d="M4120 909 c0 -5 5 -7 10 -4 6 3 10 8 10 11 0 2 -4 4 -10 4 -5 0 -10
-5 -10 -11z"/>
<path d="M297 904 c-4 -4 -7 -16 -7 -26 0 -14 6 -19 23 -16 14 2 22 10 22 23
0 20 -25 32 -38 19z"/>
<path d="M575 880 c-3 -5 -1 -10 4 -10 6 0 11 5 11 10 0 6 -2 10 -4 10 -3 0
-8 -4 -11 -10z"/>
<path d="M670 869 c0 -14 5 -19 17 -17 26 5 29 38 4 38 -15 0 -21 -6 -21 -21z"/>
<path d="M3895 870 c-9 -15 4 -30 26 -30 12 0 19 7 19 20 0 21 -33 29 -45 10z"/>
<path d="M4027 874 c-15 -15 -7 -45 11 -42 9 2 17 12 17 22 0 20 -16 31 -28
20z"/>
<path d="M347 833 c-12 -11 -8 -22 14 -34 28 -14 48 3 29 26 -13 16 -32 20
-43 8z"/>
<path d="M4287 812 c-10 -11 -14 -27 -10 -42 12 -53 71 -68 99 -25 20 30 10
63 -23 76 -35 13 -48 11 -66 -9z m53 -42 c0 -5 -5 -12 -12 -16 -12 -8 -40 24
-32 38 6 10 44 -9 44 -22z"/>
<path d="M237 813 c-12 -11 -8 -23 8 -23 8 0 15 7 15 15 0 16 -12 20 -23 8z"/>
<path d="M4644 808 c-4 -6 3 -19 15 -29 27 -22 61 -10 61 21 0 16 -7 20 -34
20 -19 0 -38 -5 -42 -12z m43 -14 c-3 -3 -12 -4 -19 -1 -8 3 -5 6 6 6 11 1 17
-2 13 -5z"/>
<path d="M687 786 c-7 -18 1 -26 25 -26 11 0 18 7 18 20 0 23 -35 28 -43 6z"/>
<path d="M3600 758 c0 -19 2 -20 10 -8 13 19 13 30 0 30 -5 0 -10 -10 -10 -22z"/>
<path d="M3642 669 c2 -6 8 -10 13 -10 5 0 11 4 13 10 2 6 -4 11 -13 11 -9 0
-15 -5 -13 -11z"/>
<path d="M3430 600 c0 -5 5 -10 10 -10 6 0 10 5 10 10 0 6 -4 10 -10 10 -5 0
-10 -4 -10 -10z"/>
<path d="M935 435 c-34 -33 -32 -61 8 -85 35 -22 47 -25 47 -11 0 5 -11 12
-24 15 -25 6 -41 42 -30 70 3 8 18 19 32 25 18 6 21 10 9 10 -10 1 -29 -10
-42 -24z"/>
<path d="M1014 441 c14 -15 17 -30 13 -56 -7 -41 9 -48 19 -9 9 36 -7 78 -31
83 -20 3 -20 3 -1 -18z"/>
<path d="M1658 409 c-37 -21 -8 -109 35 -109 38 0 63 80 35 108 -15 15 -47 15
-70 1z m62 -45 c0 -29 -14 -38 -40 -24 -25 13 -26 46 -3 59 23 12 43 -4 43
-35z"/>
<path d="M3068 169 c-42 -24 4 -104 52 -92 22 6 60 49 60 68 0 14 -43 35 -68
34 -13 0 -12 -3 6 -11 12 -6 22 -15 22 -20 0 -11 -38 -48 -49 -48 -16 0 -23
38 -11 60 12 23 12 23 -12 9z"/>
<path d="M2539 93 c-16 -43 -8 -68 24 -71 36 -4 57 13 57 48 0 19 -7 30 -25
38 -37 17 -44 15 -56 -15z m69 -23 c4 -24 -12 -40 -40 -40 -14 0 -18 8 -18 33
0 19 3 36 6 40 12 12 49 -11 52 -33z"/>
</g>
</svg>
