<svg width="294" height="381" xmlns="http://www.w3.org/2000/svg" xmlns:xlink="http://www.w3.org/1999/xlink" xml:space="preserve" overflow="hidden"><defs><clipPath id="clip0"><rect x="1392" y="1114" width="294" height="381"/></clipPath></defs><g clip-path="url(#clip0)" transform="translate(-1392 -1114)"><path d="M197.234 378.425 294 378.425C277.873 259.148 249.649 139.871 245.617 20.5942 245.617 138.26 213.362 259.148 197.234 378.425ZM96.1625 381 190.144 381C174.48 265.155 147.069 149.311 143.153 33.4663 143.153 119.176 125.532 206.646 110.113 293.897L99.6618 359.152 88.3412 285.75C72.4439 190.5 54.7351 95.25 51.5156 0 51.5156 125.284 17.1719 254 0 381L96.1625 381Z" fill-rule="evenodd" transform="matrix(1 0 0 -1 1392 1495)"/></g></svg>