<?xml version="1.0" encoding="UTF-8" standalone="no"?>
<svg
   width="2141"
   height="1183"
   xml:space="preserve"
   overflow="hidden"
   version="1.1"
   id="svg1"
   sodipodi:docname="darwin.svg"
   inkscape:version="1.3.2 (091e20e, 2023-11-25, custom)"
   xmlns:inkscape="http://www.inkscape.org/namespaces/inkscape"
   xmlns:sodipodi="http://sodipodi.sourceforge.net/DTD/sodipodi-0.dtd"
   xmlns="http://www.w3.org/2000/svg"
   xmlns:svg="http://www.w3.org/2000/svg"><sodipodi:namedview
     id="namedview1"
     pagecolor="#505050"
     bordercolor="#ffffff"
     borderopacity="1"
     inkscape:showpageshadow="0"
     inkscape:pageopacity="0"
     inkscape:pagecheckerboard="1"
     inkscape:deskcolor="#505050"
     showgrid="false"
     inkscape:zoom="0.73610462"
     inkscape:cx="1070.5"
     inkscape:cy="591.62786"
     inkscape:window-width="2400"
     inkscape:window-height="1261"
     inkscape:window-x="2391"
     inkscape:window-y="-9"
     inkscape:window-maximized="1"
     inkscape:current-layer="svg1" /><defs
     id="defs1"><clipPath
       id="clip0"><rect
         x="1129"
         y="646"
         width="2141"
         height="1183"
         id="rect1" /></clipPath></defs><g
     clip-path="url(#clip0)"
     transform="translate(-1129 -646)"
     id="g1"><path
       d="m 2647.4,1340.51 c -2.3292,1.8414 0.5283,2.6133 0,0 z M 1514.274,1123.855 c 26.6356,1.1587 58.4598,18.7539 66.354,45.35 -6.5299,33.0966 38.6724,44.1384 28.754,77.878 1.1352,18.5484 -19.7658,45.4706 -39.515,30.374 -23.2447,-6.3319 -25.8687,20.8737 -16.033,35.202 8.7511,47.4197 -11.5939,109.956 36.984,141.285 47.2713,46.5349 108.7768,75.2609 157.76,118.994 19.4379,17.1923 21.1727,50.1972 4.7555,69.1771 -33.5252,-4.7333 -47.8743,-13.1795 -60.1428,-48.9873 -22.9857,-23.6078 -52.5347,-47.0545 -85.8017,-52.4508 17.5453,65.306 65.9915,122.4639 76.2705,190.6266 -0.3921,23.3915 12.1344,63.314 -22.9555,60.6973 -41.6673,11.5437 -68.2768,-40.5815 -40.5262,-69.3267 17.5578,-37.9014 -21.319,-72.3449 -39.7769,-102.6051 -29.6598,-43.8746 -70.1478,-78.6297 -106.5195,-116.2095 -4.0767,-36.8129 -18.9853,-77.4451 -56.2404,-92.1526 -22.5001,15.617 -68.9814,43.2062 -49.855,75.852 27.8271,52.7421 67.698,110.5423 49.6352,173.0624 -6.0152,44.4074 -16.0146,112.0753 39.6848,128.2772 10.7034,3.2225 36.8772,14.6552 11.2896,23.9069 -64.4533,30.1657 -139.0849,11.8242 -112.1528,-68.2182 -2.6978,-49.8024 8.5349,-115.6753 -34.3508,-151.6683 -40.0399,37.2942 -80.729,77.242 -113.5629,121.8069 -17.795,28.1403 10.7418,55.7581 23.8799,77.955 -48.9142,28.1251 -107.853,-52.7103 -95.3991,-93.5169 25.4855,-37.7873 58.0658,-69.7567 86.5793,-104.7463 -18.8966,-63.5399 -84.698,-129.5852 -34.1114,-198.1591 53.4099,-83.8158 125.675,-161.2344 218.7412,-200.6316 31.2084,-27.5366 61.952,-69.4028 106.255,-71.772 z m 539.383,-179.944 c 33.1515,-2.1155 69.2476,10.94756 78.093,46.396 11.819,18.4712 -18.9726,39.4597 7.11,57.174 15.5822,24.6224 -23.5585,55.2219 -48.318,37.162 -33.1363,-13.2867 -84.0754,1.4148 -77.666,45.566 5.2463,44.4024 -38.0132,74.7289 -33.123,118.969 -9.891,67.8221 40.8771,121.021 70.43,176.608 12.1547,30.5285 -7.7123,83.6276 -40.002,44.554 -10.0431,-19.2846 21.4824,-45.5564 -6.94,-60.522 -33.4135,-30.1876 -54.6786,-73.145 -79.127,-107.716 -22.3226,18.418 1.984,49.2195 4.477,71.807 20.9362,77.549 57.7437,153.2842 51.527,235.3956 4.0049,58.4656 -8.9752,140.4793 53.9458,173.0887 9.8816,5.4091 42.7281,22.6269 20.9802,31.5195 -38.4757,-2.6693 -88.7994,6.3695 -120.856,-12.772 -0.3347,-53.5514 2.845,-108.4657 -19.428,-158.6968 -15.819,-45.625 4.3593,-103.9924 -31.45,-140.772 -12.7262,41.5698 -13.3932,87.9495 -37.996,126.981 -11.2224,37.7809 -37.4051,79.486 -24.5897,118.7016 14.6566,23.887 54.3287,31.4264 62.5317,57.7825 -35.6287,-2.0247 -114.0237,22.8385 -129.555,-18.1031 18.9947,-66.9877 10.131,-139.6434 41.603,-203.627 17.0788,-62.8896 -13.3347,-126.7036 -32.316,-185.7874 -19.4647,-35.0305 -39.3282,-79.5153 -14.542,-117.4316 37.2146,-59.4395 57.4769,-128.2852 96.9577,-185.9394 53.0944,-61.1246 125.2087,-102.52696 190.3733,-147.9736 l 1.039,-0.494 z m 368.223,-78.312 c 56.2377,-5.2415 54.6245,51.4328 61.2313,87.10537 18.1927,61.27713 -45.1784,52.30263 -81.5451,51.22793 -18.6759,36.0897 13.3326,82.3218 2.426,120.8006 -36.3801,59.4688 -10.8777,110.5255 11.9378,170.0481 13.0489,33.3627 20.9614,116.0621 -28.95,111.616 -6.9625,-8.2539 -31.5496,-19.0805 -14.28,-29.849 39.5232,-30.5699 0.7103,-74.6744 -17.231,-104.7353 -26.5563,-42.7422 -38.3549,84.0251 -37.9852,62.1978 -10.7183,54.1694 41.7001,91.0044 55.8375,139.5428 34.8596,78.4495 9.2491,166.3372 28.1987,248.3087 18.2949,45.1838 79.4706,52.7575 102.69,91.085 -30.5871,17.3084 -101.803,8.674 -135.37,4.7027 -8.7053,-43.2365 -12.6932,-88.9641 -33.89,-129.3987 -27.1333,-56.3571 4.3058,-125.0418 -34.69,-177.878 -8.9868,-25.627 -32.9732,-44.4085 -33.7567,-3.5704 -6.8069,64.0539 -60.7771,100.6123 -96.2733,149.0784 -27.1327,28.5402 -49.9201,80.5639 -13.1004,111.4198 43.0885,24.1696 33.376,90.0995 -18.2696,43.2258 -14.161,-26.3279 -53.282,-25.4096 -64.679,-50.2729 -1.2199,-28.5652 25.5662,-51.9998 29.5458,-80.2537 11.6353,-40.8986 11.0599,-88.1661 45.4659,-118.6899 35.2622,-32.0773 41.0947,-80.1491 36.4385,-125.1426 2.0413,-45.3936 -23.3928,-87.2918 -15.3912,-133.2735 10.8142,-64.3833 38.4462,-125.8308 39.0988,-192.4366 6.0022,-47.1338 14.5051,-103.2443 59.0112,-130.0124 39.683,-30.97687 62.1462,-80.03055 109.59,-101.968 13.0138,-8.45931 28.424,-13.10459 43.94,-12.878 z M 2749.41,759.44 c 31.3502,-3.8176 61.8752,19.7995 58.21,53.03 18.9057,25.57577 2.6436,71.46492 -23.6,82.972 -19.6714,1.83932 -55.4434,-2.77825 -49.02,28.916 13.6289,48.51199 43.1083,94.8816 25.3056,145.728 3.7214,35.4575 -13.0909,74.4895 27.7344,91.007 29.6289,61.864 -80.2789,40.4986 -49.4061,111.9696 -6.1458,63.3259 23.2606,122.9954 14.3108,186.4608 -7.3819,95.6561 -49.2218,189.9537 -37.1547,286.848 16.451,27.075 139.1768,44.2399 61.11,65.1102 -32.7696,8.3228 -66.6752,-8.8314 -99.32,5.0456 -12.7401,7.5967 -31.4748,-4.836 -24.76,-19.1708 11.9901,-67.1804 4.2847,-135.3263 2.67,-202.7554 7.7555,-28.6144 7.8654,-64.7335 -23.1646,-20.8752 -37.4984,37.6377 -78.2301,76.5695 -103.2128,123.1713 -5.7275,36.4784 13.0166,74.7061 47.3274,89.8157 13.8657,26.0253 -39.7609,18.853 -56.87,10.8151 -22.8752,-21.5881 -38.1161,-53.2412 -59.69,-76.7139 -7.1031,-37.7588 38.5044,-62.8069 50.4536,-96.0123 25.604,-48.6809 58.6163,-92.4177 95.7164,-132.8407 5.3363,-41.7684 -15.0048,-82.0765 -12.74,-124.275 6.5799,-48.9722 -24.2246,-93.1358 -22.18,-140.467 7.834,-30.4411 40.3917,-51.4985 30.249,-86.239 -7.7995,-72.9016 -16.8154,-150.69422 19.361,-218.459 27.2681,-50.94828 42.4955,-112.2922 83.73,-153.861 13.7266,-7.3997 29.6326,-8.7771 44.94,-9.22 z M 3108.28,646 c 33.1409,-2.0904 57.8824,31.9535 50.2575,64.0776 7.1272,33.0528 0.478,66.041 -16.7475,94.6924 -36.2204,2.4717 -45.9648,38.71471 -19.05,64.456 31.0198,56.14246 6.1127,119.92517 4.33,179.071 25.9432,46.4699 72.7818,82.8436 82.74,137.375 -17.0727,13.5059 -56.0721,5.4769 -52.01,-22.797 -6.2337,-14.3118 -42.7643,-43.9613 -44.1995,-12.8063 -7.4945,66.8774 -0.7011,134.5203 25.6867,197.0355 23.8289,72.1928 34.0914,148.7482 24.7838,224.1555 0.2784,50.8813 -3.0143,102.1938 1.889,152.8413 19.0909,29.8652 61.0496,13.8904 90.31,13.6621 20.4135,-8.7915 16.3983,36.5082 0.8011,37.3621 -37.5388,10.7436 -103.1874,55.1879 -135.1911,23.9374 -0.5065,-60.5369 -3.5721,-122.4834 -32.37,-177.3496 -5.1893,-50.2633 15.685,-102.4119 -9.4242,-150.0571 -11.1075,-11.0881 -18.948,-97.2219 -34.3782,-71.7849 -20.9358,65.769 -40.5895,132.7412 -84.2554,187.3209 -23.9024,51.9786 -65.1179,101.3293 -58.2122,161.5775 7.255,28.5554 44.5847,35.1003 55.92,60.107 -39.7754,16.51 -115.8276,8.9743 -146.36,-25.0518 3.6176,-38.9083 36.2967,-71.4475 40.4,-111.1096 15.9765,-58.6799 31.3098,-118.7179 68.96,-167.854 28.5979,-67.8941 23.6002,-144.8367 28.47,-217.081 -0.7482,-65.6983 0.097,-131.1477 18.32,-194.995 -22.7671,-44.6646 3.1923,-96.83649 1.3213,-144.65399 -1.2206,-51.49732 15.2353,-101.21285 44.0887,-143.42101 21.2848,-48.0731 -8.956,-124.3743 49.92,-149.6 14.2321,-5.2249 28.7298,-9.3806 44,-9.11 z"
       fill-rule="evenodd"
       id="path1" /></g></svg>
