<svg width="34" height="32" xmlns="http://www.w3.org/2000/svg" xmlns:xlink="http://www.w3.org/1999/xlink" overflow="hidden"><defs><clipPath id="clip0"><rect x="559" y="360" width="34" height="32"/></clipPath></defs><g clip-path="url(#clip0)" transform="translate(-559 -360)"><path d="M22.6678 30.1899C22.6678 30.1679 22.6366 30.149 22.6023 30.149 22.5586 30.149 22.5398 30.127 22.5398 30.0736 22.5398 30.0265 22.518 29.992 22.4774 29.9826 22.4181 29.9669 22.4149 29.9386 22.4149 29.5083 22.4149 29.122 22.4212 29.0497 22.4618 29.0497 22.518 29.0497 22.5273 28.7984 22.4743 28.7451 22.4493 28.7199 22.4493 28.7042 22.4743 28.6917 22.5242 28.6602 22.518 28.4435 22.4649 28.3713 22.4212 28.3147 22.4181 28.3147 22.3868 28.3996 22.3681 28.4498 22.3525 28.522 22.3525 28.566 22.3525 28.6068 22.3338 28.6414 22.315 28.6414 22.2932 28.6414 22.2339 28.7136 22.1808 28.8016 22.1308 28.8895 22.0559 28.9838 22.0184 29.0089 21.9778 29.0372 21.9466 29.0843 21.9466 29.1157 21.9466 29.1471 21.9341 29.1816 21.9154 29.191 21.8998 29.2005 21.8842 29.1942 21.8842 29.1722 21.8842 29.1502 21.8561 29.1439 21.8155 29.1534 21.7281 29.1785 21.6656 29.1251 21.6656 29.0309 21.6656 28.99 21.6532 28.9555 21.6344 28.9555 21.5782 28.9555 21.6032 28.8989 21.6656 28.8832 21.7125 28.8707 21.7281 28.8393 21.7281 28.7702 21.7281 28.7168 21.7156 28.6728 21.6969 28.6728 21.6375 28.6728 21.6656 28.6037 21.7312 28.588 21.7874 28.5723 21.7936 28.5534 21.7811 28.453 21.7687 28.3619 21.7811 28.3242 21.8249 28.2833 21.8904 28.2268 21.9029 28.0917 21.8467 28.0572 21.8217 28.0415 21.8311 28.0258 21.8748 28.0101 21.9248 27.9912 21.9435 27.9535 21.9529 27.8405 21.9591 27.762 21.9497 27.6834 21.931 27.6646 21.9092 27.6426 21.9154 27.6363 21.9435 27.6426 22.0028 27.6552 22.0715 27.3473 22.0122 27.3285 21.9622 27.3128 21.9685 27.228 22.0247 27.228 22.0871 27.228 22.1152 27.0992 22.0902 26.9171 22.0778 26.8103 22.084 26.738 22.1184 26.6752 22.1839 26.5433 22.187 25.6513 22.1184 25.5947 22.0871 25.5665 22.0778 25.5194 22.0934 25.422 22.1027 25.3403 22.0965 25.2807 22.0746 25.2681 22.0559 25.2555 22.0403 25.2147 22.0403 25.1739 22.0403 25.1362 22.0184 25.0765 21.9935 25.0419 21.9685 25.0105 21.9466 24.9509 21.9466 24.9132 21.9466 24.8755 21.9341 24.8127 21.9185 24.7718 21.9029 24.731 21.8811 24.6619 21.8717 24.6148 21.8592 24.5582 21.8311 24.5268 21.7968 24.5268 21.7562 24.5268 21.7531 24.5205 21.7843 24.5017 21.8374 24.4672 21.7999 24.2127 21.7406 24.2127 21.6781 24.2127 21.6563 24.1531 21.6969 24.1028 21.7218 24.0746 21.7281 24.018 21.7156 23.9552 21.7031 23.8986 21.6812 23.7605 21.6625 23.6474 21.6469 23.5343 21.6126 23.4275 21.5907 23.4118 21.5595 23.3867 21.5533 23.3176 21.5657 23.1417 21.5751 22.9564 21.5689 22.8967 21.5314 22.859 21.4939 22.8182 21.4846 22.7334 21.4877 22.4256 21.4939 22.0895 21.4877 22.0361 21.4377 22.011 21.4003 21.989 21.3846 21.9387 21.3846 21.8445 21.3846 21.7723 21.394 21.7 21.4065 21.6875 21.4315 21.6624 21.4221 21.2509 21.3971 21.1598 21.3878 21.1284 21.3597 21.1033 21.3347 21.1033 21.2847 21.1033 21.2723 20.8991 21.3222 20.8677 21.369 20.8394 21.3597 20.5787 21.3097 20.5285 21.2847 20.5033 21.2723 20.4531 21.2816 20.4029 21.3035 20.2866 21.266 20.0982 21.2192 20.0982 21.1973 20.0982 21.1786 20.0416 21.1786 19.9506 21.1692 19.7181 21.1349 19.5893 21.0693 19.5736 21.0256 19.5611 21.0162 19.5391 21.0287 19.4889 21.0443 19.4198 20.9476 19.1779 20.8227 18.9832 20.7883 18.9329 20.7415 18.845 20.7165 18.7884 20.6853 18.7162 20.6478 18.6879 20.5823 18.6785 20.5292 18.6722 20.498 18.6534 20.5042 18.6251 20.5136 18.5811 20.3637 18.3079 20.3294 18.3079 20.3169 18.3079 20.2669 18.2702 20.2139 18.2199 20.1639 18.1728 20.0827 18.1163 20.0359 18.0974 19.9859 18.0754 19.9485 18.0378 19.9485 18.0126 19.9485 17.9655 19.8299 17.8807 19.7861 17.8933 19.7705 17.8964 19.7612 17.8776 19.7612 17.8524 19.7612 17.7865 19.6019 17.7268 19.5707 17.7802 19.5551 17.8053 19.5395 17.7928 19.527 17.7394 19.502 17.642 19.3647 17.5666 19.3459 17.6452 19.3366 17.6828 19.3241 17.6734 19.2929 17.6106 19.2523 17.5258 19.1992 17.4912 19.1992 17.5541 19.1992 17.5698 19.1805 17.5761 19.1555 17.5666 19.1305 17.5572 19.118 17.5289 19.1243 17.5069 19.1461 17.4504 19.0743 17.4096 19.04 17.463 19.0212 17.4944 19.0056 17.4818 18.9806 17.4159 18.9619 17.3593 18.9338 17.3342 18.9057 17.3436 18.8807 17.3531 18.8526 17.3405 18.8433 17.3154 18.8339 17.2902 18.8121 17.2714 18.7902 17.2714 18.7715 17.2714 18.7215 17.2431 18.6778 17.2086 18.5779 17.13 18.5217 17.13 18.503 17.2023 18.4936 17.2368 18.4811 17.2243 18.4655 17.1552 18.4468 17.0672 18.4312 17.0547 18.3687 17.0704 18.3063 17.0861 18.2938 17.0766 18.2938 17.0201 18.2938 16.9761 18.2782 16.9573 18.2532 16.9667 18.2313 16.9761 18.1814 16.9479 18.1408 16.907 18.0909 16.8536 18.0471 16.8379 17.9972 16.8505 17.941 16.8631 17.9254 16.8568 17.9285 16.8097 17.9316 16.7783 17.9129 16.7531 17.8879 16.7531 17.8629 16.7531 17.8099 16.7217 17.7662 16.684 17.6787 16.5992 17.6381 16.593 17.6381 16.6589 17.6381 16.684 17.6257 16.706 17.6069 16.706 17.5913 16.706 17.5757 16.6715 17.5757 16.6275 17.5757 16.5804 17.5538 16.5396 17.5226 16.527 17.4914 16.5144 17.4602 16.4987 17.4508 16.4862 17.4415 16.4767 17.3978 16.4453 17.3509 16.4139 17.276 16.3668 17.2635 16.3668 17.2635 16.4076 17.2635 16.4328 17.251 16.4548 17.2323 16.4548 17.2167 16.4548 17.2011 16.4234 17.2011 16.3825 17.2011 16.2946 17.098 16.2286 17.0012 16.2537 16.9357 16.2694 16.9232 16.2569 16.9045 16.1752 16.892 16.1218 16.867 16.0779 16.8451 16.0779 16.8233 16.0779 16.7515 16.0276 16.689 15.9679 16.6235 15.9082 16.5517 15.858 16.5267 15.858 16.5017 15.858 16.483 15.8454 16.483 15.8329 16.483 15.8203 16.4143 15.7543 16.3269 15.6915 16.2145 15.6067 16.152 15.5784 16.099 15.591 16.0428 15.6067 16.0272 15.5973 16.0209 15.5345 16.0178 15.4811 15.8617 15.3052 15.5245 14.966 15.2529 14.6959 15.0156 14.476 14.9969 14.476 14.975 14.476 14.95 14.4383 14.9407 14.3912 14.9126 14.2907 14.7096 14.0363 14.6566 14.0363 14.6316 14.0363 14.6004 13.9892 14.5785 13.9295 14.5473 13.8321 14.4224 13.6782 14.4224 13.7379 14.4224 13.7913 14.3319 13.6405 14.3287 13.5871 14.3287 13.5557 14.2944 13.496 14.2507 13.4521 14.207 13.4081 14.1726 13.3673 14.1726 13.3578 14.1726 13.317 13.9198 12.9747 13.876 12.959 13.8511 12.9464 13.8292 12.9118 13.8292 12.8804 13.8292 12.8176 13.7574 12.7359 13.7293 12.7642 13.7199 12.7736 13.7043 12.7391 13.6949 12.6857 13.6731 12.5789 13.3422 12.0575 13.2953 12.0575 13.2797 12.0575 13.2672 12.0292 13.2672 11.9947 13.2672 11.9601 13.2423 11.9067 13.2141 11.8753 13.1829 11.8439 13.133 11.7717 13.1049 11.712 13.0737 11.6523 12.9925 11.5047 12.9238 11.3822 12.8551 11.2629 12.7927 11.1404 12.7802 11.1153 12.7708 11.0901 12.7365 11.0116 12.7053 10.9425 12.674 10.8734 12.6397 10.7917 12.6303 10.7635 12.621 10.7321 12.5929 10.7069 12.5679 10.7069 12.5367 10.7069 12.5273 10.6881 12.5367 10.6598 12.5554 10.6158 12.3493 10.0348 12.2931 9.97197 12.2806 9.95311 12.2682 9.91228 12.2682 9.87459 12.2682 9.83689 12.2557 9.79607 12.2401 9.77723 12.2276 9.76152 12.1901 9.67043 12.1558 9.5762 12.1245 9.48197 12.0871 9.3909 12.0746 9.3752 12.0621 9.35634 12.0496 9.31551 12.0496 9.27782 12.0496 9.24014 12.0278 9.18361 12.0028 9.14905 11.9778 9.11764 11.956 9.05169 11.956 9.00457 11.956 8.95746 11.9435 8.91348 11.9279 8.90406 11.9122 8.89464 11.8904 8.83495 11.881 8.77529 11.8685 8.7156 11.8467 8.66536 11.8311 8.66536 11.8123 8.66536 11.7998 8.6308 11.7998 8.58683 11.7998 8.54601 11.7842 8.47062 11.7655 8.4235 11.7468 8.37639 11.7155 8.301 11.6999 8.25704 11.6843 8.21306 11.65 8.13769 11.625 8.09057 11.6 8.04031 11.5813 7.97436 11.5813 7.94295 11.5813 7.91154 11.5688 7.87384 11.5501 7.86442 11.5345 7.85501 11.5189 7.82044 11.5189 7.78903 11.5189 7.76078 11.4939 7.67912 11.4595 7.61002 11.4283 7.54405 11.369 7.41841 11.3315 7.33047 11.1848 6.99125 11.1317 6.88761 11.0662 6.79651 11.0318 6.74627 10.9756 6.64891 10.9475 6.58609 10.9163 6.52012 10.8757 6.4573 10.8539 6.44475 10.832 6.43218 10.7914 6.36623 10.7602 6.30025 10.6915 6.14949 10.4542 5.84169 10.4043 5.84169 10.3855 5.83856 10.3418 5.80399 10.3075 5.76003 10.2732 5.71605 10.2294 5.68151 10.2076 5.68151 10.1857 5.68151 10.1764 5.66267 10.1857 5.63753 10.2013 5.5967 10.0484 5.41766 10.0078 5.4271 9.96719 5.43652 9.89226 5.37684 9.8829 5.32972 9.87352 5.25749 9.67059 5.09102 9.65185 5.14127 9.63624 5.19467 9.58316 5.15697 9.58316 5.09102 9.58316 5.03762 9.46453 4.94026 9.43643 4.97167 9.42707 4.98109 9.39585 4.95597 9.36463 4.9214 9.33341 4.88058 9.27408 4.85232 9.22101 4.84917 9.16168 4.84917 9.13046 4.83346 9.13046 4.80205 9.13046 4.7738 9.10236 4.75809 9.06178 4.76123 9.01806 4.76751 8.98998 4.74552 8.98062 4.70156 8.96499 4.64816 8.95251 4.64188 8.91504 4.67329 8.87758 4.70469 8.86821 4.70156 8.85261 4.65445 8.83075 4.58219 8.68088 4.51624 8.59658 4.53823 8.54664 4.55078 8.52478 4.53823 8.51229 4.49112 8.50293 4.444 8.47171 4.42514 8.41552 4.42514 8.3718 4.42514 8.33434 4.41259 8.33434 4.39373 8.33434 4.32778 8.24068 4.36548 8.23754 4.43458 8.23443 4.48483 8.2313 4.49112 8.21882 4.45029 8.21257 4.41888 8.18447 4.39373 8.1595 4.39373 8.13453 4.39373 8.11578 4.37177 8.11578 4.34662 8.11578 4.3215 8.0877 4.29953 8.05334 4.29953 8.01901 4.29953 7.9909 4.31523 7.9909 4.33092 7.9909 4.3906 7.92533 4.36233 7.89725 4.28696 7.86914 4.2053 7.7349 4.16132 7.68183 4.21472 7.65684 4.23984 7.64747 4.23356 7.64747 4.19586 7.64747 4.16132 7.6225 4.14248 7.56943 4.14248 7.5101 4.14248 7.49138 4.15819 7.49138 4.20843 7.49138 4.24298 7.47577 4.26183 7.46016 4.25241 7.44142 4.23984 7.43517 4.21785 7.44455 4.20215 7.45703 4.18644 7.44142 4.17389 7.41644 4.17389 7.38834 4.17389 7.36648 4.15503 7.36648 4.12991 7.36648 4.05452 7.23849 4.03255 7.18853 4.0985 7.16667 4.12991 7.14795 4.1362 7.14795 4.11421 7.14795 4.09222 7.13545 4.0828 7.11984 4.09537 7.10112 4.10479 7.07301 4.0828 7.05427 4.04826 7.01682 3.97915 6.87632 3.96973 6.88881 4.03882 6.89193 4.05767 6.87007 4.06709 6.83574 4.05767 6.80138 4.04826 6.7733 4.01998 6.7733 3.99799 6.7733 3.94146 6.64529 3.88806 6.60157 3.92575 6.5485 3.97915 6.43923 3.95716 6.42051 3.88806 6.39865 3.8064 6.28313 3.81897 6.29874 3.90063 6.31122 3.97915 6.27375 3.96658 6.18323 3.86293 6.1239 3.79698 6.05522 3.76242 5.93032 3.7373 5.83666 3.71846 5.7274 3.69647 5.68993 3.6839 5.6306 3.66819 5.61813 3.67763 5.61813 3.7373 5.61813 3.8064 5.615 3.80327 5.53695 3.70904 5.45265 3.60853 5.35899 3.58025 5.32153 3.63994 5.29031 3.69018 5.22162 3.67448 5.20288 3.61481 5.18727 3.54571 4.99995 3.49544 4.94999 3.54571 4.90628 3.58967 4.86883 3.5834 4.86883 3.53314 4.86883 3.47347 4.76579 3.44206 4.65339 3.46719 4.58784 3.47974 4.55973 3.47347 4.54724 3.43891 4.5254 3.38238 4.33806 3.36667 4.33806 3.42007 4.33806 3.4766 4.26938 3.45148 4.25377 3.38866 4.23191 3.30701 4.1039 3.27245 4.03521 3.32898 3.99463 3.36667 3.97902 3.36354 3.93844 3.30072 3.88537 3.21905 3.74486 3.20649 3.74486 3.28502 3.74486 3.32271 3.72614 3.31327 3.66995 3.24732 3.60437 3.1688 3.5794 3.16251 3.467 3.18137 3.3671 3.19708 3.33899 3.19079 3.33899 3.15623 3.33899 3.11227 3.27344 3.07457 3.19539 3.07457 3.1704 3.07457 3.15168 3.09656 3.15168 3.12169 3.15168 3.1845 3.06738 3.14681 3.04864 3.07144 3.02991 3.00233 2.93312 2.98976 2.93312 3.05573 2.93312 3.11855 2.80513 3.0777 2.78639 3.00862 2.77078 2.94894 2.66151 2.90811 2.63341 2.95207 2.60843 2.99605 2.52725 2.98663 2.52725 2.93636 2.52725 2.84842 2.35241 2.82645 2.33056 2.91124 2.32119 2.95207 2.31183 2.9458 2.28373 2.8767 2.25564 2.81075 2.22754 2.78876 2.17446 2.79818 2.13699 2.80446 2.10889 2.82645 2.11202 2.84529 2.11514 2.86413 2.09328 2.87354 2.05895 2.86413 2.02773 2.85471 2.00898 2.82958 2.01523 2.81075 2.0402 2.74793 1.9403 2.67882 1.8966 2.72279 1.83728 2.78247 1.77795 2.76677 1.77795 2.69766 1.77795 2.64113 1.76546 2.63484 1.66869 2.6537 1.58126 2.66941 1.55942 2.66312 1.55942 2.62229 1.55942 2.59402 1.53443 2.57203 1.49696 2.57203 1.46263 2.57203 1.43452 2.5846 1.43452 2.60343 1.43452 2.65683 1.34711 2.6003 1.3315 2.53433 1.31901 2.48722 1.29715 2.47467 1.25032 2.48722 1.21285 2.49666 1.18164 2.48408 1.17227 2.45896 1.15353 2.40869 1.05987 2.39928 1.05987 2.44639 1.05987 2.46209 1.03802 2.46838 1.01304 2.45896 0.988073 2.44954 0.972463 2.42755 0.975577 2.40869 0.978711 2.39299 0.959967 2.36787 0.934996 2.35531 0.910025 2.33961 0.856948 2.31449 0.819481 2.29563 0.77888 2.27364 0.732051 2.25793 0.713328 2.25793 0.694584 2.25793 0.660251 2.23596 0.63528 2.21082 0.610289 2.1857 0.569708 2.17315 0.544737 2.18256 0.516631 2.19512 0.497908 2.18256 0.497908 2.15744 0.497908 2.10404 0.266858 2.0004 0.201306 2.02552 0.170087 2.03807 0.154477 2.02552 0.154477 1.99411 0.154477 1.96583 0.141981 1.94384 0.123258 1.94384 0.107649 1.94384 0.092039 1.91872 0.092039 1.89046 0.092039 1.85905 0.0420762 1.78053-0.0172484 1.71771-0.0828003 1.64861-0.148373 1.53239-0.179592 1.42875-0.207697 1.33138-0.251392 1.25286-0.273249 1.25286-0.32946 1.25286-0.323212 1.16177-0.267001 1.13978-0.24203 1.13036-0.213945 1.07069-0.201449 1.00787-0.157734 0.762888 0.0857911 0.417387 0.329317 0.257188 0.369897 0.232065 0.40423 0.184951 0.40423 0.156695 0.40423 0.0938771 0.550985 0.0184869 0.572822 0.0718865 0.579069 0.0907238 0.600927 0.0593146 0.622784 0.00591498 0.660251-0.0977311 0.700832-0.125987 0.72269-0.0663219 0.738299-0.0223409 0.872558-0.0663219 0.872558-0.116568 0.872558-0.141692 0.906891-0.160549 0.953719-0.160549 1.01929-0.160549 1.03177-0.173101 1.01929-0.223368 1.00993-0.257909 1.01616-0.286186 1.03177-0.286186 1.0474-0.286186 1.05987-0.270481 1.05987-0.254777 1.05987-0.207663 1.15353-0.217082 1.17227-0.267328 1.18164-0.292451 1.20661-0.308156 1.22846-0.298737 1.25032-0.289319 1.30965-0.305023 1.35959-0.3333 1.40955-0.358423 1.4751-0.380413 1.50634-0.380413 1.53756-0.380413 1.55942-0.405537 1.55942-0.443232 1.55942-0.484059 1.58126-0.50605 1.62186-0.50605 1.65619-0.50605 1.6843-0.490345 1.6843-0.474641 1.6843-0.421241 1.74673-0.440078 1.76859-0.496611 1.79981-0.578287 1.84664-0.600257 1.88411-0.55001 1.92469-0.496611 2.05895-0.524887 2.05895-0.587705 2.05895-0.615961 2.09328-0.631666 2.1526-0.631666 2.20568-0.631666 2.24626-0.619115 2.24626-0.60341 2.24626-0.568848 2.36802-0.521755 2.42735-0.531173 2.48979-0.543724 2.47106-0.418088 2.40238-0.380413 2.36491-0.361555 2.33994-0.314442 2.33994-0.264195 2.33994-0.141692 2.40862 0.0624679 2.45545 0.0813052 2.47731 0.0907238 2.49603 0.115847 2.49603 0.140991 2.49603 0.162961 2.56783 0.254055 2.65838 0.34515 2.79888 0.486471 2.82385 0.499043 2.83946 0.448796 2.86132 0.392264 2.86132 0.395397 2.89565 0.455062 2.9144 0.492757 2.92376 0.530452 2.91126 0.53987 2.9019 0.552442 2.93001 0.574433 2.97372 0.590137 3.01742 0.605842 3.05488 0.634098 3.06113 0.649802 3.07986 0.693783 3.21411 0.728325 3.21411 0.687497 3.21411 0.662374 3.23284 0.662374 3.27655 0.687497 3.31091 0.706335 3.33899 0.740897 3.33899 0.76602 3.33899 0.822553 3.40456 0.841411 3.47014 0.800562 3.51383 0.772306 3.53569 0.781725 3.57315 0.838257 3.62312 0.910494 3.72614 0.932485 3.76049 0.875952 3.78233 0.841411 3.86662 0.869666 3.92595 0.929352 3.98838 0.99217 4.413 0.985884 4.46607 0.919913 4.49729 0.882238 4.53787 0.875952 4.65339 0.891657 4.82511 0.91678 4.93127 0.891657 4.93127 0.825706 4.93127 0.800562 4.95313 0.781725 4.98121 0.781725 5.00932 0.781725 5.05303 0.756602 5.07487 0.728325 5.11233 0.674926 5.11547 0.678079 5.11858 0.74403 5.11858 0.81942 5.17791 0.835125 5.23723 0.775439 5.25909 0.753448 5.32464 0.740897 5.38397 0.747183 5.44329 0.750316 5.49323 0.740897 5.49323 0.725193 5.49323 0.709488 5.52134 0.665507 5.55567 0.624679 5.61813 0.552442 5.61813 0.552442 5.61813 0.618393 5.61813 0.656088 5.63685 0.687497 5.66182 0.687497 5.73989 0.687497 5.80544 0.649802 5.80544 0.608975 5.80544 0.549289 5.88974 0.527319 5.9116 0.583851 5.93345 0.640384 6.12077 0.618393 6.23317 0.543024 6.27064 0.51788 6.35805 0.499043 6.42673 0.499043 6.49542 0.499043 6.55788 0.483338 6.56411 0.461348 6.57349 0.436224 6.58285 0.44251 6.58285 0.477052 6.58596 0.521033 6.61407 0.530452 6.74208 0.530452 6.82949 0.530452 6.89817 0.521033 6.89817 0.505329 6.89817 0.467633 7.18853 0.502175 7.23536 0.549289 7.25721 0.574433 7.29468 0.59327 7.31654 0.59327 7.34151 0.59327 7.40395 0.602689 7.45703 0.612107 7.54132 0.630965 7.55382 0.624679 7.55382 0.564994 7.55382 0.505329 7.56006 0.502175 7.61625 0.536738 7.65061 0.558728 7.67869 0.59327 7.67869 0.615261 7.67869 0.66866 7.84417 0.709488 7.85978 0.662374 7.8785 0.602689 7.95032 0.618393 7.96905 0.687497 7.98154 0.731479 8.01276 0.750316 8.07831 0.750316 8.13139 0.750316 8.18135 0.731479 8.1876 0.712621 8.20008 0.687497 8.21257 0.696916 8.22507 0.740897 8.25004 0.81942 8.33122 0.860248 8.37805 0.813134 8.42488 0.76602 8.44985 0.775439 8.46859 0.847676 8.4842 0.901076 8.50293 0.910494 8.56536 0.901076 8.62158 0.888524 8.64655 0.897943 8.64655 0.929352 8.64655 0.957608 8.6684 0.97018 8.70274 0.963894 8.73084 0.957608 8.7527 0.932485 8.74645 0.907361 8.73709 0.87282 8.74645 0.87282 8.78392 0.907361 8.812 0.929352 8.83386 0.963894 8.83386 0.985884 8.83386 1.0487 8.98373 1.13351 9.05242 1.11152 9.09613 1.09895 9.11485 1.10523 9.11485 1.13978 9.11485 1.16805 9.13671 1.19004 9.15857 1.19004 9.18354 1.19004 9.24286 1.22774 9.29281 1.2717 9.34588 1.31881 9.40209 1.34394 9.43643 1.33452 9.502 1.31881 9.58316 1.3785 9.5863 1.44758 9.58941 1.50727 10.0609 1.85277 10.0858 1.81194 10.1139 1.76483 10.3012 1.95955 10.3012 2.03494 10.3012 2.06948 10.3481 2.1323 10.4043 2.17941 10.4574 2.22652 10.6197 2.37728 10.7633 2.51236 11.0193 2.75735 11.1817 2.87041 11.2191 2.83272 11.2285 2.82017 11.2379 2.76677 11.2379 2.71023 11.2379 2.62856 11.2504 2.60972 11.2847 2.62229 11.3347 2.64113 11.344 2.60343 11.3347 2.43068 11.3315 2.38044 11.3097 2.32704 11.2847 2.31133 11.2316 2.28308 11.2191 2.10089 11.2691 2.10089 11.2878 2.10089 11.3003 2.07263 11.3003 2.03807 11.3003 1.96899 11.063 1.45387 11.0193 1.42561 11.0006 1.41617 10.9881 1.38163 10.9881 1.34709 10.9881 1.31568 10.9662 1.28427 10.9413 1.2717 10.9163 1.26228 10.8944 1.22459 10.8944 1.19004 10.8944 1.15548 10.882 1.12723 10.8632 1.12723 10.8476 1.12723 10.832 1.09895 10.832 1.06754 10.832 1.033 10.8195 0.995303 10.8008 0.985884 10.7852 0.976466 10.7696 0.935617 10.7696 0.89479 10.7696 0.857115 10.7508 0.806848 10.7321 0.788011 10.7071 0.762888 10.6915 0.662374 10.6915 0.530452 10.6915 0.357702 10.704 0.298036 10.7633 0.219514 10.8008 0.169247 10.832 0.109582 10.832 0.0907238 10.832 0.0718865 10.8539 0.0341914 10.8788 0.00906826 10.9194-0.0349128 10.9257-0.0349128 10.9257 0.00906826 10.9257 0.0875911 10.9787 0.0687333 11.0006-0.0192082 11.0225-0.103996 11.0818-0.125987 11.0818-0.0506174 11.0818 0.0279055 11.1348 0.00278231 11.1567-0.0851592 11.1786-0.160549 11.1817-0.163682 11.2191-0.113436 11.2628-0.0506174 11.3315-0.0725873 11.3315-0.147977 11.3315-0.185673 11.3565-0.188805 11.4439-0.173101 11.5376-0.154263 11.5563-0.160549 11.5719-0.220214 11.5876-0.286186 11.6437-0.314442 11.6437-0.254777 11.6437-0.207663 11.8311-0.217082 11.8342-0.261042 11.8373-0.283033 11.8373-0.32386 11.8342-0.349004 11.8279-0.389832 11.8311-0.389832 11.8592-0.349004 11.8966-0.295605 12.162-0.283033 12.1995-0.3333 12.212-0.349004 12.2526-0.364709 12.2931-0.367841 12.5273-0.374127 12.5554-0.383546 12.571-0.443232 12.5804-0.477773 12.6054-0.50605 12.6272-0.50605 12.6491-0.50605 12.6772-0.524887 12.6865-0.543724 12.6959-0.565715 12.699-0.556296 12.6959-0.521755 12.6865-0.427527 12.8957-0.414955 12.9831-0.502897 13.0518-0.572001 13.236-0.593991 13.236-0.534306 13.236-0.487192 13.492-0.531173 13.5326-0.584552 13.5701-0.631666 13.8292-0.663075 13.8292-0.619115 13.8292-0.568848 14.3381-0.619115 14.3787-0.675647 14.4068-0.719628 14.4973-0.725893 14.9625-0.725893 15.4402-0.725893 15.5151-0.719628 15.5401-0.672514 15.562-0.637952 15.6244-0.615961 15.7462-0.606543 15.9023-0.593991 15.921-0.600257 15.9241-0.650524 15.9241-0.685066 15.9335-0.694484 15.9428-0.669361 15.9491-0.650524 15.9772-0.631666 16.0022-0.631666 16.0272-0.631666 16.0459-0.615961 16.0459-0.600257 16.0459-0.543724 16.2114-0.496611 16.2707-0.534306 16.3456-0.58142 16.3893-0.578287 16.3893-0.524887 16.3893-0.499764 16.4112-0.471487 16.4393-0.462069 16.5204-0.43066 16.6703-0.440078 16.6703-0.477773 16.6703-0.496611 16.689-0.50605 16.7109-0.496611 16.7296-0.490345 16.7484-0.465202 16.7484-0.440078 16.7484-0.389832 17.0044-0.342718 17.0325-0.386679 17.0606-0.43066 17.1698-0.414955 17.1698-0.367841 17.1698-0.339565 17.2198-0.314442 17.301-0.30189 17.404-0.283033 17.4383-0.289319 17.4696-0.330146 17.4945-0.364709 17.5133-0.370974 17.5289-0.352137 17.5382-0.3333 17.5944-0.317595 17.6538-0.317595 17.7131-0.317595 17.7693-0.30189 17.7787-0.286186 17.788-0.267328 17.9347-0.254777 18.1065-0.254777 18.2782-0.254777 18.4249-0.267328 18.4343-0.286186 18.4437-0.30189 18.5092-0.317595 18.5779-0.317595 18.6497-0.317595 18.6997-0.3333 18.6997-0.35527 18.6997-0.374127 18.7184-0.367841 18.7403-0.3333 18.7902-0.267328 18.9369-0.289319 18.9994-0.374127 19.0337-0.418088 19.0493-0.421241 19.1024-0.389832 19.1867-0.336432 19.3584-0.370974 19.424-0.455783 19.4708-0.512315 19.4864-0.515469 19.5395-0.480906 19.6332-0.424374 19.7237-0.433792 19.783-0.50605 19.8205-0.546878 19.8767-0.568848 19.9485-0.568848 20.039-0.568848 20.0827-0.546878 20.1639-0.45265 20.2389-0.367841 20.2732-0.349004 20.2982-0.374127 20.3232-0.399251 20.448-0.411822 20.626-0.411822L20.9163-0.411822 20.9569-0.308156C21.0069-0.195091 21.0881-0.116568 21.1318-0.141692 21.1474-0.15111 21.1692-0.138559 21.1786-0.110282 21.1911-0.0788732 21.2223-0.0663219 21.2567-0.0757406 21.3409-0.0977311 21.3534-0.0286268 21.3534 0.426806 21.3534 0.756602 21.3441 0.825706 21.291 0.919913 21.2535 0.979598 21.2067 1.03613 21.1817 1.04555 21.1567 1.05499 21.1349 1.08324 21.1349 1.10523 21.1349 1.13036 21.113 1.16805 21.0881 1.19004 21.0568 1.2183 21.0412 1.2183 21.0412 1.19318 21.0412 1.11781 20.9819 1.16177 20.9632 1.25286 20.9413 1.35964 20.8851 1.38163 20.8851 1.28427 20.8851 1.19318 20.8258 1.20575 20.7883 1.30311 20.7602 1.38478 20.7571 1.38478 20.6978 1.33138 20.6229 1.26541 20.4231 1.28427 20.3637 1.36593 20.3356 1.40362 20.2857 1.41304 20.1296 1.40362 19.9828 1.39734 19.9235 1.40675 19.8923 1.44132 19.858 1.48214 19.8548 1.47899 19.8611 1.42561 19.8704 1.36593 19.8486 1.36279 19.4333 1.35338 19.0493 1.34709 18.9931 1.35338 18.9588 1.40047 18.9369 1.42875 18.9182 1.44132 18.9182 1.42246 18.9182 1.40675 18.7465 1.39734 18.4936 1.40362 18.1502 1.41304 18.0628 1.40675 18.0347 1.36908 17.9909 1.31253 17.6319 1.27799 17.3946 1.30626 17.2666 1.31881 17.2323 1.33452 17.2385 1.37535 17.2448 1.40362 17.276 1.42875 17.3103 1.43816 17.3447 1.44445 17.3821 1.46329 17.3946 1.48528 17.4102 1.5104 17.4259 1.5104 17.4508 1.48528 17.5039 1.43188 17.5976 1.46644 17.6194 1.54496 17.635 1.60778 17.6381 1.60778 17.6944 1.55751 17.7693 1.48843 17.7943 1.49156 17.7943 1.56695 17.7943 1.64232 17.8786 1.68315 17.9285 1.6329 17.9816 1.5795 18.0128 1.59208 18.0128 1.66431 18.0128 1.72085 18.0284 1.73026 18.1033 1.71771 18.1752 1.70829 18.2001 1.71771 18.2126 1.76483 18.2251 1.82136 18.2345 1.82136 18.2782 1.78682 18.325 1.74912 18.3344 1.74912 18.3625 1.79624 18.3843 1.8402 18.6622 2.00666 18.7122 2.00666 18.7184 2.00666 18.7309 1.98154 18.7371 1.95328 18.7465 1.91243 18.759 1.92501 18.7933 2.0004 18.8464 2.11346 18.8776 2.12603 18.8964 2.04751 18.9057 2.00353 18.912 2.00666 18.9307 2.06948 18.9619 2.17941 19.2117 2.32704 19.3272 2.3082 19.4084 2.29563 19.4177 2.30192 19.4177 2.38672 19.4177 2.43697 19.4271 2.4778 19.4427 2.4778 19.4739 2.4778 19.8486 2.84529 19.9079 2.93636 19.9329 2.97721 19.9766 3.01175 19.9984 3.01175 20.0234 3.01175 20.0422 3.03374 20.0422 3.05887 20.0422 3.08399 20.0859 3.17509 20.1358 3.26303 20.1889 3.35097 20.2295 3.43578 20.2295 3.45461 20.2295 3.47032 20.2513 3.49231 20.2763 3.50173 20.3013 3.5143 20.3232 3.54884 20.3232 3.58025 20.3232 3.61481 20.3356 3.66506 20.3512 3.69647 20.37 3.72475 20.4074 3.80953 20.4355 3.88492 20.4667 3.95716 20.5011 4.01685 20.5167 4.01685 20.5292 4.01685 20.5417 4.05139 20.5417 4.09222 20.5417 4.1362 20.5573 4.18016 20.5729 4.1896 20.5916 4.19901 20.6041 4.23671 20.6041 4.27125 20.6041 4.33092 20.6104 4.35291 20.7072 4.54452 20.7353 4.60418 20.7602 4.67642 20.7602 4.71098 20.7602 4.74239 20.7758 4.77065 20.7915 4.77065 20.8102 4.77065 20.8227 4.79892 20.8227 4.83033 20.8227 4.93398 21.0381 5.4114 21.1161 5.47735 21.1536 5.51189 21.1973 5.56529 21.2098 5.59985 21.2285 5.65639 21.2317 5.65639 21.291 5.60299 21.3503 5.54959 21.3534 5.54959 21.3534 5.59985 21.3534 5.68151 21.4596 5.64697 21.4721 5.56216 21.4846 5.48677 21.5376 5.47106 21.5938 5.5276 21.6157 5.54959 21.6469 5.54959 21.6844 5.53075 21.7531 5.49619 21.9217 5.44281 22.0653 5.41453 22.1184 5.40196 22.1652 5.37684 22.1652 5.358 22.1652 5.33601 22.1902 5.29205 22.2151 5.25749 22.262 5.19467 22.262 5.19467 22.2526 5.25749 22.2463 5.29518 22.262 5.32344 22.2994 5.32972 22.3369 5.33601 22.3525 5.3203 22.3525 5.27319 22.3525 5.21979 22.3619 5.21037 22.3931 5.2355 22.4243 5.26064 22.4555 5.25749 22.518 5.22608 22.5648 5.20095 22.6397 5.15697 22.6866 5.13185 22.7334 5.10673 22.7896 5.04078 22.8114 4.98422 22.8302 4.92769 22.8489 4.9057 22.8489 4.93711 22.852 5.0125 22.8864 5.00308 22.9925 4.89943 23.1205 4.77693 23.2048 4.67015 23.2454 4.57906 23.3984 4.24298 23.4171 4.1519 23.336 4.12362 23.2673 4.09537 23.2673 3.56141 23.3391 3.53314 23.3797 3.51743 23.3828 3.48289 23.3641 3.33526 23.3547 3.23475 23.3235 3.14052 23.3016 3.12797 23.2704 3.10911 23.2641 3.06515 23.2797 2.96464 23.2922 2.87354 23.2829 2.80759 23.2579 2.77618 23.2361 2.75106 23.2204 2.66312 23.2204 2.58144 23.2204 2.43697 23.2517 2.3459 23.3828 2.10089 23.4171 2.04122 23.4421 1.96583 23.4452 1.93758 23.4452 1.9093 23.4608 1.87476 23.4796 1.86534 23.5014 1.84964 23.5045 1.77425 23.4921 1.64861 23.4733 1.49156 23.4796 1.44758 23.5202 1.41304 23.5857 1.35651 23.5857 1.20259 23.5202 1.16492 23.4796 1.14293 23.4733 1.11152 23.4889 1.04555 23.5139 0.945057 23.5139 0.671793 23.4889 0.586984 23.4796 0.555575 23.4515 0.530452 23.4265 0.530452 23.3547 0.530452 23.3703 0.382825 23.4452 0.363987 23.4796 0.354569 23.5077 0.32316 23.5077 0.294883 23.5077 0.266627 23.5358 0.206942 23.5701 0.162961 23.6045 0.119 23.6326 0.056182 23.6326 0.0247728 23.6326-0.0097896 23.6544-0.0349128 23.6794-0.0349128 23.7044-0.0349128 23.7387-0.060036 23.7543-0.0914451 23.7699-0.122854 23.8417-0.188805 23.9073-0.235919 23.976-0.283033 24.0415-0.352137 24.0509-0.389832 24.0634-0.443232 24.0759-0.449497 24.1071-0.418088 24.1602-0.364709 24.1945-0.370974 24.1945-0.440078 24.1945-0.518601 24.2445-0.553164 24.2695-0.490345 24.2913-0.43066 24.3506-0.43066 24.3506-0.490345 24.3506-0.515469 24.3787-0.55001 24.4131-0.568848 24.4568-0.590838 24.4755-0.590838 24.4755-0.568848 24.4755-0.553164 24.5036-0.537459 24.538-0.537459 24.5723-0.537459 24.6004-0.553164 24.6004-0.572001 24.6004-0.590838 24.6223-0.625401 24.6472-0.650524 24.6878-0.694484 24.6941-0.694484 24.6941-0.650524 24.6941-0.575134 24.872-0.584552 24.9126-0.663075 24.947-0.729047 25.0687-0.751037 25.0687-0.691351 25.0687-0.641105 25.3872-0.681933 25.4278-0.735333 25.4715-0.794998 25.7462-0.823274 25.7681-0.773007 25.7837-0.725893 26.1052-0.729047 26.1208-0.77616 26.1396-0.82956 26.2957-0.788712 26.355-0.713342 26.4018-0.65681 26.4175-0.653656 26.4736-0.688219 26.5267-0.722761 26.5517-0.722761 26.5892-0.691351 26.6266-0.65681 26.6454-0.663075 26.6859-0.716475 26.7453-0.785579 26.8795-0.832693 26.8795-0.782446 26.8795-0.760456 26.9451-0.757302 27.0668-0.769874 27.2073-0.785579 27.276-0.779293 27.3478-0.741598 27.4321-0.697637 27.4415-0.697637 27.4415-0.741598 27.4415-0.816988 27.4852-0.798151 27.5445-0.694484 27.6101-0.584552 27.6382-0.578287 27.7162-0.663075 27.7756-0.729047 27.7756-0.729047 27.7943-0.666228 27.8036-0.625401 27.8474-0.597124 27.9223-0.584552 28.0128-0.565715 28.0347-0.546878 28.0347-0.487192 28.0347-0.449497 28.0128-0.402383 27.9879-0.386679 27.9598-0.370974 27.9317-0.295605 27.9192-0.198224 27.9098-0.10715 27.8879-0.0349128 27.8755-0.0349128 27.8599-0.0349128 27.8474 0.00278231 27.8474 0.0530287L27.8474 0.137837 28.8933 0.147256C29.6113 0.153542 29.9392 0.147256 29.9392 0.125286 29.9392 0.106428 29.9829 0.0907238 30.0359 0.0907238 30.1078 0.0907238 30.1359 0.106428 30.1483 0.156695 30.1608 0.19437 30.2014 0.225779 30.2545 0.238351 30.3388 0.254055 30.345 0.266627 30.345 0.392264 30.345 0.492757 30.3325 0.530452 30.2982 0.530452 30.2389 0.530452 30.2046 0.665507 30.2482 0.74403 30.2951 0.831971 30.292 0.844543 30.2202 0.844543 30.1546 0.844543 30.1296 0.948189 30.1889 0.985884 30.2451 1.02043 30.2233 1.05812 30.1078 1.12407 30.0266 1.17434 30.0016 1.20888 30.0079 1.25915 30.0141 1.31253 29.9954 1.33452 29.9236 1.35651 29.7237 1.41933 29.5957 1.48528 29.5957 1.52611 29.5957 1.57322 29.5146 1.58266 29.4865 1.53554 29.4552 1.48214 29.3179 1.50098 29.2523 1.56695 29.2117 1.60778 29.1493 1.62977 29.0681 1.62977 28.9994 1.62977 28.9338 1.64548 28.9214 1.66745 28.9058 1.68944 28.8902 1.68002 28.8714 1.6329 28.8464 1.55751 28.8215 1.56067 28.6092 1.64861 28.4874 1.69886 28.3157 1.87476 28.3157 1.947 28.3157 1.97525 28.2938 2.0161 28.2657 2.04122 28.2314 2.06948 28.222 2.11033 28.2345 2.16999 28.2439 2.22339 28.2408 2.2548 28.222 2.24223 28.1845 2.22026 28.1284 2.32704 28.1284 2.42755 28.1284 2.46838 28.1471 2.51236 28.1689 2.51863 28.1908 2.5312 28.1877 2.53748 28.1565 2.53748 28.1284 2.54062 28.094 2.56261 28.0846 2.59088 28.0534 2.66941 28.0628 2.84842 28.0971 2.87041 28.144 2.89869 28.1346 3.01175 28.0846 3.01175 28.0347 3.01175 28.0191 3.05573 27.9879 3.26931 27.9754 3.36667 27.9816 3.43891 28.0097 3.48289 28.0441 3.53942 28.0409 3.55513 27.9879 3.59596 27.9348 3.63678 27.9254 3.68076 27.9223 3.91633 27.9223 4.06709 27.9036 4.22101 27.8848 4.25868 27.838 4.34036 27.8349 4.56964 27.8786 4.59789 27.9254 4.6293 27.9161 4.73924 27.863 4.73924 27.8036 4.73924 27.7537 4.83662 27.7537 4.95597 27.7537 5.00621 27.7381 5.05961 27.7194 5.07219 27.6975 5.08474 27.6913 5.14127 27.7006 5.21353 27.71 5.29205 27.7037 5.33601 27.6757 5.34858 27.6226 5.36742 27.5789 5.62811 27.6257 5.64381 27.6757 5.65952 27.6694 5.74433 27.6163 5.74433 27.5539 5.74433 27.5133 6.07726 27.5633 6.15893 27.6132 6.24059 27.607 6.49815 27.5539 6.49815 27.4852 6.49815 27.4727 6.71801 27.4727 7.91782 27.4727 9.02028 27.4727 9.04853 27.5352 9.06424 27.6038 9.0831 27.6163 9.12079 27.5664 9.1522 27.5164 9.18361 27.5289 9.33437 27.5914 9.41916 27.6195 9.46314 27.6601 9.53853 27.6757 9.59191 27.6944 9.65159 27.735 9.68929 27.7849 9.70184 27.8286 9.71126 27.8661 9.73953 27.8661 9.76466 27.8692 9.78978 27.8723 9.82748 27.8755 9.84633 27.8817 9.90915 28.1159 10.0442 28.1877 10.0253 28.2408 10.0128 28.2564 10.0253 28.272 10.0976 28.2845 10.1541 28.3407 10.2264 28.4156 10.2829 28.4812 10.3363 28.5654 10.4023 28.5998 10.4337 28.631 10.4619 28.6685 10.4871 28.6778 10.4871 28.7059 10.4871 28.7809 10.5719 28.7684 10.5876 28.759 10.597 28.7965 10.6504 28.8496 10.7101 29.0712 10.9551 29.2554 11.2157 29.4022 11.4922 29.4521 11.5864 29.5083 11.6932 29.5271 11.7277 29.5926 11.8408 29.7831 12.4627 29.7831 12.5569 29.7831 12.6794 29.8112 12.7485 29.8642 12.7485 29.9111 12.7485 29.9267 12.8898 29.8798 12.9181 29.8486 12.9401 29.8517 13.8635 29.8861 13.8981 29.9267 13.9421 29.9111 14.1305 29.8642 14.1305 29.8049 14.1305 29.7737 14.2875 29.7987 14.4729 29.8143 14.5922 29.808 14.6299 29.7737 14.6425 29.7113 14.6644 29.6707 14.9032 29.7206 14.9628 29.7487 14.9974 29.7425 15.0194 29.6925 15.0696 29.6238 15.1387 29.6051 15.2738 29.6582 15.3083 29.7144 15.3429 29.6925 15.4183 29.627 15.4183 29.5739 15.4183 29.5645 15.4403 29.5645 15.5439 29.5645 15.6161 29.5395 15.7072 29.5114 15.7512 29.4709 15.8172 29.4677 15.8454 29.4958 15.8925 29.5489 15.9773 29.5427 16.0056 29.4677 16.0245 29.4084 16.0402 29.4022 16.059 29.4178 16.1689 29.4271 16.2412 29.4209 16.2914 29.4084 16.282 29.3709 16.2569 29.3147 16.37 29.3147 16.4673 29.3147 16.5113 29.3022 16.5553 29.2835 16.5647 29.2679 16.5741 29.2523 16.6181 29.2523 16.6589 29.2523 16.6998 29.2398 16.7437 29.2211 16.7531 29.2055 16.7626 29.1899 16.8191 29.1899 16.8756 29.1899 16.9353 29.168 16.9981 29.143 17.0201 29.118 17.0421 29.0962 17.0923 29.0962 17.1332 29.0962 17.1709 29.0837 17.2148 29.065 17.2243 29.0494 17.2337 29.0338 17.2777 29.0338 17.3185 29.0338 17.3593 29.0213 17.4002 29.0057 17.4127 28.9901 17.4221 28.9651 17.4755 28.9526 17.5289 28.9432 17.5855 28.9214 17.6514 28.9089 17.6797 28.8714 17.7551 28.8246 17.8713 28.7653 18.0346 28.7372 18.1163 28.6997 18.1917 28.6872 18.2011 28.6716 18.2105 28.6591 18.2419 28.6591 18.2702 28.6591 18.2985 28.6248 18.3927 28.5842 18.4806 28.4499 18.7633 28.3781 18.9361 28.3781 18.9769 28.3781 18.9989 28.3594 19.0428 28.3375 19.0774 28.3001 19.1339 28.1721 19.4417 28.1127 19.6113 28.0035 19.9349 27.941 20.3746 28.0035 20.4123 28.0378 20.4343 28.0378 20.45 28.0097 20.4845 27.9816 20.5159 27.9785 20.5976 27.991 20.7546 28.0097 20.9337 28.0253 20.9871 28.0753 21.0122 28.119 21.0373 28.1252 21.0562 28.1003 21.0813 28.0565 21.1252 28.0565 21.2509 28.0971 21.276 28.1159 21.2854 28.1284 21.3231 28.1284 21.3577 28.1284 21.4362 28.3063 21.7943 28.3469 21.7943 28.3656 21.7943 28.3781 21.8131 28.3781 21.8351 28.3781 21.8916 28.5811 22.0769 28.6404 22.0769 28.6685 22.0769 28.6903 22.0926 28.6903 22.1083 28.6903 22.1272 28.7184 22.1398 28.7559 22.1398 28.7902 22.1398 28.8433 22.1617 28.8714 22.19 28.9182 22.2371 28.9245 22.2371 28.9776 22.1712L29.0338 22.1021 29.0338 22.1837C29.0338 22.2434 29.0525 22.2685 29.118 22.2843 29.1649 22.2968 29.2242 22.2905 29.2586 22.2685 29.3116 22.2371 29.321 22.2403 29.3366 22.3 29.3522 22.3596 29.3709 22.3659 29.5052 22.3502 29.627 22.3345 29.6582 22.3408 29.6582 22.3753 29.6582 22.4004 29.6925 22.4287 29.7331 22.4413 29.8143 22.4601 29.8892 22.435 29.8611 22.3942 29.8299 22.3408 30.0203 22.4036 30.0578 22.4601 30.0984 22.5167 30.3138 22.5449 30.3138 22.4884 30.3138 22.4507 30.4793 22.4884 30.5167 22.5355 30.5605 22.5889 30.8009 22.6235 30.829 22.5826 30.8571 22.5324 30.907 22.5418 30.8883 22.5921 30.8789 22.6172 30.8852 22.6454 30.9039 22.658 30.9226 22.6674 30.9476 22.6549 30.957 22.6297 30.9819 22.5638 31.0319 22.5983 31.0319 22.6768 31.0319 22.7522 31.1162 22.7554 31.1349 22.6831 31.1443 22.6454 31.1568 22.658 31.1724 22.7302 31.1849 22.7836 31.2067 22.8308 31.2192 22.8308 31.2754 22.8308 31.5002 23.0946 31.5751 23.2516 31.6875 23.4809 31.6844 23.6223 31.5626 23.7102 31.5127 23.7479 31.469 23.7982 31.469 23.8233 31.469 23.8735 31.3878 23.883 31.3597 23.8358 31.3285 23.7856 31.2504 23.7982 31.2504 23.8516 31.2504 23.8798 31.2255 23.9112 31.1974 23.9206 31.1256 23.9489 31.0662 24.0274 31.0631 24.0965 31.0631 24.1876 30.9726 24.197 30.882 24.1122 30.8352 24.0714 30.7696 24.0149 30.7384 23.9897 30.6822 23.9489 30.6791 23.952 30.6947 24.018 30.7072 24.0557 30.7009 24.0871 30.6853 24.0871 30.6479 24.0871 30.601 23.9866 30.6166 23.9395 30.6354 23.8892 30.5636 23.8547 30.523 23.8955 30.4949 23.9238 30.473 23.9144 30.4324 23.861 30.3856 23.7982 30.37 23.795 30.3169 23.8296 30.2264 23.883 30.1671 23.8767 30.1483 23.8076 30.1296 23.7322 29.9236 23.6819 29.8673 23.7385 29.8174 23.7887 29.4365 23.7856 29.4459 23.7353 29.4521 23.7039 29.3866 23.6945 29.1899 23.6945 28.9932 23.6945 28.9276 23.7039 28.9338 23.7353 28.9432 23.7856 28.7184 23.7887 28.6685 23.7385 28.6154 23.6851 28.4812 23.7291 28.4624 23.8076 28.4468 23.861 28.4343 23.8673 28.3812 23.8358 28.3063 23.7982 28.2532 23.817 28.2532 23.8861 28.2532 23.9112 28.2376 23.9238 28.2189 23.9144 28.2002 23.9018 28.1689 23.9175 28.144 23.9489 28.1065 24.0023 28.1096 24.0117 28.1689 24.0274 28.2064 24.0369 28.2345 24.062 28.2283 24.0808 28.2251 24.1028 28.2345 24.1185 28.2532 24.1185 28.2688 24.1185 28.2845 24.1374 28.2845 24.1625 28.2845 24.2222 28.4343 24.3164 28.503 24.2975 28.5405 24.2881 28.5654 24.3038 28.5779 24.3478 28.5904 24.4012 28.6029 24.4043 28.6404 24.3729 28.6935 24.329 28.7528 24.3509 28.7528 24.4169 28.7528 24.4734 28.8777 24.5143 28.9089 24.464 28.9245 24.4389 28.937 24.4483 28.9495 24.4923 28.9651 24.5582 29.0338 24.5865 29.0338 24.5268 29.0338 24.5111 29.0525 24.4954 29.0775 24.4954 29.1024 24.4954 29.118 24.5205 29.1149 24.552 29.1118 24.5928 29.1337 24.6054 29.2148 24.6022 29.2679 24.5991 29.3147 24.6085 29.3147 24.6242 29.3147 24.6399 29.346 24.6682 29.3866 24.6807 29.4365 24.7027 29.4646 24.6964 29.4958 24.6588 29.5302 24.6148 29.5333 24.6179 29.5333 24.6776 29.5333 24.7593 29.627 24.7718 29.6301 24.6933 29.6301 24.6588 29.6395 24.6525 29.6488 24.6776 29.6551 24.6964 29.6894 24.7153 29.7206 24.7153 29.7518 24.7153 29.7831 24.7467 29.7924 24.7813 29.808 24.8378 29.8268 24.8472 29.9173 24.8284 30.0079 24.8127 30.0266 24.8189 30.0422 24.8723 30.064 24.9603 30.1577 24.954 30.1577 24.866 30.1577 24.8032 30.1639 24.8064 30.2202 24.8975 30.2545 24.954 30.3076 24.998 30.3419 24.998 30.3763 24.998 30.4137 25.0137 30.4262 25.0325 30.4356 25.0514 30.4793 25.0577 30.5199 25.0482 30.5792 25.0325 30.5948 25.0419 30.5948 25.0922 30.5948 25.1644 30.626 25.1739 30.6822 25.1173 30.7103 25.0891 30.7197 25.0953 30.7197 25.1487 30.7197 25.1958 30.7384 25.2178 30.7759 25.2178 30.8102 25.2178 30.8602 25.2461 30.8914 25.2807 30.9226 25.3183 30.9975 25.3749 31.0569 25.4126 31.1381 25.4628 31.1693 25.4691 31.188 25.4377 31.2036 25.4126 31.2192 25.4314 31.2348 25.4974 31.2473 25.5539 31.2817 25.6136 31.316 25.6356 31.3472 25.6544 31.3753 25.6827 31.3753 25.6984 31.3753 25.711 31.4128 25.78 31.4596 25.8491 31.5158 25.934 31.5502 26.0407 31.5658 26.1695 31.5814 26.292 31.6064 26.3674 31.6376 26.3862 31.6938 26.4176 31.7063 26.6155 31.6563 26.6469 31.6282 26.6658 31.6345 26.8071 31.675 27.049 31.6907 27.1401 31.6844 27.1652 31.6469 27.1652 31.597 27.1652 31.5626 27.228 31.5626 27.3191 31.5626 27.3473 31.5439 27.4102 31.5252 27.4541 31.4908 27.5264 31.4627 27.539 31.3129 27.5484 31.1974 27.5547 31.1318 27.5452 31.1162 27.5201 31.0787 27.4604 30.9788 27.4699 30.9414 27.5358 30.9132 27.5829 30.9101 27.5766 30.907 27.5044 30.907 27.4447 30.8852 27.4133 30.8383 27.3976 30.7977 27.385 30.7634 27.3913 30.7572 27.4133 30.7415 27.4636 30.6541 27.4573 30.6135 27.4039 30.5698 27.3473 30.1577 27.2971 30.1577 27.3505 30.1577 27.3693 30.1234 27.385 30.0797 27.385 30.0297 27.385 30.0016 27.3662 30.0016 27.3379 30.0016 27.2751 29.8486 27.2123 29.8018 27.2594 29.7518 27.3097 29.6988 27.2971 29.68 27.228 29.6707 27.1935 29.6363 27.1652 29.6051 27.1652 29.5739 27.1652 29.5302 27.1495 29.5114 27.1306 29.4709 27.0898 29.3647 27.1181 29.3928 27.162 29.4022 27.1777 29.3959 27.2029 29.3772 27.2123 29.3585 27.2249 29.346 27.2217 29.3491 27.206 29.3522 27.1935 29.3522 27.1463 29.3491 27.1055 29.346 27.0458 29.3335 27.0364 29.271 27.0521 29.2148 27.0647 29.193 27.0552 29.1805 27.005 29.1711 26.9673 29.1493 26.9485 29.1305 26.961 29.1118 26.9704 29.1024 26.9956 29.1149 27.0113 29.1243 27.0301 29.1056 27.027 29.0681 27.0018 29.0306 26.9799 29.0025 26.9422 29.0025 26.9171 29.0025 26.8856 28.9776 26.8794 28.9089 26.8951 28.8402 26.9076 28.8152 26.9014 28.8152 26.8668 28.8152 26.8165 28.7059 26.7726 28.6591 26.804 28.6404 26.8165 28.6341 26.8385 28.6435 26.8542 28.6529 26.8699 28.6404 26.8731 28.6123 26.8637 28.5873 26.8511 28.5498 26.8165 28.5311 26.7851 28.5061 26.738 28.4655 26.7255 28.3313 26.7255 28.2345 26.7255 28.1346 26.738 28.1034 26.7537 28.0753 26.7694 27.9972 26.8071 27.9348 26.8385 27.8692 26.8699 27.8161 26.9171 27.8161 26.939 27.8161 26.9673 27.7974 26.9767 27.7662 26.9642 27.7318 26.9516 27.71 26.9673 27.7006 27.0081 27.6913 27.0427 27.6569 27.071 27.6226 27.071 27.5601 27.071 27.3072 27.2029 27.2198 27.2783 27.1949 27.3034 27.1543 27.3222 27.1355 27.3222 27.1168 27.3222 27.0887 27.3411 27.0762 27.3631 27.0637 27.3819 27.0231 27.4039 26.9888 27.407 26.8608 27.4196 26.6953 27.495 26.6828 27.5484 26.661 27.6332 26.4112 27.6269 26.3394 27.5421 26.2832 27.4761 26.0366 27.451 26.0366 27.5107 26.0366 27.5484 25.9366 27.5138 25.8961 27.4604 25.8524 27.4039 25.7056 27.3725 25.6806 27.4133 25.6463 27.4699 25.5776 27.4541 25.5589 27.385 25.5401 27.3128 25.4153 27.3002 25.3559 27.3599 25.3247 27.3913 25.3122 27.385 25.2998 27.3285 25.2748 27.2343 25.1624 27.2343 25.1592 27.3316 25.1561 27.3819 25.153 27.3882 25.1405 27.3473 25.1343 27.3159 25.1156 27.2908 25.0999 27.2908 25.0843 27.2908 25.0781 27.2688 25.0874 27.2437 25.0999 27.2154 25.0874 27.1966 25.0593 27.1966 25.0313 27.1966 25.0031 27.2217 24.9969 27.2531 24.9844 27.3034 24.9813 27.3034 24.9782 27.2531 24.975 27.206 24.947 27.1966 24.8221 27.1966 24.7003 27.1966 24.6628 27.2092 24.6535 27.2531 24.641 27.3034 24.6379 27.3034 24.6347 27.2531 24.6316 27.184 24.5692 27.1777 24.5692 27.2469 24.5692 27.2845 24.5505 27.2939 24.4942 27.2783 24.4318 27.2626 24.3975 27.2845 24.3038 27.3945 24.2039 27.5075 24.1914 27.5421 24.2039 27.6426 24.2133 27.718 24.207 27.7588 24.1852 27.7525 24.1664 27.7494 24.1383 27.7902 24.1227 27.8405 24.0665 28.0164 24.0478 28.0603 23.8168 28.5315 23.6888 28.7922 23.5701 29.0183 23.5483 29.034 23.5264 29.0529 23.5045 29.1063 23.5014 29.1565 23.4952 29.2099 23.4733 29.2539 23.4421 29.2602 23.414 29.2696 23.3703 29.3136 23.3484 29.3575 23.3266 29.4046 23.2048 29.5648 23.0799 29.7156 22.9551 29.8663 22.852 30.0108 22.852 30.0391 22.852 30.0736 22.8333 30.0831 22.7771 30.0674 22.7115 30.0517 22.6991 30.0611 22.6866 30.1396 22.6803 30.1867 22.671 30.2087 22.6678 30.1899ZM25.9273 3.68705C25.9523 3.47974 25.9741 3.18764 25.9741 3.03374 25.9741 2.75419 26.0053 2.63484 26.0771 2.63484 26.1021 2.63484 26.1927 2.6003 26.2801 2.55632 26.3706 2.51236 26.4549 2.4778 26.4674 2.4778 26.5017 2.4778 26.6454 2.32075 26.6891 2.23596 26.7109 2.19198 26.7234 1.94384 26.7234 1.5481L26.7234 0.929352 26.3519 0.948189C25.8617 0.97018 25.7774 1.01414 25.6213 1.33138 25.4746 1.62977 25.4278 1.91243 25.4278 2.46209 25.4309 2.94894 25.459 3.15623 25.5651 3.40437 25.6494 3.59911 25.7556 4.05139 25.7556 4.21472 25.7556 4.34662 25.8024 4.34036 25.843 4.19901 25.8648 4.12678 25.9023 3.89434 25.9273 3.68705Z" fill-rule="evenodd" transform="matrix(1 0 0 -1 560 391)"/></g></svg>