<svg width="20" height="33" xmlns="http://www.w3.org/2000/svg" xmlns:xlink="http://www.w3.org/1999/xlink" overflow="hidden"><defs><clipPath id="clip0"><rect x="222" y="359" width="20" height="33"/></clipPath></defs><g clip-path="url(#clip0)" transform="translate(-222 -359)"><path d="M7.30485 7.81521C7.11548 7.87476 6.96287 7.87179 6.77918 7.80331 6.58133 7.73185 6.44569 7.60979 6.33828 7.41328 6.26197 7.27038 6.25066 7.21976 6.25066 7.02624 6.25066 6.83274 6.26197 6.78212 6.33828 6.63922 6.55307 6.24026 6.99962 6.0914 7.42073 6.28195 7.58464 6.35935 7.70334 6.4844 7.80793 6.7047 7.87292 6.83868 7.8814 6.88633 7.8701 7.059 7.84466 7.42221 7.62421 7.714 7.30485 7.81521ZM4.48803 11.2373C4.17816 11.1575 3.95931 10.788 4.11405 10.4352 4.23841 10.1494 4.54646 10.0184 4.81777 10.1374 5.10887 10.2685 5.23888 10.6138 5.10887 10.9115 5.04669 11.0544 4.95625 11.1467 4.81777 11.2093 4.70473 11.2584 4.59131 11.264 4.48803 11.2373ZM8.17109 11.5122C8.01847 11.5085 7.86727 11.4757 7.75422 11.4147 7.61856 11.3402 7.39811 11.1556 7.39529 11.114 7.39529 11.0931 7.38682 11.0753 7.37269 11.0753 7.36137 11.0753 7.32464 11.0098 7.28789 10.9264 7.25115 10.846 7.21442 10.7776 7.2031 10.7776 7.19179 10.7776 7.1805 10.7091 7.17766 10.6257 7.17766 10.5334 7.15789 10.462 7.13527 10.4471 7.10701 10.4262 7.10701 10.4143 7.13245 10.3965 7.15224 10.3846 7.17202 10.3071 7.17484 10.2268 7.1805 10.1434 7.19179 10.0719 7.20029 10.063 7.20876 10.0541 7.2455 9.98262 7.28225 9.89926 7.35572 9.73255 7.58748 9.47948 7.73444 9.40208 7.89836 9.31573 8.29969 9.24726 8.3449 9.29788 8.35621 9.30977 8.39294 9.3187 8.42404 9.3187 8.53426 9.3187 8.77166 9.45864 8.91015 9.60453 9.07124 9.77422 9.12494 9.86652 9.18711 10.0898 9.33691 10.6287 9.08255 11.2093 8.59642 11.4355 8.47773 11.4906 8.3237 11.5159 8.17109 11.5122ZM5.25867 15.2434C5.02692 15.3178 4.8319 15.3178 4.60581 15.2404 4.17905 15.0975 3.86251 14.636 3.86251 14.1567 3.86251 13.8143 4.04057 13.4451 4.30906 13.2278 4.4532 13.1117 4.74712 13.0105 4.93647 13.0105 5.12584 13.0105 5.41975 13.1117 5.56389 13.2278 5.93978 13.5315 6.09241 14.0346 5.95393 14.5021 5.84934 14.8563 5.5865 15.1362 5.25867 15.2434ZM8.78579 16.2675C8.52577 16.3628 8.27706 16.3033 8.06793 16.0978 7.99728 16.0294 7.93226 15.9371 7.92097 15.8924 7.91249 15.8448 7.88987 15.8091 7.87574 15.8091 7.85879 15.8091 7.84748 15.6959 7.84748 15.5411 7.84748 15.3952 7.85879 15.2732 7.87292 15.2732 7.88705 15.2732 7.91249 15.2345 7.92662 15.1838 7.94357 15.1362 8.01141 15.0409 8.07358 14.9784 8.4212 14.6301 8.94972 14.7313 9.18146 15.1928 9.23232 15.291 9.24646 15.3684 9.24646 15.5411 9.24646 15.7138 9.23232 15.7912 9.18146 15.8894 9.09384 16.0651 8.93841 16.214 8.78579 16.2675ZM3.65691 18.6754C3.52407 18.6434 3.40042 18.5704 3.29444 18.4588 2.73768 17.8723 3.31141 16.9017 4.06035 17.1637 4.35145 17.2649 4.56906 17.5865 4.56906 17.908 4.56906 18.2206 4.35145 18.5481 4.07448 18.6463 3.93175 18.6985 3.78974 18.7074 3.65691 18.6754ZM12.9221 19.5059C12.9504 19.497 12.9758 19.4702 12.9758 19.4494 12.9758 19.4196 13.0126 19.4077 13.0889 19.4077 13.1511 19.4077 13.2019 19.3958 13.2019 19.3779 13.2019 19.363 13.233 19.3482 13.2726 19.3482 13.3178 19.3482 13.3432 19.3303 13.3432 19.3035 13.3432 19.2708 13.3743 19.2588 13.4563 19.2588 13.5383 19.2588 13.5693 19.2469 13.5693 19.2142 13.5693 19.1785 13.6174 19.1695 13.8378 19.1695 13.9989 19.1695 14.1063 19.1576 14.1063 19.1397 14.1063 19.1219 14.225 19.11 14.4031 19.11 14.6489 19.11 14.6998 19.101 14.6998 19.0653 14.6998 19.0296 14.745 19.0207 14.9259 19.0207 15.1068 19.0207 15.152 19.0117 15.152 18.976 15.152 18.9433 15.1859 18.9313 15.2933 18.9313 15.3725 18.9313 15.4346 18.9194 15.4346 18.9016 15.4346 18.8867 15.5053 18.8718 15.5901 18.8718 15.7088 18.8718 15.7455 18.8629 15.7455 18.8271 15.7455 18.8003 15.771 18.7825 15.8133 18.7825 15.8501 18.7825 15.8868 18.7616 15.8981 18.7378 15.9066 18.711 15.9518 18.6932 16.014 18.6932 16.0677 18.6932 16.1129 18.6813 16.1129 18.6634 16.1129 18.6485 16.1525 18.6336 16.2005 18.6336 16.2458 18.6336 16.2797 18.6217 16.2712 18.6098 16.2514 18.5741 16.3588 18.4848 16.4238 18.4848 16.4549 18.4848 16.4803 18.4639 16.4803 18.4401 16.4803 18.4163 16.5001 18.3955 16.5227 18.3955 16.5453 18.3955 16.5651 18.3746 16.5651 18.3508 16.5651 18.327 16.5821 18.3061 16.6047 18.3061 16.6386 18.3061 16.9891 17.9161 16.9891 17.8774 16.9891 17.8476 16.4549 17.8595 16.438 17.8893 16.4266 17.9072 16.1553 17.9191 15.7144 17.9191 15.1068 17.9191 15.0107 17.9251 15.0107 17.9638 15.0107 18.0025 14.8948 18.0084 14.1487 18.0084 13.5919 18.0084 13.2867 18.0203 13.2867 18.0382 13.2867 18.056 13.2076 18.068 13.103 18.068 12.9589 18.068 12.9193 18.0769 12.9193 18.1126 12.9193 18.1454 12.8882 18.1573 12.8063 18.1573 12.7243 18.1573 12.6932 18.1692 12.6932 18.2019 12.6932 18.2377 12.6565 18.2466 12.5378 18.2466 12.3965 18.2466 12.3823 18.2525 12.3823 18.3121 12.3823 18.3508 12.4925 18.6366 12.6254 18.9492 12.8345 19.4375 12.8769 19.5179 12.9221 19.5059ZM1.49498 22.4768C1.50911 22.4768 1.51476 22.4559 1.50629 22.4321 1.49498 22.4083 1.48368 22.3874 1.47803 22.3874 1.47237 22.3874 1.46672 22.4083 1.46672 22.4321 1.46672 22.4559 1.47803 22.4768 1.49498 22.4768ZM14.0998 24.3436C14.3626 24.3436 14.5237 24.3317 14.5237 24.3138 14.5237 24.296 14.6085 24.284 14.7216 24.284 14.8799 24.284 14.9194 24.2751 14.9194 24.2394 14.9194 24.2066 14.9505 24.1947 15.0325 24.1947 15.1144 24.1947 15.1455 24.1828 15.1455 24.1501 15.1455 24.1173 15.1766 24.1054 15.2586 24.1054 15.3207 24.1054 15.3716 24.0935 15.3716 24.0756 15.3716 24.0608 15.4366 24.0459 15.5129 24.0459 15.6203 24.0459 15.6542 24.034 15.6542 24.0012 15.6542 23.9714 15.6825 23.9566 15.7334 23.9566 15.7786 23.9566 15.8379 23.9357 15.869 23.9119 15.8973 23.8881 15.9623 23.8672 16.0075 23.8672 16.0556 23.8672 16.194 23.8375 16.3184 23.8017 16.5021 23.7481 16.6434 23.7362 17.0899 23.7273 17.4545 23.7184 17.6326 23.7273 17.6326 23.7481 17.6326 23.766 17.7089 23.7779 17.8163 23.7779 17.918 23.7779 18 23.769 18 23.7571 18 23.7452 17.9802 23.6588 17.9548 23.5665 17.9152 23.4236 17.8785 23.3641 17.74 23.2242 17.6495 23.1319 17.5648 23.0634 17.5563 23.0723 17.5478 23.0813 17.5224 23.0723 17.4998 23.0485 17.4771 23.0247 17.4093 23.0038 17.3471 23.0038 17.2878 23.0038 17.2369 22.9919 17.2369 22.9741 17.2369 22.9562 17.0589 22.9443 16.7565 22.9443 16.454 22.9443 16.276 22.9562 16.276 22.9741 16.276 22.9919 16.1432 23.0038 15.9369 23.0038 15.6542 23.0038 15.5977 23.0128 15.5977 23.0485 15.5977 23.0872 15.4903 23.0932 14.8064 23.0932 14.1224 23.0932 14.015 23.0872 14.015 23.0485 14.015 23.0128 13.9755 23.0038 13.8313 23.0038L13.6476 23.0038 13.6476 23.5249C13.6476 23.9685 13.642 24.0459 13.6052 24.0459 13.5741 24.0459 13.5628 24.0786 13.5628 24.153 13.5628 24.2334 13.577 24.2632 13.6194 24.2751 13.6504 24.284 13.6759 24.3019 13.6759 24.3168 13.6759 24.3317 13.8681 24.3436 14.0998 24.3436ZM8.75712 26.0119C8.59071 26.016 8.43457 26.0086 8.43457 25.9863 8.43457 25.9714 8.36392 25.9476 8.27912 25.9386 8.18587 25.9238 8.0813 25.888 8.02194 25.8463 7.96824 25.8076 7.91172 25.7749 7.89758 25.7749 7.88345 25.7749 7.82975 25.7332 7.77889 25.6856 7.72802 25.635 7.6715 25.6022 7.65171 25.6112 7.63193 25.6171 7.61496 25.6112 7.61496 25.5933 7.61496 25.5754 7.58388 25.5337 7.54715 25.504 7.51039 25.4742 7.47084 25.4147 7.46235 25.373 7.45105 25.3313 7.43127 25.2985 7.41714 25.2985 7.40017 25.2985 7.38888 25.2777 7.38888 25.2539 7.38888 25.2301 7.37756 25.2092 7.36061 25.2092 7.34648 25.2092 7.33235 25.1914 7.33235 25.1676 7.33235 25.1437 7.31539 25.105 7.29278 25.0812 7.26452 25.0544 7.24755 24.9651 7.24473 24.8371 7.23908 24.6555 7.24473 24.6316 7.30691 24.5781 7.36343 24.5304 7.40301 24.5245 7.55844 24.5393 7.66019 24.5483 7.95976 24.5632 8.22544 24.5751L8.70871 24.5929 9.07329 24.4649C9.27396 24.3935 9.4944 24.2982 9.56505 24.2565 9.85899 24.0838 9.93246 24.0302 9.93246 23.9975 9.93246 23.9767 9.9579 23.9588 9.98616 23.9588 10.0173 23.9588 10.0597 23.9409 10.0794 23.9231 10.1331 23.8665 10.3225 23.7802 10.3847 23.7802 10.4157 23.7802 10.4694 23.8278 10.5118 23.8903 10.5712 23.9856 10.5825 24.0362 10.5825 24.2297 10.5825 24.3518 10.5655 24.5126 10.5429 24.587 10.5203 24.6584 10.4949 24.7537 10.4864 24.7984 10.4779 24.8401 10.396 24.98 10.3055 25.111 10.2151 25.239 10.1331 25.367 10.1218 25.3968 10.1134 25.4236 10.0907 25.4474 10.0738 25.4474 10.0597 25.4474 10.0455 25.4653 10.0455 25.4891 10.0455 25.5129 10.0144 25.5397 9.97485 25.5486 9.9353 25.5605 9.90986 25.5814 9.91833 25.5963 9.92682 25.6141 9.90986 25.626 9.87878 25.626 9.7855 25.626 9.73464 25.6588 9.73464 25.7183 9.73464 25.7481 9.71485 25.7749 9.69225 25.7749 9.66962 25.7749 9.64986 25.763 9.64986 25.7451 9.64986 25.7273 9.62158 25.7302 9.57919 25.7511 9.53963 25.7689 9.50853 25.8017 9.50853 25.8255 9.50853 25.8463 9.47745 25.8642 9.43788 25.8642 9.39831 25.8642 9.36723 25.8791 9.36723 25.894 9.36723 25.9118 9.33331 25.9238 9.29092 25.9238 9.24569 25.9267 9.1807 25.9446 9.14113 25.9684 9.10015 25.9922 8.92352 26.0079 8.75712 26.0119ZM8.07529 26.6041C8.15336 26.6003 8.32294 26.5832 8.68894 26.549L9.31635 26.4894 9.78268 26.2274C10.037 26.0845 10.2914 25.9446 10.3451 25.9178 10.4468 25.8612 11.1477 24.9681 11.1477 24.8936 11.1477 24.8698 11.1591 24.8281 11.1732 24.7984 11.2664 24.6048 11.4614 24.0302 11.4388 24.0094 11.4304 23.9975 11.4445 23.9707 11.4699 23.9439 11.5095 23.9022 11.5152 23.8099 11.5152 23.3217 11.5152 22.8572 11.5067 22.7381 11.4756 22.7084 11.453 22.6905 11.4388 22.6577 11.4473 22.6369 11.4586 22.6042 11.2919 22.0712 11.241 21.9849 11.2297 21.967 11.2184 21.9283 11.2184 21.9015 11.2099 21.7944 10.1868 20.538 10.1868 20.6362 10.1868 20.6451 10.1614 20.6303 10.1303 20.6005 10.0964 20.5737 10.0653 20.5529 10.0568 20.5588 10.0512 20.5618 10.0201 20.5409 9.989 20.5141 9.96072 20.4844 9.87594 20.4278 9.79963 20.3861 9.72616 20.3445 9.64702 20.2938 9.62723 20.276 9.60745 20.2551 9.56505 20.2373 9.53398 20.2373 9.50572 20.2373 9.48027 20.2283 9.48027 20.2134 9.48027 20.2015 9.2033 20.1599 8.86698 20.1212 8.2226 20.0497 8.17455 20.0497 7.69976 20.1599 7.66019 20.1688 7.5217 20.2015 7.39453 20.2283 7.23626 20.2641 7.13451 20.3028 7.08928 20.3474 7.04973 20.3861 7.00734 20.4159 6.99037 20.4159 6.97624 20.4159 6.96493 20.4308 6.96493 20.4457 6.96493 20.4635 6.9508 20.4754 6.93385 20.4754 6.8632 20.4754 6.47882 20.8029 6.18772 21.1126 5.85423 21.4639 5.73835 21.6306 5.76661 21.708 5.77793 21.7378 5.76945 21.7557 5.74119 21.7557 5.69314 21.7557 5.56313 22.0206 5.54335 22.1576 5.53487 22.2082 5.48399 22.4881 5.42747 22.7828L5.32572 23.3187 5.37095 23.6462C5.42747 24.0809 5.45573 24.1672 5.68749 24.6793 5.85989 25.0604 5.92207 25.1616 6.16512 25.4682 6.39122 25.7511 6.58623 26.0131 6.61449 26.0667 6.62578 26.0875 7.90042 26.549 7.95129 26.549 7.9852 26.549 8.01065 26.5639 8.01065 26.5788 8.01065 26.5981 7.99722 26.6078 8.07529 26.6041ZM0.169564 26.9556C0.285443 26.9556 0.336309 26.9437 0.33349 26.9199 0.327834 26.899 0.36457 26.8782 0.409798 26.8663 0.457844 26.8574 0.491761 26.8395 0.486105 26.8246 0.480449 26.8127 0.514366 26.78 0.562413 26.7532 0.715027 26.6639 1.02026 26.3483 1.00613 26.2947 1.00047 26.2679 1.01178 26.2381 1.03439 26.2292 1.05701 26.2202 1.07396 26.1905 1.07396 26.1666 1.07396 26.1399 1.09375 26.0982 1.11635 26.0744 1.13896 26.0505 1.17287 25.9731 1.19266 25.9047 1.20963 25.8362 1.23505 25.7737 1.24636 25.7647 1.26331 25.7498 1.3368 25.5712 1.42158 25.33 1.44702 25.2616 1.45833 25.1991 1.44984 25.1871 1.44137 25.1782 1.44702 25.1544 1.46115 25.1336 1.4781 25.1127 1.52615 24.9698 1.57138 24.815 1.6279 24.6155 1.66463 24.5322 1.70139 24.5203 1.72965 24.5143 1.75225 24.4875 1.75225 24.4667 1.75225 24.4428 1.77204 24.425 1.79464 24.425 1.82574 24.425 1.83703 24.3922 1.83703 24.3059 1.83703 24.2404 1.85116 24.1868 1.86529 24.1868 1.88226 24.1868 1.89355 24.166 1.89355 24.1421 1.89355 24.1183 1.91052 24.0975 1.93313 24.0975 1.95857 24.0975 1.97836 24.0469 1.99249 23.9457 2.01227 23.8057 1.99814 23.7551 1.77769 23.1567 1.55725 22.5583 1.46963 22.4005 1.46963 22.597 1.46963 22.6952 1.44137 22.7458 1.24352 23.0167 1.15309 23.1418 1.08527 23.2609 1.09375 23.2847 1.10222 23.3055 1.09375 23.3234 1.07678 23.3234 1.00896 23.3234 0.932656 23.4276 0.932656 23.5199 0.932656 23.5795 0.915689 23.6211 0.887428 23.633 0.850693 23.6479 0.8422 23.6807 0.853512 23.7998 0.864823 23.9129 0.859168 23.9486 0.830907 23.9486 0.802646 23.9486 0.791335 23.9933 0.791335 24.1124 0.791335 24.2374 0.78286 24.2761 0.748944 24.2761 0.717846 24.2761 0.706553 24.3118 0.706553 24.422 0.706553 24.5054 0.695241 24.5798 0.678292 24.5887 0.664162 24.5977 0.650032 24.6929 0.650032 24.8001 0.650032 24.9043 0.63872 24.9907 0.62459 24.9907 0.610459 24.9907 0.579361 25.1216 0.551101 25.2824 0.491761 25.6278 0.245871 26.387 0.101731 26.6609 0.0452096 26.7681 0 26.8782 0 26.905 0 26.9467 0.0310793 26.9556 0.169564 26.9556ZM8.8084 26.9677C8.76882 26.9647 8.57382 26.9558 8.37034 26.9528 8.16968 26.9468 7.99728 26.9319 7.9888 26.92 7.98031 26.9052 7.84748 26.8813 7.69205 26.8605 7.37269 26.8188 7.27376 26.801 6.86114 26.6908L6.57004 26.6164 6.27045 26.3484C6.10654 26.1995 5.95393 26.0805 5.93414 26.0805 5.91435 26.0805 5.89739 26.0596 5.89739 26.0358 5.89739 26.012 5.88891 25.9911 5.87762 25.9911 5.86347 25.9911 5.78434 25.9227 5.69956 25.8423 5.61478 25.7619 5.53282 25.6934 5.51868 25.6934 5.48193 25.6934 5.35476 25.5386 5.19367 25.2915 5.11736 25.1784 5.02974 25.0533 4.99583 25.0176 4.96191 24.9819 4.93647 24.9372 4.93647 24.9223 4.93647 24.9074 4.91104 24.8479 4.88278 24.7943 4.85169 24.7407 4.81213 24.6335 4.79235 24.5561 4.77538 24.4757 4.74996 24.4132 4.73581 24.4132 4.72168 24.4132 4.71038 24.3805 4.71038 24.3388 4.71038 24.2941 4.69342 24.2644 4.67081 24.2644 4.63973 24.2644 4.63408 24.2346 4.64537 24.1453 4.6595 24.047 4.65386 24.0262 4.61429 24.0262 4.57755 24.0262 4.56906 23.9934 4.56906 23.8624 4.56906 23.7374 4.56059 23.6987 4.52667 23.6987 4.49559 23.6987 4.48428 23.6629 4.48428 23.5498 4.48428 23.4516 4.47297 23.401 4.45036 23.401 4.4221 23.401 4.41363 23.261 4.41363 22.8055 4.41363 22.35 4.4221 22.2101 4.45036 22.2101 4.4758 22.2101 4.48428 22.1386 4.48428 21.9451 4.48428 21.692 4.48993 21.6652 4.61995 21.3586 4.78951 20.9567 4.84603 20.8435 5.08345 20.4029 5.33215 19.9414 5.64868 19.602 6.01045 19.4115 6.14327 19.343 6.26197 19.2656 6.27328 19.2448 6.28458 19.221 6.32133 19.2031 6.35241 19.2031 6.42306 19.2031 6.57568 19.1227 6.57568 19.084 6.57568 19.0661 6.60678 19.0542 6.64351 19.0542 6.68026 19.0542 6.717 19.0334 6.72829 19.0096 6.73678 18.9857 6.76786 18.9649 6.79896 18.9649 6.82722 18.9649 6.93461 18.9262 7.03354 18.8756 7.14376 18.822 7.25681 18.7863 7.33028 18.7863 7.39529 18.7863 7.45747 18.7744 7.46594 18.7565 7.47442 18.7416 7.56485 18.7267 7.6666 18.7267 7.76835 18.7267 7.84748 18.7148 7.84748 18.6969 7.84748 18.6791 8.00859 18.6672 8.27143 18.6672 8.53426 18.6672 8.69535 18.6791 8.69535 18.6969 8.69535 18.7148 8.77448 18.7267 8.87905 18.7267 9.02319 18.7267 9.06276 18.7357 9.06276 18.7714 9.06276 18.8071 9.0995 18.816 9.21819 18.816 9.30299 18.816 9.37365 18.828 9.37365 18.8428 9.37365 18.8607 9.43299 18.8815 9.50929 18.8905 9.69866 18.9173 9.70432 18.9202 9.95019 19.0691 10.0745 19.1435 10.1876 19.2031 10.2046 19.2031 10.2187 19.2031 10.2583 19.2269 10.2893 19.2597 10.3233 19.2894 10.4193 19.3549 10.5041 19.4026 10.8885 19.6229 10.9168 19.6497 11.2135 20.0814 11.369 20.3106 11.5103 20.4952 11.5244 20.4892 11.5385 20.4863 11.5498 20.5071 11.5498 20.5339 11.5498 20.5637 11.6092 20.6679 11.677 20.7631 11.7646 20.8822 11.8268 21.0192 11.8777 21.1889 11.9172 21.3229 11.9625 21.436 11.9766 21.436 11.9879 21.436 11.9936 21.4539 11.9851 21.4777 11.9766 21.5015 12.0077 21.6533 12.0557 21.8171 12.1433 22.1088 12.1433 22.1178 12.1433 22.7847 12.1433 23.3533 12.1377 23.4575 12.1009 23.4724 12.0699 23.4843 12.0586 23.5379 12.0586 23.6838 12.0586 23.8356 12.0501 23.8773 12.0162 23.8773 11.9851 23.8773 11.9738 23.9101 11.9738 23.9964 11.9738 24.0619 11.9625 24.1155 11.9455 24.1155 11.9314 24.1155 11.9172 24.1691 11.9172 24.2346 11.9172 24.3001 11.9059 24.3537 11.889 24.3537 11.8748 24.3537 11.8607 24.3894 11.8607 24.437 11.8607 24.4876 11.7957 24.6186 11.694 24.7824 11.6007 24.9283 11.5329 25.0652 11.5414 25.089 11.5498 25.1099 11.5357 25.1278 11.5103 25.1278 11.4848 25.1278 11.465 25.1486 11.465 25.1724 11.465 25.1962 11.4537 25.2171 11.4396 25.2171 11.4255 25.2171 11.3492 25.3242 11.2672 25.4582 11.1796 25.5952 11.0666 25.7351 10.9931 25.7887 10.9281 25.8393 10.8715 25.8929 10.8715 25.9078 10.8715 25.9197 10.8517 25.9316 10.8291 25.9316 10.8065 25.9316 10.7868 25.9435 10.7868 25.9554 10.7868 25.9703 10.7641 25.9941 10.733 26.009 10.7048 26.0239 10.6426 26.0656 10.6002 26.1043 10.0887 26.527 10.0548 26.5479 9.45561 26.7652 9.13907 26.8784 8.84797 26.9706 8.8084 26.9677ZM8.29403 28.1347 9.02037 28.1347 9.78344 27.9769 10.5465 27.8162 10.9846 27.6018C11.7307 27.2327 11.8975 27.1136 12.3949 26.5866 12.6323 26.3335 12.8386 26.0953 12.8527 26.0566 12.8669 26.0179 12.8895 25.9971 12.9064 26.006 12.9319 26.0239 12.9488 25.9584 12.9375 25.8899 12.9347 25.878 12.9516 25.8512 12.9742 25.8304 12.9969 25.8125 13.0845 25.6041 13.1692 25.3659 13.3869 24.7496 13.4208 24.6306 13.401 24.5621 13.3869 24.5204 13.3954 24.5025 13.4265 24.5025 13.4632 24.5025 13.4717 24.4608 13.4717 24.2644 13.4717 24.0738 13.4801 24.0262 13.5141 24.0262 13.5508 24.0262 13.5564 23.9309 13.5564 23.3563 13.5564 22.7817 13.5508 22.6864 13.5141 22.6864 13.4801 22.6864 13.4717 22.6358 13.4717 22.4036 13.4717 22.1892 13.4632 22.1208 13.4349 22.1208 13.4067 22.1208 13.401 22.0761 13.4095 21.9421 13.4208 21.7992 13.4123 21.7605 13.3756 21.7456 13.3388 21.7307 13.3304 21.6801 13.3304 21.4926 13.3304 21.302 13.3219 21.2574 13.288 21.2574 13.2625 21.2574 13.2456 21.2306 13.2456 21.1829 13.2456 21.1383 13.2286 21.1085 13.206 21.1085 13.1749 21.1085 13.1692 21.0787 13.1806 20.9894 13.1947 20.8912 13.189 20.8703 13.1495 20.8703 13.1184 20.8703 13.1043 20.8435 13.1043 20.784 13.1043 20.7364 13.0845 20.6768 13.0619 20.65 13.0393 20.6262 13.0195 20.5726 13.0195 20.5309 13.0195 20.4922 12.9997 20.4356 12.9742 20.4089 12.9488 20.3821 12.9347 20.3523 12.9432 20.3434 12.9545 20.3344 12.946 20.2987 12.929 20.263 12.9092 20.2302 12.8923 20.1826 12.8895 20.1588 12.8781 20.0873 12.7538 19.7836 12.7312 19.7658 12.7171 19.7568 12.7086 19.736 12.7142 19.7211 12.7171 19.7062 12.6973 19.6229 12.669 19.5335 12.6323 19.4204 12.6097 19.3877 12.5927 19.4145 12.5758 19.4413 12.5673 19.4174 12.5673 19.343 12.5673 19.2745 12.5531 19.2239 12.5277 19.215 12.5051 19.2061 12.4938 19.1763 12.5023 19.1406 12.5107 19.1108 12.4966 19.0512 12.4712 19.0096 12.4457 18.9709 12.426 18.9173 12.426 18.8905 12.426 18.8637 12.4062 18.8369 12.3836 18.828 12.3581 18.816 12.3412 18.7714 12.3412 18.7089 12.3412 18.6493 12.3242 18.5987 12.3016 18.5898 12.279 18.5808 12.2677 18.5511 12.2762 18.5153 12.2847 18.4826 12.2733 18.4528 12.2451 18.4409 12.2196 18.432 12.1999 18.3903 12.1999 18.3516 12.1999 18.3069 12.1829 18.2802 12.1575 18.2802 12.1151 18.2802 12.1009 18.164 12.1151 17.9467 12.1179 17.8991 12.1038 17.8633 12.0868 17.8633 12.0303 17.8633 11.9738 17.7829 11.9738 17.7026 11.9738 17.6549 11.9568 17.6252 11.9342 17.6252 11.9031 17.6252 11.8975 17.5984 11.9088 17.521 11.9201 17.4436 11.9144 17.4138 11.8777 17.3989 11.8494 17.387 11.8325 17.3453 11.8325 17.2798 11.8325 17.2143 11.8155 17.1696 11.7901 17.1607 11.7675 17.1488 11.7477 17.1101 11.7477 17.0714 11.7477 17.0297 11.7307 16.9999 11.7081 16.9999 11.677 16.9999 11.6714 16.9702 11.6827 16.8808 11.6968 16.7826 11.6911 16.7618 11.6516 16.7618 11.6233 16.7618 11.6064 16.7379 11.6064 16.6903 11.6064 16.6516 11.564 16.5504 11.5103 16.464 11.434 16.342 11.3859 16.1931 11.27 15.7049 11.14 15.1511 11.1287 15.0796 11.1457 14.8742 11.1598 14.6747 11.157 14.6479 11.1146 14.6479 11.0779 14.6479 11.0694 14.6122 11.0694 14.4395 11.0694 14.2937 11.0581 14.2311 11.0355 14.2311 11.0072 14.2311 10.9987 14.0197 11.0044 13.2605 11.0072 12.7247 11.0185 12.281 11.027 12.2721 11.0355 12.2632 11.0411 12.1292 11.0411 11.9714 11.0411 11.8136 11.0609 11.5576 11.0863 11.4028 11.1089 11.248 11.14 11.0187 11.1542 10.8966 11.1683 10.7746 11.1937 10.593 11.2107 10.4947 11.2276 10.3965 11.2389 10.2803 11.2305 10.2357 11.2248 10.1881 11.2305 10.1523 11.2418 10.1523 11.2531 10.1523 11.27 10.0749 11.2814 9.98262 11.304 9.78017 11.4113 9.17879 11.5074 8.73816 11.5272 8.63991 11.5668 8.45233 11.5922 8.32134 11.6205 8.19034 11.6516 8.02958 11.6657 7.96407 11.6798 7.89857 11.7081 7.7527 11.7307 7.63658 11.8522 7.02923 11.9625 6.5618 12.1179 6.00804 12.2112 5.66566 12.279 5.37688 12.2705 5.359 12.262 5.34412 12.2677 5.32923 12.2818 5.32923 12.2988 5.32923 12.3214 5.27564 12.3299 5.21014 12.3412 5.14464 12.3581 5.08212 12.3723 5.07616 12.3836 5.06724 12.4034 4.99579 12.4146 4.91837 12.4231 4.84097 12.4429 4.75762 12.4571 4.73081 12.4684 4.707 12.4853 4.63257 12.4938 4.56706 12.5051 4.50455 12.6068 3.9478 12.7227 3.3345 12.9884 1.92626 12.9912 1.85779 12.8075 1.21174 12.6916 0.806845 12.669 0.75027 12.5334 0.574605 12.3864 0.387042 12.0388 0.11909 11.937 0.11909 11.9144 0.11909 11.889 0.104204 11.8833 0.0833785 11.8664 0.0327614 11.5357 0.00298897 10.9648 0.00298897L10.4787 0 9.81736 0.163749C9.19277 0.3156 9.11646 0.342383 8.52295 0.613324 7.94075 0.875318 7.84466 0.931874 7.32464 1.2951 6.98266 1.53328 6.58133 1.84886 6.3072 2.093 5.88609 2.46812 4.77256 3.62329 4.48428 3.98353 4.29493 4.21575 3.30291 5.90087 3.07683 6.36828 2.8903 6.74936 2.17243 8.53571 2.07352 8.85725 1.96046 9.22046 1.6185 10.8163 1.53088 11.3849 1.44044 11.9446 1.20586 14.0793 1.20586 14.3145 1.20586 14.38 1.19173 14.4098 1.16347 14.4098 1.12673 14.4098 1.12108 14.6271 1.12108 16.1812 1.12108 17.7353 1.12673 17.9527 1.16347 17.9527 1.20021 17.9527 1.20586 18.039 1.20586 18.5481 1.20586 19.0036 1.21434 19.1435 1.24261 19.1435 1.26804 19.1435 1.27369 19.2358 1.26804 19.5306 1.25956 19.867 1.26238 19.9176 1.30195 19.9176 1.34153 19.9176 1.34718 19.9712 1.34718 20.3017 1.34718 20.6143 1.35566 20.6887 1.38957 20.7036 1.415 20.7125 1.43196 20.7572 1.43196 20.8108 1.43196 20.9388 1.82481 22.874 1.85589 22.9067 1.87286 22.9246 1.88415 22.9574 1.88415 22.9842 1.88415 23.0109 1.90112 23.0496 1.91807 23.0675 1.93786 23.0884 1.95482 23.1211 1.95482 23.142 1.95482 23.2283 2.28548 24.0559 2.31374 24.0381 2.3307 24.0262 2.33636 24.0411 2.32223 24.0828 2.31092 24.1244 2.31939 24.1512 2.34765 24.1631 2.3731 24.1721 2.39288 24.2048 2.39288 24.2316 2.39288 24.2584 2.40701 24.3299 2.42396 24.3924 2.44375 24.4698 2.46635 24.5025 2.50592 24.5025 2.55115 24.5025 2.55963 24.5174 2.54266 24.5919 2.52853 24.6693 2.53984 24.6961 2.61049 24.7645 2.65854 24.8092 2.70093 24.8598 2.70659 24.8806 2.71224 24.8985 3.10225 25.3302 3.57141 25.8333 4.34298 26.667 4.4532 26.7742 4.72733 26.9617 4.89691 27.0748 5.04669 27.1731 5.06082 27.179 5.07779 27.185 5.13149 27.2207 5.1767 27.2594 5.22475 27.2952 5.29258 27.3309 5.33215 27.3368 5.37171 27.3428 5.39997 27.3636 5.39715 27.3845 5.39149 27.4023 5.40562 27.4202 5.42825 27.4202 5.45085 27.4202 5.47346 27.441 5.48477 27.4649 5.49324 27.4887 5.52716 27.5095 5.55824 27.5095 5.58934 27.5095 5.61478 27.5244 5.61478 27.5393 5.61478 27.5572 5.66564 27.5691 5.72782 27.5691 5.80978 27.5691 5.84086 27.581 5.84086 27.6137 5.84086 27.6435 5.86912 27.6584 5.92565 27.6584 5.98219 27.6584 6.01045 27.6733 6.01045 27.7031 6.01045 27.7298 6.03587 27.7477 6.0811 27.7477 6.12067 27.7477 6.15175 27.7626 6.15175 27.7775 6.15175 27.7953 6.23089 27.8072 6.33546 27.8072 6.4796 27.8072 6.51916 27.8162 6.51916 27.8519 6.51916 27.8847 6.55025 27.8966 6.63222 27.8966 6.71416 27.8966 6.74526 27.9085 6.74526 27.9412 6.74526 27.9769 6.78483 27.9859 6.92895 27.9859 7.03354 27.9859 7.11267 27.9978 7.11267 28.0156 7.11267 28.0335 7.20594 28.0454 7.33877 28.0454 7.51965 28.0454 7.56485 28.0544 7.56485 28.0901 7.56485 28.1288 7.66379 28.1347 8.29403 28.1347ZM14.9875 30.1575C15.0412 30.1515 15.1853 30.1456 15.3069 30.1456 15.5188 30.1456 15.5245 30.1456 15.5245 30.0712 15.5245 30.0235 15.5075 29.9967 15.4821 29.9967 15.4595 29.9967 15.4397 29.9789 15.4397 29.958 15.4397 29.9163 15.1825 29.7585 15.1147 29.7585 15.0921 29.7585 15.0723 29.7496 15.0723 29.7347 15.0723 29.7228 15.0242 29.6871 14.9677 29.6543 14.9084 29.6216 14.8349 29.565 14.8009 29.5293 14.767 29.4906 14.7162 29.4608 14.6879 29.4579 14.654 29.4579 14.6483 29.4489 14.671 29.44 14.6992 29.4281 14.6936 29.4132 14.6512 29.3805 14.6173 29.3566 14.5777 29.3477 14.5636 29.3566 14.5466 29.3656 14.5353 29.3566 14.5353 29.3358 14.5353 29.3149 14.4505 29.2107 14.3516 29.1065 14.2498 29.0023 14.1679 28.9041 14.1679 28.8922 14.1679 28.8773 14.1481 28.8743 14.1255 28.8832 14.1 28.8952 14.0831 28.8832 14.0831 28.8535 14.0831 28.8267 14.0718 28.8058 14.0548 28.8058 14.0407 28.8058 14.0266 28.788 14.0266 28.7671 14.0266 28.7463 13.9898 28.6927 13.9474 28.648 13.9022 28.6034 13.8287 28.4843 13.7835 28.3801 13.7383 28.2789 13.6931 28.1925 13.6818 28.1866 13.6676 28.1806 13.6592 28.1509 13.6592 28.1181 13.6592 28.0854 13.6394 28.0526 13.6168 28.0437 13.5942 28.0318 13.5744 27.999 13.5744 27.9693 13.5744 27.9365 13.5292 27.8174 13.4726 27.7013 13.4189 27.5852 13.3794 27.472 13.3878 27.4482 13.3963 27.4244 13.3907 27.4065 13.3765 27.4065 13.3596 27.4065 13.3539 27.3589 13.3652 27.2875 13.3794 27.1892 13.3765 27.1684 13.337 27.1684 13.3031 27.1684 13.2917 27.1386 13.2917 27.0493 13.2917 26.9629 13.2805 26.9302 13.2494 26.9302 13.2183 26.9302 13.207 26.8974 13.207 26.8111 13.207 26.7248 13.1957 26.692 13.1646 26.692 13.1335 26.692 13.125 26.6712 13.1391 26.6176 13.1533 26.561 13.1448 26.5432 13.1109 26.5432 13.077 26.5432 13.0657 26.5134 13.0657 26.427 13.0657 26.2127 13.0007 26.2484 12.5569 26.692L12.15 27.0999 12.393 27.5137C12.5259 27.74 12.7717 28.2044 12.9385 28.5439 13.1081 28.8832 13.255 29.1542 13.2691 29.1452 13.2805 29.1363 13.2917 29.1542 13.2917 29.1839 13.2917 29.2137 13.4104 29.3417 13.5772 29.4906 13.7355 29.6305 13.8824 29.7615 13.9022 29.7794 13.9474 29.83 14.4731 30.086 14.524 30.086 14.5466 30.086 14.5636 30.098 14.5636 30.1158 14.5636 30.1307 14.637 30.1486 14.7275 30.1545 14.8151 30.1605 14.9338 30.1634 14.9875 30.1575ZM3.25576 30.2941C3.36882 30.2941 3.55251 30.2792 3.66556 30.2614 3.85774 30.2286 3.87753 30.2197 4.03862 30.0559 4.13189 29.9637 4.25625 29.8416 4.31559 29.788 4.37213 29.7344 4.42016 29.6749 4.42016 29.651 4.42016 29.6272 4.43147 29.6094 4.44843 29.6094 4.46256 29.6094 4.48233 29.5617 4.49364 29.4992 4.50496 29.4397 4.53038 29.3563 4.55017 29.3146 4.57843 29.2581 4.58974 29.1062 4.58974 28.7847 4.58974 28.3976 4.59539 28.3292 4.63213 28.3292 4.66886 28.3292 4.67452 28.2518 4.66886 27.7427L4.66039 27.1561 4.15168 26.6857C3.81535 26.3731 3.64013 26.2302 3.63448 26.26 3.62882 26.2838 3.60622 26.3046 3.58361 26.3046 3.54969 26.3046 3.54404 26.4029 3.54404 26.8852 3.54404 27.3437 3.55251 27.4658 3.58077 27.4658 3.60903 27.4658 3.61469 27.5253 3.60622 27.7337 3.5949 27.96 3.60056 28.0046 3.64013 28.0195 3.67121 28.0314 3.68534 28.0731 3.68534 28.1535 3.68534 28.2428 3.69665 28.2696 3.73339 28.2696 3.77578 28.2696 3.77862 28.3262 3.76165 28.9008L3.7447 29.532 3.60622 29.8178 3.46489 30.1006 3.25576 30.1959 3.04944 30.2912ZM9.84371 31.9993C9.87268 32.0037 9.87268 31.9881 9.87268 31.9568 9.87268 31.8973 9.61833 31.412 9.58441 31.412 9.5731 31.412 9.56181 31.3793 9.56181 31.3405 9.56181 31.3018 9.54202 31.2631 9.5194 31.2512 9.49679 31.2423 9.48548 31.2155 9.49398 31.1947 9.50245 31.1709 9.48832 31.1322 9.46572 31.1054 9.44027 31.0786 9.42049 31.0309 9.42049 30.9982 9.42049 30.9625 9.40354 30.9357 9.3781 30.9357 9.35265 30.9357 9.33571 30.9089 9.33571 30.8612 9.33571 30.8196 9.32439 30.7868 9.30745 30.7868 9.29331 30.7868 9.27918 30.757 9.27918 30.7183 9.27918 30.6796 9.2594 30.623 9.23679 30.5903 9.21417 30.5605 9.19438 30.4831 9.19438 30.4236 9.19438 30.3462 9.18309 30.3104 9.15199 30.3104 9.12091 30.3104 9.11526 30.2807 9.12939 30.1616 9.14352 30.0425 9.13786 30.0097 9.09831 29.9949 9.05874 29.98 9.05308 29.9115 9.05308 29.4768 9.05308 29.0422 9.05874 28.9737 9.09831 28.9588 9.13786 28.9439 9.14352 28.9082 9.13221 28.7474 9.11808 28.5956 9.12373 28.5539 9.15483 28.5539 9.18309 28.5539 9.19438 28.5122 9.19438 28.405L9.19438 28.2562 8.62915 28.2562 8.0639 28.2562 8.0639 28.5985C8.0639 28.8784 8.07238 28.9469 8.10629 28.9588 8.14303 28.9737 8.14868 29.0779 8.14868 29.6435 8.14868 30.2152 8.15434 30.3104 8.19108 30.3104 8.22217 30.3104 8.23349 30.3462 8.23349 30.4593 8.23349 30.5724 8.24478 30.6082 8.27588 30.6082 8.30696 30.6082 8.31543 30.629 8.3013 30.6826 8.29001 30.7362 8.29848 30.763 8.32956 30.7749 8.355 30.7838 8.37479 30.8255 8.37479 30.8642 8.37479 30.9089 8.39174 30.9357 8.41718 30.9357 8.44262 30.9357 8.45957 30.9625 8.45957 31.0101 8.45957 31.0577 8.47654 31.0845 8.50196 31.0845 8.52458 31.0845 8.54435 31.1024 8.54435 31.1232 8.54435 31.156 8.69415 31.3227 8.72241 31.3227 8.72807 31.3227 8.80719 31.3971 8.89765 31.4864 8.9909 31.5758 9.08134 31.6502 9.09831 31.6502 9.11808 31.6502 9.13786 31.671 9.14917 31.6949 9.15765 31.7187 9.19722 31.7395 9.23679 31.7395 9.27635 31.7395 9.30745 31.7544 9.30745 31.7693 9.30745 31.7871 9.33005 31.7991 9.35831 31.7991 9.38657 31.7991 9.42049 31.808 9.4318 31.8199 9.44027 31.8318 9.53637 31.8765 9.64094 31.9211 9.75682 31.9702 9.81475 31.9948 9.84371 31.9993Z" fill-rule="evenodd" transform="matrix(1 0 0 -1 223 391)"/></g></svg>