<?xml version="1.0" standalone="no"?>
<!DOCTYPE svg PUBLIC "-//W3C//DTD SVG 20010904//EN"
 "http://www.w3.org/TR/2001/REC-SVG-20010904/DTD/svg10.dtd">
<svg version="1.0" xmlns="http://www.w3.org/2000/svg"
 width="309.000000pt" height="262.000000pt" viewBox="0 0 309.000000 262.000000"
 preserveAspectRatio="xMidYMid meet">

<g transform="translate(0.000000,262.000000) scale(0.100000,-0.100000)"
fill="#000000" stroke="none">
<path d="M1837 2049 c-87 -288 -167 -555 -178 -593 -14 -48 -24 -65 -29 -55
-4 8 -47 120 -95 249 -77 210 -105 275 -105 245 0 -34 -62 -580 -66 -585 -3
-2 -9 2 -14 10 -5 8 -96 143 -202 300 -106 157 -251 372 -323 477 -92 137
-131 187 -133 172 -2 -11 8 -283 23 -604 15 -321 25 -595 23 -609 -3 -22 -34
5 -267 230 -145 140 -265 253 -267 251 -3 -2 72 -231 165 -508 94 -277 169
-505 167 -507 -2 -2 -116 75 -252 171 -137 96 -250 174 -252 172 -1 -1 28 -67
66 -146 37 -79 128 -273 202 -431 l134 -288 266 0 267 0 -18 118 c-10 64 -20
132 -23 149 -3 18 -1 33 4 33 5 0 71 -43 145 -96 75 -53 140 -93 143 -89 4 4
9 139 12 301 3 162 9 294 13 295 5 0 78 -93 164 -206 85 -114 156 -205 159
-202 2 2 11 57 20 123 8 65 17 120 19 122 2 2 34 -43 70 -99 47 -73 69 -99 74
-88 4 7 19 51 32 96 13 46 27 83 30 83 3 0 16 -71 28 -157 28 -202 32 -223 40
-223 4 0 90 74 192 164 129 116 185 160 187 148 1 -9 -15 -119 -36 -245 l-39
-227 294 2 294 3 133 225 c73 124 128 226 122 228 -6 1 -112 -36 -236 -82
-124 -46 -226 -80 -228 -75 -2 4 109 340 247 746 138 406 251 742 251 747 0 5
-117 -106 -261 -245 -322 -314 -483 -468 -487 -464 -1 1 5 105 13 230 9 125
14 230 11 232 -5 5 -20 -12 -184 -200 -64 -73 -114 -123 -116 -115 -2 7 -10
276 -16 598 -7 322 -15 621 -19 664 l-6 80 -158 -525z"/>
</g>
</svg>
