<svg width="26" height="32" xmlns="http://www.w3.org/2000/svg" xmlns:xlink="http://www.w3.org/1999/xlink" overflow="hidden"><defs><clipPath id="clip0"><rect x="488" y="360" width="26" height="32"/></clipPath></defs><g clip-path="url(#clip0)" transform="translate(-488 -360)"><path d="M12.6862 30.1621C12.6862 30.1312 12.6551 30.1158 12.5931 30.1158 12.528 30.1158 12.5063 30.1034 12.5187 30.0726 12.5404 30.0201 12.4411 29.9614 12.3357 29.9614 12.2798 29.9614 12.2643 29.946 12.2643 29.8935 12.2674 29.8348 12.2488 29.8194 12.1682 29.8132 12.0844 29.8039 12.0658 29.7885 12.0658 29.7298 12.0658 29.6557 12.0131 29.6217 11.8921 29.6217 11.8394 29.6217 11.8239 29.6094 11.8394 29.5724 11.8611 29.5137 11.7991 29.4674 11.6905 29.4674 11.6285 29.4674 11.613 29.4519 11.613 29.3995 11.6161 29.3439 11.5975 29.3253 11.5323 29.3192 11.4672 29.3099 11.4486 29.2914 11.4393 29.2265 11.4331 29.1679 11.4082 29.1401 11.3524 29.1277 11.309 29.1185 11.2749 29.0938 11.2718 29.0752 11.2656 28.9826 11.2563 28.9734 11.1818 28.9734 11.1198 28.9734 11.1043 28.9579 11.1043 28.8962 11.1043 28.8313 11.0888 28.819 11.0081 28.819 10.9337 28.819 10.9151 28.8066 10.9306 28.7727 10.9585 28.6985 10.9182 28.6337 10.8406 28.6337 10.7879 28.6337 10.7631 28.6121 10.7569 28.5658 10.7507 28.5195 10.7197 28.4886 10.67 28.4793 10.6204 28.4701 10.5925 28.4423 10.5925 28.4021 10.5925 28.3651 10.5646 28.3373 10.5149 28.3249 10.4684 28.3126 10.4343 28.2786 10.4219 28.2323 10.4095 28.1829 10.3785 28.152 10.3381 28.1459 10.2947 28.1397 10.2668 28.1088 10.2606 28.0687 10.2544 28.0193 10.2265 27.9977 10.1644 27.9915 10.1179 27.9853 10.0807 27.9637 10.0838 27.9452 10.0931 27.8618 10.0776 27.834 10.0125 27.8247 9.96903 27.8186 9.93801 27.7877 9.92562 27.7383 9.91321 27.6889 9.88219 27.658 9.84187 27.6518 9.79844 27.6457 9.77052 27.6148 9.76433 27.5746 9.75813 27.5283 9.7302 27.5036 9.67438 27.4975 9.60923 27.4913 9.59373 27.4758 9.60614 27.4264 9.61854 27.3832 9.59993 27.3585 9.53479 27.3307 9.48517 27.3091 9.44484 27.2721 9.44174 27.2535 9.43554 27.1609 9.42624 27.1516 9.35179 27.1516 9.28976 27.1516 9.27425 27.1362 9.27425 27.0744 9.27425 27.0127 9.25874 26.9972 9.19671 26.9972 9.13468 26.9972 9.11917 26.9818 9.11917 26.9201 9.11917 26.8799 9.09746 26.8336 9.06953 26.8182 9.04161 26.8027 9.02301 26.7811 9.02301 26.7718 9.03231 26.7101 9.0199 26.6947 8.96098 26.6792 8.92685 26.67 8.90204 26.6453 8.90514 26.6206 8.91755 26.531 8.89895 26.5032 8.82139 26.5032 8.77798 26.5032 8.75006 26.4909 8.76247 26.4724 8.79658 26.4199 8.74696 26.318 8.68491 26.318 8.64769 26.318 8.62288 26.2933 8.61667 26.25 8.61049 26.2006 8.58256 26.1759 8.52363 26.1698 8.4709 26.1636 8.44609 26.1451 8.45539 26.1204 8.46469 26.0957 8.45229 26.0586 8.43058 26.037 8.40886 26.0123 8.39026 25.966 8.39026 25.932 8.39026 25.8919 8.36543 25.8672 8.31891 25.861 8.26929 25.8548 8.25067 25.8363 8.26309 25.8054 8.29099 25.7344 8.24758 25.6696 8.17313 25.6696 8.11731 25.6696 8.10489 25.6572 8.11731 25.6078 8.1297 25.5615 8.1111 25.5399 8.05216 25.5152 8.00564 25.4997 7.97772 25.4719 7.98702 25.4534 7.99634 25.438 7.99323 25.4226 7.97463 25.4226 7.95912 25.4226 7.9405 25.3701 7.93429 25.3083 7.9281 25.2126 7.91259 25.1879 7.85675 25.1817 7.80402 25.1725 7.78542 25.1508 7.78542 25.0953 7.78542 25.0551 7.773 25.0212 7.7544 25.0212 7.73889 25.0212 7.72339 24.9841 7.72339 24.9409 7.72339 24.876 7.71097 24.8637 7.66135 24.876 7.60862 24.8884 7.5993 24.876 7.5993 24.7865 7.5993 24.6939 7.59 24.6815 7.52176 24.6815 7.44732 24.6815 7.44422 24.6723 7.44422 24.5148 7.44422 24.3542 7.44113 24.345 7.36048 24.3357 7.27983 24.3264 7.27362 24.3141 7.27362 24.1998 7.27362 24.1288 7.25502 24.0516 7.23021 24.0238 7.20849 23.993 7.19919 23.9714 7.2147 23.9714 7.22709 23.9714 7.22091 23.9528 7.20229 23.9343 7.17127 23.9034 7.15576 23.9034 7.13405 23.9405 7.11233 23.9714 7.10303 23.9219 7.10303 23.7768 7.10303 23.5823 7.09682 23.5669 7.02549 23.5391 6.95725 23.5144 6.94795 23.4928 6.94795 23.3538 6.94795 23.2334 6.93863 23.1994 6.89832 23.1994 6.8673 23.1994 6.85489 23.1809 6.86421 23.1562 6.88902 23.0945 6.85179 23.0698 6.80216 23.1099 6.76805 23.1377 6.76184 23.1068 6.76184 22.9277 6.76184 22.724 6.75875 22.7116 6.6843 22.6931 6.61295 22.6745 6.60676 22.6591 6.60676 22.48 6.60676 22.1805 6.57884 22.057 6.5106 22.057 6.45787 22.057 6.45166 22.0323 6.45166 21.8254 6.45166 21.6988 6.43927 21.5692 6.42376 21.5383 6.40825 21.5105 6.38654 21.4611 6.37722 21.4333 6.36792 21.3994 6.34311 21.387 6.31209 21.3963 6.27178 21.4117 6.26557 21.3623 6.26557 20.998 6.26557 20.7077 6.25315 20.5502 6.22214 20.4792L6.17561 20.3742 6.1446 20.4514C6.12288 20.507 6.11358 20.1952 6.11358 19.414L6.11047 18.2963 6.18803 18.2777 6.26245 18.2592 6.27178 17.7714C6.28108 17.302 6.28417 17.2866 6.3462 17.2773 6.42995 17.265 6.45166 17.1538 6.45166 16.7524 6.45166 16.4776 6.45478 16.4653 6.5292 16.4375L6.60676 16.4066 6.60676 15.9713C6.60676 15.6007 6.61295 15.539 6.65017 15.5699 6.72773 15.6347 6.76184 15.4371 6.76184 14.8968 6.76184 14.588 6.77425 14.4027 6.78976 14.4274 6.83629 14.4984 6.90762 14.4429 6.92624 14.3163 6.95414 14.165 6.95414 12.7539 6.92933 12.6026 6.91382 12.5193 6.89211 12.4853 6.83629 12.473 6.76493 12.4544 6.76184 12.439 6.76184 12.2229 6.76184 11.9974 6.75875 11.9913 6.6843 11.9913 6.61606 11.9913 6.60676 11.9789 6.60676 11.8709 6.60676 11.7103 6.58193 11.6516 6.5106 11.6516 6.46717 11.6516 6.45166 11.63 6.45166 11.5744 6.45166 11.5127 6.43615 11.4973 6.37722 11.4973 6.3183 11.4973 6.30588 11.4849 6.3183 11.4386 6.3276 11.3984 6.31209 11.3645 6.26866 11.3367 6.23144 11.3151 6.20354 11.2749 6.20354 11.2472 6.20354 11.1916 6.14149 11.1576 6.04844 11.1576 6.01122 11.1576 5.98641 11.1329 5.9802 11.0897 5.9709 11.0279 5.94918 11.0187 5.80961 11.0094 5.67623 11.0032 5.65142 10.9909 5.66693 10.9507 5.70104 10.8612 5.58939 10.818 5.32883 10.818 5.13032 10.818 5.0931 10.8118 5.10551 10.7717 5.13344 10.7006 4.99075 10.6636 4.68058 10.6636 4.38902 10.6636 4.26494 10.7006 4.29286 10.7748 4.30527 10.8087 4.27424 10.818 4.14708 10.818 3.96408 10.818 3.85551 10.8735 3.88652 10.9538 3.90203 10.994 3.88343 11.0032 3.76867 11.0032 3.63528 11.0032 3.61357 11.0187 3.62598 11.1175 3.62908 11.136 3.59187 11.1576 3.54533 11.1638 3.4833 11.17 3.4554 11.1916 3.44919 11.241 3.44298 11.2873 3.40885 11.3182 3.36233 11.3305 3.291 11.3491 3.27549 11.3768 3.28479 11.4602 3.2879 11.4787 3.25687 11.4973 3.21655 11.4973 3.14831 11.4973 3.13901 11.5158 3.12041 11.6485 3.10488 11.7751 3.08937 11.8029 3.03046 11.8122 2.97461 11.8184 2.9591 11.8462 2.9436 11.9758 2.9343 12.0623 2.92188 12.1055 2.92188 12.0746 2.91879 12.0438 2.90019 12.0283 2.88157 12.0376 2.86296 12.0499 2.85676 12.0777 2.86606 12.1024 2.87536 12.1271 2.86296 12.1457 2.83814 12.1457 2.80712 12.1457 2.79161 12.192 2.7854 12.3093 2.7761 12.4483 2.7668 12.4699 2.70787 12.4791 2.63963 12.4884 2.63653 12.5038 2.63653 12.7725 2.63653 13.0781 2.62412 13.1214 2.52796 13.1368 2.46904 13.1491 2.46593 13.18 2.45042 13.566 2.43803 13.9025 2.42561 13.9828 2.38839 13.9828 2.36358 13.9828 2.33566 14.0168 2.32326 14.06 2.28604 14.1897 2.29223 15.5853 2.32945 15.6934 2.36358 15.7922 2.4039 15.8169 2.4287 15.752 2.43803 15.7304 2.44733 15.8045 2.44733 15.9219 2.45042 16.0361 2.46283 16.1287 2.48144 16.1287 2.50006 16.1287 2.51245 16.1627 2.51245 16.2028 2.51245 16.3047 2.56209 16.3294 2.59001 16.243 2.61173 16.1781 2.61482 16.1781 2.62412 16.2368 2.63342 16.2708 2.62723 16.3603 2.61173 16.4375 2.5931 16.5486 2.5745 16.5795 2.51866 16.5857 2.46904 16.595 2.44112 16.5733 2.4194 16.5178 2.3946 16.4529 2.36979 16.4375 2.28293 16.4375 2.19609 16.4375 2.17437 16.4251 2.16507 16.3696 2.15886 16.3171 2.13094 16.2955 2.06891 16.2893 2.02239 16.2831 1.99137 16.2646 2.00067 16.2491 2.0379 16.1905 1.98207 16.0979 1.90763 16.0979 1.85489 16.0979 1.83009 16.0793 1.82388 16.0299 1.81767 15.9836 1.78975 15.9558 1.74634 15.9496 1.70291 15.9435 1.67499 15.9157 1.66878 15.8725 1.66259 15.823 1.63467 15.8014 1.57264 15.7953 1.51059 15.7891 1.48889 15.7706 1.50129 15.7397 1.52921 15.6656 1.48578 15.6038 1.40824 15.6038 1.35242 15.6038 1.3338 15.5853 1.3338 15.539 1.3338 15.5019 1.30899 15.468 1.27486 15.4587 1.24075 15.4494 1.22213 15.4247 1.22833 15.4031 1.23765 15.3784 1.21594 15.3476 1.18181 15.3259 1.14149 15.3074 1.11669 15.2611 1.11669 15.2179 1.11669 15.1438 1.08876 15.1283 1.0019 15.1376 0.980209 15.1407 0.967794 15.1067 0.970888 15.0573 0.977095 14.9894 0.961587 14.9678 0.908856 14.9616 0.865447 14.9554 0.837524 14.9276 0.831317 14.8844 0.82511 14.8412 0.797208 14.8134 0.756871 14.8072 0.69484 14.7979 0.682426 14.7733 0.635902 14.5695 0.632809 14.554 0.626602 14.5201 0.626602 14.4954 0.623508 14.4676 0.592493 14.4583 0.545949 14.4676 0.474617 14.483 0.471523 14.4737 0.487031 14.3966 0.499425 14.3225 0.493238 14.307 0.443601 14.307 0.350554 14.307 0.310218 14.2453 0.310218 14.1001 0.310218 13.9797 0.304031 13.9674 0.232678 13.9674 0.167554 13.9674 0.155139 13.9519 0.152046 13.8747 0.148932 13.8254 0.142725 13.7698 0.139631 13.7512 0.136538 13.7358 0.130331 13.6987 0.127217 13.674 0.127217 13.6493 0.0962014 13.6277 0.0620924 13.6277 0.0124551 13.6277-0.00305272 13.5999-0.0185605 13.4733-0.0371618 13.3375-0.0464828 13.319-0.111608 13.319-0.179846 13.319-0.186053 13.3066-0.186053 13.1491-0.186053 12.9886-0.189147 12.9793-0.263592 12.9793-0.338038 12.9793-0.341131 12.9701-0.341131 12.8095-0.341131 12.6798-0.350452 12.6397-0.387675 12.6397-0.412484 12.6397-0.434199 12.615-0.434199 12.5872-0.434199 12.544-0.440386 12.5409-0.462101 12.5748-0.502437 12.6335-0.533453 12.5193-0.524132 12.3525-0.517945 12.2352-0.545847 12.0746-0.579976 12.0129-0.589277 12.0005-0.614085 12.0036-0.638914 12.0252-0.676137 12.0561-0.682324 12.0036-0.682324 11.6856-0.682324 11.2996-0.685438 11.2873-0.812594 11.3089-0.828122 11.3089-0.837423 11.0557-0.837423 10.7408-0.837423 10.2529-0.84363 10.1696-0.883946 10.1696-0.924262 10.1696-0.93047 10.0275-0.93047 9.08889-0.93047 8.15025-0.924262 8.0082-0.883946 8.0082-0.84363 8.0082-0.837423 7.93411-0.834309 7.53889-0.831215 7.27952-0.825008 7.09118-0.815708 7.12206-0.797086 7.19307-0.744355 7.18999-0.744355 7.1128-0.744355 7.07882-0.728848 7.05104-0.71334 7.05104-0.694738 7.05104-0.682324 6.92754-0.679231 6.75153-0.676137 6.58481-0.66993 6.47364-0.660609 6.50452-0.651308 6.5354-0.629593 6.55394-0.610992 6.54776-0.558261 6.53232-0.521039 6.37483-0.527246 6.17414-0.530339 6.01049-0.527246 5.99505-0.480722 6.03211-0.403183 6.09696-0.372147 6.03521-0.350452 5.79128-0.331831 5.5844-0.328737 5.56896-0.260499 5.56896-0.19226 5.56896-0.186053 5.55662-0.186053 5.39914-0.186053 5.24167-0.179846 5.22931-0.111608 5.22931-0.0464828 5.22931-0.0371618 5.2108-0.0185605 5.06259 6.10544e-05 4.92057 0.0155689 4.89277 0.071393 4.88351 0.130331 4.87425 0.139631 4.85263 0.148932 4.72913 0.158233 4.59636 0.167554 4.58092 0.232678 4.58092 0.300917 4.58092 0.307124 4.56549 0.316425 4.42036 0.325725 4.27834 0.335046 4.25672 0.403285 4.24128 0.462202 4.22584 0.480824 4.20422 0.480824 4.13939 0.47771 4.07454 0.493238 4.05602 0.545949 4.05602 0.604887 4.05602 0.617301 4.0344 0.635902 3.90471 0.654524 3.76887 0.666918 3.75035 0.73827 3.74107 0.797208 3.73491 0.82511 3.71019 0.831317 3.66388 0.837524 3.62066 0.862333 3.59287 0.899556 3.59287 0.961587 3.59287 0.99881 3.52493 0.974001 3.45702 0.961587 3.42614 0.980209 3.40761 1.02983 3.40143 1.07635 3.39527 1.10427 3.36747 1.11048 3.32116 1.11669 3.2841 1.1477 3.23778 1.18181 3.22235 1.21283 3.20383 1.24075 3.16987 1.24075 3.14825 1.24075 3.12664 1.27797 3.08958 1.3214 3.06796 1.37102 3.04019 1.39583 3.00621 1.38653 2.97225 1.37723 2.9352 1.39894 2.91358 1.46406 2.90124 1.53851 2.8858 1.55402 2.87036 1.54162 2.82405 1.5323 2.77773 1.54781 2.76229 1.61916 2.74686 1.67499 2.7345 1.71842 2.70362 1.72772 2.66658 1.73702 2.62953 1.78354 2.59555 1.84248 2.58011 1.90763 2.5616 1.93864 2.5369 1.93864 2.49366 1.93864 2.45353 1.96656 2.43191 2.03169 2.41957 2.09683 2.40721 2.12785 2.38559 2.13406 2.3362 2.14024 2.28988 2.16816 2.26519 2.2271 2.25901 2.28604 2.25283 2.31394 2.22813 2.32015 2.18182 2.32636 2.13242 2.36047 2.10462 2.4287 2.08611 2.49694 2.06757 2.52796 2.04287 2.52796 1.99963 2.52796 1.95332 2.55588 1.93788 2.65204 1.92554 2.7513 1.91318 2.77922 1.89775 2.7854 1.84217 2.79473 1.78968 2.81642 1.77116 2.87847 1.77116 2.98393 1.77116 3.03046 1.74028 3.04285 1.66309 3.05217 1.61678 3.08628 1.59826 3.19484 1.5859 3.31581 1.57354 3.33443 1.5612 3.33131 1.50253 3.32822 1.43459 3.34373 1.43151 3.52052 1.43151 3.71594 1.43151 3.81519 1.38212 3.76867 1.30801 3.75625 1.28639 3.93925 1.27713 4.34248 1.27713 4.74572 1.27713 4.92872 1.28639 4.91631 1.30801 4.90389 1.32655 4.91321 1.3605 4.93181 1.3852 4.95974 1.41916 5.04037 1.43151 5.22648 1.43151 5.46842 1.43151 5.48082 1.43459 5.47772 1.50253 5.47463 1.56428 5.49323 1.57046 5.66072 1.5859 5.81271 1.59826 5.84684 1.6106 5.84684 1.65691 5.84684 1.73102 5.91817 1.77116 6.05465 1.77116 6.14769 1.77116 6.16631 1.78042 6.15081 1.82055 6.12598 1.88541 6.19112 1.92554 6.32139 1.92554 6.38342 1.92554 6.42065 1.94098 6.41755 1.96568 6.40825 2.04905 6.42376 2.07993 6.47958 2.07993 6.57575 2.07993 6.63466 2.11388 6.61916 2.15712 6.59744 2.20651 6.69981 2.26519 6.80527 2.26519 6.86421 2.26519 6.87971 2.27753 6.86421 2.31458 6.84249 2.37326 6.90141 2.41957 7.00068 2.41957 7.0503 2.41957 7.06272 2.43501 7.0503 2.48132 7.03789 2.53072 7.05339 2.55234 7.12784 2.57703 7.18987 2.59865 7.22709 2.63261 7.2333 2.67584 7.23951 2.71906 7.27052 2.74994 7.32016 2.75921 7.36357 2.76847 7.3977 2.79317 7.40079 2.81479 7.407 2.90432 7.4163 2.91358 7.48765 2.91358 7.54657 2.91358 7.56519 2.93212 7.57449 3.00005 7.5807 3.0587 7.60242 3.0865 7.65203 3.09268 7.69237 3.09884 7.72339 3.12664 7.72959 3.16987 7.73578 3.21309 7.7668 3.24396 7.81643 3.25322 7.85986 3.2625 7.89397 3.2872 7.89709 3.3088 7.90327 3.39527 7.91259 3.40761 7.97151 3.40761 8.01185 3.40761 8.03356 3.42922 8.03356 3.46628 8.03356 3.49716 8.05526 3.54037 8.08009 3.56199 8.10489 3.58361 8.12661 3.62684 8.12661 3.65772 8.12661 3.69476 8.14832 3.71637 8.18555 3.71637 8.22896 3.71637 8.25067 3.74107 8.25688 3.80283 8.26309 3.8615 8.2848 3.88928 8.33442 3.89546 8.38094 3.90163 8.40577 3.92943 8.41196 3.98809 8.41817 4.04676 8.44297 4.07454 8.48952 4.08072 8.52983 4.08689 8.56085 4.11469 8.56706 4.15791 8.57326 4.19804 8.60737 4.23202 8.6539 4.24436 8.69733 4.25672 8.71283 4.26598 8.69423 4.26906 8.63839 4.27216 8.6446 4.36479 8.69733 4.36479 8.72525 4.36479 8.74696 4.40184 8.75315 4.46668 8.75936 4.54079 8.77798 4.56856 8.8338 4.57474 8.88342 4.584 8.90204 4.60562 8.90204 4.66119 8.90204 4.71987 8.91755 4.73531 8.97649 4.73531 9.05093 4.73531 9.08814 4.82176 9.08814 5.00084 9.08814 5.05641 9.10366 5.07495 9.15949 5.07495 9.22152 5.07495 9.23703 5.09655 9.26184 5.22316 9.28355 5.34356 9.30217 5.36826 9.3549 5.36518 9.41073 5.36518 9.42003 5.38062 9.41693 5.45781 9.41382 5.53192 9.42933 5.55352 9.49138 5.56896 9.55962 5.5844 9.56892 5.60602 9.57822 5.72952 9.58752 5.84995 9.59993 5.87465 9.65576 5.88391 9.7147 5.89317 9.724 5.91478 9.7333 6.05681 9.74262 6.20501 9.74881 6.21737 9.81704 6.21737 9.90079 6.21737 9.93183 6.28838 9.91941 6.44587 9.91011 6.51996 9.92562 6.54158 9.98765 6.55702 10.0621 6.57553 10.0652 6.58789 10.0745 6.81329 10.0838 7.04178 10.0869 7.05104 10.1582 7.05104 10.2327 7.05104 10.2358 7.05722 10.2358 7.29806 10.2358 7.53889 10.2389 7.54507 10.3102 7.54507 10.4033 7.54507 10.4219 7.6068 10.4219 7.94029 10.4219 8.08849 10.4343 8.19346 10.4529 8.19346 10.4715 8.19346 10.4839 8.22434 10.487 8.26448 10.487 8.30153 10.4963 8.31389 10.5056 8.29535 10.5553 8.17185 10.577 8.30463 10.577 8.71529 10.577 9.12284 10.5832 9.17842 10.6328 9.20004 10.6607 9.2124 10.6948 9.22165 10.7041 9.21858 10.7166 9.21548 10.7321 9.59218 10.7383 10.0553 10.7476 10.7284 10.76 10.9168 10.8003 11.0032L10.8468 11.1113 10.881 11.0032C10.9027 10.923 10.912 11.2224 10.9151 12.1364 10.9182 12.933 10.9058 13.3838 10.8871 13.3962 10.8716 13.4054 10.8561 13.3869 10.8561 13.3529 10.8561 13.3159 10.8437 13.2881 10.8313 13.2881 10.7941 13.2881 10.7321 13.6926 10.7321 13.9365 10.7321 14.0569 10.7166 14.1804 10.6948 14.2144 10.6731 14.2453 10.6669 14.2823 10.6762 14.2947 10.7135 14.3286 10.7631 14.273 10.7631 14.1959 10.7631 14.1372 10.7786 14.1218 10.8406 14.1218 10.9027 14.1218 10.9182 14.1063 10.9182 14.0476 10.9182 13.9921 10.9368 13.9705 10.9895 13.9612 11.036 13.955 11.0608 13.9272 11.0671 13.8686 11.0733 13.8099 11.0981 13.7821 11.1446 13.7759 11.188 13.7698 11.2128 13.7451 11.2128 13.7049 11.2128 13.671 11.2438 13.6247 11.2842 13.603 11.3586 13.5598 11.3741 13.5073 11.3152 13.5011 11.2935 13.498 11.309 13.4888 11.3524 13.4764 11.3989 13.4641 11.4331 13.4301 11.4393 13.39 11.4455 13.3468 11.4765 13.319 11.5168 13.3128 11.5633 13.3066 11.5882 13.2788 11.5944 13.2202 11.6005 13.1615 11.6254 13.1337 11.6719 13.1275 11.7215 13.1214 11.7401 13.0966 11.737 13.0503 11.737 12.9948 11.7525 12.9793 11.8084 12.9793 11.8487 12.9793 11.8828 12.9701 11.8828 12.9577 11.8859 12.9423 11.8921 12.899 11.8952 12.8589 11.8983 12.8188 11.92 12.7755 11.9417 12.7632 11.9635 12.7508 11.9697 12.723 11.9604 12.7045 11.9479 12.686 11.9697 12.6582 12.0162 12.6397 12.0658 12.6212 12.0968 12.5872 12.0968 12.5501 12.0968 12.51 12.1216 12.4853 12.1682 12.4791 12.2178 12.473 12.2364 12.4483 12.2364 12.3927 12.2364 12.3402 12.2581 12.3093 12.2984 12.3001 12.3419 12.2877 12.3698 12.2414 12.3884 12.1364 12.4132 12.016 12.4287 11.9913 12.4876 11.9913 12.559 11.9913 12.6024 11.9264 12.5745 11.8554 12.5621 11.8245 12.5807 11.806 12.6303 11.7998 12.6831 11.7937 12.6986 11.772 12.6955 11.7196 12.6893 11.6825 12.7017 11.6516 12.7172 11.6516 12.7358 11.6516 12.7482 11.6177 12.7482 11.5775 12.7482 11.522 12.7668 11.5003 12.8195 11.4911 12.8785 11.4818 12.8909 11.4571 12.9033 11.3274 12.9157 11.1977 12.9281 11.173 12.9901 11.1638 13.0491 11.1545 13.0584 11.136 13.0584 11.0187 13.0584 10.9446 13.0739 10.8735 13.0956 10.8612 13.1142 10.8488 13.1204 10.8519 13.108 10.8735 13.0987 10.8921 13.1018 10.9137 13.1204 10.926 13.1359 10.9353 13.1514 10.926 13.1514 10.9013 13.1514 10.8766 13.1731 10.8458 13.201 10.8365 13.2383 10.8211 13.2476 10.7933 13.2321 10.7253 13.2166 10.6481 13.2259 10.6327 13.2755 10.6327 13.3158 10.6327 13.3375 10.6111 13.3375 10.571 13.3375 10.537 13.3499 10.5092 13.3654 10.5092 13.384 10.5092 13.3996 10.4351 13.4058 10.3487 13.4151 10.2066 13.4244 10.185 13.4864 10.1757 13.5484 10.1665 13.5547 10.148 13.5547 9.99973 13.5547 9.85463 13.5609 9.83609 13.6136 9.85153 13.7004 9.87315 13.719 9.81757 13.7128 9.5335 13.7128 9.39148 13.7252 9.26797 13.7407 9.25871 13.7594 9.24945 13.7718 9.26179 13.7718 9.28959 13.7718 9.31737 13.7873 9.32972 13.8028 9.32047 13.8214 9.31121 13.8338 9.27415 13.8338 9.24017 13.8338 9.2093 13.8493 9.18152 13.8648 9.18152 13.8834 9.18152 13.8958 9.02714 13.8989 8.78938 13.8989 8.57016 13.9082 8.4127 13.9176 8.4343 13.9393 8.48679 13.9889 8.48061 13.9889 8.42504 13.9889 8.40034 14.0044 8.37872 14.0199 8.37872 14.0633 8.37872 14.0602 6.79477 14.0168 6.64347 13.9827 6.51688 13.9393 6.49218 13.9176 6.58171 13.9082 6.60951 13.902 6.43043 13.8989 6.18031 13.8958 5.74804 13.8927 5.72334 13.8338 5.72334 13.7407 5.72334 13.7097 5.62763 13.7159 5.36518 13.719 5.16758 13.7097 5.12127 13.6632 5.08729 13.6322 5.06567 13.595 5.05333 13.5826 5.06259 13.567 5.07185 13.5547 5.00084 13.5547 4.90821 13.5547 4.8125 13.5422 4.73531 13.5236 4.73531 13.5081 4.73531 13.4926 4.71369 13.4926 4.68899 13.4926 4.63342 13.443 4.62724 13.4213 4.68281 13.412 4.70133 13.4027 4.64268 13.3996 4.55005 13.3965 4.45742 13.3903 4.36787 13.384 4.34935 13.381 4.33391 13.3747 4.29993 13.3747 4.28141 13.3717 4.2598 13.3406 4.24128 13.3065 4.24128 13.2631 4.24128 13.2414 4.21966 13.2383 4.17335 13.2321 4.09307 13.2259 3.99734 13.2166 3.94177 13.2166 3.92015 13.1793 3.90163 13.1359 3.90163 13.0615 3.90163 13.0584 3.89238 13.0584 3.73181 13.0584 3.57125 13.0553 3.56199 12.9808 3.56199 12.9095 3.56199 12.9033 3.55273 12.9033 3.40761 12.9033 3.27176 12.894 3.25322 12.8413 3.25322 12.7668 3.25322 12.7451 3.20691 12.7389 3.04636 12.7327 2.95063 12.7203 2.92902 12.6551 2.91358 12.5869 2.89814 12.5776 2.87654 12.5683 2.7345 12.5621 2.62027 12.5466 2.57395 12.5156 2.57395 12.4876 2.57395 12.4783 2.55542 12.4908 2.52146 12.5063 2.4844 12.4969 2.47514 12.4597 2.49058 12.4163 2.50602 12.407 2.49058 12.407 2.39485 12.407 2.29296 12.3946 2.27445 12.3109 2.24357 12.2178 2.20651 12.2147 2.20033 12.2333 2.07993 12.2519 1.9595 12.2488 1.95332 12.1589 1.92244 12.0751 1.89157 12.0658 1.87613 12.0627 1.74646 12.0596 1.54884 12.0255 1.44695 11.9666 1.45003 11.9293 1.45313 11.9107 1.413 11.8952 1.28639 11.8735 1.11657 11.8084 1.03938 11.7525 1.12585 11.7339 1.15362 11.7246 1.10113 11.7246 0.977622 11.7246 0.80472 11.7184 0.786202 11.6564 0.776943 11.5882 0.767664 11.585 0.752226 11.5602 0.304533 11.5478 0.0513397 11.5447-0.245069 11.554-0.350058 11.5726-0.529139 11.5788-0.541498 11.6564-0.550757 11.7153-0.556936 11.7432-0.581634 11.7494-0.627949 11.7556-0.674264 11.7805-0.698961 11.8208-0.698961 11.8518-0.698961 11.8797-0.720579 11.8797-0.745277 11.8797-0.785412 12.0069-0.791592 12.8257-0.791592 13.6446-0.791592 13.7718-0.785412 13.7718-0.745277 13.7718-0.70822 13.8245-0.698961 14.0664-0.698961 14.3208-0.698961 14.358-0.692782 14.3394-0.649567 14.3115-0.575454 14.3859-0.544578 14.6123-0.544578 14.8046-0.544578 14.8171-0.541498 14.814-0.473565 14.8108-0.408732 14.8233-0.405632 15.0466-0.396373 15.2761-0.387114 15.2823-0.384014 15.2699-0.316102 15.2513-0.229631 15.3164-0.204933 15.5615-0.204933 15.6979-0.204933 15.7197-0.195674 15.7042-0.155539 15.6762-0.0814263 15.7507-0.0505495 15.9616-0.0505495 16.1353-0.0505495 16.1508-0.0443904 16.1477 0.0204629 16.1446 0.0822165 16.1601 0.0883958 16.3555 0.0976548 16.5478 0.106914 16.5664 0.113093 16.5478 0.165588 16.523 0.23968 16.6285 0.289095 16.8146 0.289095 16.9138 0.289095 16.9355 0.301433 16.9355 0.347748 16.9355 0.418761 16.9945 0.443458 17.1651 0.443458 17.2829 0.443458 17.2953 0.452738 17.2953 0.514491 17.2922 0.576245 17.3078 0.582404 17.4566 0.591683 17.5869 0.597842 17.6179 0.610201 17.6179 0.656516 17.6179 0.742967 17.6831 0.783103 17.8257 0.783103 17.9343 0.783103 17.9529 0.792382 17.9374 0.832518 17.9126 0.90043 17.9808 0.937486 18.1328 0.937486 18.2445 0.937486 18.2569 0.946745 18.2569 1.0085 18.2538 1.06717 18.2724 1.07953 18.3934 1.09187 18.5019 1.10423 18.5329 1.11967 18.5329 1.16288 18.5329 1.23699 18.6043 1.27713 18.7376 1.27713 18.8307 1.27713 18.8462 1.28639 18.8462 1.34814 18.8431 1.40682 18.8617 1.41916 18.9827 1.43151 19.0975 1.44387 19.1223 1.45931 19.1223 1.50871 19.1223 1.5581 19.1471 1.57354 19.2463 1.5859 19.3394 1.59826 19.3704 1.61678 19.3704 1.65691 19.3704 1.72792 19.4387 1.77116 19.5596 1.77116 19.6372 1.77116 19.6527 1.78352 19.6527 1.84217 19.6496 1.89775 19.6713 1.91318 19.7581 1.92554 19.8388 1.93788 19.8667 1.95642 19.8667 2.00273 19.8667 2.04905 19.8977 2.06757 20.0001 2.08919 20.0714 2.10154 20.1241 2.12932 20.1117 2.14476 20.0838 2.19107 20.1614 2.26519 20.242 2.26519 20.2916 2.26519 20.3164 2.2868 20.3226 2.3362 20.3288 2.38559 20.3568 2.40721 20.425 2.41957 20.4901 2.43191 20.5181 2.45353 20.5181 2.49676 20.5181 2.5338 20.546 2.5616 20.5956 2.57395 20.6452 2.58629 20.6762 2.61717 20.6824 2.66041 20.6886 2.70672 20.7228 2.73142 20.7972 2.74686 20.8716 2.75921 20.8965 2.77773 20.8841 2.81169 20.8623 2.86726 20.9244 2.91358 21.0267 2.91358 21.0857 2.91358 21.0919 2.92286 21.064 2.95681 21.0267 3.00005 21.0608 3.04636 21.1539 3.07414 21.1787 3.0834 21.2004 3.11428 21.2004 3.14825 21.2004 3.18531 21.2252 3.21001 21.2687 3.21619 21.3152 3.22235 21.34 3.25014 21.3462 3.3088 21.3524 3.36747 21.3772 3.39527 21.4238 3.40143 21.4703 3.40761 21.4951 3.4354 21.5013 3.49406 21.5075 3.55273 21.5323 3.58053 21.5819 3.58669 21.6316 3.59597 21.6502 3.61756 21.6502 3.67316 21.6502 3.73181 21.6657 3.74725 21.7277 3.74725 21.7867 3.74725 21.8053 3.76269 21.8053 3.81208 21.8053 3.84914 21.8301 3.88312 21.8642 3.89238 21.9045 3.90163 21.9169 3.92633 21.9076 3.96647 21.8952 4.00662 21.9076 4.02514 21.9387 4.02514 21.9697 4.02514 21.9914 4.0591 21.9976 4.12703 22.0038 4.20114 22.0224 4.22892 22.0782 4.2351 22.1279 4.24436 22.1465 4.26598 22.1465 4.32155 22.1465 4.37404 22.162 4.39566 22.2085 4.39566 22.2798 4.39566 22.3326 4.50063 22.3326 4.64576 22.3326 4.71987 22.345 4.73531 22.4101 4.73531 22.4721 4.73531 22.4876 4.75075 22.4876 4.8125 22.4876 4.85571 22.5001 4.88969 22.5187 4.88969 22.5342 4.88969 22.5466 4.92057 22.5404 4.9607 22.5373 5.0101 22.5497 5.02864 22.5962 5.02864 22.6427 5.02864 22.6551 5.05023 22.6583 5.12127 22.6583 5.19228 22.6738 5.21388 22.7358 5.22931 22.804 5.24475 22.8133 5.26637 22.8226 5.40842 22.832 5.55662 22.8381 5.56896 22.9095 5.56896 22.9777 5.56896 22.9839 5.58132 22.9839 5.72334 22.9839 5.85611 22.9932 5.87773 23.046 5.87773 23.1235 5.87773 23.1731 5.97036 23.1638 6.09696 23.1545 6.18031 23.1669 6.20193 23.2321 6.21737 23.2786 6.22663 23.3127 6.26061 23.3158 6.29456 23.3561 6.68978 23.3592 6.7114 23.4213 6.7114 23.4709 6.7114 23.4802 6.73302 23.4802 6.88122 23.4802 6.97385 23.4957 7.05104 23.5112 7.05104 23.5298 7.05104 23.5422 7.07882 23.5422 7.11588 23.5422 7.16527 23.5547 7.17455 23.6043 7.15911 23.6632 7.14057 23.6663 7.15293 23.6663 7.42156L23.6663 7.70561 23.7439 7.69328 23.8183 7.67784 23.8276 8.00512C23.8369 8.31079 23.84 8.33551 23.9082 8.36329 23.9734 8.39108 23.9765 8.4096 23.9765 8.77086 23.9765 9.08889 23.9827 9.15064 24.023 9.15064 24.0633 9.15064 24.0695 9.37604 24.0695 10.9878 24.0695 12.5995 24.0633 12.8249 24.023 12.8249 23.9827 12.8249 23.9765 12.8898 23.9765 13.2233 23.9765 13.6154 23.9765 13.6247 23.9082 13.6339 23.84 13.6432 23.8369 13.6586 23.8276 13.9581 23.8183 14.2669 23.8183 14.2761 23.7439 14.2947 23.6694 14.3132 23.6663 14.3225 23.6663 14.5695 23.6663 14.7115 23.6539 14.8381 23.6353 14.8473 23.6198 14.8566 23.6043 14.8504 23.6043 14.8319 23.6043 14.8134 23.5919 14.8072 23.5733 14.8165 23.5578 14.8257 23.5422 14.8628 23.5422 14.8968 23.5422 14.9276 23.5298 14.9554 23.5112 14.9554 23.4926 14.9554 23.4802 15.045 23.4802 15.1654 23.4802 15.3074 23.4709 15.3568 23.4492 15.3259 23.3996 15.2457 23.353 15.3352 23.3313 15.5606 23.3127 15.7489 23.3034 15.7736 23.2414 15.7829 23.1669 15.7922 23.1514 15.8632 23.1669 16.0732 23.17 16.1164 23.1576 16.1627 23.1421 16.175 23.1235 16.1843 23.108 16.1781 23.108 16.1596 23.108 16.1411 23.0956 16.1349 23.077 16.1442 23.0615 16.1534 23.046 16.1905 23.046 16.2244 23.046 16.2553 23.0336 16.2831 23.015 16.2831 22.9995 16.2831 22.9839 16.3541 22.9839 16.4375 22.9839 16.5795 22.9777 16.5919 22.9095 16.5919 22.8381 16.5919 22.832 16.6042 22.8226 16.7524 22.8133 16.8945 22.804 16.9161 22.7358 16.9315 22.6769 16.947 22.6583 16.9717 22.6551 17.0427 22.6489 17.2619 22.6458 17.2711 22.5652 17.2711 22.4939 17.2711 22.4876 17.2804 22.4876 17.4255 22.4876 17.5707 22.4814 17.5799 22.4101 17.5799 22.3388 17.5799 22.3326 17.5892 22.3326 17.7343 22.3326 17.8825 22.3295 17.8918 22.2395 17.9103 22.1713 17.9227 22.1465 17.9443 22.1465 17.9937 22.1465 18.0307 22.1186 18.0709 22.0782 18.0894 22.0379 18.1079 22.0069 18.1481 22.0038 18.182 21.9914 18.4198 21.9945 18.4136 21.9138 18.4136 21.8456 18.4136 21.8363 18.4259 21.8363 18.5217 21.8363 18.6112 21.8239 18.6297 21.7712 18.6297 21.7215 18.6297 21.7091 18.6452 21.7215 18.6915 21.7308 18.7316 21.7215 18.7532 21.6936 18.7532 21.6688 18.7532 21.6502 18.7841 21.6502 18.8273 21.6502 18.8829 21.6316 18.9045 21.5819 18.9138 21.5261 18.92 21.5075 18.9478 21.5013 19.0249 21.492 19.1021 21.4765 19.1238 21.4269 19.1238 21.3803 19.1238 21.3679 19.1392 21.3803 19.1824 21.3896 19.2195 21.3772 19.2503 21.3524 19.2596 21.3276 19.2689 21.309 19.3028 21.309 19.3368 21.309 19.3769 21.2842 19.4016 21.2408 19.4078 21.1911 19.414 21.1632 19.4449 21.1508 19.5097 21.1384 19.5622 21.1291 19.59 21.126 19.5776 21.126 19.5653 21.095 19.5684 21.0578 19.59 21.0143 19.6116 20.9988 19.6425 21.0081 19.6826 21.0174 19.7135 21.0112 19.7505 20.9957 19.7598 20.9802 19.7691 20.9678 19.803 20.9678 19.8339 20.9678 19.871 20.943 19.8957 20.8996 19.9018 20.8561 19.908 20.8251 19.9389 20.8127 19.9883 20.8003 20.0377 20.7693 20.0686 20.7259 20.0747 20.6762 20.0809 20.6576 20.1056 20.6576 20.1581 20.6576 20.2106 20.639 20.2353 20.5894 20.2415 20.5429 20.2477 20.5118 20.2785 20.5025 20.3279 20.4932 20.3712 20.4684 20.4051 20.4498 20.4082 20.3568 20.4144 20.3474 20.4237 20.3474 20.4947 20.3474 20.5441 20.3257 20.578 20.2823 20.5904 20.2389 20.6058 20.2234 20.6305 20.2327 20.6676 20.242 20.7046 20.2265 20.7293 20.1893 20.7386 20.1551 20.7478 20.1303 20.7818 20.1303 20.8158 20.1303 20.859 20.1055 20.8837 20.0621 20.8899 20.0187 20.8961 19.9877 20.9269 19.9752 20.9763 19.9628 21.0257 19.9318 21.0566 19.8884 21.0628 19.8388 21.069 19.8202 21.0937 19.8202 21.1492 19.8202 21.2079 19.8047 21.2234 19.7426 21.2234 19.6682 21.2234 19.6589 21.2326 19.6527 21.3252 19.6496 21.3438 19.6154 21.3685 19.572 21.3777 19.5162 21.3901 19.4914 21.4179 19.4852 21.4796 19.4759 21.5445 19.4573 21.563 19.3983 21.563 19.3394 21.563 19.3239 21.5784 19.3239 21.6371 19.3239 21.6958 19.3053 21.7143 19.2401 21.7235 19.1781 21.7297 19.1502 21.7513 19.144 21.8007 19.1378 21.844 19.1099 21.8718 19.0664 21.8779 19.0168 21.8841 18.9951 21.9119 18.9889 21.9737 18.9796 22.0354 18.961 22.057 18.9083 22.057 18.8276 22.057 18.7656 22.1095 18.7842 22.162 18.7935 22.1836 18.7532 22.2114 18.6973 22.2268 18.6415 22.2454 18.595 22.2793 18.595 22.304 18.595 22.3287 18.5453 22.3658 18.4864 22.3843 18.4027 22.4121 18.3809 22.4337 18.3841 22.4831 18.3903 22.5356 18.3716 22.548 18.291 22.5572 18.2166 22.5634 18.1917 22.5819 18.1917 22.6282 18.1917 22.6715 18.1669 22.6931 18.0987 22.7054 18.0274 22.7178 18.0056 22.7363 18.0087 22.7919 18.0087 22.8382 17.9932 22.8598 17.956 22.8598 17.8537 22.8598 17.804 22.8969 17.804 22.971 17.804 23.0296 17.7885 23.0451 17.7203 23.0451 17.6055 23.0451 17.5435 23.0883 17.5652 23.1469 17.5807 23.184 17.559 23.1994 17.469 23.2056 17.3729 23.2149 17.3543 23.2272 17.3574 23.2859 17.3574 23.3384 17.3419 23.3538 17.2767 23.3538 17.1775 23.3538 17.1123 23.4187 17.1403 23.4866 17.1527 23.5267 17.131 23.536 17.0224 23.5453 16.9138 23.5514 16.889 23.5669 16.889 23.6163 16.889 23.6626 16.8642 23.6811 16.7805 23.6935 16.6967 23.7058 16.6688 23.7243 16.6626 23.7799 16.6533 23.8386 16.6347 23.8479 16.5137 23.8479L16.3772 23.8479 16.3772 23.6163C16.3772 23.3971 16.3803 23.3847 16.4548 23.3662 16.5261 23.3476 16.5323 23.3322 16.5323 23.184 16.5323 23.0327 16.5354 23.0234 16.6068 23.0358 16.6719 23.0481 16.6812 23.0358 16.6967 22.9061 16.7091 22.8258 16.7091 22.7487 16.6998 22.7301 16.6905 22.7147 16.6905 22.6684 16.6998 22.6251 16.7153 22.5727 16.7401 22.551 16.796 22.551 16.8735 22.551 16.8735 22.548 16.8735 22.304 16.8735 22.0601 16.8735 22.057 16.9511 22.057 17.0286 22.057 17.0286 22.0539 17.0286 21.7977 17.0286 21.5568 17.0317 21.5383 17.0875 21.5537 17.1713 21.5753 17.1899 21.529 17.2116 21.1987 17.2302 20.9208 17.2364 20.8991 17.2985 20.8899 17.3636 20.8806 17.3667 20.8621 17.376 20.5657 17.3853 20.2662 17.3884 20.2507 17.4566 20.2415 17.5218 20.2322 17.5249 20.223 17.5249 19.8339 17.5249 19.4418 17.5249 19.4387 17.5993 19.4202 17.7048 19.3955 17.7172 19.2627 17.7048 18.2592L17.6955 17.4441 17.6179 17.4255C17.5528 17.4101 17.5404 17.3885 17.5373 17.2835 17.5311 17.089 17.528 17.0859 17.4535 17.0859 17.3977 17.0859 17.3822 17.0705 17.3822 17.018 17.3853 16.9531 17.3698 16.947 17.1682 16.9284 17.0503 16.9192 16.9697 16.9099 16.9914 16.9068 17.01 16.9037 17.0286 16.8821 17.0286 16.8574 17.0286 16.7802 16.796 16.7493 16.6812 16.8111 16.6161 16.8451 16.6161 16.8482 16.6719 16.8883 16.7215 16.9253 16.6905 16.9315 16.4331 16.9315 16.0919 16.9315 16.036 16.9439 16.036 17.0272 16.036 17.0766 16.0112 17.0859 15.8872 17.0859 15.7042 17.0859 15.5987 17.1477 15.6607 17.2187 15.6949 17.2619 15.6793 17.2681 15.518 17.2773 15.3537 17.2866 15.3382 17.2928 15.3412 17.3576 15.3443 17.4194 15.3288 17.4255 15.1955 17.4255 15.09 17.4255 15.0435 17.4379 15.0311 17.4749 15.0218 17.5027 15.0187 17.5336 15.028 17.549 15.0373 17.5614 14.9815 17.583 14.907 17.5923 14.7705 17.6139 14.7023 17.6787 14.7736 17.725 14.7953 17.7405 14.755 17.7559 14.6713 17.7652 14.5565 17.7775 14.5317 17.793 14.5317 17.8424 14.5317 17.8856 14.5069 17.9072 14.4386 17.9196 14.3735 17.9288 14.3425 17.9535 14.3363 17.9999 14.3301 18.04 14.2929 18.0709 14.2277 18.0925 14.1533 18.1141 14.1285 18.1388 14.1316 18.1913 14.1316 18.2438 14.1161 18.2592 14.0509 18.2592 13.9579 18.2592 13.8927 18.3117 13.9144 18.3673 13.9237 18.3889 13.8896 18.4198 13.8338 18.4414 13.778 18.4599 13.7407 18.4908 13.747 18.5124 13.7563 18.534 13.719 18.5772 13.6694 18.6081 13.6012 18.6482 13.5857 18.6729 13.6105 18.6977 13.6353 18.7224 13.626 18.7409 13.5764 18.7687 13.5391 18.7872 13.5112 18.8273 13.5174 18.8551 13.5236 18.8922 13.505 18.9076 13.4461 18.9076 13.384 18.9076 13.3685 18.9231 13.3685 18.9817 13.3685 19.0342 13.3468 19.062 13.291 19.0743 13.229 19.0898 13.2135 19.1145 13.2135 19.1855 13.2135 19.2503 13.201 19.272 13.17 19.2596 13.1266 19.2442 13.077 19.2936 13.0739 19.3553 13.0646 19.4541 13.015 19.5467 12.956 19.5715 12.9126 19.59 12.8909 19.627 12.894 19.6641 12.9095 19.803 12.8692 19.8957 12.7916 19.8957 12.7234 19.8957 12.7172 19.9049 12.7172 20.0655 12.7172 20.226 12.7141 20.2353 12.6396 20.2353 12.5652 20.2353 12.5621 20.2446 12.5621 20.4113 12.5621 20.507 12.5528 20.5749 12.5435 20.5657 12.5311 20.5564 12.4969 20.5595 12.4659 20.578 12.4163 20.6027 12.407 20.646 12.407 20.8498 12.407 21.0751 12.4039 21.0906 12.3388 21.0875 12.2519 21.0844 12.2271 21.1647 12.224 21.492 12.2209 21.6958 12.2116 21.7421 12.1775 21.7297 12.0968 21.6988 12.0658 21.8995 12.0627 22.4553 12.0596 22.7548 12.0503 22.9679 12.0441 22.9277 12.0255 22.8289 11.9666 22.8598 11.9324 22.9802 11.92 23.0389 11.9107 23.5483 11.9169 24.1165 11.9262 24.9841 11.9324 25.1508 11.9728 25.1755 12.0007 25.1941 12.0255 25.191 12.041 25.1663 12.0534 25.1447 12.0658 25.404 12.0658 25.7406 12.0658 26.3797 12.0658 26.3736 12.1992 26.3519 12.2116 26.3519 12.2209 26.531 12.2209 26.7503 12.2209 26.9972 12.2333 27.1516 12.2519 27.1516 12.2705 27.1516 12.2829 27.1887 12.2829 27.2319 12.2829 27.2968 12.2953 27.306 12.345 27.2906 12.4008 27.2721 12.4039 27.2906 12.4132 27.621 12.4225 27.9606 12.4256 27.9699 12.4939 27.9668 12.559 27.9637 12.5621 27.976 12.5621 28.2231 12.5621 28.3743 12.5745 28.4793 12.5931 28.4793 12.6117 28.4793 12.6241 28.5071 12.6241 28.5442 12.6241 28.5905 12.6396 28.6028 12.6706 28.5905 12.7079 28.5781 12.7172 28.6059 12.7172 28.7356 12.7172 29.0166 12.7482 29.1216 12.8288 29.1401 12.9002 29.1586 12.9033 29.1741 12.9033 29.3871 12.9033 29.6032 12.9064 29.6156 12.9808 29.6341 13.0553 29.6526 13.0584 29.6619 13.0584 29.9305L13.0584 30.2084 12.8723 30.2084C12.7265 30.2084 12.6862 30.1992 12.6862 30.1621Z" fill-rule="evenodd" transform="matrix(1 0 0 -1 489 391)"/></g></svg>