<?xml version="1.0" standalone="no"?>
<!DOCTYPE svg PUBLIC "-//W3C//DTD SVG 20010904//EN"
 "http://www.w3.org/TR/2001/REC-SVG-20010904/DTD/svg10.dtd">
<svg version="1.0" xmlns="http://www.w3.org/2000/svg"
 width="70.000000pt" height="50.000000pt" viewBox="0 0 70.000000 50.000000"
 preserveAspectRatio="xMidYMid meet">

<g transform="translate(0.000000,50.000000) scale(0.100000,-0.100000)"
fill="#000000" stroke="none">
<path d="M300 220 c-28 -24 -45 -30 -85 -30 -47 -1 -137 -18 -178 -35 -11 -5
-16 -14 -12 -23 3 -8 1 -18 -5 -22 -34 -21 150 -80 251 -80 34 0 73 -7 94 -17
28 -13 38 -14 48 -4 9 9 9 14 -1 20 -11 7 -10 10 3 15 27 10 54 7 80 -10 14
-9 32 -13 41 -10 15 6 15 8 0 25 -16 18 -15 18 34 8 47 -9 53 -8 90 18 22 15
40 33 40 39 0 7 -13 25 -29 40 -32 31 -50 33 -146 21 l-60 -8 28 22 c53 43 23
57 -33 16 -22 -16 -47 -25 -72 -25 -37 0 -38 1 -38 35 0 19 -3 35 -7 35 -5 0
-24 -14 -43 -30z"/>
</g>
</svg>
