<?xml version="1.0" standalone="no"?>
<!DOCTYPE svg PUBLIC "-//W3C//DTD SVG 20010904//EN"
 "http://www.w3.org/TR/2001/REC-SVG-20010904/DTD/svg10.dtd">
<svg version="1.0" xmlns="http://www.w3.org/2000/svg"
 width="732.000000pt" height="720.000000pt" viewBox="0 0 732.000000 720.000000"
 preserveAspectRatio="xMidYMid meet">

<g transform="translate(0.000000,720.000000) scale(0.100000,-0.100000)"
fill="#000000" stroke="none">
<path d="M3625 7181 c-16 -10 -113 -62 -215 -116 -741 -391 -1124 -697 -1244
-994 -30 -73 -31 -82 -30 -221 0 -132 2 -152 28 -225 65 -188 142 -327 424
-758 106 -164 192 -301 189 -304 -7 -6 -412 398 -692 690 -119 125 -254 257
-298 292 -238 190 -406 200 -663 39 -187 -117 -373 -284 -832 -747 -251 -253
-292 -298 -288 -318 3 -13 28 -204 56 -424 115 -914 171 -1145 313 -1301 138
-151 353 -170 877 -78 79 14 298 54 485 90 352 67 505 94 505 88 0 -6 -100
-49 -481 -209 -643 -270 -789 -344 -912 -466 -89 -88 -119 -154 -125 -268 -10
-182 59 -401 271 -856 128 -276 398 -830 410 -842 7 -6 194 -47 417 -92 771
-153 1015 -183 1206 -146 226 43 334 162 409 452 35 134 64 309 129 778 71
511 87 615 96 615 8 0 35 -167 115 -695 87 -572 140 -766 250 -921 183 -256
512 -292 1273 -139 246 50 605 135 620 148 20 16 398 780 485 980 132 305 187
497 187 656 0 284 -171 446 -717 680 -76 32 -276 114 -443 181 -168 67 -312
126 -320 131 -30 19 71 -5 576 -131 592 -149 708 -175 862 -191 84 -8 131 -9
190 0 349 51 449 339 546 1576 14 176 28 339 31 362 l6 42 -143 158 c-374 415
-681 732 -818 847 -257 215 -422 261 -608 170 -108 -53 -213 -147 -529 -472
-326 -337 -675 -684 -681 -678 -5 6 43 86 274 457 395 634 454 763 442 969
-14 242 -230 443 -873 811 -144 82 -727 401 -729 398 -1 0 -14 -9 -31 -18z
m270 -2900 c339 -90 607 -370 682 -716 21 -93 20 -288 -1 -382 -38 -173 -122
-329 -245 -456 -118 -123 -270 -213 -436 -259 -116 -31 -354 -31 -470 0 -343
94 -607 371 -682 717 -10 41 -16 119 -16 190 0 190 47 351 145 502 144 220
355 364 614 418 99 21 305 13 409 -14z"/>
</g>
</svg>
