<?xml version="1.0" standalone="no"?>
<!DOCTYPE svg PUBLIC "-//W3C//DTD SVG 20010904//EN"
 "http://www.w3.org/TR/2001/REC-SVG-20010904/DTD/svg10.dtd">
<svg version="1.0" xmlns="http://www.w3.org/2000/svg"
 width="777.000000pt" height="785.000000pt" viewBox="0 0 777.000000 785.000000"
 preserveAspectRatio="xMidYMid meet">

<g transform="translate(0.000000,785.000000) scale(0.100000,-0.100000)"
fill="#000000" stroke="none">
<path d="M3730 7784 c-513 -23 -1048 -157 -1495 -373 -626 -303 -1108 -713
-1512 -1286 -152 -216 -332 -556 -430 -815 -248 -652 -313 -1403 -182 -2088
106 -553 325 -1064 652 -1521 407 -567 991 -1035 1628 -1301 324 -136 678
-231 1034 -276 176 -23 711 -26 875 -6 767 95 1417 366 2002 835 145 116 410
378 536 530 371 446 628 949 772 1513 177 689 152 1460 -69 2132 -193 587
-507 1098 -941 1532 -626 626 -1438 1012 -2320 1104 -152 16 -422 26 -550 20z
m420 -180 c178 -10 418 -48 625 -100 110 -27 295 -83 295 -88 0 -2 -66 -55
-147 -117 -82 -62 -245 -188 -364 -280 l-216 -167 -139 19 c-543 72 -1098 42
-1568 -86 l-136 -37 -118 68 c-168 97 -412 247 -412 254 0 18 362 203 548 279
514 211 1021 290 1632 255z m-317 -924 c109 -5 237 -14 285 -20 124 -15 395
-60 408 -68 7 -4 47 -50 90 -102 43 -52 144 -174 224 -270 437 -528 505 -613
505 -629 0 -10 -173 -368 -384 -797 l-385 -779 -285 -1 c-388 -1 -693 -27
-1060 -90 -79 -14 -145 -23 -146 -22 -200 248 -1059 1326 -1062 1334 -2 7 87
189 198 406 111 216 260 507 331 645 71 139 133 255 139 258 16 11 140 43 264
69 173 36 338 57 515 65 85 5 157 9 160 9 3 1 94 -3 203 -8z m2942 -472 c263
-339 483 -751 605 -1133 97 -305 155 -624 176 -972 4 -68 3 -113 -2 -113 -6 0
-18 30 -28 67 -42 160 -190 520 -289 703 -129 242 -293 496 -431 670 l-76 95
0 210 c0 116 -3 281 -7 368 -3 92 -2 157 3 157 5 -1 27 -24 49 -52z m-6136
-947 l36 -276 -52 -135 c-124 -323 -236 -756 -288 -1110 -23 -152 -45 -357
-45 -414 0 -87 -17 -37 -39 114 -35 245 -44 391 -37 600 4 107 9 215 12 240
39 333 88 565 176 820 72 209 187 474 195 451 3 -7 22 -138 42 -290z m5924
115 c111 -132 283 -373 370 -518 137 -228 310 -594 386 -817 38 -111 39 -106
-30 -313 -103 -313 -306 -769 -436 -983 l-49 -80 -525 -7 c-288 -4 -595 -7
-682 -5 l-158 2 -78 235 c-99 299 -163 460 -261 657 -87 176 -155 283 -224
358 l-47 50 145 295 c80 162 248 505 375 763 l231 467 448 0 448 0 87 -104z
m-4221 -947 l526 -660 -40 -117 c-105 -310 -202 -699 -258 -1042 -16 -102 -33
-200 -38 -219 l-7 -34 -175 -49 c-96 -27 -353 -99 -570 -158 l-395 -109 -32
37 c-31 36 -295 368 -641 809 -146 185 -171 212 -195 212 l-29 1 7 88 c42 552
163 1092 348 1546 l25 59 283 88 c156 49 367 115 469 148 102 32 187 59 190
59 3 0 242 -296 532 -659z m4381 -2386 c-2 -203 -6 -386 -9 -409 -4 -34 -20
-58 -102 -149 -186 -209 -444 -430 -702 -602 -144 -96 -221 -140 -419 -237
-213 -105 -340 -156 -389 -156 -81 -1 -778 74 -788 84 -11 10 -92 784 -83 789
2 1 45 22 94 45 256 123 688 476 1075 878 l105 109 390 5 c215 3 489 6 610 8
l220 2 -2 -367z m-3876 -50 c366 -254 744 -463 1034 -573 l87 -33 6 -51 c12
-107 76 -752 76 -772 0 -17 -43 -37 -308 -143 -354 -141 -294 -133 -569 -80
-477 92 -942 286 -1346 562 -116 79 -357 267 -389 303 -13 16 -18 56 -24 224
-5 113 -9 239 -9 280 l0 74 300 83 c165 46 444 124 620 172 176 49 322 89 325
88 3 -1 92 -62 197 -134z"/>
</g>
</svg>
