<?xml version="1.0" standalone="no"?>
<!DOCTYPE svg PUBLIC "-//W3C//DTD SVG 20010904//EN"
 "http://www.w3.org/TR/2001/REC-SVG-20010904/DTD/svg10.dtd">
<svg version="1.0" xmlns="http://www.w3.org/2000/svg"
 width="282.000000pt" height="419.000000pt" viewBox="0 0 282.000000 419.000000"
 preserveAspectRatio="xMidYMid meet">

<g transform="translate(0.000000,419.000000) scale(0.100000,-0.100000)"
fill="#000000" stroke="none">
<path d="M330 4030 l0 -150 60 0 60 0 0 -1815 0 -1815 -220 0 -221 0 3 -120
c2 -66 6 -120 11 -120 4 0 632 0 1397 0 l1390 0 0 120 0 120 -220 0 -220 0 0
1815 0 1815 60 0 60 0 0 150 0 150 -1080 0 -1080 0 0 -150z m471 -246 c-2 -50
0 -110 4 -131 6 -40 7 -41 123 -95 597 -281 1061 -498 1071 -500 8 -2 12 104
14 407 l2 410 50 0 50 0 3 -1813 2 -1813 -52 3 c-33 2 -53 8 -54 16 -1 6 -2
345 -3 752 l-1 740 -600 0 -600 0 -5 -22 c-3 -13 -4 -353 -3 -756 l3 -732 -52
0 -53 0 0 1816 0 1815 53 -3 52 -3 -4 -91z m723 -2298 c23 -13 56 -44 72 -67
26 -38 29 -50 29 -124 0 -72 -3 -86 -27 -123 -87 -131 -289 -131 -376 0 -24
37 -27 51 -27 122 0 71 3 86 26 118 72 105 198 136 303 74z"/>
</g>
</svg>
