<svg width="37" height="29" xmlns="http://www.w3.org/2000/svg" xmlns:xlink="http://www.w3.org/1999/xlink" overflow="hidden"><defs><clipPath id="clip0"><rect x="656" y="363" width="37" height="29"/></clipPath></defs><g clip-path="url(#clip0)" transform="translate(-656 -363)"><path d="M23.1706 20.9606C23.1274 20.9579 23.0813 20.9252 23.0411 20.8628 22.9965 20.7868 22.9787 20.7777 22.9787 20.8202 22.9787 20.8659 22.9697 20.8689 22.934 20.8385 22.9102 20.8172 22.8894 20.7777 22.8894 20.7472 22.8894 20.7168 22.8685 20.6834 22.8418 20.6742 22.8031 20.659 22.7971 20.6256 22.812 20.4917 22.8298 20.3548 22.8239 20.3274 22.7823 20.3092 22.7406 20.2939 22.7346 20.2635 22.7525 20.1267 22.7674 19.9958 22.7614 19.9593 22.7257 19.9441 22.6751 19.9259 22.6632 19.7281 22.7109 19.6977 22.7614 19.6643 22.7436 19.6004 22.6781 19.5821 22.6186 19.5669 22.6156 19.5487 22.6305 19.3966 22.6424 19.2627 22.6364 19.2262 22.6007 19.214 22.562 19.1988 22.5591 19.1623 22.574 19.0315 22.5888 18.8976 22.5829 18.8642 22.5442 18.8489 22.5026 18.8338 22.4966 18.8003 22.5115 18.6634 22.5234 18.5326 22.5174 18.49 22.4817 18.4687 22.446 18.4505 22.4371 18.4079 22.449 18.2831 22.4609 18.1736 22.452 18.1219 22.4282 18.1127 22.3746 18.0915 22.3448 17.8602 22.3865 17.8085 22.4133 17.7751 22.4073 17.7629 22.3686 17.7477 22.324 17.7295 22.3211 17.702 22.3359 17.5621 22.3508 17.4374 22.3448 17.3948 22.3121 17.3827 22.2526 17.3583 22.2288 17.1971 22.2734 17.1241 22.3032 17.0724 22.3002 17.0571 22.2556 17.0206 22.1931 16.975 22.1484 16.7621 22.202 16.7621 22.2496 16.7621 22.2407 16.6708 22.1901 16.6526 22.1276 16.6282 22.0979 16.4396 22.1484 16.3787 22.1812 16.3361 22.1782 16.324 22.1365 16.2905 22.0681 16.2419 22.0354 16.0472 22.083 15.9893 22.1127 15.9528 22.1068 15.9316 22.0592 15.8829 21.9907 15.8129 21.9729 15.6213 22.0354 15.597 22.0592 15.5878 22.0473 15.5604 21.9997 15.5148 21.9401 15.4539 21.9342 15.4266 21.9491 15.311 21.961 15.2076 21.955 15.1619 21.9193 15.1254 21.8836 15.0889 21.8747 15.0432 21.8866 14.9337 21.9015 14.8212 21.8955 14.7847 21.8569 14.7725 21.8212 14.7573 21.8152 14.7238 21.83 14.59 21.8479 14.4531 21.842 14.4257 21.8003 14.4075 21.7586 14.3922 21.7527 14.3618 21.7706 14.225 21.7854 14.0911 21.7795 14.0576 21.7408 14.0424 21.6991 14.0272 21.6932 13.9937 21.711 13.8599 21.7259 13.726 21.72 13.6926 21.6813 13.6773 21.6396 13.6621 21.6337 13.6287 21.6515 13.4948 21.6664 13.361 21.6605 13.3275 21.6218 13.3123 21.5801 13.2971 21.5742 13.2636 21.5891 13.1298 21.6009 12.999 21.595 12.9594 21.5593 12.9472 21.5236 12.932 21.5176 12.8925 21.5266 12.7586 21.5385 12.6309 21.5295 12.5853 21.4968 12.567 21.4611 12.5457 21.4551 12.5031 21.47 12.3693 21.4819 12.2415 21.476 12.1989 21.4492 12.1989 21.3986 12.1989 21.3539 11.9464 21.4016 11.9312 21.4462 11.9159 21.4373 11.8338 21.3897 11.8338 21.3302 11.8338 21.2945 11.56 21.348 11.5236 21.3778 11.5022 21.3778 11.4931 21.3391 11.4688 21.2736 11.4292 21.2439 11.2984 21.2825 11.2254 21.3064 11.1768 21.3004 11.1463 21.2499 11.0763 21.1993 11.0064 21.1903 10.9638 21.2052 10.8786 21.2201 10.8026 21.2111 10.7478 21.1754 10.693 21.1427 10.6413 21.1338 10.5865 21.1457 10.5105 21.1605 10.4375 21.1516 10.3827 21.1159 10.328 21.0802 10.2732 21.0713 10.2185 21.0861 10.1272 21.101 10.036 21.0921 9.99336 21.0564 9.95686 21.0207 9.91728 21.0118 9.87473 21.0267 9.77128 21.0386 9.67393 21.0326 9.62528 20.9998 9.5918 20.9463 9.54007 20.9403 9.3971 20.9909 9.34537 21.0177 9.31799 21.0118 9.29672 20.9612 9.24802 20.8898 9.18112 20.8689 8.99554 20.9284 8.95904 20.9493 8.94381 20.9374 8.91644 20.8987 8.87994 20.8332 8.81606 20.8124 8.62746 20.866 8.59398 20.9106 8.56661 20.9017 8.5179 20.854 8.5179 20.8303 8.5179 20.8035 8.49663 20.7946 8.46926 20.7648 8.39015 20.7737 8.22893 20.8094 8.19242 20.8332 8.16807 20.8243 8.14982 20.7797 8.12547 20.7083 8.08595 20.6994 8.00987 20.7529 7.89427 20.7856 7.82127 20.7797 7.80604 20.7202 7.76041 20.6577 7.71177 20.6517 7.69044 20.6725 7.55356 20.6874 7.42581 20.6845 7.39844 20.6398 7.38019 20.5982 7.36496 20.5922 7.33456 20.6071 7.21286 20.619 7.09725 20.6131 7.05163 20.5773 7.02425 20.5446 6.9938 20.5357 6.94515 20.5446 6.83867 20.5565 6.73522 20.5476 6.68355 20.5148 6.65617 20.4821 6.62874 20.4762 6.57707 20.4881 6.46147 20.5 6.33366 20.494 6.29716 20.4583 6.28502 20.4226 6.26979 20.4167 6.23329 20.4256 6.10856 20.4375 5.99906 20.4285 5.93821 20.4048 5.91693 20.3542 5.87736 20.3155 5.65836 20.3601 5.65836 20.4048 5.65836 20.3958 5.56705 20.3482 5.54885 20.2857 5.52445 20.253 5.2933 20.3036 5.25982 20.3393 5.23547 20.3363 5.22332 20.2947 5.18984 20.2322 5.1412 20.1905 4.91609 20.2381 4.88564 20.2857 4.85524 20.2798 4.80654 20.2292 4.80654 20.1667 4.80654 20.1399 4.64229 20.1875 4.56318 20.2203 4.50843 20.2203 4.49321 20.1786 4.46275 20.1042 4.40498 20.0804 4.2924 20.125 4.20725 20.1607 4.1403 20.1578 4.12513 20.1072 4.08863 20.0596 4.05207 20.0477 4.00952 20.0536 3.88782 20.0566 3.78437 20.0418 3.71747 20.012 3.68707 19.9792 3.65057 19.9703 3.60489 19.9852 3.50451 19.9971 3.40414 19.9912 3.35851 19.9554 3.32201 19.9197 3.28854 19.9108 3.23681 19.9227 3.13643 19.9317 3.03908 19.9257 2.98735 19.8929 2.95388 19.8602 2.92348 19.8513 2.87175 19.8632 2.77138 19.8721 2.6953 19.8632 2.61015 19.8423 2.57667 19.8186 2.53407 19.8186 2.5128 19.8423 2.50367 19.8602 2.49757 19.8691 2.46107 19.8632 2.42155 19.8513 2.36982 19.8662 2.33937 19.9108 2.31507 19.9465 2.29374 19.9733 2.25724 19.9733 2.23289 19.9733 2.19947 19.9912 2.19336 20.0358 2.20551 20.0744 2.22074 20.1101 2.21161 20.1281 2.18726 20.1489 2.15384 20.1607 2.15384 20.1727 2.18424 20.1786 2.20249 20.2203 2.22074 20.259 2.22074 20.2976 2.22074 20.3304 2.23899 20.3304 2.26032 20.3304 2.28462 20.3423 2.28159 20.3631 2.25114 20.3869 2.21772 20.3988 2.21469 20.4107 2.24509 20.4167 2.26334 20.4434 2.28159 20.4673 2.28159 20.491 2.28159 20.5089 2.29984 20.5089 2.32112 20.5089 2.34547 20.5208 2.34244 20.5416 2.31199 20.5654 2.27857 20.5773 2.27549 20.5892 2.30287 20.5982 2.32722 20.6309 2.33634 20.6755 2.32419 20.7261 2.31199 20.7529 2.32112 20.7648 2.35459 20.7767 2.38807 20.8035 2.39719 20.857 2.38505 20.9136 2.36982 20.9315 2.37894 20.9463 2.43067 20.9641 2.50367 20.988 2.50972 21.0355 2.46107 21.0743 2.42155 21.1338 2.44892 21.1338 2.5128 21.1338 2.56144 21.1814 2.57057 21.2082 2.52494 21.2319 2.48542 21.3123 2.52192 21.3123 2.57365 21.3123 2.60405 21.3361 2.61015 21.4016 2.59794 21.4611 2.5858 21.4908 2.5919 21.4908 2.61317 21.4908 2.6345 21.5117 2.67095 21.5355 2.6953 21.5742 2.7379 21.5801 2.7379 21.5801 2.6953 21.5801 2.66792 21.6009 2.64665 21.6248 2.64665 21.6485 2.64665 21.6694 2.66792 21.6694 2.6953 21.6694 2.7318 21.6902 2.7379 21.7586 2.72267 21.8271 2.7075 21.8479 2.71355 21.8479 2.74702 21.8479 2.77138 21.8687 2.79875 21.8926 2.8109 21.9164 2.82002 21.9372 2.81398 21.9372 2.79875 21.9372 2.7805 21.958 2.7683 21.9818 2.7683 22.0056 2.7683 22.0264 2.7866 22.0264 2.8109 22.0264 2.83827 22.0502 2.84746 22.1008 2.83525 22.1544 2.82613 22.1753 2.83525 22.1753 2.87175 22.1753 2.90825 22.1961 2.91435 22.2645 2.90221 22.3329 2.88698 22.3537 2.89308 22.3537 2.9326 22.3537 2.9691 22.3746 2.97521 22.443 2.963 22.5145 2.94783 22.5323 2.95388 22.5323 2.99648 22.5323 3.036 22.5501 3.04513 22.6037 3.02996 22.6632 3.01473 22.687 3.02996 22.7376 3.11208 22.7941 3.20031 22.8001 3.20333 22.8001 3.14248 22.8001 3.05733 22.8775 3.05123 22.8983 3.13335 22.9132 3.19421 22.9787 3.21856 22.9787 3.16381 22.9787 3.14858 22.9995 3.13335 23.0233 3.13335 23.047 3.13335 23.0679 3.1516 23.0679 3.17596 23.0679 3.24291 23.1245 3.26418 23.175 3.22158 23.2108 3.19118 23.2226 3.19421 23.2345 3.24291 23.2554 3.32504 23.3654 3.39804 23.3654 3.33114 23.3654 3.30679 23.3803 3.28551 23.3952 3.28551 23.4131 3.28551 23.425 3.30679 23.425 3.33114 23.425 3.35543 23.4429 3.37676 23.4666 3.37676 23.4904 3.37676 23.5172 3.39501 23.5232 3.41629 23.5321 3.43762 23.541 3.43151 23.541 3.40106 23.544 3.33114 23.6035 3.32806 23.6035 3.39501 23.6035 3.43454 23.6124 3.43762 23.6452 3.41018 23.6958 3.36764 23.7821 3.39804 23.7821 3.45889 23.7821 3.49539 23.791 3.49841 23.8237 3.47104 23.8773 3.42541 23.9487 3.45587 23.9755 3.53799 23.9873 3.58059 23.9993 3.58972 24.0112 3.56839 24.032 3.51364 24.1391 3.51974 24.1391 3.57449 24.1391 3.60797 24.1629 3.61401 24.2284 3.60187 24.2968 3.58664 24.3177 3.59274 24.3177 3.63226 24.3177 3.66876 24.3385 3.67487 24.4069 3.66272 24.4664 3.65057 24.4962 3.65662 24.4962 3.67789 24.4962 3.69922 24.517 3.73572 24.5408 3.76007 24.5795 3.80267 24.5855 3.80267 24.5855 3.76007 24.5855 3.69009 24.6182 3.69922 24.6956 3.79355 24.7462 3.85434 24.764 3.86045 24.764 3.82395 24.764 3.75397 24.7997 3.76007 24.8651 3.83609 24.9098 3.89084 24.9247 3.89392 24.9455 3.86045 24.9633 3.82697 24.9812 3.83307 25.0318 3.88782 25.0824 3.94257 25.1062 3.9517 25.1389 3.9213 25.1717 3.89392 25.1835 3.89695 25.1954 3.93042 25.2074 3.96082 25.24 3.96995 25.2877 3.96082 25.3383 3.9517 25.3591 3.96082 25.3591 3.99732 25.3591 4.03382 25.3799 4.03992 25.4484 4.02777 25.5198 4.01255 25.5376 4.01865 25.5376 4.06125 25.5376 4.10077 25.5555 4.1099 25.6031 4.09467 25.6537 4.08252 25.6894 4.10077 25.737 4.15855 25.7905 4.2194 25.8054 4.2255 25.8054 4.189 25.8054 4.15855 25.8263 4.13728 25.8501 4.13728 25.8739 4.13728 25.8947 4.1525 25.8947 4.17075 25.8947 4.189 25.9155 4.22248 25.9393 4.24678 25.978 4.28938 25.984 4.28938 25.984 4.24678 25.984 4.2194 26.0048 4.19813 26.0286 4.19813 26.0524 4.19813 26.0732 4.21638 26.0732 4.24073 26.0732 4.29548 26.1536 4.32896 26.1803 4.28635 26.1923 4.26503 26.2339 4.2924 26.2845 4.35023 26.341 4.4141 26.3708 4.42933 26.3708 4.39888 26.3708 4.335 26.3887 4.33808 26.466 4.41713 26.5077 4.45973 26.5345 4.47188 26.5434 4.44758 26.5613 4.39283 26.6088 4.40196 26.6088 4.45973 26.6088 4.49931 26.6178 4.50233 26.6505 4.47496 26.6981 4.43235 26.7874 4.46275 26.7874 4.52058 26.7874 4.55104 26.8112 4.55708 26.8766 4.54493 26.9451 4.52971 26.9659 4.53581 26.9659 4.57533 26.9659 4.61183 26.9868 4.61793 27.0552 4.60579 27.1236 4.59056 27.1444 4.59666 27.1444 4.63618 27.1444 4.67268 27.1653 4.67879 27.2338 4.66658 27.3021 4.65141 27.323 4.65746 27.323 4.69704 27.323 4.73354 27.3438 4.73964 27.4122 4.72743 27.4718 4.71529 27.5016 4.72133 27.5016 4.74266 27.5016 4.76393 27.5224 4.80049 27.5462 4.82479 27.5848 4.86739 27.5908 4.86739 27.5908 4.82479 27.5908 4.79741 27.6116 4.77614 27.6354 4.77614 27.6592 4.77614 27.68 4.79131 27.68 4.80962 27.68 4.82781 27.7009 4.86129 27.7247 4.88564 27.7634 4.92824 27.7694 4.92824 27.7694 4.88564 27.7694 4.81566 27.802 4.82479 27.8794 4.91912 27.93 4.97997 27.9478 4.98601 27.9478 4.94951 27.9478 4.87954 27.9836 4.88564 28.0461 4.96172 28.0907 5.01037 28.1086 5.01647 28.1413 4.98904 28.177 4.95864 28.1919 4.96474 28.2127 5.02251 28.2276 5.06209 28.2425 5.07732 28.2425 5.05901 28.2454 4.99212 28.3555 5.01647 28.3793 5.08947 28.3912 5.12899 28.4031 5.1412 28.415 5.11987 28.4359 5.05901 28.5073 5.07424 28.543 5.14422 28.5697 5.19287 28.5846 5.19897 28.6174 5.17159 28.665 5.12899 28.7215 5.15637 28.7215 5.2203 28.7215 5.24459 28.7423 5.26284 28.7662 5.26284 28.79 5.26284 28.8108 5.2507 28.8108 5.23245 28.8108 5.18072 28.8703 5.19897 28.8912 5.25674 28.9209 5.33892 28.9685 5.35409 29.0072 5.29934 29.0429 5.2507 29.0459 5.25372 29.0667 5.30847 29.0994 5.39978 29.1441 5.41803 29.1887 5.3602 29.2244 5.31155 29.2274 5.31457 29.2452 5.37542 29.2631 5.4393 29.3762 5.49713 29.3762 5.44238 29.3762 5.42715 29.391 5.41495 29.4059 5.41495 29.4237 5.41495 29.4357 5.43628 29.4357 5.46057 29.4357 5.48492 29.4535 5.50625 29.4773 5.50625 29.5011 5.50625 29.5279 5.52445 29.5339 5.54578 29.5428 5.56705 29.5517 5.561 29.5517 5.53055 29.5547 5.47278 29.6142 5.45145 29.6142 5.50928 29.6142 5.52753 29.638 5.53363 29.6677 5.52445 29.7303 5.50317 29.7689 5.53055 29.8135 5.6279 29.8404 5.68265 29.8493 5.68875 29.8493 5.65225 29.8522 5.561 29.9624 5.5853 29.9891 5.68265 30.004 5.7435 30.013 5.75263 30.0219 5.71311 30.0397 5.63703 30.1111 5.64615 30.1528 5.72525 30.1766 5.76786 30.1944 5.78 30.2034 5.75571 30.2212 5.69486 30.3194 5.71613 30.3432 5.78913 30.3551 5.82871 30.367 5.84086 30.3789 5.81958 30.3968 5.77088 30.5069 5.76786 30.5069 5.81348 30.5069 5.83173 30.5277 5.86521 30.5515 5.8895 30.5902 5.93211 30.5961 5.93211 30.5961 5.8895 30.5961 5.86219 30.617 5.84086 30.6408 5.84086 30.6646 5.84086 30.6854 5.85911 30.6854 5.88346 30.6854 5.93821 30.7658 5.97168 30.7836 5.92298 30.7925 5.90171 30.8282 5.91996 30.8758 5.97471 30.9324 6.03858 30.9532 6.05079 30.9532 6.01429 30.9532 5.94431 30.9889 5.95036 31.0514 6.02644 31.0931 6.07514 31.1139 6.08119 31.1466 6.05381 31.1823 6.02341 31.1942 6.02644 31.2091 6.06294 31.218 6.09031 31.2478 6.10246 31.2835 6.09333 31.3163 6.08421 31.346 6.09641 31.3579 6.12681 31.3698 6.16029 31.3966 6.16941 31.4472 6.15721 31.4977 6.14506 31.5245 6.15419 31.5364 6.19069 31.5513 6.22416 31.5781 6.23637 31.6257 6.22416 31.6703 6.21201 31.703 6.22114 31.7209 6.25456 31.7388 6.28502 31.7685 6.30024 31.7953 6.28804 31.8727 6.25764 31.9887 6.33366 32.0125 6.43409 32.0274 6.49797 32.0363 6.51012 32.0453 6.47362 32.0631 6.39452 32.0899 6.40672 32.1672 6.52534 32.2476 6.65309 32.2655 6.99688 32.1881 6.99688 32.1613 6.99688 32.1524 7.01513 32.1613 7.0425 32.1732 7.06686 32.1048 7.20071 32.0036 7.35281 31.9084 7.50189 31.8102 7.66004 31.7864 7.70566 31.7626 7.75437 31.712 7.82737 31.6763 7.86689 31.6376 7.90949 31.6078 7.95512 31.6078 7.97337 31.6078 7.9886 31.584 8.0251 31.5573 8.05549 31.5275 8.08292 31.4858 8.1407 31.465 8.1833 31.4115 8.29588 31.3073 8.46926 31.2835 8.4875 31.2746 8.49663 31.2478 8.53923 31.224 8.58788 31.2002 8.6335 31.1705 8.67006 31.1556 8.67006 31.1437 8.67006 31.1317 8.68523 31.1317 8.70046 31.1317 8.71871 31.0514 8.85558 30.9532 9.00466 30.855 9.15374 30.7747 9.2876 30.7747 9.29974 30.7747 9.31497 30.7479 9.34235 30.7152 9.36362 30.6795 9.38489 30.6616 9.41535 30.6705 9.43057 30.6795 9.44574 30.6646 9.48224 30.6348 9.5127 30.6051 9.5431 30.5634 9.60697 30.5455 9.6526 30.5247 9.69828 30.495 9.73478 30.4771 9.73478 30.4622 9.73478 30.4474 9.75303 30.4474 9.7743 30.4474 9.79255 30.3938 9.8899 30.3283 9.98726 30.2628 10.0816 30.2093 10.1728 30.2093 10.1881 30.2093 10.2002 30.1825 10.2367 30.1498 10.2672 30.1171 10.2976 30.0903 10.3371 30.0903 10.3584 30.0903 10.3767 30.0665 10.4193 30.0397 10.4527 30.0099 10.4831 29.9653 10.55 29.9415 10.5957 29.9177 10.6444 29.8731 10.7143 29.8374 10.7508 29.8046 10.7873 29.76 10.8512 29.7392 10.8908 29.7183 10.9333 29.6737 11.0186 29.641 11.0824 29.6112 11.1433 29.5696 11.195 29.5547 11.195 29.5368 11.195 29.5249 11.2163 29.5249 11.2406 29.5249 11.265 29.5011 11.3106 29.4743 11.341 29.4446 11.3715 29.4029 11.4323 29.3791 11.4779 29.3553 11.5236 29.3256 11.56 29.3107 11.56 29.2988 11.56 29.2869 11.5752 29.2869 11.5966 29.2869 11.6178 29.2333 11.7122 29.1679 11.8064 29.1024 11.9038 29.0488 11.989 29.0488 12.0011 29.0488 12.0103 29.0221 12.0468 28.9893 12.0833 28.9566 12.1198 28.9298 12.1685 28.9298 12.1897 28.9298 12.2111 28.9179 12.2293 28.9001 12.2293 28.8852 12.2293 28.8524 12.278 28.8286 12.3358 28.8049 12.3936 28.7691 12.4423 28.7543 12.4423 28.7364 12.4423 28.7215 12.4636 28.7215 12.4879 28.7215 12.5122 28.6947 12.5609 28.662 12.5944 28.6293 12.6278 28.6025 12.6643 28.6025 12.6795 28.6025 12.6917 28.5519 12.7769 28.4894 12.8681 28.4299 12.9594 28.3615 13.072 28.3377 13.1207 28.3139 13.1663 28.2841 13.2028 28.2692 13.2028 28.2573 13.2028 28.2454 13.221 28.2454 13.2423 28.2454 13.2636 28.2216 13.3093 28.1948 13.3427 28.1651 13.3731 28.1204 13.4401 28.0967 13.4857 28.0729 13.5344 28.0282 13.6043 27.9925 13.6408 27.9211 13.726 27.8437 13.8568 27.7961 13.9724 27.7783 14.0181 27.7514 14.0546 27.7366 14.0546 27.7217 14.0546 27.692 14.1033 27.6682 14.161 27.6444 14.2189 27.6087 14.2675 27.5938 14.2675 27.5759 14.2675 27.561 14.2858 27.561 14.3071 27.561 14.3253 27.5075 14.4227 27.442 14.52 27.3765 14.6143 27.323 14.7056 27.323 14.7208 27.323 14.7329 27.2962 14.7695 27.2635 14.7999 27.2307 14.8303 27.204 14.8699 27.204 14.8911 27.204 14.9125 27.1772 14.952 27.1444 14.9824 27.1117 15.0128 27.0849 15.0555 27.0849 15.0797 27.0849 15.1011 27.0641 15.1193 27.0403 15.1193 27.0165 15.1193 26.9957 15.1467 26.9957 15.1802 26.9957 15.2136 26.9689 15.2653 26.9362 15.2927 26.9034 15.3232 26.8766 15.3627 26.8766 15.384 26.8766 15.4053 26.8529 15.4479 26.8261 15.4783 26.7963 15.5057 26.7547 15.5635 26.7338 15.606 26.6684 15.7369 26.6208 15.816 26.5761 15.8707 26.5493 15.9011 26.5166 15.962 26.4958 16.0107 26.4779 16.0563 26.4481 16.0928 26.4303 16.0928 26.4155 16.0928 26.4006 16.111 26.4006 16.1324 26.4006 16.1506 26.347 16.2479 26.2815 16.3453 26.2161 16.4396 26.1625 16.5339 26.1625 16.5491 26.1625 16.5674 26.1417 16.5795 26.1179 16.5795 26.0941 16.5795 26.0732 16.6039 26.0732 16.6343 26.0732 16.6678 26.0465 16.7164 26.0167 16.7438 25.984 16.7742 25.9512 16.829 25.9423 16.8716 25.9304 16.9111 25.9096 16.9446 25.8947 16.9446 25.8798 16.9446 25.8471 16.9933 25.8233 17.051 25.7995 17.1089 25.7638 17.1575 25.7489 17.1575 25.7311 17.1575 25.7162 17.1758 25.7162 17.1971 25.7162 17.2153 25.6626 17.3127 25.5972 17.41 25.5317 17.5043 25.4781 17.5956 25.4781 17.6108 25.4781 17.623 25.4513 17.6595 25.4186 17.6899 25.3859 17.7204 25.3591 17.7599 25.3591 17.7811 25.3591 17.8025 25.3323 17.842 25.2996 17.8725 25.2669 17.9029 25.24 17.9455 25.24 17.9698 25.24 17.9911 25.2282 18.0093 25.2103 18.0093 25.1954 18.0093 25.1627 18.058 25.1389 18.1158 25.1151 18.1736 25.0824 18.2223 25.0705 18.2223 25.0556 18.2223 25.0288 18.2588 25.008 18.3074 24.9366 18.4687 24.8771 18.56 24.8354 18.5782 24.8116 18.5873 24.7937 18.6177 24.7937 18.6482 24.7937 18.6786 24.7729 18.7182 24.7462 18.7394 24.7223 18.7638 24.6836 18.8246 24.6598 18.8824 24.636 18.9372 24.6033 18.9828 24.5884 18.9828 24.5706 18.9828 24.5557 18.998 24.5557 19.0163 24.5557 19.0375 24.4932 19.1471 24.4158 19.2657 24.3355 19.3813 24.2551 19.5122 24.2314 19.5578 24.2076 19.6004 24.1719 19.6551 24.151 19.6734 24.1302 19.6947 24.1034 19.7403 24.0945 19.7738 24.0856 19.8072 24.0617 19.8346 24.0469 19.8346 24.032 19.8346 24.0201 19.8498 24.0201 19.8681 24.0201 19.8863 23.9606 19.9897 23.8862 20.0993 23.8118 20.2058 23.7523 20.3 23.7523 20.3061 23.7523 20.3153 23.7047 20.3883 23.6481 20.4704 23.5916 20.5495 23.544 20.6316 23.544 20.6499 23.544 20.6681 23.4934 20.7077 23.4339 20.7381 23.3714 20.7686 23.303 20.8294 23.2822 20.8781 23.2539 20.9359 23.2137 20.9633 23.1706 20.9606ZM22.5564 24.3681C22.6424 24.3689 22.7287 24.3537 22.7584 24.3217 22.818 24.2609 22.8596 24.2639 22.8596 24.3247 22.8596 24.3673 22.8685 24.3673 22.9042 24.3369 22.9281 24.3156 22.9489 24.2822 22.9489 24.2639 22.9489 24.2457 22.9965 24.2061 23.053 24.1787 23.1423 24.1331 23.1572 24.1301 23.1572 24.1727 23.1572 24.2092 23.1631 24.2092 23.1988 24.1787 23.2226 24.1575 23.2345 24.1271 23.2256 24.1149 23.2077 24.0845 23.3595 23.8198 23.3952 23.8198 23.4131 23.8198 23.425 23.8015 23.425 23.7802 23.425 23.7589 23.4488 23.7133 23.4786 23.6798 23.5053 23.6494 23.5469 23.5856 23.5708 23.5399 23.5946 23.4912 23.6333 23.4547 23.6571 23.4547 23.6809 23.4547 23.6928 23.4365 23.6838 23.4121 23.6749 23.3878 23.6987 23.3361 23.7344 23.2965 23.7731 23.257 23.8118 23.1961 23.8237 23.1597 23.8356 23.1201 23.8594 23.0897 23.8743 23.0897 23.8921 23.0897 23.9189 23.0501 23.9338 22.9984 23.9516 22.9497 23.9784 22.9072 23.9933 22.9072 24.0082 22.9072 24.0379 22.8585 24.0617 22.8007 24.0856 22.7429 24.1183 22.6942 24.1362 22.6942 24.151 22.6942 24.1927 22.6334 24.2284 22.5573 24.2641 22.4813 24.3057 22.4204 24.3206 22.4204 24.3355 22.4204 24.3474 22.4022 24.3474 22.3809 24.3474 22.3565 24.3742 22.3139 24.4069 22.2835 24.4397 22.2531 24.4664 22.2105 24.4664 22.1922 24.4664 22.171 24.4872 22.1345 24.5141 22.1132 24.5408 22.0919 24.5735 22.0462 24.5884 22.0097 24.6033 21.9763 24.6569 21.8941 24.7045 21.8272 24.8681 21.6051 24.9723 21.4439 24.9723 21.4165 24.9723 21.4013 24.9961 21.3709 25.0259 21.3496 25.0526 21.3283 25.0943 21.2736 25.1121 21.2279 25.1329 21.1792 25.1627 21.1427 25.1776 21.1427 25.1925 21.1427 25.2133 21.1093 25.2223 21.0667 25.2312 21.0271 25.2669 20.9784 25.2996 20.9602 25.3323 20.9419 25.3591 20.9024 25.3591 20.8689 25.3591 20.8355 25.3859 20.7959 25.4186 20.7777 25.4513 20.7594 25.4781 20.726 25.4781 20.7047 25.4781 20.6651 25.9036 19.9958 25.9661 19.9411 25.984 19.9259 26.0167 19.8741 26.0345 19.8285 26.0554 19.7799 26.0851 19.7434 26.103 19.7434 26.1179 19.7434 26.1328 19.722 26.1328 19.6977 26.1328 19.6734 26.1566 19.6278 26.1863 19.5973 26.2131 19.5699 26.2547 19.5061 26.2726 19.4604 26.2935 19.4148 26.3232 19.3783 26.341 19.3783 26.3559 19.3783 26.3708 19.357 26.3708 19.3327 26.3708 19.3053 26.4035 19.2536 26.4422 19.2171 26.4809 19.1806 26.5196 19.1197 26.5315 19.0832 26.5434 19.0436 26.5642 19.0132 26.5791 19.0132 26.591 19.0132 26.6327 18.9524 26.6684 18.8763 26.7041 18.8003 26.7457 18.7394 26.7606 18.7394 26.7755 18.7394 26.7874 18.7212 26.7874 18.6999 26.7874 18.6786 26.8142 18.6299 26.8469 18.5934 26.8796 18.5569 26.9064 18.5174 26.9064 18.5021 26.9064 18.4869 26.9392 18.4444 26.9808 18.4048 27.0225 18.3653 27.0552 18.3166 27.0552 18.2984 27.0552 18.277 27.082 18.2375 27.1117 18.2101 27.1444 18.1797 27.1772 18.1249 27.1861 18.0823 27.198 18.0428 27.2189 18.0093 27.2338 18.0093 27.2486 18.0093 27.2843 17.9606 27.3111 17.9029 27.3378 17.845 27.3706 17.7964 27.3855 17.7964 27.4004 17.7964 27.4122 17.7781 27.4122 17.7599 27.4122 17.7385 27.445 17.6808 27.4867 17.6321 27.5253 17.5834 27.567 17.5195 27.5759 17.4891 27.5878 17.4557 27.6116 17.4313 27.6325 17.4313 27.6562 17.4313 27.68 17.3918 27.692 17.3401 27.7009 17.2914 27.7277 17.2488 27.7514 17.2488 27.7723 17.2488 27.802 17.2123 27.814 17.1666 27.8229 17.121 27.8437 17.0754 27.8556 17.0663 27.8675 17.0571 27.9419 16.9507 28.0193 16.832 28.0967 16.7103 28.171 16.61 28.1859 16.61 28.2038 16.61 28.2157 16.5826 28.2157 16.5522 28.2157 16.5187 28.2276 16.4852 28.2425 16.473 28.2603 16.464 28.3615 16.3209 28.4716 16.1536 28.5787 15.9863 28.6799 15.8494 28.6947 15.8494 28.7096 15.8494 28.7215 15.8281 28.7215 15.8038 28.7215 15.7795 28.7453 15.7338 28.7751 15.7034 28.8018 15.676 28.8435 15.6121 28.8614 15.5665 28.8822 15.5209 28.912 15.4844 28.9298 15.4844 28.9447 15.4844 28.9595 15.4692 28.9595 15.4479 28.9595 15.3992 29.3196 14.8455 29.3523 14.8455 29.3643 14.8455 29.3762 14.8242 29.3762 14.7999 29.3762 14.7755 29.3999 14.7299 29.4297 14.6995 29.4565 14.6691 29.4982 14.6082 29.522 14.5626 29.5457 14.517 29.5755 14.4805 29.5904 14.4805 29.6023 14.4805 29.6142 14.4622 29.6142 14.444 29.6142 14.4227 29.6469 14.3649 29.6886 14.3162 29.7272 14.2675 29.7689 14.2036 29.7778 14.1732 29.7898 14.1398 29.8106 14.1154 29.8255 14.1154 29.8433 14.1154 29.8701 14.0759 29.885 14.0242 29.9028 13.9755 29.9296 13.9329 29.9445 13.9329 29.9593 13.9329 29.9891 13.8842 30.013 13.8264 30.0367 13.7686 30.0695 13.72 30.0844 13.72 30.1022 13.72 30.123 13.6865 30.1319 13.6439 30.1409 13.6043 30.1766 13.5556 30.2093 13.5375 30.242 13.5191 30.2688 13.4826 30.2688 13.4522 30.2688 13.4249 30.2986 13.367 30.3373 13.3245 30.373 13.2819 30.4206 13.2119 30.4444 13.1663 30.4682 13.1176 30.498 13.0811 30.5128 13.0811 30.5247 13.0811 30.5366 13.0628 30.5366 13.0416 30.5366 13.0202 30.5604 12.9746 30.5902 12.9411 30.617 12.9107 30.6586 12.8469 30.6824 12.8012 30.7062 12.7525 30.736 12.716 30.7449 12.716 30.7568 12.716 30.7836 12.6765 30.8044 12.6248 30.8253 12.5761 30.858 12.5335 30.8758 12.5335 30.8937 12.5335 30.9264 12.497 30.9473 12.4513 31.0187 12.2871 31.0782 12.1958 31.1199 12.1776 31.1437 12.1685 31.1615 12.1441 31.1615 12.1198 31.1615 12.0955 31.1913 12.0468 31.227 12.0103 31.2627 11.9738 31.2954 11.922 31.3014 11.8947 31.3043 11.8703 31.3341 11.8308 31.3668 11.8064 31.4025 11.7852 31.4293 11.7456 31.4293 11.7243 31.4293 11.6817 31.9708 10.8391 32.0363 10.7843 32.0542 10.7691 32.0869 10.7174 32.1048 10.6717 32.1256 10.6231 32.1554 10.5865 32.1732 10.5865 32.1881 10.5865 32.2029 10.5653 32.2029 10.5409 32.2029 10.5166 32.2297 10.4679 32.2595 10.4375 32.2892 10.4071 32.3249 10.3523 32.3369 10.3158 32.3458 10.2793 32.3815 10.2367 32.4142 10.2215 32.444 10.2033 32.4707 10.1607 32.4707 10.1272 32.4707 10.0937 32.4916 10.0603 32.5154 10.0511 32.5392 10.0421 32.5868 9.97203 32.6195 9.89903 32.6552 9.82603 32.6969 9.76518 32.7118 9.76518 32.7267 9.76518 32.7385 9.74693 32.7385 9.72565 32.7385 9.70432 32.7624 9.6587 32.7921 9.62528 32.8189 9.59482 32.8606 9.53095 32.8844 9.48532 32.9082 9.43662 32.9379 9.40012 32.9528 9.40012 32.9647 9.40012 32.9766 9.38187 32.9766 9.35757 32.9766 9.33624 33.0064 9.28452 33.0451 9.24499 33.0808 9.20547 33.1314 9.13549 33.1522 9.08987 33.176 9.04116 33.2057 9.00466 33.2206 9.00466 33.2325 9.00466 33.2444 8.98641 33.2444 8.96509 33.2444 8.94381 33.2682 8.89819 33.298 8.86471 33.3247 8.83431 33.3664 8.77044 33.3843 8.72481 33.4051 8.67611 33.4349 8.63961 33.4527 8.63961 33.4676 8.63961 33.4824 8.62136 33.4824 8.597 33.4824 8.57573 33.5152 8.524 33.5539 8.48443 33.5925 8.4449 33.6313 8.38103 33.6431 8.34453 33.6551 8.30501 33.6848 8.27455 33.7086 8.27455 33.7324 8.27455 33.7503 8.24718 33.7503 8.21678 33.7503 8.1833 33.78 8.11942 33.8187 8.07072 33.8544 8.0251 33.8991 7.96424 33.9139 7.93687 33.9318 7.91252 34.0121 7.79087 34.0925 7.66614 34.1758 7.54444 34.2621 7.41366 34.2858 7.37711 34.6251 6.85995 34.7352 6.6957 34.7531 6.68657 34.7888 6.67134 34.9405 6.34889 34.9405 6.29112 34.9405 6.26369 34.9554 6.23026 34.9703 6.22114 34.9881 6.21201 35 6.11466 35 6.00818 35 5.90171 34.9881 5.80436 34.9703 5.79523 34.9554 5.78611 34.9405 5.7435 34.9405 5.70398 34.9405 5.6644 34.9286 5.62488 34.9137 5.61273 34.8988 5.60361 34.878 5.5549 34.8661 5.50625 34.8542 5.45453 34.8363 5.41495 34.8215 5.41495 34.7709 5.41495 34.6132 5.22634 34.6132 5.16549 34.6132 5.11684 34.5983 5.10772 34.5269 5.12597 34.4763 5.13509 34.4317 5.13207 34.4198 5.11382 34.4108 5.09551 34.3751 5.08034 34.3424 5.08034 34.3097 5.08034 34.2769 5.06209 34.268 5.03774 34.2591 5.01339 34.2234 5.00426 34.1817 5.01339 34.1341 5.02251 34.1014 5.01037 34.0895 4.97997 34.0806 4.95254 34.0508 4.94039 34.0121 4.95254 33.9764 4.96172 33.9348 4.94951 33.9169 4.92214 33.8991 4.89779 33.8455 4.87954 33.7949 4.87954 33.7384 4.88262 33.7086 4.86739 33.7116 4.84612 33.7176 4.81874 33.6937 4.81264 33.6313 4.82479 33.5569 4.84001 33.539 4.83391 33.5152 4.77306 33.5003 4.73354 33.4854 4.71831 33.4854 4.73964 33.4824 4.76393 33.4557 4.77614 33.417 4.77004 33.3724 4.76393 33.3515 4.74266 33.3515 4.70616 33.3575 4.64839 33.3188 4.63618 33.289 4.68483 33.2563 4.73656 33.1849 4.71831 33.1581 4.64839 33.1432 4.60579 33.1283 4.59666 33.1135 4.61793 33.0778 4.67879 33.0064 4.65746 32.9766 4.57836 32.9468 4.50233 32.9111 4.47188 32.9231 4.53883 32.9379 4.60579 32.8248 4.60271 32.807 4.53581 32.7921 4.47188 32.7385 4.44758 32.7385 4.50233 32.7385 4.55406 32.6523 4.53581 32.6225 4.47798 32.6017 4.43543 32.569 4.42323 32.4975 4.43543 32.4202 4.44758 32.4053 4.44148 32.4202 4.40196 32.435 4.36238 32.4202 4.35628 32.3339 4.3715 32.2565 4.38371 32.2327 4.3776 32.2327 4.34413 32.2327 4.31373 32.2089 4.3046 32.1434 4.31373 32.081 4.32285 32.0542 4.31373 32.0542 4.28333 32.0542 4.25288 32.0304 4.24375 31.9679 4.25288 31.8994 4.262 31.8816 4.25288 31.8637 4.19203 31.8519 4.1403 31.8399 4.13117 31.8191 4.16163 31.7893 4.21335 31.6792 4.19505 31.6912 4.14338 31.6941 4.116 31.6733 4.11292 31.6198 4.12513 31.5662 4.1403 31.5275 4.13117 31.5067 4.1038 31.4888 4.0795 31.4412 4.06125 31.3995 4.06125 31.346 4.06125 31.3252 4.04602 31.3281 4.00952 31.3311 3.97907 31.3222 3.95477 31.3073 3.95477 31.2924 3.95477 31.2805 3.96995 31.2805 3.9882 31.2805 4.00645 31.2508 4.01563 31.2151 4.00952 31.1734 4.00342 31.1466 3.97907 31.1496 3.94867 31.1526 3.90607 31.1437 3.90305 31.0811 3.93345 31.0187 3.96082 31.0008 3.9578 30.9681 3.9152 30.9443 3.88172 30.9116 3.86957 30.8788 3.88172 30.8461 3.89695 30.8133 3.8848 30.7925 3.85742 30.7747 3.83307 30.7211 3.81482 30.6705 3.81482 30.62 3.81784 30.5812 3.80267 30.5812 3.78134 30.5812 3.73874 30.5604 3.7327 30.489 3.76309 30.4593 3.77524 30.4236 3.76309 30.4027 3.7327 30.3819 3.70224 30.3432 3.69009 30.3045 3.70224 30.2599 3.71137 30.2331 3.70224 30.2212 3.66876 30.2093 3.63534 30.1825 3.62622 30.1319 3.63837 30.0813 3.65057 30.0546 3.64144 30.0427 3.60797 30.0308 3.57449 30.004 3.56537 29.9564 3.57751 29.9058 3.58972 29.879 3.57751 29.8522 3.52887 29.8255 3.47714 29.8106 3.47104 29.7927 3.49841 29.7629 3.54712 29.6737 3.51364 29.6737 3.45279 29.6737 3.42849 29.6618 3.40716 29.644 3.40716 29.6291 3.40716 29.6142 3.42239 29.6142 3.43762 29.6142 3.48626 29.5606 3.47412 29.4952 3.40716 29.4654 3.37676 29.4297 3.36154 29.4208 3.37374 29.3999 3.41326 29.2869 3.37676 29.2869 3.33416 29.2869 3.30981 29.2541 3.30068 29.1976 3.30981 29.1351 3.31893 29.1084 3.30981 29.1084 3.27941 29.1084 3.24896 29.0816 3.23983 29.0191 3.24896 28.9566 3.25808 28.9298 3.24896 28.9298 3.21856 28.9298 3.18816 28.906 3.17904 28.8435 3.18816 28.7751 3.19723 28.7572 3.18816 28.7394 3.12731 28.7275 3.07558 28.7156 3.06646 28.6947 3.09685 28.665 3.14556 28.5549 3.13033 28.5638 3.0786 28.5697 3.05431 28.543 3.04821 28.4835 3.06035 28.421 3.07558 28.3912 3.06646 28.3793 3.036 28.3674 3.0056 28.3347 2.99648 28.2901 3.0056 28.2425 3.01473 28.2097 3.00258 28.2008 2.97521 28.1889 2.94475 28.1562 2.93563 28.1115 2.94475 28.061 2.95388 28.0312 2.94173 28.0193 2.90825 28.0074 2.87477 27.9806 2.86263 27.9389 2.87785 27.8973 2.89 27.8646 2.87785 27.8259 2.82613 27.7961 2.7866 27.7694 2.77138 27.7694 2.79265 27.7694 2.8535 27.686 2.83525 27.6474 2.76225 27.6235 2.71965 27.6057 2.7075 27.5968 2.7318 27.5789 2.78963 27.5075 2.7744 27.4688 2.70442 27.445 2.65577 27.4301 2.64967 27.4122 2.67705 27.3795 2.72877 27.2784 2.69838 27.2813 2.63752 27.2873 2.57969 27.2605 2.57057 27.2159 2.61619 27.1742 2.6588 27.0849 2.6223 27.0849 2.56447 27.0849 2.52802 27.076 2.52494 27.0433 2.55232 26.9927 2.59492 26.9064 2.56447 26.9064 2.50367 26.9064 2.46717 26.8975 2.46409 26.8648 2.49147 26.8112 2.53715 26.7398 2.50669 26.713 2.42457 26.7011 2.38197 26.6892 2.37284 26.6773 2.39719 26.6565 2.44892 26.5493 2.44282 26.5493 2.39109 26.5493 2.35762 26.5226 2.35157 26.4393 2.36372 26.35 2.37894 26.3351 2.37592 26.35 2.33332 26.3649 2.29374 26.35 2.28769 26.2637 2.30287 26.1863 2.31507 26.1625 2.30897 26.1625 2.27549 26.1625 2.24509 26.1387 2.23597 26.0762 2.24509 26.0078 2.25422 25.9869 2.24201 25.9721 2.18424 25.9602 2.14164 25.9453 2.12949 25.9334 2.15384 25.9096 2.21469 25.8144 2.19639 25.7905 2.12339 25.7787 2.08079 25.7668 2.06864 25.7548 2.09299 25.734 2.14466 25.6269 2.13861 25.6269 2.08689 25.6269 2.05951 25.5942 2.04736 25.5317 2.05039 25.4692 2.05039 25.4365 2.04126 25.4395 2.01691 25.4454 1.98954 25.4216 1.98343 25.3591 1.99564 25.2966 2.01086 25.2669 2.00174 25.2549 1.97129 25.2431 1.94089 25.2103 1.93176 25.1657 1.94089 25.1151 1.95001 25.0854 1.93781 25.0734 1.90439 25.0616 1.87091 25.0348 1.86178 24.9842 1.87393 24.9336 1.88614 24.9068 1.87696 24.8949 1.84354 24.883 1.81006 24.8562 1.80093 24.8056 1.81308 24.755 1.82528 24.7283 1.81616 24.7164 1.78268 24.7045 1.74921 24.6777 1.73706 24.636 1.75228 24.5944 1.76443 24.5616 1.75228 24.523 1.70056 24.4932 1.66098 24.4664 1.64581 24.4664 1.66708 24.4664 1.72793 24.3831 1.70968 24.3474 1.63971 24.3206 1.591 24.3057 1.58496 24.27 1.61233 24.2165 1.65796 24.1391 1.63058 24.1391 1.56363 24.1391 1.5241 24.1302 1.52108 24.0974 1.54846 24.0469 1.591 23.9606 1.5606 23.9606 1.49975 23.9606 1.46325 23.9516 1.46023 23.9189 1.4876 23.8713 1.53021 23.7821 1.49975 23.7821 1.44198 23.7821 1.39327 23.7315 1.38415 23.7166 1.43285 23.7017 1.47545 23.6035 1.43285 23.6035 1.38113 23.6035 1.35067 23.5797 1.34463 23.5143 1.35677 23.4517 1.372 23.422 1.36288 23.4101 1.33242 23.3982 1.30202 23.3625 1.2929 23.306 1.30202 23.2405 1.31115 23.2167 1.30202 23.2167 1.27163 23.2167 1.24117 23.1899 1.23205 23.1274 1.24117 23.0649 1.2503 23.0382 1.24117 23.0382 1.21077 23.0382 1.18032 23.0144 1.17119 22.9518 1.18032 22.8834 1.18944 22.8626 1.1773 22.8477 1.11952 22.8358 1.07692 22.8209 1.06472 22.809 1.08907 22.7882 1.1408 22.6811 1.13469 22.6811 1.08297 22.6811 1.05565 22.6484 1.04344 22.5858 1.04652 22.5263 1.04652 22.4906 1.03432 22.4936 1.01607 22.4966 0.994796 22.4609 0.982592 22.4043 0.985671 22.3448 0.985671 22.3121 0.97649 22.3151 0.952193 22.3211 0.924819 22.2972 0.918716 22.2348 0.930864 22.1722 0.946092 22.1425 0.936967 22.1306 0.906568 22.1187 0.876114 22.0859 0.866989 22.0413 0.876114 21.9907 0.885239 21.961 0.873091 21.9491 0.839614 21.9372 0.806137 21.9104 0.797012 21.8628 0.809216 21.8122 0.821364 21.7854 0.809216 21.7586 0.760512 21.7319 0.708785 21.717 0.702739 21.6991 0.730114 21.6694 0.778762 21.5801 0.745341 21.5801 0.684489 21.5801 0.660137 21.5682 0.638864 21.5503 0.638864 21.5355 0.638864 21.5206 0.654035 21.5206 0.669262 21.5206 0.720989 21.4343 0.702739 21.3956 0.641887 21.3718 0.599285 21.348 0.59016 21.3242 0.611433 21.2766 0.651012 21.1873 0.611433 21.2052 0.559762 21.223 0.511057 21.1873 0.505011 21.1457 0.547557 21.104 0.59016 21.0147 0.553659 21.0147 0.492807 21.0147 0.456307 21.0058 0.453284 20.982 0.477636 20.9344 0.526284 20.8451 0.489784 20.8213 0.416784 20.8094 0.374182 20.7975 0.365057 20.7856 0.389409 20.7648 0.44108 20.6577 0.435034 20.6577 0.380284 20.6577 0.346807 20.6339 0.340705 20.5684 0.355932 20.5 0.36808 20.4791 0.362034 20.4791 0.325534 20.4791 0.285955 20.4583 0.279853 20.3899 0.292057 20.3274 0.307284 20.2976 0.298103 20.2857 0.267705 20.2738 0.237251 20.2411 0.228182 20.1964 0.237251 20.1489 0.246432 20.1161 0.234228 20.1072 0.206853 20.0953 0.176454 20.0596 0.167329 20.003 0.176454 19.9346 0.185579 19.9138 0.176454 19.9138 0.139954 19.9138 0.103454 19.8929 0.0973523 19.8275 0.1095 19.7591 0.124727 19.7412 0.115602 19.7234 0.0547501 19.7114 0.012148 19.6965 0 19.6847 0.0243521 19.6668 0.0668982 19.5388 0.0730002 19.5121 0.0303981 19.5031 0.015227 19.396 0 19.274 0 19.1521 0 19.0449 0.015227 19.036 0.0303981 19.0271 0.0487041 18.9914 0.0608522 18.9586 0.0608522 18.9289 0.0608522 18.9021 0.0760232 18.9021 0.0912502 18.9021 0.1095 18.8753 0.121704 18.8425 0.121704 18.8099 0.121704 18.7831 0.130829 18.7831 0.146 18.7831 0.158204 18.7533 0.185579 18.7205 0.209932 18.667 0.24033 18.6521 0.243353 18.6313 0.209932 18.6134 0.179477 18.5986 0.191626 18.5777 0.246432 18.545 0.334603 18.4676 0.380284 18.4468 0.325534 18.4379 0.304205 18.4201 0.325534 18.4022 0.36808 18.3635 0.465432 18.2861 0.505011 18.2683 0.431955 18.2594 0.395455 18.2504 0.401557 18.2355 0.462409 18.2088 0.553659 18.1314 0.599285 18.0927 0.541511 18.0749 0.511057 18.063 0.511057 18.0392 0.547557 18.0243 0.57191 18.0094 0.611433 18.0094 0.635785 18.0094 0.657114 17.9916 0.669262 17.9648 0.657114 17.938 0.647989 17.9201 0.657114 17.9201 0.684489 17.9201 0.736216 17.813 0.803114 17.7713 0.775739 17.7535 0.766614 17.7416 0.778762 17.7416 0.803114 17.7416 0.870012 17.6226 0.930864 17.5898 0.879193 17.575 0.851818 17.5601 0.863966 17.5482 0.918716 17.5244 1.00997 17.447 1.05565 17.4113 0.997819 17.3964 0.973467 17.3815 0.988694 17.3697 1.04042 17.3488 1.12859 17.2685 1.1773 17.2357 1.12557 17.2238 1.10732 17.2 1.12859 17.1822 1.17427 17.1584 1.22594 17.1286 1.24727 17.1019 1.23507 17.078 1.22594 17.0572 1.23507 17.0572 1.2564 17.0572 1.27767 17.0274 1.31115 16.9947 1.3355 16.9412 1.36898 16.9263 1.36898 16.9055 1.33242 16.8846 1.30202 16.8787 1.30813 16.8787 1.35375 16.8787 1.43588 16.7627 1.51498 16.727 1.45715 16.7121 1.42977 16.6972 1.44198 16.6853 1.49673 16.6644 1.57583 16.5514 1.63971 16.5514 1.57275 16.5484 1.55148 16.5306 1.57275 16.5067 1.61535 16.4591 1.7066 16.3817 1.74921 16.3639 1.69446 16.355 1.67318 16.3342 1.69446 16.3193 1.74008 16.2954 1.79791 16.2717 1.81918 16.2389 1.80703 16.2151 1.79483 16.1943 1.80396 16.1943 1.82528 16.1943 1.88916 16.0961 1.94699 16.0544 1.91043 16.0247 1.88614 16.0158 1.89526 16.0158 1.94089 16.0158 2.00476 15.8908 2.06254 15.8729 2.00779 15.8551 1.95914 15.8075 2.00476 15.8075 2.06864 15.8075 2.13251 15.7182 2.17814 15.6855 2.12641 15.6735 2.10514 15.6587 2.11734 15.6438 2.16297 15.6141 2.25422 15.5664 2.28769 15.5189 2.24812 15.492 2.22376 15.4772 2.23597 15.4623 2.29374 15.4534 2.33634 15.4325 2.37284 15.4177 2.37284 15.3998 2.37284 15.3492 2.40324 15.3046 2.43672 15.257 2.47327 15.2034 2.49147 15.1856 2.4824 15.1677 2.47019 15.1528 2.4824 15.1528 2.50669 15.1528 2.53105 15.1261 2.56755 15.0963 2.5858 15.0159 2.6284 14.9951 2.62532 15.0159 2.57057 15.0249 2.54627 15.0189 2.52494 15.0041 2.52494 14.9862 2.52494 14.9743 2.55842 14.9743 2.60102 14.9743 2.64363 14.9505 2.68925 14.9178 2.7075 14.8463 2.744 14.8166 2.74702 14.8404 2.71052 14.8493 2.6953 14.8434 2.67402 14.8285 2.6649 14.8136 2.65275 14.7928 2.68925 14.7809 2.74098 14.763 2.82002 14.7511 2.83223 14.6886 2.817 14.6321 2.80177 14.6143 2.8109 14.5994 2.87477 14.5905 2.91738 14.5666 2.94783 14.5488 2.94173 14.5309 2.93563 14.4863 2.963 14.4476 2.9995 14.406 3.03908 14.3554 3.06035 14.3316 3.05123 14.3078 3.0421 14.2899 3.05431 14.2899 3.08168 14.2899 3.13033 14.2096 3.17904 14.1501 3.16683 14.1292 3.16381 14.1114 3.17904 14.1114 3.20031 14.1114 3.22158 14.0846 3.25808 14.0518 3.27941 14.0012 3.30981 13.9924 3.30981 13.9924 3.26726 13.9924 3.22768 13.9864 3.22768 13.9537 3.26116 13.9329 3.28243 13.906 3.32504 13.8941 3.35543 13.8733 3.41018 13.8138 3.42849 13.8138 3.37676 13.8138 3.31289 13.7543 3.34939 13.7365 3.42239 13.7275 3.46493 13.7008 3.49841 13.6769 3.49841 13.6531 3.49841 13.6353 3.51062 13.6353 3.52887 13.6353 3.54409 13.6055 3.57141 13.5728 3.59274 13.5222 3.61709 13.5044 3.61709 13.4835 3.58664 13.4687 3.55926 13.4538 3.57141 13.4419 3.62622 13.4181 3.71747 13.3407 3.76309 13.305 3.70532 13.2901 3.68097 13.2753 3.69619 13.2633 3.74792 13.2455 3.82395 13.1295 3.89084 13.1295 3.82697 13.1295 3.8118 13.1116 3.80267 13.0938 3.8118 13.0729 3.81784 13.058 3.84522 13.064 3.87259 13.0729 3.93042 12.9628 4.00342 12.9449 3.94867 12.9271 3.89392 12.8617 3.9517 12.8617 4.02167 12.8617 4.06427 12.8468 4.07642 12.817 4.06427 12.7902 4.05515 12.7723 4.06427 12.7723 4.09165 12.7723 4.116 12.7545 4.13728 12.7307 4.13728 12.7069 4.13728 12.6801 4.15553 12.6742 4.17685 12.6623 4.20417 12.6504 4.20115 12.6266 4.16773 12.6027 4.13117 12.5908 4.13728 12.5671 4.20115 12.5343 4.28938 12.457 4.335 12.4361 4.28025 12.4272 4.25898 12.4093 4.28025 12.3915 4.32285 12.3528 4.42021 12.2755 4.45973 12.2576 4.38673 12.2487 4.35023 12.2398 4.35628 12.2249 4.41713 12.201 4.49931 12.1118 4.56011 12.0939 4.50535 12.082 4.46583 11.9987 4.54191 11.9987 4.59056 11.9987 4.60881 11.9779 4.62398 11.9541 4.62398 11.9303 4.62398 11.9094 4.64531 11.9094 4.66966 11.9094 4.71226 11.8678 4.72743 11.7696 4.72441 11.7488 4.72133 11.7309 4.73964 11.7309 4.76393 11.7309 4.82781 11.6089 4.88262 11.5792 4.83391 11.5643 4.80654 11.5494 4.81874 11.5375 4.87349 11.5137 4.96474 11.4363 5.01037 11.4006 4.95254 11.3858 4.92824 11.3709 4.94341 11.359 4.99514 11.3381 5.07732 11.2489 5.13812 11.231 5.08337 11.2191 5.04687 11.1626 5.03774 11.1686 5.07424 11.1834 5.16549 11.1626 5.20809 11.106 5.19287 11.0703 5.1838 11.0465 5.19287 11.0465 5.2142 11.0465 5.25982 10.9334 5.3298 10.8977 5.30847 10.8799 5.29632 10.868 5.30545 10.868 5.32678 10.868 5.36322 10.7817 5.44238 10.743 5.4454 10.7281 5.4454 10.7192 5.42105 10.7162 5.39367 10.7162 5.3602 10.6984 5.37542 10.6746 5.4332 10.6329 5.53055 10.5407 5.59448 10.5407 5.52753 10.5407 5.50625 10.5139 5.53665 10.4782 5.59448 10.4306 5.67353 10.4038 5.69178 10.3443 5.67963 10.2937 5.6705 10.2729 5.67963 10.2729 5.71311 10.2729 5.7374 10.2342 5.82563 10.1836 5.90781 10.136 5.98686 10.0943 6.06904 10.0943 6.08421 10.0943 6.10246 10.0825 6.11466 10.0676 6.11466 10.0468 6.11466 10.017 6.27891 10.0051 6.46449 9.99616 6.60747 10.13 6.98775 10.2074 7.0364 10.2253 7.04861 10.2431 7.08203 10.2431 7.1094 10.2431 7.13683 10.2729 7.1885 10.3115 7.225 10.3472 7.2615 10.4097 7.34369 10.4514 7.40454 10.4931 7.46533 10.5615 7.56576 10.6091 7.62656 10.6538 7.68741 10.6895 7.75437 10.6895 7.77564 10.6895 7.79999 10.7013 7.81824 10.7162 7.81824 10.7311 7.81824 10.7817 7.8791 10.8293 7.95512 10.8739 8.0312 10.9216 8.09205 10.9334 8.09205 10.9424 8.09205 10.9602 8.13465 10.9721 8.1833 10.984 8.23503 11.0078 8.27455 11.0287 8.27455 11.0495 8.27455 11.0852 8.31105 11.109 8.35975 11.1328 8.40538 11.1596 8.44798 11.1715 8.45711 11.2161 8.49361 11.4036 8.79473 11.4036 8.83431 11.4036 8.85558 11.4363 8.89819 11.478 8.92556 11.5196 8.95294 11.5524 8.99554 11.5524 9.01989 11.5524 9.04424 11.5702 9.07464 11.5911 9.08679 11.6446 9.12027 11.8499 9.4336 11.8499 9.48224 11.8499 9.50357 11.8678 9.52182 11.8886 9.52182 11.9124 9.52182 11.9481 9.55832 11.972 9.60697 11.9957 9.6526 12.0314 9.71043 12.0552 9.73478 12.0791 9.75907 12.1148 9.82301 12.1386 9.87776 12.1594 9.93251 12.1892 9.97813 12.2041 9.97813 12.2189 9.97813 12.2576 10.0238 12.2933 10.0785 12.326 10.1302 12.3707 10.2033 12.3915 10.2367 12.4123 10.2702 12.4659 10.3432 12.5135 10.3979 12.5581 10.4527 12.5939 10.5166 12.5939 10.5409 12.5939 10.5653 12.6087 10.5865 12.6236 10.5865 12.6414 10.5865 12.6712 10.6231 12.692 10.6687 12.7099 10.7143 12.7485 10.7752 12.7723 10.8026 12.8706 10.9091 12.936 11.0003 12.9806 11.0885 13.0075 11.1402 13.0521 11.2072 13.0789 11.2406 13.2038 11.3836 13.308 11.5418 13.308 11.5935 13.308 11.627 13.3288 11.6513 13.3556 11.6513 13.3824 11.6513 13.4181 11.6939 13.4359 11.7426 13.4538 11.7943 13.4776 11.8338 13.4895 11.8338 13.5133 11.8338 13.7543 12.208 13.7543 12.2415 13.7543 12.2567 13.7871 12.2932 13.8287 12.3267 13.8703 12.3601 13.9031 12.4027 13.9031 12.4271 13.9031 12.4483 13.912 12.4727 13.9269 12.4788 13.9596 12.494 14.165 12.7891 14.1768 12.8377 14.1828 12.8621 14.2156 12.9077 14.2542 12.9381 14.2899 12.9686 14.3196 13.0081 14.3196 13.0233 14.3196 13.0416 14.3524 13.0902 14.3941 13.1358 14.4357 13.1815 14.4685 13.2423 14.4685 13.2697 14.4685 13.3001 14.4952 13.3366 14.528 13.3549 14.5607 13.3731 14.5964 13.4218 14.6053 13.4614 14.6143 13.504 14.6351 13.5375 14.65 13.5375 14.6738 13.5375 14.7928 13.7017 14.885 13.869 14.9118 13.9116 14.9535 13.9755 14.9802 14.0089 15.1379 14.2006 15.2124 14.3131 15.2124 14.3618 15.2124 14.3953 15.2332 14.4196 15.257 14.4196 15.2837 14.4196 15.3195 14.4561 15.3403 14.5018 15.3582 14.5474 15.3939 14.6082 15.4147 14.6326 15.5277 14.7664 15.6319 14.9246 15.6468 14.9885 15.6587 15.025 15.6825 15.0585 15.7063 15.0585 15.7271 15.0585 15.7539 15.092 15.7658 15.1346 15.7747 15.1771 15.8015 15.2228 15.8194 15.2349 15.8789 15.2714 16.0753 15.5665 16.0753 15.6182 16.0753 15.6456 16.0931 15.6669 16.1169 15.6669 16.1407 15.6669 16.1765 15.7095 16.2002 15.7582 16.2211 15.8099 16.2508 15.8494 16.2628 15.8494 16.2746 15.8494 16.3133 15.9103 16.346 15.9863 16.3788 16.0624 16.4175 16.1232 16.4294 16.1232 16.4443 16.1232 16.4829 16.1689 16.5157 16.2236 16.5514 16.2753 16.6198 16.3757 16.6674 16.4426 16.718 16.5096 16.7745 16.5978 16.7953 16.6404 16.8162 16.683 16.843 16.7225 16.8519 16.7317 16.8816 16.756 17.087 17.0359 17.087 17.0541 17.087 17.0602 17.1108 17.0967 17.1405 17.1302 17.1733 17.1606 17.2149 17.2245 17.2387 17.2701 17.2625 17.3157 17.2983 17.3735 17.3191 17.4009 17.447 17.55 17.5333 17.6899 17.5333 17.7416 17.5333 17.7751 17.5601 17.8085 17.5928 17.8177 17.6256 17.8268 17.6613 17.8664 17.6702 17.9059 17.6791 17.9455 17.6999 17.9789 17.7119 17.9789 17.7416 17.9789 17.9797 18.344 17.9797 18.3957 17.9797 18.417 17.9975 18.4352 18.0183 18.4352 18.0421 18.4352 18.0778 18.4717 18.1017 18.5204 18.1255 18.566 18.1582 18.6208 18.179 18.6391 18.2058 18.6725 18.426 18.992 18.5301 19.1562 18.548 19.1836 18.5896 19.2384 18.6253 19.2779 18.661 19.3205 18.6997 19.3813 18.7116 19.4148 18.7205 19.4483 18.7473 19.4969 18.7711 19.5243 18.9467 19.7312 18.9914 19.792 18.9914 19.8133 18.9914 19.8285 19.0241 19.8802 19.0657 19.932 19.1074 19.9806 19.1401 20.0415 19.1401 20.0628 19.1401 20.0871 19.158 20.1175 19.1818 20.1297 19.2383 20.1601 19.3663 20.3396 19.4228 20.4674 19.4466 20.5191 19.4823 20.5647 19.4972 20.5647 19.515 20.5647 19.5448 20.6012 19.5656 20.6469 19.5835 20.6925 19.6192 20.7533 19.64 20.7777 19.8097 20.9845 19.8543 21.0514 19.8691 21.1214 19.8811 21.1671 19.9078 21.2035 19.9286 21.2035 19.9703 21.2035 20.0149 21.2887 20.006 21.3496 20.003 21.3678 20.0179 21.3861 20.0387 21.3861 20.0804 21.3891 20.3006 21.6934 20.3006 21.7481 20.3006 21.7664 20.3274 21.7938 20.3571 21.812 20.3899 21.8272 20.4256 21.8698 20.4345 21.9032 20.4464 21.9367 20.4851 22.0006 20.5267 22.0462 20.5654 22.0888 20.5982 22.1466 20.5982 22.171 20.5982 22.1953 20.6249 22.244 20.6577 22.2805 20.7559 22.3839 20.8957 22.5634 20.8957 22.5847 20.8957 22.5969 20.9225 22.6364 20.9552 22.6729 20.9909 22.7094 21.0237 22.7702 21.0326 22.8067 21.0445 22.8463 21.0624 22.8767 21.0772 22.8767 21.0981 22.8767 21.1605 22.9588 21.2974 23.1749 21.3153 23.2023 21.357 23.257 21.3956 23.2996 21.4313 23.3452 21.47 23.403 21.4789 23.4335 21.4879 23.4669 21.5146 23.5125 21.5385 23.5399 21.6902 23.7224 21.7527 23.8168 21.7706 23.8928 21.7824 23.9384 21.8003 23.9719 21.8092 23.9597 21.836 23.9354 22.0859 24.1909 22.0859 24.2426 22.0859 24.2761 22.0949 24.2761 22.1306 24.2457 22.1663 24.2152 22.1782 24.2183 22.1931 24.2548 22.202 24.2792 22.2318 24.2943 22.2615 24.2852 22.2913 24.2761 22.3359 24.2913 22.3568 24.3187 22.385 24.3507 22.4705 24.3673 22.5564 24.3681ZM13.0366 27.9987C13.0738 27.9948 13.1103 27.9834 13.1103 27.9682 13.1103 27.953 13.1311 27.9378 13.1549 27.9378 13.1787 27.9378 13.1995 27.953 13.1995 27.9682 13.1995 27.9865 13.2263 27.9987 13.2591 27.9987 13.2918 27.9987 13.3186 27.9773 13.3186 27.953 13.3186 27.8892 13.4078 27.8587 13.4406 27.9104 13.4584 27.9439 13.4673 27.9348 13.4673 27.8861 13.4673 27.8466 13.4793 27.8161 13.4971 27.8161 13.5418 27.8161 13.8065 27.5332 13.8453 27.4419 13.8661 27.3963 13.8958 27.3598 13.9137 27.3598 13.9286 27.3598 13.9434 27.3385 13.9434 27.3142 13.9434 27.2898 13.9703 27.2412 14 27.2108 14.0297 27.1803 14.0655 27.1256 14.0774 27.0891 14.0863 27.0526 14.122 27.01 14.1547 26.9947 14.1845 26.9765 14.2112 26.9431 14.2112 26.9187 14.2112 26.864 14.8063 25.9604 14.8391 25.9604 14.854 25.9604 14.8659 25.9391 14.8659 25.9148 14.8659 25.8905 14.8897 25.8448 14.9194 25.8144 14.9462 25.787 14.9879 25.7232 15.0057 25.6775 15.0266 25.6319 15.0563 25.5954 15.0742 25.5954 15.089 25.5954 15.1039 25.5741 15.1039 25.5497 15.1039 25.5254 15.1278 25.4798 15.1575 25.4494 15.1843 25.422 15.2259 25.3581 15.2438 25.3125 15.2646 25.2669 15.2944 25.2303 15.3093 25.2303 15.3241 25.2303 15.3658 25.1694 15.4015 25.0934 15.4372 25.0173 15.4788 24.9566 15.4937 24.9566 15.5086 24.9566 15.5205 24.9383 15.5205 24.917 15.5205 24.8957 15.5443 24.8501 15.5741 24.8166 15.6008 24.7862 15.6425 24.7223 15.6663 24.6766 15.6901 24.628 15.7199 24.5915 15.7348 24.5915 15.7466 24.5915 15.7586 24.5732 15.7586 24.5519 15.7586 24.5276 15.7913 24.4789 15.8329 24.4394 15.8746 24.3998 15.9073 24.3512 15.9073 24.3329 15.9073 24.3116 15.9341 24.2721 15.9669 24.2417 15.9996 24.2112 16.0264 24.1717 16.0264 24.1504 16.0264 24.1291 16.0532 24.0896 16.0858 24.0591 16.1186 24.0287 16.1454 23.9861 16.1454 23.9618 16.1454 23.9405 16.1722 23.8979 16.2049 23.8705 16.2376 23.8401 16.2644 23.8036 16.2644 23.7853 16.2644 23.764 16.2971 23.7184 16.3358 23.6819 16.3745 23.6423 16.4162 23.5784 16.4251 23.5389 16.437 23.4993 16.4638 23.4659 16.4876 23.4659 16.5114 23.4659 16.5322 23.4385 16.5322 23.4081 16.5322 23.3746 16.5649 23.3077 16.6066 23.259 16.6483 23.2073 16.681 23.1556 16.681 23.1374 16.681 23.1191 16.6929 23.1009 16.7078 23.0948 16.7286 23.0856 16.9042 22.8301 17.0767 22.5502 17.1095 22.5015 17.1452 22.462 17.1601 22.462 17.175 22.462 17.1868 22.4407 17.1868 22.4164 17.1868 22.392 17.2107 22.3464 17.2404 22.3159 17.2672 22.2886 17.3088 22.2247 17.3267 22.1791 17.3475 22.1334 17.3773 22.0969 17.3922 22.0969 17.4071 22.0969 17.4279 22.0635 17.4368 22.0209 17.4457 21.9813 17.4814 21.9327 17.5142 21.9144 17.5469 21.8961 17.5737 21.8627 17.5737 21.8384 17.5737 21.814 17.6004 21.7654 17.6361 21.7289 17.7046 21.6589 17.7522 21.4277 17.6987 21.4277 17.6838 21.4277 17.6451 21.376 17.6153 21.3121 17.5826 21.2512 17.535 21.1721 17.5052 21.1387 17.3803 20.9957 17.2761 20.8375 17.2761 20.7858 17.2761 20.7523 17.2553 20.728 17.2315 20.728 17.2047 20.728 17.169 20.6915 17.1511 20.6489 17.1303 20.6063 17.0738 20.5241 17.0232 20.4694L16.9339 20.369 16.8149 20.5637C16.7494 20.6702 16.6869 20.7584 16.675 20.7584 16.6602 20.7584 16.6512 20.7737 16.6512 20.7919 16.6512 20.8436 16.3864 21.2451 16.3537 21.2451 16.3358 21.2451 16.3239 21.2726 16.3239 21.306 16.3239 21.3364 16.3001 21.3882 16.2674 21.4186 16.2376 21.449 16.2019 21.5038 16.193 21.5433 16.1811 21.5798 16.1573 21.6102 16.1424 21.6102 16.1275 21.6102 16.1156 21.6284 16.1156 21.6498 16.1156 21.671 16.0889 21.7197 16.0561 21.7562 16.0234 21.7927 15.9966 21.8292 15.9966 21.8384 15.9966 21.8597 15.5384 22.5837 15.4848 22.6445 15.464 22.6689 15.4282 22.7297 15.4104 22.7753 15.3896 22.821 15.3599 22.8575 15.342 22.8575 15.3271 22.8575 15.3122 22.8757 15.3122 22.897 15.3122 22.9153 15.2616 23.0096 15.1992 23.1009 15.1396 23.1921 15.0712 23.3046 15.0474 23.3533 15.0236 23.399 14.9938 23.4355 14.9789 23.4355 14.9671 23.4355 14.9552 23.4507 14.9552 23.4659 14.9552 23.4841 14.8302 23.6849 14.6814 23.9161 14.5296 24.1443 14.3898 24.3694 14.369 24.415 14.3481 24.4637 14.3184 24.5002 14.3005 24.5002 14.2856 24.5002 14.2707 24.5185 14.2707 24.5398 14.2707 24.5611 14.244 24.6097 14.2112 24.6462 14.1785 24.6827 14.1518 24.7223 14.1518 24.7345 14.1518 24.7466 14.0982 24.8348 14.0327 24.9292 13.9672 25.0265 13.9137 25.1147 13.9137 25.1269 13.9137 25.1725 13.8125 25.2608 13.7619 25.2608 13.7292 25.2608 13.6994 25.2912 13.6876 25.3368 13.6727 25.3946 13.6489 25.4129 13.5834 25.4129 13.5298 25.4129 13.4971 25.3976 13.4971 25.3703 13.4971 25.3459 13.4673 25.3216 13.4316 25.3155 13.3424 25.3034 13.271 25.0752 13.3275 24.9839 13.3573 24.9322 13.3543 24.917 13.3156 24.8957 13.2501 24.8561 13.2144 24.6615 13.2621 24.6036 13.2918 24.5671 13.2888 24.5519 13.2472 24.5215 13.1787 24.4698 13.1489 24.2599 13.2026 24.2234 13.2383 24.1991 13.2352 24.1869 13.1906 24.1534 13.1222 24.1017 13.0894 23.907 13.1371 23.8492 13.1669 23.8158 13.1609 23.8005 13.1192 23.7762 13.0775 23.7519 13.0657 23.7063 13.0657 23.5815 13.0657 23.4933 13.0537 23.4111 13.0359 23.399 13.021 23.3868 13.0091 23.3046 13.0121 23.2195 13.0151 23.113 13.0002 23.0461 12.9704 23.0157 12.9377 22.9792 12.9288 22.9335 12.9437 22.8332 12.9556 22.7327 12.9496 22.6871 12.9139 22.6506 12.8782 22.6171 12.8693 22.5655 12.8811 22.465 12.8901 22.3677 12.8842 22.3159 12.8514 22.2825 12.8187 22.2521 12.8097 22.2004 12.8216 22.1 12.8306 22.0026 12.8246 21.9509 12.7919 21.9175 12.7562 21.884 12.7502 21.8353 12.7651 21.7136 12.78 21.5859 12.774 21.5524 12.7353 21.5372 12.6937 21.522 12.6878 21.4885 12.7026 21.3547 12.7145 21.2208 12.7086 21.1843 12.6729 21.1721 12.6342 21.1569 12.6282 21.1205 12.6431 20.9896 12.655 20.8588 12.6491 20.8193 12.6133 20.8071 12.5776 20.7919 12.5717 20.7523 12.5806 20.6215 12.5925 20.4968 12.5836 20.4542 12.5509 20.439 12.5152 20.4268 12.5122 20.3873 12.5271 20.2595 12.5419 20.1257 12.536 20.0922 12.4973 20.077 12.4557 20.0618 12.4497 20.0283 12.4676 19.8945 12.4824 19.7606 12.4765 19.7271 12.4378 19.7119 12.3961 19.6967 12.3902 19.6633 12.4051 19.5264 12.417 19.3925 12.411 19.3529 12.3753 19.3317 12.3366 19.3103 12.3307 19.2738 12.3455 19.1491 12.3575 19.0396 12.3515 18.9879 12.3247 18.9727 12.2741 18.9423 12.2325 18.7202 12.2771 18.7202 12.3218 18.7202 12.3128 18.6289 12.2652 18.6107 12.2057 18.5863 12.176 18.3916 12.2235 18.3338 12.2533 18.2974 12.2503 18.2821 12.2117 18.2517 12.1492 18.206 12.1045 17.9597 12.1551 17.9597 12.173 17.9597 12.1879 17.9383 12.1879 17.914 12.1879 17.8897 12.167 17.8684 12.1432 17.8684 12.0867 17.8684 12.048 17.6646 12.0956 17.5885 12.1224 17.5459 12.1165 17.5216 12.0688 17.4729 12.0034 17.406 11.9855 17.2113 12.048 17.19 12.0718 17.1809 12.0629 17.1566 12.0182 17.1109 11.9498 17.044 11.923 16.8949 11.9796 16.8949 12.0302 16.8949 12.0123 16.7884 11.9498 16.7337 11.8813 16.6759 11.8725 16.5877 11.926 16.4994 11.9588 16.4508 11.9528 16.4295 11.8962 16.3777 11.8248 16.3078 11.813 16.2256 11.8635 16.1283 11.8903 16.0796 11.8843 16.0553 11.8308 16.0066 11.7773 15.9549 11.7683 15.9245 11.7861 15.7997 11.801 15.6811 11.7981 15.6537 11.7534 15.6355 11.7118 15.6203 11.7058 15.5899 11.7236 15.453 11.7385 15.3191 11.7326 15.2856 11.6939 15.2704 11.6522 15.2552 11.6463 15.2218 11.6612 15.0879 11.6731 14.954 11.6671 14.9176 11.6314 14.9054 11.5927 14.8901 11.5868 14.8536 11.6017 14.7229 11.6135 14.589 11.6076 14.5525 11.5719 14.5403 11.5332 14.5251 11.5273 14.4856 11.5421 14.3396 11.5541 14.1875 11.5481 14.157 11.5124 14.157 11.4737 14.157 11.4677 14.1266 11.4826 13.9775 11.4946 13.8315 11.4886 13.7919 11.4529 13.7798 11.4172 13.7646 11.4112 13.7281 11.4261 13.5973 11.444 13.4604 11.438 13.433 11.3964 13.4147 11.3547 13.3995 11.3487 13.3691 11.3666 13.2322 11.3815 13.0983 11.3755 13.0649 11.3368 13.0497 11.2952 13.0345 11.2892 13.001 11.3071 12.8672 11.319 12.7425 11.316 12.6999 11.2833 12.6876 11.2208 12.6634 11.194 12.499 11.2416 12.426 11.2743 12.3743 11.2714 12.3591 11.2268 12.3257 11.1643 12.28 11.1196 12.058 11.1732 12.058 11.191 12.058 11.2059 12.0366 11.2059 12.0123 11.2059 11.988 11.194 11.9667 11.1791 11.9667 11.1523 11.9667 11.0244 11.7629 11.0155 11.7081 11.0125 11.6899 10.9887 11.6503 10.959 11.6168 10.834 11.4708 10.7298 11.334 10.7298 11.3126 10.7298 11.3005 10.6971 11.2518 10.6555 11.2 10.6138 11.1514 10.581 11.0905 10.581 11.0693 10.581 11.0449 10.5632 11.0145 10.5453 11.0023 10.4977 10.9719 10.3132 10.7316 10.3132 10.6981 10.3102 10.686 10.2716 10.6251 10.224 10.5673 10.1734 10.5095 10.1347 10.4456 10.1347 10.4244 10.1347 10.403 10.1228 10.3848 10.1109 10.3848 10.096 10.3848 10.0425 10.3179 9.98888 10.2327 9.87581 10.0532 9.84904 10.0319 9.79247 10.0806 9.75677 10.111 9.74785 10.108 9.74489 10.0623 9.74489 10.0167 9.73597 10.0197 9.70919 10.0806 9.6586 10.1962 9.59016 10.2418 9.56634 10.1779 9.5515 10.1353 9.54258 10.1445 9.52473 10.2083 9.50091 10.2996 9.42354 10.3452 9.38784 10.2874 9.37295 10.2631 9.35806 10.2783 9.34618 10.3331 9.33424 10.3787 9.30746 10.4152 9.2837 10.4152 9.25988 10.4152 9.21526 10.4426 9.1795 10.4791 9.14682 10.5125 9.09918 10.5339 9.07542 10.5247 9.0516 10.5156 9.03375 10.5278 9.03375 10.5521 9.03375 10.6038 8.92659 10.6707 8.88493 10.6434 8.86708 10.6342 8.8552 10.6464 8.8552 10.6707 8.8552 10.7377 8.73616 10.7985 8.70342 10.7468 8.68858 10.7194 8.67369 10.7316 8.66181 10.7863 8.63799 10.8776 8.56062 10.9232 8.52492 10.8654 8.51003 10.8411 8.49513 10.8563 8.48325 10.9111 8.47137 10.9567 8.44158 10.9932 8.41777 10.9932 8.39696 10.9932 8.34637 11.0206 8.31067 11.054 8.27497 11.0875 8.23034 11.1088 8.20948 11.1027 8.18868 11.0936 8.17083 11.1027 8.17083 11.124 8.17083 11.1453 8.14104 11.1788 8.1083 11.2031 8.05475 11.2366 8.03991 11.2366 8.01905 11.2 7.99824 11.1696 7.99227 11.1757 7.99227 11.2214 7.99227 11.2549 7.9655 11.3005 7.93276 11.3187 7.88517 11.3521 7.87028 11.3491 7.84947 11.3096 7.82566 11.267 7.81673 11.2761 7.7899 11.3552 7.75426 11.4556 7.72743 11.4708 7.67388 11.4161 7.6471 11.3887 7.63221 11.4009 7.61737 11.4617 7.60845 11.5043 7.58759 11.5408 7.57275 11.5408 7.55786 11.5408 7.51914 11.5682 7.4864 11.6017 7.41205 11.6777 7.37635 11.6777 7.3585 11.6107 7.34957 11.5712 7.34065 11.5834 7.32274 11.6473 7.29301 11.7538 7.25435 11.7903 7.1829 11.7659 7.1472 11.7568 7.12935 11.7659 7.12935 11.7964 7.12935 11.8602 7.01924 11.921 7.00139 11.8663 6.99247 11.845 6.97462 11.8633 6.95677 11.9089 6.92703 11.988 6.83182 12.0519 6.83182 11.9971 6.83182 11.9332 6.7723 11.9697 6.75445 12.0427 6.74553 12.0853 6.72466 12.1188 6.70681 12.1188 6.69192 12.1188 6.65031 12.1461 6.61757 12.1796 6.57885 12.2162 6.53127 12.2344 6.49853 12.2222 6.46579 12.2131 6.44498 12.2222 6.44498 12.2466 6.44498 12.3043 6.33487 12.3713 6.31702 12.3226 6.3081 12.3013 6.29025 12.3226 6.2724 12.3652 6.2367 12.4564 6.14739 12.5082 6.14739 12.4382 6.14739 12.3652 6.09981 12.3865 6.0968 12.4595 6.09384 12.499 6.06707 12.5447 6.04029 12.566 5.99863 12.5964 5.98373 12.5964 5.954 12.5538 5.92126 12.5112 5.91529 12.5143 5.89744 12.5842 5.88852 12.6299 5.8647 12.6664 5.84986 12.6664 5.83497 12.6664 5.78739 12.7029 5.73975 12.7455 5.66539 12.8155 5.65647 12.8185 5.63856 12.7668 5.61776 12.7181 5.6148 12.7181 5.6148 12.7759 5.61179 12.8124 5.57905 12.8641 5.54039 12.8915 5.47195 12.9341 5.46598 12.9341 5.4541 12.8854 5.44517 12.8459 5.43625 12.855 5.42136 12.9158 5.39458 13.0071 5.31721 13.0527 5.28151 12.9949 5.26662 12.9706 5.25178 12.9858 5.23985 13.0375 5.21904 13.1227 5.12974 13.1805 5.11189 13.1227 5.09705 13.0771 5.01667 13.144 5.01667 13.2018 5.01667 13.2261 4.99586 13.2444 4.97204 13.2444 4.94823 13.2444 4.92742 13.2535 4.92742 13.2687 4.92742 13.2809 4.89763 13.3083 4.86495 13.3326 4.8114 13.366 4.7965 13.366 4.7757 13.3296 4.75484 13.2991 4.74887 13.3052 4.74887 13.3509 4.74887 13.433 4.63284 13.5121 4.59714 13.4543 4.57929 13.4239 4.5644 13.436 4.54359 13.4908 4.51085 13.579 4.43348 13.6246 4.41262 13.5699 4.4037 13.5486 4.38585 13.5699 4.368 13.6125 4.32934 13.7098 4.24305 13.7524 4.24004 13.6763 4.24004 13.6459 4.21923 13.6672 4.19541 13.725 4.16568 13.795 4.1359 13.8224 4.10912 13.8102 4.0853 13.8011 4.0645 13.8041 4.0645 13.8163 4.0645 13.8315 3.99009 13.9198 3.90084 14.014 3.81159 14.1084 3.73718 14.2118 3.73718 14.2452 3.73718 14.2787 3.7253 14.3152 3.70745 14.3243 3.66874 14.3487 3.66874 14.6742 3.70745 14.6742 3.7253 14.6742 3.73718 14.6955 3.73718 14.7198 3.73718 14.7594 3.83239 14.9571 3.88594 15.024 3.90084 15.0422 3.91272 15.0636 3.91272 15.0788 3.91573 15.0909 3.93654 15.1244 3.96331 15.1548 4.0853 15.2917 4.18353 15.4499 4.18353 15.4986 4.18353 15.532 4.20434 15.5564 4.23111 15.5564 4.25794 15.5564 4.29359 15.599 4.31149 15.6476 4.32934 15.6994 4.35316 15.7389 4.36504 15.7389 4.39182 15.7389 4.62989 16.1161 4.62989 16.1587 4.62989 16.18 4.64774 16.1952 4.66854 16.1952 4.69236 16.1952 4.72806 16.2317 4.75182 16.2804 4.7757 16.326 4.81731 16.3899 4.84408 16.4203 4.87387 16.4538 4.9036 16.5055 4.91554 16.5359 4.92446 16.5663 4.96016 16.6242 4.99586 16.6637 5.11189 16.7884 5.19522 16.9101 5.19522 16.9496 5.19522 16.9679 5.2071 16.9862 5.222 16.9862 5.25178 16.9862 5.347 17.1261 5.35587 17.1809 5.35888 17.1991 5.38566 17.2448 5.4184 17.2812 5.45109 17.3147 5.51066 17.3938 5.55227 17.4547 5.59394 17.5155 5.66238 17.6159 5.71002 17.6767 5.75464 17.7376 5.79034 17.8045 5.79034 17.8258 5.79034 17.8471 5.80222 17.8684 5.81712 17.8745 5.8647 17.8927 6.05513 18.1695 6.07599 18.2487 6.08492 18.2913 6.11169 18.3247 6.12954 18.3247 6.1504 18.3247 6.1861 18.3612 6.20992 18.4099 6.23369 18.4555 6.26046 18.4981 6.2724 18.5072 6.31702 18.5407 6.53423 18.8905 6.53423 18.927 6.53423 18.9453 6.55509 18.9636 6.57885 18.9636 6.60267 18.9636 6.62945 18.997 6.64138 19.0396 6.65031 19.0822 6.67708 19.1278 6.69493 19.14 6.75445 19.1765 6.9508 19.4716 6.9508 19.5233 6.9508 19.5507 6.9687 19.572 6.98951 19.572 7.01333 19.572 7.04903 19.6085 7.07279 19.6572 7.09661 19.7028 7.13231 19.7606 7.15613 19.785 7.17994 19.8093 7.21564 19.8732 7.23946 19.9279 7.26027 19.9827 7.29005 20.0283 7.30489 20.0283 7.31978 20.0283 7.3585 20.0739 7.3942 20.1287 7.42694 20.1804 7.47156 20.2534 7.49237 20.2869 7.51318 20.3204 7.56678 20.3934 7.61436 20.4481 7.65899 20.5029 7.69469 20.5667 7.69469 20.5911 7.69469 20.6124 7.70662 20.6367 7.72151 20.6428 7.75721 20.655 7.96254 20.9349 7.96254 20.9714 7.96254 20.9896 7.97442 21.0018 7.98932 21.0018 8.00416 21.0018 8.04582 21.0626 8.08152 21.1387 8.11722 21.2147 8.15593 21.2756 8.16781 21.2756 8.20056 21.2756 8.40884 21.6041 8.40884 21.6559 8.40884 21.6802 8.4297 21.7015 8.45352 21.7015 8.48024 21.7015 8.516 21.738 8.5368 21.7836 8.55465 21.8292 8.59928 21.8961 8.63202 21.9327 8.66476 21.9692 8.72428 22.0574 8.76589 22.1274 8.80756 22.1973 8.87606 22.3008 8.92364 22.3555 8.96826 22.4103 9.00396 22.465 9.00396 22.4742 9.00396 22.4864 9.03074 22.5229 9.06348 22.5594 9.09622 22.5959 9.123 22.6445 9.123 22.6658 9.123 22.6871 9.13488 22.7054 9.14977 22.7054 9.16467 22.7054 9.21821 22.7692 9.26881 22.8514 9.3194 22.9305 9.37591 23.0218 9.39677 23.0522 9.41757 23.0856 9.46515 23.1465 9.50387 23.1891 9.53957 23.2316 9.56935 23.2925 9.56935 23.3199 9.56935 23.3503 9.59613 23.3868 9.62586 23.4051 9.6586 23.4202 9.6943 23.4659 9.70323 23.5024 9.71516 23.5358 9.75677 23.5967 9.79549 23.6332 9.83414 23.6697 9.86689 23.7154 9.86689 23.7306 9.86689 23.7488 9.88769 23.7823 9.91748 23.8036 9.94425 23.8279 9.98296 23.8918 10.0067 23.9465 10.0276 23.9983 10.0573 24.0439 10.0722 24.0439 10.0871 24.0439 10.1258 24.0896 10.1615 24.1443 10.1942 24.196 10.2388 24.269 10.2597 24.3025 10.2805 24.3359 10.334 24.4089 10.3817 24.4637 10.4263 24.5185 10.462 24.5763 10.462 24.5915 10.462 24.6097 10.4828 24.6462 10.5096 24.6766 10.6197 24.8044 10.7328 24.9717 10.7477 25.0387 10.7596 25.0752 10.7834 25.1087 10.8072 25.1087 10.828 25.1087 10.8548 25.1421 10.8667 25.1847 10.8756 25.2273 10.9024 25.2729 10.9233 25.2851 10.9679 25.3125 11.1762 25.6228 11.1762 25.6623 11.1762 25.6806 11.2089 25.7201 11.2506 25.7536 11.2922 25.787 11.3249 25.8327 11.3249 25.857 11.3249 25.8814 11.3368 25.8996 11.3487 25.8996 11.3636 25.8996 11.3934 25.9361 11.4172 25.9817 11.441 26.0274 11.4886 26.0973 11.5243 26.1369 11.56 26.1764 11.5987 26.2403 11.6106 26.2768 11.6225 26.3103 11.6552 26.359 11.685 26.3802 11.7177 26.4016 11.7415 26.4472 11.7415 26.4807 11.7415 26.5111 11.7593 26.5384 11.7802 26.5384 11.804 26.5384 11.8456 26.5902 11.8784 26.654 11.9082 26.7149 11.9468 26.7727 11.9588 26.7788 11.9796 26.7879 12.0718 26.9217 12.173 27.083 12.1909 27.1103 12.2325 27.1712 12.2712 27.2168 12.3069 27.2655 12.3366 27.3233 12.3366 27.3446 12.3366 27.3689 12.3634 27.4024 12.3932 27.4206 12.4259 27.4359 12.4616 27.4815 12.4705 27.515 12.4824 27.5515 12.536 27.6214 12.5895 27.6701 12.6461 27.7187 12.6937 27.7857 12.6996 27.8222 12.7116 27.9013 12.7889 27.953 12.8544 27.9287 12.9228 27.9013 12.9466 27.9043 12.9496 27.9378 12.9526 27.9561 12.9556 27.9743 12.9585 27.9834 12.9615 27.9987 12.9995 28.0025 13.0366 27.9987ZM4.90245 27.9993C4.92194 27.9973 4.94105 27.9913 4.94105 27.9834 4.94105 27.9754 4.95195 27.9674 4.96443 27.9674 4.97692 27.9674 4.98781 27.9754 4.98781 27.9834 4.98781 27.9929 5.00183 27.9993 5.01897 27.9993 5.03616 27.9993 5.05018 27.9881 5.05018 27.9754 5.05018 27.9419 5.09694 27.926 5.11408 27.9531 5.12344 27.9706 5.12809 27.9658 5.12809 27.9403 5.12809 27.9196 5.13433 27.9037 5.1437 27.9037 5.16708 27.9037 5.30582 27.7555 5.32608 27.7077 5.33698 27.6838 5.35258 27.6646 5.36195 27.6646 5.36972 27.6646 5.3775 27.6535 5.3775 27.6407 5.3775 27.6279 5.39157 27.6025 5.40712 27.5866 5.42272 27.5706 5.44145 27.5419 5.44769 27.5228 5.45235 27.5037 5.47107 27.4814 5.48821 27.4734 5.50376 27.4638 5.51778 27.4463 5.51778 27.4336 5.51778 27.4049 5.82955 26.9315 5.84674 26.9315 5.85451 26.9315 5.86076 26.9204 5.86076 26.9076 5.86076 26.8949 5.87324 26.871 5.88879 26.8551 5.90286 26.8407 5.92465 26.8073 5.93402 26.7833 5.94491 26.7594 5.96052 26.7403 5.96988 26.7403 5.97766 26.7403 5.98549 26.7292 5.98549 26.7164 5.98549 26.7036 5.99791 26.6797 6.01352 26.6638 6.02754 26.6495 6.04938 26.616 6.05875 26.5921 6.06964 26.5682 6.08525 26.5491 6.09302 26.5491 6.1008 26.5491 6.12264 26.5172 6.14131 26.4774 6.16004 26.4375 6.18183 26.4056 6.18966 26.4056 6.19744 26.4056 6.20368 26.3961 6.20368 26.3849 6.20368 26.3738 6.21616 26.3499 6.23171 26.3323 6.24579 26.3164 6.26758 26.2829 6.28006 26.259 6.29255 26.2335 6.30815 26.2144 6.31593 26.2144 6.32217 26.2144 6.32841 26.2048 6.32841 26.1937 6.32841 26.1809 6.34555 26.1554 6.36734 26.1347 6.38919 26.114 6.40632 26.0885 6.40632 26.0789 6.40632 26.0678 6.42034 26.0471 6.43753 26.0311 6.45467 26.0152 6.46869 25.9945 6.46869 25.9833 6.46869 25.9722 6.48271 25.9515 6.49984 25.9355 6.51698 25.9195 6.53105 25.8973 6.53105 25.8845 6.53105 25.8734 6.54507 25.851 6.56221 25.8367 6.57935 25.8207 6.59336 25.8016 6.59336 25.7921 6.59336 25.7809 6.61056 25.757 6.63082 25.7379 6.65107 25.7172 6.67292 25.6837 6.67758 25.663 6.68382 25.6423 6.69783 25.6248 6.71032 25.6248 6.7228 25.6248 6.7337 25.6104 6.7337 25.5945 6.7337 25.5769 6.75084 25.5419 6.77268 25.5164 6.79448 25.4893 6.81167 25.4622 6.81167 25.4526 6.81167 25.4431 6.81786 25.4335 6.82569 25.4303 6.83658 25.4255 6.92857 25.2917 7.01891 25.145 7.0361 25.1195 7.05478 25.0989 7.06261 25.0989 7.07038 25.0989 7.07662 25.0877 7.07662 25.075 7.07662 25.0622 7.08911 25.0383 7.10466 25.0223 7.11873 25.008 7.14052 24.9745 7.14988 24.9506 7.16083 24.9267 7.17638 24.9076 7.18416 24.9076 7.19199 24.9076 7.20289 24.89 7.20754 24.8678 7.21225 24.8471 7.23092 24.8215 7.24811 24.812 7.26525 24.8024 7.27927 24.7849 7.27927 24.7721 7.27927 24.7594 7.29328 24.7339 7.31201 24.7148 7.34787 24.6781 7.37279 24.557 7.34475 24.557 7.33698 24.557 7.31666 24.5299 7.30111 24.4964 7.28398 24.4645 7.25901 24.4231 7.2434 24.4056 7.17797 24.3307 7.12338 24.2478 7.12338 24.2207 7.12338 24.2032 7.11249 24.1904 7.1 24.1904 7.08599 24.1904 7.06726 24.1713 7.0579 24.149 7.047 24.1267 7.01738 24.0836 6.99088 24.055L6.94412 24.0024 6.88175 24.1044C6.84748 24.1602 6.81473 24.2064 6.80849 24.2064 6.80072 24.2064 6.79606 24.2143 6.79606 24.2239 6.79606 24.251 6.65732 24.4613 6.64018 24.4613 6.63082 24.4613 6.62457 24.4757 6.62457 24.4932 6.62457 24.5092 6.61209 24.5363 6.59495 24.5522 6.57935 24.5681 6.56068 24.5968 6.55597 24.6175 6.54973 24.6367 6.5373 24.6526 6.52947 24.6526 6.52169 24.6526 6.51545 24.6621 6.51545 24.6733 6.51545 24.6845 6.50143 24.71 6.48429 24.7291 6.4671 24.7482 6.45308 24.7673 6.45308 24.7721 6.45308 24.7833 6.21304 25.1626 6.18501 25.1944 6.17411 25.2072 6.15533 25.2391 6.14602 25.263 6.13513 25.2869 6.11952 25.306 6.11016 25.306 6.10239 25.306 6.09456 25.3156 6.09456 25.3267 6.09456 25.3363 6.06805 25.3857 6.03537 25.4335 6.00416 25.4813 5.96829 25.5403 5.95581 25.5658 5.94338 25.5896 5.92777 25.6088 5.92 25.6088 5.91376 25.6088 5.90752 25.6168 5.90752 25.6248 5.90752 25.6343 5.84203 25.7395 5.76411 25.8606 5.68461 25.9801 5.61135 26.0981 5.60046 26.122 5.5895 26.1475 5.57395 26.1666 5.56459 26.1666 5.55676 26.1666 5.54899 26.1762 5.54899 26.1873 5.54899 26.1985 5.53497 26.224 5.51778 26.2431 5.50069 26.2622 5.48662 26.2829 5.48662 26.2893 5.48662 26.2957 5.45859 26.3419 5.42431 26.3913 5.38998 26.4423 5.36195 26.4885 5.36195 26.4949 5.36195 26.5188 5.30895 26.565 5.28244 26.565 5.26531 26.565 5.2497 26.5809 5.24346 26.6048 5.23568 26.6351 5.2232 26.6447 5.18892 26.6447 5.16084 26.6447 5.1437 26.6367 5.1437 26.6223 5.1437 26.6096 5.12809 26.5969 5.10942 26.5937 5.06266 26.5873 5.02526 26.4678 5.05483 26.42 5.07044 26.3929 5.06885 26.3849 5.04865 26.3738 5.01431 26.353 4.99559 26.2511 5.02056 26.2208 5.03616 26.2016 5.03457 26.1937 5.01278 26.1777 4.97692 26.1506 4.96131 26.0407 4.9894 26.0215 5.00807 26.0088 5.00648 26.0025 4.98316 25.9849 4.9473 25.9578 4.9301 25.8558 4.95507 25.8255 4.97068 25.808 4.96755 25.8 4.94571 25.7873 4.92391 25.7746 4.91767 25.7507 4.91767 25.6853 4.91767 25.6391 4.91143 25.596 4.90207 25.5896 4.89429 25.5833 4.88805 25.5403 4.88958 25.4957 4.89117 25.4399 4.8834 25.4048 4.86779 25.3889 4.85065 25.3698 4.84595 25.3458 4.85378 25.2932 4.86002 25.2407 4.85684 25.2168 4.83817 25.1976 4.81944 25.1801 4.81479 25.153 4.82103 25.1004 4.82574 25.0494 4.82257 25.0223 4.80543 25.0048 4.78829 24.9889 4.78364 24.9618 4.78982 24.9092 4.79453 24.8582 4.79141 24.8311 4.77427 24.8136 4.75555 24.7961 4.75243 24.7705 4.76026 24.7068 4.76803 24.6399 4.76491 24.6223 4.74465 24.6143 4.7228 24.6064 4.71968 24.5889 4.72751 24.5187 4.7337 24.4486 4.73058 24.4295 4.71191 24.4231 4.69165 24.4152 4.68853 24.3961 4.6963 24.3275 4.70255 24.259 4.69942 24.2382 4.6807 24.2319 4.66203 24.2239 4.65891 24.2032 4.66356 24.1346 4.6698 24.0693 4.66515 24.047 4.64801 24.0391 4.62928 24.0327 4.62775 24.0119 4.63553 23.945 4.6433 23.8749 4.64018 23.8573 4.61992 23.8494 4.59813 23.8415 4.59501 23.8239 4.60437 23.7538 4.61215 23.6836 4.60903 23.6661 4.58877 23.6582 4.56692 23.6502 4.5638 23.6326 4.57163 23.5609 4.57787 23.4908 4.57475 23.4701 4.55602 23.4589 4.53576 23.4478 4.53264 23.4286 4.54042 23.3633 4.54666 23.3059 4.54354 23.2788 4.52952 23.2709 4.50302 23.2549 4.48117 23.1386 4.50455 23.1386 4.52799 23.1386 4.52328 23.0908 4.49837 23.0813 4.46716 23.0685 4.45161 22.9665 4.47652 22.9362 4.49213 22.9171 4.49054 22.9091 4.47028 22.8932 4.43759 22.8693 4.41416 22.7402 4.44066 22.7402 4.45002 22.7402 4.45779 22.729 4.45779 22.7163 4.45779 22.7036 4.4469 22.6924 4.43441 22.6924 4.40479 22.6924 4.38453 22.5856 4.4095 22.5458 4.42352 22.5235 4.4204 22.5107 4.39548 22.4852 4.36121 22.4501 4.35179 22.3481 4.38453 22.337 4.39702 22.3322 4.39236 22.3195 4.36893 22.2956 4.33312 22.2605 4.31905 22.1824 4.34872 22.1824 4.37523 22.1824 4.36586 22.1267 4.33312 22.098 4.29726 22.0677 4.2926 22.0215 4.32064 21.9752 4.33783 21.9498 4.33465 21.9386 4.30503 21.9115 4.26763 21.8749 4.26139 21.8318 4.28795 21.7808 4.30191 21.7553 4.29884 21.7426 4.27076 21.7171 4.24272 21.69 4.23807 21.6741 4.24738 21.6087 4.25515 21.5465 4.25362 21.5322 4.23024 21.5226 4.20839 21.5147 4.20527 21.4987 4.21463 21.427 4.22246 21.3569 4.21929 21.3393 4.19908 21.3314 4.17724 21.3234 4.17411 21.3059 4.18189 21.2358 4.18819 21.1657 4.18501 21.1465 4.16634 21.1402 4.14608 21.1322 4.14296 21.1131 4.15073 21.0445 4.15698 20.9744 4.15386 20.9553 4.13513 20.9489 4.11487 20.941 4.11175 20.9202 4.11952 20.8437 4.12582 20.7641 4.1227 20.7481 4.10397 20.7481 4.08372 20.7481 4.08059 20.7322 4.08837 20.6541 4.09461 20.5776 4.09149 20.5569 4.07282 20.5505 4.05409 20.5426 4.05097 20.5234 4.05875 20.4549 4.06811 20.3832 4.06499 20.3688 4.0432 20.3593 4.02135 20.3513 4.01823 20.3354 4.02759 20.2637 4.03537 20.1935 4.03225 20.176 4.01199 20.168 3.9902 20.1601 3.98708 20.1425 3.99638 20.0724 4.00262 20.0071 4.00109 19.9848 3.98395 19.9784 3.95121 19.9656 3.93719 19.8796 3.96211 19.8413 3.97924 19.8142 3.97771 19.8063 3.95433 19.7887 3.92159 19.7648 3.89821 19.6485 3.9263 19.6485 3.93561 19.6485 3.94338 19.6373 3.94338 19.6246 3.94338 19.6118 3.93719 19.6007 3.92936 19.6007 3.91535 19.6007 3.84833 19.4939 3.84362 19.4652 3.84209 19.4557 3.8296 19.4349 3.81405 19.4174 3.74857 19.3409 3.69398 19.2692 3.69398 19.2581 3.69398 19.2517 3.67684 19.2261 3.65505 19.1991 3.6332 19.1736 3.61606 19.1417 3.61606 19.1305 3.61606 19.1178 3.6067 19.1019 3.59734 19.0955 3.57242 19.0795 3.47578 18.9536 3.47578 18.9362 3.47419 18.9297 3.45394 18.8979 3.42902 18.8676 3.40252 18.8373 3.38221 18.8038 3.38221 18.7927 3.38221 18.7815 3.37602 18.772 3.36978 18.772 3.362 18.772 3.33391 18.7369 3.30583 18.6923 3.24664 18.5983 3.23257 18.5871 3.20294 18.6126 3.18427 18.6285 3.17956 18.6269 3.17803 18.603 3.17803 18.5791 3.17338 18.5807 3.1593 18.6126 3.1328 18.6732 3.09699 18.6971 3.08451 18.6636 3.07674 18.6413 3.07203 18.6461 3.06272 18.6795 3.05023 18.7274 3.00966 18.7513 2.99099 18.721 2.98316 18.7083 2.97539 18.7162 2.96914 18.7449 2.9629 18.7688 2.94888 18.7879 2.9364 18.7879 2.92397 18.7879 2.90059 18.8023 2.88187 18.8214 2.86473 18.8389 2.83976 18.8501 2.82733 18.8453 2.81485 18.8405 2.80548 18.8469 2.80548 18.8596 2.80548 18.8867 2.74936 18.9218 2.72751 18.9074 2.71815 18.9026 2.71196 18.909 2.71196 18.9218 2.71196 18.9568 2.6496 18.9887 2.63246 18.9616 2.62469 18.9473 2.61686 18.9536 2.61061 18.9823 2.59819 19.0302 2.55761 19.0541 2.53894 19.0238 2.53111 19.011 2.52334 19.019 2.51709 19.0477 2.51085 19.0716 2.49525 19.0907 2.48282 19.0907 2.47187 19.0907 2.44537 19.1051 2.4267 19.1226 2.40797 19.1401 2.38459 19.1512 2.37369 19.1481 2.3628 19.1433 2.35344 19.1481 2.35344 19.1593 2.35344 19.1704 2.33783 19.1879 2.32069 19.2007 2.2926 19.2182 2.28483 19.2182 2.27393 19.1991 2.26304 19.1832 2.25992 19.1863 2.25992 19.2102 2.25992 19.2278 2.24584 19.2517 2.22871 19.2612 2.20379 19.2788 2.19596 19.2771 2.18507 19.2564 2.17258 19.2342 2.16793 19.2389 2.15386 19.2803 2.13519 19.3329 2.12117 19.3409 2.09308 19.3122 2.07906 19.2979 2.07129 19.3042 2.06351 19.3362 2.0588 19.3584 2.04791 19.3776 2.04013 19.3776 2.0323 19.3776 2.01204 19.3919 1.99491 19.4094 1.95592 19.4493 1.93725 19.4493 1.92789 19.4142 1.92318 19.3935 1.91852 19.3999 1.90916 19.4333 1.89356 19.4891 1.8733 19.5082 1.8359 19.4955 1.81717 19.4907 1.80781 19.4955 1.80781 19.5114 1.80781 19.5449 1.75016 19.5768 1.74079 19.5481 1.73614 19.5369 1.72678 19.5465 1.71741 19.5704 1.70186 19.6118 1.65198 19.6453 1.65198 19.6166 1.65198 19.5831 1.62077 19.6023 1.61141 19.6405 1.60676 19.6628 1.5958 19.6804 1.5865 19.6804 1.57867 19.6804 1.55687 19.6947 1.53974 19.7122 1.51942 19.7314 1.49451 19.741 1.47737 19.7345 1.46023 19.7298 1.44934 19.7345 1.44934 19.7473 1.44934 19.7776 1.39163 19.8126 1.38226 19.7871 1.37761 19.776 1.36825 19.7871 1.35888 19.8094 1.34021 19.8573 1.2934 19.8843 1.2934 19.8477 1.2934 19.8094 1.26849 19.8206 1.2669 19.8589 1.26536 19.8796 1.25135 19.9035 1.23733 19.9146 1.21548 19.9306 1.20771 19.9306 1.1921 19.9083 1.17497 19.886 1.17184 19.8875 1.16248 19.9242 1.15783 19.9481 1.14534 19.9672 1.13757 19.9672 1.12974 19.9672 1.10483 19.9863 1.07986 20.0087 1.04093 20.0453 1.03622 20.0469 1.02686 20.0198 1.01596 19.9943 1.01443 19.9943 1.01443 20.0246 1.01284 20.0437 0.995701 20.0708 0.975442 20.0851 0.939578 20.1075 0.936457 20.1075 0.930215 20.082 0.925561 20.0612 0.920852 20.066 0.913077 20.0979 0.89906 20.1457 0.858488 20.1696 0.839816 20.1393 0.831987 20.1266 0.824212 20.1346 0.81797 20.1617 0.807074 20.2063 0.760314 20.2366 0.750951 20.2063 0.743176 20.1824 0.70107 20.2174 0.70107 20.2477 0.70107 20.2605 0.690174 20.27 0.67769 20.27 0.665206 20.27 0.65431 20.2748 0.65431 20.2827 0.65431 20.2891 0.638705 20.3035 0.621567 20.3162 0.593533 20.3337 0.585703 20.3337 0.574807 20.3147 0.563911 20.2987 0.56079 20.3019 0.56079 20.3258 0.56079 20.3688 0.500013 20.4103 0.481287 20.38 0.471925 20.364 0.464149 20.3704 0.453253 20.3991 0.436061 20.4453 0.395543 20.4692 0.384647 20.4405 0.379938 20.4294 0.370575 20.4405 0.361267 20.4628 0.341008 20.5138 0.295781 20.5362 0.294193 20.4963 0.294193 20.4804 0.283297 20.4916 0.270813 20.5218 0.255263 20.5585 0.239658 20.5728 0.225641 20.5665 0.213157 20.5616 0.202261 20.5633 0.202261 20.5696 0.202261 20.5776 0.163276 20.6238 0.116516 20.6732 0.0697566 20.7226 0.0307717 20.7768 0.0307717 20.7943 0.0307717 20.8119 0.0245845 20.831 0.0152216 20.8358-0.00509212 20.8485-0.00509212 21.019 0.0152216 21.019 0.0245845 21.019 0.0307717 21.0302 0.0307717 21.043 0.0307717 21.0637 0.0806526 21.1673 0.108741 21.2023 0.116516 21.2119 0.122758 21.223 0.122758 21.231 0.124346 21.2373 0.135242 21.2549 0.149259 21.2708 0.213157 21.3425 0.264626 21.4254 0.264626 21.4509 0.264626 21.4684 0.275522 21.4812 0.289539 21.4812 0.303611 21.4812 0.322282 21.5035 0.331645 21.529 0.341008 21.5561 0.353492 21.5768 0.359679 21.5768 0.373751 21.5768 0.498425 21.7744 0.498425 21.7968 0.498425 21.8079 0.507788 21.8159 0.518684 21.8159 0.531168 21.8159 0.549894 21.835 0.562323 21.8605 0.574807 21.8844 0.596654 21.9179 0.610671 21.9338 0.626276 21.9513 0.641826 21.9784 0.648068 21.9943 0.652777 22.0103 0.671448 22.0406 0.690174 22.0613 0.750951 22.1267 0.79459 22.1904 0.79459 22.2111 0.79459 22.2207 0.800832 22.2302 0.808607 22.2302 0.824212 22.2302 0.874092 22.3035 0.878747 22.3322 0.880334 22.3418 0.894351 22.3657 0.911544 22.3848 0.928627 22.4024 0.959837 22.4438 0.981629 22.4757 1.00348 22.5075 1.03934 22.5601 1.06431 22.592 1.08769 22.6238 1.10636 22.6589 1.10636 22.6701 1.10636 22.6812 1.1126 22.6924 1.12038 22.6956 1.14534 22.7051 1.24511 22.8501 1.256 22.8916 1.26071 22.9139 1.27473 22.9315 1.28409 22.9315 1.29499 22.9315 1.31371 22.9506 1.3262 22.976 1.33863 22.9999 1.35264 23.0223 1.35888 23.027 1.38226 23.0446 1.49604 23.2278 1.49604 23.247 1.49604 23.2566 1.50699 23.2661 1.51942 23.2661 1.53191 23.2661 1.54592 23.2836 1.55222 23.3059 1.55687 23.3283 1.57089 23.3522 1.58025 23.3586 1.61141 23.3776 1.71429 23.5323 1.71429 23.5594 1.71429 23.5737 1.72365 23.5848 1.73455 23.5848 1.74704 23.5848 1.76576 23.604 1.77819 23.6294 1.79067 23.6534 1.8094 23.6836 1.82188 23.6964 1.83431 23.7092 1.85304 23.7426 1.86552 23.7713 1.87642 23.8 1.89202 23.8239 1.8998 23.8239 1.90757 23.8239 1.92789 23.8478 1.94656 23.8765 1.96375 23.9036 1.98713 23.9418 1.99803 23.9593 2.00892 23.9769 2.03701 24.0152 2.06193 24.0438 2.0853 24.0725 2.10398 24.106 2.10398 24.1187 2.10398 24.1299 2.11027 24.1426 2.11805 24.1458 2.13677 24.1522 2.24431 24.2988 2.24431 24.3179 2.24431 24.3275 2.25055 24.3339 2.25833 24.3339 2.2661 24.3339 2.28795 24.3657 2.30662 24.4056 2.32535 24.4454 2.34561 24.4773 2.35185 24.4773 2.36899 24.4773 2.47811 24.6494 2.47811 24.6765 2.47811 24.6892 2.48906 24.7004 2.50154 24.7004 2.51551 24.7004 2.53423 24.7195 2.54513 24.7434 2.55449 24.7673 2.57787 24.8024 2.59501 24.8215 2.6122 24.8407 2.64336 24.8869 2.66515 24.9235 2.687 24.9602 2.72286 25.0144 2.74783 25.043 2.77115 25.0717 2.78988 25.1004 2.78988 25.1052 2.78988 25.1116 2.8039 25.1307 2.82103 25.1499 2.83823 25.1689 2.85224 25.1944 2.85224 25.2056 2.85224 25.2168 2.85849 25.2263 2.86626 25.2263 2.87409 25.2263 2.90212 25.2598 2.92863 25.3028 2.95513 25.3442 2.98475 25.3921 2.99564 25.408 3.00654 25.4255 3.03151 25.4574 3.05177 25.4798 3.07049 25.502 3.0861 25.5339 3.0861 25.5482 3.0861 25.5642 3.10012 25.5833 3.11567 25.5929 3.1328 25.6008 3.15153 25.6248 3.15618 25.6439 3.16248 25.6614 3.18427 25.6933 3.20453 25.7124 3.22479 25.7315 3.24193 25.7554 3.24193 25.7634 3.24193 25.7729 3.25282 25.7905 3.26843 25.8016 3.28245 25.8144 3.30276 25.8478 3.31519 25.8765 3.32614 25.9036 3.34169 25.9275 3.34952 25.9275 3.35729 25.9275 3.37755 25.9515 3.39628 25.9801 3.41342 26.0072 3.4368 26.0455 3.44769 26.063 3.45859 26.0805 3.48668 26.1188 3.51165 26.1475 3.53503 26.1762 3.5537 26.2064 3.5537 26.2144 3.5537 26.224 3.56459 26.2431 3.57867 26.259 3.63632 26.3259 3.69556 26.4136 3.70334 26.4487 3.70958 26.4678 3.72207 26.4853 3.73455 26.4853 3.74545 26.4853 3.75946 26.5029 3.7657 26.5252 3.77036 26.5474 3.78443 26.5713 3.79533 26.5777 3.81871 26.5921 3.92783 26.7546 3.92783 26.7753 3.92783 26.7849 3.94497 26.8056 3.96682 26.8232 3.98861 26.8407 4.00575 26.8646 4.00575 26.8773 4.00575 26.8901 4.01199 26.8997 4.01823 26.8997 4.02606 26.8997 4.04161 26.9188 4.05409 26.9427 4.06658 26.9666 4.09149 27.0032 4.11022 27.024 4.12889 27.0447 4.1492 27.0781 4.15539 27.0973 4.16163 27.1148 4.17877 27.1403 4.19437 27.1515 4.21151 27.1626 4.224 27.1865 4.224 27.2041 4.224 27.22 4.23336 27.2343 4.24425 27.2343 4.25674 27.2343 4.27853 27.2614 4.29572 27.2949 4.31133 27.3268 4.33153 27.357 4.33783 27.3602 4.34872 27.365 4.39702 27.4351 4.45002 27.5196 4.45938 27.534 4.48117 27.5658 4.50149 27.5897 4.52016 27.6152 4.53576 27.6455 4.53576 27.6567 4.53576 27.6694 4.54978 27.6869 4.56539 27.6965 4.58252 27.7045 4.60125 27.7284 4.6059 27.7459 4.61215 27.765 4.64018 27.8017 4.66827 27.8272 4.69789 27.8527 4.7228 27.8878 4.72592 27.9068 4.73217 27.9483 4.77268 27.9754 4.80696 27.9627 4.84282 27.9483 4.85531 27.9499 4.85684 27.9674 4.85843 27.977 4.86002 27.9866 4.86155 27.9913 4.86314 27.9993 4.88301 28.0013 4.90245 27.9993Z" fill-rule="evenodd" transform="matrix(1 0 0 -1 657 391)"/></g></svg>