<?xml version="1.0" standalone="no"?>
<!DOCTYPE svg PUBLIC "-//W3C//DTD SVG 20010904//EN"
 "http://www.w3.org/TR/2001/REC-SVG-20010904/DTD/svg10.dtd">
<svg version="1.0" xmlns="http://www.w3.org/2000/svg"
 width="57.000000pt" height="46.000000pt" viewBox="0 0 57.000000 46.000000"
 preserveAspectRatio="xMidYMid meet">

<g transform="translate(0.000000,46.000000) scale(0.100000,-0.100000)"
fill="#000000" stroke="none">
<path d="M418 416 c-15 -18 -40 -37 -55 -40 -15 -4 -44 -23 -64 -42 -35 -34
-38 -35 -75 -25 -28 8 -44 7 -63 -2 -32 -15 -91 -101 -91 -133 0 -13 -11 -33
-24 -46 -13 -13 -29 -40 -34 -61 -13 -46 4 -67 53 -67 37 0 52 14 36 34 -8 9
-2 21 23 45 19 18 39 30 45 27 6 -4 16 -26 23 -49 14 -48 23 -57 60 -57 31 0
45 17 29 33 -19 19 -13 55 10 62 11 4 22 5 24 3 7 -7 8 -34 1 -50 -13 -30 1
-50 31 -46 23 2 30 11 42 48 24 78 24 77 28 55 2 -11 9 -30 15 -42 8 -17 8
-26 -1 -36 -9 -12 -8 -16 5 -21 26 -10 69 -7 82 6 16 16 14 94 -3 143 -21 58
-19 88 7 100 35 16 44 39 28 72 -7 15 -12 35 -11 45 1 9 -3 19 -9 23 -5 3 -10
14 -10 25 0 10 -7 21 -16 24 -34 13 -60 5 -86 -28z"/>
</g>
</svg>
