<?xml version="1.0" standalone="no"?>
<!DOCTYPE svg PUBLIC "-//W3C//DTD SVG 20010904//EN"
 "http://www.w3.org/TR/2001/REC-SVG-20010904/DTD/svg10.dtd">
<svg version="1.0" xmlns="http://www.w3.org/2000/svg"
 width="515.000000pt" height="207.000000pt" viewBox="0 0 515.000000 207.000000"
 preserveAspectRatio="xMidYMid meet">

<g transform="translate(0.000000,207.000000) scale(0.100000,-0.100000)"
fill="#000000" stroke="none">
<path d="M2594 2050 c-17 -17 -1369 -652 -1389 -652 -11 0 -268 77 -571 171
-303 94 -556 171 -561 171 -10 0 -70 -186 -62 -194 4 -4 1148 -360 1195 -372
15 -4 219 87 704 316 680 320 683 321 709 304 76 -50 1278 -868 1288 -878 10
-9 1 -30 -43 -95 -30 -45 -54 -84 -52 -86 6 -6 682 -95 686 -90 5 5 -329 605
-337 605 -3 -1 -30 -37 -60 -81 -30 -44 -59 -78 -65 -76 -6 3 -329 221 -718
486 -389 264 -708 481 -710 481 -2 0 -8 -4 -14 -10z"/>
</g>
</svg>
