<?xml version="1.0" standalone="no"?>
<!DOCTYPE svg PUBLIC "-//W3C//DTD SVG 20010904//EN"
 "http://www.w3.org/TR/2001/REC-SVG-20010904/DTD/svg10.dtd">
<svg version="1.0" xmlns="http://www.w3.org/2000/svg"
 width="206.000000pt" height="155.000000pt" viewBox="0 0 206.000000 155.000000"
 preserveAspectRatio="xMidYMid meet">

<g transform="translate(0.000000,155.000000) scale(0.100000,-0.100000)"
fill="#000000" stroke="none">
<path d="M650 1498 c-40 -55 -61 -125 -67 -227 -6 -92 10 -228 33 -276 8 -18
12 -21 8 -8 -37 151 -13 371 53 480 18 31 33 59 33 64 0 23 -33 5 -60 -33z"/>
<path d="M900 1370 c0 -5 5 -10 10 -10 6 0 10 5 10 10 0 6 -4 10 -10 10 -5 0
-10 -4 -10 -10z"/>
<path d="M856 1324 c-31 -31 -79 -107 -112 -179 -47 -102 -43 -116 7 -20 22
43 55 100 73 125 54 76 70 113 32 74z"/>
<path d="M346 1193 c-11 -11 -6 -23 9 -23 8 0 15 4 15 9 0 13 -16 22 -24 14z"/>
<path d="M380 1144 c0 -3 19 -23 42 -43 66 -57 118 -114 135 -144 8 -16 17
-27 19 -24 9 8 -41 79 -92 133 -47 48 -104 91 -104 78z"/>
<path d="M1085 1138 c-91 -28 -180 -82 -281 -170 -61 -54 -58 -66 4 -15 37 31
98 64 244 131 31 14 61 26 66 26 15 0 22 28 9 33 -7 2 -25 0 -42 -5z"/>
<path d="M701 1024 c0 -11 3 -14 6 -6 3 7 2 16 -1 19 -3 4 -6 -2 -5 -13z"/>
<path d="M42 957 c-69 -22 -26 -31 159 -32 143 -2 196 -6 239 -20 30 -9 61
-22 68 -27 7 -6 12 -6 12 -1 0 9 -58 41 -90 49 -144 39 -319 53 -388 31z"/>
<path d="M894 889 c-11 -3 -22 -5 -26 -3 -4 3 -9 0 -13 -5 -3 -6 4 -8 17 -5
46 9 175 4 248 -10 32 -6 33 -6 17 8 -26 20 -199 32 -243 15z"/>
<path d="M820 869 c0 -5 5 -7 10 -4 6 3 10 8 10 11 0 2 -4 4 -10 4 -5 0 -10
-5 -10 -11z"/>
<path d="M1186 871 c-3 -5 1 -11 9 -15 9 -3 15 0 15 9 0 16 -16 20 -24 6z"/>
<path d="M845 800 c25 -11 58 -12 51 -2 -2 4 -19 8 -38 9 -27 2 -29 0 -13 -7z"/>
<path d="M916 791 c5 -4 52 -22 105 -39 53 -17 140 -52 194 -77 53 -25 99 -45
102 -45 13 0 198 -115 268 -167 120 -89 284 -255 358 -363 22 -32 22 -17 0 18
-31 50 -116 146 -213 242 -113 111 -138 134 -205 180 -28 19 -52 38 -55 41 -3
4 -63 38 -135 76 -130 70 -167 84 -325 123 -94 23 -109 24 -94 11z"/>
<path d="M505 785 c-5 -2 -41 -13 -79 -25 -65 -20 -121 -48 -113 -57 3 -2 22
4 43 13 22 9 48 20 59 24 11 4 31 12 45 19 14 6 35 12 47 14 25 4 44 17 22 16
-8 0 -18 -2 -24 -4z"/>
<path d="M780 774 c0 -2 26 -17 58 -33 31 -16 71 -41 87 -55 17 -15 52 -45 79
-69 64 -55 76 -61 89 -48 7 7 -5 25 -43 61 -29 27 -56 50 -60 50 -5 0 -15 7
-23 15 -25 24 -187 93 -187 79z"/>
<path d="M560 664 c-71 -102 -128 -286 -110 -354 10 -37 24 -28 33 22 30 175
53 255 95 336 29 55 21 54 -18 -4z"/>
<path d="M681 654 c14 -74 28 -118 43 -139 25 -35 26 -11 1 40 -13 28 -27 71
-31 98 -4 26 -10 47 -14 47 -4 0 -4 -21 1 -46z"/>
<path d="M230 671 c0 -6 5 -13 10 -16 6 -3 10 1 10 9 0 9 -4 16 -10 16 -5 0
-10 -4 -10 -9z"/>
<path d="M745 430 c3 -5 8 -10 11 -10 2 0 4 5 4 10 0 6 -5 10 -11 10 -5 0 -7
-4 -4 -10z"/>
</g>
</svg>
