<svg width="22" height="33" xmlns="http://www.w3.org/2000/svg" xmlns:xlink="http://www.w3.org/1999/xlink" overflow="hidden"><defs><clipPath id="clip0"><rect x="860" y="359" width="22" height="33"/></clipPath></defs><g clip-path="url(#clip0)" transform="translate(-860 -359)"><path d="M1.65273 12.9818C1.83319 12.9818 1.84751 12.976 1.86471 12.9125 1.88476 12.823 1.82746 12.5053 1.76158 12.3782 1.7358 12.3204 1.69857 12.1905 1.67851 12.0865 1.66134 11.9825 1.62409 11.8497 1.59259 11.7919 1.56395 11.7313 1.52957 11.61 1.51811 11.5204 1.50952 11.4338 1.46941 11.2923 1.42932 11.2114 1.30042 10.9313 1.34911 10.7118 1.56968 10.5905 1.6556 10.5443 2.09384 10.5414 8.76498 10.5327 13.938 10.527 15.9116 10.5356 16.0233 10.5587 16.1293 10.5818 16.2066 10.6194 16.2639 10.6771 16.3441 10.758 16.347 10.7695 16.3355 10.9688 16.3269 11.0959 16.2983 11.223 16.2639 11.2923 16.2324 11.3558 16.1894 11.4916 16.1722 11.5955 16.1522 11.6995 16.1178 11.8093 16.0978 11.8439 16.0777 11.8757 16.0433 11.9883 16.0233 12.0894 16.0061 12.1905 15.966 12.3233 15.9374 12.3811 15.8743 12.5082 15.8085 12.8634 15.8342 12.9327 15.8486 12.9702 15.8887 12.9818 16.0204 12.9818 16.2496 12.9818 16.4042 12.9038 16.5131 12.7276L16.599 12.5919 16.599 11.6533C16.599 11.1132 16.6105 10.6973 16.6277 10.6714 16.6477 10.6396 16.7394 10.6251 17 10.6107L17.3466 10.5934 17.4698 10.4721C17.57 10.371 17.6044 10.3075 17.6674 10.0995L17.7448 9.84536 17.7391 5.2245 17.7304 0.606496 17.6531 0.462092C17.5557 0.274367 17.4497 0.176184 17.2636 0.103982 17.0573 0.0202203 16.3699 0.0144404 16.1694 0.0953027 15.9603 0.176184 15.923 0.207945 15.7999 0.392771L15.6824 0.568955 15.6824 3.29527C15.6824 5.30246 15.6738 6.03892 15.6481 6.0938 15.628 6.14 15.5793 6.17754 15.5077 6.19486 15.4246 6.21798 15.3817 6.25553 15.3101 6.36815L15.2213 6.50967 15.2241 7.52338C15.2241 8.18764 15.2155 8.55441 15.1955 8.59195 15.164 8.64971 15.1239 8.64971 8.87096 8.64971 4.01298 8.64971 2.56648 8.64105 2.54069 8.61507 2.51491 8.58907 2.50632 8.30892 2.50632 7.53782 2.50632 6.61653 2.50058 6.48945 2.45762 6.42591 2.36596 6.28729 2.26857 6.19776 2.18838 6.18042 2.14254 6.16888 2.09099 6.13712 2.07667 6.10534 2.05661 6.07068 2.04802 5.13496 2.04802 3.40213 2.04802 1.85991 2.03656 0.681578 2.01938 0.583395 1.98501 0.366789 1.84465 0.190624 1.62409 0.0808623 1.46656 0.00577994 1.44077 0.00289945 1.01685 0 0.590058 0 0.567148 0.00289945 0.429651 0.0779818 0.24919 0.173285 0.117425 0.311908 0.0515521 0.476532 0.00285669 0.600716 0 0.825982 0 5.3429L0 10.0793 0.0658731 10.241C0.111712 10.3537 0.171853 10.4374 0.252066 10.501 0.369491 10.5963 0.378099 10.5992 0.687448 10.6078 0.933782 10.6165 1.01112 10.628 1.03976 10.6656 1.06555 10.7002 1.07414 10.9457 1.07414 11.6591 1.07414 12.6757 1.07699 12.693 1.22308 12.8258 1.25745 12.8605 1.32906 12.9096 1.3749 12.9327 1.42645 12.9616 1.5353 12.9789 1.65273 12.9818ZM4.49146 16.1001C4.38835 15.9615 4.18498 15.4272 4.13914 15.1788 4.12482 15.0922 4.079 14.8987 4.04175 14.7485 3.93292 14.3326 3.88422 14.1218 3.82406 13.8532 3.79256 13.7175 3.7496 13.5471 3.72381 13.472 3.7009 13.394 3.6608 13.2294 3.63789 13.1052 3.6121 12.981 3.56914 12.802 3.53762 12.7095 3.50612 12.62 3.48034 12.5074 3.48034 12.4641 3.48034 12.4179 3.44884 12.2821 3.40873 12.1579 3.31422 11.8633 3.28556 11.5976 3.34286 11.5485 3.37721 11.5225 4.58312 11.5139 8.77084 11.5139 11.7326 11.5139 14.1788 11.5225 14.2074 11.5312 14.2847 11.563 14.3019 11.6554 14.2618 11.8287 14.2246 12.002 14.1644 12.2821 14.09 12.62 14.0671 12.7327 14.0155 12.9521 13.9783 13.1023 13.8809 13.5066 13.7949 13.8908 13.7348 14.1998 13.7062 14.35 13.6689 14.5088 13.6517 14.5521 13.6345 14.5954 13.603 14.7514 13.5772 14.8987 13.5515 15.046 13.5056 15.251 13.4741 15.3521 13.4455 15.4532 13.4197 15.5687 13.4197 15.612 13.4197 15.6554 13.4025 15.7131 13.3853 15.7391 13.351 15.7824 13.0502 15.7882 9.30933 15.794 5.63722 15.8026 5.25912 15.8055 5.156 15.8489 5.09298 15.8777 4.97268 15.9239 4.88675 15.9586 4.80083 15.9904 4.70343 16.0452 4.66906 16.077 4.60031 16.1434 4.53156 16.1521 4.49146 16.1001ZM4.56594 16.7008C4.59746 16.6719 4.62895 16.62 4.63754 16.5824 4.6576 16.5073 4.90107 16.3283 5.06148 16.2705 5.13309 16.2445 6.1929 16.2359 9.30647 16.2272 13.0817 16.2214 13.4655 16.2156 13.5114 16.1723 13.5801 16.1088 13.6632 15.8748 13.7062 15.6178 13.752 15.3434 13.835 15.0489 13.8923 14.9622 13.9353 14.8958 13.9468 14.8929 14.4423 14.8871L14.9493 14.8785 14.9894 14.763C15.0123 14.6994 15.0524 14.5954 15.0811 14.5319 15.1097 14.4684 15.1469 14.3269 15.1641 14.22 15.1784 14.1103 15.2128 13.9918 15.2357 13.9543 15.2586 13.9167 15.293 13.7983 15.3131 13.6915 15.3302 13.5817 15.3704 13.4287 15.4018 13.3478 15.4334 13.2698 15.4706 13.1283 15.4849 13.033 15.5021 12.9406 15.5365 12.8164 15.5651 12.7586 15.5938 12.7009 15.6281 12.5911 15.6396 12.5103 15.6511 12.4323 15.6854 12.311 15.7141 12.2417 15.7456 12.1753 15.7857 12.0453 15.8 11.9529 15.8172 11.8633 15.8544 11.7392 15.8831 11.6785 15.9146 11.6179 15.9461 11.5052 15.9576 11.433 15.9661 11.3579 16.0062 11.228 16.0463 11.1442 16.1294 10.9594 16.118 10.8323 16.0062 10.789 15.9633 10.7745 13.2049 10.763 8.85391 10.763 1.78177 10.763 1.7703 10.763 1.69584 10.8208 1.58986 10.9045 1.57554 10.9796 1.64427 11.0894 1.67579 11.1384 1.7159 11.2742 1.73593 11.3839 1.75313 11.4966 1.7875 11.6121 1.80755 11.6439 1.82759 11.6756 1.86484 11.7969 1.89061 11.9124 1.91353 12.028 1.95362 12.1608 1.97655 12.207 1.99946 12.2532 2.03957 12.3919 2.06248 12.5132 2.08539 12.6345 2.1169 12.75 2.13408 12.7673 2.1484 12.7875 2.17992 12.8973 2.20569 13.0128 2.22862 13.1254 2.27158 13.2727 2.30308 13.3334 2.33172 13.3969 2.36609 13.5153 2.37756 13.5991 2.38902 13.6828 2.42625 13.8185 2.46349 13.8965 2.50072 13.9774 2.53797 14.1103 2.54656 14.194 2.55802 14.2749 2.58952 14.3875 2.62104 14.4395 2.66112 14.5088 2.7356 14.7976 2.7356 14.8814 2.7356 14.9189 3.01917 14.9507 3.33998 14.9507 3.7811 14.9507 3.80115 14.9593 3.83553 15.1673 3.8699 15.355 3.99593 15.7593 4.08472 15.9644 4.13055 16.0683 4.16779 16.1665 4.16779 16.1839 4.16779 16.2012 4.1993 16.259 4.23368 16.3138 4.27091 16.3687 4.31101 16.4467 4.3196 16.4871 4.33107 16.5275 4.37689 16.6026 4.42558 16.6546 4.50865 16.7441 4.51439 16.747 4.56594 16.7008ZM8.83108 20.111 13.5945 20.111 13.7349 20.0388C13.8151 19.9983 13.9067 19.9203 13.9497 19.8597L14.0213 19.75 14.0213 18.95 14.0213 18.1471 13.8982 18.0171 13.7721 17.8872 8.85113 17.8872 3.93013 17.8872 3.78978 18.0287 3.64943 18.1702 3.65803 18.9933 3.66662 19.8164 3.73823 19.8944C3.77834 19.9377 3.86712 20.0041 3.93874 20.0416L4.06763 20.1081ZM15.5954 20.831C15.9657 20.8332 16.5366 20.8207 16.5516 20.8034 16.5631 20.7947 16.5746 19.2034 16.5803 17.2684L16.586 13.7536 16.4972 13.6324C16.3741 13.462 16.2108 13.3955 15.9215 13.3955 15.5892 13.3955 15.5348 13.4475 15.4718 13.8056 15.4546 13.898 15.4231 14.002 15.4002 14.0367 15.3773 14.0742 15.3429 14.1926 15.3228 14.3024 15.3057 14.4121 15.2656 14.545 15.234 14.597 15.1825 14.6865 15.1796 14.7905 15.1825 17.7103 15.1825 19.3709 15.1911 20.7485 15.1997 20.7716 15.2083 20.7976 15.2598 20.8178 15.32 20.8236 15.3708 20.8279 15.472 20.8303 15.5954 20.831ZM16.3098 21.8926C16.612 21.8928 16.8964 21.8928 17.1526 21.8925 17.494 21.8921 17.7851 21.8912 18.0007 21.8898 19.4901 21.884 19.5732 21.8811 19.6964 21.8262 19.8711 21.7482 20 21.5663 20 21.4046 20 21.3093 19.9771 21.2515 19.9055 21.1562 19.7308 20.9251 20.1776 20.9454 15.0303 20.9454 12.1287 20.9482 10.37 20.9598 10.2898 20.9771 10.2067 20.9945 10.1523 21.0262 10.1322 21.0667 10.115 21.1013 10.0692 21.1562 10.0291 21.1851 9.97184 21.2342 9.96037 21.2688 9.96037 21.3988 9.96037 21.5374 9.97184 21.5663 10.0606 21.6558 10.115 21.7136 10.2067 21.7829 10.2611 21.8147 10.3585 21.8667 10.476 21.8695 13.3976 21.884 14.337 21.8889 15.4032 21.8919 16.3098 21.8926ZM8.88836 22.4733 10.3578 22.4675 10.4695 22.3924C10.6012 22.3058 10.6414 22.196 10.5812 22.0891 10.5497 22.0343 10.5153 22.0141 10.4552 22.0112 10.1716 22.0054 10.1258 21.9794 9.89375 21.6704 9.78204 21.5173 9.7763 21.2949 9.88228 21.1679 9.92239 21.1188 9.95391 21.0697 9.95391 21.0552 9.95391 21.0408 10.0055 20.9773 10.0713 20.9166 10.1802 20.8069 10.1945 20.8011 10.3635 20.8011 10.4609 20.8011 10.5583 20.7895 10.5783 20.778 10.5955 20.7635 10.6127 20.7029 10.6127 20.6423 10.6127 20.5469 10.5955 20.5181 10.4924 20.4343L10.3721 20.339 8.917 20.3303C7.96602 20.3246 7.42179 20.3332 7.35018 20.3534 7.28143 20.3708 7.20124 20.4227 7.14969 20.4834L7.06088 20.5874 7.06088 21.3816C7.06088 22.3173 7.06947 22.3549 7.32727 22.4444 7.39314 22.4675 7.86004 22.4762 8.88836 22.4733ZM8.64003 26.3671 9.39909 26.3671 9.48503 26.2747C9.53373 26.2227 9.61966 26.1447 9.67694 26.0985 9.82588 25.9859 9.94047 25.7779 9.93186 25.6306 9.92327 25.4285 9.8087 25.261 9.59387 25.1397 9.27879 24.9606 9.28166 24.8422 9.61966 24.539 9.76001 24.4148 9.84308 24.3137 9.8889 24.2097 9.96624 24.0393 9.96338 24.0018 9.84879 23.7794 9.78292 23.6523 9.74569 23.6177 9.60246 23.5483 9.46784 23.4848 9.42202 23.4444 9.3905 23.3693 9.36759 23.3144 9.35612 23.2422 9.36471 23.2076 9.38477 23.1354 9.51939 22.9881 9.70844 22.835 9.80583 22.7541 9.8402 22.705 9.83447 22.6617 9.82588 22.5982 9.82303 22.5982 8.95226 22.5895 8.09008 22.5837 8.07862 22.5837 8.02992 22.6444 8.00128 22.679 7.97837 22.7426 7.97837 22.7859 7.97837 22.8494 7.94112 22.8985 7.79218 23.0198 7.41696 23.326 7.33962 23.6234 7.56017 23.8978 7.64324 23.9989 7.70052 24.0364 7.82082 24.0711 7.94973 24.1086 7.97837 24.1317 8.00414 24.2068 8.04139 24.3166 8.04424 24.4205 8.00987 24.4841 7.99555 24.5101 7.89816 24.6054 7.79505 24.692 7.60027 24.8537 7.46278 25.0703 7.46278 25.2176 7.46278 25.414 7.69479 25.7028 7.85234 25.7028 7.88671 25.7028 7.944 25.7259 7.97837 25.7548 8.0643 25.8241 8.07289 26.1014 7.99269 26.1505 7.96405 26.1649 7.90675 26.2082 7.86666 26.2429 7.80364 26.2978 7.79791 26.3122 7.83514 26.3382 7.86093 26.3555 8.17887 26.3671 8.64003 26.3671ZM8.73818 31C8.80155 31.0004 8.86385 30.9902 8.94835 30.97 9.12308 30.9296 9.26056 30.8198 9.36941 30.6379 9.44961 30.5021 9.45248 30.4877 9.46107 30.0227L9.47254 29.5491 9.71887 29.3123 9.96806 29.0783 9.96806 28.8473C9.96806 28.6394 9.95947 28.6076 9.88499 28.5094 9.84203 28.4488 9.77042 28.3881 9.72746 28.3708 9.53268 28.2957 9.51262 28.2755 9.44675 28.0877 9.38659 27.9145 9.38659 27.8971 9.42957 27.8654 9.4668 27.8365 10.0826 27.8278 12.2424 27.822 13.7634 27.8192 15.0409 27.8192 15.081 27.822 15.207 27.8307 15.227 27.8971 15.2213 28.2928 15.2156 28.6394 15.2213 28.6625 15.2929 28.7895 15.3875 28.9513 15.4046 28.9657 15.5708 29.009 15.7455 29.0581 16.241 29.0408 16.3556 28.983 16.4014 28.9599 16.4816 28.882 16.5332 28.8155L16.6277 28.6885 16.622 25.4048C16.6134 22.2712 16.6105 22.1181 16.5619 22.0402 16.5217 21.9795 16.4988 21.968 16.4759 21.9911 16.4559 22.0113 16.2525 22.0228 15.8773 22.0228 15.313 22.0228 15.3101 22.0228 15.2672 22.0921 15.227 22.1499 15.2213 22.4214 15.2156 24.2842 15.2099 26.1874 15.2041 26.4156 15.164 26.456 15.1239 26.4993 14.5482 26.5022 8.85096 26.5022 4.22214 26.5051 2.57798 26.4964 2.55221 26.4704 2.52928 26.4473 2.51784 24.8647 2.50637 20.4835L2.49205 14.5283 2.42618 14.4215C2.38893 14.3608 2.34884 14.2338 2.33165 14.1269 2.31732 14.0258 2.28295 13.8987 2.25145 13.8439 2.22281 13.7919 2.18843 13.6879 2.17985 13.6157 2.14833 13.3905 2.12254 13.3731 1.79601 13.3645 1.44656 13.35 1.31767 13.402 1.1859 13.6099L1.10283 13.7457 1.10283 21.2113 1.10283 28.674 1.19164 28.8126C1.31194 29.0004 1.45515 29.0495 1.85616 29.035 2.19702 29.0235 2.27722 28.9917 2.41186 28.8155L2.50637 28.6885 2.50637 28.2957C2.50637 28.0791 2.51784 27.8827 2.52928 27.8625 2.5608 27.8134 7.68517 27.8076 7.77682 27.8567 7.85416 27.8971 7.8112 27.9838 7.6909 28.0271 7.62215 28.0502 7.58778 28.0935 7.53335 28.2177 7.44742 28.4141 7.44455 28.4748 7.51903 28.648 7.5849 28.7924 7.76824 28.9426 7.92003 28.9715 8.01743 28.9917 8.06326 29.0552 8.06326 29.1765 8.06326 29.2401 8.01457 29.3036 7.81693 29.4884 7.45028 29.8379 7.39873 29.9968 7.56199 30.2913 7.62501 30.404 7.66224 30.4328 7.85416 30.5166 8.01169 30.5859 8.11767 30.6581 8.23226 30.7736 8.35256 30.8949 8.42417 30.944 8.52156 30.9671 8.61036 30.9888 8.6748 30.9996 8.73818 31Z" fill-rule="evenodd" transform="matrix(1 0 0 -1 861 391)"/></g></svg>