<?xml version="1.0" standalone="no"?>
<!DOCTYPE svg PUBLIC "-//W3C//DTD SVG 20010904//EN"
 "http://www.w3.org/TR/2001/REC-SVG-20010904/DTD/svg10.dtd">
<svg version="1.0" xmlns="http://www.w3.org/2000/svg"
 width="70.000000pt" height="44.000000pt" viewBox="0 0 70.000000 44.000000"
 preserveAspectRatio="xMidYMid meet">

<g transform="translate(0.000000,44.000000) scale(0.100000,-0.100000)"
fill="#000000" stroke="none">
<path d="M375 405 c-36 -35 -34 -88 4 -126 37 -37 79 -38 120 -3 25 21 31 33
31 65 0 55 -34 89 -90 89 -30 0 -47 -6 -65 -25z"/>
<path d="M32 397 c-28 -29 -29 -87 -4 -110 21 -19 48 -22 57 -7 9 15 45 12 51
-3 6 -17 64 -10 64 7 0 7 -7 21 -15 32 -8 10 -15 28 -15 40 -1 58 -96 86 -138
41z m124 -38 c9 -15 -11 -33 -30 -26 -9 4 -13 13 -10 22 7 17 30 20 40 4z"/>
<path d="M83 244 c-17 -7 -17 -49 0 -61 6 -5 46 -10 87 -11 75 -2 190 -12 190
-16 0 -2 -6 -16 -14 -32 -8 -16 -17 -51 -20 -77 l-6 -48 108 3 107 3 3 43 c3
40 -21 136 -38 155 -8 9 -14 10 -125 26 -92 13 -277 22 -292 15z"/>
</g>
</svg>
