<?xml version="1.0" standalone="no"?>
<!DOCTYPE svg PUBLIC "-//W3C//DTD SVG 20010904//EN"
 "http://www.w3.org/TR/2001/REC-SVG-20010904/DTD/svg10.dtd">
<svg version="1.0" xmlns="http://www.w3.org/2000/svg"
 width="475.000000pt" height="121.000000pt" viewBox="0 0 475.000000 121.000000"
 preserveAspectRatio="xMidYMid meet">

<g transform="translate(0.000000,121.000000) scale(0.100000,-0.100000)"
fill="#000000" stroke="none">
<path d="M0 1175 c0 -24 2 -25 75 -25 63 0 76 -3 85 -19 15 -30 14 -1043 -2
-1059 -7 -7 -42 -12 -86 -12 l-73 0 3 -27 3 -28 240 0 240 0 3 28 3 27 -75 0
c-64 0 -77 3 -86 19 -6 13 -10 197 -10 530 0 450 2 511 16 525 11 12 35 16 85
16 67 0 69 1 69 25 l0 25 -245 0 -245 0 0 -25z"/>
<path d="M1016 672 c-103 -290 -197 -541 -209 -556 -25 -35 -73 -56 -127 -56
-38 0 -40 -2 -40 -30 l0 -30 228 2 227 3 3 28 c3 27 2 27 -52 27 -30 0 -66 5
-80 11 -29 14 -48 60 -40 98 13 62 249 750 255 743 3 -4 68 -186 143 -406 130
-378 136 -400 121 -422 -14 -21 -23 -24 -85 -24 l-70 0 0 -30 0 -30 258 2 257
3 3 28 3 27 -65 0 c-110 0 -103 -12 -266 465 -241 705 -229 675 -254 675 -19
0 -40 -54 -210 -528z"/>
<path d="M1950 1175 c0 -24 2 -25 68 -25 40 0 73 -5 80 -12 9 -9 12 -142 12
-539 0 -471 -2 -528 -16 -533 -9 -3 -45 -6 -80 -6 l-64 0 0 -30 0 -30 243 2
242 3 3 28 3 27 -73 0 c-44 0 -79 5 -86 12 -17 17 -17 1049 0 1066 7 7 42 12
85 12 71 0 73 1 73 25 l0 25 -245 0 -245 0 0 -25z"/>
<path d="M3132 1148 c-11 -29 -95 -266 -188 -527 -197 -553 -196 -551 -303
-559 -60 -4 -62 -5 -59 -31 l3 -26 228 -3 227 -2 0 30 c0 30 0 30 -58 30 -122
0 -137 54 -70 242 l21 58 192 0 c174 0 194 -2 200 -17 25 -63 75 -221 75 -240
0 -31 -28 -43 -105 -43 l-66 0 3 -27 3 -28 258 -3 257 -2 0 30 c0 30 0 30 -55
30 -74 0 -112 21 -134 73 -9 23 -96 273 -192 554 -158 467 -176 513 -196 513
-17 0 -26 -11 -41 -52z m82 -481 l84 -247 -169 0 c-93 0 -169 3 -169 7 0 14
162 494 166 491 1 -2 41 -115 88 -251z"/>
<path d="M3930 1178 c0 -12 80 -143 178 -292 98 -149 187 -283 196 -298 l18
-27 -212 -251 c-175 -208 -211 -256 -208 -278 l3 -27 423 -3 422 -2 0 230 c0
126 -3 230 -8 230 -4 0 -14 -39 -23 -88 -20 -105 -53 -185 -85 -207 -20 -13
-63 -15 -302 -13 l-279 3 198 235 c109 129 199 239 199 243 0 4 -72 121 -160
260 l-161 252 181 3 c159 2 186 0 223 -16 95 -43 147 -118 168 -248 11 -60 16
-74 31 -74 17 0 18 14 18 195 l0 195 -410 0 -410 0 0 -22z"/>
</g>
</svg>
