<?xml version="1.0" standalone="no"?>
<!DOCTYPE svg PUBLIC "-//W3C//DTD SVG 20010904//EN"
 "http://www.w3.org/TR/2001/REC-SVG-20010904/DTD/svg10.dtd">
<svg version="1.0" xmlns="http://www.w3.org/2000/svg"
 width="426.000000pt" height="243.000000pt" viewBox="0 0 426.000000 243.000000"
 preserveAspectRatio="xMidYMid meet">

<g transform="translate(0.000000,243.000000) scale(0.100000,-0.100000)"
fill="#000000" stroke="none">
<path d="M1850 2411 c0 -6 -7 -11 -15 -11 -14 0 -19 -12 -16 -32 2 -12 -104
-9 -115 2 -7 7 -10 4 -10 -12 1 -16 -4 -22 -15 -20 -8 1 -24 -6 -35 -15 -25
-23 -61 -43 -74 -43 -5 0 -13 18 -16 40 -4 22 -12 44 -18 50 -9 7 -11 2 -8
-20 4 -29 3 -30 -36 -30 -35 0 -39 -2 -35 -20 3 -11 9 -20 14 -20 19 0 8 -28
-13 -34 -35 -9 -38 -8 -38 14 0 31 -47 27 -62 -5 -13 -29 -25 -31 -48 -10 -15
14 -19 14 -30 1 -10 -13 -8 -22 9 -49 32 -52 1 -67 -42 -21 l-24 26 -7 -36
c-4 -22 -13 -36 -22 -36 -8 0 -25 -12 -38 -26 -20 -24 -24 -25 -44 -13 -12 8
-22 19 -22 26 0 18 -19 16 -27 -2 -3 -9 2 -24 11 -34 9 -10 16 -23 16 -30 0
-22 -32 -61 -51 -61 -11 0 -19 -5 -19 -10 0 -6 -15 -8 -40 -4 -44 7 -43 9 -40
-73 2 -44 -6 -52 -29 -30 -11 10 -13 9 -8 -6 9 -24 -13 -57 -38 -58 -11 0 -14
-3 -7 -6 17 -7 15 -32 -3 -39 -8 -4 -15 -12 -15 -19 0 -23 -42 -30 -57 -9 -12
17 -13 17 -13 -3 0 -12 -8 -23 -19 -26 -11 -3 -22 -17 -26 -36 -5 -22 -12 -31
-26 -31 -10 0 -19 -7 -19 -15 0 -8 -5 -15 -11 -15 -6 0 -16 -6 -24 -13 -11
-11 -8 -16 20 -26 25 -9 32 -16 28 -30 -2 -10 -12 -18 -21 -18 -41 0 -52 -4
-52 -18 0 -22 -40 -19 -41 3 0 13 -2 13 -9 -5 -5 -12 -15 -25 -22 -30 -7 -4
-18 -21 -23 -38 -8 -22 -20 -32 -47 -40 -27 -8 -49 -27 -90 -80 -87 -111 -132
-187 -130 -218 2 -22 -2 -27 -21 -27 -15 0 -46 -24 -91 -69 l-68 -68 -1 -106
c-1 -58 -4 -102 -7 -98 -3 5 -14 -2 -26 -14 -40 -41 13 -108 93 -119 27 -3 79
-17 113 -31 62 -24 65 -25 107 -9 31 12 63 15 118 12 70 -5 81 -9 143 -50 55
-37 78 -47 127 -51 40 -4 83 -18 134 -44 65 -33 79 -44 101 -86 22 -43 33 -52
85 -73 43 -17 73 -38 107 -75 l46 -51 152 41 c132 35 166 41 255 41 131 0 213
-24 282 -81 l48 -41 220 7 c216 7 222 6 305 -18 47 -14 111 -37 143 -51 32
-14 66 -26 77 -26 11 0 76 28 145 62 l125 63 0 52 c0 44 -4 55 -23 68 -21 13
-24 23 -25 90 0 67 2 75 18 75 10 0 21 -6 23 -12 3 -7 3 1 0 18 -3 22 -1 33
11 37 13 5 15 24 13 117 -1 62 2 110 7 110 5 0 2 8 -7 18 -22 24 -22 42 1 42
14 0 17 11 19 68 2 37 10 91 20 120 15 50 18 53 42 47 14 -4 47 -8 73 -9 27
-2 56 -10 66 -19 24 -22 39 -21 87 3 22 11 51 20 65 20 56 -1 146 -31 195 -64
72 -50 87 -72 207 -309 26 -50 32 -57 51 -51 42 13 48 8 90 -71 41 -79 43 -80
92 -92 28 -6 69 -17 93 -24 36 -10 49 -9 86 5 29 11 46 24 50 39 3 12 11 93
17 180 l11 158 -38 104 c-38 101 -39 103 -66 98 -24 -5 -28 -2 -28 18 0 13 -7
33 -15 43 -8 11 -15 33 -15 49 0 16 -8 41 -17 55 -37 56 -44 68 -49 85 -4 9
-10 17 -15 17 -4 0 -11 15 -15 34 -6 35 -34 59 -34 30 0 -22 -34 -13 -38 10
-2 10 2 23 10 28 10 7 10 11 1 15 -7 2 -13 14 -13 24 0 11 -4 17 -10 14 -6 -4
-10 5 -10 19 0 14 -5 26 -11 26 -14 0 -39 25 -39 39 0 6 -4 11 -10 11 -5 0
-10 6 -10 14 0 8 -13 24 -30 37 -16 13 -30 30 -30 37 0 6 -4 12 -8 12 -5 0
-14 16 -22 35 -8 19 -17 35 -21 35 -12 0 -61 51 -55 58 7 6 -35 82 -46 82 -4
0 -8 6 -8 14 0 8 -7 16 -15 20 -17 6 -21 46 -5 46 6 0 10 16 10 35 0 32 -2 35
-30 35 -16 0 -30 5 -30 10 0 6 -9 10 -20 10 -11 0 -20 7 -20 15 0 8 -7 15 -15
15 -8 0 -15 -4 -15 -10 0 -5 -6 -10 -14 -10 -8 0 -16 -7 -20 -15 -3 -8 -15
-15 -26 -15 -15 0 -20 7 -20 24 0 13 6 26 13 29 9 3 8 9 -5 23 -9 10 -18 30
-20 44 -4 35 -20 31 -30 -7 -9 -36 -38 -45 -38 -13 0 11 -7 20 -15 20 -8 0
-15 -5 -15 -10 0 -6 -19 -10 -45 -8 -37 3 -45 6 -45 23 0 28 -32 115 -43 115
-12 0 -37 -26 -37 -39 0 -6 -9 -11 -20 -11 -11 0 -20 6 -20 14 0 7 -16 26 -35
40 -19 15 -35 22 -35 17 0 -6 -9 -11 -20 -11 -11 0 -20 7 -20 16 0 8 -4 13
-10 9 -5 -3 -7 -12 -4 -19 9 -24 -25 -28 -96 -11 -35 8 -59 29 -60 53 0 6 7
12 15 12 8 0 15 7 15 15 0 8 5 15 10 15 6 0 10 7 10 15 0 24 -35 17 -50 -10
-7 -14 -17 -25 -22 -25 -4 0 -8 -9 -8 -21 0 -14 -5 -19 -17 -17 -12 2 -20 16
-24 43 -3 22 -7 33 -8 24 0 -10 -14 -19 -32 -23 -50 -10 -59 -7 -59 17 0 29
-19 57 -27 40 -2 -7 -13 -13 -24 -13 -11 0 -22 -7 -25 -15 -4 -8 -17 -15 -31
-15 -23 0 -25 3 -19 35 4 22 3 35 -4 35 -5 0 -10 -9 -10 -20 0 -22 -25 -28
-33 -7 -4 7 -8 3 -12 -10 -4 -13 -13 -23 -20 -23 -19 0 -29 38 -14 56 9 11 9
18 1 26 -9 9 -12 9 -12 0 0 -7 -11 -12 -25 -12 -19 0 -25 -5 -25 -21 0 -15 -4
-19 -16 -15 -9 3 -20 6 -25 6 -14 0 -11 28 4 33 8 4 7 6 -4 6 -8 1 -20 -4 -26
-10 -16 -16 -43 -3 -43 21 0 11 -4 20 -10 20 -5 0 -10 -7 -10 -15 0 -8 -7 -15
-15 -15 -9 0 -15 9 -15 23 0 12 -4 17 -8 12 -4 -6 -19 -16 -34 -24 -14 -7 -29
-22 -31 -32 -3 -11 -14 -19 -26 -19 -16 0 -21 6 -21 25 0 27 -14 33 -27 12 -9
-14 -57 -37 -78 -37 -22 0 -18 27 6 44 13 9 19 21 16 30 -8 20 -27 21 -27 1 0
-8 -4 -15 -10 -15 -5 0 -10 -7 -10 -15 0 -8 -9 -15 -19 -15 -15 0 -21 8 -23
32 -2 22 -9 34 -20 36 -10 2 -18 -1 -18 -7z"/>
<path d="M2935 2260 c-3 -6 1 -10 9 -10 9 0 16 -7 16 -15 0 -8 5 -15 10 -15
17 0 11 25 -10 37 -12 8 -21 9 -25 3z"/>
<path d="M3271 2074 c0 -11 3 -14 6 -6 3 7 2 16 -1 19 -3 4 -6 -2 -5 -13z"/>
<path d="M607 1573 c-4 -3 -7 -11 -7 -17 0 -6 5 -5 12 2 6 6 9 14 7 17 -3 3
-9 2 -12 -2z"/>
</g>
</svg>
