<svg width="30" height="31" xmlns="http://www.w3.org/2000/svg" xmlns:xlink="http://www.w3.org/1999/xlink" overflow="hidden"><defs><clipPath id="clip0"><rect x="994" y="154" width="30" height="31"/></clipPath></defs><g clip-path="url(#clip0)" transform="translate(-994 -154)"><path d="M1008.89 164.369C1008.36 164.369 1007.88 164.5 1007.45 164.761 1007.03 165.022 1006.66 165.36 1006.34 165.774 1006.03 166.189 1005.76 166.657 1005.54 167.18 1005.32 167.702 1005.14 168.238 1005.01 168.786 1004.87 169.334 1004.77 169.866 1004.71 170.382 1004.66 170.899 1004.63 171.354 1004.63 171.75 1004.63 172.693 1004.8 173.419 1005.13 173.929 1005.46 174.439 1006.02 174.694 1006.81 174.694 1007.12 174.694 1007.42 174.64 1007.74 174.532 1008.05 174.423 1008.38 174.258 1008.74 174.034 1009.09 173.811 1009.46 173.518 1009.86 173.155 1010.25 172.792 1010.69 172.361 1011.17 171.864L1012.07 166.893C1011.59 166.077 1011.1 165.452 1010.6 165.019 1010.1 164.586 1009.53 164.369 1008.89 164.369ZM1011.04 155C1013.1 155 1014.88 155.252 1016.38 155.755 1017.88 156.259 1019.12 156.969 1020.1 157.887 1021.08 158.805 1021.81 159.923 1022.28 161.243 1022.76 162.562 1023 164.031 1023 165.65 1023 166.517 1022.95 167.403 1022.84 168.308 1022.73 169.213 1022.56 170.092 1022.32 170.947 1022.08 171.8 1021.77 172.607 1021.38 173.365 1020.99 174.124 1020.51 174.79 1019.95 175.363 1019.38 175.937 1018.73 176.386 1017.98 176.711 1017.23 177.036 1016.37 177.199 1015.41 177.199 1014.89 177.199 1014.41 177.138 1013.97 177.017 1013.53 176.896 1013.15 176.721 1012.81 176.491 1012.47 176.262 1012.18 175.966 1011.95 175.602 1011.72 175.239 1011.56 174.822 1011.47 174.35 1010.97 174.86 1010.48 175.296 1010.01 175.66 1009.54 176.023 1009.08 176.319 1008.62 176.549 1008.17 176.778 1007.73 176.944 1007.29 177.046 1006.86 177.148 1006.44 177.199 1006.02 177.199 1005.48 177.199 1005.01 177.145 1004.59 177.036 1004.18 176.928 1003.81 176.769 1003.49 176.558 1003.17 176.348 1002.9 176.09 1002.67 175.784 1002.44 175.478 1002.25 175.134 1002.1 174.751 1001.95 174.369 1001.85 173.948 1001.78 173.489 1001.72 173.031 1001.69 172.533 1001.69 171.998 1001.69 171.45 1001.73 170.822 1001.82 170.115 1001.91 169.407 1002.05 168.677 1002.25 167.925 1002.46 167.173 1002.73 166.437 1003.08 165.717 1003.44 164.997 1003.87 164.353 1004.39 163.786 1004.91 163.219 1005.53 162.76 1006.25 162.409 1006.97 162.059 1007.8 161.883 1008.76 161.883 1009.16 161.883 1009.54 161.931 1009.91 162.027 1010.28 162.122 1010.64 162.272 1010.98 162.476 1011.32 162.68 1011.64 162.935 1011.96 163.241 1012.27 163.547 1012.59 163.91 1012.92 164.331L1013.24 162.648C1013.29 162.47 1013.4 162.336 1013.58 162.247 1013.75 162.157 1014.08 162.113 1014.56 162.113 1014.78 162.113 1014.98 162.126 1015.13 162.151 1015.29 162.177 1015.41 162.211 1015.5 162.256 1015.59 162.301 1015.65 162.355 1015.68 162.419 1015.71 162.482 1015.71 162.559 1015.69 162.648L1014.01 171.444C1013.81 172.553 1013.86 173.372 1014.16 173.901 1014.46 174.43 1015.04 174.694 1015.88 174.694 1016.39 174.694 1016.86 174.563 1017.27 174.302 1017.69 174.041 1018.05 173.687 1018.36 173.241 1018.68 172.795 1018.94 172.275 1019.16 171.683 1019.37 171.09 1019.55 170.465 1019.68 169.809 1019.82 169.152 1019.92 168.48 1019.99 167.792 1020.05 167.103 1020.08 166.44 1020.08 165.803 1020.08 164.694 1019.93 163.639 1019.64 162.639 1019.34 161.638 1018.84 160.758 1018.12 160 1017.4 159.242 1016.45 158.636 1015.25 158.183 1014.05 157.731 1012.54 157.505 1010.73 157.505 1009.25 157.505 1007.93 157.67 1006.78 158.002 1005.62 158.333 1004.6 158.783 1003.72 159.35 1002.84 159.917 1002.09 160.57 1001.46 161.31 1000.84 162.049 1000.3 162.836 999.871 163.671 999.437 164.506 999.089 165.36 998.825 166.233 998.561 167.106 998.36 167.948 998.222 168.757 998.084 169.567 997.993 170.328 997.949 171.042 997.905 171.756 997.883 172.361 997.883 172.859 997.883 174.273 998.043 175.567 998.364 176.74 998.684 177.913 999.24 178.926 1000.03 179.78 1000.82 180.634 1001.88 181.297 1003.22 181.769 1004.55 182.24 1006.22 182.476 1008.25 182.476 1009.16 182.476 1009.99 182.422 1010.73 182.314 1011.47 182.205 1012.12 182.09 1012.66 181.969 1013.21 181.848 1013.65 181.734 1013.99 181.625 1014.33 181.517 1014.56 181.463 1014.69 181.463 1014.77 181.463 1014.83 181.485 1014.89 181.53 1014.94 181.574 1014.99 181.644 1015.02 181.74 1015.05 181.836 1015.07 181.957 1015.09 182.103 1015.1 182.25 1015.11 182.432 1015.11 182.648 1015.11 182.827 1015.1 182.973 1015.1 183.088 1015.09 183.203 1015.07 183.308 1015.05 183.404 1015.02 183.499 1014.99 183.585 1014.94 183.662 1014.9 183.738 1014.84 183.808 1014.77 183.872 1014.69 183.936 1014.47 184.031 1014.12 184.159 1013.76 184.286 1013.27 184.414 1012.66 184.541 1012.06 184.669 1011.34 184.777 1010.53 184.866 1009.71 184.955 1008.81 185 1007.83 185 1005.48 185 1003.49 184.72 1001.87 184.159 1000.24 183.598 998.916 182.795 997.892 181.75 996.869 180.704 996.131 179.449 995.678 177.983 995.226 176.517 995 174.879 995 173.069 995 172.406 995.035 171.644 995.104 170.784 995.173 169.924 995.305 169.006 995.499 168.031 995.694 167.055 995.967 166.061 996.319 165.048 996.671 164.034 997.126 163.043 997.685 162.074 998.244 161.106 998.922 160.191 999.72 159.331 1000.52 158.47 1001.46 157.718 1002.55 157.074 1003.63 156.431 1004.88 155.924 1006.28 155.554 1007.68 155.185 1009.26 155 1011.04 155Z" fill-rule="evenodd"/></g></svg>