<?xml version="1.0" standalone="no"?>
<!DOCTYPE svg PUBLIC "-//W3C//DTD SVG 20010904//EN"
 "http://www.w3.org/TR/2001/REC-SVG-20010904/DTD/svg10.dtd">
<svg version="1.0" xmlns="http://www.w3.org/2000/svg"
 width="935.000000pt" height="463.000000pt" viewBox="0 0 935.000000 463.000000"
 preserveAspectRatio="xMidYMid meet">

<g transform="translate(0.000000,463.000000) scale(0.100000,-0.100000)"
fill="#000000" stroke="none">
<path d="M4370 4620 c-387 -31 -803 -113 -1145 -225 -235 -77 -375 -134 -610
-250 -490 -241 -851 -500 -1240 -890 -171 -170 -309 -325 -420 -470 -9 -11
-27 -33 -41 -50 -38 -47 -206 -300 -268 -405 -312 -527 -528 -1164 -602 -1769
-8 -69 -19 -153 -24 -186 -5 -33 -12 -131 -16 -217 l-7 -158 1826 0 1827 0 0
649 c0 582 2 649 16 655 9 3 152 6 319 6 291 0 305 -1 315 -19 6 -13 10 -236
10 -655 l0 -636 256 0 256 0 -31 35 c-42 49 -68 103 -93 193 -18 67 -21 114
-25 365 -6 341 4 317 -135 317 l-88 0 0 194 c0 168 2 195 16 200 9 3 56 6 104
6 55 0 91 4 96 11 4 6 6 50 5 98 -2 102 2 116 37 130 65 25 581 181 600 181
22 0 22 -1 22 -198 0 -141 3 -201 12 -210 8 -8 54 -12 139 -12 100 0 129 -3
139 -15 9 -11 10 -59 5 -199 l-7 -184 -133 -4 c-74 -2 -137 -7 -142 -11 -4 -5
-8 -111 -8 -235 0 -258 5 -280 79 -316 35 -17 46 -18 114 -7 42 6 79 8 84 3 4
-4 11 -82 16 -173 l7 -164 215 -3 215 -2 -50 34 c-112 75 -187 182 -235 331
-34 106 -40 328 -11 447 61 256 235 419 525 493 83 21 122 25 248 25 227 0
354 -33 484 -125 109 -78 178 -188 221 -354 21 -80 26 -121 27 -246 l1 -150
-435 -3 c-239 -1 -438 -6 -443 -11 -14 -14 10 -74 41 -103 63 -59 165 -88 312
-88 110 0 245 19 330 46 120 38 120 38 120 -84 0 -42 3 -107 7 -144 l6 -68
124 0 125 0 -8 638 c-6 563 -5 639 8 650 12 9 85 12 314 10 l299 -3 5 -118 5
-118 52 75 c59 84 135 147 214 177 67 26 195 35 229 17 l25 -13 -4 -155 c-2
-85 -6 -206 -10 -269 l-6 -115 -120 0 c-105 -1 -125 -4 -162 -24 -102 -54
-155 -133 -173 -257 -5 -38 -10 -166 -10 -282 l0 -213 595 0 595 0 0 93 c0
113 -15 320 -36 482 -79 620 -294 1242 -616 1780 -87 144 -234 363 -267 396
-9 9 -23 26 -31 39 -8 12 -24 32 -35 45 -11 13 -36 42 -55 66 -520 640 -1217
1141 -1990 1429 -346 129 -652 204 -1065 261 -187 25 -260 31 -480 34 -143 2
-307 0 -365 -5z m-70 -2759 c16 -31 13 -366 -4 -380 -9 -8 -104 -11 -327 -9
l-314 3 -3 190 c-1 104 0 195 2 202 4 10 74 13 320 13 301 0 316 -1 326 -19z"/>
<path d="M6484 980 c-54 -21 -98 -113 -92 -188 l3 -37 155 0 155 0 -3 50 c-5
70 -43 150 -81 169 -32 17 -103 20 -137 6z"/>
</g>
</svg>
