<?xml version="1.0" standalone="no"?>
<!DOCTYPE svg PUBLIC "-//W3C//DTD SVG 20010904//EN"
 "http://www.w3.org/TR/2001/REC-SVG-20010904/DTD/svg10.dtd">
<svg version="1.0" xmlns="http://www.w3.org/2000/svg"
 width="751.000000pt" height="530.000000pt" viewBox="0 0 751.000000 530.000000"
 preserveAspectRatio="xMidYMid meet">

<g transform="translate(0.000000,530.000000) scale(0.100000,-0.100000)"
fill="#000000" stroke="none">
<path d="M3695 5270 c-3 -5 -16 -10 -29 -10 -12 0 -26 -4 -31 -9 -6 -5 -30
-11 -55 -14 -25 -3 -65 -11 -90 -17 -46 -12 -140 -26 -240 -36 -30 -3 -59 -10
-64 -15 -6 -5 -20 -9 -32 -9 -13 0 -26 -4 -29 -10 -3 -5 -17 -10 -30 -10 -13
0 -27 -4 -30 -10 -3 -5 -16 -10 -28 -10 -12 0 -44 -11 -71 -25 -27 -14 -62
-25 -77 -25 -15 0 -31 -4 -34 -10 -3 -5 -17 -10 -30 -10 -13 0 -27 -4 -30 -10
-3 -5 -26 -10 -50 -10 -24 0 -47 -4 -50 -10 -3 -5 -19 -10 -36 -10 -16 0 -29
-4 -29 -10 0 -5 -7 -10 -15 -10 -8 0 -30 -9 -50 -20 -20 -11 -53 -20 -75 -20
-21 0 -42 -4 -45 -10 -3 -5 -17 -10 -30 -10 -13 0 -27 -4 -30 -10 -3 -5 -15
-10 -25 -10 -11 0 -35 -9 -55 -20 -20 -11 -43 -20 -53 -20 -9 0 -32 -9 -50
-20 -18 -11 -39 -20 -47 -20 -8 0 -15 -4 -15 -9 0 -5 -11 -8 -26 -8 -14 0 -35
-10 -48 -22 -12 -11 -27 -21 -33 -21 -6 0 -16 -7 -23 -15 -18 -21 -64 -41
-142 -60 -57 -13 -92 -14 -226 -7 -141 9 -163 12 -198 34 -56 35 -119 55 -204
67 -41 6 -132 20 -201 30 -69 10 -138 17 -152 14 -15 -3 -34 0 -42 7 -9 8 -52
12 -117 13 -93 0 -108 -2 -158 -28 -30 -15 -57 -30 -60 -34 -3 -3 -16 -12 -30
-19 -68 -35 -87 -49 -161 -120 -98 -94 -119 -126 -119 -185 0 -52 -13 -80 -58
-125 -39 -37 -38 -57 5 -152 22 -48 24 -64 19 -123 -3 -38 -11 -77 -16 -87 -6
-10 -10 -36 -10 -57 0 -31 -7 -46 -30 -68 -17 -16 -30 -34 -30 -40 0 -6 -11
-22 -25 -35 -28 -26 -33 -76 -13 -113 7 -13 11 -55 10 -99 -1 -83 13 -133 49
-169 11 -11 27 -18 35 -15 18 7 47 -7 87 -40 15 -13 47 -28 70 -34 23 -6 50
-15 59 -20 23 -13 68 -13 68 0 0 6 9 10 20 10 11 0 20 -7 20 -15 0 -21 24 -19
45 5 22 24 75 27 75 4 0 -10 17 0 52 30 30 26 63 46 75 46 13 0 31 4 41 8 111
54 109 54 205 54 85 0 96 2 100 19 4 15 14 19 44 19 22 0 65 5 96 11 51 11 60
10 77 -6 11 -10 20 -24 20 -31 0 -16 147 -162 220 -218 30 -24 60 -41 67 -39
7 2 31 -13 55 -35 24 -22 52 -42 63 -46 12 -3 66 -49 120 -102 55 -52 107 -98
117 -102 9 -4 61 -50 115 -102 54 -52 145 -137 201 -188 84 -77 102 -99 102
-122 0 -16 -4 -32 -10 -35 -5 -3 -10 -15 -10 -26 0 -10 -4 -27 -9 -37 -17 -34
-44 -103 -61 -157 -6 -22 -25 -68 -41 -102 -16 -34 -29 -67 -29 -73 0 -5 -4
-18 -9 -28 -5 -9 -13 -28 -18 -42 -6 -14 -20 -45 -32 -68 -11 -24 -21 -48 -21
-53 0 -5 -13 -38 -30 -74 -16 -36 -30 -70 -30 -76 0 -6 -16 -43 -35 -82 -19
-39 -35 -75 -35 -80 0 -6 -20 -51 -44 -101 -24 -50 -52 -109 -62 -131 -31 -69
-90 -147 -166 -221 -70 -69 -112 -94 -258 -158 -19 -9 -63 -35 -96 -60 -58
-42 -65 -44 -125 -44 -35 1 -93 -4 -129 -10 -145 -25 -228 -33 -263 -27 -26 5
-47 2 -71 -9 -32 -15 -66 -46 -51 -46 14 0 -19 -32 -43 -41 -19 -7 -23 -15
-20 -41 2 -27 8 -34 29 -36 14 -2 42 -20 62 -40 l35 -37 4 -112 c4 -149 3
-148 151 -148 102 0 115 -2 142 -23 36 -29 52 -51 57 -81 2 -19 20 -33 78 -62
41 -21 76 -43 78 -49 2 -5 10 -10 17 -10 8 0 21 -8 30 -17 26 -26 588 -20 800
8 309 41 332 43 369 25 19 -9 43 -28 53 -42 l19 -25 134 11 c229 18 253 20
310 29 30 5 58 7 62 5 4 -2 68 0 143 6 96 7 197 7 338 0 144 -8 242 -8 347 0
80 6 177 12 215 14 39 3 124 12 190 21 66 9 158 20 205 25 47 4 144 15 215 24
72 9 171 21 221 27 50 6 204 12 341 13 238 1 253 0 275 -19 21 -19 37 -20 218
-19 107 1 276 6 375 12 99 6 241 12 316 12 114 0 142 3 177 20 22 11 49 20 58
20 25 0 93 20 141 41 24 11 52 19 63 19 21 0 105 54 151 96 14 13 28 24 32 24
14 0 132 98 172 142 56 62 95 124 95 151 0 32 24 77 55 107 21 20 25 32 25 82
0 32 4 58 10 58 6 0 10 18 10 40 l0 40 -58 0 c-32 0 -61 -3 -65 -6 -7 -7 -195
-5 -347 4 -115 7 -115 7 -113 32 1 14 7 39 14 55 7 17 11 37 10 46 -1 8 8 24
19 34 20 18 27 63 12 80 -5 6 -15 30 -22 55 -8 25 -27 67 -43 95 -18 30 -25
51 -18 53 16 5 13 29 -4 36 -8 3 -15 14 -15 25 0 11 -8 27 -17 36 -13 13 -16
34 -15 88 0 38 6 75 12 81 16 16 12 25 -31 65 -38 35 -40 39 -28 60 13 21 10
26 -54 87 -38 35 -66 67 -63 72 3 5 -8 22 -24 37 -17 16 -30 38 -30 50 0 22
-27 51 -95 100 -64 48 -95 81 -95 103 0 21 -43 72 -60 72 -12 0 -22 34 -15 52
7 17 -73 98 -156 157 -30 21 -68 57 -83 79 -15 22 -34 43 -41 46 -17 6 -114
136 -139 185 -19 36 -21 27 29 191 8 25 17 77 21 115 5 56 12 76 33 100 45 50
57 81 43 117 -10 27 -9 31 9 35 14 4 19 13 18 37 -2 51 49 258 69 278 7 7 12
20 12 29 0 10 9 21 20 24 21 7 27 30 10 40 -17 10 -11 61 10 88 11 14 20 35
20 46 0 14 6 21 20 21 17 0 20 7 20 44 0 30 5 46 15 50 9 3 15 18 15 38 0 18
7 46 15 62 18 35 19 50 3 76 -11 17 -9 27 10 63 12 23 27 67 32 97 13 75 29
128 41 135 12 8 1 73 -18 104 -19 30 -59 77 -99 116 -61 60 -206 180 -214 178
-5 -2 -21 8 -36 22 -29 27 -80 55 -99 55 -6 0 -30 9 -53 20 -22 11 -48 20 -57
20 -9 0 -25 5 -36 11 -11 6 -34 11 -50 11 -16 1 -32 5 -35 10 -3 4 -18 8 -34
8 -31 0 -111 17 -145 31 -11 4 -103 18 -204 30 -136 16 -194 19 -226 12 -29
-7 -66 -5 -126 4 -46 8 -169 18 -274 23 -104 5 -233 14 -285 21 -100 13 -453
15 -578 4 -49 -4 -77 -3 -87 5 -9 7 -15 8 -20 0z m70 -2288 c28 -5 73 -19 101
-31 48 -21 53 -26 69 -76 9 -30 24 -65 34 -77 24 -32 74 -143 76 -170 0 -3 10
-18 23 -32 12 -15 22 -31 22 -36 0 -6 5 -10 10 -10 6 0 10 -6 10 -13 0 -21 45
-106 74 -138 14 -16 26 -32 26 -35 0 -3 16 -22 35 -41 19 -19 32 -39 29 -44
-3 -5 2 -12 10 -15 9 -3 16 -12 16 -19 0 -20 40 -85 52 -85 6 0 8 -6 5 -14 -3
-7 6 -25 19 -39 13 -14 24 -29 24 -32 0 -14 47 -74 53 -68 4 3 7 0 7 -8 0 -9
9 -25 20 -37 11 -12 20 -26 20 -31 0 -6 7 -7 17 -4 11 4 14 3 9 -6 -5 -7 0
-22 11 -34 30 -35 58 -79 74 -114 7 -18 17 -33 21 -33 5 0 8 -4 8 -8 0 -5 17
-27 39 -50 21 -22 45 -54 52 -71 8 -17 17 -31 21 -31 5 0 8 -5 8 -11 0 -6 13
-29 28 -52 35 -53 52 -92 52 -121 0 -27 -40 -65 -100 -96 -25 -12 -53 -26 -62
-31 -10 -5 -25 -9 -33 -9 -8 0 -23 -4 -33 -9 -32 -17 -131 -43 -141 -37 -5 4
-26 -3 -46 -14 -19 -11 -42 -20 -50 -20 -8 0 -18 -6 -22 -14 -12 -20 -55 -41
-88 -42 -41 -2 -137 -31 -145 -44 -6 -10 -212 1 -297 15 -36 6 -59 35 -41 53
16 16 16 239 -1 282 -20 53 -32 83 -42 102 -5 10 -9 38 -9 62 0 25 -4 47 -9
50 -15 10 -34 125 -50 316 -5 63 -12 127 -16 142 -5 20 -1 34 13 53 18 22 19
31 10 57 -7 21 -8 36 -1 47 5 9 11 52 11 95 1 43 7 85 13 92 8 9 7 23 -2 49
-11 28 -11 40 -1 55 9 15 9 26 1 47 -6 16 -15 37 -19 48 -5 11 -11 44 -15 73
-5 46 -4 52 13 52 10 0 21 3 25 6 6 6 -8 37 -32 66 -8 10 -11 27 -7 43 4 14 3
25 -2 25 -4 0 -13 14 -20 32 -16 42 0 62 42 54 17 -3 54 -9 81 -14z m1221
-486 c3 -8 33 -34 67 -60 34 -25 75 -57 91 -71 16 -14 32 -25 36 -25 3 0 58
-50 121 -112 63 -61 176 -158 252 -214 136 -101 201 -154 301 -244 70 -63 114
-94 166 -118 25 -11 62 -37 84 -56 21 -20 44 -36 50 -36 14 0 106 -87 106
-100 0 -5 15 -27 34 -47 67 -75 95 -156 64 -180 -7 -5 -74 -10 -148 -11 -128
-3 -223 -16 -244 -34 -6 -4 -19 -8 -30 -8 -12 0 -47 -16 -79 -35 -32 -19 -66
-35 -75 -35 -9 0 -35 -7 -57 -14 -43 -15 -384 -23 -462 -11 -59 10 -71 28 -36
53 19 13 32 36 41 68 8 27 18 58 24 70 21 45 -8 269 -38 291 -14 10 -18 25
-17 56 2 49 -25 113 -70 169 -27 34 -32 48 -32 98 0 38 -6 65 -16 77 -17 20
-72 134 -84 173 -4 14 -16 40 -27 57 -11 18 -17 37 -14 42 4 5 2 12 -4 16 -5
3 -10 15 -10 26 0 16 4 19 23 14 17 -6 13 1 -17 28 -21 19 -36 41 -34 48 3 8
-1 29 -8 48 -13 30 -12 36 2 53 10 10 14 18 10 18 -4 0 -4 5 -1 10 9 14 25 12
31 -4z m-1978 -25 c20 -12 42 -60 42 -90 0 -23 22 -103 81 -287 10 -34 19 -70
19 -81 0 -10 4 -23 9 -29 5 -5 14 -52 21 -104 7 -52 16 -103 21 -112 5 -10 9
-27 9 -39 0 -12 4 -38 9 -58 5 -20 15 -63 22 -96 7 -33 16 -64 20 -70 16 -23
30 -122 20 -148 -11 -29 -117 -137 -135 -137 -6 0 -40 -27 -74 -60 -35 -33
-67 -60 -71 -60 -5 0 -18 -9 -31 -20 -30 -26 -32 -26 -394 -71 -44 -5 -85 -14
-92 -20 -7 -5 -56 -9 -115 -7 -123 4 -125 6 -81 100 16 35 35 81 42 103 18 57
39 103 49 109 5 3 12 18 16 33 3 16 12 35 19 43 7 8 19 31 26 50 8 19 32 64
53 100 22 36 49 81 60 101 11 20 32 52 48 70 16 19 29 39 29 46 0 7 9 17 20
23 11 6 20 20 20 31 0 12 20 39 46 62 30 28 55 64 74 107 19 43 35 65 46 65 9
0 20 7 24 15 4 8 12 25 18 37 7 13 12 38 12 56 0 18 7 42 15 53 8 10 15 27 15
36 0 9 8 21 17 27 13 7 20 29 26 83 12 115 14 132 15 141 2 9 14 9 30 -2z"/>
</g>
</svg>
