<?xml version="1.0" standalone="no"?>
<!DOCTYPE svg PUBLIC "-//W3C//DTD SVG 20010904//EN"
 "http://www.w3.org/TR/2001/REC-SVG-20010904/DTD/svg10.dtd">
<svg version="1.0" xmlns="http://www.w3.org/2000/svg"
 width="314.000000pt" height="179.000000pt" viewBox="0 0 314.000000 179.000000"
 preserveAspectRatio="xMidYMid meet">

<g transform="translate(0.000000,179.000000) scale(0.100000,-0.100000)"
fill="#000000" stroke="none">
<path d="M2415 1736 c-4 -30 -4 -67 -1 -83 7 -29 6 -30 -66 -51 -40 -12 -117
-29 -171 -38 -87 -16 -110 -16 -220 -4 -147 16 -181 15 -237 -5 -35 -12 -102
-15 -364 -15 -195 0 -339 5 -366 11 -67 16 -238 16 -285 0 -47 -16 -166 -102
-249 -180 -115 -111 -143 -196 -156 -481 -4 -107 -14 -213 -20 -235 -17 -56
-58 -109 -108 -141 -47 -30 -61 -62 -43 -100 19 -43 12 -63 -44 -124 -30 -33
-55 -64 -55 -70 0 -19 36 -10 84 21 27 16 52 27 57 22 21 -22 82 -202 80 -238
-1 -6 -53 -12 -123 -15 -68 -3 581 -6 1442 -6 861 0 1465 2 1343 3 l-221 3
-35 35 c-19 19 -43 35 -54 35 -79 0 -206 193 -223 338 -5 42 -21 118 -36 167
-24 81 -26 100 -20 190 3 55 9 109 12 120 3 11 26 34 52 52 26 18 72 53 102
79 63 54 155 101 214 109 23 3 82 1 131 -4 l90 -10 28 30 c15 16 27 38 27 49
0 12 10 24 24 30 14 5 30 19 37 32 6 13 18 27 25 31 26 15 14 45 -45 104 -47
48 -60 68 -66 104 -10 57 -27 82 -81 116 -38 25 -44 32 -44 63 0 28 -8 44 -39
74 l-38 38 -21 -44 c-11 -24 -22 -51 -25 -60 -5 -14 -19 -17 -80 -17 l-75 0
-17 38 c-12 27 -29 44 -61 59 -25 12 -46 22 -49 22 -2 0 -7 -24 -10 -54z m453
-492 c25 -7 30 -34 6 -34 -21 0 -54 18 -54 30 0 11 15 12 48 4z m86 -23 c3 -5
-1 -14 -8 -20 -16 -13 -32 2 -21 19 8 12 22 13 29 1z m-1088 -570 l44 -39 -25
-30 c-25 -30 -34 -85 -15 -97 21 -13 9 -25 -24 -25 l-33 0 14 53 c15 56 9 127
-11 127 -20 0 -36 -23 -36 -52 0 -19 -11 -37 -34 -59 -48 -43 -62 -80 -44
-115 16 -34 51 -54 95 -54 28 0 33 -4 38 -27 3 -16 10 -48 16 -73 11 -50 17
-44 -81 -99 -33 -19 -80 -54 -104 -78 -24 -24 -48 -43 -54 -43 -5 0 -17 10
-26 22 -15 23 -16 23 -31 4 -8 -11 -15 -28 -15 -38 0 -17 -12 -18 -140 -18
-77 0 -140 4 -140 9 0 5 9 28 20 52 40 90 19 127 -77 136 l-59 5 -1 37 c-2 47
11 61 56 61 32 0 40 6 70 49 28 43 39 50 70 53 31 3 36 7 39 31 3 28 -6 35
-24 17 -8 -8 -19 -7 -36 1 -22 10 -31 7 -72 -25 -26 -20 -51 -36 -56 -36 -4 0
-11 16 -14 35 -4 19 -22 51 -41 71 -26 27 -35 46 -35 71 0 23 -8 41 -24 56
l-24 23 55 57 c31 32 56 57 57 55 32 -49 84 -111 110 -131 l33 -26 42 40 c23
22 53 58 67 79 l26 39 46 -53 c52 -59 105 -106 120 -106 14 0 86 81 113 128
l23 40 39 -44 c21 -24 58 -61 83 -83z m-922 70 l38 -39 -30 -16 c-50 -26 -68
-110 -32 -146 l21 -21 -31 -37 c-27 -33 -30 -44 -30 -105 0 -65 1 -69 30 -85
16 -9 30 -23 30 -29 0 -7 -17 -32 -37 -54 -33 -37 -38 -48 -37 -89 2 -45 0
-48 -33 -64 -31 -15 -37 -15 -52 -2 -9 8 -33 18 -54 21 -48 9 -62 24 -115 125
-34 66 -42 92 -42 135 l0 53 128 134 c72 77 142 161 162 196 19 34 37 62 40
62 3 0 23 -18 44 -39z m1174 -143 c88 -162 146 -309 168 -423 10 -53 25 -99
36 -111 10 -11 18 -24 18 -28 0 -13 -193 -2 -198 12 -2 6 3 12 10 12 20 0 65
50 73 80 3 14 1 39 -5 54 -10 26 -14 28 -48 23 -20 -3 -46 -9 -57 -12 -28 -8
-67 59 -53 94 l9 25 25 -27 c32 -34 49 -34 63 1 15 38 12 162 -5 190 -33 51
-59 7 -32 -53 8 -18 8 -29 0 -37 -7 -7 -17 3 -34 38 -13 27 -33 53 -45 59 -19
8 -21 15 -16 51 5 36 2 46 -19 67 -13 13 -30 26 -37 28 -9 3 -2 20 21 56 25
40 36 49 45 40 6 -7 43 -69 81 -139z m-1707 -177 c-29 -56 -27 -73 19 -140 37
-54 97 -175 114 -228 9 -30 -10 -30 -40 -2 -13 12 -44 25 -70 30 -55 10 -54 9
-90 109 -47 129 -33 213 44 265 44 30 50 21 23 -34z m739 -366 c0 -25 -1 -25
-81 -25 -71 0 -80 2 -69 15 7 8 29 15 49 16 20 1 47 5 61 9 38 12 40 12 40
-15z m760 0 c0 -25 -1 -25 -86 -25 -64 0 -85 3 -82 13 3 7 32 15 68 19 34 4
65 10 68 13 14 14 32 3 32 -20z"/>
</g>
</svg>
