<?xml version="1.0" standalone="no"?>
<!DOCTYPE svg PUBLIC "-//W3C//DTD SVG 20010904//EN"
 "http://www.w3.org/TR/2001/REC-SVG-20010904/DTD/svg10.dtd">
<svg version="1.0" xmlns="http://www.w3.org/2000/svg"
 width="207.000000pt" height="249.000000pt" viewBox="0 0 207.000000 249.000000"
 preserveAspectRatio="xMidYMid meet">

<g transform="translate(0.000000,249.000000) scale(0.100000,-0.100000)"
fill="#000000" stroke="none">
<path d="M1090 2483 c-45 -6 -64 -21 -49 -39 8 -10 8 -14 1 -14 -6 0 -17 9
-25 20 -13 19 -17 19 -193 5 -287 -23 -310 -30 -445 -127 -99 -71 -139 -108
-133 -122 10 -27 40 -12 35 17 -1 5 3 6 8 3 5 -3 12 1 15 10 4 9 9 14 12 11 8
-7 -38 -71 -53 -74 -6 -2 -15 6 -18 17 -4 11 -10 20 -14 20 -21 0 -66 -68
-102 -155 -22 -54 -48 -115 -59 -134 -27 -52 -50 -129 -50 -169 0 -58 32 -142
70 -183 19 -21 62 -54 95 -72 41 -22 61 -40 63 -55 4 -28 22 -29 22 -1 0 18 2
19 15 9 13 -10 15 -9 15 12 0 31 55 88 85 88 34 0 55 -10 55 -26 0 -8 7 -14
17 -14 9 0 14 -3 10 -6 -3 -3 6 -17 19 -31 15 -15 24 -33 21 -43 -2 -10 -1
-24 3 -31 11 -17 32 62 28 104 -2 23 -8 31 -19 29 -11 -1 -16 4 -15 15 0 11
-6 19 -19 19 -11 1 -24 2 -29 3 -6 1 -5 6 2 13 19 19 14 26 -13 20 -14 -2 -25
-11 -26 -21 0 -12 -3 -10 -9 5 -6 16 -20 23 -56 28 -26 3 -50 3 -53 -1 -13
-17 -49 -31 -60 -23 -9 5 -10 10 -2 14 6 4 11 12 11 17 0 6 -5 7 -12 3 -8 -5
-9 -2 -4 12 5 10 12 31 16 46 15 50 54 90 117 119 69 31 195 73 258 85 22 4
47 9 55 10 58 13 195 15 260 4 41 -7 87 -14 103 -14 15 -1 27 -6 27 -12 0 -6
14 -14 31 -18 25 -5 29 -9 20 -20 -9 -11 -8 -15 4 -20 9 -3 13 -11 10 -16 -4
-6 -3 -10 2 -9 20 3 44 -2 40 -8 -3 -5 -1 -17 4 -28 6 -15 8 -16 8 -4 1 18 27
33 41 24 5 -3 19 -20 30 -38 l22 -32 -26 30 c-29 33 -33 28 -13 -13 7 -15 13
-34 12 -42 -1 -8 6 -24 14 -35 15 -18 15 -19 -1 -7 -17 14 -34 1 -23 -18 9
-14 42 -12 48 3 3 8 7 6 12 -6 11 -26 -1 -33 -35 -20 -17 6 -31 8 -31 5 -5
-27 -4 -60 3 -56 4 3 8 -2 8 -10 0 -9 9 -32 21 -53 l21 -38 -31 29 c-25 24
-31 26 -31 12 0 -9 4 -15 9 -12 5 3 11 -3 14 -14 3 -11 1 -18 -4 -14 -11 6
-11 -4 0 -31 5 -12 4 -26 -3 -34 -9 -12 -8 -13 7 -8 11 4 17 2 17 -7 0 -10 -7
-12 -22 -8 -21 5 -22 4 -8 -13 14 -17 13 -18 -5 -11 -15 5 -17 4 -8 -5 14 -14
5 -41 -11 -32 -6 3 -1 -5 10 -18 20 -22 23 -56 5 -44 -7 4 -8 -14 -2 -48 0 -5
6 -5 13 -1 7 4 8 3 4 -4 -4 -7 -1 -12 8 -12 22 0 20 -16 -4 -40 -11 -11 -20
-26 -20 -34 0 -17 -24 -38 -33 -29 -4 3 -7 2 -7 -4 0 -6 7 -16 15 -23 12 -10
15 -10 16 1 0 8 4 4 9 -9 14 -34 52 -45 66 -19 7 13 14 16 18 8 4 -6 2 -11 -3
-11 -6 0 -11 -6 -11 -13 0 -10 -15 -13 -52 -12 -46 2 -53 4 -51 21 2 10 -2 28
-6 39 -5 11 -12 27 -14 35 -3 8 -6 4 -6 -10 l-1 -25 -20 25 c-11 14 -20 20
-20 13 0 -6 5 -15 11 -19 6 -3 8 -17 4 -31 -5 -20 -3 -24 9 -20 10 4 13 1 10
-8 -7 -18 -34 -8 -34 14 0 9 -9 -3 -19 -25 -19 -41 -41 -65 -41 -45 0 6 4 11
8 11 4 0 8 10 9 22 1 11 8 25 15 29 9 6 9 9 1 9 -6 0 -25 -17 -43 -37 -17 -21
-29 -32 -25 -25 3 6 1 12 -4 12 -6 0 -11 -6 -11 -12 0 -10 -3 -9 -9 1 -7 11
-10 11 -15 0 -3 -8 -4 -1 0 15 5 26 3 28 -11 16 -14 -11 -17 -10 -22 8 -5 19
-6 20 -21 5 -13 -12 -17 -13 -21 -2 -7 21 -33 45 -68 63 -18 9 -39 29 -47 44
-9 15 -15 21 -16 14 0 -18 -20 -4 -20 14 0 8 5 12 10 9 17 -10 11 4 -9 24 -13
13 -21 16 -24 8 -3 -9 -7 -9 -18 0 -10 8 -20 9 -29 2 -13 -8 -13 -10 0 -20 13
-9 12 -10 -3 -5 -10 3 -25 6 -32 6 -7 0 -16 12 -20 28 l-7 27 -25 -43 c-24
-41 -27 -42 -74 -41 -58 3 -67 8 -79 45 l-8 29 -1 -33 c-1 -26 4 -34 27 -43
74 -30 112 -58 112 -83 0 -6 -5 -3 -11 7 -6 9 -15 15 -20 12 -5 -4 -7 -10 -4
-15 3 -4 -2 -11 -11 -14 -8 -3 -12 -10 -9 -16 10 -16 -12 -12 -29 5 -8 8 -18
15 -22 15 -5 0 -3 -5 4 -12 17 -17 15 -35 -3 -35 -8 0 -15 6 -15 13 0 7 -5 16
-11 20 -7 4 -10 1 -7 -7 6 -18 -17 -40 -34 -34 -11 4 -14 -3 -12 -30 2 -21 -1
-33 -6 -30 -6 4 -10 -1 -10 -9 0 -9 7 -16 15 -16 9 0 12 -6 9 -15 -4 -8 -1
-15 5 -15 6 0 11 -12 11 -27 l0 -27 -16 22 c-8 12 -20 19 -26 16 -7 -5 -9 -1
-5 9 3 9 2 19 -3 22 -11 7 -13 -9 -4 -42 4 -13 11 -23 16 -23 6 0 7 8 3 18 -5
13 -4 14 6 5 10 -10 10 -15 0 -27 -9 -11 -10 -20 -2 -35 6 -11 11 -30 10 -43
0 -22 -1 -22 -8 -3 -5 11 -7 22 -6 25 2 3 -8 10 -21 17 -20 9 -24 8 -24 -4 0
-8 4 -12 9 -9 14 9 31 -19 29 -45 -2 -15 2 -23 10 -21 6 1 12 -3 12 -9 0 -6
-7 -9 -15 -5 -17 6 -35 -21 -36 -56 0 -22 -1 -22 -9 -3 -7 19 -8 19 -18 -6 -5
-14 -8 -37 -5 -52 3 -17 1 -27 -6 -27 -7 0 -9 -4 -6 -10 3 -5 -1 -10 -10 -10
-9 0 -14 -4 -11 -9 9 -14 -4 -41 -20 -41 -8 0 -14 9 -14 21 0 12 -5 19 -12 16
-7 -2 -21 5 -31 16 -21 24 -21 27 -2 27 8 0 15 -7 15 -15 0 -17 16 -20 25 -5
3 6 1 10 -4 10 -6 0 -11 11 -11 25 0 14 5 25 12 25 6 0 3 7 -8 15 -18 14 -18
14 3 8 12 -3 24 -10 26 -17 2 -6 3 -2 1 10 -3 20 19 62 40 76 6 4 8 10 4 13
-4 4 -19 -12 -34 -35 -29 -44 -42 -40 -28 8 4 15 7 30 6 34 -1 4 5 5 13 2 11
-5 13 -2 9 10 -3 9 -2 16 4 16 5 0 12 11 14 25 3 13 1 22 -3 19 -5 -3 -6 9 -3
26 5 24 3 30 -10 30 -13 0 -16 6 -11 23 4 15 3 18 -3 8 -12 -17 -27 3 -16 21
4 7 9 23 10 36 4 39 13 54 26 46 8 -5 9 -2 4 11 -4 11 -2 22 6 26 7 4 9 11 5
15 -10 10 -28 -8 -32 -32 -1 -11 -7 -18 -13 -17 -5 1 -7 -7 -4 -19 4 -15 2
-19 -7 -14 -8 5 -11 3 -10 -5 3 -21 -20 -71 -30 -64 -5 3 -12 19 -16 36 -4 17
-9 28 -12 25 -3 -2 0 -21 7 -40 6 -20 13 -59 14 -88 2 -29 8 -54 14 -56 7 -2
12 1 12 7 0 6 -5 11 -12 11 -6 0 -3 9 7 20 12 13 14 20 5 20 -7 0 -10 7 -6 17
4 9 2 20 -4 23 -8 5 -6 9 4 13 10 4 16 1 16 -9 0 -9 5 -12 13 -8 9 6 9 4 1 -7
-6 -8 -12 -32 -13 -53 -1 -23 -9 -45 -19 -52 -16 -12 -15 -13 4 -14 15 0 21
-6 20 -17 -1 -23 -38 -44 -48 -29 -5 7 -13 4 -22 -9 -18 -23 -20 -35 -6 -35 6
0 10 -7 10 -15 0 -22 -30 -66 -41 -59 -11 6 -11 -4 1 -31 9 -19 9 -19 16 3 8
27 27 25 29 -4 6 -67 18 -105 31 -100 21 8 17 -7 -6 -22 -26 -16 -25 -46 3
-66 12 -9 17 -14 11 -12 -7 3 -15 -1 -18 -10 -3 -8 -2 -12 4 -9 5 3 17 -2 27
-10 37 -33 138 -104 149 -105 7 0 14 -7 18 -15 3 -8 12 -15 21 -15 8 0 15 -4
15 -9 0 -11 54 -43 98 -59 23 -8 32 -8 32 0 0 6 8 4 18 -5 10 -10 23 -17 28
-17 6 0 31 -13 56 -29 25 -16 48 -27 51 -25 2 2 21 5 41 6 20 1 41 7 47 14 6
7 34 20 62 30 29 9 58 22 65 29 9 8 30 11 57 7 34 -3 50 0 71 17 15 11 32 21
38 21 7 0 38 15 69 34 30 19 58 31 61 28 3 -3 6 0 6 6 0 7 11 12 25 12 14 0
30 9 37 20 9 14 19 18 38 13 14 -3 22 -2 18 2 -4 4 0 14 8 22 8 9 18 28 21 44
3 16 15 39 27 52 12 13 28 39 36 56 11 28 11 34 -1 43 -10 7 -8 8 8 3 23 -6
43 13 24 24 -10 7 -5 30 35 159 2 6 13 12 24 12 12 0 18 5 15 10 -7 11 29 63
37 55 3 -3 5 8 5 25 0 16 -5 30 -11 30 -6 0 -16 10 -21 23 -6 12 -15 22 -22
22 -7 0 -18 6 -25 14 -8 9 -8 11 -1 7 16 -9 29 14 13 24 -7 4 -21 5 -31 3 -10
-3 -19 0 -19 6 0 6 7 11 16 11 13 0 14 3 5 13 -6 8 -9 16 -6 19 3 3 -9 4 -25
3 -17 -1 -34 3 -37 8 -3 6 -1 7 5 3 7 -4 12 -2 12 4 0 7 7 10 15 6 8 -3 15 -1
15 5 0 5 12 7 28 3 33 -8 28 -4 36 -31 6 -18 3 -23 -11 -23 -15 0 -16 -2 -3
-10 8 -5 18 -10 23 -10 11 0 8 39 -5 63 -16 30 -20 57 -8 57 6 0 10 6 10 13
-1 6 -11 0 -23 -15 -21 -26 -24 -27 -61 -14 -30 11 -34 14 -20 20 15 6 16 9 5
15 -10 7 -9 10 8 16 15 5 20 12 16 25 -3 11 0 20 11 24 20 8 34 -1 35 -22 0
-10 3 -12 6 -5 2 7 -4 24 -15 38 -15 19 -21 22 -24 11 -6 -31 -27 1 -35 54
-12 74 -7 87 31 100 43 14 60 49 43 90 -10 23 -16 27 -25 18 -7 -7 -12 -17
-12 -23 -1 -25 -31 -48 -66 -50 -26 0 -32 2 -22 10 7 5 14 15 15 20 1 6 5 18
8 28 6 13 2 17 -16 17 -13 0 -19 4 -14 8 14 10 17 32 5 32 -6 0 -6 9 0 24 5
13 6 27 3 30 -4 3 4 6 16 6 12 0 19 4 16 10 -7 12 -41 13 -48 3 -2 -5 -2 -1 1
7 2 8 5 20 5 27 0 9 5 9 21 1 15 -8 21 -8 24 1 3 8 9 6 19 -6 13 -17 13 -16 3
4 -9 19 -6 27 16 53 15 16 31 27 35 24 15 -9 49 -13 48 -6 -3 21 3 23 21 7 11
-10 17 -22 14 -26 -3 -5 2 -12 10 -15 9 -3 13 -10 10 -16 -3 -5 2 -16 12 -23
11 -9 14 -14 7 -15 -7 0 -13 -9 -13 -21 0 -13 -4 -18 -12 -13 -7 5 -8 3 -3 -6
6 -10 11 -9 23 6 13 17 14 14 10 -31 -3 -27 -3 -42 -1 -32 3 10 34 32 72 51
38 20 85 54 109 80 55 60 139 188 147 225 7 32 31 47 50 31 19 -15 45 -1 45
24 0 22 -34 46 -65 46 -8 0 -18 12 -21 28 -10 40 -27 69 -82 144 -27 37 -59
91 -72 120 -12 29 -45 77 -71 106 -27 30 -49 57 -49 61 0 16 -64 42 -166 66
-60 14 -138 39 -174 55 -53 23 -200 55 -228 48 -4 0 -23 -3 -42 -5z m20 -26
c0 -4 9 -3 19 3 11 5 23 10 28 10 4 -1 -3 -7 -17 -14 -14 -8 -29 -12 -34 -9
-5 3 -7 2 -4 -3 38 -79 49 -108 45 -119 -4 -9 8 -15 36 -20 114 -19 230 -37
302 -46 44 -6 83 -16 87 -22 6 -9 8 -8 8 2 0 8 3 11 8 7 4 -4 7 -12 7 -18 0
-6 8 -12 18 -14 11 -1 21 -5 25 -8 11 -11 -36 -6 -76 8 -25 9 -44 11 -47 5 -4
-5 -12 -9 -18 -9 -8 0 -8 3 1 9 9 5 -8 11 -47 15 -34 4 -61 11 -61 16 0 6 -10
10 -22 9 -22 0 -22 -1 -3 -10 15 -7 12 -8 -15 -4 -19 3 -65 7 -102 8 -38 1
-68 6 -68 11 0 4 -18 6 -40 4 -22 -2 -41 0 -42 3 -7 17 -349 30 -355 13 -2 -6
-19 -8 -38 -6 -19 2 -43 1 -52 -3 -10 -5 -21 -8 -25 -7 -17 4 -149 -43 -211
-74 -37 -19 -72 -32 -77 -29 -5 3 -12 0 -16 -6 -5 -8 -2 -10 7 -5 8 4 -4 -7
-26 -26 -64 -54 -115 -109 -116 -127 -1 -9 -4 -5 -9 9 -7 22 -8 21 -9 -12 -1
-20 -6 -40 -12 -44 -8 -4 -9 1 -4 16 4 14 3 20 -3 16 -9 -5 -19 -46 -24 -99
-2 -17 -3 -17 -15 -1 -7 10 -13 15 -13 12 0 -4 -3 -14 -7 -24 -4 -12 -3 -15 5
-10 17 10 15 2 -7 -23 -18 -21 -19 -21 -24 -1 -3 12 -1 18 5 14 6 -4 9 5 7 22
-2 20 8 47 32 84 46 70 124 155 136 147 5 -3 22 6 39 19 l29 26 -34 -23 c-32
-21 -33 -21 -22 -1 23 43 282 174 324 164 19 -5 96 21 90 31 -4 6 -1 7 8 1 12
-7 59 -7 67 1 5 4 -50 88 -63 97 -5 4 2 8 16 8 19 0 37 -12 63 -42 20 -24 36
-46 36 -50 0 -5 57 -9 128 -10 l127 -2 -155 -7 c-85 -4 -171 -12 -190 -18 -30
-9 -28 -9 20 -3 30 4 121 7 202 7 80 0 144 3 141 8 -2 4 6 7 19 7 18 0 20 -2
8 -10 -13 -8 -13 -10 1 -10 25 0 29 10 11 29 -27 29 -55 84 -58 113 -1 24 2
27 27 25 16 -1 29 -6 29 -10z m85 3 c-8 -13 1 -13 28 1 27 14 14 1 -38 -36
l-40 -28 24 26 c28 31 22 34 -17 11 -26 -15 -26 -15 3 10 30 26 52 35 40 16z
m-274 -25 c17 11 79 13 73 3 -3 -4 2 -8 10 -8 21 0 28 -16 8 -16 -9 -1 -26 -4
-37 -8 -20 -8 -20 -7 -1 8 30 24 3 19 -35 -7 -47 -32 -83 -45 -49 -17 14 11
20 20 13 20 -7 0 -28 -14 -48 -31 -20 -18 -38 -29 -41 -26 -3 3 16 21 42 41
26 20 41 36 34 36 -6 0 -31 -15 -53 -32 -23 -18 -38 -27 -33 -20 16 27 89 73
97 61 4 -7 12 -8 20 -4z m-105 -3 c8 -5 3 -14 -15 -26 l-26 -20 19 22 c20 23
9 31 -12 10 -9 -9 -15 -9 -24 1 -11 10 -10 11 3 6 10 -4 20 -2 24 4 7 13 16
14 31 3z m394 -22 c-35 -30 -57 -39 -44 -19 6 10 64 49 74 49 2 0 -11 -13 -30
-30z m-596 -2 c-5 -7 -2 -9 9 -5 11 4 15 1 12 -14 -4 -22 5 -24 25 -6 12 10
12 9 2 -4 -14 -19 -6 -30 16 -22 10 3 8 -3 -7 -15 -13 -10 -33 -18 -45 -17
-11 1 -21 3 -21 5 0 1 -10 3 -22 4 -12 1 -20 -1 -18 -5 3 -4 -2 -12 -10 -19
-8 -7 -15 -9 -15 -5 0 4 -7 2 -15 -5 -12 -10 -15 -10 -15 0 0 9 -7 7 -20 -5
-11 -10 -20 -14 -20 -10 0 4 -9 0 -20 -10 -20 -18 -21 -18 -14 1 6 16 4 16
-19 -5 -15 -14 -27 -21 -27 -17 0 5 -9 -2 -20 -15 -10 -13 -19 -19 -20 -13 0
6 11 21 25 34 14 13 25 20 25 15 0 -4 9 0 20 10 11 10 20 23 20 28 0 6 -8 3
-18 -6 -10 -10 -24 -17 -30 -17 -6 0 -25 -20 -42 -45 -34 -49 -51 -62 -23 -17
25 41 55 72 69 72 6 0 17 7 24 15 7 9 15 13 18 10 3 -3 17 5 31 17 l26 23 -22
-26 c-44 -50 -22 -41 36 14 37 36 65 55 74 51 8 -3 18 -1 22 5 3 6 8 11 11 11
3 0 2 -5 -2 -12z m632 -15 c-2 -11 -12 -18 -25 -19 -12 -1 -28 -7 -34 -14 -10
-10 -8 -12 7 -6 16 6 17 4 6 -9 -11 -13 -15 -13 -22 -3 -5 9 2 22 22 41 35 31
49 34 46 10z m174 -3 c0 -5 10 -10 23 -10 21 -1 21 -2 4 -14 -16 -12 -16 -14
-1 -20 9 -3 19 -4 24 -1 4 2 10 -10 14 -27 4 -20 2 -34 -5 -39 -16 -10 -39 0
-40 17 -2 21 -21 73 -35 95 -3 5 0 9 5 9 6 0 11 -4 11 -10z m160 -46 c0 -2 -7
-4 -15 -4 -8 0 -15 4 -15 10 0 5 7 7 15 4 8 -4 15 -8 15 -10z m107 -54 c2 -11
-2 -20 -8 -20 -5 0 -8 4 -5 9 4 5 1 11 -6 13 -6 2 -8 10 -4 17 10 15 19 7 23
-19z m30 -43 c7 0 10 -4 7 -9 -3 -4 5 -9 18 -9 15 -1 17 -3 7 -6 -9 -2 -32 6
-50 18 -19 11 -25 18 -14 14 11 -4 25 -8 32 -8z m-965 -21 c7 4 8 2 4 -5 -10
-15 -26 -4 -25 17 1 15 2 15 6 -1 2 -9 9 -14 15 -11z m908 -1 c8 -2 21 -4 28
-4 14 -1 15 -10 4 -29 -10 -15 -42 -5 -42 13 0 16 -28 28 -42 18 -7 -4 -8 -1
-4 6 5 7 15 9 25 6 9 -4 23 -8 31 -10z m-820 1 c0 -2 -7 -9 -15 -16 -13 -11
-14 -10 -9 4 5 14 24 23 24 12z m230 -11 c0 -8 -4 -15 -10 -15 -5 0 -7 7 -4
15 4 8 8 15 10 15 2 0 4 -7 4 -15z m-460 -19 c0 -3 -4 -8 -10 -11 -5 -3 -10
-1 -10 4 0 6 5 11 10 11 6 0 10 -2 10 -4z m410 -16 c0 -5 -5 -10 -11 -10 -5 0
-7 5 -4 10 3 6 8 10 11 10 2 0 4 -4 4 -10z m770 -25 c0 -22 -19 -27 -36 -11
-8 9 -21 16 -27 17 -7 1 -1 4 13 8 30 9 50 3 50 -14z m-1158 -7 c-7 -7 -12 -8
-12 -2 0 14 12 26 19 19 2 -3 -1 -11 -7 -17z m-152 8 c0 -3 -4 -8 -10 -11 -5
-3 -10 -1 -10 4 0 6 5 11 10 11 6 0 10 -2 10 -4z m117 -18 c2 -18 0 -20 -7 -8
-12 18 -13 30 -2 30 4 0 9 -10 9 -22z m114 8 c5 3 9 0 9 -6 0 -7 -7 -9 -16 -6
-9 3 -18 6 -20 6 -3 0 -2 5 2 12 6 9 9 9 12 0 2 -7 8 -10 13 -6z m89 -1 c0 -2
-9 -3 -19 -2 -11 0 -18 5 -15 9 4 6 34 0 34 -7z m390 -5 c8 -5 11 -10 5 -10
-5 0 -17 5 -25 10 -8 5 -10 10 -5 10 6 0 17 -5 25 -10z m460 6 c0 -3 -4 -8
-10 -11 -5 -3 -10 -1 -10 4 0 6 5 11 10 11 6 0 10 -2 10 -4z m161 -37 c8 -15
8 -19 0 -15 -15 10 -14 -7 2 -24 10 -12 9 -12 -6 0 -10 7 -22 21 -28 31 -8 15
-6 17 7 12 12 -4 15 -3 10 5 -4 7 -5 12 -2 12 3 0 10 -10 17 -21z m-1271 -3
c0 -3 -4 -8 -10 -11 -5 -3 -10 -1 -10 4 0 6 5 11 10 11 6 0 10 -2 10 -4z m90
-10 c0 -3 -4 -8 -10 -11 -5 -3 -10 -1 -10 4 0 6 5 11 10 11 6 0 10 -2 10 -4z
m790 -6 c0 -5 -2 -10 -4 -10 -3 0 -8 5 -11 10 -3 6 -1 10 4 10 6 0 11 -4 11
-10z m70 0 c0 -5 -2 -10 -4 -10 -3 0 -8 5 -11 10 -3 6 -1 10 4 10 6 0 11 -4
11 -10z m-1150 -14 c0 -3 -4 -8 -10 -11 -5 -3 -10 -1 -10 4 0 6 5 11 10 11 6
0 10 -2 10 -4z m260 -11 c0 -2 -9 -3 -19 -2 -11 0 -18 5 -15 9 4 6 34 0 34 -7z
m1252 -47 c-9 -9 -12 -7 -12 12 0 19 3 21 12 12 9 -9 9 -15 0 -24z m-445 6
c-3 -3 -12 -4 -19 -1 -8 3 -5 6 6 6 11 1 17 -2 13 -5z m-159 -24 c-14 -22 -24
-19 -15 5 4 8 11 15 17 15 6 0 6 -7 -2 -20z m150 -8 c6 -18 -15 -14 -22 4 -4
10 -1 14 6 12 6 -2 14 -10 16 -16z m-71 -7 c0 -8 -4 -12 -9 -9 -5 3 -6 10 -3
15 9 13 12 11 12 -6z m100 -7 c-3 -8 -6 -5 -6 6 -1 11 2 17 5 13 3 -3 4 -12 1
-19z m47 6 c5 -14 4 -15 -9 -4 -17 14 -19 20 -6 20 5 0 12 -7 15 -16z m411 6
c3 -6 -1 -7 -9 -4 -18 7 -21 14 -7 14 6 0 13 -4 16 -10z m-608 -6 c-3 -3 -12
-4 -19 -1 -8 3 -5 6 6 6 11 1 17 -2 13 -5z m93 -9 c0 -12 -19 -12 -23 0 -4 9
-1 12 9 8 7 -3 14 -7 14 -8z m445 -3 c-3 -3 -11 0 -18 7 -9 10 -8 11 6 5 10
-3 15 -9 12 -12z m-471 -20 c3 -5 -1 -9 -9 -9 -8 0 -12 4 -9 9 3 4 7 8 9 8 2
0 6 -4 9 -8z m46 -12 c0 -5 -2 -10 -4 -10 -3 0 -8 5 -11 10 -3 6 -1 10 4 10 6
0 11 -4 11 -10z m-20 -31 c0 -5 -4 -9 -10 -9 -5 0 -10 7 -10 16 0 8 5 12 10 9
6 -3 10 -10 10 -16z m-186 -84 c11 -8 15 -15 9 -15 -19 0 -43 12 -43 21 0 13
12 11 34 -6z m750 -10 c-4 -8 -11 -12 -16 -9 -6 4 -5 10 3 15 19 12 19 11 13
-6z m-663 -23 c-6 -2 -8 -8 -5 -14 4 -6 -2 -5 -15 1 -11 7 -21 17 -21 23 0 6
6 5 17 -3 15 -12 16 -12 10 5 -7 16 -5 17 9 5 10 -8 12 -15 5 -17z m634 8 c4
-6 3 -9 -2 -8 -4 1 -18 -3 -30 -10 -13 -7 -23 -10 -23 -6 0 3 -7 1 -15 -6 -8
-6 -19 -9 -25 -5 -14 9 -1 28 16 21 7 -3 16 -1 19 4 3 5 12 7 19 4 8 -3 17 -1
21 5 8 14 12 14 20 1z m-109 -43 c11 -11 -19 -8 -36 3 -12 8 -10 9 7 7 12 -2
26 -6 29 -10z m-446 -12 c14 -8 19 -14 10 -14 -8 0 -24 6 -34 14 -25 19 -9 19
24 0z m363 8 c-7 -2 -19 -2 -25 0 -7 3 -2 5 12 5 14 0 19 -2 13 -5z m-49 -17
c-3 -7 -16 -13 -30 -13 -23 0 -23 1 -7 13 23 17 44 18 37 0z m-1604 -6 c0 -5
-4 -10 -9 -10 -6 0 -13 5 -16 10 -3 6 1 10 9 10 9 0 16 -4 16 -10z m1517 -3
c0 -7 -12 -13 -28 -12 -15 0 -25 3 -22 7 2 5 -6 8 -19 8 -18 0 -20 -2 -8 -10
11 -7 7 -10 -18 -10 -18 0 -31 4 -28 9 3 4 -6 6 -21 3 -18 -3 -24 -1 -19 7 11
16 163 15 163 -2z m116 -54 c-7 -2 -19 -2 -25 0 -7 3 -2 5 12 5 14 0 19 -2 13
-5z m-299 -22 c12 -14 14 -19 4 -18 -7 2 -14 6 -15 11 -1 5 -7 13 -15 17 -7 5
-8 9 -2 9 6 0 19 -9 28 -19z m202 12 c-3 -3 -32 -7 -63 -8 -36 -2 -50 0 -38 5
23 9 109 11 101 3z m49 -12 c-3 -6 -11 -11 -16 -11 -5 0 -4 6 3 14 14 16 24
13 13 -3z m-318 -7 c-3 -3 -12 -4 -19 -1 -8 3 -5 6 6 6 11 1 17 -2 13 -5z
m203 -28 c0 -11 -19 -15 -25 -6 -3 5 1 10 9 10 9 0 16 -2 16 -4z m-1180 -24
c0 -4 -9 -13 -20 -20 -11 -7 -20 -21 -20 -33 0 -11 -4 -18 -9 -14 -5 3 -12 -3
-16 -14 -3 -11 -12 -22 -20 -24 -19 -8 -27 20 -10 37 8 8 15 24 15 35 0 20 9
25 37 22 6 -1 14 3 18 9 7 12 25 14 25 2z m1000 -14 c0 -6 -6 -5 -15 2 -8 7
-15 14 -15 16 0 2 7 1 15 -2 8 -4 15 -11 15 -16z m-43 -25 c-9 -9 -23 -13 -36
-8 -30 9 -15 26 16 19 20 -5 24 -4 18 6 -6 9 -4 11 4 5 10 -6 10 -11 -2 -22z
m38 -23 c-3 -4 2 -10 10 -14 8 -3 15 -11 15 -17 0 -8 -7 -6 -18 4 -18 17 -27
51 -10 41 5 -3 6 -9 3 -14z m445 0 c0 -5 -4 -10 -10 -10 -5 0 -10 5 -10 10 0
6 5 10 10 10 6 0 10 -4 10 -10z m-412 -104 c-7 -8 -17 -12 -22 -9 -4 3 -2 9 5
14 22 13 31 11 17 -5z m-43 -56 c3 -5 2 -10 -4 -10 -5 0 -13 5 -16 10 -3 6 -2
10 4 10 5 0 13 -4 16 -10z m182 -52 c-3 -8 -6 -5 -6 6 -1 11 2 17 5 13 3 -3 4
-12 1 -19z m-217 -40 c0 -12 -6 -9 -26 13 -19 22 -19 22 4 8 12 -8 22 -17 22
-21z m134 -9 c-3 -5 -10 -7 -15 -3 -5 3 -7 10 -3 15 3 5 10 7 15 3 5 -3 7 -10
3 -15z m-111 -13 c6 4 9 4 5 -1 -4 -4 -3 -14 4 -22 9 -11 6 -12 -16 -3 -25 9
-26 8 -16 -10 6 -11 8 -20 6 -20 -6 0 -36 55 -36 65 0 3 9 1 20 -5 11 -6 26
-8 33 -4z m47 -16 c0 -5 -4 -10 -10 -10 -5 0 -10 5 -10 10 0 6 5 10 10 10 6 0
10 -4 10 -10z m-96 -24 c-3 -7 -11 -13 -19 -13 -18 0 -19 4 -2 21 14 16 28 11
21 -8z m46 -48 c-30 -29 -31 -30 -15 -55 20 -29 10 -47 -11 -19 -16 23 -18 52
-4 61 6 3 10 11 10 16 0 6 -4 7 -10 4 -5 -3 -10 2 -10 11 0 16 1 16 19 0 18
-17 20 -16 26 3 3 12 11 19 16 15 6 -3 -4 -19 -21 -36z m120 19 c0 -7 -10 -13
-21 -14 -21 -2 -21 -1 -3 12 24 18 24 18 24 2z m-97 -38 c-6 -6 -9 -17 -7 -24
6 -16 -12 -29 -21 -16 -7 12 16 51 29 51 6 0 5 -5 -1 -11z m97 1 c0 -5 -2 -10
-4 -10 -3 0 -8 5 -11 10 -3 6 -1 10 4 10 6 0 11 -4 11 -10z m-690 -4 c0 -3 -4
-8 -10 -11 -5 -3 -10 -1 -10 4 0 6 5 11 10 11 6 0 10 -2 10 -4z m534 -62 c3
-8 2 -12 -4 -9 -6 3 -10 10 -10 16 0 14 7 11 14 -7z m173 -29 c-4 -8 -12 -15
-19 -14 -10 0 -10 2 0 6 6 2 12 12 12 21 0 8 3 13 6 9 4 -3 4 -13 1 -22z
m-749 4 c-2 -6 3 -14 10 -16 6 -3 12 0 12 7 0 8 6 8 20 0 13 -7 20 -21 20 -38
0 -15 -4 -22 -8 -16 -18 27 -86 38 -104 17 -9 -11 -13 -11 -19 -1 -13 21 -21
1 -9 -22 l12 -22 -26 18 c-14 11 -25 26 -26 34 0 13 1 13 10 0 8 -13 10 -13
10 2 0 18 41 35 58 24 6 -3 12 1 16 9 6 17 27 21 24 4z m642 0 c0 -4 -7 -9
-15 -13 -9 -3 -15 0 -15 8 0 7 7 13 15 13 8 0 15 -4 15 -8z m-529 -8 c-7 -5
-10 -14 -6 -20 5 -9 10 -9 21 0 8 7 14 7 14 1 0 -5 9 -12 20 -15 15 -4 20 -14
21 -39 1 -18 2 -41 3 -50 1 -9 11 -26 24 -38 25 -23 24 -22 16 -44 -3 -9 -10
-14 -14 -11 -4 3 -11 -7 -14 -20 -4 -14 -11 -23 -16 -20 -6 4 -8 10 -5 15 3 4
2 16 -1 25 -6 13 -9 14 -16 3 -7 -9 -8 -3 -4 18 3 23 -2 41 -20 67 -13 20 -24
47 -24 61 0 16 -6 26 -15 26 -18 0 -18 5 -5 31 6 10 16 19 23 19 8 0 8 -3 -2
-9z m540 -14 c-10 -9 -11 -8 -5 6 3 10 9 15 12 12 3 -3 0 -11 -7 -18z m-91
-12 c0 -8 -2 -15 -4 -15 -2 0 -6 7 -10 15 -3 8 -1 15 4 15 6 0 10 -7 10 -15z
m67 -30 c-16 -17 -17 -14 -10 14 4 15 8 19 13 10 5 -6 3 -18 -3 -24z m-142
-25 c3 -5 1 -10 -4 -10 -6 0 -11 5 -11 10 0 6 2 10 4 10 3 0 8 -4 11 -10z
m248 -5 c-3 -9 -8 -14 -10 -11 -3 3 -2 9 2 15 9 16 15 13 8 -4z m-813 -15
c-11 -7 -28 -7 -70 0 -8 1 -4 5 10 9 30 9 77 2 60 -9z m70 16 c0 -2 -7 -6 -15
-10 -8 -3 -15 -1 -15 4 0 6 7 10 15 10 8 0 15 -2 15 -4z m657 -11 c0 -8 -4
-15 -9 -15 -4 0 -8 7 -8 15 0 8 4 15 8 15 5 0 9 -7 9 -15z m-562 -7 c4 4 4
-11 1 -32 -7 -35 -6 -38 7 -27 13 10 15 9 10 -7 -2 -11 -1 -28 4 -38 5 -11 6
-38 3 -62 l-5 -43 -34 25 c-26 20 -37 23 -43 13 -5 -8 -8 -5 -8 9 0 22 -27 41
-39 28 -3 -4 -1 -9 6 -11 8 -3 10 -15 6 -35 -4 -22 -3 -29 5 -24 7 4 12 3 12
-2 0 -18 -29 -21 -33 -4 -3 9 -5 0 -6 -20 0 -21 -6 -38 -12 -38 -8 0 -8 -4 1
-15 13 -16 4 -39 -12 -29 -6 4 -8 2 -5 -3 4 -6 -2 -13 -13 -16 -14 -3 -20 -14
-21 -34 -1 -15 -3 -21 -6 -11 -7 28 -33 30 -45 3 -6 -14 -14 -25 -18 -25 -15
0 -17 -50 -4 -61 8 -6 14 -17 13 -23 0 -7 -2 -6 -6 2 -2 6 -9 9 -15 6 -6 -4
-14 -1 -18 7 -7 10 -11 10 -24 -1 -14 -11 -16 -10 -9 5 5 14 3 17 -10 12 -9
-3 -17 -2 -17 2 0 5 5 11 12 13 6 2 8 10 4 17 -6 9 -11 9 -22 0 -9 -7 -14 -8
-14 -1 0 6 4 13 9 16 5 3 11 17 13 31 3 13 1 22 -3 19 -5 -3 -9 -15 -9 -27 0
-16 -3 -18 -9 -8 -7 11 -9 11 -14 0 -4 -8 -4 4 -1 26 4 30 3 36 -5 25 -6 -8
-11 -30 -11 -47 0 -18 -4 -33 -9 -33 -5 0 -11 -8 -13 -17 -3 -13 -6 -10 -10 9
-3 17 -1 25 5 21 6 -4 8 5 4 25 -4 18 -2 32 3 32 5 0 7 7 4 15 -4 8 1 17 10
21 14 5 14 9 4 22 -11 13 -10 14 10 3 15 -8 28 -9 40 -2 24 13 48 41 35 41 -6
0 -10 13 -11 29 0 21 3 28 13 25 16 -7 27 -32 19 -45 -3 -5 -3 -9 1 -9 3 0 10
12 16 26 5 15 12 25 15 22 2 -3 0 -17 -6 -32 -8 -21 -7 -27 2 -23 7 2 12 10
11 16 -2 6 1 11 7 11 5 0 7 7 4 15 -4 8 -1 15 5 15 6 0 10 -3 10 -7 -3 -20 2
-34 10 -29 5 4 12 0 14 -6 4 -10 8 -9 16 2 7 10 6 17 -2 22 -9 6 -9 8 1 8 6 0
12 5 12 11 0 5 -4 7 -10 4 -5 -3 -10 -2 -10 3 0 6 7 12 15 16 8 3 14 2 14 -2
-1 -4 0 -18 1 -32 2 -17 4 -20 7 -8 2 9 13 20 24 23 21 7 24 22 10 44 -8 12
-12 13 -25 1 -14 -11 -16 -10 -10 5 5 13 4 16 -4 11 -7 -4 -12 -1 -12 7 0 11
7 13 22 9 14 -3 19 -2 14 6 -4 7 -2 12 4 12 19 0 104 54 92 58 -6 2 -28 -8
-49 -22 -32 -22 -49 -26 -109 -26 -55 0 -74 4 -86 18 -21 24 -29 50 -17 58 14
9 100 -16 93 -27 -3 -5 0 -9 5 -9 6 0 11 5 11 11 0 5 4 8 9 4 5 -3 12 -1 16 5
3 5 18 10 33 11 15 0 43 6 62 13 19 7 40 9 46 4 6 -4 14 -4 19 0z m145 -18 c0
-5 -2 -10 -4 -10 -3 0 -8 5 -11 10 -3 6 -1 10 4 10 6 0 11 -4 11 -10z m170 -1
c0 8 2 12 5 10 2 -3 2 -15 -2 -28 -4 -17 -8 -19 -14 -9 -5 7 -9 20 -9 28 0 13
1 13 10 0 8 -12 10 -12 10 -1z m-150 -63 c0 -26 -6 -18 -14 19 -5 22 -4 26 4
15 5 -8 10 -24 10 -34z m527 38 c-3 -3 -12 -4 -19 -1 -8 3 -5 6 6 6 11 1 17
-2 13 -5z m-17 -23 c0 -6 -5 -13 -12 -17 -7 -5 -8 -3 -3 6 6 9 1 10 -16 5 -19
-5 -21 -4 -9 4 19 13 40 14 40 2z m-636 -16 c3 -8 1 -15 -4 -15 -6 0 -10 7
-10 15 0 8 2 15 4 15 2 0 6 -7 10 -15z m359 -32 c-4 -9 -2 -14 3 -10 6 3 11
-4 11 -15 2 -20 1 -20 -12 -2 -17 22 -19 44 -5 44 5 0 6 -7 3 -17z m-666 -5
c21 -8 33 -19 33 -31 0 -12 -4 -16 -12 -10 -7 4 -21 6 -32 4 -19 -3 -36 14
-36 37 0 15 5 15 47 0z m72 -9 c-22 -13 -31 -11 -17 5 7 8 17 12 22 9 4 -3 2
-9 -5 -14z m347 -4 c0 -15 -7 -25 -16 -26 -9 0 -5 -4 8 -9 15 -7 22 -17 22
-37 l-1 -28 -13 30 c-12 28 -13 29 -23 10 -10 -18 -11 -17 -10 10 2 23 24 75
33 75 1 0 1 -11 0 -25z m54 5 c0 -5 -5 -10 -11 -10 -5 0 -7 5 -4 10 3 6 8 10
11 10 2 0 4 -4 4 -10z m175 -9 c3 -5 2 -12 -3 -15 -5 -3 -9 1 -9 9 0 17 3 19
12 6z m180 -39 c-5 -5 -72 25 -78 35 -3 5 14 0 38 -11 24 -11 42 -22 40 -24z
m203 23 c-3 -3 -9 2 -12 12 -6 14 -5 15 5 6 7 -7 10 -15 7 -18z m-933 6 c3 -5
1 -12 -4 -15 -5 -3 -11 1 -15 9 -6 16 9 21 19 6z m899 1 c3 -5 -1 -9 -9 -9 -8
0 -12 4 -9 9 3 4 7 8 9 8 2 0 6 -4 9 -8z m-534 -16 c0 -3 -4 -8 -10 -11 -5 -3
-10 -1 -10 4 0 6 5 11 10 11 6 0 10 -2 10 -4z m97 -23 c-8 -7 -37 9 -31 19 3
5 12 4 20 -3 8 -6 13 -14 11 -16z m-807 7 c0 -5 -5 -10 -11 -10 -5 0 -7 5 -4
10 3 6 8 10 11 10 2 0 4 -4 4 -10z m725 0 c-3 -5 -1 -10 5 -10 6 0 8 -5 4 -11
-4 -7 -10 -7 -16 -1 -9 9 -3 32 8 32 3 0 2 -4 -1 -10z m573 -10 c1 -9 -3 -22
-10 -30 -7 -9 -12 -13 -11 -11 2 2 -1 9 -6 15 -20 27 -19 43 2 42 12 -1 23 -8
25 -16z m-428 0 c-8 -5 -24 -9 -35 -9 -16 1 -16 2 5 9 35 11 48 11 30 0z
m-383 -26 c-9 -9 -28 6 -21 18 4 6 10 6 17 -1 6 -6 8 -13 4 -17z m128 17 c3
-5 1 -12 -5 -16 -5 -3 -10 1 -10 9 0 18 6 21 15 7z m350 -17 c-9 -7 -23 -10
-31 -7 -25 9 -15 22 17 21 28 -1 30 -3 14 -14z m-92 -1 c-7 -2 -21 -2 -30 0
-10 3 -4 5 12 5 17 0 24 -2 18 -5z m147 3 c0 -11 -19 -15 -25 -6 -3 5 1 10 9
10 9 0 16 -2 16 -4z m-532 -53 c14 -13 29 -23 34 -23 4 0 8 -4 8 -10 0 -5 -7
-7 -15 -4 -8 4 -15 2 -15 -4 0 -18 29 -22 39 -5 7 13 9 8 9 -21 0 -20 3 -40 6
-43 3 -4 6 8 6 25 0 24 4 32 18 32 11 0 13 -3 5 -8 -6 -4 -13 -20 -15 -35 -1
-15 -7 -26 -12 -25 -5 2 -13 -8 -18 -21 -6 -18 -4 -27 9 -38 10 -8 12 -12 6
-8 -8 4 -13 0 -13 -10 0 -9 4 -14 9 -10 5 3 12 1 16 -5 3 -5 1 -10 -5 -10 -6
0 -9 -8 -6 -18 4 -12 1 -19 -8 -19 -9 0 -13 4 -10 9 3 5 1 15 -5 22 -7 8 -11
18 -10 22 1 5 -3 22 -10 39 -9 21 -9 36 -2 52 8 18 7 21 -4 16 -8 -3 -15 -16
-15 -30 0 -15 -4 -22 -11 -17 -8 5 -10 -3 -7 -25 2 -17 0 -31 -5 -31 -6 0 -7
20 -4 47 4 43 4 45 -8 24 -7 -13 -10 -33 -7 -44 3 -14 1 -18 -6 -13 -16 9 -15
-7 0 -22 9 -9 9 -12 0 -12 -7 0 -12 -8 -13 -17 0 -15 -3 -14 -16 5 -8 12 -23
22 -33 22 -22 0 -39 46 -30 80 4 14 28 56 54 93 25 38 46 74 47 80 0 7 3 5 6
-3 3 -8 17 -25 31 -37z m31 25 c1 12 6 22 11 22 16 0 26 -33 12 -38 -7 -2 -10
-7 -7 -12 3 -4 -4 -6 -15 -3 -14 4 -20 13 -19 32 l1 26 8 -25 c8 -24 8 -24 9
-2z m195 10 c-3 -4 -1 -8 5 -8 5 0 11 3 14 8 2 4 2 1 1 -5 -3 -13 22 -31 71
-49 17 -7 29 -17 27 -24 -1 -6 3 -10 10 -8 7 3 15 13 16 23 3 10 0 15 -7 11
-6 -4 -11 -3 -11 2 0 6 -12 13 -27 17 -33 8 -53 23 -53 39 0 6 5 3 11 -7 10
-18 11 -18 32 0 11 10 17 12 13 6 -4 -7 -2 -13 4 -13 6 0 8 -4 5 -10 -8 -13
21 -13 47 1 18 10 24 8 35 -7 8 -11 17 -17 20 -14 3 3 11 -9 17 -27 14 -42 25
-51 37 -33 8 12 9 9 5 -10 -3 -14 -6 -35 -6 -47 0 -13 -5 -23 -11 -23 -7 0 -8
11 -4 31 5 22 4 29 -4 25 -7 -5 -14 4 -17 23 -4 17 -11 31 -16 31 -5 0 -6 -4
-3 -10 3 -5 3 -10 -2 -11 -4 0 -16 -2 -25 -4 -10 -2 -18 2 -18 8 0 7 -5 5 -10
-3 -14 -22 -12 -33 4 -27 16 6 24 -8 22 -41 -1 -23 -21 -32 -21 -9 -1 6 -6 11
-13 10 -11 -3 -16 10 -13 30 1 5 -3 5 -9 2 -8 -5 -6 -15 5 -31 8 -13 12 -24 8
-24 -5 0 -2 -4 5 -9 18 -11 24 -64 7 -57 -7 2 -15 -4 -18 -15 -3 -10 -11 -19
-17 -19 -8 0 -10 9 -6 26 6 23 5 24 -14 14 -21 -11 -25 -4 -11 19 5 8 14 10
21 6 8 -5 11 -4 6 3 -3 6 -2 13 3 17 7 4 6 15 -1 31 -8 18 -17 24 -31 20 -10
-2 -26 -2 -34 1 -12 5 -12 8 -1 15 9 7 8 8 -6 4 -10 -4 -25 -1 -32 5 -22 18
-16 31 9 18 19 -11 20 -10 10 3 -15 18 -7 28 21 28 15 0 17 3 8 12 -9 9 -15 9
-24 0 -9 -9 -17 -4 -35 20 -21 29 -29 30 -23 3 1 -5 -4 -5 -10 2 -10 9 -9 15
1 26 14 15 42 19 33 5z m233 -3 c12 -1 29 -7 37 -14 13 -11 16 -11 16 -1 0 7
9 3 20 -10 26 -31 25 -46 -4 -46 -18 0 -22 4 -18 21 4 19 4 19 -10 1 -10 -13
-17 -15 -22 -8 -4 7 -4 17 -1 22 3 6 2 10 -4 10 -6 0 -25 9 -43 21 -18 12 -24
18 -13 14 11 -5 30 -9 42 -10z m126 -43 c-4 -10 -2 -13 5 -8 7 4 12 2 12 -4 0
-7 -7 -10 -15 -6 -16 6 -21 -14 -6 -30 6 -5 3 -15 -7 -24 -14 -13 -15 -12 -9
3 3 9 2 19 -3 22 -6 4 -10 -13 -10 -39 0 -43 -11 -59 -25 -36 -4 6 -11 8 -16
5 -5 -4 -9 1 -9 9 0 20 17 29 24 14 4 -7 4 -3 2 10 -2 12 0 22 5 22 4 0 5 7 2
17 -4 11 -3 14 5 9 6 -4 17 5 26 22 14 27 13 30 -7 53 l-22 23 27 -23 c16 -14
24 -29 21 -39z m184 36 c-3 -8 -6 -5 -6 6 -1 11 2 17 5 13 3 -3 4 -12 1 -19z
m-835 -20 c-7 -7 -12 -8 -12 -2 0 14 12 26 19 19 2 -3 -1 -11 -7 -17z m729
-31 c-10 -9 -11 -8 -5 6 3 10 9 15 12 12 3 -3 0 -11 -7 -18z m-448 -3 c4 -1
13 -2 20 -3 6 -1 3 -7 -8 -13 -21 -13 -30 -13 -30 0 0 4 -4 13 -9 21 -7 11 -6
12 5 5 8 -5 17 -9 22 -10z m2 -50 c22 -18 34 -34 27 -34 -7 0 -10 -4 -7 -10 3
-5 1 -10 -4 -10 -6 0 -11 5 -11 11 0 16 -25 37 -54 45 -29 7 -40 19 -32 33 9
15 38 2 81 -35z m-118 -16 c-3 -8 -6 -5 -6 6 -1 11 2 17 5 13 3 -3 4 -12 1
-19z m340 -7 c-1 -17 -5 -27 -9 -23 -7 7 0 52 8 52 2 0 2 -13 1 -29z m-857 3
c0 -8 -4 -12 -10 -9 -5 3 -10 10 -10 16 0 5 5 9 10 9 6 0 10 -7 10 -16z m-135
-4 c3 -5 2 -10 -4 -10 -5 0 -13 5 -16 10 -3 6 -2 10 4 10 5 0 13 -4 16 -10z
m1142 -12 c-3 -8 -6 -5 -6 6 -1 11 2 17 5 13 3 -3 4 -12 1 -19z m-430 -8 c14
-12 20 -27 16 -42 -4 -22 -4 -23 11 -4 13 16 19 17 28 8 9 -9 8 -12 -5 -12
-12 0 -17 -8 -17 -26 0 -14 -4 -23 -9 -19 -5 3 -12 1 -16 -4 -3 -5 3 -14 12
-20 15 -9 16 -10 2 -11 -9 0 -21 11 -27 25 -15 32 -16 89 -2 80 18 -11 10 7
-12 26 -11 11 -17 19 -11 19 5 0 19 -9 30 -20z m163 1 c0 -5 3 -18 7 -28 3
-10 3 -15 -2 -11 -12 12 -35 -12 -35 -36 -1 -19 -2 -19 -11 -3 -5 9 -7 22 -4
28 4 6 -1 16 -10 23 -16 12 -16 13 -1 19 9 4 16 2 16 -3 0 -6 5 -10 10 -10 6
0 9 3 9 8 -3 14 1 22 11 22 6 0 10 -4 10 -9z m321 -14 c-10 -9 -11 -8 -5 6 3
10 9 15 12 12 3 -3 0 -11 -7 -18z m-539 -27 c2 -16 -1 -31 -7 -33 -7 -3 -9 7
-7 29 5 42 8 43 14 4z m21 10 c3 -11 1 -20 -4 -20 -5 0 -9 9 -9 20 0 11 2 20
4 20 2 0 6 -9 9 -20z m354 -21 c-5 -3 -2 -9 7 -12 11 -4 18 1 22 18 7 29 24
34 24 8 0 -14 2 -15 9 -4 11 17 23 -2 15 -24 -4 -9 -13 -14 -20 -11 -15 6 -19
-9 -5 -18 4 -3 7 -17 5 -32 -4 -38 -11 -39 -12 -3 0 18 -4 35 -9 40 -12 12
-37 -6 -29 -20 4 -6 12 -9 17 -6 5 4 9 1 9 -4 0 -6 -4 -11 -10 -11 -19 0 -59
23 -64 37 -3 8 -2 12 3 9 9 -6 21 16 21 36 0 7 -5 7 -13 -1 -8 -6 -17 -8 -20
-4 -4 3 -7 1 -7 -5 0 -7 -5 -12 -11 -12 -8 0 -8 5 1 15 7 8 16 13 20 10 4 -3
10 5 13 16 5 20 6 20 24 2 11 -10 15 -21 10 -24z m-684 11 c3 -11 1 -18 -4
-14 -5 3 -9 12 -9 20 0 20 7 17 13 -6z m807 -9 c8 -15 8 -21 1 -17 -6 4 -11 0
-11 -10 0 -13 -3 -15 -11 -7 -5 5 -7 22 -3 37 3 15 8 26 9 24 1 -2 8 -14 15
-27z m-1047 -35 c-11 -6 -12 -10 -3 -16 8 -5 7 -9 -4 -13 -12 -5 -16 0 -16 19
0 14 4 22 10 19 6 -3 10 2 10 12 0 15 2 16 10 3 6 -10 4 -17 -7 -24z m691 -25
c8 -11 8 -15 -1 -18 -9 -3 -10 -10 -3 -24 9 -15 8 -17 -6 -12 -11 4 -14 14
-10 34 4 19 2 28 -6 26 -7 -1 -13 7 -15 18 -3 16 -2 17 6 5 9 -13 11 -12 12 5
l1 20 5 -20 c3 -11 10 -26 17 -34z m-397 20 c0 -11 -5 -18 -9 -15 -4 3 -5 11
-1 19 7 21 12 19 10 -4z m279 -34 c2 -34 0 -37 -6 -17 -4 14 -9 18 -9 10 -1
-12 -3 -13 -10 -1 -6 9 -3 20 7 32 9 11 17 19 17 19 0 0 1 -19 1 -43z m-136
18 c0 -7 -8 -19 -17 -24 -17 -10 -16 -11 2 -12 11 -1 28 -2 38 -2 13 0 17 -5
14 -18 -3 -11 -1 -17 3 -14 5 3 11 -9 15 -26 7 -31 7 -31 19 -8 12 24 56 34
56 12 0 -7 -6 -13 -14 -13 -9 0 -12 -8 -8 -25 2 -15 9 -22 16 -18 6 3 2 -3 -8
-15 -11 -12 -16 -25 -11 -30 4 -4 10 -1 12 6 3 6 9 9 15 6 7 -4 6 -9 -2 -14
-8 -5 -9 -16 -4 -31 l7 -24 13 30 c7 17 11 44 8 61 -3 18 -1 35 5 38 6 4 11
15 11 24 0 13 -2 14 -9 4 -7 -11 -9 -11 -14 2 -4 9 -1 15 6 13 7 -1 11 7 9 18
-2 18 -1 18 18 -4 20 -24 27 -47 11 -37 -9 6 -21 -26 -21 -59 0 -17 2 -17 10
-5 8 12 10 11 10 -7 0 -14 -6 -23 -15 -23 -14 0 -18 -14 -18 -70 0 -15 -2 -18
-4 -7 -3 9 -10 17 -17 17 -8 0 -21 15 -30 33 -12 25 -16 28 -17 12 0 -13 -2
-15 -6 -6 -4 10 -10 5 -20 -15 -7 -16 -11 -21 -8 -11 3 10 0 27 -6 39 -10 19
-11 19 -25 1 -9 -11 -8 -4 3 19 13 26 19 31 21 18 3 -17 30 -35 39 -26 3 2 6
27 7 56 2 31 0 48 -6 42 -5 -5 -10 -19 -11 -31 -2 -25 -12 -27 -22 -3 -6 16
-7 16 -16 0 -6 -10 -19 -18 -29 -18 -11 0 -20 -5 -20 -11 0 -5 5 -7 10 -4 6 3
10 1 10 -4 0 -6 -9 -11 -21 -11 -15 0 -19 5 -15 16 3 8 2 12 -4 9 -5 -3 -8
-18 -6 -33 2 -15 1 -21 -1 -13 -4 9 -7 10 -12 3 -4 -6 -8 9 -9 34 -1 42 -21
99 -22 65 0 -8 -2 -12 -5 -9 -9 9 6 38 16 32 5 -3 1 9 -11 28 -27 44 -25 60 3
25 l22 -28 18 30 c19 33 37 41 37 16z m23 0 c-3 -9 -8 -14 -10 -11 -3 3 -2 9
2 15 9 16 15 13 8 -4z m548 -12 c-12 -20 -14 -14 -5 12 4 9 9 14 11 11 3 -2 0
-13 -6 -23z m-1041 -3 c0 -11 -2 -20 -5 -20 -2 0 -9 9 -15 20 -9 16 -8 20 5
20 8 0 15 -9 15 -20z m1125 10 c3 -5 1 -10 -4 -10 -6 0 -11 5 -11 10 0 6 2 10
4 10 3 0 8 -4 11 -10z m-758 -37 c0 -16 -2 -22 -4 -16 -3 8 -14 11 -29 7 -18
-5 -24 -3 -22 7 2 8 -3 13 -10 11 -8 -1 -11 2 -7 8 5 8 14 5 28 -7 18 -16 20
-16 14 -1 -3 9 -1 19 6 21 19 7 25 0 24 -30z m390 5 c-3 -8 -6 -5 -6 6 -1 11
2 17 5 13 3 -3 4 -12 1 -19z m90 -5 c-9 -20 -13 -23 -15 -10 -2 9 -11 18 -20
18 -9 1 -3 5 13 9 17 4 31 8 32 9 2 0 -3 -11 -10 -26z m-159 -8 c-3 -30 -2
-29 -24 -8 -16 17 -13 22 23 32 2 1 2 -10 1 -24z m282 -7 c0 -16 -3 -19 -11
-11 -6 6 -8 16 -5 22 11 17 16 13 16 -11z m-685 2 c3 -5 1 -10 -4 -10 -6 0
-11 5 -11 10 0 6 2 10 4 10 3 0 8 -4 11 -10z m531 -2 c3 -5 1 -15 -5 -21 -6
-6 -11 -20 -11 -31 0 -17 -2 -18 -9 -7 -6 9 -6 22 0 32 13 25 11 33 -4 20 -10
-8 -14 -7 -14 2 0 16 34 20 43 5z m239 -14 c9 -15 12 -23 6 -20 -11 7 -35 46
-28 46 3 0 12 -12 22 -26z m-1057 -19 c0 -30 -7 -28 -13 4 -2 11 0 21 4 21 5
0 9 -11 9 -25z m866 -43 c0 -1 -9 0 -18 4 -9 3 -16 16 -15 28 0 20 1 20 9 1 7
-17 9 -16 11 10 2 30 2 30 8 -5 4 -19 6 -36 5 -38z m-140 43 c-7 -16 -24 -21
-24 -6 0 8 7 13 27 20 1 1 0 -6 -3 -14z m-364 -5 c0 -5 -7 -7 -15 -4 -8 4 -15
8 -15 10 0 2 7 4 15 4 8 0 15 -4 15 -10z m407 -42 c-3 -7 -5 -2 -5 12 0 14 2
19 5 13 2 -7 2 -19 0 -25z m134 20 c0 -10 2 -10 6 0 2 6 9 10 14 6 13 -8 11
-24 -2 -21 -6 1 -14 -4 -17 -12 -3 -10 0 -12 11 -8 8 3 18 0 20 -7 3 -8 -3
-12 -16 -11 -14 1 -22 9 -22 21 -1 10 -4 25 -8 32 -5 6 -4 12 2 12 6 0 11 -6
12 -12z m-216 -8 c3 -5 1 -10 -4 -10 -6 0 -11 5 -11 10 0 6 2 10 4 10 3 0 8
-4 11 -10z m-405 -15 c-7 -9 -15 -13 -17 -11 -7 7 7 26 19 26 6 0 6 -6 -2 -15z
m50 4 c0 -5 -4 -7 -10 -4 -5 3 -10 1 -10 -6 0 -7 -3 -10 -6 -6 -8 7 4 27 17
27 5 0 9 -5 9 -11z m410 1 c0 -5 -7 -7 -15 -4 -8 4 -15 8 -15 10 0 2 7 4 15 4
8 0 15 -4 15 -10z m-730 -6 c0 -8 -19 -13 -24 -6 -3 5 1 9 9 9 8 0 15 -2 15
-3z m870 -15 c0 -5 -4 -7 -10 -4 -13 8 -13 -7 0 -23 5 -7 3 -6 -6 2 -9 8 -13
19 -10 25 9 14 26 14 26 0z m-593 -21 c-3 -8 -6 -5 -6 6 -1 11 2 17 5 13 3 -3
4 -12 1 -19z m697 1 c-3 -5 -13 -9 -22 -8 -11 0 -12 2 -4 6 6 2 10 9 7 14 -4
5 1 6 9 3 9 -3 13 -10 10 -15z m-151 -3 c3 4 5 -3 4 -15 -2 -27 -17 -22 -29 8
-7 20 -6 22 5 12 8 -6 17 -8 20 -5z m-368 -15 c3 -5 1 -12 -5 -16 -5 -3 -10 1
-10 9 0 18 6 21 15 7z m542 -14 c3 -4 -1 -7 -11 -7 -9 0 -14 -4 -11 -10 8 -13
-5 -13 -25 0 -13 9 -13 10 0 10 13 0 13 1 0 10 -11 7 -8 8 13 6 15 -1 30 -6
34 -9z m-260 -39 c-3 -7 -5 -2 -5 12 0 14 2 19 5 13 2 -7 2 -19 0 -25z m-415
-10 c-8 -8 -9 -4 -5 13 4 13 8 18 11 10 2 -7 -1 -18 -6 -23z m144 5 c-10 -10
-19 5 -10 18 6 11 8 11 12 0 2 -7 1 -15 -2 -18z m409 17 c13 -6 15 -9 5 -9 -8
0 -22 4 -30 9 -18 12 -2 12 25 0z m-514 -14 c5 3 9 0 9 -6 0 -15 -23 -7 -26 8
-1 7 0 8 3 2 2 -5 9 -8 14 -4z m42 -26 c-3 -12 -8 -19 -11 -16 -5 6 5 36 12
36 2 0 2 -9 -1 -20z m-53 -10 c0 -5 -5 -10 -11 -10 -5 0 -7 5 -4 10 3 6 8 10
11 10 2 0 4 -4 4 -10z m27 -22 c-3 -8 -6 -5 -6 6 -1 11 2 17 5 13 3 -3 4 -12
1 -19z m256 -13 c-3 -9 -8 -14 -10 -11 -3 3 -2 9 2 15 9 16 15 13 8 -4z m84
-9 c0 -8 -6 -12 -15 -9 -11 5 -11 7 0 14 7 5 13 9 14 9 0 0 1 -6 1 -14z m-307
-16 c0 -5 -2 -10 -4 -10 -3 0 -8 5 -11 10 -3 6 -1 10 4 10 6 0 11 -4 11 -10z
m-35 -60 c10 -11 16 -20 13 -20 -3 0 -13 9 -23 20 -10 11 -16 20 -13 20 3 0
13 -9 23 -20z"/>
<path d="M743 2360 c8 -14 23 -26 33 -27 13 -2 15 -1 4 4 -8 3 -23 16 -33 27
-19 21 -19 21 -4 -4z"/>
<path d="M1143 2293 c9 -2 23 -2 30 0 6 3 -1 5 -18 5 -16 0 -22 -2 -12 -5z"/>
<path d="M590 2280 c-20 -6 -21 -8 -5 -8 11 0 29 3 40 8 25 11 -1 11 -35 0z"/>
<path d="M1210 2280 c13 -9 109 -15 99 -6 -2 2 -29 6 -59 10 -38 4 -50 3 -40
-4z"/>
<path d="M489 2250 c-52 -21 -120 -60 -104 -60 6 0 19 6 30 14 11 7 48 24 83
36 34 12 62 24 62 26 0 8 -26 2 -71 -16z"/>
<path d="M924 2425 c-10 -8 -14 -15 -8 -15 5 0 19 7 30 15 10 8 14 15 8 15 -5
0 -19 -7 -30 -15z"/>
<path d="M518 2352 c-26 -25 -48 -50 -48 -56 0 -6 7 -3 15 8 7 10 18 15 23 12
5 -3 18 4 28 15 10 11 24 17 31 15 7 -3 15 -1 18 4 9 14 25 12 23 -2 -2 -6 7
-12 20 -12 12 0 21 4 20 9 -1 6 -8 9 -15 7 -7 -2 -10 5 -8 18 2 11 1 20 -3 21
-52 6 -59 4 -104 -39z m57 28 c-9 -14 8 -12 25 3 8 6 6 2 -5 -11 -12 -14 -21
-19 -23 -12 -3 7 -17 0 -36 -17 -29 -26 -29 -25 3 10 34 36 48 47 36 27z"/>
<path d="M1667 2205 c3 -8 9 -12 14 -9 12 7 11 11 -5 17 -10 4 -13 1 -9 -8z"/>
<path d="M852 980 c0 -14 2 -19 5 -12 2 6 2 18 0 25 -3 6 -5 1 -5 -13z"/>
<path d="M643 687 c-13 -18 -30 -43 -39 -57 l-16 -25 22 25 c13 14 28 24 34
22 6 -2 8 0 3 4 -4 4 0 18 9 32 24 36 12 35 -13 -1z"/>
<path d="M1550 755 c0 -8 4 -15 10 -15 5 0 7 7 4 15 -4 8 -8 15 -10 15 -2 0
-4 -7 -4 -15z"/>
<path d="M685 600 c-3 -5 -1 -10 4 -10 6 0 11 5 11 10 0 6 -2 10 -4 10 -3 0
-8 -4 -11 -10z"/>
<path d="M691 524 c0 -11 3 -14 6 -6 3 7 2 16 -1 19 -3 4 -6 -2 -5 -13z"/>
<path d="M645 500 c3 -5 8 -10 11 -10 2 0 4 5 4 10 0 6 -5 10 -11 10 -5 0 -7
-4 -4 -10z"/>
<path d="M691 484 c0 -11 3 -14 6 -6 3 7 2 16 -1 19 -3 4 -6 -2 -5 -13z"/>
<path d="M1006 687 c3 -10 9 -15 12 -12 3 3 0 11 -7 18 -10 9 -11 8 -5 -6z"/>
<path d="M1079 642 c9 -7 10 -11 2 -15 -7 -4 -8 -5 0 -3 15 2 13 20 -3 24 -10
3 -10 2 1 -6z"/>
<path d="M1131 504 c0 -11 3 -14 6 -6 3 7 2 16 -1 19 -3 4 -6 -2 -5 -13z"/>
<path d="M1247 701 c6 -7 9 -20 6 -27 -3 -8 -3 -14 0 -14 14 0 14 30 -1 41
-14 11 -15 11 -5 0z"/>
<path d="M1286 675 c4 -8 11 -15 16 -15 6 0 5 6 -2 15 -7 8 -14 15 -16 15 -2
0 -1 -7 2 -15z"/>
<path d="M920 496 c0 -22 3 -27 11 -19 8 8 8 16 0 30 -9 16 -10 14 -11 -11z"/>
<path d="M737 402 c7 -4 18 -23 26 -41 13 -30 15 -31 20 -12 3 12 1 19 -4 16
-4 -3 -11 6 -15 20 -3 14 -13 25 -23 25 -11 0 -12 -3 -4 -8z"/>
<path d="M745 339 c-4 -6 -5 -12 -2 -15 2 -3 7 2 10 11 7 17 1 20 -8 4z"/>
<path d="M330 1770 c0 -5 12 -10 28 -9 24 0 25 1 7 9 -27 12 -35 12 -35 0z"/>
<path d="M1200 1741 c0 -5 7 -11 14 -14 10 -4 13 -1 9 9 -6 15 -23 19 -23 5z"/>
<path d="M1232 1705 c4 -4 3 -16 -3 -26 -5 -11 -7 -19 -5 -19 3 0 10 9 16 19
7 15 7 22 -2 27 -7 4 -10 4 -6 -1z"/>
<path d="M840 1670 c13 -24 7 -25 -25 -4 -21 13 -28 14 -41 4 -8 -7 -13 -19
-10 -27 3 -7 1 -13 -4 -13 -6 0 -10 7 -10 16 0 8 -4 13 -10 9 -6 -4 -6 -15 0
-30 9 -24 8 -25 -28 -25 -20 0 -32 -4 -25 -8 8 -5 8 -12 -2 -25 -7 -10 -17
-18 -22 -18 -4 1 -8 -3 -8 -8 0 -5 -3 -13 -7 -17 -12 -12 -9 -26 4 -18 7 4 8
3 4 -4 -8 -14 14 -52 31 -52 7 0 13 -4 13 -10 0 -5 5 -10 11 -10 5 0 7 4 4 10
-7 12 82 110 100 110 7 0 18 7 25 15 7 8 21 15 32 15 28 0 78 -28 78 -44 0 -8
5 -16 11 -18 5 -2 7 -11 4 -21 -7 -16 -9 -15 -35 3 -36 25 -70 25 -120 0 -46
-24 -57 -38 -40 -53 9 -8 11 -8 7 -1 -12 21 56 63 69 43 3 -5 1 -16 -5 -23
-14 -17 12 -30 42 -20 16 5 17 8 6 15 -19 12 -32 11 -24 -1 3 -5 1 -10 -5 -10
-7 0 -10 6 -8 12 5 14 88 21 88 8 0 -5 -7 -15 -15 -24 -8 -8 -11 -17 -6 -20 5
-3 11 1 15 9 3 8 10 15 16 15 6 0 8 -4 5 -10 -10 -16 11 -12 25 5 7 8 21 15
32 15 13 0 18 5 15 14 -3 7 -1 19 4 25 5 6 7 9 4 7 -3 -2 -19 8 -34 23 -45 41
-58 50 -65 44 -3 -3 -8 1 -12 10 -3 9 -19 19 -35 22 -16 4 -29 11 -29 17 0 6
3 9 6 5 12 -12 33 17 22 31 -8 9 -4 12 17 12 42 0 27 8 -28 14 -45 5 -47 5
-37 -14z"/>
<path d="M929 1649 c-11 -7 -11 -9 -1 -9 7 0 10 -4 7 -10 -3 -6 1 -7 10 -4 10
4 14 2 10 -8 -4 -9 0 -15 10 -15 8 0 15 5 15 10 0 6 5 5 13 -1 31 -25 87 -50
92 -42 4 6 -2 10 -11 10 -10 0 -14 3 -11 7 7 7 -38 33 -58 33 -7 0 -15 6 -18
14 -7 17 -41 26 -58 15z"/>
<path d="M315 1640 c-3 -5 -2 -10 4 -10 5 0 13 5 16 10 3 6 2 10 -4 10 -5 0
-13 -4 -16 -10z"/>
<path d="M351 1646 c2 -2 18 -6 34 -10 22 -5 26 -4 15 4 -14 9 -59 15 -49 6z"/>
<path d="M1486 1571 c-4 -5 -2 -12 3 -15 5 -4 12 -2 15 3 4 5 2 12 -3 15 -5 4
-12 2 -15 -3z"/>
<path d="M1501 1536 c-6 -8 -11 -18 -10 -22 1 -5 -2 -17 -6 -28 -5 -10 -4 -25
1 -34 11 -17 62 -23 71 -8 3 5 1 6 -5 2 -6 -3 -14 -1 -18 5 -4 8 -3 9 4 5 16
-9 15 7 0 22 -7 7 -8 12 -3 12 4 0 0 10 -11 21 -19 22 -19 22 4 10 12 -6 22
-16 22 -21 0 -5 8 -7 18 -4 13 4 14 3 4 -4 -10 -6 -12 -20 -7 -43 4 -19 7 -50
6 -69 -1 -25 2 -31 8 -21 5 8 8 41 6 73 -2 41 1 56 9 51 6 -4 5 1 -3 10 -7 9
-11 26 -8 37 4 17 2 18 -14 9 -13 -6 -19 -6 -19 1 0 15 -36 12 -49 -4z"/>
<path d="M345 1465 c-29 -28 -31 -38 -10 -55 17 -14 21 0 5 16 -8 8 -6 15 6
24 19 16 54 24 54 12 0 -5 14 -9 31 -9 18 0 37 -7 44 -16 7 -9 15 -14 18 -10
11 11 8 23 -6 23 -7 0 -20 9 -30 20 -25 29 -81 27 -112 -5z"/>
<path d="M376 1435 c4 -8 8 -15 10 -15 2 0 4 7 4 15 0 8 -4 15 -10 15 -5 0 -7
-7 -4 -15z"/>
<path d="M417 1444 c-15 -15 -6 -32 13 -27 12 3 19 10 17 16 -4 14 -21 19 -30
11z"/>
<path d="M1222 1410 c0 -14 2 -19 5 -12 2 6 2 18 0 25 -3 6 -5 1 -5 -13z"/>
<path d="M1490 1411 c0 -5 7 -12 16 -15 14 -5 15 -4 4 9 -14 17 -20 19 -20 6z"/>
<path d="M625 1399 c-4 -6 -5 -12 -2 -15 2 -3 7 2 10 11 7 17 1 20 -8 4z"/>
<path d="M1607 1346 c-4 -10 -7 -25 -6 -34 0 -11 4 -9 10 7 5 13 8 29 6 35 -2
5 -6 2 -10 -8z"/>
<path d="M1545 1339 c-5 -8 -4 -10 3 -5 15 9 15 5 2 -28 -6 -17 -6 -26 0 -26
14 0 24 50 12 62 -6 6 -12 6 -17 -3z"/>
<path d="M240 1312 c0 -24 49 -152 50 -129 0 10 -7 31 -15 48 -9 16 -17 43
-18 59 -1 17 -5 30 -9 30 -5 0 -8 -3 -8 -8z"/>
<path d="M1591 1274 c0 -11 3 -14 6 -6 3 7 2 16 -1 19 -3 4 -6 -2 -5 -13z"/>
<path d="M1561 1224 c-13 -13 -27 -24 -31 -24 -5 0 -12 -9 -15 -20 -4 -11 -11
-18 -16 -15 -5 4 -9 2 -9 -3 0 -6 7 -12 15 -16 9 -3 15 0 15 10 0 9 17 31 37
50 20 19 35 36 32 38 -2 3 -15 -6 -28 -20z"/>
<path d="M1198 1172 c-4 -12 -2 -20 2 -17 5 3 13 -1 17 -10 8 -14 11 -14 28 1
11 8 14 13 8 9 -7 -3 -13 -1 -13 4 0 6 -6 11 -14 11 -8 0 -16 6 -18 12 -3 7
-7 2 -10 -10z"/>
<path d="M1192 1096 c2 -12 8 -21 13 -21 6 0 11 9 13 21 2 13 -3 21 -13 21
-10 0 -15 -8 -13 -21z"/>
<path d="M291 1094 c0 -11 3 -14 6 -6 3 7 2 16 -1 19 -3 4 -6 -2 -5 -13z"/>
<path d="M219 1053 c-15 -35 -36 -103 -23 -76 4 9 11 10 25 3 13 -8 19 -7 19
0 0 6 5 8 12 4 8 -5 9 0 6 14 -4 12 -2 20 3 16 5 -3 9 -1 9 4 0 6 -7 12 -15
16 -11 4 -14 13 -9 31 9 38 -9 30 -27 -12z"/>
<path d="M485 1060 c3 -5 8 -10 11 -10 2 0 4 5 4 10 0 6 -5 10 -11 10 -5 0 -7
-4 -4 -10z"/>
<path d="M295 1050 c-3 -5 -1 -10 4 -10 6 0 11 5 11 10 0 6 -2 10 -4 10 -3 0
-8 -4 -11 -10z"/>
<path d="M323 1031 c1 -14 9 -26 17 -28 10 -3 11 -2 4 4 -7 4 -14 17 -17 28
-5 16 -5 15 -4 -4z"/>
<path d="M385 1030 c-3 -5 -1 -10 4 -10 6 0 11 5 11 10 0 6 -2 10 -4 10 -3 0
-8 -4 -11 -10z"/>
<path d="M1210 1008 c0 -6 3 -8 7 -5 3 4 13 1 22 -6 14 -11 14 -10 2 6 -15 20
-31 22 -31 5z"/>
<path d="M370 989 c0 -5 5 -7 10 -4 6 3 10 8 10 11 0 2 -4 4 -10 4 -5 0 -10
-5 -10 -11z"/>
<path d="M210 960 c0 -5 7 -10 16 -10 8 0 12 5 9 10 -3 6 -10 10 -16 10 -5 0
-9 -4 -9 -10z"/>
<path d="M349 931 c-1 -3 -1 -10 0 -15 1 -5 -5 -6 -13 -3 -18 7 -31 -9 -16
-18 6 -4 8 -11 5 -16 -11 -16 7 -10 22 9 28 35 33 49 17 49 -7 0 -15 -3 -15
-6z"/>
<path d="M350 840 c0 -5 -6 -7 -14 -4 -10 4 -12 -2 -8 -22 l5 -28 10 25 9 24
9 -22 c13 -34 20 -28 8 7 -11 30 -19 39 -19 20z"/>
<path d="M325 760 c3 -5 8 -10 11 -10 2 0 4 5 4 10 0 6 -5 10 -11 10 -5 0 -7
-4 -4 -10z"/>
<path d="M180 715 c0 -8 2 -15 4 -15 2 0 6 7 10 15 3 8 1 15 -4 15 -6 0 -10
-7 -10 -15z"/>
<path d="M361 714 c0 -11 3 -14 6 -6 3 7 2 16 -1 19 -3 4 -6 -2 -5 -13z"/>
<path d="M155 680 c-3 -5 -1 -10 4 -10 6 0 11 5 11 10 0 6 -2 10 -4 10 -3 0
-8 -4 -11 -10z"/>
<path d="M326 675 c-3 -8 -1 -15 4 -15 6 0 10 7 10 15 0 8 -2 15 -4 15 -2 0
-6 -7 -10 -15z"/>
<path d="M137 647 c-11 -29 -9 -43 4 -30 6 6 9 19 7 29 -3 18 -4 18 -11 1z"/>
<path d="M298 613 c7 -3 16 -2 19 1 4 3 -2 6 -13 5 -11 0 -14 -3 -6 -6z"/>
<path d="M290 571 c0 -6 5 -13 10 -16 6 -3 10 1 10 9 0 9 -4 16 -10 16 -5 0
-10 -4 -10 -9z"/>
<path d="M262 550 c12 -19 28 -27 28 -14 0 7 -27 34 -34 34 -4 0 -1 -9 6 -20z"/>
<path d="M150 481 c0 -5 5 -13 10 -16 6 -3 10 -2 10 4 0 5 -4 13 -10 16 -5 3
-10 2 -10 -4z"/>
</g>
</svg>
