<?xml version="1.0" standalone="no"?>
<!DOCTYPE svg PUBLIC "-//W3C//DTD SVG 20010904//EN"
 "http://www.w3.org/TR/2001/REC-SVG-20010904/DTD/svg10.dtd">
<svg version="1.0" xmlns="http://www.w3.org/2000/svg"
 width="70.000000pt" height="50.000000pt" viewBox="0 0 70.000000 50.000000"
 preserveAspectRatio="xMidYMid meet">

<g transform="translate(0.000000,50.000000) scale(0.100000,-0.100000)"
fill="#000000" stroke="none">
<path d="M230 289 c-13 -6 -40 -22 -59 -37 -19 -15 -62 -40 -95 -57 -53 -26
-61 -34 -64 -60 -3 -36 0 -41 58 -83 l45 -34 -49 44 c-32 30 -47 51 -45 63 5
23 51 51 100 59 34 6 37 4 49 -24 7 -17 26 -49 41 -70 16 -22 28 -45 27 -52
-3 -11 8 -13 43 -9 6 0 -3 17 -20 36 -17 20 -31 40 -31 46 0 11 80 -28 95 -46
5 -7 24 -16 40 -19 17 -4 37 -17 46 -28 11 -14 22 -19 34 -14 17 6 17 7 1 25
-23 26 -3 38 29 17 17 -11 26 -12 31 -5 4 8 29 10 73 6 48 -5 71 -2 84 7 17
13 16 15 -15 35 -18 11 -44 32 -57 46 -13 14 -35 28 -50 31 -84 19 -104 28
-147 68 -25 24 -63 49 -84 55 -44 13 -47 13 -80 0z"/>
</g>
</svg>
