<?xml version="1.0" standalone="no"?>
<!DOCTYPE svg PUBLIC "-//W3C//DTD SVG 20010904//EN"
 "http://www.w3.org/TR/2001/REC-SVG-20010904/DTD/svg10.dtd">
<svg version="1.0" xmlns="http://www.w3.org/2000/svg"
 width="170.000000pt" height="171.000000pt" viewBox="0 0 170.000000 171.000000"
 preserveAspectRatio="xMidYMid meet">

<g transform="translate(0.000000,171.000000) scale(0.100000,-0.100000)"
fill="#000000" stroke="none">
<path d="M780 1684 c-36 -7 -103 -21 -149 -29 -91 -18 -144 -40 -206 -89 -21
-17 -56 -38 -76 -47 -20 -9 -49 -33 -65 -54 -16 -20 -53 -61 -81 -91 -53 -56
-108 -155 -119 -216 -4 -18 -18 -57 -32 -87 -18 -39 -26 -75 -28 -130 -2 -42
-6 -90 -9 -107 -3 -17 2 -50 10 -74 8 -23 15 -64 15 -91 0 -58 30 -137 74
-199 18 -25 36 -57 39 -72 11 -42 68 -110 122 -146 28 -17 70 -52 95 -76 68
-67 182 -116 270 -116 19 0 60 -9 90 -21 46 -17 71 -20 150 -17 58 2 109 10
130 20 19 9 55 18 78 21 24 3 54 14 65 25 12 10 47 24 78 31 31 6 76 24 100
40 51 33 129 114 129 135 0 8 15 27 34 41 18 14 44 46 57 72 13 26 41 71 61
101 21 31 42 76 48 107 13 62 10 176 -5 173 -5 -2 -9 -10 -7 -18 7 -33 4 -139
-4 -151 -5 -8 -9 -16 -9 -19 -3 -25 -30 -81 -45 -95 -11 -10 -32 -42 -46 -72
-15 -29 -39 -61 -54 -70 -16 -9 -38 -36 -50 -60 -36 -73 -138 -153 -200 -158
-14 -1 -54 -15 -90 -32 -36 -17 -94 -36 -130 -43 -36 -7 -69 -15 -74 -18 -24
-13 -170 -2 -238 19 -40 12 -93 23 -117 26 -24 2 -49 7 -55 10 -6 4 -17 8 -23
9 -7 1 -20 9 -29 18 -19 19 -28 21 -18 3 4 -6 -3 -2 -15 11 -12 12 -28 22 -35
22 -14 0 -69 54 -62 61 3 2 -12 15 -32 29 -87 56 -157 140 -164 193 -3 16 -8
32 -14 35 -36 26 -77 130 -80 206 -2 37 -9 75 -15 82 -11 14 -10 66 6 204 5
47 71 244 96 283 43 72 161 195 212 221 20 10 34 23 31 27 -3 5 3 9 13 9 11 0
35 12 54 26 86 65 191 97 374 114 94 8 187 -5 245 -35 15 -8 30 -11 34 -8 3 4
6 2 6 -4 0 -6 18 -13 39 -17 22 -3 53 -17 69 -31 16 -13 32 -22 36 -18 3 3 6
-1 6 -9 0 -9 14 -21 31 -28 17 -7 53 -34 79 -59 27 -25 65 -57 84 -71 23 -16
48 -49 68 -88 17 -34 35 -65 40 -68 5 -3 6 -14 3 -24 -3 -10 -1 -21 5 -25 24
-15 52 -88 47 -122 -4 -20 1 -49 10 -70 10 -25 14 -59 11 -105 -3 -49 0 -68 9
-68 19 0 27 87 13 139 -6 25 -15 78 -19 116 -6 65 -28 126 -50 140 -5 3 -17
29 -25 58 -20 69 -62 126 -120 164 -26 17 -56 43 -67 57 -12 15 -42 37 -67 50
-26 13 -56 34 -67 46 -26 29 -68 50 -100 50 -14 0 -44 9 -66 21 -47 24 -158
49 -209 48 -19 -1 -64 -7 -100 -15z"/>
<path d="M822 1518 c3 -75 19 -95 28 -37 l5 33 20 -37 c31 -59 40 -52 50 46 6
58 5 67 -9 67 -11 0 -16 -9 -16 -29 0 -43 -14 -45 -33 -6 -9 19 -24 35 -32 35
-13 0 -15 -12 -13 -72z"/>
<path d="M701 1523 c-14 -70 -14 -103 -1 -103 6 0 15 11 20 25 11 28 44 34 54
10 5 -14 36 -22 36 -9 0 17 -74 134 -84 134 -8 0 -18 -23 -25 -57z"/>
<path d="M631 1559 c-118 -47 -182 -81 -178 -93 2 -6 13 -10 25 -9 15 2 28
-10 47 -42 14 -25 32 -45 40 -45 20 0 19 2 -10 59 -23 46 -23 50 -7 63 9 8 28
14 41 14 21 -1 27 -9 40 -48 8 -27 20 -48 28 -48 17 0 16 18 -2 69 -13 37 -13
43 0 47 8 4 15 15 15 25 0 21 -4 22 -39 8z"/>
<path d="M1079 1523 c-33 -84 -39 -107 -30 -116 7 -7 14 -1 21 14 9 21 17 24
45 21 30 -4 36 0 47 23 15 33 3 54 -41 72 -30 13 -32 12 -42 -14z m56 -33 c3
-5 -3 -10 -14 -10 -12 0 -21 5 -21 10 0 6 6 10 14 10 8 0 18 -4 21 -10z"/>
<path d="M1171 1435 c-17 -30 -31 -59 -31 -65 0 -15 16 -12 30 5 20 24 30 17
30 -20 0 -42 18 -47 26 -7 3 15 15 32 27 37 33 15 34 58 1 84 -15 11 -32 21
-39 21 -7 0 -27 -25 -44 -55z m72 0 c7 -16 -8 -29 -23 -20 -15 9 -12 35 4 35
8 0 16 -7 19 -15z"/>
<path d="M396 1431 c-9 -13 45 -154 55 -144 4 4 9 19 11 33 2 21 8 25 35 25
17 0 34 3 38 6 8 8 -103 89 -121 89 -7 0 -15 -4 -18 -9z m54 -51 c0 -5 -2 -10
-4 -10 -3 0 -8 5 -11 10 -3 6 -1 10 4 10 6 0 11 -4 11 -10z"/>
<path d="M762 1383 c-12 -2 -27 -13 -32 -24 -6 -10 -17 -19 -24 -19 -7 0 -45
-16 -84 -35 -85 -43 -172 -131 -209 -214 -14 -31 -30 -64 -34 -73 -5 -9 -12
-35 -15 -58 -8 -51 11 -54 21 -2 24 126 147 276 270 328 34 14 37 14 32 0 -11
-29 0 -17 33 34 29 46 35 50 70 50 22 0 42 5 45 10 6 10 -28 11 -73 3z"/>
<path d="M866 1382 c-4 -7 10 -12 36 -14 l43 -3 113 -180 c61 -99 163 -259
226 -355 62 -96 125 -194 140 -217 l26 -43 -83 0 c-46 0 -88 4 -95 10 -7 5 -2
-2 11 -15 22 -25 27 -26 120 -23 l96 3 -31 50 c-17 28 -59 93 -93 145 -161
245 -345 533 -345 541 0 5 4 9 9 9 19 0 133 -84 166 -123 45 -52 101 -163 110
-217 4 -23 10 -39 13 -35 10 10 1 95 -14 128 -34 77 -103 177 -122 177 -11 0
-125 89 -130 102 -2 4 -18 8 -35 8 -19 0 -41 9 -57 25 -29 28 -93 44 -104 27z"/>
<path d="M1298 1374 c-32 -17 -48 -43 -48 -76 0 -54 65 -66 112 -21 35 33 37
75 6 97 -27 19 -35 19 -70 0z m62 -45 c0 -23 -44 -53 -65 -45 -23 8 -18 32 11
55 29 23 54 18 54 -10z"/>
<path d="M320 1357 c0 -7 5 -18 11 -24 7 -7 9 -19 5 -28 -6 -16 -8 -16 -30 -1
-21 13 -26 13 -36 1 -9 -11 0 -22 43 -54 70 -53 104 -56 56 -5 -21 23 -19 44
5 44 8 0 19 -7 26 -15 7 -8 16 -15 21 -15 20 0 7 27 -33 67 -42 43 -68 54 -68
30z"/>
<path d="M1406 1239 c-44 -33 -56 -36 -56 -14 0 8 -7 15 -15 15 -19 0 -20 -34
0 -50 17 -14 45 -6 98 27 35 22 44 43 21 49 -5 1 -27 -11 -48 -27z"/>
<path d="M235 1249 c-7 -10 20 -36 40 -40 6 -1 -10 -5 -35 -8 -68 -9 -65 -33
9 -71 70 -35 71 -35 71 -15 0 9 -12 21 -27 28 -27 12 -27 12 16 17 25 3 46 10
48 16 2 6 -21 27 -52 47 -61 41 -61 41 -70 26z"/>
<path d="M650 1220 c-6 -11 -8 -20 -6 -20 3 0 10 9 16 20 6 11 8 20 6 20 -3 0
-10 -9 -16 -20z"/>
<path d="M756 1101 c-47 -77 -89 -147 -92 -155 -5 -14 16 -16 185 -16 107 0
191 4 191 9 0 14 -182 301 -190 301 -4 0 -46 -63 -94 -139z m194 -26 l80 -130
-161 -3 c-89 -1 -164 0 -167 2 -6 7 151 267 160 264 4 -2 43 -61 88 -133z"/>
<path d="M1455 1198 c-11 -6 -37 -22 -57 -35 l-38 -23 17 -35 c9 -19 20 -35
24 -35 15 0 20 20 9 39 -14 27 8 41 26 17 16 -22 34 -13 27 13 -8 30 14 34 29
5 15 -30 34 -29 30 1 -3 23 -29 65 -40 65 -4 0 -16 -6 -27 -12z"/>
<path d="M624 1178 c-4 -7 -14 -24 -22 -38 -14 -24 -13 -24 3 -5 20 24 37 55
31 55 -3 0 -8 -6 -12 -12z"/>
<path d="M158 1094 c-19 -19 -4 -42 50 -76 32 -21 62 -38 65 -38 13 0 7 23 -9
34 -19 15 -8 46 16 46 18 0 36 17 28 25 -8 9 -143 17 -150 9z"/>
<path d="M1453 1075 c-37 -16 -51 -52 -33 -84 10 -21 40 -28 54 -14 4 4 -3 15
-16 25 -23 18 -23 19 -4 33 37 28 93 12 67 -19 -8 -10 -7 -17 5 -27 19 -16 34
2 34 42 0 47 -53 69 -107 44z"/>
<path d="M520 1010 c-6 -11 -8 -20 -6 -20 3 0 10 9 16 20 6 11 8 20 6 20 -3 0
-10 -9 -16 -20z"/>
<path d="M126 981 c-4 -6 4 -22 18 -36 32 -32 32 -38 1 -55 -14 -7 -25 -22
-25 -32 0 -16 9 -18 70 -18 56 0 70 3 70 15 0 10 -10 15 -30 15 -32 0 -40 14
-14 24 15 6 14 10 -7 33 l-24 26 43 -7 c32 -5 42 -3 42 8 0 15 -17 21 -91 31
-30 4 -49 3 -53 -4z"/>
<path d="M1550 952 c0 -21 -25 -32 -77 -32 -23 0 -33 -5 -33 -15 0 -11 13 -15
54 -15 45 0 54 -3 59 -20 3 -11 10 -20 17 -20 16 0 9 112 -7 118 -8 2 -13 -5
-13 -16z"/>
<path d="M470 930 c-6 -11 -8 -20 -6 -20 3 0 10 9 16 20 6 11 8 20 6 20 -3 0
-10 -9 -16 -20z"/>
<path d="M564 782 c-6 -4 -36 -49 -67 -101 -31 -52 -62 -100 -68 -107 -13 -16
-169 -20 -169 -5 0 6 9 26 21 45 12 20 19 36 16 36 -3 0 -17 -21 -32 -47 -27
-44 -27 -47 -9 -60 11 -8 47 -13 100 -13 l83 0 33 56 c18 30 50 82 70 115 l38
59 285 0 285 0 40 -62 c22 -34 43 -64 47 -67 12 -11 -21 45 -59 102 l-39 57
-282 0 c-155 0 -287 -4 -293 -8z"/>
<path d="M763 730 c-30 -12 -45 -45 -46 -101 -1 -34 5 -54 18 -69 23 -26 76
-27 99 -1 40 44 27 154 -21 172 -13 5 -25 9 -26 8 -1 0 -12 -4 -24 -9z m41
-46 c13 -33 6 -104 -10 -111 -21 -8 -34 14 -34 59 0 45 8 68 25 68 7 0 16 -7
19 -16z"/>
<path d="M582 633 l3 -98 42 1 c23 0 49 6 57 14 18 14 22 75 6 85 -5 3 -7 19
-3 35 8 42 -11 60 -64 60 l-44 0 3 -97z m66 45 c-6 -18 -28 -21 -28 -4 0 9 7
16 16 16 9 0 14 -5 12 -12z m12 -83 c0 -16 -27 -27 -36 -14 -3 5 -3 16 0 24 6
17 36 9 36 -10z"/>
<path d="M880 635 c0 -78 3 -95 15 -95 10 0 15 11 15 35 0 39 7 43 26 18 12
-17 14 -17 28 2 15 19 15 18 16 -17 0 -31 4 -38 20 -38 19 0 20 7 20 95 0 85
-2 95 -18 95 -11 0 -25 -15 -36 -37 l-18 -38 -19 38 c-11 20 -26 37 -34 37
-12 0 -15 -18 -15 -95z"/>
<path d="M1052 638 l3 -93 44 -3 c57 -4 85 19 76 63 -3 16 -7 46 -8 65 -4 52
-13 60 -68 60 l-50 0 3 -92z m68 47 c0 -8 -7 -15 -15 -15 -16 0 -20 12 -8 23
11 12 23 8 23 -8z m7 -81 c7 -18 -17 -38 -31 -24 -11 11 -1 40 14 40 6 0 13
-7 17 -16z"/>
<path d="M310 680 c-6 -11 -8 -20 -6 -20 3 0 10 9 16 20 6 11 8 20 6 20 -3 0
-10 -9 -16 -20z"/>
<path d="M638 492 c-51 -3 -55 -10 -37 -62 7 -20 7 -17 3 13 l-5 38 40 -3 c22
-1 44 1 47 5 11 11 3 12 -48 9z"/>
<path d="M990 490 c-6 -4 23 -7 64 -7 41 1 73 4 70 8 -5 9 -119 8 -134 -1z"/>
<path d="M700 486 c0 -2 9 -6 20 -9 11 -3 20 -1 20 4 0 5 -9 9 -20 9 -11 0
-20 -2 -20 -4z"/>
<path d="M289 442 c72 -102 223 -179 280 -143 11 7 4 12 -25 20 -21 6 -48 10
-59 9 -28 -1 -115 39 -115 53 0 13 -80 89 -93 89 -5 0 1 -13 12 -28z"/>
<path d="M985 448 c4 -13 11 -27 16 -33 5 -5 4 5 -2 23 -12 36 -24 44 -14 10z"/>
<path d="M1107 431 c-19 -43 -22 -91 -6 -91 7 0 10 14 7 35 -2 19 -1 35 3 35
6 0 20 52 15 57 -1 2 -10 -15 -19 -36z"/>
<path d="M1392 410 c-72 -68 -135 -100 -199 -100 -51 0 -50 -16 1 -26 49 -9
115 24 187 93 51 48 88 94 77 93 -2 0 -31 -27 -66 -60z"/>
<path d="M727 453 c-4 -3 -7 -16 -6 -27 0 -19 1 -19 10 3 10 24 8 36 -4 24z"/>
<path d="M1046 403 c-13 -13 -6 -63 9 -63 10 0 15 10 15 29 0 30 -12 46 -24
34z"/>
<path d="M610 376 c0 -14 5 -28 10 -31 6 -4 10 7 10 24 0 17 -4 31 -10 31 -5
0 -10 -11 -10 -24z"/>
<path d="M650 370 c0 -20 5 -30 15 -30 10 0 15 10 15 30 0 20 -5 30 -15 30
-10 0 -15 -10 -15 -30z"/>
<path d="M702 370 c0 -19 2 -27 5 -17 2 9 2 25 0 35 -3 9 -5 1 -5 -18z"/>
<path d="M784 369 c6 -31 5 -31 -29 -27 -19 2 -35 0 -35 -4 0 -8 7 -10 40 -10
43 0 50 3 50 20 0 10 -5 23 -12 30 -9 9 2 11 48 8 32 -1 68 1 79 5 12 5 -13 8
-64 8 l-83 1 6 -31z"/>
<path d="M1008 370 c2 -16 6 -30 8 -30 2 0 4 14 4 30 0 17 -4 30 -8 30 -5 0
-7 -13 -4 -30z"/>
<path d="M910 355 c0 -14 6 -25 13 -26 52 -4 71 -3 74 7 2 6 -10 8 -31 6 -31
-4 -34 -2 -29 17 4 15 1 21 -11 21 -10 0 -16 -9 -16 -25z"/>
<path d="M847 302 c-9 -10 -17 -33 -17 -50 0 -30 2 -32 35 -32 l36 0 -7 38
c-9 52 -26 68 -47 44z m21 -41 c-6 -2 -4 -7 3 -12 11 -7 10 -9 -3 -9 -13 0
-18 8 -18 25 0 22 2 24 14 13 8 -8 10 -15 4 -17z"/>
<path d="M654 296 c-8 -21 -1 -49 14 -54 8 -2 12 7 12 27 0 33 -17 51 -26 27z"/>
<path d="M905 300 c3 -5 8 -10 11 -10 2 0 4 5 4 10 0 6 -5 10 -11 10 -5 0 -7
-4 -4 -10z"/>
<path d="M1013 275 c0 -22 2 -30 4 -17 2 12 2 30 0 40 -3 9 -5 -1 -4 -23z"/>
<path d="M1040 275 c0 -24 5 -35 15 -35 10 0 15 11 15 35 0 24 -5 35 -15 35
-10 0 -15 -11 -15 -35z"/>
<path d="M1090 275 c0 -19 5 -35 10 -35 6 0 10 16 10 35 0 19 -4 35 -10 35 -5
0 -10 -16 -10 -35z"/>
<path d="M619 298 c-5 -16 -3 -58 3 -58 4 0 8 14 8 30 0 17 -2 30 -5 30 -3 0
-5 -1 -6 -2z"/>
<path d="M702 270 c0 -19 2 -27 5 -17 2 9 2 25 0 35 -3 9 -5 1 -5 -18z"/>
<path d="M740 270 c0 -16 5 -30 10 -30 6 0 10 14 10 30 0 17 -4 30 -10 30 -5
0 -10 -13 -10 -30z"/>
<path d="M770 270 c0 -16 5 -30 10 -30 6 0 10 14 10 30 0 17 -4 30 -10 30 -5
0 -10 -13 -10 -30z"/>
<path d="M930 270 c0 -16 5 -30 10 -30 6 0 10 14 10 30 0 17 -4 30 -10 30 -5
0 -10 -13 -10 -30z"/>
<path d="M960 286 c0 -22 11 -46 21 -46 5 0 9 14 9 30 0 20 -5 30 -15 30 -8 0
-15 -6 -15 -14z"/>
<path d="M925 203 l16 -33 -76 0 c-74 0 -75 1 -65 21 7 11 9 23 6 26 -3 3 -11
-6 -17 -21 -12 -25 -14 -26 -106 -26 -51 0 -93 3 -93 6 0 3 5 15 11 27 10 21
10 22 -5 2 -8 -11 -20 -26 -26 -32 -9 -10 51 -13 292 -11 167 1 255 4 196 5
-60 2 -108 7 -108 11 0 4 -10 18 -21 32 l-20 25 16 -32z"/>
<path d="M1110 224 c0 -5 7 -19 15 -30 8 -10 15 -14 15 -8 0 5 -7 19 -15 30
-8 10 -15 14 -15 8z"/>
<path d="M726 207 c3 -10 9 -15 12 -12 3 3 0 11 -7 18 -10 9 -11 8 -5 -6z"/>
</g>
</svg>
