<?xml version="1.0" standalone="no"?>
<!DOCTYPE svg PUBLIC "-//W3C//DTD SVG 20010904//EN"
 "http://www.w3.org/TR/2001/REC-SVG-20010904/DTD/svg10.dtd">
<svg version="1.0" xmlns="http://www.w3.org/2000/svg"
 width="336.000000pt" height="260.000000pt" viewBox="0 0 336.000000 260.000000"
 preserveAspectRatio="xMidYMid meet">

<g transform="translate(0.000000,260.000000) scale(0.100000,-0.100000)"
fill="#000000" stroke="none">
<path d="M1782 2588 c-8 -8 -12 -45 -12 -103 0 -71 -4 -99 -20 -130 -12 -24
-20 -59 -20 -91 0 -60 9 -54 -122 -80 -49 -9 -96 -23 -105 -30 -17 -13 -17
-15 1 -28 18 -14 17 -19 -18 -148 -55 -205 -106 -466 -106 -542 0 -38 30 -26
92 36 63 65 186 138 231 138 18 0 19 -4 13 -56 -8 -70 -11 -74 -45 -74 -15 0
-36 -6 -46 -14 -16 -11 -17 -16 -7 -29 11 -13 8 -33 -17 -114 -39 -127 -58
-210 -76 -336 -20 -142 -20 -167 4 -167 11 0 23 5 27 11 8 14 124 89 136 89 5
0 6 -87 2 -210 l-7 -210 74 0 c41 0 84 -3 96 -6 l23 -6 2 243 3 244 69 -2 c79
-3 158 -23 228 -59 46 -23 68 -24 68 -4 0 5 -25 46 -55 91 -124 181 -226 446
-193 499 20 31 0 43 -53 31 -77 -18 -79 -17 -79 40 l0 52 53 -6 c52 -5 175
-42 190 -56 5 -5 1 -48 -7 -97 -21 -115 -20 -144 0 -144 9 0 25 11 35 24 23
29 105 82 140 91 l27 7 -5 -124 c-13 -319 -29 -823 -26 -827 2 -2 20 1 41 7
56 17 85 52 86 106 l1 44 95 15 c52 8 260 38 462 68 403 59 379 51 361 118 -6
22 -9 23 -59 17 l-54 -6 -1 317 c0 175 -4 326 -7 336 -4 10 -42 37 -84 60
-234 130 -567 334 -572 351 -4 14 -11 17 -30 12 -14 -3 -37 -9 -50 -12 -19 -4
-26 -1 -31 15 -4 12 -17 29 -31 37 -22 15 -26 15 -49 0 -14 -9 -27 -30 -30
-50 -7 -33 -9 -35 -78 -51 -82 -20 -95 -28 -78 -49 11 -14 6 -54 -15 -116 -15
-43 -129 225 -165 388 l-23 104 23 17 c49 38 3 49 -96 24 -19 -4 -23 -1 -23
18 0 36 -19 97 -35 113 -10 10 -15 44 -17 117 -3 101 -11 122 -36 97z m948
-838 c94 -55 170 -105 170 -110 0 -12 22 -18 -175 44 -166 53 -170 55 -182 87
-18 50 -17 93 2 85 9 -3 92 -51 185 -106z m112 -150 l237 -74 -6 -65 c-2 -36
-8 -192 -11 -346 l-7 -279 -284 -43 c-156 -24 -285 -42 -287 -41 -4 5 -25 690
-21 694 9 9 103 -19 176 -52 41 -19 78 -34 82 -34 19 0 7 38 -27 90 -41 64
-114 204 -114 221 0 6 6 9 13 7 6 -3 119 -38 249 -78z"/>
<path d="M990 1936 c-22 -20 -890 -536 -903 -536 -6 0 -21 9 -33 21 -22 21
-44 19 -44 -4 0 -7 92 -104 205 -217 195 -194 204 -205 178 -210 -23 -4 -29
-12 -37 -48 -9 -41 -10 -42 -40 -37 -152 28 -198 32 -203 18 -9 -23 6 -30 97
-48 84 -17 129 -38 182 -89 53 -51 76 -93 102 -186 86 -305 269 -506 522 -570
109 -28 131 -25 62 10 -276 136 -435 365 -517 743 -17 77 -17 87 -3 87 18 0
584 -78 623 -86 24 -5 27 -2 33 37 8 51 4 54 -75 63 l-59 7 0 255 0 256 33 -7
c55 -11 130 -37 180 -62 81 -40 88 -15 22 72 -96 126 -187 362 -154 401 19 23
0 37 -41 30 l-37 -6 -6 47 c-7 64 -51 94 -87 59z m-157 -175 c2 -11 -8 -62
-23 -114 -24 -81 -55 -220 -74 -335 -9 -51 16 -52 70 -2 44 41 130 87 141 76
7 -6 -11 -463 -17 -469 -3 -3 -100 9 -217 26 l-211 30 -194 195 c-106 107
-188 196 -183 198 6 3 163 97 350 209 187 112 343 204 346 204 4 1 9 -8 12
-18z"/>
<path d="M620 787 c0 -26 47 -179 74 -239 28 -64 14 -57 207 -102 498 -118
1103 -147 1629 -80 242 31 654 122 701 155 14 10 47 23 74 30 l48 12 -6 80
c-4 44 -8 81 -9 82 -2 1 -197 -27 -434 -63 l-431 -66 -16 -47 c-21 -59 -62
-94 -133 -115 -50 -14 -90 -15 -377 -5 -395 14 -464 25 -591 89 -63 31 -158
121 -180 170 l-17 38 -237 33 c-130 18 -252 36 -269 38 -25 4 -33 2 -33 -10z"/>
<path d="M775 390 c11 -22 28 -29 127 -53 608 -146 1159 -163 1758 -52 206 38
468 105 474 121 7 19 0 18 -112 -10 -340 -86 -687 -126 -1082 -126 -372 0
-709 37 -1037 113 l-142 33 14 -26z"/>
<path d="M2955 287 c-376 -95 -669 -131 -1055 -131 -364 0 -629 30 -960 109
l-95 23 59 -53 c102 -92 281 -186 411 -215 54 -12 1040 -5 1358 10 166 7 169
8 242 44 88 43 145 103 175 183 11 31 19 59 18 62 -2 3 -70 -11 -153 -32z"/>
</g>
</svg>
