<?xml version="1.0" standalone="no"?>
<!DOCTYPE svg PUBLIC "-//W3C//DTD SVG 20010904//EN"
 "http://www.w3.org/TR/2001/REC-SVG-20010904/DTD/svg10.dtd">
<svg version="1.0" xmlns="http://www.w3.org/2000/svg"
 width="1044.000000pt" height="479.000000pt" viewBox="0 0 1044.000000 479.000000"
 preserveAspectRatio="xMidYMid meet">

<g transform="translate(0.000000,479.000000) scale(0.100000,-0.100000)"
fill="#000000" stroke="none">
<path d="M440 4774 c-14 -2 -61 -15 -105 -29 -44 -13 -98 -27 -119 -30 -52 -9
-97 -54 -124 -128 -12 -31 -33 -79 -47 -106 -31 -62 -41 -121 -25 -150 14 -26
67 -61 94 -61 11 0 34 11 53 26 45 34 85 50 189 73 166 37 235 42 326 26 191
-33 384 -125 663 -314 294 -199 595 -476 915 -844 85 -98 433 -440 734 -723
155 -145 348 -351 434 -463 85 -111 128 -221 142 -371 16 -165 68 -280 162
-355 27 -22 56 -52 63 -66 13 -24 51 -260 62 -381 4 -41 -2 -83 -20 -155 -14
-54 -28 -117 -31 -140 -8 -61 -33 -163 -50 -203 -8 -19 -19 -67 -24 -106 -10
-71 -47 -174 -63 -174 -5 0 -9 -15 -9 -34 0 -53 29 -66 150 -66 l100 0 0 39
c0 67 27 186 58 252 16 35 49 117 73 181 24 65 47 114 50 110 4 -4 19 -47 33
-97 15 -49 36 -119 48 -155 22 -67 30 -196 15 -252 l-7 -28 102 0 c137 1 145
6 124 90 -9 34 -16 101 -16 149 0 54 -11 149 -30 251 -17 91 -33 194 -37 230
-3 36 -14 85 -26 110 -65 144 -77 173 -77 180 0 5 51 -16 114 -45 125 -60 253
-106 367 -131 99 -23 319 -23 412 0 38 9 70 16 71 16 2 0 6 -48 10 -107 8
-123 26 -222 55 -318 25 -80 28 -209 7 -260 -17 -39 -48 -62 -97 -71 -67 -12
-119 -43 -135 -79 -8 -19 -14 -39 -14 -45 0 -6 72 -10 209 -10 l209 0 21 34
c12 18 21 47 21 65 0 17 3 31 8 31 4 0 6 51 4 112 -2 90 2 139 22 241 15 71
26 142 26 158 0 16 3 29 7 29 3 0 31 -24 62 -53 31 -29 85 -69 121 -88 36 -19
95 -63 132 -97 82 -77 91 -106 59 -188 -20 -54 -27 -126 -15 -158 9 -24 54
-21 54 4 0 13 14 27 42 41 48 25 144 112 163 149 13 25 18 56 16 97 -1 28 -53
89 -129 152 -65 54 -98 98 -154 201 -39 74 -67 119 -85 138 -23 24 -10 168 16
182 9 4 72 14 139 21 184 18 524 -8 901 -70 370 -61 762 -78 1071 -47 271 28
471 38 610 33 202 -9 262 -21 705 -147 306 -87 353 -94 557 -87 222 7 329 41
463 147 28 21 78 58 112 81 34 24 61 44 60 46 -9 8 -83 -23 -138 -59 -75 -48
-160 -88 -244 -114 -49 -15 -92 -19 -240 -18 -161 0 -191 3 -281 26 -124 32
-208 62 -339 121 -208 93 -450 172 -620 202 -55 10 -104 21 -110 24 -5 4 -32
6 -60 5 -27 -2 -67 0 -88 3 l-39 5 29 31 c23 24 24 29 8 23 -35 -14 -110 -36
-119 -36 -5 0 -1 9 9 20 29 32 12 32 -51 0 -45 -23 -73 -30 -116 -30 -32 0
-58 3 -58 8 0 4 18 18 40 32 22 14 40 28 40 32 0 6 -16 2 -145 -36 -60 -18
-70 -12 -30 19 16 13 27 26 25 29 -3 2 -46 -11 -95 -30 -50 -18 -107 -34 -127
-34 -35 0 -178 26 -186 34 -2 2 35 27 82 55 85 52 117 79 80 68 -11 -3 -48
-13 -84 -22 -36 -9 -73 -18 -83 -21 -16 -5 -17 -3 -8 15 l12 21 -50 -20 c-28
-10 -67 -26 -87 -35 -20 -8 -47 -15 -59 -15 -29 0 -158 43 -262 87 l-83 35 58
38 c58 38 99 76 90 85 -2 3 -36 -4 -74 -15 -38 -11 -70 -20 -72 -20 -2 0 6 12
18 27 12 15 17 29 12 31 -5 1 -46 -13 -90 -33 -44 -19 -84 -35 -90 -35 -16 0
-282 129 -282 137 0 5 23 21 50 36 46 26 71 57 34 43 -9 -3 -40 -9 -70 -12
-48 -6 -54 -5 -48 10 8 20 0 20 -60 2 -45 -14 -50 -13 -104 11 -31 14 -73 31
-92 38 -19 7 -53 21 -74 30 l-40 17 25 19 24 19 -67 0 c-39 0 -68 4 -68 10 0
6 -13 10 -28 10 -26 0 -237 77 -272 99 -12 9 -12 12 3 29 9 10 17 20 17 23 0
2 -30 3 -67 1 -60 -3 -79 2 -163 36 -69 28 -95 44 -94 55 1 13 -7 17 -38 17
-44 0 -101 23 -348 142 -320 153 -466 226 -575 289 -60 34 -135 76 -165 92
-30 16 -100 60 -155 96 -55 36 -104 68 -110 70 -5 2 -52 33 -104 68 -51 36
-123 83 -160 105 -36 22 -84 53 -106 69 -85 62 -191 129 -202 129 -7 0 -13 4
-13 8 0 5 -66 53 -147 107 -160 108 -407 281 -463 326 -220 177 -615 475 -754
568 -240 162 -483 298 -631 356 -38 15 -83 33 -100 40 -86 38 -297 96 -440
121 -78 14 -436 27 -485 18z"/>
</g>
</svg>
