<svg width="37" height="30" xmlns="http://www.w3.org/2000/svg" xmlns:xlink="http://www.w3.org/1999/xlink" overflow="hidden"><defs><clipPath id="clip0"><rect x="22" y="362" width="37" height="30"/></clipPath></defs><g clip-path="url(#clip0)" transform="translate(-22 -362)"><path d="M23.6804 27.6922C23.6032 27.675 23.4383 27.6611 23.312 27.6577 23.0067 27.6542 21.7857 27.5058 21.4874 27.4367 21.3436 27.4022 21.1962 27.378 21.0839 27.3642 21.0278 27.3573 20.9085 27.3331 20.8208 27.3124 20.733 27.2917 20.5997 27.2606 20.5225 27.2468 20.1225 27.1605 19.7681 27.0741 19.726 27.05 19.7015 27.0327 19.6523 27.0258 19.6208 27.0292 19.5857 27.0362 19.5225 27.0154 19.4804 26.9878 19.4383 26.9567 19.3681 26.9326 19.3225 26.9326 19.2804 26.9326 19.2348 26.9187 19.2243 26.898 19.2137 26.8808 19.1611 26.8635 19.1085 26.8635 19.0559 26.8635 18.8313 26.7979 18.6102 26.7219 18.3892 26.6425 18.1401 26.5596 18.0629 26.5355 17.9822 26.5113 17.8874 26.4733 17.8524 26.456 17.7365 26.3939 17.4102 26.2765 17.3611 26.2765 17.333 26.2765 17.312 26.2627 17.312 26.2419 17.312 26.2247 17.2909 26.2074 17.2629 26.2074 17.2348 26.2074 17.1366 26.1694 17.0453 26.1245 16.9506 26.0762 16.8664 26.0451 16.8524 26.0555 16.8383 26.0624 16.8102 26.0451 16.7857 26.0175 16.7611 25.9899 16.7155 25.9657 16.6804 25.9657 16.6313 25.9657 16.3401 25.8414 16.119 25.724 16.0909 25.7067 15.8313 25.5755 15.5401 25.4305 15.2523 25.2854 14.9857 25.1404 14.9541 25.1128 14.919 25.0817 14.8909 25.0713 14.8909 25.0852 14.8909 25.099 14.8629 25.0921 14.8313 25.0644 14.7962 25.0368 14.7225 24.9919 14.6629 24.9643 14.6067 24.9367 14.5506 24.9056 14.5401 24.8952 14.5295 24.8849 14.4769 24.8538 14.4173 24.8262 14.2944 24.7675 14.0699 24.6121 14.0559 24.5776 14.0488 24.5603 14.0243 24.5499 13.9997 24.5499 13.933 24.5499 13.7471 24.4532 13.698 24.3946 13.6734 24.3669 13.6348 24.3428 13.6137 24.3428 13.5892 24.3428 13.533 24.3048 13.4874 24.2564 13.4418 24.2081 13.3892 24.1701 13.3751 24.1701 13.3576 24.1701 13.2734 24.1252 13.1892 24.0665 13.105 24.0112 13.0208 23.9629 12.9997 23.9629 12.9787 23.9629 12.9611 23.9491 12.9611 23.9284 12.9611 23.9111 12.9365 23.8939 12.9085 23.8939 12.8839 23.8939 12.8453 23.8731 12.8313 23.8489 12.8173 23.8213 12.719 23.7488 12.6208 23.6832 12.519 23.6211 12.4348 23.5554 12.4348 23.5416 12.4348 23.5244 12.4138 23.514 12.3857 23.514 12.3576 23.514 12.305 23.476 12.2664 23.4277 12.2278 23.3793 12.1787 23.3448 12.1611 23.3483 12.1436 23.3552 12.0734 23.3137 12.0067 23.255 11.9401 23.1998 11.8629 23.1376 11.8313 23.1169 11.8032 23.0996 11.6278 22.9615 11.4488 22.8096 11.2664 22.6611 10.9892 22.4367 10.8313 22.3089 10.6734 22.1846 10.5436 22.0603 10.5436 22.0396 10.5401 22.0154 10.5155 21.9947 10.4874 21.9947 10.4594 21.9947 10.4348 21.9808 10.4348 21.9636 10.4348 21.9463 10.4032 21.9187 10.3646 21.9083 10.326 21.898 10.2944 21.8669 10.2944 21.8427 10.2944 21.8185 10.2559 21.7806 10.2067 21.7598 10.1506 21.7322 10.126 21.7012 10.1401 21.6666 10.1541 21.6321 10.1471 21.6217 10.112 21.6321 10.0839 21.6424 9.94707 21.5319 9.75761 21.3386 9.58919 21.1659 9.45234 21.0174 9.45234 21.0071 9.45234 20.9829 9.28392 20.8206 9.25936 20.8206 9.21375 20.8206 9.13305 20.717 9.1541 20.6825 9.16462 20.6652 9.15759 20.648 9.13655 20.648 9.11199 20.648 9.05935 20.6065 9.02077 20.5547 8.97866 20.4995 8.88391 20.3959 8.81374 20.3165 8.74007 20.237 8.69093 20.1645 8.70498 20.1542 8.7155 20.1404 8.712 20.13 8.69446 20.13 8.67339 20.13 8.59619 20.0471 8.52252 19.9504 8.44532 19.8503 8.35058 19.7329 8.31199 19.688 8.2734 19.6431 8.24531 19.5982 8.25234 19.5913 8.25586 19.581 8.20673 19.5188 8.13655 19.4463 8.06988 19.3772 8.01374 19.3013 8.01374 19.2805 8.01374 19.2598 7.98216 19.2149 7.94357 19.1804 7.90498 19.1459 7.87339 19.101 7.87339 19.0803 7.87339 19.0596 7.83481 18.9974 7.78218 18.9456 7.73304 18.8938 7.70145 18.8385 7.712 18.8213 7.72252 18.804 7.712 18.7833 7.68743 18.7729 7.66287 18.7626 7.60321 18.6797 7.5576 18.5899 7.50847 18.4967 7.45936 18.4173 7.44532 18.4104 7.42778 18.4035 7.41725 18.3758 7.41725 18.3482 7.41725 18.3206 7.39971 18.2791 7.38217 18.255 7.29445 18.1548 7.17514 17.9511 7.13305 17.8372 7.10849 17.7681 7.0734 17.7129 7.05935 17.7129 7.04533 17.7129 7.03129 17.6887 7.03129 17.6611 7.03129 17.6334 6.9997 17.554 6.96111 17.4884 6.92253 17.4193 6.88392 17.3365 6.88042 17.2985 6.87339 17.264 6.85235 17.2156 6.83481 17.188 6.81374 17.1638 6.77515 17.074 6.75059 16.9877 6.72602 16.9014 6.69093 16.8185 6.67691 16.7978 6.62778 16.7253 6.50497 16.342 6.50497 16.2522 6.50497 16.2039 6.49093 16.1555 6.47338 16.1452 6.45584 16.1348 6.4348 16.083 6.42428 16.0312 6.41375 15.9759 6.38217 15.8413 6.3541 15.7273 6.13655 14.8744 6.09796 13.6728 6.26286 12.8095 6.30147 12.6092 6.33656 12.4089 6.34358 12.3606 6.36812 12.1879 6.65235 11.4179 6.76813 11.2003 6.83481 11.0795 6.88042 10.9794 6.86989 10.9794 6.85235 10.9794 6.96111 10.7722 6.9962 10.7377 7.00672 10.7273 7.03831 10.6755 7.06638 10.6168 7.09444 10.5615 7.16112 10.4579 7.21375 10.3889 7.26638 10.3198 7.31199 10.2473 7.31199 10.23 7.31199 10.2162 7.35058 10.161 7.39971 10.1092 7.44884 10.0574 7.48743 10.0056 7.48743 9.99524 7.48743 9.97451 7.62076 9.82603 7.93655 9.50143 8.05585 9.37713 8.1541 9.26318 8.1541 9.24592 8.1541 9.2321 8.16814 9.2183 8.18918 9.2183 8.20673 9.2183 8.29095 9.15268 8.37164 9.07671 8.45584 8.99729 8.60321 8.87299 8.70498 8.80046 8.80322 8.72796 8.89444 8.65199 8.90848 8.63128 8.919 8.61054 8.94357 8.60363 8.96111 8.61401 8.97516 8.62437 9.04883 8.57601 9.11901 8.51042 9.19268 8.4448 9.30147 8.36883 9.36112 8.33777 9.42075 8.30668 9.56463 8.23071 9.68041 8.16511 9.7962 8.09949 9.96111 8.01317 10.0488 7.97173 10.1366 7.93375 10.2523 7.87849 10.3085 7.85087 10.3646 7.82325 10.4383 7.80254 10.4699 7.80254 10.505 7.80254 10.5436 7.77836 10.5541 7.74728 10.5646 7.71621 10.5962 7.69895 10.6243 7.7093 10.6488 7.71966 10.6839 7.71621 10.7015 7.69895 10.7365 7.6713 11.1155 7.53318 11.2944 7.4883 11.3541 7.4745 11.4629 7.44341 11.5401 7.4227 11.8313 7.34326 12.105 7.28111 12.2067 7.27076 12.2664 7.26731 12.3997 7.24658 12.505 7.2224 12.6102 7.20169 12.7225 7.18443 12.7506 7.18443 12.7787 7.18099 13.0383 7.16716 13.3295 7.1499 13.6523 7.12919 14.0734 7.12919 14.4348 7.1499 14.7541 7.16716 15.0453 7.18099 15.0839 7.18099 15.1225 7.18099 15.2664 7.20169 15.3997 7.22931 15.8102 7.3122 16.2699 7.39853 16.4102 7.41232 16.4804 7.4227 16.5506 7.44341 16.5611 7.46068 16.5716 7.47794 16.6137 7.49176 16.6523 7.49176 16.7225 7.49176 16.8278 7.51938 17.0839 7.5988 17.1436 7.61951 17.2208 7.64024 17.2629 7.64368 17.3015 7.65059 17.3541 7.66442 17.3751 7.67822 17.3997 7.69204 17.4453 7.7093 17.4769 7.71621 17.5576 7.73348 17.8243 7.83016 17.9611 7.88887 18.0208 7.91302 18.1225 7.95102 18.1892 7.97519 18.3295 8.02352 18.4945 8.09258 18.6945 8.18582 18.7716 8.2238 18.8558 8.25144 18.8804 8.25144 18.905 8.25144 18.926 8.2687 18.926 8.28597 18.926 8.30668 18.9471 8.3205 18.9681 8.3205 19.0243 8.3205 19.8944 8.75213 19.9436 8.80393 19.9541 8.81428 20.0488 8.86608 20.1576 8.91788 20.2664 8.96967 20.3822 9.04218 20.4173 9.08018 20.4523 9.11815 20.4979 9.14924 20.5225 9.14924 20.5436 9.14924 20.5927 9.17686 20.6313 9.21139 20.6699 9.24245 20.733 9.28736 20.7716 9.30807 20.9541 9.41166 21.0137 9.44619 21.0734 9.5049 21.1085 9.53596 21.1506 9.56361 21.1681 9.56361 21.1892 9.56361 21.2453 9.60158 21.2979 9.64993 21.3506 9.69826 21.4067 9.73626 21.4243 9.73626 21.4418 9.73626 21.512 9.78806 21.5822 9.85021 21.6488 9.90891 21.719 9.95724 21.7365 9.9538 21.7541 9.94689 21.7681 9.9676 21.7681 9.99524 21.7681 10.0229 21.7822 10.047 21.8032 10.047 21.8629 10.047 22.1506 10.2715 22.1506 10.3198 22.1541 10.3474 22.1646 10.3578 22.1787 10.3474 22.1892 10.3336 22.3085 10.4234 22.4383 10.5477 22.5681 10.672 22.6909 10.7722 22.712 10.7722 22.733 10.7722 22.7506 10.7963 22.7506 10.8274 22.7506 10.855 22.7646 10.8723 22.7787 10.862 22.8137 10.8412 22.9295 10.9655 22.9015 10.9932 22.8874 11.0035 22.898 11.0139 22.919 11.0139 22.9541 11.0139 23.1366 11.1727 23.1366 11.2003 23.1366 11.2073 23.2102 11.2867 23.305 11.3799 23.7506 11.8392 24.1401 12.2812 24.1331 12.3261 24.1331 12.3364 24.1822 12.3986 24.2488 12.4642 24.312 12.5298 24.3576 12.6058 24.3471 12.6299 24.3401 12.6506 24.3541 12.6714 24.3787 12.6714 24.4067 12.6714 24.4488 12.7197 24.4769 12.775 24.5015 12.8336 24.533 12.8786 24.5471 12.8786 24.5646 12.8786 24.5751 12.8958 24.5751 12.9131 24.5751 12.9338 24.6032 12.9787 24.6383 13.0167 24.6699 13.0512 24.7295 13.141 24.7681 13.2135 24.8032 13.286 24.8524 13.3689 24.8769 13.3965 24.9787 13.5243 25.4558 14.5049 25.5225 14.7259 25.5471 14.8019 25.5822 14.8951 25.6032 14.9331 25.6243 14.9711 25.6523 15.0471 25.6664 15.1058 25.6804 15.161 25.719 15.3026 25.7471 15.4131 26.0453 16.4801 25.9927 17.9718 25.6278 18.766 25.5857 18.8627 25.5366 18.9732 25.519 19.0181 25.4664 19.1493 25.3997 19.284 25.3822 19.3013 25.3716 19.3116 25.3401 19.3669 25.312 19.4221 25.2418 19.5603 24.9541 19.9712 24.919 19.985 24.905 19.9919 24.8909 20.0091 24.8909 20.0264 24.8909 20.0955 24.0629 20.8206 23.9822 20.8206 23.9646 20.8206 23.9436 20.8344 23.9365 20.8517 23.926 20.8862 23.733 21.0036 23.5927 21.0658 23.5436 21.0865 23.4804 21.1176 23.4523 21.1348 23.2874 21.2281 22.905 21.3869 22.7155 21.4387 22.6278 21.4629 22.519 21.5009 22.4699 21.5181 22.4208 21.5389 22.3436 21.5596 22.2944 21.5699 22.2453 21.5768 22.098 21.5976 21.9611 21.6183 21.3541 21.7115 20.1015 21.6839 19.9576 21.5734 19.9365 21.5596 19.8909 21.5527 19.8594 21.5665 19.8278 21.5768 19.7295 21.563 19.6383 21.5319 19.5436 21.5043 19.3506 21.4456 19.2067 21.4042 19.0629 21.3627 18.9295 21.3179 18.9085 21.3041 18.8909 21.2902 18.7997 21.2591 18.7085 21.2315 18.6137 21.2073 18.5401 21.1728 18.5401 21.159 18.5401 21.1452 18.5155 21.1314 18.4839 21.1314 18.4313 21.1314 18.1295 20.9795 18.0699 20.9207 18.0488 20.9035 18.0067 20.8897 17.9716 20.8897 17.9365 20.8897 17.9085 20.8793 17.9085 20.862 17.9085 20.8482 17.8629 20.8172 17.8102 20.793 17.6804 20.7377 17.2278 20.4408 17.2137 20.4028 17.2067 20.3855 17.1822 20.3717 17.1576 20.3717 17.1331 20.3717 17.0699 20.3268 17.0137 20.2681 16.9576 20.2129 16.8944 20.1645 16.8734 20.1645 16.8313 20.1645 15.9085 19.2633 15.9085 19.2218 15.9085 19.1977 15.7611 19.0285 15.5681 18.8316 15.5436 18.8075 15.5225 18.7798 15.5225 18.766 15.5225 18.7557 15.4909 18.7142 15.4523 18.6728 15.4138 18.6314 15.3646 18.5554 15.3401 18.5036 15.3155 18.4518 15.2839 18.4173 15.2699 18.4242 15.2559 18.4345 15.2418 18.4207 15.2418 18.3931 15.2418 18.3689 15.2032 18.3102 15.1541 18.2653 15.105 18.2204 15.0664 18.1652 15.0664 18.1445 15.0664 18.1203 15.0348 18.0754 14.9962 18.0409 14.9576 18.0064 14.926 17.9615 14.926 17.9373 14.926 17.9131 14.8944 17.8682 14.8594 17.8337 14.7401 17.7301 14.5401 17.3675 14.5401 17.257 14.5401 17.1949 14.5681 17.1293 14.6032 17.1051 14.6734 17.0499 14.8418 17.043 14.9015 17.0913 15.0418 17.2018 15.1646 17.2881 15.2488 17.3296 15.3015 17.3572 15.3787 17.4055 15.4138 17.4435 15.4523 17.478 15.498 17.5057 15.512 17.5057 15.5295 17.5057 15.5786 17.5402 15.6278 17.5851 15.6769 17.63 15.726 17.6645 15.7401 17.6645 15.7506 17.6611 15.7997 17.6921 15.8453 17.7301 15.8909 17.7681 15.9822 17.8268 16.0523 17.8613 16.1225 17.8924 16.1997 17.9408 16.2243 17.9718 16.2488 17.9995 16.2804 18.0236 16.2979 18.0236 16.3155 18.0236 16.4067 18.0789 16.5015 18.1445 16.5927 18.2101 16.6874 18.2653 16.705 18.2653 16.726 18.2653 16.7822 18.3033 16.8313 18.3482 16.8804 18.3931 16.9295 18.4242 16.9365 18.4138 16.9576 18.3966 17.0839 18.4622 17.1822 18.5381 17.2137 18.5657 17.2418 18.5761 17.2418 18.5589 17.2418 18.545 17.2664 18.5519 17.2944 18.5761 17.3751 18.6417 17.6664 18.7833 17.7225 18.7833 17.7471 18.7833 17.7962 18.7971 17.8313 18.8144 18.0137 18.9042 18.3225 19.0043 18.5927 19.0596 18.7085 19.0803 18.8418 19.1148 18.8909 19.1355 19.0278 19.1873 20.2699 19.2115 20.5751 19.1631 20.719 19.1424 20.898 19.1182 20.9716 19.1044 21.0418 19.0941 21.112 19.0734 21.1225 19.0561 21.1331 19.0388 21.1681 19.025 21.1997 19.025 21.333 19.025 21.7752 18.766 21.9787 18.5657 22.2769 18.2722 22.3646 18.0616 22.3822 17.5747 22.3892 17.3192 22.3155 16.8634 22.2559 16.8012 22.2383 16.7805 22.2243 16.7391 22.2243 16.7046 22.2243 16.6735 22.1506 16.5077 22.0629 16.342 21.9716 16.1762 21.8839 16.0036 21.8594 15.9621 21.8383 15.9173 21.8102 15.8827 21.7962 15.8827 21.7787 15.8827 21.7681 15.8655 21.7681 15.8447 21.7681 15.824 21.712 15.7515 21.6453 15.6824 21.5786 15.6134 21.5225 15.5409 21.5225 15.527 21.5225 15.5098 21.4453 15.4166 21.3506 15.3199 21.2559 15.2197 21.1331 15.0851 21.0804 15.0195 20.9155 14.8226 20.1576 14.1217 20.0734 14.0906 20.0313 14.0768 19.8734 13.9421 19.7225 13.804 19.6664 13.7487 19.5997 13.7073 19.5716 13.7073 19.5436 13.7073 19.5225 13.6935 19.5225 13.6762 19.5225 13.6589 19.4558 13.6071 19.3751 13.5588 19.2909 13.5105 19.1927 13.4414 19.1541 13.4069 19.1155 13.3723 19.0243 13.3171 18.9541 13.2825 18.8839 13.248 18.8032 13.2031 18.7787 13.179 18.7541 13.1548 18.6769 13.1064 18.6102 13.0754 18.5436 13.0408 18.4243 12.9752 18.3471 12.9304 18.1962 12.8406 17.5751 12.5332 17.5436 12.5332 17.5295 12.5332 17.4418 12.4953 17.3401 12.4469 17.2418 12.3986 17.1436 12.3606 17.1295 12.3606 17.112 12.3606 17.0313 12.3295 16.9541 12.2915 16.8734 12.2535 16.7822 12.2225 16.7506 12.2225 16.719 12.2225 16.6804 12.2087 16.6594 12.1948 16.6418 12.1776 16.5576 12.1465 16.4699 12.1223 16.3822 12.0981 16.2664 12.0636 16.2067 12.0429 16.1506 12.0256 16.0629 12.0049 16.0172 11.998 15.9716 11.9911 15.919 11.9704 15.898 11.9497 15.8769 11.929 15.8278 11.9117 15.7892 11.9117 15.7471 11.9117 15.5751 11.8806 15.3997 11.8461 15.098 11.7805 14.919 11.7563 14.1962 11.6665 13.6313 11.594 12.6629 11.6976 12.0664 11.8944 11.6488 12.0291 11.0804 12.3122 11.0208 12.4158 11.0032 12.4435 10.9787 12.4573 10.9611 12.4469 10.9225 12.4227 10.2243 13.0961 10.2243 13.1513 10.2243 13.1755 10.1962 13.2204 10.1646 13.2584 10.0769 13.3516 9.78568 13.9352 9.73304 14.1217 9.70848 14.208 9.67691 14.315 9.66287 14.3634 9.5576 14.6845 9.51549 15.0574 9.53304 15.5547 9.54006 15.8413 9.5576 16.1037 9.56813 16.1417 9.57865 16.1797 9.59619 16.3005 9.61024 16.411 9.62428 16.5181 9.65235 16.6182 9.66637 16.6286 9.68391 16.6389 9.69796 16.6907 9.69796 16.7494 9.69796 16.8047 9.712 16.8772 9.72954 16.9117 9.74709 16.9428 9.78568 17.0499 9.81726 17.1431 9.89796 17.4021 9.97866 17.6127 10.0383 17.7301 10.1436 17.9269 10.1541 17.9546 10.1541 18.0064 10.1541 18.034 10.1716 18.0582 10.1892 18.0582 10.2102 18.0582 10.2243 18.0823 10.2243 18.11 10.2243 18.1618 10.2909 18.2999 10.333 18.3344 10.3436 18.3448 10.3822 18.4 10.4138 18.4553 10.4453 18.514 10.512 18.621 10.5576 18.697 10.6067 18.7729 10.6558 18.8593 10.6699 18.8869 10.6839 18.9145 10.7155 18.9594 10.7436 18.987 10.7681 19.0146 10.8278 19.0906 10.8734 19.1597 10.9155 19.2287 10.9787 19.3047 11.0102 19.3323 11.0418 19.3565 11.0664 19.3945 11.0664 19.4117 11.0664 19.429 11.1436 19.5257 11.2383 19.6224 11.333 19.7225 11.4594 19.8641 11.5155 19.9401 11.6383 20.1058 13.1997 21.6494 13.2453 21.6494 13.2629 21.6494 13.3751 21.7426 13.498 21.8565 13.6208 21.9705 13.7857 22.1051 13.8594 22.1535 13.933 22.2053 14.0032 22.2571 14.0067 22.2744 14.0137 22.2916 14.0383 22.3054 14.0594 22.3054 14.0839 22.3054 14.1611 22.3607 14.2313 22.4263 14.3015 22.4919 14.3716 22.5472 14.3892 22.5472 14.4032 22.5506 14.4734 22.5955 14.5401 22.6508 14.6067 22.7094 14.6804 22.7543 14.705 22.7543 14.7295 22.7543 14.7506 22.7716 14.7506 22.7889 14.7506 22.8096 14.7752 22.8234 14.8032 22.8234 14.8313 22.8234 14.8558 22.8407 14.8558 22.8579 14.8558 22.8786 14.8804 22.8925 14.9085 22.8925 14.933 22.8925 14.9716 22.9132 14.9857 22.9374 14.9997 22.9615 15.105 23.0375 15.2172 23.1031 15.333 23.1687 15.498 23.2619 15.5857 23.3137 15.6769 23.3655 15.8032 23.4346 15.8664 23.4622 15.926 23.4898 15.9787 23.5313 15.9787 23.5485 15.9787 23.5693 15.9962 23.5831 16.0172 23.5831 16.0523 23.5831 16.6208 23.8489 16.7506 23.9284 16.8348 23.9802 17.112 24.101 17.1436 24.101 17.1576 24.101 17.2734 24.1494 17.3997 24.2046 17.526 24.2633 17.6523 24.3082 17.6769 24.3082 17.7015 24.3082 17.7436 24.3289 17.7646 24.3566 17.7892 24.3842 17.8348 24.4049 17.8664 24.4049 17.898 24.4014 17.9962 24.4325 18.0804 24.474 18.1681 24.5154 18.2664 24.5499 18.2979 24.5499 18.333 24.5499 18.3716 24.5672 18.3822 24.5845 18.3927 24.6052 18.4348 24.619 18.4734 24.619 18.5085 24.619 18.5681 24.6328 18.6032 24.6501 18.6348 24.6673 18.733 24.7019 18.8208 24.7226 18.9085 24.7467 19.0032 24.7744 19.0313 24.7847 19.4243 24.9263 20.305 25.1335 20.898 25.2233 21.098 25.2544 21.3471 25.2958 21.4523 25.3165 21.5576 25.3372 21.7015 25.3579 21.7681 25.3649 21.8348 25.3683 22.0874 25.389 22.3295 25.4097 22.9015 25.4615 23.8524 25.4615 24.3822 25.4097 24.6137 25.3856 24.8524 25.3649 24.9085 25.3614 24.9681 25.3614 25.0734 25.3372 25.1471 25.3131 25.2208 25.2889 25.3015 25.2785 25.333 25.2889 25.3611 25.2992 25.4173 25.2924 25.4629 25.2785 25.505 25.2613 25.6594 25.2198 25.8032 25.1888 26.0559 25.1335 26.2348 25.0852 26.3822 25.0334 26.4208 25.0196 26.5155 24.9885 26.5927 24.9678 26.6699 24.9436 26.8208 24.8849 26.926 24.8365 27.0313 24.7882 27.1506 24.7364 27.1892 24.7226 27.2278 24.7053 27.312 24.6742 27.3751 24.6466 27.4348 24.6224 27.4874 24.5914 27.4874 24.5776 27.4874 24.5603 27.519 24.5499 27.5576 24.5499 27.5962 24.5499 27.6278 24.5361 27.6278 24.5154 27.6278 24.4981 27.6664 24.474 27.712 24.4601 27.7611 24.4498 27.8243 24.4118 27.8594 24.3738 27.8909 24.3393 27.9365 24.3082 27.9611 24.3082 27.9857 24.3082 28.0313 24.2771 28.0664 24.2392 28.1015 24.2012 28.1436 24.1701 28.1611 24.1701 28.1787 24.1701 28.2348 24.1321 28.2839 24.0872 28.333 24.0423 28.3962 24.0112 28.4243 24.0216 28.4558 24.0354 28.4629 24.0216 28.4488 23.9836 28.4348 23.9491 28.4453 23.9284 28.4769 23.9284 28.533 23.9284 29.3471 23.1273 29.3471 23.072 29.3471 23.0547 29.3716 23.0202 29.3997 22.9961 29.4664 22.9408 29.6629 22.6576 29.6629 22.6197 29.6629 22.6024 29.6874 22.5713 29.7155 22.5472 29.7471 22.523 29.8032 22.4367 29.8418 22.3607 29.8804 22.2813 29.9401 22.1639 29.9752 22.0983 30.0769 21.9083 30.1751 21.6839 30.2488 21.4767 30.3822 21.1141 30.4032 21.0451 30.4208 20.9622 30.4313 20.9138 30.4488 20.862 30.4594 20.8448 30.4839 20.8068 30.526 20.5064 30.5786 19.9919 30.6418 19.3565 30.5541 18.3586 30.3857 17.7819 30.3576 17.6956 30.319 17.5575 30.2944 17.4711 30.2699 17.3848 30.2383 17.2847 30.2243 17.2467 30.2102 17.2087 30.1611 17.0602 30.119 16.9186 30.0734 16.7771 29.9962 16.5664 29.9436 16.4525 29.8313 16.2108 29.7576 16.0485 29.6945 15.8931 29.6664 15.8309 29.6348 15.7791 29.6208 15.7791 29.6032 15.7791 29.5927 15.7515 29.5927 15.7135 29.5927 15.679 29.5681 15.6306 29.5401 15.6065 29.5085 15.5823 29.4945 15.5547 29.5015 15.5443 29.512 15.5374 29.4804 15.4684 29.4313 15.3958 29.3822 15.3199 29.3541 15.2439 29.3646 15.2266 29.3787 15.2059 29.3681 15.1921 29.3436 15.1921 29.2874 15.1921 29.2102 15.0851 29.2067 15.0126 29.2067 14.978 29.1927 14.9504 29.1716 14.9504 29.1541 14.9504 29.1366 14.9262 29.1366 14.8986 29.1366 14.8675 29.098 14.8019 29.0488 14.7501 28.9997 14.6983 28.9401 14.6154 28.9155 14.5636 28.8944 14.5084 28.8629 14.467 28.8488 14.467 28.8313 14.467 28.8208 14.4462 28.8208 14.4186 28.8208 14.3944 28.7962 14.353 28.7681 14.3288 28.7365 14.3047 28.6874 14.2321 28.6594 14.17 28.6278 14.1044 28.5892 14.0526 28.5716 14.0526 28.5541 14.0526 28.5401 14.0319 28.5401 14.0112 28.5401 13.987 28.4629 13.8868 28.3681 13.7867 28.2734 13.6866 28.2032 13.6002 28.2102 13.5968 28.2243 13.583 27.8488 13.1237 27.6945 12.9614 27.6383 12.9027 27.6032 12.8475 27.6137 12.8336 27.6278 12.8198 27.6137 12.8095 27.5822 12.8095 27.5506 12.8095 27.5225 12.7922 27.5225 12.775 27.5225 12.7335 26.2172 11.4524 25.9401 11.2176 25.8348 11.1313 25.6558 10.9828 25.5401 10.8896 25.2594 10.6686 25.2699 10.6789 25.1716 10.5961 24.8734 10.3509 24.7927 10.2888 24.7611 10.2888 24.7436 10.2888 24.6769 10.2335 24.6102 10.1679 24.5436 10.1023 24.4734 10.047 24.4523 10.047 24.4278 10.047 24.3822 10.0159 24.3471 9.97797 24.312 9.93998 24.2594 9.90891 24.2313 9.90891 24.1997 9.90891 24.1892 9.88818 24.2032 9.85712 24.2137 9.82259 24.2067 9.80532 24.1787 9.81221 24.1295 9.82259 23.7681 9.59467 23.7681 9.55669 23.7681 9.53943 23.7541 9.52908 23.7365 9.52908 23.719 9.52908 23.5506 9.42893 23.3681 9.30463 23.1857 9.1803 23.0243 9.08018 23.0102 9.08018 22.9752 9.08018 22.6313 8.83155 22.6173 8.79702 22.6102 8.7832 22.5751 8.7694 22.5366 8.7694 22.5015 8.7694 22.4699 8.75902 22.4699 8.74522 22.4699 8.72796 22.4348 8.70034 22.3892 8.67961 22.0453 8.50695 21.9436 8.44825 21.9436 8.41718 21.9436 8.39645 21.9225 8.38956 21.8944 8.39992 21.8664 8.41027 21.8173 8.38956 21.7857 8.35503 21.7506 8.31703 21.6243 8.23762 21.5015 8.17891 21.3787 8.11676 21.2488 8.04079 21.2102 8.00626 21.1751 7.97173 21.1331 7.95446 21.1225 7.96482 21.112 7.97864 21.0734 7.96482 21.0418 7.93375 21.0067 7.90613 20.8278 7.80943 20.6453 7.71966 20.4629 7.62642 20.2172 7.50556 20.098 7.44341 19.9822 7.3847 19.8067 7.30184 19.7085 7.2604 19.6102 7.21896 19.519 7.16716 19.5085 7.1499 19.4945 7.12919 19.4629 7.12228 19.4348 7.13608 19.4067 7.14645 19.3822 7.13608 19.3822 7.11537 19.3822 7.09466 19.3506 7.07739 19.3155 7.07739 19.2769 7.07739 19.2348 7.06357 19.2243 7.04286 19.2032 7.01178 19.126 6.9738 18.7857 6.82877 18.698 6.79077 18.6032 6.74589 18.5751 6.72862 18.5471 6.71135 18.4839 6.68029 18.4348 6.65956 18.3857 6.64229 18.3015 6.60085 18.2453 6.57323 18.1892 6.54561 18.1295 6.5249 18.112 6.5249 18.0944 6.5249 18.0137 6.49382 17.9365 6.45584 17.8558 6.41784 17.7752 6.38678 17.7611 6.38678 17.7436 6.38678 17.6629 6.35569 17.5857 6.31772 17.505 6.27972 17.4278 6.24866 17.4102 6.24866 17.3962 6.24866 17.3015 6.21066 17.1997 6.16233 17.1015 6.11398 16.9927 6.076 16.9611 6.076 16.9295 6.076 16.8909 6.06563 16.8804 6.05183 16.8558 6.02765 16.6243 5.94132 16.2944 5.83429 16.1892 5.79976 16.0559 5.75485 15.9962 5.7307 15.8102 5.65472 15.7541 5.63746 15.5927 5.59257 15.505 5.5684 15.4032 5.53731 15.3646 5.52351 15.326 5.50969 15.2243 5.4786 15.1366 5.45445 15.0488 5.43027 14.9471 5.39919 14.9085 5.38539 14.8453 5.36121 14.5751 5.2818 14.4874 5.26106 14.4699 5.25762 14.2804 5.20582 14.0664 5.15056 13.8558 5.09532 13.5927 5.0297 13.4874 5.00555 13.3822 4.98137 13.2208 4.94338 13.1295 4.91576 13.0383 4.88814 12.9295 4.86743 12.8839 4.86743 12.8383 4.86743 12.7857 4.85361 12.7681 4.83634 12.7471 4.81908 12.6629 4.79837 12.5751 4.78799 12.4874 4.77763 12.3295 4.75346 12.2243 4.73275 11.098 4.53247 10.3506 4.45306 9.13655 4.40126 8.16814 4.35635 6.23479 4.59118 5.84533 4.7949 5.80322 4.81563 5.74709 4.8329 5.72252 4.82943 5.70145 4.82599 5.64182 4.83634 5.59269 4.85705 5.54356 4.87778 5.44182 4.91231 5.36462 4.93649 5.28742 4.96064 5.12251 5.02626 4.9962 5.08497 4.86989 5.14021 4.75409 5.18856 4.73304 5.192 4.7155 5.19547 4.67339 5.21273 4.64532 5.23 4.61726 5.24727 4.52954 5.29559 4.45234 5.33704 4.10146 5.5166 3.58919 5.84809 3.56463 5.91024 3.5576 5.92406 3.53304 5.93788 3.512 5.93788 3.46286 5.93788 2.47691 6.90474 2.47691 6.94963 2.47691 6.96689 2.44532 7.01869 2.40321 7.06357 2.36112 7.10846 2.32953 7.15334 2.32953 7.16372 2.32953 7.17408 2.26286 7.27767 2.17866 7.39853 2.04883 7.58153 1.62778 8.3723 1.62778 8.43098 1.62778 8.44136 1.59971 8.51042 1.56813 8.58292 1.50497 8.7314 1.39269 9.08706 1.34708 9.30463 1.32953 9.38057 1.29095 9.55323 1.26286 9.68446 1.12953 10.2577 1.10146 10.5684 1.10496 11.4801 1.10496 12.4124 1.13305 12.6886 1.34708 13.8972 1.42075 14.315 1.50497 14.7052 1.53304 14.7294 1.54708 14.7432 1.5576 14.7985 1.5576 14.8537 1.5576 14.909 1.58217 15.0022 1.61374 15.0574 1.64182 15.1161 1.65937 15.1852 1.64882 15.2128 1.6383 15.237 1.65235 15.3026 1.68041 15.3544 1.70848 15.4062 1.73304 15.4856 1.73304 15.527 1.73304 15.5685 1.75059 15.6134 1.76813 15.6237 1.78917 15.6341 1.80322 15.6824 1.80322 15.7273 1.80322 15.7722 1.81726 15.8171 1.83481 15.8275 1.86637 15.8482 1.89796 15.9932 1.92953 16.266 1.94707 16.4145 1.94007 16.4318 1.84533 16.4974 1.75409 16.563 1.73654 16.563 1.67339 16.5215 1.6348 16.4939 1.59269 16.4835 1.57865 16.4939 1.56813 16.5043 1.5576 16.4974 1.5576 16.4732 1.5576 16.4387 1.44532 16.3005 1.2804 16.1348 1.25586 16.1072 1.24182 16.0795 1.25234 16.0692 1.25936 16.0588 1.22077 16.0001 1.16814 15.938 1.06288 15.824 0.715499 15.3406 0.715499 15.313 0.715499 15.3061 0.63128 15.1679 0.526016 15.0126 0.424276 14.8537 0.304968 14.6638 0.262859 14.5878 0.220772 14.5119 0.175139 14.4255 0.154096 14.3979 0.0733987 14.2701-0.196781 13.7004-0.196781 13.6555-0.196781 13.6279-0.210826 13.6037-0.231869 13.6037-0.249413 13.6037-0.266957 13.583-0.266957 13.5588-0.266957 13.5346-0.298545 13.4483-0.337132 13.3689-0.375719 13.2929-0.407308 13.21-0.407308 13.1893-0.407308 13.1548-0.424851 13.1134-0.505549 12.958-0.530115 12.9131-0.547659 12.8509-0.547659 12.8198-0.547659 12.7853-0.572224 12.7266-0.60029 12.6921-0.628356 12.6541-0.652922 12.5954-0.652922 12.5609-0.652922 12.5263-0.666966 12.4711-0.68451 12.4365-0.744141 12.3261-0.863448 11.9186-0.863448 11.8357-0.863448 11.7908-0.877492 11.739-0.895036 11.7218-0.91608 11.701-0.937123 11.632-0.944145 11.5629-0.951167 11.4939-0.968711 11.4214-0.982755 11.4006-0.996777 11.3799-1.02836 11.2176-1.05993 11.0415-1.11608 10.6859-1.16519 10.5615-1.23537 10.5891-1.27748 10.603-1.2845 10.3889-1.2845 9.27354-1.2845 8.2238-1.27398 7.94066-1.23889 7.94066-1.16872 7.94066-1.11608 7.82325-1.07397 7.57118-1.04941 7.44341-1.01784 7.28111-0.993277 7.21552-0.972211 7.1499-0.954667 7.06357-0.951167 7.0256-0.944145 6.9876-0.926601 6.91163-0.905558 6.85294-0.884491 6.79768-0.849404 6.68029-0.824861 6.59396-0.754685 6.32807-0.645899 6.02765-0.59679 5.94823-0.568702 5.90679-0.547659 5.855-0.547659 5.83429-0.547659 5.81356-0.51607 5.7307-0.477483 5.65472-0.438896 5.57531-0.407308 5.48898-0.407308 5.4648-0.407308 5.44063-0.389764 5.41992-0.37222 5.41992-0.351176 5.41992-0.337132 5.39228-0.333633 5.36121-0.333633 5.32668-0.270456 5.192-0.196781 5.05735-0.123106 4.92611-0.035387 4.76383-0.000299305 4.70513 0.0312889 4.64298 0.0698761 4.59118 0.08742 4.59118 0.104964 4.59118 0.119008 4.56009 0.119008 4.52212 0.119008 4.48412 0.136552 4.45306 0.154096 4.45306 0.175139 4.45306 0.189184 4.43233 0.189184 4.40815 0.189184 4.38053 0.220772 4.3322 0.259359 4.29767 0.297946 4.26314 0.329534 4.21823 0.329534 4.19752 0.329534 4.17681 0.375144 4.1112 0.427775 4.04904 0.599715 3.85566 0.645324 3.79697 0.645324 3.77624 0.645324 3.76589 0.666367 3.73827 0.690933 3.71409 0.712 3.68992 0.81374 3.57941 0.908482 3.46547 1.2804 3.0373 2.05585 2.32251 2.13655 2.33977 2.16814 2.34668 2.18216 2.32942 2.17164 2.30524 2.16112 2.27762 2.19268 2.24309 2.24884 2.21892 2.30497 2.19474 2.41725 2.12223 2.50497 2.05317 2.59269 1.98756 2.68743 1.92194 2.7155 1.90814 2.74356 1.89432 2.78917 1.86325 2.81374 1.83908 2.84181 1.8149 2.87689 1.80108 2.89444 1.81146 2.91198 1.82526 2.92603 1.81146 2.92603 1.78728 2.92603 1.75966 2.96814 1.72166 3.02427 1.70096 3.11551 1.65951 3.1506 1.6388 3.3541 1.51104 3.40321 1.47651 3.46989 1.44889 3.49795 1.44889 3.52602 1.44889 3.5611 1.42471 3.57165 1.39362 3.58567 1.36256 3.61726 1.34529 3.64532 1.35909 3.67691 1.36945 3.70848 1.35565 3.719 1.32803 3.73304 1.30039 3.76813 1.27623 3.80322 1.27623 3.84181 1.27623 3.88042 1.25897 3.89094 1.23823 3.91198 1.20717 4.34006 0.999986 4.38567 0.999986 4.39621 0.999986 4.48743 0.961989 4.58567 0.917103 5.03831 0.71683 5.10496 0.68921 5.1506 0.68921 5.17866 0.68921 5.21023 0.675388 5.22077 0.658123 5.23129 0.640858 5.2769 0.620148 5.31901 0.609771 5.36462 0.599416 5.53304 0.551087 5.69796 0.499291 6.31901 0.305905 6.5611 0.24031 6.65235 0.24031 6.70498 0.24031 6.75761 0.223045 6.76813 0.202313 6.78218 0.181604 6.84181 0.171249 6.90498 0.174693 6.96461 0.181604 7.03129 0.174693 7.05233 0.160871 7.11551 0.126341 7.76463-0.00831547 7.7962 0.0123939 7.81374 0.0227486 7.88744 0.00894989 7.96461-0.0152261 8.03831-0.0428462 8.20323-0.0739329 8.32953-0.0842876 8.45584-0.0981089 8.65235-0.122262 8.76813-0.142994 9.19621-0.212056 10.4383-0.291472 11.0839-0.288028 11.6945-0.288028 13.1155-0.191324 13.7506-0.104997 13.8874-0.0877316 14.0769-0.0670222 14.1716-0.0601116 14.2699-0.0497569 14.4173-0.0290475 14.505-0.00831547 14.5927 0.0123939 14.8769 0.060746 15.1366 0.102187 15.3962 0.143606 15.7365 0.20578 15.8909 0.24031 16.0453 0.278285 16.2839 0.330081 16.4173 0.361168 16.5541 0.392232 16.6874 0.426763 16.7155 0.437117 16.7436 0.447495 16.8137 0.461293 16.8734 0.468204 16.9295 0.478559 16.9927 0.499291 17.0102 0.516556 17.0313 0.537265 17.0839 0.551087 17.1331 0.551087 17.2208 0.551087 17.4243 0.606327 17.5295 0.658123 17.5646 0.675388 17.6208 0.68921 17.6558 0.68921 17.6874 0.68921 17.8032 0.720274 17.9085 0.761715 18.0137 0.79969 18.1366 0.837687 18.1787 0.841131 18.2243 0.848042 18.2804 0.872218 18.3085 0.892927 18.3366 0.917103 18.3751 0.927458 18.3927 0.917103 18.4102 0.906749 18.4664 0.924014 18.519 0.951634 18.5751 0.97581 18.6488 0.999986 18.6839 0.999986 18.719 0.999986 18.7576 1.01725 18.7681 1.03452 18.7787 1.05523 18.8278 1.06905 18.8734 1.06905 18.919 1.06905 18.9681 1.08631 18.9787 1.10358 18.9892 1.12429 19.0383 1.13811 19.0839 1.13811 19.1295 1.13811 19.1787 1.15537 19.1892 1.17264 19.1997 1.19335 19.2418 1.20717 19.2804 1.20717 19.3436 1.20717 19.5646 1.2935 19.7787 1.40053 19.8348 1.42815 19.9015 1.44889 19.9295 1.44889 19.9576 1.44889 20.0453 1.47651 20.1295 1.51448 20.326 1.59736 20.6453 1.72858 20.733 1.75966 20.7716 1.77346 20.9225 1.83908 21.0664 1.90814 21.2102 1.97373 21.3892 2.05317 21.4594 2.08424 21.5295 2.11532 21.5997 2.15677 21.6102 2.17403 21.6208 2.19474 21.6594 2.20856 21.698 2.20856 21.733 2.20856 21.8524 2.25689 21.9611 2.31215 22.0699 2.37084 22.1822 2.41575 22.2102 2.41575 22.2383 2.41575 22.2594 2.43301 22.2594 2.45028 22.2594 2.47099 22.2804 2.48481 22.305 2.48481 22.3295 2.48481 22.4348 2.52969 22.5401 2.5884 22.6453 2.64364 22.7892 2.71615 22.8558 2.75068 22.9225 2.78176 22.9857 2.81629 22.9962 2.83011 23.0067 2.84047 23.1085 2.89571 23.2243 2.95442 23.5576 3.12707 23.7857 3.25484 23.7962 3.2859 23.8032 3.29972 23.8383 3.31354 23.8769 3.31354 23.912 3.31354 23.9436 3.32734 23.9436 3.34461 23.9436 3.36187 23.9716 3.38261 24.0067 3.3964 24.105 3.42749 24.4453 3.62085 24.533 3.69683 24.5751 3.73136 24.6348 3.76244 24.6629 3.76244 24.6909 3.76244 24.7155 3.77971 24.7155 3.79697 24.7155 3.81768 24.7365 3.83151 24.7611 3.83151 24.7892 3.83151 24.8383 3.86257 24.8734 3.90057 24.9085 3.93854 24.9506 3.96963 24.9646 3.96963 24.9927 3.96963 25.2208 4.1112 25.3015 4.17681 25.326 4.19408 25.3541 4.21134 25.3646 4.21134 25.3857 4.21134 26.0559 4.66024 26.0839 4.69131 26.0944 4.70166 26.1471 4.73619 26.2032 4.76383 26.2594 4.79146 26.3822 4.88123 26.4734 4.96411 26.5646 5.04353 26.6488 5.10914 26.6594 5.10914 26.6909 5.10914 27.1857 5.47516 27.2979 5.58566 27.3225 5.60637 27.3541 5.6271 27.3681 5.6271 27.3822 5.6271 27.4769 5.69961 27.5786 5.79285 27.912 6.08289 28.0734 6.21413 28.098 6.21413 28.112 6.21413 28.2313 6.31772 28.3646 6.44893 28.5015 6.5767 28.6208 6.67682 28.6313 6.66991 28.6453 6.66302 28.6734 6.69409 28.6945 6.73897 28.7155 6.78388 28.7541 6.81841 28.7787 6.81841 28.8032 6.81841 28.8243 6.83221 28.8313 6.85294 28.8348 6.87021 28.9015 6.93927 28.9787 7.00487 29.1681 7.16716 30.0488 8.04079 30.1401 8.1582 30.1787 8.21 30.3085 8.35156 30.4278 8.47242 30.5471 8.59328 30.6453 8.70723 30.6453 8.72105 30.6453 8.73831 30.7155 8.8212 30.7997 8.90752 30.8874 8.99385 30.9927 9.11124 31.0383 9.17339 31.2032 9.39784 31.4348 9.68446 31.4629 9.69482 31.4769 9.70173 31.4874 9.72935 31.4874 9.75697 31.4874 9.78459 31.505 9.80532 31.5225 9.80532 31.5436 9.80532 31.5576 9.81912 31.5576 9.83985 31.5576 9.85712 31.6278 9.96415 31.7155 10.0781 31.8032 10.1886 31.8734 10.2922 31.8734 10.3025 31.8734 10.3164 31.912 10.3682 31.9576 10.4165 32.0067 10.4683 32.0348 10.5236 32.0243 10.5408 32.0137 10.5581 32.0208 10.5823 32.0383 10.5961 32.105 10.6409 32.2979 10.9379 32.4243 11.1866 32.4558 11.2521 32.4944 11.3143 32.505 11.3247 32.526 11.3419 32.6208 11.4973 32.7822 11.7839 32.8208 11.8564 32.8559 11.9358 32.8559 11.9635 32.8559 11.9911 32.8734 12.0153 32.8909 12.0153 32.912 12.0153 32.926 12.0429 32.9295 12.0774 32.9295 12.1085 32.9611 12.1845 32.9962 12.2397 33.0664 12.3468 33.1787 12.5678 33.2664 12.775 33.2944 12.8406 33.333 12.9234 33.3506 12.9545 33.3681 12.989 33.3822 13.0408 33.3822 13.0685 33.3822 13.0961 33.3997 13.1203 33.4173 13.1203 33.4383 13.1203 33.4523 13.141 33.4523 13.1652 33.4523 13.1893 33.4909 13.2929 33.5401 13.3896 33.5892 13.4897 33.6278 13.5899 33.6278 13.6175 33.6278 13.6451 33.6453 13.6797 33.6629 13.69 33.6839 13.7004 33.698 13.7453 33.698 13.7902 33.698 13.8316 33.712 13.8799 33.7295 13.8972 33.7681 13.9421 33.9015 14.2978 33.9611 14.5188 34.0102 14.7052 34.0734 14.8917 34.119 15.0022 34.1366 15.0402 34.1576 15.1092 34.1646 15.1576 34.1751 15.2059 34.2243 15.3993 34.2769 15.5892 34.3295 15.7791 34.3787 15.9725 34.3857 16.0209 34.3927 16.0692 34.4138 16.1866 34.4348 16.2798 34.4558 16.3765 34.4909 16.5457 34.5085 16.6597 34.5506 16.891 34.5892 16.9601 34.6664 16.929 34.7085 16.9152 34.7155 17.1776 34.7155 18.7833 34.7155 20.3199 34.7085 20.6514 34.6699 20.6376 34.6032 20.6134 34.5506 20.7136 34.505 20.9622 34.4664 21.1659 34.3927 21.4318 34.3295 21.5976 34.312 21.6355 34.2804 21.746 34.2559 21.8393 34.2348 21.936 34.1997 22.0257 34.1857 22.0465 34.1681 22.0637 34.1541 22.1086 34.1541 22.1501 34.1541 22.1915 34.1401 22.2364 34.126 22.2536 34.1085 22.2744 34.0523 22.3987 33.9962 22.5299 33.8348 22.9132 33.6278 23.2965 33.4278 23.59 33.3646 23.6798 33.312 23.7695 33.312 23.7834 33.312 23.8006 33.2804 23.8421 33.2418 23.8766 33.2032 23.9111 33.1716 23.956 33.1716 23.9802 33.1716 24.0043 33.1366 24.0492 33.098 24.0872 33.0559 24.1217 32.9611 24.2323 32.8909 24.3289 32.712 24.5637 32.0418 25.2267 31.8032 25.4028 31.698 25.4788 31.5751 25.5755 31.533 25.6169 31.4909 25.6584 31.4418 25.6895 31.4243 25.6895 31.4067 25.6895 31.3646 25.7205 31.3295 25.7585 31.2944 25.7965 31.2523 25.8276 31.2348 25.8276 31.2172 25.8276 31.1716 25.8586 31.1295 25.8966 31.0874 25.9346 31.0243 25.9657 30.9892 25.9657 30.9506 25.9657 30.9295 25.9795 30.9401 25.9933 30.9506 26.0106 30.9085 26.0486 30.8453 26.0796 30.7822 26.1142 30.6699 26.1763 30.5927 26.2247 30.4664 26.3006 29.8173 26.6183 29.6453 26.6908 29.6067 26.7046 29.5015 26.7495 29.4102 26.791 29.319 26.8324 29.2137 26.8635 29.1751 26.8635 29.1401 26.8635 29.098 26.8877 29.0874 26.9187 29.0769 26.9464 29.0488 26.9602 29.0313 26.9498 29.0102 26.936 28.9716 26.9464 28.9436 26.9671 28.9155 26.9912 28.8418 27.0223 28.7787 27.0362 28.7155 27.0534 28.4979 27.1156 28.2944 27.1743 28.0909 27.233 27.8629 27.2951 27.7857 27.3124 27.7085 27.3297 27.5366 27.3676 27.3997 27.3987 26.8839 27.5161 26.4067 27.5852 25.5751 27.6611 25.0594 27.7095 23.8558 27.7302 23.6804 27.6922Z" fill-rule="evenodd" transform="matrix(1 0 0 -1 24 391)"/></g></svg>