<svg width="29" height="33" xmlns="http://www.w3.org/2000/svg" xmlns:xlink="http://www.w3.org/1999/xlink" overflow="hidden"><defs><clipPath id="clip0"><rect x="1228" y="359" width="29" height="33"/></clipPath></defs><g clip-path="url(#clip0)" transform="translate(-1228 -359)"><path d="M6.04748 8.32957C6.01438 8.29707 6.02098 7.65995 6.05741 7.3479 6.12694 6.75304 6.52749 6.19718 7.33191 5.58607 7.514 5.44954 7.69939 5.29025 7.74241 5.23174 7.8947 5.02695 7.8649 4.72465 7.67621 4.56862 7.55373 4.46786 7.34184 4.40933 7.20943 4.43535 7.00749 4.48085 6.45466 4.88718 5.88857 5.41379 5.74954 5.54381 5.60388 5.65759 5.56745 5.66733 5.40524 5.71934 3.76329 5.0107 2.87608 4.50685 1.99883 4.00951 1.37316 3.55444 1.18778 3.28462 1.10832 3.16436 1.09177 3.1091 1.09177 2.94332 1.09509 2.58575 1.28708 2.3257 1.62475 2.22818 2.76685 1.89337 6.98102 1.33752 9.30161 1.21724 9.49362 1.20423 10.0233 1.17499 10.4768 1.15223 11.6984 1.08397 14.5056 1.05471 15.8761 1.10023 19.1567 1.20099 22.1692 1.49028 24.9434 1.96489 26.2973 2.19568 26.6317 2.29319 26.7674 2.48823 26.9826 2.79704 26.966 3.08634 26.7244 3.40165 26.2973 3.951 23.9767 5.25126 22.6956 5.65759L22.3712 5.76159 22.0534 5.45278C20.6994 4.1428 18.9118 3.36915 16.2535 2.94006 15.5186 2.82305 14.3666 2.77753 13.1814 2.82305 12.1221 2.86206 11.9102 2.88479 11.1224 3.04084 10.0895 3.24236 9.21223 3.46991 8.93086 3.60968 8.79513 3.67796 8.68257 3.81773 8.62299 3.99001 8.57002 4.13305 8.63292 4.33783 8.77195 4.48411 8.91429 4.63363 9.12617 4.62062 9.8379 4.4191 11.3177 4.00302 12.3009 3.86649 13.8236 3.86649 15.5848 3.86649 17.0513 4.07128 18.3722 4.50685 19.7791 4.96845 20.9046 5.66733 21.5005 6.45073 21.6528 6.64901 21.7687 6.89931 21.8349 7.17886 21.8878 7.40641 21.9375 8.21256 21.9044 8.30033 21.8746 8.37183 21.825 8.34583 21.4178 8.04352 20.7126 7.52342 20.1631 7.18537 19.4977 6.85706 17.922 6.07691 16.5912 5.71934 14.8466 5.59582 14.4195 5.56655 13.3469 5.56655 12.9431 5.59906 11.4401 5.70959 9.79157 6.16141 8.48394 6.82129 7.76227 7.18537 7.38489 7.41615 6.6599 7.9395 6.13354 8.31983 6.07396 8.35884 6.04748 8.32957ZM23.7086 13.0657C23.692 13.0657 23.5397 12.9487 23.3709 12.8057 22.7419 12.2791 22.2057 11.941 21.335 11.5217 20.0539 10.9073 18.8191 10.527 17.2963 10.2735 15.3762 9.9549 13.4893 9.90614 11.6388 10.1239 8.63622 10.4782 6.28252 11.3754 4.51476 12.8414 4.23004 13.0787 4.15061 13.1145 4.18702 12.9942 4.33267 12.5001 5.04112 11.1934 5.46152 10.644 5.97465 9.97763 6.94459 9.0317 7.55703 8.60264 8.63292 7.84524 9.98688 7.24712 11.3971 6.90582 12.9861 6.52225 15.1247 6.53524 16.6839 6.94157 17.4949 7.15286 18.2166 7.41615 18.9085 7.75097 20.0075 8.28732 20.6266 8.72291 21.4707 9.5453 22.3844 10.4392 22.7585 10.9496 23.3411 12.0905 23.6887 12.7764 23.798 13.0657 23.7086 13.0657ZM22.1907 15.4169C22.3529 15.5144 22.5152 15.5047 22.674 15.3909 22.876 15.2479 22.9157 15.1731 22.9157 14.9391 22.9157 14.7408 22.9124 14.731 22.7601 14.5685 22.5118 14.3117 22.0947 14.0094 21.4724 13.6421 20.5289 13.0797 19.3371 12.6344 18.1222 12.3808 17.7713 12.3093 17.2052 12.2411 16.6094 12.202 16.03 12.1598 15.9605 12.1403 15.7056 11.9517 15.4441 11.76 15.1528 11.6689 14.7886 11.6689 14.355 11.6657 13.9974 11.8022 13.716 12.072 13.5042 12.2736 13.4479 12.4036 13.4479 12.6896 13.4479 13.0277 13.4976 13.187 13.6697 13.3723 13.9412 13.6713 14.3583 13.8143 14.8846 13.7883 15.3249 13.7656 15.5368 13.6811 15.9473 13.369L16.0797 13.2682 16.6425 13.2845C17.6919 13.317 18.632 13.5283 19.7377 13.9736 20.221 14.1719 21.1182 14.64 21.3929 14.8415 21.4393 14.874 21.6114 15.0041 21.7769 15.1276 21.9458 15.2511 22.1311 15.3811 22.1907 15.4169ZM10.3316 18.786C11.13 18.7897 12.5191 18.7659 12.6457 18.7367 12.8278 18.6944 12.9801 18.5254 13.0098 18.3336 13.0297 18.2133 13.0198 18.1548 12.9569 18.0313 12.8212 17.7712 12.7649 17.7485 12.2153 17.7355L11.742 17.7225 11.7188 17.5404C11.6989 17.3877 11.6758 17.3357 11.5731 17.2381 11.3315 17.0009 10.964 17.0009 10.7058 17.2414 10.6065 17.3324 10.5767 17.3877 10.5734 17.4722 10.5634 17.7355 10.6131 17.7095 10.0801 17.729 9.57695 17.7452 9.52397 17.7582 9.38163 17.9143 9.25583 18.0443 9.2194 18.1288 9.2194 18.2848 9.2194 18.5611 9.41473 18.7237 9.79874 18.7724 9.86496 18.7806 10.0654 18.7848 10.3316 18.786ZM16.283 18.7886C17.1721 18.7929 18.4365 18.7643 18.4812 18.7301 18.511 18.7074 18.5739 18.6228 18.6268 18.5448 18.7924 18.2848 18.7361 18.002 18.4779 17.8134 18.3951 17.7549 18.3223 17.7419 17.8853 17.7289L17.3821 17.7127 17.3457 17.5436C17.2928 17.3226 17.2232 17.2251 17.0577 17.1406 16.6869 16.9553 16.2367 17.1698 16.154 17.5664 16.1407 17.6282 16.1109 17.6899 16.0911 17.7029 16.0712 17.7159 15.9123 17.7289 15.7369 17.7289 15.3164 17.7289 15.2237 17.7517 15.0913 17.8785 14.8728 18.093 14.8695 18.3986 15.0781 18.6196L15.2039 18.7496 15.5779 18.7724C15.7319 18.7821 15.9866 18.7872 16.283 18.7886ZM13.0923 23.1729C14.0391 23.2347 15.4129 23.1599 16.4358 22.9909 18.6373 22.6333 20.2892 21.9019 21.6299 20.6992 22.3714 20.0361 22.9408 18.8886 22.9507 18.0532 22.9541 17.5721 22.8051 17.3738 22.441 17.3706 22.1132 17.3706 21.9907 17.4941 21.9146 17.8939 21.7424 18.8333 21.5008 19.2884 20.8288 19.9256 19.637 21.0633 17.6872 21.8239 15.3269 22.0742 14.7111 22.1392 13.0592 22.1295 12.4368 22.058 11.073 21.8987 9.79183 21.5444 8.77221 21.047 7.97439 20.6569 7.47121 20.3026 6.9283 19.75 6.40194 19.2137 6.21656 18.8659 6.05434 18.089 6.00139 17.8322 5.93186 17.5949 5.89876 17.5494 5.76635 17.3738 5.46178 17.3023 5.26317 17.4031 5.04798 17.5136 4.91557 17.8484 4.96853 18.1507 4.98178 18.2222 5.01158 18.3913 5.03143 18.5245 5.24329 19.776 6.29271 20.9723 7.97109 21.8694 8.17303 21.9799 8.34516 22.0677 8.35509 22.0677 8.36171 22.0677 8.46434 22.11 8.5802 22.162 9.75873 22.6918 11.4272 23.0656 13.0923 23.1729ZM13.87 29.9299C11.5262 29.8812 9.41749 29.14 7.61331 27.7292 7.18625 27.3944 6.39838 26.6175 6.04416 26.1819 5.11395 25.028 4.45516 23.7212 4.07116 22.2487 3.9586 21.8196 3.90895 21.4686 3.9619 21.4881 3.97845 21.4946 4.10756 21.6278 4.2466 21.7806 4.74317 22.33 5.56745 23.0288 5.8985 23.1751 6.11036 23.2694 6.35865 23.2629 6.48446 23.1589 6.61024 23.0548 6.70295 22.8241 6.67645 22.6713 6.64997 22.5055 6.52419 22.3625 6.11036 22.0407 5.71644 21.7319 5.20663 21.2313 4.87891 20.8347 4.32605 20.1618 3.91225 19.2679 3.84274 18.595 3.78646 18.0652 3.79639 16.1245 3.85597 15.7865 3.9288 15.3671 4.21349 14.7853 4.53791 14.3822 4.72992 14.1417 5.2 13.6898 5.5112 13.4493 6.40831 12.7537 7.64971 12.1556 9.103 11.7232 10.7946 11.2194 11.6454 11.1154 14.0686 11.1154 15.7271 11.1154 16.0383 11.1316 16.803 11.2584 18.9118 11.6095 20.7987 12.3083 22.1295 13.2315 23.255 14.0116 23.9999 15.0486 24.0992 15.9653 24.1422 16.3586 24.1389 17.9124 24.0992 18.413 24.0297 19.2354 23.7251 19.9765 23.1359 20.7534 22.8479 21.1305 22.1262 21.8261 21.6826 22.1479 20.2128 23.2174 18.3358 23.9228 16.1045 24.2446 15.0452 24.3974 12.9365 24.4006 11.8606 24.2478 10.6192 24.0756 9.30161 23.7277 8.33828 23.3182 7.69606 23.0484 7.42129 23.0419 7.21936 23.2922 7.1664 23.3604 7.14985 23.4254 7.14985 23.5847 7.14985 23.77 7.15978 23.8025 7.25908 23.9098 7.58351 24.2771 9.55983 24.9337 11.2084 25.223 12.1552 25.3888 12.6087 25.418 14.0024 25.4051 15.6974 25.3855 16.2403 25.3368 17.379 25.093 18.488 24.859 19.6632 24.4591 20.5935 24.004 21.6627 23.4774 22.4473 22.9281 23.3477 22.0764 23.6556 21.7839 23.9238 21.5531 23.9436 21.5596 24.0065 21.5823 23.9734 21.8131 23.8344 22.343 23.3146 24.3129 22.2685 26.0162 20.7656 27.3424 19.0343 28.8735 16.8593 29.7739 14.5685 29.9039 14.2838 29.9202 13.9693 29.9332 13.87 29.9299ZM12.9232 30.9441C14.3897 31.1131 16.1145 30.8953 17.7432 30.3395 19.213 29.8389 20.6365 28.9645 21.8117 27.8398 23.6622 26.0714 24.7845 23.8675 25.142 21.3028 25.2512 20.5129 25.2645 15.5167 25.1585 14.496 25.1122 14.0409 24.9798 13.394 24.8374 12.9357 24.5064 11.8565 24.0529 10.9788 23.2915 9.9549L22.9836 9.53882 22.9637 9.21375C22.9505 9.03497 22.9405 8.39785 22.9372 7.79972L22.9339 6.71078 23.2584 6.58726C25.3572 5.79736 27.3832 4.54262 27.797 3.77872 28.0982 3.22611 28.0618 2.49148 27.7043 1.94537 27.5785 1.75033 27.2938 1.48704 27.1117 1.39603 26.8568 1.26924 26.3304 1.12296 25.8339 1.0417 25.7279 1.02544 25.377 0.966938 25.0592 0.911672 20.8484 0.193289 15.7702-0.128511 11.4799 0.0470106 10.8277 0.0730328 10.2848 0.0925281 10.2716 0.089286 10.255 0.0860225 10.1491 0.0925281 10.0299 0.105539 9.91073 0.115287 9.56976 0.141288 9.26851 0.160783 6.78238 0.323315 4.30287 0.632126 1.82007 1.09046 1.21095 1.20423 0.949434 1.30175 0.677969 1.52279-0.0999804 2.15342-0.222464 3.19036 0.383349 3.99976 0.863355 4.64014 2.83968 5.81685 4.54454 6.47023L5.00469 6.64577 4.98484 7.6697C4.97159 8.23206 4.96496 8.87568 4.96829 9.09998L4.97159 9.50631 4.68357 9.89312C3.8957 10.9528 3.4819 11.7265 3.1343 12.7894 2.96546 13.3063 2.8165 13.9271 2.77678 14.275 2.76022 14.4407 2.73705 15.8287 2.72382 17.3565 2.70064 20.7404 2.72382 21.1988 2.96216 22.291 3.23693 23.5327 3.8957 25.0572 4.59752 26.0682 5.9283 27.9893 7.76227 29.4293 9.88095 30.2225 10.8906 30.5995 11.7877 30.8141 12.9232 30.9441Z" fill-rule="evenodd" transform="matrix(1 0 0 -1 1228 391)"/></g></svg>