<?xml version="1.0" standalone="no"?>
<!DOCTYPE svg PUBLIC "-//W3C//DTD SVG 20010904//EN"
 "http://www.w3.org/TR/2001/REC-SVG-20010904/DTD/svg10.dtd">
<svg version="1.0" xmlns="http://www.w3.org/2000/svg"
 width="848.000000pt" height="954.000000pt" viewBox="0 0 848.000000 954.000000"
 preserveAspectRatio="xMidYMid meet">

<g transform="translate(0.000000,954.000000) scale(0.100000,-0.100000)"
fill="#000000" stroke="none">
<path d="M3895 9519 c-612 -72 -1161 -277 -1635 -612 -325 -230 -650 -565
-874 -905 -215 -325 -400 -763 -481 -1137 -71 -327 -78 -462 -77 -1320 3
-1090 10 -1200 96 -1507 105 -373 245 -650 511 -1011 l73 -98 7 -422 c4 -232
6 -431 4 -441 -3 -14 -49 -37 -182 -92 -476 -194 -993 -501 -1178 -701 -95
-103 -149 -242 -149 -383 0 -150 53 -273 163 -382 116 -116 196 -143 652 -223
203 -35 475 -78 575 -90 30 -4 64 -9 75 -11 11 -2 130 -17 265 -34 1471 -180
2952 -198 4455 -54 754 72 1629 206 1896 290 107 34 158 65 226 137 165 177
200 424 92 640 -117 233 -789 654 -1394 872 -27 10 -56 23 -62 28 -10 7 -13
86 -12 341 1 182 4 376 8 431 l6 100 91 125 c291 397 458 774 539 1215 20 109
28 196 36 395 5 140 13 301 18 357 8 93 0 869 -13 1259 -35 1028 -577 2019
-1434 2621 -503 354 -1024 546 -1672 618 -179 20 -428 17 -625 -6z m682 -334
c275 -35 525 -96 740 -181 388 -152 731 -369 1018 -643 484 -462 781 -1009
920 -1688 14 -71 -11 -54 -225 153 -126 122 -222 203 -350 294 -430 306 -983
526 -1610 639 -237 43 -366 52 -815 58 -329 4 -426 2 -545 -11 -464 -52 -902
-163 -1305 -330 -82 -35 -172 -71 -200 -81 -92 -33 -149 -67 -335 -198 -277
-195 -432 -327 -586 -501 -93 -105 -98 -100 -64 52 137 615 422 1137 855 1567
487 484 1112 787 1795 869 161 19 558 20 707 1z m-3210 -5231 c209 -182 518
-373 803 -494 462 -198 945 -311 1585 -372 198 -18 771 -15 985 5 714 70 1241
211 1753 468 236 119 399 225 576 376 53 46 99 83 104 83 25 0 -31 -141 -143
-357 -154 -298 -255 -437 -500 -686 -217 -222 -350 -330 -562 -457 -351 -212
-842 -391 -1213 -444 -370 -52 -856 -42 -1189 24 -273 55 -573 161 -856 301
-348 173 -572 343 -858 653 -197 211 -297 358 -438 636 -108 213 -153 330
-128 330 3 0 40 -30 81 -66z m662 -1518 c209 -152 359 -245 541 -336 378 -190
755 -305 1205 -366 182 -25 678 -25 885 -1 277 34 432 66 665 139 407 127 763
311 1148 596 77 57 133 92 142 88 29 -11 13 -271 -25 -396 -119 -400 -798
-784 -1610 -910 -705 -109 -1399 -71 -1990 110 -157 48 -244 63 -285 50 -40
-13 -77 -57 -95 -112 -10 -34 -9 -44 13 -92 14 -30 39 -64 58 -79 79 -59 523
-175 874 -228 205 -30 666 -45 970 -31 771 36 1526 285 1977 653 35 29 108 96
164 151 l101 99 120 -40 c459 -153 1143 -565 1234 -743 37 -73 16 -180 -48
-240 -52 -50 -166 -79 -563 -147 -498 -85 -1091 -159 -1615 -201 -1000 -80
-2193 -90 -3065 -25 -730 54 -1254 115 -1812 209 -432 74 -567 108 -610 154
-68 72 -88 174 -49 251 86 168 720 543 1230 728 111 40 98 44 233 -84 116
-109 223 -194 304 -239 58 -32 71 -36 111 -30 124 17 183 153 109 251 -15 19
-71 68 -124 109 -105 80 -229 203 -281 279 -85 125 -110 230 -111 460 0 76 3
97 14 97 7 0 91 -56 185 -124z"/>
</g>
</svg>
