<svg width="25" height="34" xmlns="http://www.w3.org/2000/svg" xmlns:xlink="http://www.w3.org/1999/xlink" overflow="hidden"><defs><clipPath id="clip0"><rect x="260" y="358" width="25" height="34"/></clipPath></defs><g clip-path="url(#clip0)" transform="translate(-260 -358)"><path d="M15.1817 7.25081C15.1481 7.23538 15.0841 7.22303 15.0383 7.22303 14.9896 7.21995 14.953 7.2076 14.953 7.1891 14.953 7.17367 14.9286 7.15824 14.9011 7.15824 14.8371 7.15824 14.5535 6.8682 14.5078 6.75713 14.4346 6.58743 14.4041 6.45167 14.4041 6.28506 14.4041 6.12152 14.4163 6.07524 14.5139 5.84693 14.5688 5.71733 17.7278 2.51772 17.8559 2.45911 17.9108 2.43441 17.9961 2.40048 18.0419 2.37887 18.1425 2.33877 18.4993 2.33259 18.5755 2.3727 18.603 2.38813 18.6761 2.42208 18.7341 2.44983 18.8896 2.51772 19.0756 2.70594 19.1488 2.86947 19.286 3.17184 19.2829 3.42485 19.1396 3.76425 19.0726 3.91852 15.9592 7.07185 15.7946 7.15207 15.7244 7.186 15.6116 7.2292 15.5445 7.24771 15.3982 7.28784 15.267 7.28784 15.1817 7.25081ZM7.06304 10.6997C6.91362 10.6997 6.7825 10.6874 6.77336 10.6689 6.76421 10.6534 6.72152 10.638 6.67884 10.638 6.63918 10.638 6.60565 10.6257 6.60565 10.6071 6.60565 10.5917 6.58736 10.5763 6.56601 10.5763 6.54466 10.5763 6.46843 10.5485 6.3983 10.5146 6.33121 10.4806 6.25802 10.4529 6.24278 10.4529 6.22449 10.4529 6.1635 10.4251 6.10252 10.3912 6.04153 10.3572 5.97444 10.3295 5.95309 10.3295 5.9287 10.3295 5.84943 10.2986 5.77624 10.2647 5.70611 10.2276 5.61767 10.1875 5.58414 10.1752 5.55061 10.1629 5.48352 10.1351 5.43168 10.1135 5.3829 10.0919 5.31275 10.0641 5.27921 10.0518 5.24568 10.0394 5.15724 9.99931 5.08711 9.9623 5.01392 9.92835 4.93465 9.89749 4.9133 9.89749 4.89195 9.89749 4.81268 9.86664 4.73949 9.8327 4.66936 9.79567 4.58092 9.75557 4.54739 9.74322 4.4803 9.71854 4.38272 9.67843 4.2516 9.6229 4.20282 9.60437 4.13573 9.57662 4.09914 9.56119 4.0595 9.54576 3.96192 9.50256 3.87654 9.46553 3.79421 9.4285 3.69055 9.38222 3.64785 9.36679 3.60515 9.34828 3.53502 9.31435 3.48928 9.28965 3.4405 9.26497 3.40391 9.25264 3.40391 9.26497 3.40391 9.27423 3.36731 9.25572 3.32157 9.22794 3.27583 9.19709 3.23316 9.17551 3.23009 9.18166 3.21791 9.19094 3.07153 9.12613 2.7666 8.97495 2.60499 8.89472 2.36715 8.66023 2.36715 8.5831 2.36715 8.55842 2.35495 8.53989 2.34276 8.53989 2.33056 8.53989 2.30313 8.44425 2.28178 8.32701 2.25128 8.16656 2.25128 8.08325 2.27567 7.96601 2.35495 7.62968 2.49216 7.44148 2.78795 7.26561 2.88249 7.21315 2.95262 7.20082 3.21181 7.20082 3.42219 7.19772 3.53502 7.21007 3.55941 7.23783 3.58076 7.25635 3.62346 7.27486 3.65395 7.27486 3.68138 7.27486 3.75457 7.30264 3.81556 7.33657 3.87654 7.37052 3.94974 7.39828 3.98327 7.39828 4.0168 7.39828 4.04426 7.4137 4.04426 7.42913 4.04426 7.44766 4.07171 7.45998 4.1022 7.45998 4.13573 7.45998 4.17233 7.47541 4.18147 7.49084 4.19062 7.50937 4.23331 7.52169 4.27599 7.52169 4.31565 7.52169 4.34918 7.53712 4.34918 7.55255 4.34918 7.57107 4.37053 7.5834 4.39492 7.5834 4.41931 7.5834 4.4864 7.61118 4.54739 7.64511 4.60837 7.67906 4.67546 7.70682 4.69985 7.70682 4.72424 7.70682 4.79133 7.7346 4.85231 7.76853 4.9133 7.80248 4.98649 7.83024 5.01698 7.83024 5.05052 7.83024 5.08101 7.84567 5.08711 7.86419 5.09321 7.87962 5.1176 7.89812 5.14199 7.9043 5.16639 7.90738 5.24262 7.93515 5.30971 7.96601 5.37679 7.99686 5.44692 8.02462 5.46521 8.02772 5.48656 8.03079 5.52315 8.0524 5.55061 8.074 5.57804 8.0956 5.59939 8.10485 5.59939 8.0956 5.59939 8.08325 5.63598 8.0925 5.68476 8.11718 5.88603 8.22517 6.03543 8.29306 6.05982 8.29306 6.07507 8.29306 6.15436 8.32083 6.23363 8.35786 6.37391 8.42265 6.44708 8.4535 6.5843 8.50596 6.69713 8.54914 6.8313 8.60778 6.88619 8.63555 6.91668 8.65098 6.96242 8.66331 6.98681 8.66331 7.0112 8.66331 7.03255 8.67874 7.03255 8.69416 7.03255 8.71269 7.0539 8.72502 7.07829 8.72502 7.10268 8.72502 7.14842 8.73737 7.17891 8.7528 7.22771 8.77748 7.27345 8.79908 7.48384 8.88547 7.53568 8.90707 7.58142 8.93483 7.58142 8.94718 7.58142 8.9626 7.59666 8.97186 7.61191 8.97186 7.65461 8.97186 7.85585 9.17551 7.85585 9.21869 7.85585 9.23412 7.865 9.24955 7.88024 9.24955 7.89245 9.24955 7.92294 9.29583 7.94733 9.35136 8.00528 9.47788 8.01136 10.1166 7.95343 10.1382 7.93513 10.1443 7.91684 10.1752 7.91684 10.2091 7.91684 10.24 7.90463 10.2677 7.89245 10.2677 7.8772 10.2677 7.84671 10.3017 7.82536 10.3449 7.78266 10.4251 7.4869 10.638 7.41675 10.638 7.39236 10.638 7.36187 10.6534 7.35272 10.6689 7.34358 10.6874 7.21246 10.6997 7.06304 10.6997ZM18.1242 14.48C18.0083 14.4677 17.9138 14.4276 17.7736 14.3319 17.6272 14.2301 14.6663 11.2218 14.5688 11.0737 14.4437 10.8885 14.4041 10.7497 14.4041 10.5276 14.4041 10.3517 14.4193 10.2869 14.5078 10.0894 14.5535 9.98451 14.8005 9.71917 14.8523 9.71917 14.8737 9.71917 14.892 9.70682 14.892 9.68831 14.892 9.67288 14.9194 9.65746 14.9499 9.65746 14.9835 9.65746 15.0201 9.64511 15.0292 9.6266 15.0383 9.60808 15.1817 9.59575 15.3494 9.59575 15.5171 9.59575 15.6604 9.60808 15.6695 9.6266 15.6787 9.64511 15.7153 9.65746 15.7488 9.65746 15.7793 9.65746 15.8068 9.67288 15.8068 9.68831 15.8068 9.70682 15.822 9.71917 15.8403 9.71917 15.8586 9.71917 15.8891 9.73767 15.9104 9.75927 16.1239 9.966 18.4932 12.3541 18.7524 12.6226 19.1518 13.0391 19.2524 13.2242 19.2524 13.5482 19.2524 13.6901 19.2403 13.7364 19.1366 13.9771 19.0817 14.1067 18.7829 14.409 18.7097 14.409 18.6792 14.409 18.6426 14.4214 18.6273 14.4368 18.5908 14.4708 18.2736 14.4985 18.1242 14.48ZM7.08173 18.5202C6.93192 18.5221 6.77946 18.4982 6.65749 18.4473 6.52638 18.3948 6.27633 18.1233 6.20924 17.9629 6.13911 17.8024 6.12387 17.3921 6.18179 17.2501 6.20314 17.2038 6.24278 17.1051 6.27327 17.0341 6.30682 16.9601 6.33121 16.8891 6.33121 16.8706 6.33121 16.8552 6.35866 16.7935 6.3922 16.7318 6.42573 16.6701 6.45318 16.596 6.45318 16.5621 6.45318 16.5281 6.46843 16.5004 6.48368 16.5004 6.50197 16.5004 6.51417 16.4788 6.51417 16.4541 6.51417 16.4294 6.52638 16.3831 6.54162 16.3523 6.55687 16.3245 6.5843 16.2628 6.60261 16.2165 6.62089 16.1671 6.65139 16.0931 6.66968 16.0468 6.69102 15.9974 6.71541 15.9326 6.72762 15.8987 6.73982 15.8648 6.77946 15.7753 6.81606 15.7043 6.84959 15.6303 6.88008 15.5439 6.88008 15.5099 6.88008 15.4791 6.89533 15.4513 6.91058 15.4513 6.92886 15.4513 6.94107 15.4297 6.94107 15.405 6.94107 15.3803 6.95327 15.3341 6.96852 15.3032 6.99595 15.2477 7.0539 15.1119 7.09657 14.9977 7.14842 14.862 7.19111 14.7571 7.21855 14.7046 7.23379 14.6738 7.246 14.6275 7.246 14.6028 7.246 14.5781 7.26124 14.5565 7.27649 14.5565 7.29478 14.5565 7.30698 14.5349 7.30698 14.5102 7.30698 14.4856 7.31919 14.4393 7.33443 14.4084 7.36187 14.356 7.40456 14.2511 7.4564 14.1184 7.46859 14.0783 7.49908 14.0073 7.52043 13.9549 7.54178 13.9055 7.57227 13.8314 7.58446 13.7944 7.59971 13.7543 7.62412 13.6926 7.63936 13.6556 7.66375 13.5908 7.75523 13.381 7.8345 13.2082 7.8772 13.1125 8.19431 12.804 8.25836 12.7947 8.27055 12.7916 8.29496 12.7886 8.3102 12.7855 8.32849 12.7855 8.35898 12.7639 8.38033 12.7454 8.42607 12.696 8.91089 12.6898 8.93835 12.7361 8.94749 12.7546 8.97798 12.767 9.00237 12.767 9.02982 12.767 9.12434 12.8163 9.21278 12.878 9.35914 12.9768 9.41098 13.0385 9.56041 13.2915 9.58784 13.3439 9.60308 13.4643 9.60615 13.6648 9.60919 13.9117 9.59698 13.9826 9.5421 14.0968 9.48417 14.2109 9.41403 14.3714 9.39574 14.4331 9.38964 14.4516 9.33779 14.575 9.24938 14.7725 9.19449 14.9021 9.17925 14.9422 9.1091 15.1212 9.04507 15.2909 9.01762 15.3526 8.95663 15.476 8.9231 15.55 8.89261 15.6303 8.89261 15.6519 8.89261 15.6735 8.86211 15.7537 8.82858 15.8277 8.76453 15.9542 8.72794 16.0437 8.67916 16.1764 8.64866 16.2628 8.60597 16.3677 8.52973 16.5374 8.49316 16.6176 8.46571 16.6978 8.46571 16.7133 8.46571 16.7287 8.43521 16.8027 8.40168 16.8768 8.36509 16.9477 8.32239 17.0403 8.3102 17.0804 8.29496 17.1174 8.2675 17.1853 8.24922 17.2347 8.22787 17.281 8.20348 17.3458 8.19127 17.3797 8.15164 17.4877 8.10894 17.5895 8.04491 17.7345 8.01136 17.8117 7.96562 17.9197 7.94123 17.9752 7.91988 18.0277 7.89245 18.0739 7.88024 18.0739 7.865 18.0739 7.85585 18.0925 7.85585 18.114 7.85585 18.1757 7.6424 18.364 7.48994 18.438 7.37865 18.4905 7.23151 18.5182 7.08173 18.5202ZM19.8471 22.6657C19.5696 22.675 19.536 22.6688 19.3439 22.5762 19.164 22.4898 19.0177 22.3325 18.9292 22.1288L18.856 21.9684 18.856 19.6111 18.856 17.2538 18.9292 17.0872C19.039 16.8404 19.3073 16.5997 19.469 16.5997 19.4995 16.5997 19.533 16.5874 19.5421 16.5689 19.5879 16.4948 19.9965 16.538 20.2282 16.6429 20.338 16.6892 20.6246 16.9761 20.6246 17.0409 20.6246 17.0687 20.6368 17.0934 20.6521 17.0934 20.7131 17.0934 20.7252 17.4297 20.7375 19.5463 20.7466 21.2495 20.7405 21.808 20.7131 21.9375 20.6917 22.0301 20.6673 22.1134 20.6582 22.1227 20.646 22.1319 20.6216 22.1751 20.5972 22.2214 20.5301 22.3541 20.3776 22.5022 20.2282 22.5824 20.1246 22.6348 20.03 22.6565 19.8471 22.6657ZM8.92044 26.6619C8.79198 26.6731 8.65629 26.6746 8.57547 26.6607 8.41387 26.633 8.03881 26.3769 8.03881 26.2967 8.03881 26.2751 8.02966 26.2504 8.01746 26.2442 8.00221 26.2411 7.95954 26.1671 7.91988 26.0807 7.88024 25.9974 7.83756 25.9017 7.82232 25.8739 7.80707 25.8431 7.79487 25.7968 7.79487 25.7721 7.79487 25.7474 7.78266 25.7258 7.76437 25.7258 7.74913 25.7258 7.73388 25.6919 7.73388 25.6518 7.73388 25.6086 7.72168 25.5654 7.70339 25.5561 7.68814 25.5469 7.6729 25.5099 7.6729 25.4759 7.6729 25.4451 7.66069 25.4173 7.6424 25.4173 7.62716 25.4173 7.61191 25.3957 7.61191 25.371 7.61191 25.3463 7.59971 25.3001 7.58446 25.2692 7.56921 25.2414 7.54178 25.1797 7.52347 25.1334 7.50519 25.0841 7.47469 25.01 7.4564 24.9637 7.43506 24.9144 7.4076 24.8465 7.39542 24.8095 7.38017 24.7694 7.35576 24.7046 7.33748 24.6614 7.32223 24.6182 7.29478 24.5534 7.27953 24.5163 7.26428 24.4762 7.22161 24.3775 7.18501 24.2911 7.14842 24.2078 7.10574 24.1091 7.09353 24.0751 7.08133 24.0412 7.05694 23.9764 7.03559 23.9301 7.0173 23.8808 6.98681 23.8067 6.96852 23.7604 6.95021 23.7111 6.92278 23.6493 6.90754 23.6216 6.89229 23.5907 6.88008 23.5444 6.88008 23.5198 6.88008 23.4951 6.86788 23.4735 6.84959 23.4735 6.83434 23.4735 6.8191 23.4457 6.8191 23.4118 6.8191 23.3778 6.79165 23.3038 6.75811 23.2421 6.72458 23.1804 6.69713 23.1186 6.69713 23.1032 6.69713 23.0847 6.66968 23.0045 6.6331 22.9243 6.5965 22.844 6.55381 22.7453 6.53856 22.7021 6.52027 22.6589 6.49588 22.6003 6.48064 22.5725 6.46539 22.5417 6.45318 22.4954 6.45318 22.4707 6.45318 22.446 6.44098 22.4244 6.42269 22.4244 6.40745 22.4244 6.3922 22.3905 6.3922 22.3535 6.3922 22.3133 6.38306 22.2701 6.37085 22.2578 6.28547 22.1714 6.22753 21.5913 6.30072 21.5451 6.31901 21.5358 6.33121 21.4988 6.33121 21.4648 6.33121 21.3785 6.49282 21.1471 6.61479 21.0576 6.93803 20.8231 7.26735 20.7922 7.6424 20.965 7.76742 21.0236 8.03881 21.2921 8.03881 21.3599 8.03881 21.3846 8.05406 21.4062 8.0693 21.4062 8.08759 21.4062 8.09979 21.4278 8.09979 21.4525 8.09979 21.4772 8.112 21.5235 8.12725 21.5543 8.14249 21.5821 8.16992 21.65 8.19127 21.6993 8.21262 21.7518 8.24005 21.8166 8.2553 21.8444 8.27055 21.8752 8.28275 21.9215 8.28275 21.9462 8.28275 21.9708 8.298 21.9925 8.31324 21.9925 8.33153 21.9925 8.34374 22.0141 8.34374 22.0387 8.34374 22.0634 8.35594 22.1097 8.37119 22.1406 8.40168 22.1992 8.46267 22.3473 8.4962 22.4398 8.50841 22.4738 8.5328 22.5386 8.55414 22.5879 8.59988 22.7021 8.64256 22.8101 8.67612 22.8965 8.6883 22.9335 8.731 23.0261 8.7676 23.097 8.80113 23.1711 8.83162 23.2452 8.83162 23.2606 8.83162 23.276 8.85907 23.3562 8.89565 23.4364 8.93224 23.5167 8.96884 23.6092 8.98409 23.6432 8.99629 23.6771 9.03593 23.7666 9.07252 23.8375 9.10606 23.9116 9.13655 23.9918 9.13655 24.0165 9.13655 24.0381 9.164 24.106 9.19753 24.1677 9.23107 24.2294 9.25852 24.2911 9.25852 24.3065 9.25852 24.322 9.30122 24.43 9.35304 24.5441 9.46587 24.794 9.50856 24.8959 9.51771 24.9422 9.52381 24.9576 9.5543 25.0347 9.5909 25.1088 9.62443 25.1828 9.65493 25.263 9.65493 25.2846 9.65493 25.3062 9.66713 25.3247 9.68542 25.3247 9.70067 25.3247 9.71287 25.3556 9.71287 25.3957 9.71287 25.4327 9.72812 25.5253 9.74945 25.5994 9.7891 25.7444 9.75861 25.9388 9.66713 26.1486 9.60919 26.2751 9.3561 26.5373 9.22192 26.6052 9.1701 26.6299 9.04889 26.6507 8.92044 26.6619ZM8.45046 28.9625C8.75539 28.9964 9.03287 28.9964 9.24327 28.9625 9.3439 28.9471 9.47807 28.9255 9.5421 28.9162 9.60308 28.9039 9.66407 28.8854 9.67321 28.8699 9.68238 28.8545 9.72201 28.8422 9.76165 28.8422 9.80129 28.8422 9.84399 28.8298 9.85313 28.8113 9.86227 28.7959 9.89583 28.7804 9.92632 28.7804 9.99035 28.7804 10.5514 28.4966 10.6002 28.438 10.6093 28.4287 10.6764 28.3793 10.7527 28.3269 10.896 28.2251 11.2009 27.9165 11.3412 27.7252 11.3839 27.6635 11.4388 27.5956 11.4601 27.5709 11.4815 27.5494 11.5333 27.4629 11.576 27.3766 11.6187 27.2933 11.6583 27.2161 11.6674 27.2069 11.7315 27.1452 11.8718 26.744 11.9754 26.3275 12.0273 26.1239 12.0303 25.26 11.9785 25.0872 11.9602 25.0131 11.9266 24.8959 11.9084 24.8249 11.8718 24.6891 11.8534 24.6336 11.7925 24.4855 11.7742 24.4361 11.7467 24.3652 11.7284 24.322 11.7132 24.2788 11.6857 24.2109 11.6674 24.1677 11.6522 24.1245 11.6248 24.0597 11.6095 24.0227 11.5943 23.9826 11.5516 23.8838 11.515 23.7974 11.4784 23.7141 11.4357 23.6123 11.4205 23.5753 11.4052 23.5352 11.3808 23.4704 11.3625 23.4272 11.3473 23.384 11.3198 23.3192 11.3046 23.2822 11.2924 23.2421 11.2497 23.1495 11.2131 23.0785 11.1796 23.0045 11.1491 22.9304 11.1491 22.915 11.1491 22.8996 11.1247 22.8286 11.0911 22.7546 11.0606 22.6836 11.018 22.5849 10.9966 22.5324 10.9722 22.483 10.9539 22.4337 10.9539 22.4244 10.9509 22.4152 10.9356 22.3874 10.9204 22.3627 10.9051 22.338 10.8899 22.301 10.8868 22.2825 10.8838 22.2671 10.8533 22.1899 10.8167 22.1159 10.7832 22.0418 10.7527 21.9616 10.7527 21.94 10.7527 21.9184 10.7405 21.8999 10.7222 21.8999 10.7069 21.8999 10.6917 21.8721 10.6917 21.8382 10.6917 21.8042 10.6642 21.7302 10.6307 21.6685 10.5972 21.6068 10.5697 21.5389 10.5697 21.5142 10.5697 21.4895 10.5423 21.4216 10.5087 21.3599 10.4752 21.2982 10.4477 21.2303 10.4477 21.2057 10.4477 21.181 10.4355 21.1594 10.4172 21.1594 10.402 21.1594 10.3868 21.1254 10.3868 21.0853 10.3868 21.0421 10.3745 20.9989 10.3563 20.9897 10.341 20.9804 10.3258 20.9434 10.3258 20.9095 10.3258 20.8786 10.3136 20.8508 10.2953 20.8508 10.28 20.8508 10.2648 20.8262 10.2648 20.7984 10.2648 20.7367 9.95985 20.1011 9.92326 20.0856 9.90801 20.0795 9.89887 20.0548 9.89887 20.0301 9.89887 20.0054 9.88972 19.9869 9.87752 19.9869 9.86227 19.9869 9.80129 19.9036 9.73726 19.8018 9.65493 19.6753 9.62443 19.6012 9.63968 19.5549 9.64882 19.521 9.67321 19.4932 9.68846 19.4932 9.70371 19.4932 9.71591 19.4716 9.71591 19.447 9.71591 19.4223 9.73116 19.4007 9.7464 19.4007 9.76469 19.4007 9.7769 19.3822 9.7769 19.3575 9.7769 19.3328 9.78604 19.3081 9.80129 19.3019 9.81349 19.2989 9.88362 19.1693 9.95681 19.015 10.03 18.8638 10.1154 18.6848 10.1459 18.6201 10.1794 18.5522 10.2038 18.4812 10.2038 18.4565 10.2038 18.4349 10.2312 18.3671 10.2648 18.3053 10.2983 18.2436 10.3258 18.1696 10.3258 18.1356 10.3258 18.1017 10.341 18.0739 10.3563 18.0739 10.3745 18.0739 10.3868 18.0462 10.3868 18.0153 10.3868 17.9814 10.402 17.9443 10.4172 17.9351 10.4355 17.9258 10.4477 17.8826 10.4477 17.8394 10.4477 17.7993 10.463 17.7654 10.4782 17.7654 10.4965 17.7654 10.5087 17.7438 10.5087 17.7191 10.5087 17.6944 10.5362 17.6265 10.5697 17.5648 10.6032 17.5031 10.6307 17.4352 10.6307 17.4106 10.6307 17.3859 10.6581 17.318 10.6917 17.2563 10.7252 17.1946 10.7527 17.1205 10.7527 17.0897 10.7527 17.0588 10.774 17.0156 10.7984 16.994 10.8228 16.9755 10.8411 16.9477 10.838 16.9385 10.835 16.9261 10.8563 16.8614 10.8868 16.7935 10.9173 16.7256 10.9448 16.6546 10.9478 16.6361 10.9509 16.6145 10.9722 16.5775 10.9936 16.5497 11.0149 16.522 11.0241 16.5004 11.0149 16.5004 11.0027 16.5004 11.0119 16.4633 11.0393 16.417 11.0942 16.3091 11.2101 16.0437 11.2101 16.0221 11.2101 16.0129 11.2375 15.9388 11.2741 15.8586 11.3595 15.6611 11.4357 15.476 11.4845 15.3433 11.515 15.2569 11.5577 15.152 11.6339 14.9823 11.6705 14.9021 11.6979 14.8219 11.6979 14.8034 11.6979 14.7849 11.7101 14.7478 11.7254 14.717 11.7406 14.6892 11.7681 14.609 11.7833 14.5411 11.8016 14.4732 11.8352 14.3498 11.8565 14.2634 11.9358 13.9394 11.8931 13.0292 11.7864 12.8225 11.7711 12.7916 11.7589 12.7392 11.7589 12.7083 11.7589 12.6744 11.7467 12.6374 11.7284 12.6281 11.7132 12.6189 11.6979 12.5849 11.6979 12.5541 11.6979 12.4738 11.3747 11.8444 11.3015 11.7796 11.2893 11.7704 11.2314 11.6963 11.1704 11.6099 11.0362 11.4279 10.6002 11.0268 10.4752 10.9712 10.4264 10.9496 10.3868 10.9219 10.3868 10.9095 10.3868 10.8941 10.3654 10.8848 10.341 10.8848 10.3166 10.8848 10.2953 10.8725 10.2953 10.854 10.2953 10.8386 10.2739 10.8231 10.2495 10.8231 10.1824 10.8231 10.1642 10.6997 10.2038 10.5115 10.2709 10.1629 10.2983 9.84196 10.2831 9.57352 10.2648 9.28658 10.2129 8.95953 10.1763 8.87929 10.1642 8.85461 10.1337 8.76822 10.1093 8.68799 10.0879 8.6047 10.0574 8.53989 10.0452 8.53989 10.033 8.53989 10.0208 8.51214 10.0208 8.47818 10.0208 8.42265 9.969 8.30231 9.92936 8.2622 9.92022 8.25295 9.89277 8.20667 9.86838 8.15421 9.84399 8.10485 9.81653 8.05547 9.80739 8.04622 9.79825 8.03697 9.77386 7.99376 9.74945 7.94748 9.70371 7.85492 9.49332 7.60501 9.31951 7.42913 9.07556 7.18229 8.87736 7.03727 8.56633 6.87685 8.42607 6.80279 8.30714 6.73183 8.29496 6.7164 8.28579 6.70097 8.2614 6.68862 8.24005 6.68862 8.21566 6.68862 8.14553 6.66394 8.08151 6.63617 8.01442 6.60841 7.95647 6.58373 7.94733 6.58063 7.91988 6.57138 7.74913 6.49732 7.63326 6.43871 7.56617 6.40476 7.49604 6.38008 7.47469 6.38008 7.45334 6.38008 7.37407 6.34922 7.30088 6.31529 7.23075 6.27826 7.14231 6.23816 7.10878 6.22581 7.07524 6.21038 6.98377 6.17335 6.90447 6.13634 6.8252 6.09931 6.74591 6.07153 6.72762 6.07153 6.71237 6.07153 6.65139 6.04378 6.5904 6.00982 6.52942 5.97589 6.46233 5.94811 6.44098 5.94811 6.41659 5.94811 6.33732 5.91726 6.26413 5.88333 6.194 5.8463 6.10252 5.80309 6.06592 5.79077 6.02629 5.77534 5.96226 5.75066 5.91956 5.73213 5.87686 5.71671 5.81284 5.68895 5.77624 5.67352 5.7366 5.65809 5.63902 5.61489 5.55365 5.57786 5.47131 5.54083 5.37069 5.49765 5.3341 5.48222 5.29446 5.46679 5.23347 5.44211 5.19688 5.42669 5.10846 5.39273 4.99867 5.34955 4.89195 5.30327 4.84317 5.28474 4.77304 5.25699 4.73034 5.23846 4.68764 5.22303 4.61752 5.19218 4.57178 5.17368 4.523 5.15207 4.45895 5.12739 4.42542 5.11504 4.39188 5.10271 4.33089 5.07801 4.2882 5.05951 4.20892 5.02558 4.08695 4.98855 3.8735 4.93301 3.56247 4.8497 2.90382 4.86513 2.47388 4.96077 2.39154 4.9793 2.28482 5.00088 2.23604 5.01323 2.1903 5.02248 2.14456 5.04101 2.13542 5.05643 2.12625 5.07186 2.09272 5.08419 2.05918 5.08419 2.02869 5.08419 2.00124 5.09962 2.00124 5.11504 2.00124 5.13357 1.97379 5.1459 1.94025 5.1459 1.90672 5.1459 1.82132 5.17985 1.75119 5.22303 1.67802 5.26624 1.59569 5.30942 1.56824 5.32177 1.53774 5.33103 1.51335 5.34955 1.51335 5.36498 1.51335 5.3804 1.49507 5.39273 1.47372 5.39273 1.45237 5.39273 1.40359 5.42051 1.36699 5.45444 1.3304 5.4884 1.2938 5.51615 1.28466 5.51615 1.26941 5.51615 1.11391 5.64882 1.02851 5.73523 0.857759 5.90801 0.629064 6.16102 0.629064 6.17645 0.629064 6.1857 0.580283 6.25666 0.522339 6.3338 0.409512 6.48499 0.202165 6.90153 0.202165 6.97866 0.202165 7.00334 0.18996 7.0342 0.171672 7.04345 0.156426 7.0527 0.141179 7.08973 0.141179 7.12368 0.141179 7.15454 0.128974 7.20697 0.113728 7.23783 0.00700293 7.44456-0.0417775 8.49053 0.0435983 8.78055 0.0619059 8.85153 0.09544 8.96878 0.113728 9.04282 0.156426 9.20944 0.177775 9.26497 0.260109 9.4285 0.293643 9.50256 0.324136 9.58277 0.324136 9.60747 0.324136 9.63215 0.336341 9.65065 0.348526 9.65065 0.363772 9.65065 0.391224 9.70003 0.415614 9.75865 0.440004 9.81728 0.467456 9.86664 0.482702 9.86664 0.494887 9.86664 0.507093 9.88824 0.507093 9.91292 0.507093 9.9376 0.522339 9.9592 0.537585 9.9592 0.555873 9.9592 0.568078 9.9808 0.568078 10.0055 0.568078 10.0302 0.580283 10.0518 0.592468 10.0518 0.604673 10.0518 0.641269 10.095 0.671762 10.1474 0.796774 10.3603 1.30905 10.8139 1.56213 10.9342 1.62008 10.962 1.66582 10.9959 1.66582 11.0113 1.66582 11.0268 1.68411 11.0391 1.70852 11.0391 1.73291 11.0391 1.81218 11.07 1.88537 11.1039 1.9555 11.1409 2.04394 11.181 2.07747 11.1934 2.111 11.2057 2.20859 11.2489 2.29092 11.2859 2.47084 11.3693 2.5379 11.397 2.80319 11.4988 2.83979 11.5112 2.93127 11.5544 3.0014 11.5914 3.07459 11.6253 3.15386 11.6562 3.17825 11.6562 3.1996 11.6562 3.26669 11.684 3.32767 11.7179 3.38866 11.7519 3.46185 11.7796 3.49538 11.7796 3.52892 11.7796 3.55637 11.795 3.55637 11.8105 3.55637 11.829 3.57466 11.8413 3.59601 11.8413 3.61736 11.8413 3.69359 11.8691 3.76372 11.903 3.83081 11.937 3.904 11.9647 3.91924 11.9647 3.93753 11.9647 3.99852 11.9925 4.0595 12.0265 4.12049 12.0604 4.18757 12.0882 4.21197 12.0882 4.23636 12.0882 4.30344 12.1159 4.36443 12.1499 4.42542 12.1838 4.49861 12.2116 4.53214 12.2116 4.56567 12.2116 4.59312 12.227 4.59312 12.2424 4.59312 12.261 4.61141 12.2733 4.63276 12.2733 4.65411 12.2733 4.73034 12.3011 4.80047 12.335 4.86756 12.3689 4.94075 12.3967 4.956 12.3967 4.97428 12.3967 5.03527 12.4245 5.09626 12.4584 5.15724 12.4924 5.22127 12.5201 5.24262 12.5201 5.26092 12.5201 5.34324 12.551 5.42253 12.5911 5.5323 12.6405 5.56889 12.6775 5.56889 12.7299 5.56889 12.767 5.55669 12.7978 5.5384 12.7978 5.52315 12.7978 5.50791 12.8256 5.50791 12.8564 5.50791 12.8904 5.4957 12.9274 5.47742 12.9367 5.46217 12.9459 5.44692 12.9891 5.44692 13.0323 5.44692 13.0724 5.43472 13.1064 5.41643 13.1064 5.40118 13.1064 5.38594 13.1341 5.38594 13.165 5.38594 13.1989 5.37373 13.236 5.35544 13.2452 5.3402 13.2545 5.32495 13.2977 5.32495 13.3409 5.32495 13.381 5.31275 13.4149 5.29446 13.4149 5.27921 13.4149 5.26397 13.4365 5.26397 13.4612 5.26397 13.4859 5.23651 13.5537 5.20298 13.6155 5.16945 13.6772 5.14199 13.7451 5.14199 13.7697 5.14199 13.7944 5.11454 13.8623 5.08101 13.924 5.04748 13.9857 5.02002 14.0598 5.02002 14.0937 5.02002 14.1277 5.00782 14.1554 4.98953 14.1554 4.97428 14.1554 4.95904 14.1739 4.95904 14.1955 4.95904 14.2171 4.93159 14.2943 4.89805 14.3652 4.86452 14.4331 4.83707 14.5072 4.83707 14.5226 4.83707 14.5411 4.80962 14.6028 4.77608 14.6645 4.74255 14.7262 4.7151 14.7941 4.7151 14.8188 4.7151 14.8435 4.68764 14.9113 4.65411 14.9731 4.62058 15.0348 4.59312 15.1088 4.59312 15.1397 4.59312 15.1736 4.57788 15.2045 4.55959 15.2106 4.54434 15.2168 4.52604 15.2415 4.51993 15.2662 4.51689 15.2909 4.48944 15.368 4.45895 15.4359 4.42846 15.5038 4.40102 15.5778 4.39796 15.5994 4.39492 15.621 4.37357 15.655 4.35529 15.6735 4.33394 15.6951 4.31869 15.729 4.31869 15.7506 4.31869 15.7722 4.30648 15.8154 4.29124 15.8462 4.24246 15.9388 4.14488 16.1733 4.1022 16.2998 4.08085 16.3677 4.05036 16.4356 4.03815 16.4541 4.02597 16.4695 4.01376 16.5096 4.01376 16.5466 4.01376 16.5837 4.00156 16.6238 3.98937 16.6392 3.95278 16.6855 3.89789 16.9416 3.85826 17.281 3.82166 17.5772 3.84909 18.003 3.92228 18.2745 3.93753 18.3269 3.96498 18.4288 3.98631 18.5059 4.00766 18.583 4.03511 18.6571 4.05036 18.6756 4.06254 18.691 4.07475 18.725 4.07475 18.7527 4.07475 18.8422 4.36139 19.3729 4.47726 19.4963 4.55959 19.5858 4.65411 19.7401 4.65411 19.7802 4.65411 19.8049 4.63276 19.8419 4.60837 19.8635 4.58398 19.8851 4.56873 19.9129 4.57788 19.9252 4.58398 19.9376 4.56567 19.9715 4.53214 20.0023 4.46201 20.0671 4.19062 20.6133 4.12659 20.82 3.98631 21.2612 3.93449 21.7117 3.98327 22.0943 4.03511 22.5293 4.10828 22.8132 4.26075 23.1557 4.29124 23.2297 4.31869 23.2945 4.31869 23.3007 4.31869 23.3069 4.34918 23.3778 4.38578 23.4611 4.42237 23.5444 4.45591 23.6277 4.45895 23.6463 4.46201 23.6648 4.50469 23.7666 4.55653 23.8777 4.60533 23.9857 4.66325 24.1245 4.6846 24.1831 4.70595 24.2418 4.73644 24.3035 4.75169 24.322 4.76388 24.3374 4.77608 24.3682 4.77608 24.3899 4.77608 24.4145 4.80353 24.4917 4.83707 24.5596 4.8706 24.6305 4.89805 24.7076 4.89805 24.7293 4.89805 24.7509 4.9133 24.7694 4.92855 24.7694 4.94683 24.7694 4.95904 24.7971 4.95904 24.8311 4.95904 24.865 4.98649 24.9391 5.02002 25.0008 5.05356 25.0625 5.08101 25.1304 5.08101 25.155 5.08101 25.1797 5.10846 25.2476 5.14199 25.3093 5.17553 25.371 5.20298 25.4389 5.20298 25.4636 5.20298 25.4883 5.21823 25.5099 5.23347 25.5099 5.25176 25.5099 5.26397 25.5438 5.26397 25.5839 5.26397 25.6271 5.27921 25.6703 5.29446 25.6796 5.31275 25.6888 5.32495 25.7258 5.32495 25.7598 5.32495 25.7907 5.3402 25.8184 5.35544 25.8184 5.37373 25.8184 5.38594 25.8524 5.38594 25.8925 5.38594 25.9357 5.40118 25.9789 5.41643 25.9881 5.43472 25.9974 5.44692 26.0344 5.44692 26.0683 5.44692 26.0992 5.46217 26.127 5.47742 26.127 5.4957 26.127 5.50791 26.1547 5.50791 26.1856 5.50791 26.2195 5.5384 26.3059 5.57194 26.38 5.60853 26.4509 5.64817 26.5404 5.66037 26.5743 5.70915 26.707 5.75185 26.8027 5.90736 27.1297 5.99579 27.318 6.07813 27.4753 6.08727 27.4846 6.09948 27.4938 6.15436 27.5709 6.20924 27.6543 6.26719 27.7406 6.32817 27.824 6.34646 27.8425 6.36171 27.861 6.4349 27.9381 6.50197 28.0153 6.57211 28.0924 6.67578 28.185 6.73066 28.2251 6.78861 28.2652 6.84045 28.3084 6.84959 28.3176 6.88008 28.3577 7.15148 28.5336 7.17891 28.5336 7.19722 28.5336 7.2155 28.5429 7.22161 28.5583 7.23075 28.5799 7.46249 28.6971 7.60581 28.7527 7.6424 28.7681 7.70339 28.7928 7.74302 28.8082 7.92598 28.8854 8.13333 28.9285 8.45046 28.9625ZM15.344 29.6485C15.2244 29.6481 15.1054 29.6388 15.0749 29.6203 15.0505 29.608 14.9804 29.574 14.9194 29.5463 14.7761 29.4845 14.5688 29.2747 14.5078 29.1297 14.4803 29.068 14.4468 28.994 14.4315 28.9662 14.395 28.8921 14.395 28.4571 14.4346 28.4324 14.4529 28.4232 14.4651 28.3861 14.4651 28.3522 14.4651 28.3183 14.5047 28.2319 14.5535 28.1609 14.6907 27.9634 17.7979 24.8379 17.8589 24.8379 17.8864 24.8379 17.9108 24.8255 17.9108 24.807 17.9108 24.7916 17.9382 24.7762 17.9718 24.7762 18.0053 24.7762 18.0937 24.7607 18.1669 24.7391 18.4139 24.6712 18.7676 24.7947 18.9841 25.0261 19.2677 25.3254 19.3256 25.7357 19.1427 26.1492 19.0756 26.2973 15.9348 29.4753 15.7915 29.5401 15.7244 29.5709 15.6452 29.608 15.6177 29.6234 15.5842 29.6404 15.4637 29.6489 15.344 29.6485ZM15.349 32C15.5483 32.0007 15.7473 31.9853 15.7732 31.9529 15.7946 31.9282 15.8586 31.9005 15.9226 31.8912 16.191 31.8511 16.2672 31.8326 16.2825 31.8079 16.2916 31.7925 16.3312 31.7801 16.3709 31.7801 16.4105 31.7801 16.4532 31.7678 16.4624 31.7493 16.4715 31.7338 16.5051 31.7184 16.5386 31.7184 16.5965 31.7184 16.8862 31.5734 17.0265 31.4716 17.0722 31.4376 17.1271 31.4099 17.1454 31.4099 17.1637 31.4099 17.1789 31.4006 17.1789 31.3852 17.1789 31.3728 17.2308 31.3296 17.2979 31.2895 17.3619 31.2494 18.1547 30.4657 19.0573 29.5463 20.527 28.0529 20.9479 27.6117 20.9448 27.5561 20.9448 27.5469 20.9722 27.5068 21.0058 27.4667 21.0393 27.4265 21.0668 27.3834 21.0668 27.3741 21.0668 27.3618 21.0942 27.3155 21.1247 27.2692 21.1521 27.2229 21.1826 27.1674 21.1857 27.1427 21.1887 27.118 21.207 27.0779 21.2223 27.0563 21.2528 27.0162 21.2955 26.9267 21.3138 26.8588 21.3229 26.8218 21.3869 26.6398 21.4174 26.5503 21.5577 26.1769 21.5516 25.1865 21.4083 24.8379 21.3839 24.77 21.3748 24.6743 21.3839 24.5602 21.3869 24.5448 21.4083 24.5293 21.4327 24.5293 21.4571 24.5293 21.4784 24.517 21.4784 24.4985 21.4784 24.483 21.4967 24.4676 21.5181 24.4676 21.5394 24.4676 21.5882 24.4398 21.6248 24.4059 21.6614 24.372 21.698 24.3442 21.7071 24.3442 21.7651 24.3442 22.3627 23.7302 22.3627 23.6685 22.3627 23.653 22.3749 23.6345 22.3871 23.6284 22.4603 23.5975 22.7896 22.9928 22.7896 22.8909 22.7896 22.8601 22.8049 22.8262 22.8201 22.8169 22.8384 22.8076 22.8506 22.7644 22.8506 22.7243 22.8506 22.6842 22.8628 22.6441 22.878 22.6348 22.9055 22.6163 22.9177 22.5485 22.9726 22.1381 23.0092 21.8481 23.0092 17.3186 22.9726 17.0625 22.9177 16.6923 22.8933 16.5843 22.8415 16.4794 22.814 16.4208 22.7896 16.3591 22.7896 16.3405 22.7896 16.2881 22.5396 15.7913 22.4786 15.7234 22.4481 15.6895 22.4237 15.6432 22.4237 15.6216 22.4237 15.6 22.4115 15.5815 22.3993 15.5815 22.3871 15.5815 22.3536 15.5445 22.3231 15.4982 22.2529 15.381 22.009 15.1249 21.8443 14.9953 21.7681 14.9367 21.7041 14.878 21.698 14.8657 21.6919 14.8533 21.6675 14.841 21.6431 14.841 21.6187 14.841 21.6004 14.8287 21.6004 14.8102 21.6004 14.7947 21.579 14.7793 21.5547 14.7793 21.5303 14.7793 21.5089 14.7701 21.5089 14.7546 21.5089 14.7423 21.4784 14.7176 21.4418 14.7022 21.3626 14.6682 21.3473 14.5448 21.4053 14.3936 21.4845 14.1869 21.512 13.9617 21.512 13.5266 21.5089 13.0916 21.4845 12.8756 21.4053 12.6658 21.3869 12.6164 21.3748 12.564 21.3778 12.5516 21.393 12.5084 21.1735 12.024 21.0698 11.8697 21.0271 11.8049 20.9905 11.7432 20.9905 11.7278 20.9905 11.7155 20.9661 11.6784 20.9387 11.6445 20.9082 11.6136 20.8472 11.5365 20.8015 11.4779 20.7588 11.4192 20.0758 10.7127 19.286 9.91047 18.4962 9.10825 17.8498 8.44178 17.8498 8.42945 17.8498 8.4171 18.4779 7.76608 19.2463 6.98237 20.5667 5.63402 20.8991 5.28537 20.9265 5.20516 20.9326 5.18663 20.9631 5.14345 20.9966 5.1095 21.0271 5.07556 21.0515 5.03854 21.0515 5.02619 21.0515 5.01076 21.0851 4.94905 21.1278 4.88734 21.1705 4.82563 21.1948 4.76392 21.1887 4.75159 21.1796 4.73617 21.1857 4.71764 21.204 4.70531 21.2406 4.68371 21.3321 4.49241 21.3229 4.45538 21.3199 4.43995 21.329 4.39367 21.3473 4.35048 21.4784 4.04502 21.515 3.8167 21.515 3.31994 21.515 2.94968 21.4998 2.7769 21.4632 2.63806 21.4327 2.53624 21.4022 2.4159 21.3961 2.36654 21.3869 2.32026 21.3687 2.27398 21.3534 2.26471 21.3382 2.25546 21.326 2.22152 21.326 2.18757 21.326 2.11661 21.1217 1.69082 21.0698 1.65997 21.0515 1.64762 21.0454 1.63529 21.0607 1.63529 21.082 1.63529 20.9387 1.41931 20.8167 1.25886 20.707 1.12309 20.3624 0.780615 20.2587 0.709653 20.2008 0.669547 20.1459 0.626342 20.1367 0.61709 20.1276 0.607838 20.091 0.583138 20.0544 0.564633 20.0148 0.543031 19.9538 0.506002 19.9172 0.487497 19.8776 0.465895 19.841 0.441215 19.8318 0.431963 19.8166 0.416536 19.7007 0.361002 19.5665 0.305447 19.5177 0.286943 19.4568 0.259166 19.4293 0.243738 19.3988 0.228311 19.35 0.215981 19.3195 0.215981 19.289 0.215981 19.2524 0.206729 19.2403 0.194379 19.2037 0.15735 18.9414 0.0956408 18.8164 0.0925635 18.7432 0.0925635 18.6944 0.0771362 18.6853 0.0462817 18.67 0.0092523 18.5969 0 18.2889 0 17.9779 0 17.9047 0.0092523 17.8925 0.0462817 17.8803 0.0771362 17.8315 0.0925635 17.7431 0.0925635 17.6699 0.0925635 17.5997 0.107991 17.5906 0.123418 17.5814 0.141923 17.5327 0.154272 17.4839 0.154272 17.4351 0.154272 17.3863 0.166602 17.3771 0.185127 17.368 0.200554 17.3253 0.215981 17.2857 0.215981 17.246 0.215981 17.2033 0.231409 17.1942 0.246836 17.185 0.265341 17.1515 0.27769 17.118 0.27769 17.06 0.27769 16.7703 0.422711 16.6301 0.524526 16.5843 0.558458 16.5294 0.586235 16.5112 0.586235 16.4929 0.586235 16.4776 0.598565 16.4776 0.610915 16.4776 0.623265 16.4319 0.660274 16.38 0.691129 16.2764 0.752838 12.849 4.19311 12.849 4.23632 12.849 4.25175 12.8307 4.27952 12.8124 4.3042 12.7392 4.38134 12.666 4.4739 12.666 4.49241 12.666 4.50166 12.6264 4.56647 12.5806 4.63743 12.48 4.78862 12.3611 5.04161 12.3611 5.10332 12.3611 5.12802 12.3489 5.15888 12.3306 5.16813 12.3153 5.17738 12.3001 5.21441 12.3001 5.24834 12.3001 5.2792 12.2879 5.33165 12.2727 5.36251 12.2208 5.46742 12.169 5.6618 12.1537 5.81297 12.1171 6.18015 12.1446 6.85278 12.2025 7.0194 12.2208 7.07185 12.2513 7.17367 12.2727 7.25081 12.291 7.32794 12.3458 7.47296 12.3946 7.57168 12.4434 7.67042 12.4831 7.77224 12.4831 7.79384 12.4831 7.81852 12.4983 7.83704 12.5135 7.83704 12.5319 7.83704 12.544 7.8648 12.544 7.89875 12.544 7.93268 12.5593 7.96046 12.5745 7.96046 12.5928 7.96046 12.605 7.98206 12.605 8.00674 12.605 8.03142 12.6172 8.05302 12.6294 8.05302 12.6447 8.05302 12.6752 8.09005 12.6996 8.13941 12.724 8.18569 12.7666 8.25048 12.7971 8.28133 12.852 8.34614 12.8703 8.51584 12.8185 8.51584 12.8032 8.51584 12.788 8.53435 12.788 8.55595 12.788 8.57755 12.7605 8.62691 12.727 8.66394 12.6935 8.70097 12.666 8.74415 12.666 8.76268 12.666 8.7781 12.6538 8.79353 12.6386 8.79353 12.6264 8.79353 12.5684 8.8861 12.5135 9.00026 12.4617 9.1175 12.4038 9.23475 12.3885 9.26252 12.3733 9.29338 12.3611 9.33348 12.3611 9.35199 12.3611 9.37051 12.3397 9.40445 12.3153 9.42913 12.291 9.45381 12.2787 9.49083 12.2879 9.51244 12.2971 9.53712 12.2818 9.59265 12.2574 9.63893 12.233 9.68831 12.2208 9.74692 12.23 9.76853 12.2391 9.79321 12.23 9.83333 12.2086 9.85801 12.1171 9.96908 12.111 11.0829 12.2025 11.2495 12.2208 11.2835 12.2361 11.339 12.2361 11.373 12.233 11.5149 12.48 12.0549 12.7087 12.4035 12.8215 12.5763 13.2698 13.0484 14.4773 14.2702 16.1544 15.9641 16.3648 16.1678 16.4105 16.1678 16.4258 16.1678 16.4624 16.1955 16.4929 16.2295 16.5233 16.2634 16.563 16.2912 16.5782 16.2912 16.6819 16.2912 16.7734 16.5318 16.6911 16.5843 16.6758 16.5935 16.6606 16.6429 16.6606 16.6954 16.6606 16.7447 16.6484 16.8095 16.6331 16.8404 16.5599 16.9792 16.5386 17.584 16.5386 19.6296 16.5417 21.7864 16.5538 22.0949 16.6606 22.5238 16.7307 22.8046 16.7338 22.8601 16.6728 22.8848 16.6392 22.8971 16.5874 22.9311 16.5569 22.9619 16.5233 22.9928 16.4837 23.0175 16.4685 23.0175 16.4044 23.0175 16.066 23.3445 14.5596 24.8718 12.7941 26.6552 12.6935 26.7663 12.5715 27.0532 12.5471 27.1057 12.5196 27.152 12.5074 27.152 12.4922 27.152 12.4831 27.1797 12.4831 27.2137 12.4831 27.2476 12.4709 27.2754 12.4526 27.2754 12.4373 27.2754 12.4221 27.2939 12.4221 27.3155 12.4221 27.3371 12.3946 27.4142 12.3611 27.4852 12.3275 27.5531 12.3001 27.6395 12.3001 27.6765 12.3001 27.7104 12.2879 27.7629 12.2727 27.7937 12.1812 27.9819 12.1415 28.2349 12.1385 28.6793 12.1354 28.9909 12.169 29.3457 12.2025 29.3797 12.2239 29.4012 12.2391 29.4475 12.2391 29.4845 12.2391 29.5247 12.2513 29.5648 12.2696 29.574 12.2848 29.5833 12.2971 29.6234 12.2971 29.6604 12.294 29.7468 12.3672 29.9597 12.3977 29.9597 12.4129 29.9597 12.4221 29.9875 12.4221 30.0214 12.4221 30.0831 12.5044 30.2467 12.6081 30.3979 12.6416 30.441 12.666 30.4935 12.666 30.512 12.666 30.5305 12.6782 30.5459 12.6904 30.5459 12.7026 30.5459 12.7392 30.5922 12.7727 30.6478 12.8459 30.7743 13.2911 31.2248 13.4222 31.3019 13.4741 31.3358 13.5198 31.3728 13.5198 31.3852 13.5198 31.3975 13.5351 31.4099 13.5534 31.4099 13.5716 31.4099 13.6265 31.4376 13.6723 31.4716 13.8125 31.5734 14.1022 31.7184 14.1602 31.7184 14.1937 31.7184 14.2272 31.7338 14.2364 31.7493 14.2455 31.7678 14.2852 31.7801 14.3248 31.7801 14.3614 31.7801 14.4041 31.7894 14.4163 31.8017 14.4468 31.8326 14.709 31.9005 14.8036 31.9035 14.8493 31.9035 14.9011 31.9251 14.9225 31.9498 14.9499 31.9822 15.1496 31.9992 15.349 32Z" fill-rule="evenodd" transform="matrix(1 0 0 -1 261 391)"/></g></svg>