<svg width="1504" height="620" xmlns="http://www.w3.org/2000/svg" xmlns:xlink="http://www.w3.org/1999/xlink" xml:space="preserve" overflow="hidden"><defs><clipPath id="clip0"><rect x="764" y="569" width="1504" height="620"/></clipPath></defs><g clip-path="url(#clip0)" transform="translate(-764 -569)"><path d="M1691.2 674.414C1644.36 674.414 1606.38 712.12 1606.38 758.631 1606.38 781.887 1615.88 802.942 1631.23 818.182L1653.38 833.011 1653.38 948.263 1654.8 948.263 1656.44 955.564C1662.36 968.107 1676.21 976.908 1692.35 976.908 1708.49 976.908 1722.34 968.107 1728.26 955.564L1729.9 948.263 1731.32 948.263 1731.32 941.963 1731.32 941.961 1731.32 941.959 1731.32 831.476 1751.18 818.182C1766.53 802.942 1776.02 781.887 1776.02 758.631 1776.02 712.12 1738.05 674.414 1691.2 674.414ZM1488.32 569C1683.65 569.631 1753.85 610.821 1806.88 689.397 2002.27 1032.91 2093.44 1052.85 2262.73 1161.91 2270.9 1177.39 2269.9 1188.29 2257.44 1187.74 1793.6 1144.58 1232.33 1133.5 786.836 1188.88 766.616 1190.2 771.612 1180.07 764 1175.66 782.031 1145.4 920.68 1091.81 1009.2 997.532 1092 926.169 1161.42 799.997 1212.61 713.107 1269.53 635.677 1312.48 569.514 1488.32 569Z" fill-rule="evenodd"/></g></svg>