<?xml version="1.0" standalone="no"?>
<!DOCTYPE svg PUBLIC "-//W3C//DTD SVG 20010904//EN"
 "http://www.w3.org/TR/2001/REC-SVG-20010904/DTD/svg10.dtd">
<svg version="1.0" xmlns="http://www.w3.org/2000/svg"
 width="101.000000pt" height="29.000000pt" viewBox="0 0 101.000000 29.000000"
 preserveAspectRatio="xMidYMid meet">

<g transform="translate(0.000000,29.000000) scale(0.100000,-0.100000)"
fill="#000000" stroke="none">
<path d="M20 270 c-18 -18 -20 -33 -20 -140 l0 -120 30 0 30 0 0 110 c0 61 4
110 9 110 10 0 15 -15 51 -136 11 -41 27 -75 36 -78 33 -13 93 -6 103 12 10
16 10 16 11 -1 0 -14 7 -18 28 -15 25 3 30 11 62 105 19 56 38 105 41 108 4 3
19 -33 33 -82 45 -147 29 -133 155 -133 l109 0 27 32 28 33 -7 -33 c-7 -31 -6
-32 23 -32 29 0 30 2 61 103 33 105 46 131 54 106 2 -8 14 -45 26 -84 35 -118
39 -125 70 -125 32 0 32 -1 -13 147 -33 105 -42 121 -74 129 -51 13 -75 -12
-110 -116 -17 -52 -32 -86 -32 -76 -1 11 -13 33 -28 48 -22 23 -35 28 -74 28
-60 0 -79 7 -79 30 0 24 19 30 96 30 62 0 64 1 64 25 0 25 -1 25 -87 25 -94 0
-104 -3 -122 -37 -17 -33 -13 -67 10 -97 18 -23 27 -26 85 -26 62 0 64 -1 64
-25 0 -25 -1 -25 -79 -25 l-79 0 -21 73 c-32 107 -47 136 -76 143 -42 10 -83
-13 -95 -55 -5 -20 -21 -70 -35 -111 l-24 -75 -1 118 0 117 -30 0 -30 0 0
-105 c0 -60 -4 -105 -10 -105 -8 0 -36 80 -56 163 -7 29 -48 57 -84 57 -11 0
-29 -9 -40 -20z"/>
</g>
</svg>
