<?xml version="1.0" standalone="no"?>
<!DOCTYPE svg PUBLIC "-//W3C//DTD SVG 20010904//EN"
 "http://www.w3.org/TR/2001/REC-SVG-20010904/DTD/svg10.dtd">
<svg version="1.0" xmlns="http://www.w3.org/2000/svg"
 width="217.000000pt" height="146.000000pt" viewBox="0 0 217.000000 146.000000"
 preserveAspectRatio="xMidYMid meet">

<g transform="translate(0.000000,146.000000) scale(0.100000,-0.100000)"
fill="#000000" stroke="none">
<path d="M1638 1430 c-10 -6 -20 -26 -24 -45 -6 -36 -25 -49 -56 -40 -10 4
-33 2 -51 -4 -26 -9 -43 -8 -76 4 -49 17 -85 20 -76 6 8 -14 -23 -21 -88 -19
-49 1 -56 4 -52 18 6 20 -28 30 -102 30 -24 0 -53 5 -64 11 -16 8 -35 6 -81
-10 -59 -20 -96 -21 -47 -2 21 9 21 10 4 10 -11 0 -40 -4 -65 -10 -34 -8 -60
-7 -110 5 -36 8 -108 20 -160 26 -86 11 -103 10 -175 -8 -142 -36 -159 -45
-160 -78 0 -21 -4 -28 -15 -25 -24 6 -71 1 -92 -10 -26 -14 -18 -33 18 -39
l29 -5 -40 -17 c-22 -8 -54 -19 -71 -22 -17 -4 -41 -18 -53 -30 l-22 -24 24
-26 c14 -15 35 -26 50 -26 14 0 29 -4 32 -10 10 -17 30 -11 91 25 32 19 63 35
68 35 6 0 3 -5 -6 -11 -21 -12 -24 -29 -5 -29 7 0 30 9 52 20 46 23 48 23 114
9 66 -14 105 -43 91 -69 -8 -16 -5 -19 20 -25 32 -7 37 -24 20 -69 -6 -18 -6
-26 1 -26 6 0 8 -11 4 -28 -4 -22 0 -33 20 -50 33 -28 31 -65 -3 -70 -18 -3
-30 -17 -47 -55 -12 -29 -33 -61 -45 -72 -36 -31 -50 -78 -50 -161 0 -75 1
-77 35 -110 28 -26 38 -46 49 -99 8 -36 16 -69 20 -72 3 -3 -2 -12 -11 -18
-15 -11 -13 -14 15 -29 25 -13 32 -23 32 -45 0 -15 8 -35 18 -44 27 -25 34
-21 19 10 -8 16 -19 54 -26 85 -7 32 -17 60 -22 63 -14 9 -11 67 4 63 13 -5
23 -23 62 -118 15 -36 40 -79 56 -95 16 -17 29 -36 29 -43 0 -9 35 -22 161
-58 27 -7 50 6 44 26 -3 10 3 44 14 76 10 33 22 71 25 86 4 19 21 36 52 54 44
26 49 27 95 15 51 -13 69 -9 69 15 0 12 11 14 63 8 70 -7 87 -17 87 -48 0 -39
21 -96 35 -96 20 0 27 33 20 94 -4 30 -4 63 0 75 3 11 32 40 64 64 100 77 101
78 101 124 0 23 5 45 11 49 9 5 10 -1 5 -22 -7 -25 -2 -22 47 29 49 50 72 63
108 59 4 -1 9 12 13 29 5 25 16 34 72 59 72 33 84 36 66 18 -7 -7 -12 -18 -12
-24 0 -13 23 -9 85 16 28 11 29 12 12 25 -14 10 -15 14 -5 18 10 4 10 8 -2 16
-9 6 -19 6 -26 1 -6 -6 -14 -7 -17 -3 -12 12 -7 41 8 47 8 3 15 11 15 17 0 11
-36 9 -75 -6 -11 -4 -4 3 15 16 27 18 54 24 120 29 98 6 170 36 170 71 0 31
-18 57 -50 74 -25 13 -30 22 -30 53 0 21 -6 47 -14 57 -13 18 -14 18 -44 -3
-16 -12 -39 -22 -50 -22 -18 0 -20 5 -15 33 6 41 -9 55 -71 63 -37 6 -50 3
-67 -12 -31 -28 -49 -68 -49 -108 0 -33 -4 -38 -50 -61 -37 -19 -51 -32 -56
-53 -10 -46 -13 -52 -29 -58 -16 -6 -45 12 -45 27 0 5 8 9 18 9 10 0 13 3 6 8
-6 4 -11 18 -10 31 1 20 -6 27 -34 35 -19 6 -42 16 -50 21 -8 6 -31 15 -50 20
-31 9 -35 15 -38 47 -3 31 2 40 30 61 47 36 148 87 169 87 11 0 38 14 61 30
28 21 53 30 79 30 35 0 44 5 76 44 29 35 -46 36 -81 1 -30 -30 -43 -31 -51 -5
-3 11 -12 19 -18 17 -7 -1 -12 11 -12 33 0 37 -17 48 -47 30z m-1323 -270 c-3
-5 -12 -10 -18 -10 -7 0 -6 4 3 10 19 12 23 12 15 0z m255 -100 c0 -5 -4 -10
-10 -10 -5 0 -10 5 -10 10 0 6 5 10 10 10 6 0 10 -4 10 -10z"/>
<path d="M1702 1270 c-18 -11 -32 -24 -32 -29 0 -5 27 -8 60 -8 33 1 60 5 60
9 0 3 -13 16 -28 27 -28 20 -29 20 -60 1z"/>
<path d="M1710 1210 c-12 -8 -10 -10 8 -10 13 0 20 4 17 10 -7 12 -6 12 -25 0z"/>
<path d="M170 1080 c-14 -11 -20 -20 -15 -19 13 0 50 28 44 33 -2 3 -15 -4
-29 -14z"/>
<path d="M1690 1040 c-13 -8 -12 -10 3 -10 9 0 17 5 17 10 0 12 -1 12 -20 0z"/>
<path d="M535 1017 c-4 -10 -5 -21 -1 -24 10 -10 18 4 13 24 -4 17 -4 17 -12
0z"/>
<path d="M493 950 c1 -11 5 -20 10 -20 5 0 7 6 4 14 -4 9 1 17 11 19 12 3 11
5 -5 6 -16 1 -21 -4 -20 -19z"/>
<path d="M530 871 c0 -18 34 -51 52 -51 22 0 5 41 -22 55 -28 15 -30 14 -30
-4z"/>
<path d="M1955 850 c3 -5 13 -10 21 -10 8 0 12 5 9 10 -3 6 -13 10 -21 10 -8
0 -12 -4 -9 -10z"/>
<path d="M1987 763 c-12 -11 -8 -23 8 -23 8 0 15 7 15 15 0 16 -12 20 -23 8z"/>
</g>
</svg>
