<svg width="112" height="83" xmlns="http://www.w3.org/2000/svg" xmlns:xlink="http://www.w3.org/1999/xlink" xml:space="preserve" overflow="hidden"><defs><clipPath id="clip0"><rect x="3672" y="1931" width="112" height="83"/></clipPath></defs><g clip-path="url(#clip0)" transform="translate(-3672 -1931)"><path d="M3734.37 1982.75 3733.31 1983.02C3731.59 1983.37 3729.82 1983.55 3728 1983.55 3725.95 1983.55 3723.96 1983.32 3722.05 1982.88L3721.6 1982.76 3721.46 1983.34C3721.16 1984.76 3721.01 1986.22 3721.01 1987.72 3721.01 1993.73 3723.45 1999.17 3727.4 2003.11L3728 2003.65 3728.6 2003.11C3732.55 1999.17 3734.99 1993.73 3734.99 1987.72 3734.99 1986.69 3734.92 1985.68 3734.78 1984.68ZM3742.79 1978.97 3740.56 1980.38 3738.71 1981.27 3738.95 1982.27C3739.33 1984.03 3739.52 1985.85 3739.52 1987.72 3739.52 1994.98 3736.57 2001.55 3731.81 2006.3L3731.69 2006.41 3732.43 2006.85C3735.52 2008.53 3739.06 2009.48 3742.83 2009.48 3754.87 2009.48 3764.64 1999.74 3764.64 1987.72 3764.64 1986.22 3764.49 1984.76 3764.2 1983.34L3764.04 1982.74 3762.96 1983.02C3761.25 1983.37 3759.47 1983.55 3757.65 1983.55 3752.19 1983.55 3747.13 1981.9 3742.92 1979.06ZM3713.13 1978.96 3712.01 1979.75C3708.03 1982.16 3703.35 1983.55 3698.35 1983.55 3696.53 1983.55 3694.75 1983.37 3693.04 1983.02L3691.96 1982.74 3691.8 1983.34C3691.51 1984.76 3691.36 1986.22 3691.36 1987.72 3691.36 1999.74 3701.13 2009.48 3713.17 2009.48 3716.94 2009.48 3720.48 2008.53 3723.57 2006.85L3724.31 2006.41 3724.19 2006.3C3719.43 2001.55 3716.48 1994.98 3716.48 1987.72 3716.48 1985.91 3716.66 1984.14 3717.01 1982.43L3717.31 1981.28 3716.58 1980.96C3715.43 1980.41 3714.32 1979.77 3713.27 1979.06ZM3728 1971.79 3727.4 1972.34C3725.92 1973.82 3724.65 1975.51 3723.64 1977.35L3723.11 1978.45 3725.22 1978.86C3726.13 1978.97 3727.06 1979.03 3728 1979.03 3729.51 1979.03 3730.98 1978.88 3732.4 1978.59L3732.88 1978.46 3731.83 1976.44C3730.83 1974.8 3729.61 1973.3 3728.22 1971.98ZM3752.04 1968.03 3751.97 1968.2C3751.06 1970.19 3749.9 1972.06 3748.53 1973.75L3746.5 1975.95 3747.25 1976.4C3750.34 1978.08 3753.89 1979.03 3757.65 1979.03 3759.16 1979.03 3760.63 1978.88 3762.05 1978.59L3762.54 1978.46 3762.01 1977.35C3759.99 1973.66 3756.93 1970.6 3753.22 1968.6ZM3703.97 1968.03 3701.86 1969.12C3698.56 1971.12 3695.84 1973.96 3693.99 1977.35L3693.46 1978.46 3693.95 1978.59C3695.37 1978.88 3696.84 1979.03 3698.35 1979.03 3701.45 1979.03 3704.41 1978.38 3707.08 1977.22L3709.49 1975.97 3709.37 1975.86C3707.58 1974.07 3706.05 1972.03 3704.83 1969.8ZM3722.38 1968.02 3721.52 1969.8C3720.4 1971.85 3719.02 1973.73 3717.42 1975.4L3716.84 1975.94 3717.6 1976.4 3718.8 1976.96 3719.66 1975.2C3720.87 1972.97 3722.41 1970.93 3724.19 1969.14L3724.3 1969.05 3723.57 1968.6ZM3733.62 1968.02 3732.43 1968.6 3731.67 1969.05 3733.71 1971.25C3734.43 1972.16 3735.1 1973.11 3735.71 1974.1L3737.21 1976.98 3738.4 1976.4 3739.12 1975.95 3739.02 1975.86C3737.23 1974.07 3735.7 1972.03 3734.48 1969.8ZM3742.83 1965.97C3741.32 1965.97 3739.85 1966.12 3738.43 1966.41L3737.94 1966.54 3738.47 1967.65C3739.48 1969.49 3740.75 1971.18 3742.23 1972.66L3742.83 1973.21 3743.05 1973.02C3744.61 1971.54 3745.95 1969.82 3747.02 1967.93L3747.72 1966.54 3747.22 1966.41C3745.8 1966.12 3744.33 1965.97 3742.83 1965.97ZM3713.17 1965.97C3712.14 1965.97 3711.12 1966.04 3710.12 1966.18L3708.3 1966.57 3708.82 1967.65C3709.83 1969.49 3711.09 1971.18 3712.58 1972.66L3713.16 1973.19 3714.14 1972.28C3715.46 1970.9 3716.61 1969.34 3717.53 1967.65L3718.06 1966.54 3717.57 1966.41C3716.15 1966.12 3714.68 1965.97 3713.17 1965.97ZM3742.83 1941.35 3742.23 1941.89C3738.28 1945.83 3735.84 1951.27 3735.84 1957.28 3735.84 1958.78 3735.99 1960.24 3736.28 1961.66L3736.44 1962.26 3737.52 1961.98C3739.23 1961.63 3741.01 1961.45 3742.83 1961.45 3744.64 1961.45 3746.42 1961.63 3748.14 1961.98L3749.22 1962.26 3749.34 1961.79C3749.65 1960.34 3749.81 1958.82 3749.81 1957.28 3749.81 1951.27 3747.37 1945.83 3743.42 1941.89ZM3713.17 1941.35 3712.58 1941.89C3708.63 1945.83 3706.19 1951.27 3706.19 1957.28 3706.19 1958.78 3706.34 1960.24 3706.63 1961.66L3706.78 1962.24 3707.7 1962.02C3709.47 1961.64 3711.3 1961.45 3713.17 1961.45 3714.99 1961.45 3716.77 1961.63 3718.48 1961.98L3719.56 1962.26 3719.72 1961.66C3720.01 1960.24 3720.16 1958.78 3720.16 1957.28 3720.16 1951.27 3717.72 1945.83 3713.77 1941.89ZM3698.35 1935.52C3686.3 1935.52 3676.53 1945.26 3676.53 1957.28 3676.53 1965.54 3681.15 1972.72 3687.95 1976.4L3689.15 1976.98 3690.01 1975.2C3692.24 1971.1 3695.53 1967.67 3699.51 1965.25L3702.48 1963.71 3702.19 1962.57C3701.84 1960.86 3701.65 1959.09 3701.65 1957.28 3701.65 1950.02 3704.6 1943.45 3709.37 1938.7L3709.48 1938.59 3708.75 1938.15C3705.66 1936.47 3702.11 1935.52 3698.35 1935.52ZM3728 1935.52C3724.24 1935.52 3720.69 1936.47 3717.6 1938.15L3716.87 1938.59 3716.98 1938.7C3721.75 1943.45 3724.7 1950.02 3724.7 1957.28 3724.7 1959.09 3724.51 1960.86 3724.16 1962.57L3723.86 1963.72 3725.73 1964.62 3727.97 1966.03 3728.09 1965.94C3728.79 1965.46 3729.52 1965.02 3730.27 1964.62L3732.14 1963.72 3731.84 1962.57C3731.49 1960.86 3731.3 1959.09 3731.3 1957.28 3731.3 1950.02 3734.25 1943.45 3739.02 1938.7L3739.13 1938.59 3738.4 1938.15C3735.31 1936.47 3731.76 1935.52 3728 1935.52ZM3757.65 1935.52C3753.89 1935.52 3750.34 1936.47 3747.25 1938.15L3746.52 1938.59 3746.63 1938.7C3751.4 1943.45 3754.35 1950.02 3754.35 1957.28 3754.35 1958.83 3754.21 1960.36 3753.95 1961.85L3753.54 1963.73 3755.39 1964.62C3759.86 1967.05 3763.56 1970.73 3765.99 1975.2L3766.85 1976.98 3768.05 1976.4C3774.85 1972.72 3779.47 1965.54 3779.47 1957.28 3779.47 1945.26 3769.7 1935.52 3757.65 1935.52ZM3757.65 1931C3772.2 1931 3784 1942.76 3784 1957.28 3784 1967.25 3778.42 1975.93 3770.21 1980.38L3768.34 1981.28 3768.64 1982.43C3768.99 1984.14 3769.17 1985.91 3769.17 1987.72 3769.17 2002.24 3757.38 2014 3742.83 2014 3737.37 2014 3732.3 2012.35 3728.09 2009.51L3728 2009.44 3727.91 2009.51C3723.7 2012.35 3718.63 2014 3713.17 2014 3698.62 2014 3686.83 2002.24 3686.83 1987.72 3686.83 1985.91 3687.01 1984.14 3687.36 1982.43L3687.66 1981.28 3685.79 1980.38C3677.58 1975.93 3672 1967.25 3672 1957.28 3672 1942.76 3683.8 1931 3698.35 1931 3703.81 1931 3708.87 1932.65 3713.08 1935.49L3713.17 1935.56 3713.27 1935.49C3717.47 1932.65 3722.54 1931 3728 1931 3733.46 1931 3738.53 1932.65 3742.73 1935.49L3742.83 1935.56 3742.92 1935.49C3747.13 1932.65 3752.19 1931 3757.65 1931Z" fill-rule="evenodd"/></g></svg>