<?xml version="1.0" standalone="no"?>
<!DOCTYPE svg PUBLIC "-//W3C//DTD SVG 20010904//EN"
 "http://www.w3.org/TR/2001/REC-SVG-20010904/DTD/svg10.dtd">
<svg version="1.0" xmlns="http://www.w3.org/2000/svg"
 width="303.000000pt" height="310.000000pt" viewBox="0 0 303.000000 310.000000"
 preserveAspectRatio="xMidYMid meet">

<g transform="translate(0.000000,310.000000) scale(0.100000,-0.100000)"
fill="#000000" stroke="none">
<path d="M1155 3044 c-33 -8 -100 -35 -150 -59 -159 -78 -264 -184 -343 -347
-46 -95 -48 -96 -92 -108 -88 -22 -226 -98 -299 -166 -169 -157 -251 -340
-251 -564 0 -173 54 -337 151 -459 l40 -51 -15 -58 c-48 -188 -17 -392 86
-567 49 -84 180 -216 261 -264 31 -18 96 -47 144 -65 84 -29 96 -31 245 -32
l157 -1 73 -62 c81 -67 201 -131 293 -156 33 -8 103 -18 155 -22 311 -20 601
157 734 448 32 72 35 74 81 87 249 66 458 284 525 547 25 97 26 247 4 348 -20
89 -81 224 -134 293 l-40 53 17 63 c24 91 22 261 -5 361 -58 213 -211 399
-407 492 -119 57 -182 70 -345 70 l-146 0 -56 50 c-78 69 -169 121 -263 152
-68 22 -101 27 -220 29 -99 2 -158 -2 -200 -12z m348 -204 c58 -18 187 -87
187 -100 0 -3 -139 -86 -309 -184 -171 -98 -318 -187 -328 -198 -17 -19 -18
-54 -23 -458 l-5 -439 -122 70 -123 71 0 392 c0 428 3 452 59 564 78 154 235
271 404 302 70 12 184 3 260 -20z m685 -225 c135 -32 253 -115 331 -231 58
-87 90 -178 97 -284 11 -141 32 -145 -321 60 -246 142 -318 180 -347 180 -29
0 -105 -40 -398 -210 -200 -115 -367 -210 -371 -210 -5 0 -9 64 -9 143 l0 143
323 186 c178 103 336 192 353 198 107 42 233 51 342 25z m-1608 -666 l0 -371
28 -27 c15 -14 182 -116 372 -225 190 -110 351 -204 357 -210 10 -9 -16 -28
-112 -84 l-124 -72 -331 192 c-217 126 -349 209 -380 239 -231 221 -230 599 2
814 56 52 151 114 176 115 9 0 12 -81 12 -371z m1642 24 c281 -163 332 -196
390 -254 107 -109 160 -237 161 -394 1 -200 -118 -397 -294 -490 l-69 -36 0
366 c0 295 -3 371 -14 393 -10 20 -112 84 -385 242 -204 118 -367 218 -362
223 15 15 226 136 238 137 6 0 157 -84 335 -187z m-534 -148 l132 -77 0 -183
c0 -134 -3 -185 -12 -193 -25 -20 -312 -182 -318 -180 -4 2 -78 44 -164 93
l-156 90 2 189 3 188 160 93 160 93 30 -18 c17 -10 90 -52 163 -95z m402 -233
l115 -67 3 -390 c3 -428 1 -447 -59 -569 -61 -125 -180 -228 -319 -277 -92
-33 -278 -33 -360 -1 -68 27 -164 83 -163 97 0 5 135 88 299 183 165 95 310
184 324 198 l25 24 3 435 c1 239 6 435 10 435 4 0 59 -31 122 -68z m-270 -526
l0 -145 -92 -54 c-607 -353 -598 -348 -721 -367 -282 -42 -563 155 -623 439
-16 75 -18 169 -5 190 7 11 75 -24 323 -167 177 -102 325 -182 339 -182 25 0
122 54 549 303 118 69 218 126 223 126 4 1 7 -64 7 -143z"/>
</g>
</svg>
