<?xml version="1.0" standalone="no"?>
<!DOCTYPE svg PUBLIC "-//W3C//DTD SVG 20010904//EN"
 "http://www.w3.org/TR/2001/REC-SVG-20010904/DTD/svg10.dtd">
<svg version="1.0" xmlns="http://www.w3.org/2000/svg"
 width="930.000000pt" height="892.000000pt" viewBox="0 0 930.000000 892.000000"
 preserveAspectRatio="xMidYMid meet">

<g transform="translate(0.000000,892.000000) scale(0.100000,-0.100000)"
fill="#000000" stroke="none">
<path d="M4066 8905 c-4 -12 -24 -15 -86 -15 -44 0 -80 -4 -80 -9 0 -5 -15
-12 -33 -15 -21 -4 -54 -27 -94 -65 -59 -56 -64 -58 -125 -63 -35 -3 -77 -14
-95 -24 -37 -22 -93 -121 -93 -165 0 -23 -13 -45 -53 -87 -29 -31 -61 -75 -71
-97 -11 -22 -23 -48 -27 -57 -12 -23 -12 -175 0 -182 4 -3 11 -24 15 -46 3
-22 11 -40 16 -40 6 0 10 -6 10 -14 0 -7 7 -19 14 -26 16 -13 50 -80 61 -120
10 -36 42 -101 63 -127 9 -11 40 -31 67 -42 28 -12 57 -26 65 -31 8 -6 21 -13
29 -17 8 -3 37 -28 64 -55 46 -45 51 -54 55 -104 6 -71 -5 -84 -74 -84 -29 0
-56 5 -59 10 -3 6 -28 10 -55 10 -27 0 -52 -4 -55 -10 -3 -5 -20 -10 -37 -10
-24 0 -43 -13 -92 -64 -43 -45 -71 -66 -96 -71 -19 -4 -39 -11 -45 -15 -5 -4
-37 -10 -69 -13 -56 -6 -63 -10 -120 -64 -78 -74 -93 -82 -169 -90 -34 -3 -66
-9 -72 -13 -5 -4 -29 -11 -51 -15 -37 -6 -44 -3 -58 17 -9 12 -16 33 -16 45 0
13 -4 23 -9 23 -5 0 -11 34 -13 75 -3 72 -5 76 -43 115 -22 21 -44 39 -48 40
-5 0 -25 12 -44 28 -34 25 -43 27 -129 27 -73 0 -96 -3 -111 -17 -11 -10 -25
-18 -31 -18 -7 0 -12 -4 -12 -10 0 -16 -61 -80 -76 -80 -8 0 -14 -4 -14 -9 0
-5 -18 -12 -39 -16 -22 -4 -45 -13 -52 -21 -6 -8 -17 -14 -23 -14 -15 0 -56
-42 -56 -57 0 -6 -6 -13 -12 -15 -10 -4 -13 -37 -13 -121 0 -108 1 -117 24
-141 14 -14 32 -26 42 -26 10 0 21 -4 24 -10 3 -5 14 -10 24 -10 44 0 65 -65
35 -108 -14 -20 -23 -22 -113 -22 l-98 0 -60 -54 c-33 -30 -73 -58 -89 -62
-16 -4 -33 -9 -39 -13 -15 -8 -30 -11 -145 -22 -171 -18 -173 -18 -197 4 -21
19 -23 29 -23 124 0 90 -3 110 -22 143 -13 22 -28 40 -34 40 -5 0 -25 15 -42
33 -26 27 -34 45 -39 88 -3 30 -9 59 -13 64 -4 6 -11 25 -15 44 -7 34 -75 111
-98 111 -18 0 -127 109 -127 126 0 8 -6 14 -14 14 -7 0 -19 7 -26 15 -7 9 -29
15 -51 15 -21 0 -40 4 -43 9 -3 4 -36 11 -73 13 -38 3 -81 13 -98 22 -37 20
-99 21 -114 2 -7 -8 -27 -17 -46 -20 -19 -4 -35 -11 -35 -15 0 -5 -14 -11 -32
-15 -35 -7 -68 -32 -68 -53 0 -7 -4 -13 -10 -13 -5 0 -10 -6 -10 -13 0 -20
-60 -77 -80 -77 -25 0 -77 -46 -85 -73 -13 -49 -68 -144 -88 -152 -39 -18 -70
-92 -71 -172 -1 -62 2 -75 23 -97 14 -14 29 -26 34 -26 27 0 66 -43 72 -80 4
-22 11 -42 16 -46 5 -3 9 -14 9 -26 0 -22 65 -88 87 -88 7 0 13 -5 13 -11 0
-20 71 -100 99 -111 71 -29 88 -39 115 -67 17 -17 26 -31 21 -31 -4 0 20 -29
53 -64 34 -35 62 -71 62 -80 0 -9 4 -24 9 -34 6 -9 13 -38 16 -64 3 -25 13
-52 20 -58 8 -7 15 -18 15 -24 0 -6 18 -24 40 -39 50 -35 76 -89 85 -172 4
-36 11 -68 16 -71 5 -3 9 -13 9 -23 0 -21 50 -71 71 -71 8 0 27 -13 42 -28 25
-26 27 -34 27 -119 0 -109 10 -131 92 -218 32 -33 58 -68 58 -77 0 -9 4 -19 9
-22 5 -3 12 -32 16 -63 4 -32 11 -63 16 -69 5 -7 9 -16 8 -20 -4 -17 26 -69
68 -120 24 -28 43 -56 43 -61 0 -18 33 -78 62 -111 15 -18 28 -37 28 -43 0 -5
11 -14 24 -19 32 -12 66 -85 73 -157 3 -32 10 -63 14 -69 5 -6 12 -39 15 -72
6 -55 5 -62 -12 -69 -10 -3 -33 -17 -50 -30 -17 -13 -35 -23 -41 -23 -18 0
-53 -46 -59 -78 -4 -18 -11 -35 -15 -38 -15 -9 -11 -208 5 -239 18 -34 51 -65
70 -65 7 0 29 -17 46 -37 l33 -37 -6 -100 c-4 -76 -9 -101 -21 -108 -9 -5 -16
-16 -16 -23 0 -8 -7 -15 -15 -15 -8 0 -15 -4 -15 -10 0 -5 -6 -10 -13 -10 -20
0 -44 -30 -53 -65 -4 -16 -12 -33 -17 -37 -15 -9 -14 -181 1 -186 7 -2 12 -9
12 -16 0 -6 20 -32 45 -56 24 -24 57 -68 71 -97 15 -29 31 -53 36 -53 4 0 8
-6 8 -14 0 -7 7 -19 15 -26 20 -16 19 -79 -1 -119 -23 -47 -17 -240 9 -269 18
-20 135 -82 155 -82 6 0 23 -6 39 -14 52 -27 101 -46 117 -46 29 0 98 -43 107
-66 4 -13 13 -24 19 -24 5 0 10 -5 10 -10 0 -27 102 -140 126 -140 6 0 19 -9
29 -20 10 -11 23 -20 28 -20 12 0 99 -69 110 -87 4 -7 23 -13 42 -13 19 0 37
-4 40 -10 3 -5 21 -10 38 -10 44 0 77 -19 98 -55 20 -34 25 -115 7 -133 -8 -8
-12 -70 -12 -196 -1 -181 -1 -185 -25 -210 -16 -17 -35 -26 -55 -26 -45 -1
-106 -60 -106 -103 0 -33 -48 -67 -96 -67 -23 0 -46 -4 -49 -10 -3 -5 -14 -10
-24 -10 -9 0 -47 -31 -83 -70 -40 -42 -75 -70 -87 -70 -11 0 -22 -4 -25 -9 -3
-4 -26 -11 -50 -14 -38 -5 -54 -16 -100 -62 -45 -47 -61 -56 -100 -61 -26 -4
-49 -11 -52 -15 -3 -5 -45 -9 -93 -9 -150 0 -179 -7 -228 -56 -24 -24 -43 -52
-43 -62 0 -36 -32 -52 -103 -52 -36 0 -69 -4 -72 -10 -3 -5 -17 -10 -29 -10
-13 0 -29 -7 -36 -15 -7 -8 -19 -15 -27 -15 -7 0 -16 -8 -20 -17 -8 -24 -44
-63 -57 -63 -15 0 -66 -52 -66 -66 0 -7 -6 -17 -13 -21 -6 -4 -17 -17 -23 -27
-11 -21 -19 -27 -79 -52 -43 -19 -85 -52 -85 -67 0 -20 -64 -89 -98 -105 -34
-16 -59 -47 -84 -105 -7 -15 -16 -27 -21 -27 -5 0 -25 -13 -44 -30 l-34 -30
161 0 c150 0 160 1 160 19 0 10 7 24 15 31 8 7 15 18 15 25 0 17 31 41 63 49
37 9 60 32 81 81 10 22 22 47 27 55 5 8 12 23 15 33 4 9 14 17 23 17 19 0 81
60 81 78 0 7 4 12 9 12 6 0 16 12 23 28 9 19 25 30 51 36 20 5 37 13 37 18 0
4 8 8 19 8 29 0 100 77 93 102 -1 4 61 6 137 5 99 -1 143 2 154 11 8 7 55 15
104 18 108 7 158 29 234 101 36 34 68 55 90 59 19 4 39 11 45 15 17 14 97 21
113 10 10 -6 14 -34 15 -100 l1 -91 48 0 c63 0 126 -40 142 -91 10 -31 54 -69
80 -69 27 0 57 -32 85 -93 19 -40 44 -66 70 -72 37 -9 79 -41 152 -115 48 -50
93 -90 101 -90 16 0 77 -61 77 -78 0 -9 41 -12 157 -12 122 0 154 3 145 12 -7
7 -12 34 -12 60 0 39 3 48 18 49 9 1 256 1 547 0 355 -1 546 -6 577 -13 37 -9
53 -9 70 1 16 8 97 12 264 14 165 1 245 6 255 14 8 6 31 14 52 18 20 4 37 11
37 16 0 14 56 10 69 -4 18 -22 22 -70 9 -96 -13 -24 -58 -54 -94 -64 -10 -2
68 -5 174 -6 179 -1 192 0 192 17 0 22 46 67 77 76 20 7 54 40 117 120 18 22
38 36 52 36 13 0 25 4 28 8 3 5 37 14 76 21 63 12 74 17 105 54 19 22 35 46
35 52 0 14 42 55 57 55 17 0 101 79 109 103 3 12 33 50 65 84 81 85 78 126
-13 172 -49 25 -79 65 -86 117 l-7 49 -47 5 c-61 7 -108 49 -108 95 0 41 16
55 61 55 67 0 119 -46 119 -105 0 -18 10 -25 63 -40 34 -11 67 -19 72 -20 6 0
15 -3 20 -7 6 -3 41 -9 79 -13 67 -7 71 -9 122 -60 63 -62 97 -82 162 -90 26
-4 56 -10 67 -15 11 -4 36 -14 55 -21 19 -7 57 -32 85 -56 32 -28 59 -43 77
-43 15 0 29 -4 32 -9 3 -5 31 -12 61 -16 30 -3 55 -10 55 -15 0 -4 9 -10 20
-13 25 -6 26 -44 4 -95 -59 -136 -76 -162 -103 -162 -26 0 -90 -58 -109 -98
-12 -27 -26 -39 -52 -47 -19 -5 -39 -13 -45 -16 -5 -4 -32 -10 -60 -14 -44 -6
-56 -14 -106 -66 -31 -32 -60 -59 -65 -59 -5 -1 -27 -9 -49 -20 l-40 -19 221
-1 222 0 7 28 c10 39 34 62 65 62 33 0 48 -16 56 -58 l7 -32 113 0 114 0 0 39
c0 22 4 42 9 45 4 3 11 20 15 37 3 17 22 49 42 71 24 27 33 45 29 56 -4 10 -9
32 -12 50 -3 18 -10 35 -14 38 -20 12 -7 46 31 84 32 32 47 40 76 40 39 0 94
-32 94 -55 0 -31 51 -111 72 -114 53 -8 72 -25 104 -90 34 -69 46 -81 85 -81
35 0 79 -56 79 -100 0 -19 6 -20 148 -20 l147 0 -29 19 c-16 11 -34 32 -41 48
-25 58 -37 88 -35 91 4 7 -54 62 -65 62 -20 0 -44 34 -51 71 -5 27 -40 67
-173 200 -141 140 -173 167 -205 173 -71 13 -113 46 -122 92 -3 19 -10 37 -15
40 -12 7 -11 178 1 190 5 5 13 49 16 97 4 48 11 90 16 93 4 3 8 18 8 35 0 16
9 46 20 66 11 21 20 45 20 53 0 8 7 24 15 34 11 15 15 49 15 131 0 62 3 115 7
119 4 4 8 19 9 34 1 29 10 58 25 82 5 8 14 26 19 40 22 54 36 77 77 125 24 27
46 64 49 82 3 18 10 36 15 39 5 3 9 85 9 182 0 219 1 222 96 222 36 0 64 4 64
10 0 6 13 10 28 10 28 0 92 53 92 76 0 19 46 54 80 61 62 12 94 37 123 96 28
56 33 60 119 95 17 7 30 22 34 39 13 51 48 107 72 113 33 7 92 58 92 78 0 27
59 93 97 109 19 7 38 24 43 37 15 41 70 96 95 96 13 0 27 5 30 10 7 12 65 14
65 2 0 -4 34 -14 75 -21 62 -11 95 -12 183 -1 59 7 112 16 117 20 6 4 23 10
38 14 31 7 54 27 79 67 13 20 17 61 19 200 4 191 5 185 -63 270 -21 26 -38 52
-38 58 0 6 -27 38 -59 71 l-59 60 -64 0 c-38 0 -69 -5 -76 -13 -9 -8 -56 -13
-140 -15 l-127 -4 -17 41 c-13 29 -18 67 -18 127 l0 86 -75 71 c-41 40 -75 80
-75 89 0 24 -68 98 -89 98 -18 0 -81 59 -81 76 0 26 -66 72 -112 78 -26 4 -50
11 -53 17 -4 5 -15 9 -25 9 -11 0 -35 14 -53 30 -19 17 -40 30 -46 30 -6 0
-11 6 -11 14 0 7 -7 19 -15 26 -18 15 -21 120 -3 138 7 7 29 12 49 12 32 0 43
7 74 42 36 42 36 44 34 121 -2 43 -7 81 -11 83 -4 3 -8 13 -8 23 0 21 -72 91
-93 91 -22 0 -54 40 -89 110 -21 42 -47 62 -91 67 -23 3 -47 10 -53 14 -17 14
-309 16 -325 3 -8 -6 -27 -14 -44 -18 -38 -8 -95 -38 -95 -49 0 -16 -103 -117
-120 -117 -9 0 -35 -16 -58 -36 -36 -31 -42 -41 -42 -75 0 -26 5 -42 15 -45 8
-4 15 -12 15 -18 0 -7 14 -25 30 -41 17 -16 30 -35 30 -42 0 -8 7 -16 15 -19
8 -4 15 -10 15 -15 0 -12 42 -73 53 -77 11 -5 8 -92 -3 -92 -6 0 -47 -36 -91
-80 -45 -44 -89 -80 -99 -80 -11 0 -21 -4 -24 -9 -3 -5 -26 -12 -50 -15 -46
-7 -84 -43 -100 -93 -8 -25 -61 -73 -80 -73 -21 0 -63 -53 -71 -87 -4 -18 -10
-33 -15 -33 -4 0 -11 -11 -14 -25 -4 -14 -19 -31 -34 -38 -35 -16 -58 -39 -67
-69 -4 -12 -12 -26 -18 -29 -5 -4 -12 -41 -15 -83 -2 -42 -9 -76 -13 -76 -5 0
-9 -7 -9 -15 0 -8 -7 -15 -15 -15 -8 0 -15 -4 -15 -10 0 -6 -29 -10 -68 -10
-59 0 -72 3 -90 23 -32 34 -30 105 3 141 14 15 25 31 25 35 0 5 6 14 14 20 8
7 17 28 21 49 4 20 12 43 18 51 8 10 13 97 15 280 4 309 3 308 95 392 l60 55
5 90 c2 49 8 93 13 99 5 5 9 35 9 68 0 56 2 60 50 111 28 29 50 58 50 64 0 7
4 12 9 12 5 0 13 15 16 33 4 17 10 36 13 41 3 5 6 30 7 55 2 47 9 75 26 101 5
8 12 23 15 33 4 9 13 17 21 17 20 0 83 64 83 84 0 9 4 16 9 16 4 0 11 37 15
83 l6 82 47 43 c26 23 52 42 58 42 12 1 42 64 51 108 4 18 11 35 15 38 5 3 9
14 9 24 0 24 37 50 72 50 16 0 36 4 46 9 9 5 45 15 80 22 34 6 62 15 62 19 0
4 19 10 42 14 23 4 45 10 48 14 3 4 18 14 34 22 16 8 37 30 47 49 30 57 74
105 114 126 25 13 47 36 63 65 24 44 24 50 26 290 1 277 0 284 -74 355 -40 38
-80 104 -80 131 0 7 -34 48 -75 92 -60 63 -83 81 -112 87 -21 4 -42 10 -48 15
-5 4 -28 11 -50 15 -22 4 -44 10 -50 15 -5 4 -31 10 -56 14 -37 5 -50 3 -71
-14 -15 -11 -31 -20 -37 -20 -6 0 -11 -4 -11 -9 0 -6 -21 -13 -47 -17 -27 -3
-52 -10 -58 -14 -5 -4 -22 -10 -37 -14 -15 -3 -45 -28 -69 -55 -22 -28 -60
-59 -84 -70 -52 -24 -85 -64 -85 -102 0 -16 -4 -29 -9 -29 -5 0 -12 -12 -16
-27 -4 -21 -17 -33 -51 -48 -71 -32 -84 -66 -84 -230 l0 -135 -44 0 c-26 0
-48 6 -56 15 -7 8 -27 17 -46 21 -19 3 -34 10 -34 14 0 4 -54 9 -120 11 -73 3
-124 8 -128 15 -4 6 -19 14 -34 18 -16 3 -28 11 -28 16 0 6 -5 10 -11 10 -6 0
-30 16 -53 35 -24 19 -48 35 -53 35 -40 0 -59 102 -25 133 10 10 22 17 26 17
16 0 106 82 106 96 0 8 -17 31 -38 52 -37 37 -82 111 -82 135 0 15 -61 77 -76
77 -35 0 -144 80 -144 106 0 11 -30 24 -57 24 -14 0 -63 -43 -63 -57 0 -15
-74 -83 -91 -83 -8 0 -37 -22 -64 -50 -27 -27 -55 -50 -62 -50 -7 0 -13 -4
-13 -10 0 -5 -4 -10 -9 -10 -24 0 -80 -47 -86 -72 -4 -16 -11 -28 -16 -28 -5
0 -9 -6 -9 -14 0 -8 -12 -28 -26 -45 -23 -27 -32 -31 -78 -31 -80 0 -126 29
-165 102 -17 31 -31 42 -91 66 -14 6 -71 12 -127 14 -82 3 -106 7 -122 22 -12
11 -21 24 -21 31 0 20 -65 74 -98 81 -18 4 -35 11 -38 15 -3 5 -22 9 -43 9
-49 0 -76 28 -67 66 4 15 27 50 52 78 24 28 44 55 44 60 0 16 61 65 90 71 40
9 62 38 67 90 3 25 10 45 14 45 13 0 11 297 -1 305 -5 3 -10 27 -10 52 0 60
-23 105 -80 156 -26 23 -55 60 -64 82 -50 114 -65 135 -100 135 -25 0 -96 70
-114 113 -7 16 -21 31 -32 34 -11 3 -20 12 -20 19 0 21 -176 20 -184 -1z
m-122 -194 c3 -4 37 -11 76 -13 38 -3 75 -10 82 -15 7 -6 27 -14 44 -17 45
-10 80 -53 88 -106 4 -25 16 -64 27 -87 21 -43 92 -113 114 -113 21 0 46 -37
51 -76 3 -22 10 -49 16 -61 8 -17 8 -29 0 -45 -6 -13 -13 -40 -16 -61 -5 -38
-24 -64 -60 -82 -11 -6 -26 -21 -32 -34 -6 -12 -26 -37 -43 -55 -17 -17 -31
-43 -32 -56 -1 -37 -31 -81 -69 -104 -31 -17 -54 -20 -185 -20 l-150 -1 -15
30 c-29 57 -53 85 -75 91 -42 10 -69 50 -69 102 l-1 47 49 3 c48 3 86 -15 86
-41 0 -17 42 -57 60 -57 9 0 21 -5 26 -10 6 -6 46 -11 90 -12 108 -2 153 23
154 84 0 15 5 30 10 33 13 8 13 102 -1 110 -6 4 -8 13 -5 20 6 18 -43 62 -79
71 -16 4 -32 10 -35 13 -3 4 -17 14 -32 24 -16 10 -28 24 -28 32 0 8 -4 15
-10 15 -5 0 -10 26 -10 58 0 66 -8 102 -22 102 -20 0 -106 76 -127 112 -30 53
-28 93 7 111 30 16 108 22 116 8z m231 -1291 c3 -5 14 -10 23 -10 9 0 29 -6
44 -14 15 -8 57 -17 93 -21 36 -4 82 -16 102 -26 39 -20 93 -67 93 -82 0 -21
33 -38 101 -52 40 -9 79 -13 86 -11 7 3 15 1 18 -4 4 -6 19 -10 35 -10 38 0
107 -36 122 -64 17 -33 51 -66 68 -66 9 0 20 -4 25 -9 6 -5 60 -11 122 -13 71
-2 117 -8 125 -16 6 -6 19 -12 27 -12 26 0 105 -42 144 -77 20 -18 45 -33 55
-33 10 0 23 -5 29 -11 7 -7 67 -13 150 -16 76 -2 145 -7 153 -11 8 -3 33 -10
55 -16 23 -7 44 -20 50 -32 34 -69 90 -93 233 -101 62 -3 115 -10 118 -15 3
-4 26 -8 51 -8 42 0 50 -5 111 -64 77 -73 69 -71 305 -89 152 -12 169 -16 192
-37 22 -20 25 -32 25 -86 0 -35 -4 -66 -10 -69 -5 -3 -10 -18 -10 -32 0 -44
-76 -153 -106 -153 -18 0 -43 -55 -50 -114 -4 -28 -10 -55 -14 -61 -4 -5 -10
-23 -14 -38 -4 -16 -28 -56 -55 -90 -26 -34 -51 -69 -54 -77 -8 -17 -30 -53
-37 -60 -3 -3 -11 -16 -18 -30 -16 -32 -32 -58 -57 -95 -12 -17 -27 -43 -35
-58 -27 -54 -65 -77 -129 -77 -54 0 -59 2 -101 45 -43 44 -132 95 -164 95 -8
0 -17 4 -20 9 -3 4 -51 12 -107 16 -56 4 -109 10 -118 15 -9 4 -27 13 -41 19
-34 16 -59 32 -100 62 -27 20 -52 28 -105 33 -38 4 -74 11 -80 15 -5 5 -87 11
-182 13 -98 2 -177 9 -185 15 -7 6 -26 13 -41 17 -16 4 -38 17 -50 29 -25 25
-51 42 -87 58 -14 6 -32 15 -40 19 -32 16 -83 21 -222 24 -128 3 -148 6 -188
27 -24 13 -54 38 -65 55 -20 32 -29 39 -81 63 -16 7 -37 17 -46 22 -10 5 -35
9 -55 9 -61 0 -77 9 -96 53 -10 23 -23 49 -28 57 -5 8 -12 23 -15 32 -4 10
-22 19 -45 23 -47 8 -155 -3 -184 -19 -32 -18 -85 -68 -79 -77 2 -4 0 -10 -6
-14 -5 -3 -10 -15 -10 -25 0 -25 -51 -47 -120 -52 -54 -4 -139 -35 -140 -51 0
-9 -15 -28 -55 -72 -27 -29 -38 -33 -105 -40 -92 -9 -100 -13 -176 -86 -54
-53 -65 -60 -112 -66 -29 -3 -55 -10 -58 -14 -3 -5 -14 -9 -24 -9 -25 0 -87
-54 -96 -83 -13 -45 -34 -57 -95 -57 -32 0 -60 -4 -63 -9 -3 -4 -31 -11 -62
-14 -46 -5 -63 -12 -90 -38 -19 -18 -34 -39 -34 -46 0 -7 -5 -13 -11 -13 -6 0
-22 -9 -36 -20 -14 -11 -38 -20 -54 -20 -15 0 -30 -4 -33 -9 -3 -4 -29 -11
-58 -14 -82 -8 -121 -35 -144 -100 -4 -9 -18 -20 -33 -23 -14 -4 -31 -11 -37
-16 -6 -4 -63 -12 -125 -17 -148 -11 -259 -47 -259 -83 0 -27 -63 -65 -122
-74 -21 -4 -41 -11 -44 -15 -7 -12 -51 -11 -59 1 -3 6 -42 10 -85 10 l-79 0
-16 33 c-9 17 -18 52 -21 77 -6 50 -33 110 -49 110 -27 0 -73 66 -79 113 -4
26 -11 47 -15 47 -5 0 -11 15 -15 32 -4 18 -20 49 -36 70 -17 20 -30 41 -30
46 0 4 -14 21 -30 37 -17 16 -30 36 -30 45 0 9 -3 20 -7 24 -4 4 -8 19 -8 34
0 15 -3 32 -6 37 -4 6 -9 27 -13 48 -4 20 -11 37 -15 37 -5 0 -11 8 -13 18 -3
9 -18 24 -34 32 -16 7 -44 27 -62 44 -30 28 -32 34 -32 101 0 108 -1 107 242
113 109 3 198 8 198 12 0 4 20 10 44 12 32 4 57 16 93 45 26 22 64 46 83 53
19 7 40 17 46 22 6 4 77 11 158 14 81 4 149 11 152 16 3 4 14 8 25 8 19 0 99
65 99 81 0 13 32 42 60 56 14 6 77 16 141 22 123 10 176 29 193 67 9 21 19 28
72 53 16 7 37 17 48 23 10 5 58 12 107 15 49 3 89 9 89 13 0 4 11 11 24 14 14
3 44 29 67 56 23 28 48 50 56 50 7 0 13 4 13 9 0 4 42 11 92 14 51 3 94 11 96
17 2 5 9 10 15 10 13 0 57 40 57 52 0 18 74 76 103 82 16 3 52 6 80 6 51 0
126 27 127 45 0 6 21 34 46 63 45 51 47 52 101 52 104 0 179 38 214 108 23 47
51 72 80 72 15 0 40 7 55 15 16 8 37 15 46 15 9 0 20 5 23 10 3 6 37 10 75 10
38 0 72 -4 75 -10z m1460 -30 c3 -5 26 -10 50 -10 38 0 47 -4 66 -32 19 -26
23 -45 24 -107 l0 -76 -35 -3 c-34 -4 -141 41 -183 77 -25 21 -49 75 -45 102
5 39 105 79 123 49z m1731 -31 c22 -18 43 -68 50 -120 4 -27 10 -49 14 -49 4
0 11 -10 14 -22 3 -13 31 -48 61 -80 47 -48 57 -65 67 -113 12 -61 -3 -217
-22 -223 -6 -2 -10 -9 -10 -16 0 -20 -110 -126 -124 -120 -8 3 -17 1 -21 -5
-9 -16 -53 -13 -120 9 -44 15 -71 32 -101 65 -32 35 -49 45 -73 45 -17 0 -31
4 -31 9 0 5 -13 12 -30 16 -16 4 -30 11 -30 16 0 5 -7 9 -15 9 -9 0 -19 8 -22
18 -4 9 -17 31 -29 47 -12 17 -25 47 -29 68 -4 20 -11 40 -16 43 -5 3 -9 27
-9 55 0 45 6 64 32 109 5 8 14 27 21 43 6 15 15 27 19 27 4 0 10 21 13 48 11
80 37 123 80 135 36 11 296 -1 311 -14z m-5073 -128 c21 -11 61 -22 90 -26 51
-7 91 -30 82 -46 -3 -4 -1 -10 5 -14 5 -3 10 -40 10 -81 0 -68 -2 -77 -26 -99
-24 -22 -36 -25 -109 -25 -77 0 -83 1 -110 30 -27 28 -29 35 -33 140 -6 144 8
163 91 121z m-1557 -27 c51 -6 58 -10 85 -47 16 -22 29 -45 29 -50 0 -19 53
-67 74 -67 30 0 43 -12 51 -43 4 -15 11 -27 15 -27 4 0 11 -25 15 -55 3 -30
11 -57 16 -60 14 -10 11 -150 -5 -182 -26 -52 -34 -78 -39 -122 -4 -31 -14
-53 -36 -74 -28 -29 -33 -30 -118 -31 -110 0 -147 14 -175 71 -29 58 -20 103
24 121 91 36 123 58 142 97 20 42 24 86 11 120 -10 25 -45 65 -58 65 -5 0 -36
25 -68 55 -100 92 -156 85 -186 -25 -9 -33 -15 -180 -8 -197 24 -54 7 -113
-32 -113 -23 0 -91 76 -98 111 -4 19 -13 37 -19 41 -7 5 -11 39 -10 90 0 73 4
90 31 138 17 30 34 66 38 80 10 33 48 66 110 96 52 25 53 26 211 8z m3202
-1150 c18 -4 57 -30 91 -60 32 -30 62 -54 66 -54 4 0 18 -9 32 -20 14 -11 41
-20 59 -20 18 0 36 -4 39 -10 3 -5 15 -10 25 -10 25 0 80 -68 80 -100 0 -33
-50 -58 -83 -42 -12 6 -42 14 -67 18 -25 3 -49 10 -55 14 -5 4 -43 11 -83 15
-39 4 -75 11 -78 16 -7 12 -101 12 -108 0 -3 -4 -25 -11 -48 -15 -23 -4 -47
-11 -53 -15 -5 -5 -23 -11 -39 -15 -38 -9 -76 -35 -76 -52 0 -8 -3 -14 -8 -14
-4 0 -12 -10 -17 -22 -18 -40 -51 -48 -185 -46 l-125 3 -3 38 c-4 48 17 74 67
83 20 4 41 10 46 14 6 4 24 11 41 14 35 8 104 61 104 81 0 17 54 41 114 50 65
9 136 51 136 80 0 7 7 26 16 43 16 34 42 40 112 26z m817 -325 c5 -5 17 -9 27
-9 10 0 35 -16 57 -35 21 -19 43 -35 48 -35 6 0 16 -6 22 -14 7 -8 30 -17 52
-21 21 -4 41 -11 44 -15 3 -5 31 -12 63 -16 31 -3 62 -10 67 -14 6 -5 75 -10
155 -12 154 -4 162 -6 235 -64 58 -44 97 -60 195 -78 3 -1 10 -4 15 -8 6 -3
58 -9 118 -13 59 -4 110 -11 113 -16 3 -5 17 -9 31 -9 17 0 46 -19 89 -59 84
-79 123 -98 173 -82 55 16 111 14 133 -6 12 -11 18 -30 18 -62 0 -52 -16 -89
-45 -105 -10 -6 -25 -17 -33 -24 -80 -73 -133 -82 -178 -29 -16 19 -36 44 -44
56 -29 43 -79 63 -170 68 -96 5 -136 20 -194 75 -22 21 -49 41 -60 44 -12 4
-24 11 -27 15 -5 8 -123 27 -205 34 -17 1 -35 4 -40 7 -5 3 -27 9 -49 13 -22
4 -44 10 -50 15 -5 4 -23 10 -39 14 -17 4 -43 17 -60 29 -53 38 -100 58 -149
64 -26 3 -50 10 -53 14 -3 5 -41 9 -85 9 l-80 0 -58 55 c-32 30 -63 55 -69 55
-5 0 -12 5 -14 10 -2 6 -34 13 -71 17 -37 3 -70 10 -73 14 -3 5 -29 9 -58 9
-78 0 -113 9 -141 38 -27 26 -34 77 -12 85 20 9 391 -5 402 -14z m-1507 -151
c7 -7 12 -28 12 -48 0 -58 -44 -85 -153 -95 -84 -8 -118 -25 -135 -67 -32 -80
-47 -88 -171 -88 -109 0 -131 11 -131 67 0 46 30 70 100 79 30 3 69 13 85 22
17 8 36 18 44 22 8 3 19 15 25 26 6 10 14 21 17 24 3 3 8 13 12 23 3 9 15 17
25 17 10 0 22 4 28 9 8 9 52 13 185 19 25 1 50 -3 57 -10z m848 -60 c25 -20
46 -44 49 -60 4 -16 11 -28 16 -28 5 0 9 -12 9 -28 0 -29 -22 -44 -88 -57 -77
-16 -91 -30 -146 -155 -6 -14 -36 -53 -67 -88 -39 -42 -55 -69 -52 -81 3 -10
0 -22 -6 -25 -18 -11 -13 -138 6 -177 9 -19 43 -59 75 -90 32 -31 58 -60 58
-64 0 -15 62 -85 76 -85 8 0 24 -6 35 -12 17 -10 23 -10 26 0 3 6 15 12 28 12
40 0 65 57 65 150 0 43 -4 82 -10 85 -5 3 -10 15 -10 25 0 11 -9 35 -20 55
-25 44 -28 135 -5 135 8 0 15 5 15 10 0 6 27 10 62 10 63 0 98 -17 98 -47 0
-7 5 -13 10 -13 6 0 10 -5 10 -12 0 -18 42 -58 61 -58 10 0 21 -4 24 -10 4 -6
91 -10 228 -10 l221 0 33 -32 c18 -18 33 -37 33 -42 1 -24 92 -86 126 -86 7 0
34 -25 61 -56 26 -31 57 -64 68 -73 80 -67 95 -98 95 -203 0 -26 4 -49 9 -52
5 -3 11 -43 14 -88 4 -74 10 -92 51 -171 25 -48 46 -101 46 -117 0 -16 5 -32
10 -35 6 -4 8 -11 4 -16 -3 -5 -1 -15 4 -22 5 -7 13 -27 17 -44 3 -18 11 -33
16 -33 5 0 9 -9 9 -19 0 -11 4 -22 9 -25 20 -13 51 -94 51 -134 0 -25 -10 -60
-26 -89 -14 -26 -28 -67 -31 -90 -3 -24 -9 -43 -13 -43 -4 0 -9 -62 -12 -138
-3 -76 -10 -147 -15 -157 -12 -23 -35 -78 -35 -85 0 -3 -7 -14 -14 -25 -8 -11
-14 -32 -14 -47 0 -16 -4 -28 -9 -28 -5 0 -11 -25 -13 -56 -3 -31 -10 -59 -16
-63 -6 -3 -14 -53 -17 -111 -4 -58 -10 -114 -15 -125 -5 -11 -11 -41 -15 -67
-3 -26 -10 -50 -16 -53 -5 -4 -9 -15 -9 -27 0 -11 -29 -50 -67 -90 l-68 -70 0
-93 c0 -64 4 -97 14 -109 10 -12 11 -22 4 -39 -6 -12 -14 -35 -19 -52 -8 -26
-15 -30 -48 -33 -34 -3 -44 2 -82 39 -24 24 -44 49 -44 57 0 7 -36 49 -80 93
-44 43 -80 84 -80 91 0 19 -32 48 -54 48 -12 0 -46 -26 -81 -60 l-61 -60 -87
-11 c-87 -11 -201 -8 -214 4 -8 9 -68 9 -77 0 -3 -4 -14 -8 -24 -9 -209 -30
-280 -31 -420 -8 -155 26 -382 9 -382 -27 0 -6 -11 -22 -25 -35 -14 -13 -25
-28 -25 -34 0 -5 -7 -10 -15 -10 -8 0 -15 -4 -15 -9 0 -18 -65 -43 -125 -48
-83 -7 -90 3 -90 122 0 77 -3 96 -19 114 -11 12 -25 21 -33 21 -7 0 -13 5 -13
10 0 6 -27 10 -60 10 -53 0 -62 3 -70 23 -6 12 -14 29 -18 37 -27 47 -32 65
-32 113 0 29 5 58 12 65 9 9 9 15 0 24 -7 7 -12 22 -12 34 0 22 -70 94 -91 94
-13 0 -69 55 -69 68 0 6 -32 44 -70 85 l-70 75 0 86 c0 47 -4 86 -9 86 -5 0
-12 56 -16 125 -4 69 -11 125 -16 125 -5 0 -9 11 -9 25 0 25 -18 64 -54 118
-16 23 -18 41 -13 110 4 71 10 92 44 158 22 41 43 93 47 115 4 21 11 44 16 49
4 6 10 32 14 59 6 49 28 86 51 86 6 0 27 16 46 36 l34 35 3 132 c3 144 23 210
66 227 29 11 88 77 112 125 37 76 84 115 156 130 18 4 38 11 43 15 6 4 29 11
52 15 24 4 45 11 49 16 3 5 30 9 61 9 48 0 62 -5 97 -32 42 -33 136 -140 136
-156 0 -12 71 -73 110 -95 17 -9 50 -20 73 -23 23 -4 48 -11 54 -16 18 -15 42
-2 53 27 8 21 5 37 -17 83 -15 31 -28 64 -29 72 0 8 -3 22 -7 30 -3 8 -8 42
-12 75 -3 33 -10 64 -15 69 -13 13 -13 256 0 256 5 0 12 16 16 35 3 19 10 38
15 40 4 3 6 12 2 20 -3 9 0 22 7 29 6 8 10 30 8 48 -3 32 -5 33 -53 39 -27 3
-68 1 -90 -4 -41 -10 -105 -61 -105 -83 0 -20 -50 -74 -69 -74 -24 0 -83 -66
-110 -124 l-23 -48 -77 7 c-42 4 -80 11 -86 16 -12 12 -112 12 -119 0 -3 -4
-28 -11 -55 -13 -56 -6 -86 -31 -122 -105 -13 -28 -31 -48 -48 -54 -34 -13
-98 -76 -117 -114 -33 -66 -39 -74 -62 -80 -30 -7 -50 -27 -74 -71 -14 -26
-19 -68 -24 -190 l-7 -157 -56 -61 c-67 -73 -91 -114 -91 -154 0 -17 -4 -33
-9 -36 -5 -3 -12 -20 -16 -38 -5 -24 -23 -46 -67 -82 -33 -27 -63 -57 -65 -67
-3 -11 -9 -19 -14 -19 -5 0 -9 -7 -9 -16 0 -8 -22 -39 -50 -68 -27 -29 -50
-58 -50 -64 0 -14 -69 -92 -78 -89 -11 3 -76 -26 -92 -42 -15 -15 -35 -45 -45
-71 -56 -132 -83 -160 -158 -160 -61 0 -87 20 -87 65 0 35 26 95 41 95 5 0 9
6 9 13 0 8 9 22 20 32 11 10 20 24 20 30 0 7 7 15 15 19 8 3 15 12 15 20 0 9
29 44 64 78 40 39 78 88 98 128 26 50 42 69 69 82 38 18 89 71 89 92 0 26 34
82 73 124 23 23 37 42 33 42 -5 0 -4 6 2 13 5 6 13 56 17 110 4 53 11 97 16
97 5 0 9 13 9 30 0 33 -23 44 -76 38 -27 -3 -29 -6 -32 -55 -2 -29 -9 -64 -16
-78 -7 -14 -70 -84 -140 -155 -119 -122 -129 -130 -165 -130 -51 0 -91 50
-107 136 -3 19 -10 34 -14 34 -4 0 -10 52 -14 114 -7 110 -6 116 16 148 13 18
27 36 31 39 17 12 36 60 43 106 10 73 34 93 110 93 35 0 65 4 68 9 3 4 19 11
35 14 18 4 52 29 84 62 30 30 58 55 62 55 4 0 21 6 38 14 18 8 74 16 124 19
82 4 97 8 129 32 19 15 38 34 41 43 10 26 41 51 70 58 16 4 33 10 38 14 6 5
41 11 78 15 66 7 72 10 130 64 61 55 138 101 171 101 9 0 16 4 16 9 0 4 19 11
43 14 54 8 111 38 157 81 26 25 51 37 95 47 33 7 64 16 69 21 6 4 18 8 27 8 9
0 47 29 84 65 38 36 76 65 85 65 9 0 21 5 27 11 6 6 56 13 112 16 88 5 101 8
101 24 0 10 5 21 10 24 6 3 10 17 10 29 0 13 12 35 26 50 26 26 28 26 172 26
l145 0 43 -32z m328 -137 c3 -5 20 -12 38 -15 20 -4 57 -28 92 -61 48 -44 68
-55 105 -60 25 -4 55 -10 66 -15 11 -5 66 -10 122 -12 101 -4 103 -4 138 -38
19 -19 35 -41 35 -51 0 -26 24 -39 81 -45 30 -3 63 -9 74 -14 11 -5 62 -11
112 -13 51 -2 99 -9 105 -15 7 -5 27 -13 44 -16 18 -4 49 -21 70 -39 59 -49
98 -67 142 -67 23 0 44 -4 47 -10 3 -5 26 -10 49 -10 91 0 135 -12 166 -43 17
-17 30 -36 30 -42 0 -17 60 -75 77 -75 22 0 73 -32 73 -46 0 -6 6 -17 14 -23
8 -7 17 -28 21 -49 4 -21 23 -57 46 -84 36 -43 39 -51 39 -107 l0 -61 -44 0
c-25 0 -47 4 -50 9 -9 15 -88 49 -129 56 -20 4 -40 11 -43 16 -3 5 -28 9 -57
9 -47 0 -55 -4 -94 -42 -35 -35 -43 -49 -43 -79 0 -21 4 -40 9 -43 5 -3 12
-23 16 -43 10 -61 44 -121 83 -151 55 -41 71 -59 78 -87 3 -14 10 -25 14 -25
4 0 11 -11 14 -25 4 -15 18 -30 34 -37 62 -25 141 -68 164 -90 41 -38 88 -110
88 -133 0 -12 3 -25 8 -29 4 -4 7 -11 8 -14 4 -32 49 -92 68 -92 15 0 36 -48
36 -84 0 -16 -11 -43 -24 -60 -13 -17 -26 -45 -30 -62 -18 -81 -120 -113 -156
-49 -24 43 -21 111 7 164 30 57 29 61 -9 97 -59 53 -93 64 -213 66 l-109 3
-15 30 c-8 17 -18 38 -23 47 -4 10 -8 30 -8 45 0 42 -11 73 -25 73 -21 0 -85
78 -85 103 0 13 -5 28 -11 34 -5 5 -13 36 -16 67 -3 31 -10 59 -14 62 -5 3 -9
60 -9 127 0 113 -2 124 -23 143 -12 11 -32 26 -44 33 -33 17 -63 90 -63 155 0
30 -5 58 -10 61 -6 4 -10 14 -9 23 6 42 -59 132 -95 132 -7 0 -36 25 -66 56
-60 60 -135 104 -180 104 -16 0 -31 4 -34 9 -3 4 -19 11 -36 15 -28 5 -73 36
-54 36 5 0 3 5 -4 12 -7 7 -12 19 -12 29 0 23 -56 29 -256 29 -91 0 -165 4
-169 9 -3 6 -26 13 -50 17 -25 3 -48 10 -51 15 -3 5 -16 9 -28 9 -23 0 -66 32
-79 60 -34 67 -57 90 -134 131 -25 13 -30 48 -11 67 14 14 194 17 202 3z
m-1852 -155 c14 -21 8 -63 -12 -81 -17 -16 -38 -19 -129 -19 -77 -1 -112 3
-124 13 -17 14 -23 67 -9 88 15 23 259 23 274 -1z m5167 0 c7 -8 15 -30 18
-50 3 -20 10 -39 14 -42 14 -8 10 -51 -6 -64 -19 -16 -98 -5 -115 15 -15 19
-25 95 -16 129 6 23 12 26 50 26 25 0 48 -6 55 -14z m-5553 -157 c20 -16 17
-63 -3 -82 -10 -8 -35 -18 -56 -22 -20 -4 -40 -11 -43 -16 -8 -14 -138 -11
-152 3 -7 7 -12 30 -12 53 0 36 4 42 33 57 17 10 46 19 62 22 48 7 156 -2 171
-15z m-328 -145 c26 -7 29 -37 7 -81 -17 -35 -44 -43 -141 -43 -36 0 -64 -4
-64 -10 0 -16 -86 -12 -99 4 -21 26 -25 83 -7 111 16 25 18 25 149 25 72 0
142 -3 155 -6z m6056 -389 c14 -13 26 -28 26 -33 0 -18 65 -73 92 -79 16 -3
31 -10 34 -14 3 -5 31 -9 62 -9 62 0 83 -14 97 -61 13 -49 40 -96 60 -107 11
-6 31 -17 45 -23 38 -17 50 -52 57 -159 3 -52 9 -99 13 -105 4 -5 11 -41 15
-80 4 -38 12 -76 18 -83 15 -19 15 -302 0 -333 -6 -13 -14 -45 -18 -71 -3 -27
-10 -48 -15 -48 -5 0 -11 -13 -15 -30 -4 -16 -11 -30 -16 -30 -5 0 -9 -6 -9
-13 0 -15 -57 -71 -80 -79 -9 -3 -29 -32 -45 -63 -29 -58 -70 -105 -91 -105
-16 0 -58 -23 -75 -40 -14 -15 -34 -55 -38 -75 -6 -30 -47 -54 -112 -65 -38
-7 -69 -16 -69 -21 0 -5 -7 -9 -15 -9 -21 0 -63 -46 -80 -86 -22 -54 -59 -64
-225 -64 -127 0 -151 3 -186 20 -60 31 -73 41 -134 103 -31 31 -62 57 -69 57
-15 0 -161 148 -161 163 0 6 -27 36 -60 68 -33 31 -60 60 -60 63 0 4 -9 19
-19 34 -14 20 -24 66 -36 177 -12 100 -24 161 -36 185 -11 19 -19 45 -19 57 0
12 -4 25 -10 28 -5 3 -10 28 -10 55 0 27 5 52 10 55 6 3 10 21 10 38 0 18 7
42 14 53 16 23 28 70 46 181 10 61 17 77 42 98 16 14 36 25 44 25 8 0 18 8 21
18 4 9 16 31 29 47 12 17 25 41 28 55 4 14 18 48 32 76 21 43 32 54 84 77 32
15 72 39 88 52 17 14 33 25 37 25 4 0 21 10 38 22 97 69 127 75 414 76 220 0
222 0 247 -23z m-2094 -1106 c52 -7 69 -15 87 -37 21 -25 23 -37 23 -174 0
-81 -4 -149 -9 -152 -5 -3 -12 -21 -15 -40 -4 -19 -13 -37 -21 -40 -8 -3 -15
-10 -15 -16 0 -6 -11 -26 -25 -44 -14 -18 -23 -35 -20 -38 3 -3 -8 -19 -24
-37 -23 -25 -37 -31 -71 -31 -71 0 -80 11 -80 90 0 63 2 70 28 89 56 43 71 59
91 97 12 21 21 48 21 59 0 12 5 26 12 33 9 9 9 12 0 12 -7 0 -12 9 -12 19 0
21 -66 81 -89 81 -29 0 -51 32 -51 73 0 56 24 81 70 72 19 -3 64 -10 100 -16z
m-3649 -42 l31 -27 -7 -109 -7 -109 50 -38 c52 -41 62 -58 62 -111 0 -17 5
-35 10 -38 12 -7 14 -98 3 -109 -5 -4 -8 -21 -9 -36 0 -33 -29 -70 -54 -70
-27 0 -62 51 -75 110 -4 19 -11 40 -15 45 -5 6 -11 37 -15 70 -7 53 -13 65
-56 111 -33 34 -49 60 -49 77 0 14 -4 29 -10 32 -6 3 -10 51 -10 107 0 89 3
104 21 124 18 20 24 20 60 10 22 -7 53 -24 70 -39z m4393 -144 c28 -30 42 -93
33 -150 -4 -25 -1 -46 11 -67 23 -42 53 -76 67 -76 18 0 42 -31 50 -63 8 -31
37 -91 55 -112 7 -8 24 -15 39 -15 37 0 74 -38 110 -114 16 -35 35 -67 41 -71
13 -8 13 -82 0 -90 -17 -10 -48 -83 -61 -141 -7 -30 -16 -54 -20 -54 -4 0 -11
-15 -14 -32 -4 -18 -12 -39 -17 -45 -7 -9 -7 -13 1 -13 6 0 11 -8 11 -17 0
-10 16 -49 35 -88 19 -38 35 -74 35 -79 0 -17 53 -66 72 -66 9 0 34 -14 54
-32 l36 -32 -7 -140 c-4 -78 -11 -143 -16 -146 -4 -3 -9 -140 -11 -304 l-3
-298 -30 -24 c-16 -13 -45 -27 -62 -30 -18 -3 -33 -10 -33 -15 0 -15 -33 -9
-65 12 -29 18 -57 32 -100 50 -11 4 -55 11 -97 14 -43 4 -80 11 -84 16 -3 5
-14 9 -25 9 -11 0 -46 25 -78 55 -32 30 -63 55 -69 55 -5 0 -12 5 -14 12 -3 8
-39 13 -109 16 -120 4 -157 18 -184 69 -25 45 -60 83 -79 83 -8 0 -21 6 -28
14 -8 7 -23 16 -34 20 -21 6 -111 90 -131 122 -38 59 -53 101 -53 152 0 59
-14 91 -72 163 -21 26 -38 50 -38 54 0 4 -32 38 -70 76 -46 45 -72 79 -76 99
-4 17 -11 33 -15 36 -12 7 -12 61 0 68 5 3 12 20 15 38 4 23 15 37 33 46 38
17 88 15 104 -4 11 -14 29 -16 109 -11 137 7 200 42 200 111 0 14 5 28 10 31
6 3 10 15 10 26 0 11 23 44 50 73 28 29 50 57 50 63 0 18 112 133 136 139 13
3 24 10 24 16 0 5 11 24 25 42 14 18 28 53 31 79 4 26 10 47 13 47 11 0 11 79
0 85 -5 4 -9 43 -9 88 0 73 3 85 25 112 14 17 32 44 40 60 47 93 60 105 111
105 34 0 48 -6 68 -27z m-491 -486 c11 -20 17 -48 15 -68 -3 -32 -6 -34 -42
-37 -21 -2 -42 0 -45 5 -3 4 -15 13 -26 19 -24 13 -33 78 -14 100 6 8 29 14
53 14 37 0 43 -4 59 -33z m-338 -197 c14 -15 17 -32 13 -79 -5 -71 -19 -91
-63 -91 -48 0 -95 56 -95 112 0 57 21 78 80 78 34 0 52 -5 65 -20z m-3246
-331 c12 -28 11 -32 -10 -55 -41 -43 -89 -27 -89 31 0 39 16 55 55 55 24 0 33
-6 44 -31z m2076 -329 c3 -5 21 -10 40 -10 42 0 84 -15 111 -41 33 -31 94 -58
146 -65 32 -4 56 -15 73 -32 30 -29 31 -40 8 -80 -14 -24 -26 -31 -63 -36 -42
-6 -76 -19 -149 -61 -42 -24 -111 -86 -111 -100 0 -26 -49 -111 -85 -145 -20
-19 -43 -48 -51 -65 -16 -35 -33 -62 -55 -87 -14 -16 -27 -18 -132 -12 -65 4
-117 11 -117 16 0 4 -12 8 -27 8 -41 0 -63 26 -63 77 0 24 5 52 11 62 18 28
-6 73 -51 94 -28 13 -63 17 -148 17 -63 0 -113 -4 -117 -10 -3 -5 -13 -10 -22
-10 -9 0 -27 -10 -40 -22 -20 -19 -23 -31 -23 -98 0 -61 -4 -80 -17 -91 -62
-49 -125 -53 -166 -11 -25 26 -27 34 -27 120 0 55 -4 92 -10 92 -5 0 -10 6
-10 14 0 16 -75 56 -104 56 -10 0 -33 7 -52 16 -30 14 -34 21 -34 55 0 21 5
41 10 44 6 3 10 14 10 23 0 9 7 30 15 46 8 15 15 34 15 40 0 26 64 68 124 81
17 3 46 20 67 36 51 40 106 40 152 -1 19 -16 38 -30 42 -30 10 0 67 -60 81
-86 22 -40 153 -91 168 -65 8 12 173 14 181 1 3 -5 26 -10 51 -10 40 0 49 5
92 48 52 54 72 78 73 89 7 54 61 111 111 120 21 3 41 10 44 14 7 12 41 11 49
-1z m-1695 -496 c39 -42 69 -78 66 -81 -6 -6 3 -17 67 -88 26 -28 47 -55 47
-58 0 -15 40 -44 105 -76 39 -19 96 -59 127 -88 31 -29 66 -53 77 -53 11 0 23
-4 26 -10 7 -11 98 -14 108 -3 15 15 91 4 127 -18 8 -5 25 -13 38 -19 12 -5
22 -15 22 -23 0 -17 56 -68 94 -87 35 -18 276 -20 298 -3 7 5 47 13 88 16 74
6 148 34 191 73 8 8 20 14 26 14 6 0 16 6 22 14 7 8 44 16 98 20 47 3 91 10
97 15 6 5 42 11 79 14 75 5 108 26 132 82 7 17 30 47 50 68 27 28 44 37 70 37
49 0 80 14 133 62 60 55 83 67 135 74 37 5 48 2 75 -21 29 -25 32 -32 32 -85
0 -32 -4 -62 -10 -65 -5 -3 -10 -14 -10 -23 0 -19 -58 -82 -77 -82 -27 0 -82
-61 -89 -98 -4 -20 -10 -41 -14 -47 -4 -5 -10 -25 -14 -44 -3 -19 -18 -49 -32
-68 -14 -18 -21 -33 -16 -33 5 0 12 -9 15 -20 3 -11 12 -20 21 -20 9 0 16 -4
16 -10 0 -6 27 -10 62 -10 51 0 67 4 97 27 47 36 70 64 71 85 0 9 5 20 10 23
6 3 10 19 10 36 0 44 59 138 88 139 4 0 18 9 32 20 42 33 127 21 119 -16 -3
-11 6 -35 32 -90 22 -48 65 -94 87 -94 9 0 29 -12 44 -27 24 -23 28 -34 28
-83 0 -61 -28 -133 -55 -144 -9 -3 -50 -6 -90 -6 -41 0 -76 -4 -79 -9 -3 -4
-29 -11 -57 -14 -31 -4 -63 -16 -83 -30 -26 -21 -46 -25 -126 -29 -104 -6
-143 -20 -198 -71 l-32 -31 -938 -1 c-917 0 -938 0 -977 20 -33 17 -56 20
-138 17 -110 -3 -126 3 -212 76 -27 23 -54 42 -60 42 -18 0 -194 184 -215 225
-20 40 -27 119 -11 129 4 3 11 30 15 61 8 73 23 95 62 95 25 0 41 -11 80 -52
67 -71 101 -99 155 -125 129 -63 198 15 105 118 -26 29 -46 63 -50 84 -4 20
-18 56 -31 80 -13 25 -21 45 -19 45 6 0 -2 10 -50 66 -20 23 -36 47 -36 53 0
6 -4 11 -10 11 -6 0 -10 36 -10 89 0 96 2 99 56 100 27 1 43 -11 104 -75z
m-569 -444 c15 -8 19 -21 19 -58 0 -42 -3 -48 -29 -60 -17 -7 -55 -12 -88 -10
l-58 3 -3 39 c-5 56 35 96 96 96 24 0 52 -5 63 -10z"/>
<path d="M3855 7095 c-87 -85 -164 -155 -170 -155 -6 0 -24 -14 -41 -31 -29
-30 -29 -32 -29 -141 1 -78 4 -113 13 -116 7 -2 12 -9 12 -16 0 -17 63 -76 81
-76 8 0 19 -4 24 -9 16 -13 100 -31 150 -31 55 0 89 17 167 82 31 27 70 51 87
54 17 4 31 10 31 14 0 4 16 11 36 15 60 11 124 55 124 85 0 9 3 20 6 23 8 8 8
85 1 107 -3 8 -8 35 -11 60 -6 55 -32 110 -52 110 -19 0 -134 116 -134 135 0
8 -6 15 -14 15 -7 0 -19 7 -26 15 -7 9 -29 15 -54 15 -40 0 -47 -5 -201 -155z"/>
<path d="M5163 6633 c-12 -2 -27 -11 -33 -19 -7 -8 -17 -14 -23 -14 -10 0 -46
-33 -215 -194 -57 -54 -63 -63 -58 -90 4 -17 10 -32 15 -36 11 -7 81 -98 81
-106 0 -16 80 -83 106 -89 16 -4 39 -11 52 -17 16 -8 28 -8 45 0 12 6 36 13
52 17 33 7 65 32 65 49 0 28 94 86 139 86 22 0 38 10 62 39 30 35 32 43 30
102 -1 35 -9 74 -17 87 -8 12 -11 22 -7 22 4 0 -19 27 -52 60 -87 88 -160 119
-242 103z"/>
<path d="M2725 6533 c-11 -3 -22 -8 -25 -12 -10 -13 -70 -51 -80 -51 -5 0 -10
-4 -10 -10 0 -5 -6 -10 -14 -10 -7 0 -32 -18 -54 -40 -36 -34 -52 -58 -96
-140 -5 -9 -19 -21 -30 -26 -12 -5 -25 -19 -31 -31 -5 -13 -13 -23 -17 -23 -5
0 -8 -11 -8 -24 0 -18 26 -49 98 -116 92 -86 99 -91 134 -87 23 3 46 15 61 30
12 14 35 29 50 32 15 4 27 11 27 16 0 4 23 11 52 15 43 6 59 14 95 50 42 43
43 44 43 113 0 38 -4 73 -10 76 -5 3 -10 15 -10 27 0 55 -114 222 -148 217 -4
-1 -16 -4 -27 -6z"/>
<path d="M6319 6194 c-23 -25 -151 -94 -174 -94 -13 0 -43 -33 -62 -67 -8 -14
-13 -59 -13 -112 l0 -89 40 -40 c23 -22 55 -44 73 -48 18 -3 34 -10 37 -15 3
-5 44 -10 90 -11 l85 -3 40 40 40 40 -1 160 c0 142 -3 164 -21 197 -11 20 -27
44 -36 52 -24 25 -70 20 -98 -10z"/>
<path d="M1542 6078 c-17 -13 -34 -31 -38 -40 -3 -10 -41 -50 -85 -90 -43 -39
-79 -80 -79 -90 0 -10 -4 -18 -9 -18 -13 0 -25 -121 -17 -174 5 -32 18 -57 47
-90 40 -45 42 -46 99 -46 32 0 61 4 64 9 3 5 25 12 48 16 60 9 100 35 120 76
19 40 59 80 108 106 44 25 60 55 60 118 0 49 0 49 -92 138 -122 116 -160 130
-226 85z"/>
<path d="M7133 7187 c-18 -19 -34 -48 -38 -70 -4 -20 -11 -40 -16 -43 -12 -7
-11 -101 1 -109 6 -3 10 -13 10 -21 0 -21 69 -104 85 -104 8 0 15 -6 18 -12 3
-10 7 -10 18 -2 8 6 30 14 50 18 20 3 48 19 63 35 24 25 28 38 29 89 2 55 -1
63 -38 108 -22 27 -39 51 -38 55 3 10 -85 89 -99 88 -7 0 -27 -15 -45 -32z"/>
<path d="M4755 4171 c-12 -11 -149 -31 -210 -31 -24 0 -47 -4 -50 -10 -3 -5
-20 -10 -36 -10 -23 0 -45 -13 -90 -57 -61 -58 -72 -66 -147 -104 -50 -25 -98
-79 -106 -121 -3 -16 -16 -44 -28 -61 -13 -18 -23 -35 -23 -39 0 -3 -3 -10 -7
-14 -5 -4 -8 -24 -8 -44 0 -41 29 -80 60 -80 10 0 22 -4 25 -10 3 -5 24 -10
45 -10 21 0 42 5 45 10 3 6 15 10 27 10 11 0 22 8 25 20 3 11 9 20 14 20 5 0
9 8 9 17 0 9 20 36 45 60 36 34 53 43 80 43 19 0 35 -4 35 -10 0 -5 7 -10 17
-10 14 0 15 -13 10 -126 l-6 -126 46 -49 c44 -47 48 -49 99 -49 29 0 55 4 58
9 3 4 23 11 43 15 32 5 45 15 78 62 46 65 60 74 112 74 33 0 46 -7 83 -45 30
-31 52 -45 71 -45 56 0 69 61 23 107 -36 36 -64 85 -64 111 0 30 -44 77 -93
101 -35 17 -65 21 -160 23 -80 1 -121 -2 -129 -10 -16 -16 -100 -16 -116 0
-13 13 -16 67 -4 83 4 6 21 19 37 30 27 18 48 20 217 20 136 0 190 -3 200 -12
6 -7 31 -13 53 -13 45 0 61 -12 85 -65 7 -16 14 -32 14 -35 4 -23 63 -60 95
-60 22 0 91 58 91 76 0 8 5 14 10 14 6 0 10 22 10 48 0 41 -5 52 -32 79 -18
17 -43 34 -55 38 -22 6 -93 83 -93 101 -1 18 -77 42 -170 53 -52 7 -99 16
-104 22 -12 11 -119 12 -131 0z"/>
<path d="M3090 4114 c-8 -4 -40 -30 -70 -59 -56 -53 -99 -78 -156 -90 -40 -8
-94 -70 -94 -108 0 -16 -58 -71 -83 -80 -9 -4 -20 -15 -23 -24 -3 -10 -11 -28
-17 -40 -7 -17 -7 -29 0 -45 6 -13 14 -31 17 -41 3 -9 14 -20 23 -23 10 -3 26
-10 36 -15 10 -6 24 -6 35 0 9 5 25 12 35 15 10 3 26 25 36 49 28 65 61 87
132 87 32 0 60 4 63 9 3 5 23 12 43 15 34 6 66 18 125 47 23 12 78 11 78 0 0
-5 17 -12 38 -16 20 -4 42 -10 47 -15 6 -4 30 -10 55 -13 63 -9 120 -39 155
-84 16 -21 30 -42 30 -47 0 -18 88 -56 129 -56 31 0 50 7 76 28 29 25 33 34
33 77 0 28 -5 51 -11 53 -7 2 -12 10 -12 17 0 18 -44 45 -74 45 -26 0 -114 66
-115 87 -2 21 -100 100 -132 107 -18 3 -47 17 -65 31 -18 14 -37 25 -42 25 -5
0 -17 9 -27 20 -10 11 -26 20 -35 20 -9 0 -21 5 -27 11 -12 12 -178 23 -203
13z"/>
<path d="M3200 3661 c0 -5 -13 -12 -30 -16 -16 -4 -30 -10 -30 -15 0 -5 -13
-11 -30 -15 -16 -4 -30 -11 -30 -16 0 -5 -7 -9 -15 -9 -8 0 -31 -14 -51 -32
-32 -28 -35 -36 -30 -66 3 -19 16 -44 30 -57 14 -13 28 -35 32 -49 3 -14 10
-26 15 -26 5 0 9 -19 9 -42 0 -91 1 -91 106 -86 106 4 127 16 165 95 20 42 49
66 124 104 17 8 31 24 33 37 2 12 8 22 13 22 5 0 9 20 9 45 0 25 -4 45 -10 45
-5 0 -10 7 -10 15 0 8 -12 18 -27 21 -16 4 -32 10 -38 14 -5 4 -44 10 -85 14
-41 4 -76 11 -78 16 -5 13 -72 13 -72 1z"/>
<path d="M4536 3222 c-3 -6 -1 -14 5 -17 15 -10 25 3 12 16 -7 7 -13 7 -17 1z"/>
<path d="M4400 2884 c0 -5 -10 -15 -22 -21 -56 -29 -93 -47 -98 -46 -3 1 -30
-6 -60 -16 -50 -16 -57 -23 -81 -69 -34 -69 -57 -92 -90 -92 -15 0 -31 -4 -34
-10 -3 -5 -32 -10 -63 -10 -56 0 -59 2 -105 48 -26 26 -47 52 -47 58 0 6 -14
23 -31 40 -29 28 -34 29 -125 28 -92 0 -96 -1 -125 -31 -28 -27 -31 -36 -30
-94 0 -42 7 -78 20 -105 24 -48 103 -124 130 -124 11 0 23 -4 26 -10 3 -5 23
-10 44 -10 36 0 91 -35 91 -58 0 -4 16 -24 36 -43 34 -33 38 -34 112 -34 86 0
151 24 187 71 44 56 72 79 109 88 51 13 77 39 114 114 52 106 56 112 64 112 4
0 10 16 14 35 3 19 10 38 15 41 12 7 12 54 0 54 -5 0 -12 15 -15 34 -6 30 -36
72 -36 50z"/>
<path d="M7515 4290 c-3 -5 -14 -10 -25 -10 -10 0 -32 -16 -50 -36 -26 -30
-31 -42 -26 -68 7 -32 54 -89 67 -80 4 2 10 0 14 -6 3 -5 27 -10 53 -9 53 1
139 41 156 74 6 11 14 22 18 25 3 3 -6 23 -21 45 -20 30 -37 42 -68 50 -23 6
-45 13 -49 18 -11 11 -62 9 -69 -3z"/>
<path d="M7465 3963 c-11 -2 -47 -31 -80 -63 -33 -32 -73 -64 -90 -71 -16 -8
-34 -24 -40 -37 -5 -12 -13 -22 -17 -22 -5 0 -8 -5 -8 -11 0 -6 -7 -27 -17
-46 -11 -24 -13 -37 -5 -41 5 -4 13 -25 17 -47 7 -44 12 -57 44 -126 34 -75
32 -74 230 -74 145 0 181 3 204 16 34 20 67 78 67 118 0 17 5 33 10 36 12 8
13 52 1 59 -4 3 -11 24 -15 46 -3 22 -11 40 -16 40 -6 0 -10 6 -10 13 0 7 -14
26 -31 43 -17 16 -36 43 -44 59 -7 17 -30 47 -52 67 -30 29 -49 39 -83 42 -25
3 -54 2 -65 -1z m130 -223 c19 -20 22 -57 10 -95 -7 -22 -57 -55 -84 -55 -52
0 -81 103 -40 146 29 31 88 33 114 4z"/>
<path d="M7995 3790 c-3 -5 -14 -10 -24 -10 -21 0 -56 -37 -64 -67 -10 -44 16
-111 62 -158 48 -49 56 -52 87 -30 35 24 54 77 54 152 0 63 -3 72 -28 96 -28
27 -75 36 -87 17z"/>
<path d="M6982 3770 c-12 -5 -27 -21 -32 -35 -13 -34 -13 -92 0 -100 6 -4 7
-11 4 -17 -7 -11 54 -78 72 -78 7 0 30 21 51 48 21 26 42 50 48 54 19 14 11
82 -14 107 -26 26 -91 37 -129 21z"/>
<path d="M7445 3142 c-22 -2 -44 -7 -50 -12 -5 -4 -23 -11 -40 -14 -19 -4 -36
-18 -48 -37 -16 -30 -16 -32 2 -57 48 -67 65 -76 160 -80 86 -4 91 -3 115 21
26 26 34 73 20 123 -10 37 -84 63 -159 56z"/>
<path d="M2070 560 c0 -5 4 -10 9 -10 6 0 13 5 16 10 3 6 -1 10 -9 10 -9 0
-16 -4 -16 -10z"/>
<path d="M1622 162 c-58 -3 -129 -36 -146 -67 -6 -11 -13 -22 -16 -25 -3 -3
-13 -20 -22 -38 l-17 -32 198 0 198 0 7 40 c7 45 0 64 -36 96 -25 23 -80 32
-166 26z"/>
</g>
</svg>
