<svg width="24" height="25" xmlns="http://www.w3.org/2000/svg" xmlns:xlink="http://www.w3.org/1999/xlink" overflow="hidden"><defs><clipPath id="clip0"><rect x="180" y="367" width="24" height="25"/></clipPath></defs><g clip-path="url(#clip0)" transform="translate(-180 -367)"><path d="M201.216 382.665C201.619 382.665 201.971 382.722 202.274 382.834 202.576 382.946 202.826 383.099 203.026 383.294 203.225 383.489 203.374 383.715 203.473 383.973 203.571 384.231 203.621 384.506 203.621 384.798 203.621 385.061 203.597 385.322 203.55 385.582 203.503 385.843 203.403 386.124 203.251 386.427 203.099 386.729 202.879 387.066 202.592 387.436 202.305 387.806 201.923 388.232 201.447 388.715L200.129 390.073 203.749 390.073C203.784 390.073 203.817 390.083 203.849 390.102 203.881 390.121 203.909 390.149 203.933 390.188 203.956 390.226 203.973 390.273 203.984 390.33 203.995 390.388 204 390.454 204 390.53 204 390.607 203.995 390.674 203.984 390.733 203.973 390.793 203.958 390.842 203.939 390.883 203.92 390.923 203.894 390.952 203.862 390.971 203.83 390.99 203.794 391 203.756 391L199.158 391C199.098 391 199.046 390.993 199.001 390.978 198.956 390.963 198.917 390.939 198.885 390.905 198.853 390.871 198.829 390.822 198.814 390.759 198.799 390.695 198.792 390.617 198.792 390.524 198.792 390.439 198.795 390.365 198.801 390.302 198.808 390.238 198.822 390.182 198.845 390.134 198.867 390.085 198.894 390.036 198.927 389.988 198.961 389.939 199.004 389.887 199.057 389.832L200.72 388.144C201.104 387.754 201.412 387.405 201.644 387.096 201.876 386.787 202.055 386.506 202.181 386.252 202.307 385.998 202.39 385.767 202.429 385.56 202.469 385.353 202.489 385.158 202.489 384.976 202.489 384.794 202.458 384.622 202.396 384.459 202.334 384.296 202.245 384.153 202.127 384.03 202.01 383.908 201.863 383.81 201.686 383.738 201.509 383.666 201.306 383.63 201.076 383.63 200.806 383.63 200.564 383.666 200.349 383.738 200.135 383.81 199.947 383.888 199.785 383.973 199.624 384.058 199.489 384.136 199.38 384.208 199.272 384.28 199.191 384.316 199.138 384.316 199.107 384.316 199.08 384.307 199.055 384.29 199.031 384.274 199.011 384.246 198.996 384.208 198.98 384.17 198.968 384.119 198.959 384.056 198.95 383.992 198.946 383.916 198.946 383.827 198.946 383.764 198.948 383.709 198.952 383.662 198.957 383.616 198.964 383.575 198.975 383.542 198.986 383.508 198.999 383.476 199.017 383.446 199.034 383.417 199.068 383.38 199.119 383.335 199.171 383.291 199.26 383.23 199.386 383.154 199.513 383.078 199.671 383.003 199.862 382.929 200.053 382.855 200.263 382.793 200.492 382.742 200.722 382.691 200.963 382.665 201.216 382.665ZM189.458 370.111C188.373 370.111 187.463 370.312 186.727 370.714 185.991 371.116 185.393 371.652 184.933 372.322 184.473 372.992 184.143 373.774 183.945 374.669 183.746 375.564 183.647 376.505 183.647 377.491 183.647 378.582 183.739 379.587 183.923 380.506 184.107 381.425 184.417 382.217 184.853 382.882 185.289 383.548 185.872 384.064 186.603 384.433 187.335 384.801 188.252 384.986 189.356 384.986 190.45 384.986 191.371 384.785 192.116 384.383 192.862 383.981 193.462 383.437 193.917 382.753 194.373 382.069 194.697 381.277 194.891 380.377 195.084 379.477 195.181 378.525 195.181 377.519 195.181 376.467 195.087 375.488 194.898 374.583 194.709 373.679 194.394 372.894 193.954 372.228 193.513 371.563 192.925 371.044 192.189 370.671 191.453 370.297 190.543 370.111 189.458 370.111ZM189.611 368C190.997 368 192.204 368.206 193.232 368.617 194.26 369.029 195.116 369.63 195.8 370.419 196.483 371.209 196.992 372.185 197.327 373.348 197.661 374.511 197.829 375.844 197.829 377.347 197.829 378.85 197.649 380.205 197.29 381.41 196.932 382.617 196.396 383.643 195.683 384.49 194.97 385.337 194.076 385.988 193 386.443 191.923 386.898 190.668 387.125 189.232 387.125 187.817 387.125 186.592 386.917 185.56 386.5 184.527 386.084 183.674 385.479 183 384.684 182.326 383.89 181.824 382.904 181.495 381.726 181.165 380.549 181 379.195 181 377.663 181 376.198 181.179 374.868 181.538 373.671 181.897 372.475 182.435 371.458 183.153 370.62 183.87 369.783 184.767 369.137 185.843 368.682 186.92 368.227 188.175 368 189.611 368Z" fill-rule="evenodd"/></g></svg>