<?xml version="1.0" standalone="no"?>
<!DOCTYPE svg PUBLIC "-//W3C//DTD SVG 20010904//EN"
 "http://www.w3.org/TR/2001/REC-SVG-20010904/DTD/svg10.dtd">
<svg version="1.0" xmlns="http://www.w3.org/2000/svg"
 width="474.000000pt" height="348.000000pt" viewBox="0 0 474.000000 348.000000"
 preserveAspectRatio="xMidYMid meet">

<g transform="translate(0.000000,348.000000) scale(0.100000,-0.100000)"
fill="#000000" stroke="none">
<path d="M3871 3433 c-6 -21 -11 -44 -11 -50 0 -7 -7 -31 -16 -53 -26 -63 -47
-70 -191 -57 -109 9 -127 8 -168 -7 -29 -12 -50 -27 -55 -41 -10 -26 -54 -38
-113 -30 -35 5 -37 4 -31 -19 5 -21 1 -24 -31 -30 -21 -4 -65 -7 -99 -6 -84 2
-86 2 -86 -14 0 -9 -19 -19 -52 -26 -59 -12 -79 -24 -97 -57 -15 -29 -9 -29
37 1 48 32 81 40 115 27 37 -14 34 -28 -10 -47 -104 -45 -231 -57 -308 -29
-51 19 -52 19 -58 -5 -4 -14 -14 -20 -34 -20 l-28 -1 35 -18 c19 -10 64 -24
100 -30 129 -24 131 -31 15 -56 -85 -18 -120 -35 -70 -35 17 0 25 -5 23 -12
-7 -19 -36 -22 -96 -7 -44 10 -60 10 -85 0 -18 -8 -67 -17 -110 -21 -72 -8
-107 -21 -107 -41 0 -4 12 -1 28 7 63 32 119 18 270 -70 125 -73 100 -80 -108
-32 -121 29 -150 21 -41 -10 123 -36 166 -70 83 -67 -35 2 -34 1 11 -10 27 -7
55 -21 62 -30 13 -18 18 -18 97 -3 147 28 172 21 137 -40 -65 -112 -137 -186
-210 -217 -19 -8 -73 -20 -120 -27 -88 -13 -170 -8 -379 25 -52 9 -152 18
-222 22 -201 10 -280 -13 -486 -140 -105 -64 -122 -72 -177 -75 -80 -5 -93 8
-77 79 18 77 15 89 -30 132 -66 60 -142 105 -259 152 -122 49 -217 71 -344 80
-145 10 -183 26 -317 133 -46 37 -128 72 -164 72 -14 -1 -11 -5 11 -17 36 -19
65 -43 65 -55 0 -4 -15 -8 -32 -8 l-33 -1 24 -19 c20 -18 21 -20 5 -20 -11 0
-32 8 -49 18 -27 17 -75 34 -75 28 0 -2 61 -56 135 -121 74 -65 135 -122 135
-127 0 -13 -23 -9 -44 7 -11 8 -29 15 -39 15 -20 0 -20 0 -1 -22 10 -11 58
-47 107 -79 48 -32 99 -67 114 -79 25 -19 25 -21 8 -34 -18 -13 -18 -14 1 -19
10 -3 37 -8 58 -12 22 -4 91 -27 155 -52 161 -63 159 -63 323 -77 158 -15 206
-30 241 -77 19 -26 19 -27 -2 -103 -44 -162 -13 -321 87 -445 77 -94 131 -139
352 -289 127 -86 162 -126 184 -213 18 -70 9 -116 -33 -174 -17 -24 -31 -48
-31 -53 0 -12 47 -28 110 -37 205 -31 463 -243 605 -498 21 -38 48 -73 61 -79
13 -6 33 -26 44 -45 19 -32 21 -33 83 -33 39 0 71 5 83 14 19 14 19 15 -1 52
-11 20 -77 88 -148 151 -119 107 -167 167 -167 208 0 26 36 16 69 -20 23 -26
40 -35 64 -35 26 0 40 -9 75 -50 25 -29 52 -50 63 -50 32 0 119 49 119 67 0
20 -39 54 -120 103 -52 31 -82 41 -147 50 -94 14 -195 59 -227 103 -19 26 -20
39 -16 120 6 116 6 362 0 447 l-5 65 145 -3 c190 -4 285 10 445 64 150 51 143
51 260 -20 39 -24 120 -72 180 -106 61 -35 129 -78 151 -96 76 -61 91 -131 53
-252 -30 -92 -46 -121 -91 -162 -36 -34 -37 -37 -26 -68 15 -39 6 -50 -53 -63
-24 -6 -55 -17 -68 -26 -23 -15 -24 -18 -17 -106 3 -50 11 -96 16 -101 6 -6
21 -4 42 6 24 11 47 39 82 99 27 46 61 98 76 114 15 17 35 55 45 85 9 30 43
114 76 185 32 72 61 148 65 171 7 49 3 59 -116 245 -83 131 -139 243 -127 255
11 11 124 -29 242 -85 66 -32 151 -68 189 -81 51 -17 83 -36 125 -74 31 -28
97 -84 146 -125 182 -150 257 -234 292 -330 16 -43 27 -57 54 -70 29 -14 35
-22 40 -60 8 -62 34 -81 114 -81 79 0 95 6 95 36 0 30 -30 65 -97 115 -35 26
-53 48 -58 68 -4 18 -28 50 -58 79 -199 187 -234 225 -286 302 -42 65 -67 91
-102 110 -25 14 -74 47 -110 74 -175 135 -222 189 -235 276 -4 25 -21 72 -39
105 -40 73 -67 163 -95 315 -37 203 -37 208 9 375 23 82 45 152 49 156 4 3 30
24 58 47 39 32 60 42 87 42 20 0 38 -4 41 -9 10 -15 88 -48 169 -70 101 -27
152 -53 203 -103 38 -36 45 -39 90 -36 46 3 50 6 86 57 58 83 56 91 -76 254
-127 159 -136 174 -136 215 0 23 -16 45 -77 105 l-78 77 -5 147 c-3 84 -9 148
-15 149 -5 2 -28 -25 -50 -59 -51 -80 -71 -85 -77 -20 -5 52 -26 104 -45 110
-7 3 -16 -12 -22 -34z"/>
</g>
</svg>
