<?xml version="1.0" standalone="no"?>
<!DOCTYPE svg PUBLIC "-//W3C//DTD SVG 20010904//EN"
 "http://www.w3.org/TR/2001/REC-SVG-20010904/DTD/svg10.dtd">
<svg version="1.0" xmlns="http://www.w3.org/2000/svg"
 width="576.000000pt" height="229.000000pt" viewBox="0 0 576.000000 229.000000"
 preserveAspectRatio="xMidYMid meet">

<g transform="translate(0.000000,229.000000) scale(0.100000,-0.100000)"
fill="#000000" stroke="none">
<path d="M1485 1619 c-792 -363 -1448 -664 -1459 -668 -13 -5 286 -137 1041
-459 583 -249 1065 -452 1071 -452 7 0 85 37 175 81 l163 82 224 -97 c124 -53
231 -96 239 -96 13 0 2789 1365 2803 1379 4 3 -448 198 -1003 433 l-1010 426
-175 -80 -174 -80 -217 92 c-120 51 -222 94 -228 96 -5 2 -658 -294 -1450
-657z m2403 205 c518 -219 942 -401 942 -404 0 -3 -606 -304 -1346 -669 -1216
-600 -1349 -664 -1373 -654 -54 21 -1937 826 -1959 837 -22 12 -9 19 175 104
1555 715 2600 1191 2608 1188 6 -2 434 -183 953 -402z m797 -29 c517 -218 943
-400 946 -404 7 -6 -2654 -1322 -2686 -1329 -16 -4 -405 158 -405 168 0 3 543
272 1205 599 663 327 1204 595 1203 596 -2 2 -336 143 -743 315 -407 172 -746
315 -753 319 -13 7 265 141 283 136 6 -1 433 -182 950 -400z"/>
</g>
</svg>
