<?xml version="1.0" standalone="no"?>
<!DOCTYPE svg PUBLIC "-//W3C//DTD SVG 20010904//EN"
 "http://www.w3.org/TR/2001/REC-SVG-20010904/DTD/svg10.dtd">
<svg version="1.0" xmlns="http://www.w3.org/2000/svg"
 width="449.000000pt" height="368.000000pt" viewBox="0 0 449.000000 368.000000"
 preserveAspectRatio="xMidYMid meet">

<g transform="translate(0.000000,368.000000) scale(0.100000,-0.100000)"
fill="#000000" stroke="none">
<path d="M1415 3425 c-445 -140 -873 -275 -950 -299 -77 -24 -200 -63 -273
-86 -106 -33 -135 -46 -149 -67 -44 -66 5 -153 87 -153 l40 0 0 -288 c0 -279
1 -289 22 -332 30 -57 65 -82 127 -88 l51 -5 0 -748 0 -748 -34 -7 c-19 -3
-43 -16 -55 -27 -36 -39 -281 -451 -281 -474 0 -36 22 -73 51 -89 33 -16 1018
-19 3143 -7 l1239 6 26 23 c21 18 26 31 25 66 0 36 -19 75 -122 253 -68 116
-132 218 -143 227 -11 10 -43 20 -70 24 l-49 7 2 746 3 746 43 6 c46 6 84 30
116 73 20 26 21 42 24 332 l3 304 30 0 c41 0 83 23 97 55 17 36 15 55 -7 92
-21 33 -25 35 -351 138 -176 56 -820 261 -1080 345 -135 43 -351 113 -481 154
-130 42 -244 76 -255 76 -10 -1 -383 -115 -829 -255z m-207 -2067 l2 -748
-225 0 -225 0 0 750 0 750 223 -2 222 -3 3 -747z m832 2 l0 -750 -220 0 -220
0 0 750 0 750 220 0 220 0 0 -750z m840 0 l0 -750 -225 0 -225 0 0 750 0 750
225 0 225 0 0 -750z m838 -2 l2 -748 -225 0 -225 0 0 750 0 750 223 -2 222 -3
3 -747z"/>
</g>
</svg>
