<?xml version="1.0" standalone="no"?>
<!DOCTYPE svg PUBLIC "-//W3C//DTD SVG 20010904//EN"
 "http://www.w3.org/TR/2001/REC-SVG-20010904/DTD/svg10.dtd">
<svg version="1.0" xmlns="http://www.w3.org/2000/svg"
 width="352.000000pt" height="512.000000pt" viewBox="0 0 352.000000 512.000000"
 preserveAspectRatio="xMidYMid meet">

<g transform="translate(0.000000,512.000000) scale(0.100000,-0.100000)"
fill="#000000" stroke="none">
<path d="M1538 5113 c-21 -2 -38 -7 -38 -11 0 -4 -28 -7 -63 -8 -67 -1 -275
-41 -294 -56 -6 -5 -31 -11 -55 -13 -101 -8 -379 -124 -422 -176 -20 -24 -30
-29 -36 -20 -19 32 -262 -168 -358 -294 -25 -33 -65 -82 -89 -108 -27 -31 -45
-62 -48 -85 -4 -20 -17 -67 -30 -104 -36 -100 -54 -175 -73 -305 -18 -130 -18
-263 1 -275 7 -5 8 -8 1 -8 -11 0 -11 -6 7 -142 6 -49 14 -88 18 -88 3 0 7
-19 7 -43 1 -23 13 -79 26 -123 l24 -82 -52 -56 c-46 -49 -53 -62 -59 -111 -4
-30 -4 -63 0 -72 4 -10 9 -31 11 -48 6 -43 14 -65 24 -65 5 0 7 -6 4 -14 -3
-8 17 -63 44 -123 28 -59 56 -128 63 -153 7 -25 18 -53 25 -63 6 -10 9 -28 6
-39 -4 -17 -2 -20 13 -14 15 5 16 4 5 -8 -18 -22 12 -103 57 -156 34 -39 36
-46 34 -100 -2 -38 3 -69 14 -89 10 -19 11 -31 5 -31 -12 0 -3 -41 11 -50 4
-3 4 -23 -1 -45 -22 -92 -2 -299 36 -375 10 -19 37 -63 61 -96 59 -85 73 -123
77 -213 4 -86 25 -141 89 -225 20 -26 42 -65 48 -86 7 -22 16 -40 20 -40 5 0
8 -22 8 -48 -2 -64 27 -118 110 -206 59 -63 71 -82 95 -153 29 -86 65 -150 84
-146 6 2 9 -3 6 -10 -10 -26 112 -120 150 -116 5 0 12 -4 15 -9 10 -16 155
-87 173 -85 11 2 15 -2 12 -11 -9 -24 134 -74 276 -97 119 -19 191 -22 245
-10 27 5 90 15 140 21 49 6 94 15 100 19 5 4 21 8 34 9 13 0 45 12 70 25 148
77 241 130 241 137 0 5 7 7 15 4 38 -15 172 115 201 195 41 114 77 178 135
238 69 71 102 138 103 205 1 27 4 48 7 48 4 0 9 11 13 23 3 13 29 59 57 103
67 102 78 130 80 200 2 95 26 174 64 214 29 30 37 50 55 133 12 55 19 101 16
104 -3 3 2 22 10 42 7 20 21 81 29 135 13 92 13 101 -2 118 -16 18 -16 18 0
12 16 -6 17 2 13 92 l-4 99 48 51 c52 55 98 163 72 172 -17 5 -15 32 3 32 9 0
15 9 15 21 0 12 31 90 70 173 38 83 71 160 73 171 1 11 6 25 10 32 4 6 9 24
12 40 2 15 7 47 11 70 11 73 -10 130 -73 195 -31 31 -71 65 -90 75 -19 10 -31
23 -28 30 2 7 -2 13 -10 13 -8 0 -15 5 -15 10 0 6 8 10 18 10 39 0 105 117
143 258 20 71 24 101 36 273 5 76 -11 149 -32 149 -20 0 -19 20 3 36 16 12 16
17 -5 96 -30 117 -59 190 -100 251 -19 28 -37 61 -39 71 -6 31 -111 161 -193
238 -83 78 -201 166 -201 150 0 -16 -49 11 -53 30 -11 40 -453 222 -559 230
-18 2 -35 6 -38 10 -3 3 -54 14 -113 24 -87 14 -110 15 -116 5 -6 -10 -10 -9
-14 3 -6 14 -35 16 -234 14 -125 -1 -245 -3 -265 -5z m312 -1187 c47 -6 155
-16 225 -21 22 -2 54 -8 70 -15 17 -6 45 -12 62 -13 18 -1 33 -5 33 -9 0 -5 8
-8 18 -8 9 0 68 -17 130 -38 61 -21 112 -34 112 -28 0 5 10 1 23 -10 12 -11
39 -27 59 -37 25 -11 42 -28 51 -50 8 -18 29 -50 47 -70 18 -20 26 -37 19 -37
-7 0 -3 -10 11 -25 12 -13 27 -22 33 -18 6 3 7 1 4 -4 -4 -6 0 -16 8 -23 11
-10 15 -10 15 0 0 6 19 -5 42 -24 23 -20 45 -36 50 -36 4 0 8 -7 8 -15 0 -7 8
-19 18 -25 16 -9 16 -11 -1 -21 -16 -9 -18 -19 -12 -56 10 -69 32 -123 70
-172 28 -35 35 -53 35 -90 1 -25 1 -220 1 -433 l0 -387 24 -29 c39 -46 48 -81
46 -177 -2 -136 -7 -152 -45 -159 -41 -8 -110 -78 -126 -128 -24 -76 -34 -57
-30 55 2 54 -25 111 -41 86 -7 -11 -9 -10 -9 4 0 19 -39 24 -70 7 -25 -13 -50
-92 -32 -98 10 -3 10 -7 1 -18 -7 -9 -10 -39 -7 -80 5 -78 29 -107 82 -102 36
4 48 -23 22 -51 -8 -9 -22 -41 -30 -71 -8 -30 -19 -68 -25 -83 -6 -16 -11 -39
-11 -51 0 -13 -9 -35 -20 -49 -11 -14 -23 -40 -26 -59 -12 -70 -46 -147 -68
-154 -28 -8 -66 -44 -77 -71 -12 -33 -47 -30 -54 5 -18 82 -72 155 -178 239
-13 11 -15 29 -11 102 3 51 1 92 -5 95 -5 3 -7 15 -4 25 7 26 -52 135 -90 167
-49 41 -115 76 -153 79 -19 2 -41 9 -49 15 -9 8 -42 10 -102 6 -48 -4 -148 -6
-221 -6 -75 0 -141 -4 -152 -10 -14 -8 -20 -8 -20 0 0 14 -41 4 -106 -25 -87
-38 -151 -119 -173 -214 -6 -27 -5 -41 1 -41 7 0 6 -5 -1 -14 -7 -8 -9 -41 -6
-93 l5 -81 -35 -31 c-22 -19 -33 -36 -29 -44 6 -9 4 -9 -8 1 -13 11 -21 9 -46
-13 -16 -13 -35 -38 -42 -55 -7 -17 -18 -29 -24 -26 -73 31 -80 41 -64 86 13
40 4 88 -24 117 l-21 23 21 0 c34 0 62 38 62 84 0 23 7 70 14 106 8 36 12 68
10 72 -2 3 -1 8 3 10 5 1 19 25 33 53 14 27 35 62 48 77 14 16 20 33 16 40 -4
7 -4 10 0 6 5 -4 30 11 57 32 27 22 67 49 89 61 67 38 77 114 19 144 -40 21
-55 19 -80 -12 -14 -19 -23 -24 -26 -15 -4 10 -11 9 -31 -4 -59 -37 -123 -97
-118 -110 3 -7 0 -11 -7 -9 -7 3 -29 -19 -50 -47 -21 -29 -34 -54 -28 -56 6
-2 1 -13 -10 -25 -11 -12 -18 -29 -16 -39 3 -11 0 -15 -8 -11 -35 13 -85 -285
-55 -322 10 -13 9 -15 -11 -15 -13 0 -37 -7 -54 -16 -29 -15 -30 -14 -52 13
-13 15 -23 37 -23 47 0 32 -71 167 -121 231 -37 47 -50 73 -58 120 -9 50 -18
67 -50 98 -37 34 -39 40 -30 70 8 29 1 93 -18 147 -7 20 -9 130 -3 130 3 0 15
15 27 33 19 27 23 47 23 104 0 47 -4 73 -12 77 -10 5 -10 7 -1 12 18 8 18 550
0 558 -9 5 -9 7 1 12 7 4 12 28 12 66 0 59 1 63 48 112 46 49 92 141 92 184 0
10 14 34 31 55 16 20 33 54 36 74 4 26 22 55 53 91 26 30 62 81 79 115 l32 62
86 30 c47 17 88 36 91 43 2 7 12 10 20 7 13 -5 151 24 202 43 8 3 20 6 25 6 6
1 36 6 68 10 31 5 57 11 57 15 0 3 42 7 93 9 50 2 119 7 152 10 67 8 118 7
185 -2z m-1500 -1107 c1 -343 1 -359 -10 -334 -4 11 -13 38 -19 61 -6 23 -22
58 -36 79 -15 20 -24 39 -21 42 2 2 -16 46 -40 97 -24 51 -47 107 -50 125 -4
17 -10 31 -13 31 -15 0 6 100 25 121 27 29 68 49 103 49 16 0 33 5 37 11 18
30 24 -38 24 -282z m2898 272 c64 -18 103 -58 112 -114 4 -25 4 -50 0 -54 -4
-4 -12 -27 -19 -50 -6 -23 -29 -81 -51 -129 -22 -47 -40 -90 -40 -95 0 -6 -9
-22 -20 -37 -11 -15 -21 -38 -22 -52 -2 -14 -6 -27 -10 -30 -4 -3 -12 -36 -18
-74 -21 -131 -50 -144 -50 -23 -3 496 0 647 11 659 14 16 50 16 107 -1z
m-1288 -1472 c3 -3 27 -13 53 -23 109 -41 143 -102 132 -238 -5 -65 -4 -88 5
-88 7 0 9 -8 5 -20 -9 -29 21 -77 68 -107 23 -14 48 -26 54 -26 7 0 11 -2 8
-5 -2 -2 7 -21 20 -41 31 -45 31 -71 1 -100 -22 -21 -30 -22 -88 -16 -88 9
-174 -8 -210 -42 -15 -15 -28 -32 -28 -39 0 -24 -62 -58 -99 -55 -20 2 -38 5
-40 7 -8 8 -17 104 -11 111 11 14 37 97 38 123 2 52 -67 86 -119 59 -34 -17
-72 -141 -72 -236 0 -29 -4 -33 -28 -33 -15 0 -40 7 -55 15 -16 8 -37 15 -47
15 -9 0 -36 17 -60 38 -55 51 -64 54 -181 61 l-100 6 -8 30 c-10 38 -2 62 23
70 13 5 18 12 14 22 -4 12 -2 13 8 5 28 -23 138 105 123 143 -3 8 -1 15 5 15
7 0 8 27 5 77 -10 158 26 225 137 252 58 15 78 16 145 5 76 -12 184 -4 189 13
3 9 105 11 113 2z"/>
<path d="M1580 3320 c0 -5 -6 -7 -14 -4 -8 3 -24 -8 -39 -27 l-24 -31 -62 21
c-34 12 -66 19 -71 16 -5 -3 -12 0 -15 5 -4 6 -17 10 -28 9 -12 -1 -30 2 -40
6 -17 7 -121 2 -217 -10 -68 -9 -184 -51 -283 -102 -92 -48 -125 -80 -112
-110 5 -10 7 -23 7 -29 -1 -6 7 -19 18 -29 11 -10 20 -13 20 -7 0 7 8 7 29 -1
25 -9 34 -6 75 22 93 62 260 111 385 112 92 0 162 -16 242 -57 39 -19 68 -23
110 -15 11 2 107 127 113 148 9 27 -10 66 -27 57 -7 -4 -9 -4 -5 1 4 4 3 14
-3 22 -13 15 -59 18 -59 3z"/>
<path d="M1870 3305 c-38 -40 -31 -74 30 -149 56 -69 82 -85 105 -66 10 8 15
9 15 2 0 -6 26 2 58 17 82 41 133 53 234 52 94 -1 176 -18 270 -56 32 -13 58
-21 58 -18 0 2 22 -11 49 -31 27 -20 58 -36 69 -36 28 0 92 57 92 81 0 61
-221 171 -406 203 -96 17 -214 21 -214 8 0 -5 -13 -7 -30 -4 -18 2 -30 0 -30
-7 0 -6 -6 -8 -14 -5 -7 3 -41 -5 -74 -16 l-62 -22 -34 36 c-41 44 -81 48
-116 11z"/>
<path d="M1111 3036 c-9 -10 -17 -13 -20 -7 -8 12 -51 3 -51 -11 0 -5 -4 -6
-10 -3 -11 7 -111 -44 -148 -75 -13 -11 -21 -24 -17 -30 3 -5 0 -7 -8 -4 -20
7 -67 -51 -67 -83 0 -16 13 -38 34 -58 34 -32 145 -83 195 -90 14 -2 34 -6 44
-10 10 -4 17 -3 17 4 0 8 5 9 19 1 49 -26 239 4 227 36 -4 10 2 14 20 14 13 0
27 7 31 16 4 10 8 12 13 5 4 -8 25 6 56 35 30 28 44 48 37 51 -20 7 -15 30 7
36 32 8 25 51 -12 83 -47 39 -150 86 -159 73 -4 -8 -10 -5 -16 6 -15 26 -172
35 -192 11z m149 -146 c3 -3 16 -10 30 -16 l25 -11 -35 -18 c-19 -10 -37 -21
-40 -24 -5 -6 -31 -10 -87 -12 -40 -1 -133 20 -133 30 0 30 217 75 240 51z"/>
<path d="M2258 3043 c-16 -2 -28 -8 -28 -13 0 -4 -8 -6 -19 -3 -10 2 -25 -2
-33 -11 -9 -8 -18 -13 -21 -10 -7 8 -79 -30 -115 -61 -42 -35 -41 -84 1 -138
31 -39 117 -105 117 -88 0 16 38 0 43 -18 9 -34 178 -57 226 -32 13 8 21 8 21
2 0 -7 9 -7 25 -1 14 5 25 7 25 5 0 -9 128 43 168 69 50 31 65 58 57 96 -7 32
-39 65 -54 55 -6 -3 -9 0 -5 8 3 9 -15 27 -49 51 -60 41 -170 90 -175 76 -2
-4 -15 -2 -30 6 -25 13 -93 16 -154 7z m200 -178 c23 -9 42 -21 42 -25 0 -11
-97 -33 -138 -32 -49 2 -107 20 -133 41 l-23 19 32 7 c18 3 32 10 32 14 0 12
144 -6 188 -24z"/>
<path d="M1375 2437 c-10 -8 -15 -19 -11 -26 4 -6 4 -11 -1 -10 -23 4 -34 -5
-59 -47 -45 -76 -25 -151 55 -205 30 -21 47 -24 125 -24 75 0 98 -4 134 -23
23 -12 42 -18 42 -12 0 5 15 1 33 -10 34 -21 111 -27 137 -10 9 6 17 5 21 -1
4 -7 29 -1 70 16 35 15 94 31 131 35 73 9 112 26 144 62 32 35 44 63 44 104 0
47 -37 127 -56 120 -8 -3 -11 0 -8 9 6 15 -25 35 -55 35 -11 0 -32 -11 -47
-23 -32 -28 -37 -76 -11 -105 24 -27 21 -39 -13 -51 -17 -6 -30 -6 -30 -1 0
14 -58 1 -132 -31 -86 -37 -114 -36 -208 6 -81 36 -144 45 -194 25 -14 -5 -26
-6 -27 -2 0 4 -2 17 -3 29 -1 12 1 20 6 17 15 -9 37 28 38 62 0 59 -76 96
-125 61z"/>
<path d="M2192 2024 c-31 -21 -44 -58 -32 -88 4 -13 40 -44 79 -70 38 -26 81
-60 95 -77 15 -18 31 -27 37 -23 7 4 9 3 6 -3 -4 -6 9 -37 28 -69 19 -32 35
-63 35 -70 0 -7 10 -20 23 -29 16 -11 19 -18 9 -23 -9 -6 -10 -21 -2 -62 5
-29 10 -69 10 -90 0 -36 29 -78 43 -63 4 3 7 1 7 -5 0 -21 56 -13 78 11 25 27
29 57 7 57 -20 0 -19 26 1 34 14 5 15 16 10 67 -14 118 -75 262 -134 311 -15
13 -31 31 -34 39 -7 19 -111 109 -126 109 -5 0 -12 6 -15 13 -6 15 -67 47 -89
47 -7 0 -24 -7 -36 -16z"/>
<path d="M655 1905 c-22 -21 -25 -33 -25 -99 0 -50 4 -76 13 -80 10 -5 10 -7
0 -12 -19 -9 -16 -38 8 -68 19 -24 27 -27 61 -23 62 7 71 23 76 132 4 83 2 95
-12 95 -9 0 -16 5 -16 10 0 6 5 10 10 10 16 0 11 19 -11 41 -16 16 -23 18 -29
9 -5 -9 -9 -9 -14 -1 -11 18 -35 13 -61 -14z"/>
<path d="M1551 1434 c-15 -11 -21 -23 -18 -35 3 -11 1 -19 -4 -19 -17 0 -9
-31 15 -55 23 -23 27 -23 215 -23 220 0 234 4 234 73 0 60 -26 75 -129 75 -49
0 -84 -4 -84 -10 0 -5 -7 -10 -15 -10 -8 0 -15 5 -15 10 0 18 -172 12 -199 -6z"/>
</g>
</svg>
