<svg width="37" height="20" xmlns="http://www.w3.org/2000/svg" xmlns:xlink="http://www.w3.org/1999/xlink" overflow="hidden"><defs><clipPath id="clip0"><rect x="287" y="373" width="37" height="20"/></clipPath></defs><g clip-path="url(#clip0)" transform="translate(-287 -373)"><path d="M-0.567085 17.0928C-0.567085 17.0722-0.539855 17.0549-0.505811 17.0549-0.471767 17.0549-0.43091 17.0411-0.410492 17.0239-0.393448 17.0101-0.270899 16.9549-0.138119 16.9032 0.0423315 16.8342 0.113815 16.7893 0.127441 16.7341 0.144463 16.6721 0.154672 16.6686 0.178507 16.7066 0.205738 16.7514 0.250013 16.741 0.461089 16.6583 0.597265 16.6065 0.787924 16.5272 0.879847 16.4858 0.975187 16.441 1.2101 16.3375 1.40415 16.2513 1.63907 16.1478 1.77526 16.0685 1.80249 16.0133 1.84335 15.9409 1.84675 15.9409 1.85016 16.003 1.85356 16.0685 1.85698 16.0685 1.89781 16.0133 1.92165 15.9788 1.9489 15.9616 1.9625 15.9719 1.97271 15.9823 2.00678 15.9754 2.04422 15.9581 2.07826 15.9374 2.20765 15.8754 2.33701 15.8167 2.46298 15.7581 2.56513 15.696 2.56513 15.6788 2.56513 15.6615 2.59576 15.6546 2.63322 15.665 2.67066 15.6753 2.70131 15.665 2.70131 15.6443 2.70131 15.6236 2.72172 15.6063 2.74556 15.6063 2.766 15.6063 2.82388 15.5856 2.87153 15.5615 2.9192 15.5339 3.17113 15.3994 3.43329 15.2614 3.69544 15.1235 3.91674 14.9959 3.92014 14.9786 3.92695 14.9648 3.961 14.951 3.99846 14.951 4.0359 14.951 4.06313 14.9269 4.06313 14.8958 4.06313 14.8683 4.07676 14.8545 4.09717 14.8648 4.12782 14.882 4.20272 14.8476 4.52956 14.6544 4.59085 14.6165 4.64192 14.5785 4.64192 14.5648 4.64192 14.5475 4.66234 14.5372 4.68617 14.5372 4.71001 14.5372 4.87002 14.444 5.04365 14.3302 5.21729 14.2164 5.37049 14.1233 5.3807 14.1233 5.40114 14.1233 6.14333 13.6232 6.31016 13.4956 6.35783 13.4611 6.54847 13.3197 6.73573 13.1817 7.5256 12.5988 7.88648 12.3022 7.85925 12.2574 7.84562 12.2401 7.86606 12.2263 7.9001 12.2263 7.97159 12.2263 8.77847 11.4744 9.14277 11.0709 9.53088 10.6398 9.81688 10.2639 10.4467 9.34989 10.6986 8.98775 11.4511 7.82198 11.4511 7.7944 11.4511 7.78405 11.509 7.68402 11.5804 7.57711 11.6519 7.4702 11.7711 7.27361 11.8426 7.13909 11.9107 7.00803 11.9822 6.88387 11.9958 6.86316 12.0741 6.75281 12.3737 6.16648 12.6359 5.6043 13.1432 4.51786 13.2725 4.11779 13.31 3.51077 13.3406 3.02791 13.31 2.90029 13.0342 2.31052 12.8061 1.82422 12.612 1.55864 12.4043 1.44827 12.2716 1.37929 11.8153 1.31031 11.7983 1.3586 11.7813 1.41034 11.6894 1.4069 11.6247 1.34826 11.5566 1.28962 10.8382 1.23445 10.8382 1.28962 10.8382 1.31031 10.794 1.32755 10.7361 1.32755 10.6816 1.32755 10.634 1.31031 10.634 1.28618 10.634 1.22408 9.8339 1.27582 9.72835 1.3448 9.63643 1.4069 9.53769 1.41034 9.48663 1.3586 9.4594 1.33101 9.36747 1.34826 9.15637 1.41378 8.99636 1.46551 8.83975 1.5 8.80912 1.49312 8.71378 1.47588 8.67634 1.30687 8.74103 1.20684 8.89084 0.975771 9.3845 0.775733 9.68068 0.827468 9.78284 0.844713 9.81688 0.83781 9.81688 0.80332 9.81688 0.77227 9.82367 0.76883 9.84411 0.796418 9.85774 0.820565 9.99049 0.855055 10.1403 0.87574 10.2901 0.899888 10.4978 0.930938 10.5999 0.948183 11.0187 1.01716 11.6077 1.05165 12.2682 1.04475 12.6529 1.03785 13.0002 1.04819 13.0444 1.062 13.1057 1.08614 13.1193 1.07924 13.1193 1.01716 13.1193 0.80332 12.9457 0.637772 12.4826 0.413587 12.2988 0.327362 12.115 0.237674 12.0741 0.216989 12.0367 0.196304 11.9856 0.192841 11.9652 0.203184 11.9447 0.216989 11.9277 0.213549 11.9277 0.196304 11.9277 0.161814 11.5021-0.0106367 11.1821-0.107204 11.0425-0.148597 10.9915-0.15206 10.9744-0.12101 10.954-0.0899594 10.9404-0.0968619 10.9131-0.138255 10.8621-0.234822 10.205-0.39693 9.87476-0.39693 9.72835-0.39693 9.57855-0.414175 9.54111-0.43142 9.45258-0.483155 9.4594-0.624556 9.55813-0.717683 9.70794-0.859084 10.1641-0.928064 10.382-0.845301 10.4501-0.817714 10.4808-0.817714 10.5012-0.852204 10.5216-0.883231 10.5352-0.879791 10.5523-0.834959 10.5863-0.745271 11.989-0.0416868 12.0877-0.0658344 12.1388-0.0796169 12.166-0.0692744 12.1728-0.0313443 12.1831 0.0272933 12.2852 0.068686 12.8027 0.223891 12.9899 0.282529 13.1704 0.317019 13.201 0.306654 13.2385 0.292872 13.2555 0.303214 13.2555 0.341144 13.2555 0.406684 13.3576 0.417027 13.3576 0.354949 13.361 0.327362 13.3815 0.337704 13.4087 0.375634 13.4359 0.410124 13.4904 0.458419 13.5347 0.479104 13.7049 0.572232 13.9398 0.706753 14.1952 0.868838 14.7467 1.2103 14.842 1.24823 15.2812 1.31031 15.5059 1.33792 15.8055 1.38275 15.9451 1.40343 16.0847 1.42414 16.2549 1.44483 16.3196 1.44483 16.3843 1.44827 16.449 1.46207 16.4626 1.47932 16.4728 1.49656 16.626 1.5483 16.8031 1.59313 17.0482 1.65521 17.2797 1.67935 17.8347 1.70694 18.2296 1.72419 18.6654 1.75868 18.805 1.77939 18.9445 1.80351 19.108 1.82422 19.1624 1.82766 19.2203 1.83112 19.3088 1.85181 19.3599 1.87249 19.4825 1.92423 19.5097 1.92423 19.5301 1.87249 19.5403 1.838 19.5574 1.84146 19.5914 1.8863 19.6187 1.91735 19.7072 1.95872 19.7923 1.97596 19.8774 1.99667 20.0681 2.04494 20.2179 2.08633 20.3677 2.12773 20.5243 2.16222 20.5685 2.16222 20.6094 2.16222 20.6434 2.17946 20.6434 2.20361 20.6434 2.22429 20.7047 2.26913 20.7762 2.30362 20.8511 2.33811 21.0315 2.47953 21.1848 2.62093 21.3346 2.76233 21.5014 2.88651 21.5525 2.90029 21.6069 2.9141 21.6954 2.95893 21.7567 3.00376 21.8521 3.0762 21.8657 3.11069 21.8759 3.26934L21.8861 3.44869 22.1585 3.59353C22.3083 3.67288 22.4513 3.73149 22.4717 3.72461 22.4955 3.71771 22.5262 3.73149 22.5398 3.75564 22.6181 3.8867 23.2649 3.96602 23.4726 3.86945 23.6259 3.79703 23.7586 3.65907 23.888 3.43833 23.9561 3.31761 24.014 3.20726 24.014 3.19346 24.014 3.17967 24.0991 3.10723 24.2046 3.03135 24.3136 2.95893 24.5621 2.73474 24.763 2.5347 24.9638 2.33467 25.2975 2.03116 25.5052 1.86215 25.7162 1.69316 25.8865 1.54139 25.8865 1.52761 25.8865 1.51381 25.9035 1.5 25.9205 1.5 25.9512 1.5 26.1078 1.38965 26.3801 1.17925 26.3972 1.16547 26.5231 1.07578 26.6525 0.982673 26.7853 0.886083 26.9283 0.779173 26.9691 0.741243 27.0134 0.70329 27.0576 0.672262 27.0679 0.672262 27.0747 0.672262 27.1768 0.59982 27.2926 0.510155 27.4083 0.420489 27.5786 0.292872 27.6739 0.227331 27.7658 0.161814 27.9973-0.00719675 28.1846-0.148597 28.6204-0.476253 28.8246-0.583163 28.9165-0.534891 29.0187-0.479693 29.1549-0.33139 29.1549-0.272775 29.1549-0.245165 29.1413-0.22792 29.1242-0.238285 29.1072-0.248627 29.0561-0.196892 29.0051-0.12101 28.9574-0.0451268 28.6374 0.344607 28.2969 0.748123 27.9565 1.15166 27.5615 1.62072 27.4219 1.78973 27.279 1.95872 27.0985 2.17256 27.0202 2.26222 26.6185 2.7313 26.261 3.22451 26.261 3.31761 26.261 3.36247 26.4721 3.30383 26.8159 3.16931 27.0747 3.0624 27.2143 2.98998 27.2143 2.95549 27.2143 2.91754 27.2245 2.9141 27.2619 2.94512 27.2994 2.97617 27.3368 2.97273 27.4219 2.921 27.4866 2.88651 27.599 2.83477 27.6739 2.80372 27.9122 2.70715 28.8314 2.24844 28.8416 2.21739 28.8485 2.20361 28.8689 2.1898 28.8859 2.1898 28.9029 2.1898 29.2093 2.0415 29.5702 1.85871 29.9311 1.67591 30.3805 1.45173 30.5678 1.3586 30.755 1.26547 30.9355 1.17235 30.9661 1.15512 31.0104 1.13098 31.0342 1.13788 31.0614 1.18615 31.1125 1.28618 31.1057 1.30343 30.9593 1.49312 30.8197 1.66901 29.9073 2.48987 29.3251 2.96583 29.2536 3.02447 28.9165 3.31417 28.5727 3.61078 28.2288 3.90741 27.902 4.19021 27.8441 4.2385 27.7896 4.2868 27.7182 4.34541 27.6943 4.36956 27.6671 4.39371 27.5343 4.50752 27.4015 4.62133 26.1929 5.64913 26.2746 5.56291 26.2269 5.84917 26.1759 6.14578 26.0635 6.2941 25.8456 6.35962 25.6039 6.43206 25.4269 6.55622 25.2192 6.80109 25.1102 6.93214 24.9332 7.13218 24.8242 7.24946 24.7153 7.36673 24.6268 7.49089 24.6268 7.52882 24.6268 7.57021 24.8889 7.90477 25.2634 8.3359 26.0295 9.22227 26.4721 9.72238 26.4993 9.73618 26.5095 9.73962 26.5129 9.79826 26.5061 9.86378 26.4925 9.96381 26.5061 9.98796 26.5708 10.0155 26.6185 10.0328 26.6866 10.0328 26.7308 10.0155 26.7751 9.9983 26.85 9.98449 26.8976 9.98449 26.9896 9.98449 26.9896 9.97415 26.9317 10.3466 26.9283 10.3673 26.9759 10.3777 27.0372 10.3708 27.1564 10.3639 27.17 10.388 27.0951 10.488 27.0679 10.5225 27.044 10.6019 27.044 10.6605 27.044 10.7502 27.1087 10.8329 27.439 11.1847 27.9837 11.7642 28.6953 12.4091 29.1957 12.7747 29.4238 12.9472 29.6349 13.1024 29.6587 13.1231 29.7371 13.192 30.1082 13.3956 30.1116 13.3714 30.115 13.3576 30.115 13.3335 30.1116 13.3197 30.1082 13.3024 30.1218 13.3024 30.1422 13.3128 30.1626 13.3266 30.1728 13.3576 30.1626 13.3852 30.1422 13.4404 30.6427 13.7542 30.7142 13.7266 30.7346 13.7197 30.755 13.7301 30.755 13.7542 30.755 13.7956 31.3849 14.1233 31.4632 14.1233 31.4836 14.1233 31.504 14.1371 31.5109 14.1509 31.5211 14.1785 31.9739 14.3682 32.3041 14.4854 32.3994 14.5165 32.505 14.5578 32.5424 14.5717 32.6514 14.6199 32.9033 14.7027 33.1042 14.7613 33.557 14.8958 33.6659 14.92 33.6761 14.882 33.6932 14.8303 33.751 14.8407 33.751 14.8993 33.751 14.9269 33.7613 14.951 33.7783 14.951 33.7919 14.9545 33.8634 14.9683 33.9383 14.9821 34.0132 14.9993 34.1971 15.0372 34.3469 15.0683 34.8644 15.1752 35.1435 15.258 35.3274 15.3511L35.4329 15.4097 35.358 15.4684C35.3172 15.5029 35.2831 15.5477 35.2831 15.5684 35.2831 15.6236 35.0788 15.6132 35.0584 15.5581 35.0346 15.4925 34.9052 15.4615 34.8507 15.5098 34.8167 15.5374 34.7929 15.5339 34.7622 15.496 34.7384 15.4615 34.5443 15.4029 34.2788 15.3477 34.037 15.2959 33.8021 15.2407 33.7579 15.2235 33.7136 15.2063 33.6421 15.1925 33.5979 15.1925 33.5536 15.1925 33.5059 15.1752 33.4923 15.1545 33.4821 15.1338 33.4344 15.1269 33.3902 15.1373 33.3459 15.1511 33.3085 15.1442 33.3085 15.1269 33.3085 15.0786 32.2973 14.7682 32.2428 14.8027 32.2292 14.8131 32.1952 14.7958 32.1747 14.7682 32.1509 14.7406 31.9807 14.6613 31.7934 14.5923 31.6062 14.5199 31.4257 14.4475 31.3917 14.4302 31.3576 14.413 31.3134 14.4061 31.2929 14.4199 31.2759 14.4337 31.2487 14.4268 31.2351 14.4095 31.218 14.3785 31.058 14.3026 30.4146 14.0095 30.0639 13.8508 29.6826 13.6611 29.4953 13.5507 29.3932 13.4921 29.1855 13.3783 29.0357 13.2955 28.3412 12.9127 28.2288 12.8506 28.1641 12.792 28.1369 12.7644 28.0926 12.7437 28.0722 12.7437 28.0484 12.7437 28.0314 12.7299 28.0314 12.7092 28.0314 12.6919 28.0177 12.6747 27.9973 12.6747 27.9496 12.6747 27.347 12.2815 26.3665 11.6055 26.2303 11.5124 26.101 11.4331 26.0874 11.4331 26.0703 11.4331 26.0567 11.4193 26.0567 11.4055 26.0567 11.371 25.6584 11.0882 25.6107 11.0882 25.5937 11.0882 25.5801 11.0744 25.5801 11.0571 25.5801 11.0089 25.1749 10.7019 25.1375 10.726 25.1205 10.7364 25.1034 10.726 25.1034 10.7019 25.1 10.6777 25.0047 10.5846 24.8889 10.4949 24.7732 10.4087 24.3034 10.0397 23.8471 9.67755 23.3909 9.3154 23.0062 9.0188 22.9926 9.0188 22.9824 9.0188 22.6828 9.29816 22.3287 9.63959 21.9065 10.0431 21.6716 10.2466 21.6512 10.2259 21.5525 10.1259 21.7057 9.68099 22.1619 8.72563 22.2436 8.55662 22.3117 8.38417 22.3117 8.34624 22.3117 8.30141 22.0836 8.05651 21.658 7.63919 21.2971 7.29085 20.5515 6.56312 20.0034 6.02162 19.4518 5.47668 18.965 5.01107 18.9207 4.98348 18.8765 4.95589 18.839 4.9214 18.839 4.9076 18.839 4.83518 18.5632 4.89035 18.3453 5.00072 17.8551 5.25596 17.5691 5.52498 16.4694 6.76316 15.9962 7.29775 15.9417 7.37708 15.7238 7.82545 15.6013 8.07376 15.4583 8.3359 15.4072 8.40488 15.1723 8.72563 15.0735 8.84288 15.0089 8.87393 14.8693 8.93945 14.5935 9.22571 14.4982 9.40507 14.3858 9.61547 14.093 10.0535 13.8785 10.3294 13.7968 10.4329 13.5551 10.7536 13.3372 11.0364 12.8197 11.7159 12.6018 11.9366 12.132 12.2539 11.9175 12.3988 11.7371 12.5298 11.7302 12.5436 11.7234 12.5609 11.703 12.5712 11.6826 12.5712 11.6622 12.5712 11.4987 12.6713 11.3183 12.792 10.7463 13.1748 9.97008 13.6922 9.93603 13.7094 9.91901 13.7197 9.7726 13.8129 9.61259 13.9163 9.45258 14.0233 9.22448 14.1612 9.10191 14.2233 8.97934 14.2888 8.85677 14.3612 8.82954 14.3854 8.80231 14.4095 8.76485 14.4302 8.74443 14.4302 8.72741 14.4337 8.54356 14.5165 8.33588 14.6199 8.1316 14.7234 7.8286 14.8683 7.66517 14.9476 7.50176 15.0269 7.36217 15.1028 7.34854 15.1235 7.33833 15.1407 7.30771 15.1476 7.28045 15.1338 7.24641 15.1235 7.22939 15.1373 7.22939 15.1752 7.22939 15.2063 7.21237 15.22 7.19534 15.2097 7.17493 15.1959 7.04215 15.2442 6.89574 15.3166 6.52124 15.4994 6.14333 15.6753 6.1229 15.6753 6.1161 15.6753 5.99693 15.727 5.86075 15.7926 5.72458 15.8581 5.47604 15.9685 5.3058 16.0375 5.13897 16.1064 4.91427 16.203 4.81214 16.2513 4.57383 16.3617 4.53977 16.3755 4.23337 16.4893 4.09378 16.5376 3.95418 16.6134 3.92356 16.6514 3.88949 16.6928 3.86226 16.7066 3.85545 16.679 3.84524 16.6514 3.67841 16.679 3.2937 16.779 2.9907 16.8549 2.69789 16.917 2.64682 16.917 2.59236 16.917 2.50383 16.9411 2.45277 16.9687 2.4017 16.9963 2.33701 17.0101 2.30978 16.9963 2.21444 16.9618 1.9523 17.0204 1.9523 17.079 1.9523 17.1204 1.93188 17.1273 1.86037 17.1067 1.73099 17.0687 1.50289 17.0687 0.396397 17.1032-0.321965 17.1273-0.567085 17.1239-0.567085 17.0928Z" fill-rule="evenodd" transform="matrix(1 0 0 -1 288 391)"/></g></svg>