<?xml version="1.0" standalone="no"?>
<!DOCTYPE svg PUBLIC "-//W3C//DTD SVG 20010904//EN"
 "http://www.w3.org/TR/2001/REC-SVG-20010904/DTD/svg10.dtd">
<svg version="1.0" xmlns="http://www.w3.org/2000/svg"
 width="345.000000pt" height="174.000000pt" viewBox="0 0 345.000000 174.000000"
 preserveAspectRatio="xMidYMid meet">

<g transform="translate(0.000000,174.000000) scale(0.100000,-0.100000)"
fill="#000000" stroke="none">
<path d="M2919 1371 c-59 -19 -69 -29 -69 -76 0 -45 0 -45 34 -45 30 0 35 4
38 26 4 37 32 54 54 32 28 -28 9 -67 -67 -139 -57 -54 -69 -71 -69 -97 l0 -32
125 0 125 0 0 55 0 55 -34 0 c-25 0 -35 -5 -39 -20 -4 -15 -14 -20 -37 -20
l-32 0 55 53 c58 55 79 101 69 152 -9 50 -82 77 -153 56z"/>
<path d="M530 1236 c0 -39 3 -45 23 -48 22 -3 22 -3 22 -198 0 -195 0 -195
-22 -198 -20 -3 -23 -9 -23 -48 l0 -44 230 0 230 0 0 90 0 90 -55 0 c-51 0
-55 -2 -55 -24 0 -36 -22 -47 -82 -44 l-53 3 -3 63 -3 62 91 0 90 0 0 55 0 54
-87 3 -88 3 -3 58 -3 57 54 0 c55 0 77 -12 77 -42 0 -15 9 -18 55 -18 l55 0 0
85 0 85 -225 0 -225 0 0 -44z"/>
<path d="M1080 1085 l0 -65 230 0 230 0 0 65 0 65 -230 0 -230 0 0 -65z"/>
<path d="M1884 1119 c-17 -5 -39 -18 -49 -29 -23 -25 -35 -25 -35 0 0 18 -7
20 -62 20 -35 0 -80 -3 -100 -6 -36 -6 -38 -8 -38 -45 0 -31 4 -38 23 -41 21
-3 22 -7 22 -113 0 -106 -1 -110 -22 -113 -20 -3 -23 -9 -23 -48 l0 -44 125 0
125 0 0 45 c0 38 -3 45 -20 45 -19 0 -20 7 -20 94 0 100 10 126 50 126 32 0
40 -33 40 -174 l0 -136 105 0 105 0 0 44 c0 39 -3 45 -22 48 -21 3 -23 9 -26
83 -3 94 10 128 51 133 39 5 47 -26 47 -179 l0 -129 100 0 100 0 0 45 c0 38
-3 45 -20 45 -19 0 -20 7 -20 113 0 120 -18 185 -57 205 -61 32 -153 16 -192
-34 l-18 -23 -21 29 c-13 17 -38 33 -59 39 -43 12 -47 12 -89 0z"/>
<path d="M2560 1119 c-92 -28 -143 -104 -144 -214 -1 -95 30 -158 94 -193 39
-21 55 -23 125 -20 49 3 93 11 113 21 30 17 32 21 32 72 0 30 -1 55 -2 55 -2
0 -21 -7 -43 -15 -67 -24 -112 -19 -146 14 -25 25 -29 37 -29 84 0 62 27 107
64 107 31 0 46 -19 46 -57 l0 -33 55 0 55 0 0 78 0 79 -42 12 c-59 18 -137 22
-178 10z"/>
<path d="M1080 885 l0 -65 230 0 230 0 0 65 0 65 -230 0 -230 0 0 -65z"/>
</g>
</svg>
