<?xml version="1.0" standalone="no"?>
<!DOCTYPE svg PUBLIC "-//W3C//DTD SVG 20010904//EN"
 "http://www.w3.org/TR/2001/REC-SVG-20010904/DTD/svg10.dtd">
<svg version="1.0" xmlns="http://www.w3.org/2000/svg"
 width="70.000000pt" height="50.000000pt" viewBox="0 0 70.000000 50.000000"
 preserveAspectRatio="xMidYMid meet">

<g transform="translate(0.000000,50.000000) scale(0.100000,-0.100000)"
fill="#000000" stroke="none">
<path d="M355 443 c-111 -14 -173 -29 -233 -58 -89 -42 -102 -67 -102 -197 0
-51 -4 -110 -9 -130 -7 -28 -5 -38 5 -42 28 -11 412 -19 537 -11 105 6 127 10
123 21 -3 8 -9 82 -12 165 -7 143 -9 153 -33 182 -39 46 -115 77 -186 75 -33
0 -73 -3 -90 -5z m53 -105 c7 -7 12 -27 12 -45 0 -31 -2 -33 -35 -33 -32 0
-35 2 -35 29 0 27 21 61 39 61 4 0 12 -5 19 -12z m-88 -48 c0 -22 -6 -29 -25
-32 -23 -5 -25 -2 -25 33 0 39 15 54 38 36 6 -5 12 -22 12 -37z m184 17 c7
-18 6 -31 -1 -38 -16 -16 -53 -1 -53 21 0 54 37 66 54 17z m-264 -27 c0 -19
-6 -29 -19 -33 -11 -3 -22 -2 -25 1 -10 10 -6 58 6 70 17 17 38 -4 38 -38z
m334 34 c3 -9 6 -27 6 -41 0 -32 -34 -28 -38 5 -6 44 18 71 32 36z m66 -45 c0
-19 -5 -29 -15 -29 -15 0 -22 50 -9 63 12 12 24 -4 24 -34z m-474 7 c7 -29 -1
-46 -22 -46 -9 0 -14 10 -14 28 0 47 25 59 36 18z m-66 -25 c0 -17 -4 -33 -10
-36 -6 -4 -10 8 -10 29 0 20 5 36 10 36 6 0 10 -13 10 -29z m-40 -32 c0 -10
-4 -19 -10 -19 -5 0 -10 12 -10 26 0 14 4 23 10 19 6 -3 10 -15 10 -26z m348
-1 c7 -7 12 -29 12 -51 0 -37 -1 -38 -32 -35 -29 3 -33 7 -36 34 -2 19 3 38
13 48 20 19 27 20 43 4z m92 -44 c0 -40 -2 -44 -25 -44 -23 0 -25 4 -25 44 0
27 5 46 13 49 26 9 37 -6 37 -49z m-182 -2 c3 -42 2 -43 -25 -40 -32 3 -42 33
-23 68 19 36 45 21 48 -28z m-84 22 c3 -9 6 -27 6 -40 0 -19 -5 -24 -25 -24
-20 0 -25 5 -25 24 0 34 10 56 25 56 7 0 16 -7 19 -16z m352 -9 c8 -34 -1 -55
-26 -55 -16 0 -20 6 -20 33 0 19 3 37 7 40 14 15 33 6 39 -18z m-418 -40 c-2
-11 -11 -21 -20 -23 -14 -3 -18 4 -18 31 0 18 3 37 7 41 11 11 34 -26 31 -49z
m480 6 c3 -27 0 -32 -15 -29 -19 3 -28 30 -19 54 10 26 31 10 34 -25z m-548
-6 c0 -19 -4 -35 -10 -35 -5 0 -10 16 -10 35 0 19 5 35 10 35 6 0 10 -16 10
-35z m-40 -16 c0 -10 -4 -19 -10 -19 -5 0 -10 12 -10 26 0 14 4 23 10 19 6 -3
10 -15 10 -26z m248 -41 c7 -7 12 -25 12 -40 0 -23 -4 -28 -25 -28 -31 0 -42
23 -27 56 13 27 22 30 40 12z m100 0 c7 -7 12 -25 12 -40 0 -25 -3 -28 -35
-28 -29 0 -35 4 -35 21 0 47 32 73 58 47z m90 -31 c3 -34 1 -37 -22 -37 -23 0
-26 4 -26 33 0 38 7 49 30 45 9 -2 16 -16 18 -41z m-330 -17 c-2 -8 -10 -15
-18 -15 -17 0 -25 28 -15 53 6 15 8 15 21 -3 8 -11 13 -26 12 -35z m70 12 c3
-29 1 -32 -22 -32 -19 0 -26 5 -26 19 0 58 43 70 48 13z m338 14 c7 -31 -1
-46 -27 -46 -14 0 -19 7 -19 28 0 48 35 61 46 18z m72 -9 c3 -22 -1 -27 -17
-27 -21 0 -26 15 -15 45 9 23 29 13 32 -18z m-548 -2 c0 -14 -4 -25 -10 -25
-5 0 -10 11 -10 25 0 14 5 25 10 25 6 0 10 -11 10 -25z m-48 -17 c-9 -9 -12
-7 -12 12 0 19 3 21 12 12 9 -9 9 -15 0 -24z"/>
</g>
</svg>
