<svg width="37" height="25" xmlns="http://www.w3.org/2000/svg" xmlns:xlink="http://www.w3.org/1999/xlink" overflow="hidden"><defs><clipPath id="clip0"><rect x="796" y="368" width="37" height="25"/></clipPath></defs><g clip-path="url(#clip0)" transform="translate(-796 -368)"><path d="M19.7716 22.1425C19.6823 22.1392 19.4707 22.1196 19.3022 22.1 19.1369 22.0837 18.8459 22.0576 18.6575 22.0478 18.122 22.0184 16.5087 21.8617 16.1947 21.8095 16.0889 21.7931 15.8476 21.7605 15.6559 21.7409 15.4674 21.7213 15.2988 21.6952 15.2856 21.6886 15.2724 21.6788 15.084 21.6527 14.8724 21.6266 14.6575 21.6005 14.3798 21.558 14.2509 21.5319 14.1253 21.5058 13.8641 21.4536 13.6724 21.4176 13.4807 21.3817 13.2063 21.3262 13.0608 21.3001 12.9154 21.2707 12.6806 21.225 12.5385 21.2022 12.3964 21.176 12.2575 21.1401 12.2245 21.1238 12.1947 21.1107 12.0691 21.0781 11.9435 21.0585 11.8211 21.0389 11.679 21.0063 11.6327 20.9867 11.5831 20.9671 11.4377 20.9312 11.3088 20.9083 11.0641 20.8561 10.7104 20.7614 10.2178 20.6144 10.0559 20.5655 9.85421 20.5067 9.77157 20.4838 9.4476 20.3892 9.17322 20.2978 8.71371 20.141 8.44926 20.0496 8.18147 19.9582 8.11868 19.9386 8.05586 19.9223 7.98643 19.8929 7.96991 19.8798 7.95008 19.8635 7.87735 19.8309 7.80463 19.8047 7.57983 19.7264 7.08397 19.5239 6.94513 19.4586 6.50544 19.2497 5.83107 18.9134 5.68891 18.8318 5.59965 18.7828 5.48066 18.7175 5.42446 18.6881 5.37156 18.662 5.29554 18.6195 5.26248 18.5967 5.2261 18.5771 5.11702 18.5085 5.02115 18.4497 4.82611 18.3322 4.83603 18.3485 4.78312 17.8653 4.74347 17.4865 4.71701 17.431 4.53188 17.3037 4.45916 17.2547 4.28065 17.1339 4.13519 17.036 3.98974 16.938 3.80463 16.8107 3.72529 16.7519 3.58313 16.6507 3.41453 16.6148 3.37486 16.6768 3.36495 16.6931 3.30875 16.716 3.24925 16.7291 3.19305 16.7389 3.03768 16.7878 2.90544 16.8335 2.77321 16.8792 2.6476 16.9086 2.62114 16.8988 2.58479 16.8858 2.19801 16.3503 2.00297 16.0434 1.97653 16.001 1.85422 15.8214 1.7352 15.6451 1.61619 15.4688 1.47073 15.2369 1.41453 15.1292 1.14677 14.6133 1.16661 14.708 1.11041 13.7089 1.09057 13.3759 1.06742 13.0396 1.06083 12.9579 1.05421 12.8763 1.03769 12.5237 1.02775 12.1743 1.01784 11.825 1.00131 11.4364 0.994695 11.3091 0.94843 10.643 0.878999 9.31415 0.862471 8.81135 0.852559 8.49791 0.829415 8.08324 0.812887 7.89059 0.796359 7.69797 0.7666 7.12332 0.746775 6.61724 0.726929 6.1079 0.697191 5.47447 0.680663 5.20347 0.660817 4.93575 0.640992 4.60271 0.631058 4.46885 0.621145 4.33497 0.598002 3.80605 0.581474 3.29669 0.561649 2.78735 0.541802 2.35963 0.535208 2.34984 0.528593 2.34005 0.512065 2.09517 0.50213 1.80785 0.469074 0.985047 0.465777 0.975256 0.274035 0.929536 0.221154 0.916489 0.115371 0.841397 0.032709 0.75977-0.109428 0.612842-0.112746 0.603051-0.112746 0.400613-0.112746 0.240616-0.102812 0.19164-0.0664591 0.19164-0.0400186 0.19164 0.012884 0.149199 0.0492587 0.0969664 0.158339-0.0532394 0.379819-0.125054 0.862471-0.167517 1.10048-0.187098 1.35172-0.216493 1.42445-0.232818 1.49717-0.249143 1.78149-0.278516 2.05255-0.298119 2.32694-0.317701 2.7633-0.353608 3.02777-0.379746 3.29222-0.402584 3.69223-0.435235 3.92033-0.445026 4.14842-0.454838 4.50544-0.477676 4.71371-0.494002 5.32527-0.542978 5.55669-0.556046 6.11868-0.575628 6.40957-0.585441 6.90875-0.608279 7.2261-0.624604 8.21123-0.676858 9.35173-0.7193 10.317-0.738881 10.8261-0.748694 11.7649-0.77481 12.3997-0.794392 14.3302-0.859693 26.7468-0.840111 26.8592-0.77481 26.8691-0.768276 27.4608-0.75195 28.1683-0.742159 29.6294-0.716043 31.4741-0.663789 31.6724-0.64093 31.7451-0.631139 32.3633-0.601766 33.0443-0.575628 33.7253-0.546256 34.3071-0.516861 34.3336-0.510327 34.36-0.503814 34.6278-0.480954 34.9286-0.461351 35.5236-0.418909 35.5567-0.409119 35.765-0.193633 35.8807-0.0695647 35.8873-0.0499615 35.8873 0.145942 35.8873 0.279801 35.874 0.354894 35.8509 0.354894 35.8311 0.354894 35.7551 0.41366 35.6823 0.48224 35.6129 0.554075 35.5104 0.622633 35.4542 0.632424 35.4013 0.645493 35.3451 0.678144 35.3286 0.707516 35.3121 0.740167 35.2955 0.985047 35.2955 1.25279 35.2922 1.52378 35.2823 1.82417 35.2757 1.92212 35.2493 2.21924 35.1964 3.58403 35.1765 4.41988 35.1666 4.85085 35.1501 5.29817 35.1435 5.4157 35.1038 6.00016 35.0575 6.99598 35.0278 7.83183 34.9782 9.3468 34.8493 9.86921 34.4162 10.2969 34.3038 10.4079 33.9302 10.6398 33.8641 10.6398 33.8476 10.6398 33.7848 10.6594 33.7286 10.6855 33.5964 10.7475 33.1699 10.8879 32.9947 10.9304 32.922 10.9467 32.7897 10.9858 32.6972 11.0152 32.3765 11.1165 31.9666 11.2307 31.2757 11.4103 31.0939 11.4593 30.8592 11.5246 30.7534 11.5572 30.6509 11.5932 30.5385 11.6193 30.5088 11.6193 30.479 11.6193 30.3567 11.6487 30.2377 11.6813 30.0063 11.7499 29.7088 11.8282 29.4079 11.9001 29.1864 11.9523 28.9054 12.0241 28.598 12.1058 28.4724 12.1417 28.2939 12.1874 28.2013 12.207 28.1121 12.2298 27.9798 12.2658 27.9104 12.2821 27.8179 12.3115 27.7617 12.3082 27.679 12.2755 27.4707 12.1939 27.4509 12.1972 27.2129 12.3865 26.955 12.589 26.9418 12.5923 26.3666 12.5335 25.8179 12.4747 25.2724 12.4388 25.2228 12.4584 25.1732 12.478 25.0443 12.6967 25.0443 12.7653 25.0443 12.7849 25.0211 12.8469 24.9947 12.9024 24.9683 12.9612 24.922 13.0722 24.8922 13.1538 24.76 13.5163 24.7269 13.5979 24.7038 13.6338 24.6906 13.6567 24.6509 13.7513 24.6179 13.846 24.5848 13.9407 24.522 14.1007 24.4823 14.1987 24.4426 14.2966 24.3798 14.4566 24.3468 14.5513 24.3137 14.646 24.274 14.7407 24.2608 14.7635 24.2476 14.7831 24.2112 14.868 24.1815 14.9496 24.1517 15.0312 24.0922 15.201 24.046 15.3251 23.9666 15.5373 23.96 15.6059 23.9402 16.3536 23.9269 16.7944 23.9038 17.2972 23.8873 17.4767 23.8641 17.7608 23.8509 17.8065 23.7683 17.8914 23.7187 17.9436 23.6559 17.9861 23.6294 17.9861 23.603 17.9861 23.5203 18.0155 23.4443 18.0481 23.3683 18.084 23.2393 18.1428 23.1534 18.1787 22.9848 18.2473 22.9617 18.2799 22.403 19.1289 22.241 19.3705 21.9666 19.7917 21.7881 20.0594 21.4178 20.6177 21.0212 21.2217 20.9286 21.3654 20.8922 21.4209 20.8129 21.5646 20.7534 21.6886 20.6906 21.816 20.6046 21.9727 20.5616 22.0413L20.4823 22.1653 20.2079 22.1588C20.0592 22.1555 19.8641 22.149 19.7716 22.1425ZM20.6972 16.9217C21.1236 16.8629 21.636 16.4776 21.8575 16.0499 22.0327 15.7071 22.0426 15.6255 22.0559 14.166 22.0625 13.3726 22.0559 12.7914 22.036 12.762 22.0129 12.7261 21.8311 12.7065 21.1534 12.6739 19.6559 12.6053 18.6773 12.5857 18.6509 12.6249 18.6377 12.6445 18.6278 13.2812 18.6311 14.0419 18.6311 15.5667 18.6443 15.6777 18.836 16.0597 19.0641 16.5038 19.5864 16.8727 20.079 16.938 20.2972 16.9674 20.3699 16.9641 20.6972 16.9217ZM15.7451 16.3732C16.2278 16.2458 16.6906 15.7006 16.7798 15.152 16.7964 15.0541 16.8129 14.4305 16.8162 13.7644 16.8195 12.7065 16.8129 12.5498 16.7666 12.5172 16.7402 12.4943 16.4162 12.4617 16.0129 12.4388 15.6261 12.4159 15.236 12.3865 15.1435 12.3702 15.0542 12.3572 14.8294 12.3343 14.6476 12.3245 14.4658 12.3115 14.2476 12.2951 14.165 12.2853 14.0625 12.2723 14.003 12.2821 13.9864 12.3049 13.9732 12.3278 13.9633 12.9547 13.9666 13.7056 13.9732 14.979 13.9765 15.0769 14.0426 15.2892 14.1286 15.57 14.2311 15.7528 14.4228 15.9618 14.7897 16.3666 15.2393 16.507 15.7451 16.3732ZM11.5964 15.8214C11.9269 15.6744 12.1848 15.3512 12.3369 14.8843 12.4162 14.6394 12.4162 14.6362 12.4096 13.3497L12.3997 12.0601 12.1683 12.0241C11.7286 11.9523 11.3088 11.8805 10.9616 11.8119 10.7699 11.776 10.5418 11.7303 10.4559 11.714 10.1881 11.665 10.1418 11.6715 10.1187 11.776 10.1088 11.8282 10.1088 12.4976 10.1187 13.2649 10.1352 14.6525 10.1352 14.6656 10.2211 14.9039 10.3302 15.2173 10.4393 15.4067 10.6178 15.5896 10.9054 15.8801 11.2658 15.965 11.5964 15.8214ZM7.94017 14.7537C8.08892 14.6623 8.29058 14.4141 8.38313 14.215 8.55505 13.8395 8.58478 13.6044 8.60463 12.4747 8.61784 11.6683 8.61454 11.4136 8.58148 11.3744 8.5352 11.3189 8.35339 11.2634 7.77157 11.1295 7.53686 11.074 7.27239 11.0087 7.18643 10.9793 7.10379 10.9532 6.9848 10.9336 6.92198 10.9402L6.81288 10.9499 6.81288 12.2233C6.81288 13.3432 6.8195 13.5293 6.87569 13.7709 6.90875 13.9244 6.95504 14.0778 6.97818 14.1138 7.00133 14.1529 7.03106 14.2182 7.04429 14.264 7.07735 14.3717 7.31536 14.659 7.44099 14.7472 7.57321 14.8386 7.79471 14.8386 7.94017 14.7537ZM4.82279 13.4803C4.94513 13.3856 5.07074 13.144 5.16661 12.8273 5.24925 12.5563 5.25254 12.5237 5.25586 11.5213L5.25916 10.4928 5.14346 10.4406C5.00792 10.3786 4.76991 10.2969 4.51536 10.2251 4.41619 10.199 4.31702 10.1631 4.29388 10.1435 4.27405 10.1272 4.21453 10.1173 4.16165 10.1239L4.06908 10.1337 4.05917 10.9989C4.05587 11.4756 4.06578 12.0405 4.08231 12.256 4.11207 12.6478 4.21453 13.0885 4.30379 13.1898 4.33025 13.2159 4.35008 13.2583 4.35008 13.2844 4.35008 13.353 4.57817 13.5456 4.66081 13.5456 4.7038 13.5456 4.77653 13.5163 4.82279 13.4803ZM2.47569 11.7564C2.52527 11.7074 2.56494 11.6454 2.56494 11.6258 2.56494 11.603 2.59141 11.5311 2.62776 11.4626 2.71372 11.2928 2.79636 10.7083 2.8195 10.1141L2.83933 9.60147 2.7104 9.52313C2.64099 9.47741 2.54512 9.43171 2.49883 9.41864 2.45254 9.40557 2.31041 9.35008 2.17818 9.29457 1.83769 9.1509 1.83769 9.1509 1.84099 9.77126 1.84428 10.6887 1.92033 11.2699 2.08561 11.6095 2.21124 11.8674 2.32694 11.9099 2.47569 11.7564ZM20.7997 10.7083C21.3154 10.5386 21.6559 10.2186 21.8906 9.69291L21.9864 9.48068 21.9964 7.79264C22.0063 6.59112 21.9964 6.08829 21.9699 6.03932 21.9336 5.97076 21.9269 5.97076 20.2741 5.9773L18.6145 5.98709 18.6046 7.69797C18.598 9.35659 18.598 9.41864 18.6641 9.60801 18.7038 9.71575 18.7732 9.86921 18.8228 9.95084 18.9154 10.1108 19.3385 10.5418 19.398 10.5418 19.4179 10.5418 19.4608 10.5614 19.4873 10.5875 19.5468 10.6365 19.8377 10.7345 20.036 10.7736 20.2344 10.8128 20.5782 10.7834 20.7997 10.7083ZM25.2955 10.7018C25.4212 10.6626 25.5468 10.6136 25.5765 10.5875 25.603 10.5614 25.6426 10.5418 25.6592 10.5418 25.6988 10.5418 25.9964 10.2349 26.0889 10.101 26.1253 10.0488 26.1749 9.95084 26.2013 9.8888 26.2245 9.82677 26.2575 9.76147 26.2707 9.74187 26.3468 9.6374 26.3666 9.21948 26.3666 7.64573L26.3666 5.97076 26.2939 5.95444C26.2509 5.94464 25.6162 5.94137 24.879 5.94464L23.5402 5.95444 23.5302 7.69471C23.5236 9.18355 23.5302 9.44803 23.5732 9.54924 23.5997 9.61454 23.6228 9.68638 23.6228 9.71249 23.6228 9.81045 23.7782 10.0782 23.9666 10.2969 24.1881 10.5614 24.6013 10.7606 24.9319 10.7671 25.0079 10.7704 25.1732 10.741 25.2955 10.7018ZM15.8344 10.4112C16.1055 10.2937 16.3501 10.0684 16.5154 9.79084 16.7699 9.35987 16.7633 9.41538 16.7633 7.58695L16.7633 5.95444 16.2013 5.93485C14.7964 5.8826 13.9732 5.87281 13.9534 5.90872 13.9402 5.92832 13.9335 6.6858 13.9335 7.59022L13.9402 9.23906 14.0261 9.47415C14.0757 9.60475 14.1517 9.76801 14.1947 9.83982 14.3302 10.0553 14.6013 10.2937 14.8294 10.4047 15.0178 10.4928 15.0807 10.5059 15.3319 10.5059 15.5798 10.5092 15.646 10.4961 15.8344 10.4112ZM11.6294 9.87247C11.9468 9.69617 12.198 9.32722 12.3203 8.86358 12.3732 8.65788 12.3798 8.47505 12.3831 7.2376 12.3864 6.47031 12.3798 5.83037 12.3699 5.81404 12.36 5.79772 12.1848 5.77486 11.9798 5.76179 11.7749 5.74874 11.5005 5.72588 11.3683 5.70956 10.9187 5.65405 10.1154 5.63121 10.0856 5.67365 10.0724 5.69651 10.0625 6.35603 10.0658 7.13965 10.0691 8.28568 10.079 8.61219 10.122 8.80807 10.1484 8.9452 10.1848 9.06927 10.198 9.08888 10.2145 9.1052 10.2377 9.15743 10.2509 9.20315 10.3335 9.4872 10.6972 9.84963 11.0112 9.96063 11.1468 10.0096 11.4674 9.96391 11.6294 9.87247ZM30.0427 9.87247C30.36 9.69617 30.6112 9.32069 30.7402 8.83093 30.803 8.58933 30.8096 8.48158 30.8129 7.58695L30.8129 6.60745 30.6146 6.61724C30.5055 6.6205 30.2377 6.65315 30.0195 6.6858 29.6724 6.74131 29.398 6.78049 28.9022 6.84252 28.7402 6.86538 28.6707 6.95679 28.6013 7.23432 28.5683 7.35839 28.5286 7.5086 28.5088 7.57062 28.4526 7.73715 28.4724 8.51749 28.5385 8.81135 28.6608 9.38273 28.9914 9.80717 29.4245 9.96063 29.56 10.0096 29.8807 9.96391 30.0427 9.87247ZM7.94676 9.08234C8.22114 8.88318 8.43271 8.43912 8.50214 7.91673 8.56496 7.45309 8.56496 5.56916 8.50544 5.51693 8.45586 5.47775 7.9005 5.39937 7.44099 5.36672 7.27901 5.35368 7.07735 5.33082 6.99801 5.31449 6.75338 5.26224 6.7633 5.20021 6.7633 6.6205 6.7633 7.80245 6.76661 7.90366 6.83273 8.16161 6.8724 8.3118 6.95172 8.53056 7.01124 8.64809 7.12364 8.86686 7.35835 9.11825 7.47404 9.14764 7.60297 9.18355 7.85751 9.14764 7.94676 9.08234ZM33.4179 9.12478C33.6393 9.03011 33.8509 8.73625 33.9931 8.32484 34.0757 8.07998 34.0757 8.06366 34.0922 6.78049 34.1022 6.06546 34.0988 5.44182 34.0889 5.39612 34.0658 5.30796 34.0658 5.30796 33.8278 5.33082 33.6955 5.34386 33.4344 5.36672 33.2426 5.38305 32.7071 5.43203 32.4129 5.47775 32.36 5.51693 32.3236 5.54958 32.317 5.74221 32.3203 6.58785 32.3269 7.77306 32.3468 8.05385 32.4526 8.37056 32.5319 8.60565 32.7104 8.90276 32.8493 9.03011 33.0046 9.1705 33.2228 9.20641 33.4179 9.12478ZM4.79306 8.28568C4.89552 8.20405 5.11041 7.80245 5.11041 7.69143 5.11041 7.64573 5.13355 7.54778 5.16329 7.46941 5.24263 7.26372 5.25254 5.16103 5.17652 5.11859 5.09388 5.07615 4.41289 4.97819 4.20132 4.97492L4.00297 4.97492 4.00297 6.00341C4.00297 7.22779 4.04925 7.59348 4.24097 7.98855 4.41951 8.3477 4.5947 8.43912 4.79306 8.28568ZM2.46248 7.42044C2.57817 7.27351 2.69719 6.84252 2.72693 6.44745 2.74345 6.24829 2.75339 5.77811 2.75007 5.39937L2.74677 4.71371 2.66413 4.69087C2.61785 4.68106 2.43602 4.63862 2.2575 4.59946 1.77487 4.49823 1.80461 4.45253 1.80461 5.31121 1.80793 6.23197 1.84428 6.74456 1.93686 7.04823 2.09222 7.5543 2.26082 7.67511 2.46248 7.42044ZM25.4972 4.04765C25.8212 3.88768 26.0724 3.60361 26.2542 3.19548L26.3501 2.98325 26.3666 1.72622C26.3765 1.03402 26.3765 0.43652 26.3699 0.394079 26.3633 0.354894 26.3336 0.305918 26.3005 0.289592 26.241 0.256942 23.5666 0.23736 23.5336 0.266733 23.5236 0.276545 23.5203 0.857722 23.5203 1.55318 23.5269 2.78735 23.5302 2.82979 23.6063 3.07141 23.7683 3.60035 24.2278 4.06398 24.6641 4.1456 24.9253 4.19458 25.2889 4.15214 25.4972 4.04765ZM15.7121 4.02807C16.0426 3.93337 16.3732 3.65584 16.5418 3.33262 16.7633 2.9049 16.7633 2.91795 16.7633 1.51399L16.7633 0.240616 15.3914 0.234082C14.6377 0.227569 13.9997 0.23736 13.9732 0.253685 13.9038 0.296127 13.9203 2.75469 13.9897 2.94734 14.0162 3.01918 14.0526 3.12039 14.0691 3.16608 14.1121 3.30322 14.3137 3.59382 14.4525 3.72114 14.6377 3.89093 14.8063 3.97909 15.0575 4.04765 15.2922 4.1097 15.441 4.10316 15.7121 4.02807ZM20.7402 4.02479C21.355 3.87135 21.8939 3.28036 21.9732 2.67635 22.0195 2.32698 22.0096 0.309196 21.9633 0.263476 21.9104 0.211244 18.6476 0.207966 18.6145 0.26022 18.6013 0.276545 18.5947 0.838119 18.598 1.50746 18.6013 2.71225 18.6013 2.72532 18.684 2.94734 18.8922 3.51545 19.3584 3.93012 19.9203 4.04112 20.0195 4.06072 20.1319 4.08358 20.1683 4.09009 20.2608 4.1097 20.5319 4.0803 20.7402 4.02479ZM29.5236 3.78645C29.9567 3.55789 30.2344 3.07794 30.3005 2.44779 30.3402 2.0364 30.3435 0.488774 30.3038 0.423473 30.2774 0.384288 30.0691 0.371219 29.1699 0.351637 28.1517 0.325521 28.0658 0.328777 28.0261 0.38101 27.9897 0.426729 27.9831 0.652006 27.9964 1.53032 28.0096 2.58493 28.0129 2.63063 28.0922 2.85265 28.2906 3.42403 28.5385 3.70482 28.9782 3.86154 29.0774 3.89747 29.398 3.85503 29.5236 3.78645ZM11.5732 3.74075C11.7716 3.64605 12.0459 3.36199 12.1683 3.12692 12.2145 3.0355 12.2807 2.84611 12.317 2.70246 12.3798 2.46737 12.3831 2.35963 12.3765 1.36053L12.3666 0.273267 12.003 0.270011C11.8046 0.270011 11.3054 0.279801 10.8955 0.296127 10.3236 0.315709 10.1418 0.335312 10.1054 0.371219 10.0393 0.43652 10.0526 2.27475 10.122 2.63063 10.2211 3.15304 10.565 3.62973 10.9418 3.76686 11.1699 3.85175 11.3517 3.84196 11.5732 3.74075ZM33.398 3.61668C33.6228 3.53505 33.8509 3.21506 33.9864 2.80367 34.0757 2.53267 34.079 2.5033 34.0955 1.55969 34.1088 0.635681 34.1088 0.589983 34.0493 0.557332 34.0129 0.541007 33.722 0.518147 33.398 0.508356 32.8856 0.495287 32.803 0.498565 32.7501 0.547541 32.7137 0.576914 32.6079 0.746701 32.5121 0.92628L32.3336 1.25279 32.3303 1.67724C32.3203 2.59144 32.4195 2.97671 32.7732 3.4175 32.9418 3.62647 33.1732 3.70156 33.398 3.61668ZM7.92364 3.46975C8.11868 3.34894 8.22114 3.20527 8.39966 2.79062 8.50214 2.55228 8.55173 1.99394 8.54181 1.17116L8.5319 0.40387 7.69223 0.410404C7.12364 0.416938 6.83934 0.429986 6.80958 0.456123 6.77321 0.485496 6.7633 0.661818 6.76661 1.36379 6.76661 1.8405 6.77982 2.29759 6.79635 2.37921 6.89222 2.85592 7.01785 3.12364 7.26248 3.36527 7.49057 3.59054 7.679 3.62319 7.92364 3.46975ZM4.80627 3.19222C4.94513 3.05183 5.05751 2.81346 5.14676 2.46084 5.21619 2.19312 5.22281 2.08863 5.22281 1.35074L5.2261 0.534472 4.97818 0.534472C4.51206 0.53775 4.08893 0.586726 4.02941 0.642215 3.98314 0.687934 3.97982 0.776095 3.99635 1.36706 4.00626 1.76213 4.03602 2.16373 4.06908 2.34656 4.16165 2.86572 4.41619 3.29343 4.63107 3.29343 4.67075 3.29343 4.75007 3.24771 4.80627 3.19222ZM2.47901 2.85592C2.6509 2.56533 2.72033 2.20617 2.75007 1.42909 2.76992 0.874047 2.7666 0.821793 2.71372 0.766283 2.67073 0.72712 2.62446 0.714051 2.55835 0.72712 2.50874 0.73691 2.34346 0.756492 2.19139 0.766283 1.7947 0.798934 1.80461 0.789143 1.80461 1.16463 1.80793 1.97761 1.91042 2.59144 2.08893 2.87225 2.21454 3.07141 2.35338 3.06488 2.47901 2.85592Z" fill-rule="evenodd" transform="matrix(1 0 0 -1 797 391)"/></g></svg>