<?xml version="1.0" standalone="no"?>
<!DOCTYPE svg PUBLIC "-//W3C//DTD SVG 20010904//EN"
 "http://www.w3.org/TR/2001/REC-SVG-20010904/DTD/svg10.dtd">
<svg version="1.0" xmlns="http://www.w3.org/2000/svg"
 width="109.000000pt" height="97.000000pt" viewBox="0 0 109.000000 97.000000"
 preserveAspectRatio="xMidYMid meet">

<g transform="translate(0.000000,97.000000) scale(0.100000,-0.100000)"
fill="#000000" stroke="none">
<path d="M313 937 c-42 -22 -66 -41 -74 -60 -13 -31 -8 -121 12 -207 l13 -55
8 55 c15 105 19 117 48 163 29 42 84 77 124 77 7 0 31 7 52 16 48 20 34 29
-56 37 -59 5 -70 3 -127 -26z"/>
<path d="M510 896 c-83 -46 -99 -60 -127 -106 -18 -30 -33 -68 -34 -85 0 -16
-2 -37 -4 -46 -1 -9 1 -23 6 -30 14 -23 38 1 64 64 29 72 64 119 112 149 31
19 52 23 113 23 64 0 82 -4 122 -27 50 -30 86 -69 93 -102 2 -12 9 -47 15 -79
18 -90 34 -61 27 48 -6 100 -29 163 -70 189 -27 18 -165 56 -198 56 -13 -1
-67 -25 -119 -54z"/>
<path d="M555 792 c-16 -11 -42 -32 -57 -48 -36 -39 -80 -129 -76 -156 5 -32
50 -60 105 -65 l49 -5 61 70 c72 84 87 127 53 154 -23 18 -85 25 -94 10 -3 -5
8 -6 24 -4 31 4 70 -26 70 -54 0 -25 -56 -74 -85 -74 -29 0 -85 48 -85 73 0
27 50 76 88 86 38 11 90 3 130 -18 17 -9 22 -21 22 -52 0 -51 -17 -83 -74
-139 -25 -24 -46 -48 -46 -52 0 -4 16 -8 35 -8 59 0 135 94 135 167 0 70 -64
119 -167 129 -47 4 -64 2 -88 -14z"/>
<path d="M930 766 c0 -8 4 -17 9 -21 20 -12 23 -108 6 -155 -10 -25 -23 -76
-31 -114 -16 -83 -49 -141 -108 -193 -93 -82 -205 -122 -343 -123 -50 0 -52
-8 -20 -65 34 -59 78 -85 148 -85 53 0 61 3 109 44 29 24 77 55 108 68 129 54
196 93 215 126 20 34 18 48 -15 94 -11 15 -8 22 21 45 38 33 50 77 51 192 0
89 -20 129 -89 172 -51 33 -61 35 -61 15z"/>
<path d="M122 724 c-40 -28 -92 -160 -109 -274 -6 -47 15 -73 120 -143 99 -67
134 -82 206 -92 l54 -7 -44 44 c-24 24 -68 77 -97 118 -57 78 -59 90 -31 157
11 27 10 43 -6 110 -10 43 -23 84 -28 91 -13 16 -38 15 -65 -4z"/>
<path d="M606 708 c-10 -21 0 -38 22 -38 11 0 13 3 6 8 -7 4 -14 16 -16 27 -4
18 -6 18 -12 3z"/>
<path d="M837 633 c-3 -5 -8 -22 -11 -39 -9 -41 -66 -107 -110 -128 -51 -24
-108 -20 -227 19 -60 19 -118 35 -130 35 -30 0 -87 -37 -94 -61 -7 -22 10 -49
30 -49 15 0 44 -34 85 -101 95 -156 332 -99 438 106 20 39 26 69 30 138 4 79
1 100 -11 80z"/>
</g>
</svg>
