<?xml version="1.0" standalone="no"?>
<!DOCTYPE svg PUBLIC "-//W3C//DTD SVG 20010904//EN"
 "http://www.w3.org/TR/2001/REC-SVG-20010904/DTD/svg10.dtd">
<svg version="1.0" xmlns="http://www.w3.org/2000/svg"
 width="2211.000000pt" height="1011.000000pt" viewBox="0 0 2211.000000 1011.000000"
 preserveAspectRatio="xMidYMid meet">

<g transform="translate(0.000000,1011.000000) scale(0.100000,-0.100000)"
fill="#000000" stroke="none">
<path d="M21060 9950 c-69 -16 -170 -38 -225 -50 -145 -30 -264 -58 -400 -92
-66 -16 -127 -32 -135 -34 -205 -49 -728 -201 -1340 -390 -30 -10 -350 -115
-710 -235 -983 -326 -1583 -539 -2995 -1062 -82 -30 -294 -110 -470 -177 -176
-67 -378 -144 -450 -170 -71 -27 -213 -81 -315 -120 -102 -39 -219 -84 -260
-100 -41 -16 -151 -58 -245 -95 -93 -37 -226 -88 -295 -115 -460 -177 -1879
-736 -2055 -810 -38 -16 -277 -112 -530 -214 -253 -101 -572 -230 -710 -286
-137 -56 -297 -121 -355 -145 -58 -23 -195 -79 -305 -125 -110 -45 -247 -101
-305 -125 -58 -23 -188 -78 -290 -120 -102 -43 -223 -93 -270 -112 -47 -19
-87 -37 -89 -39 -5 -5 75 -197 194 -459 13 -27 39 -86 58 -130 64 -147 74
-169 161 -365 48 -107 98 -218 112 -247 13 -28 24 -55 24 -58 0 -3 11 -30 25
-58 42 -88 217 -481 222 -499 9 -29 31 -28 91 1 31 16 143 70 247 119 105 49
249 118 320 152 72 34 166 79 210 100 44 21 166 79 270 130 105 51 237 115
295 142 300 143 1009 489 1805 881 732 361 2264 1131 2815 1415 594 306 736
379 855 442 130 69 259 136 430 225 83 43 155 81 160 85 6 4 78 42 160 85 83
43 239 127 348 187 110 59 201 108 203 108 1 0 94 50 206 111 112 61 237 129
278 152 189 102 581 319 805 447 99 56 198 112 220 125 182 102 712 412 745
435 14 9 45 28 70 42 43 24 132 79 440 268 179 110 546 351 695 458 114 81
304 221 315 232 3 3 33 28 67 55 96 76 92 77 -97 35z"/>
<path d="M21078 8667 c-21 -39 -88 -162 -149 -272 -351 -630 -530 -1072 -628
-1552 -62 -302 -71 -413 -50 -601 41 -371 164 -649 378 -855 100 -97 207 -164
326 -204 356 -123 775 167 936 647 53 161 89 379 89 547 0 158 -108 607 -235
973 -96 280 -176 462 -417 950 -96 195 -183 374 -194 397 l-19 43 -37 -73z"/>
<path d="M6907 6259 c-16 -10 -260 -112 -457 -192 -41 -16 -81 -35 -87 -41
-10 -9 -3 -28 34 -86 116 -187 337 -618 518 -1010 32 -69 80 -172 107 -229 27
-57 48 -111 46 -119 -2 -10 -24 -21 -58 -29 -30 -8 -138 -36 -240 -64 -636
-174 -1173 -343 -1500 -471 -618 -242 -1079 -470 -1660 -818 -80 -48 -206
-126 -280 -174 -74 -47 -142 -89 -150 -93 -19 -8 -523 -344 -530 -353 -3 -4
-41 -31 -85 -60 -138 -92 -467 -329 -565 -407 -157 -123 -221 -163 -355 -216
-186 -73 -437 -153 -539 -171 -16 -3 -55 -11 -85 -18 -82 -19 -354 -16 -407 4
-59 23 -90 14 -107 -31 -30 -75 -40 -143 -35 -242 3 -54 2 -102 -1 -107 -6 -9
-48 -34 -144 -86 -154 -81 -222 -258 -168 -436 12 -40 44 -112 72 -161 27 -49
49 -92 49 -97 0 -13 72 -116 99 -142 73 -70 141 -101 224 -101 83 -1 121 7
192 40 100 47 94 48 160 -20 81 -81 214 -168 262 -169 6 0 28 30 48 66 37 65
107 159 152 201 156 148 393 306 647 431 170 85 189 92 316 116 496 97 1347
300 1700 406 58 18 116 34 130 37 91 16 597 181 890 289 376 138 601 237 1075
470 236 116 377 191 623 333 134 76 240 139 367 218 288 177 354 218 450 281
55 36 106 65 114 66 13 1 62 -99 122 -249 11 -27 27 -63 34 -80 14 -28 87
-204 197 -470 119 -290 208 -536 218 -609 5 -32 11 -60 13 -63 4 -4 77 27 242
102 28 12 88 39 135 60 47 20 109 48 139 62 l54 26 -6 56 c-5 63 -98 319 -232
646 -149 360 -156 379 -181 433 -13 29 -24 55 -24 57 0 3 -36 87 -79 188 -97
223 -182 422 -251 587 -28 69 -63 148 -76 177 -13 28 -24 54 -24 57 0 5 -29
72 -202 466 -49 113 -150 327 -223 475 -74 149 -190 386 -259 528 -162 335
-360 706 -394 739 -4 3 -15 2 -25 -3z"/>
</g>
</svg>
