<?xml version="1.0" standalone="no"?>
<!DOCTYPE svg PUBLIC "-//W3C//DTD SVG 20010904//EN"
 "http://www.w3.org/TR/2001/REC-SVG-20010904/DTD/svg10.dtd">
<svg version="1.0" xmlns="http://www.w3.org/2000/svg"
 width="1989.000000pt" height="249.000000pt" viewBox="0 0 1989.000000 249.000000"
 preserveAspectRatio="xMidYMid meet">

<g transform="translate(0.000000,249.000000) scale(0.100000,-0.100000)"
fill="#000000" stroke="none">
<path d="M16596 2468 c-75 -119 -186 -303 -186 -310 0 -5 36 -85 80 -179 l80
-171 0 -97 0 -98 -627 -6 c-1751 -19 -4200 -28 -6073 -22 -2759 8 -6527 37
-8695 66 -456 6 -906 9 -999 7 l-169 -3 61 -81 c103 -136 242 -256 417 -359
335 -197 831 -322 1510 -379 460 -39 638 -44 2735 -67 1818 -20 5380 11 8340
71 923 19 2300 50 2655 60 193 5 468 10 613 10 l262 0 0 -113 0 -114 -80 -117
c-44 -64 -80 -122 -80 -129 1 -7 56 -104 123 -217 115 -192 125 -205 154 -208
30 -3 35 3 117 121 l85 124 163 6 c90 4 278 10 418 13 l255 7 102 -81 c57 -45
108 -82 115 -82 7 0 54 42 106 93 l92 92 448 3 447 3 113 -92 114 -93 200 49
c109 27 203 52 207 55 5 3 48 153 96 334 l88 329 -99 296 c-90 269 -101 296
-124 302 -14 4 -141 39 -282 78 l-258 71 -377 0 c-208 0 -686 -7 -1063 -15
-377 -8 -732 -15 -788 -15 l-104 0 8 123 c7 119 8 125 62 247 30 69 60 139 67
155 13 29 10 35 -90 190 l-102 160 -61 3 c-54 3 -63 0 -76 -20z m2427 -1485
c7 -15 -25 -438 -34 -448 -6 -6 -168 -11 -414 -13 l-404 -4 -109 80 -110 80
-81 -46 c-69 -40 -81 -51 -81 -74 0 -60 -10 -61 -560 -73 l-265 -6 -82 107
-83 106 0 114 c0 63 1 115 3 115 2 1 2019 64 2159 68 31 0 59 -2 61 -6z"/>
</g>
</svg>
