<?xml version="1.0" standalone="no"?>
<!DOCTYPE svg PUBLIC "-//W3C//DTD SVG 20010904//EN"
 "http://www.w3.org/TR/2001/REC-SVG-20010904/DTD/svg10.dtd">
<svg version="1.0" xmlns="http://www.w3.org/2000/svg"
 width="78.000000pt" height="28.000000pt" viewBox="0 0 78.000000 28.000000"
 preserveAspectRatio="xMidYMid meet">

<g transform="translate(0.000000,28.000000) scale(0.100000,-0.100000)"
fill="#000000" stroke="none">
<path d="M477 270 c-3 -8 -8 -37 -12 -65 -13 -97 -26 -136 -51 -146 -13 -4
-24 -13 -24 -19 0 -5 -11 -10 -25 -10 -18 0 -26 7 -31 25 -7 30 -20 32 -29 5
-6 -20 -7 -20 -24 1 -16 20 -29 23 -149 27 -95 3 -132 1 -132 -7 0 -7 37 -11
119 -11 66 0 127 -3 136 -6 8 -4 23 -20 31 -37 12 -23 18 -27 25 -16 5 8 21
12 43 11 19 -2 43 2 51 10 49 39 54 49 66 122 l13 76 13 -52 c7 -29 22 -64 32
-78 17 -24 23 -25 135 -28 83 -2 116 1 116 9 0 9 -28 10 -105 5 -102 -7 -105
-7 -129 17 -15 15 -28 45 -35 83 -15 76 -27 105 -34 84z"/>
</g>
</svg>
