<?xml version="1.0" standalone="no"?>
<!DOCTYPE svg PUBLIC "-//W3C//DTD SVG 20010904//EN"
 "http://www.w3.org/TR/2001/REC-SVG-20010904/DTD/svg10.dtd">
<svg version="1.0" xmlns="http://www.w3.org/2000/svg"
 width="205.000000pt" height="395.000000pt" viewBox="0 0 205.000000 395.000000"
 preserveAspectRatio="xMidYMid meet">

<g transform="translate(0.000000,395.000000) scale(0.100000,-0.100000)"
fill="#000000" stroke="none">
<path d="M908 3933 c84 -2 219 -2 300 0 81 1 12 3 -153 3 -165 0 -231 -2 -147
-3z"/>
<path d="M583 3923 c9 -2 23 -2 30 0 6 3 -1 5 -18 5 -16 0 -22 -2 -12 -5z"/>
<path d="M657 3916 c3 -5 -37 -7 -92 -4 -53 2 -89 0 -79 -4 12 -5 2 -7 -28 -5
-25 1 -44 -1 -42 -4 3 -6 -86 -18 -171 -24 -91 -6 -183 -84 -209 -177 -20 -73
-25 -748 -17 -2243 7 -1313 1 -1218 74 -1293 91 -95 224 -122 712 -143 437
-19 935 15 1064 72 93 41 148 108 164 199 4 19 7 778 8 1685 1 1202 -2 1664
-11 1700 -6 28 -22 67 -36 88 -29 44 -102 100 -121 92 -8 -2 -12 -1 -9 4 8 13
-21 22 -52 16 -22 -4 -23 -4 -7 3 18 8 17 10 -10 16 -59 12 -171 26 -205 24
-33 -1 -32 -2 10 -8 33 -6 26 -7 -29 -4 -41 2 -99 5 -130 6 -49 1 -46 2 24 7
44 3 -121 6 -367 6 -252 0 -444 -4 -441 -9z m1098 -27 c20 -5 9 -6 -30 -2 -33
3 -62 7 -64 9 -8 7 63 2 94 -7z m-1530 -59 c-27 -12 -43 -12 -25 0 8 5 22 9
30 9 10 0 8 -3 -5 -9z m-95 -44 c0 -2 -8 -10 -17 -17 -16 -13 -17 -12 -4 4 13
16 21 21 21 13z m-53 -138 c-2 -13 -4 -3 -4 22 0 25 2 35 4 23 2 -13 2 -33 0
-45z m0 -50 c-3 -8 -6 -5 -6 6 -1 11 2 17 5 13 3 -3 4 -12 1 -19z m0 -415 c-1
-65 -3 -12 -3 117 0 129 2 182 3 118 2 -65 2 -171 0 -235z m1426 318 l437 -1
0 -1515 c0 -833 -3 -1515 -7 -1515 -5 0 -414 -3 -910 -6 l-903 -5 0 1526 0
1526 473 -5 c259 -3 669 -5 910 -5z"/>
</g>
</svg>
