<?xml version="1.0" standalone="no"?>
<!DOCTYPE svg PUBLIC "-//W3C//DTD SVG 20010904//EN"
 "http://www.w3.org/TR/2001/REC-SVG-20010904/DTD/svg10.dtd">
<svg version="1.0" xmlns="http://www.w3.org/2000/svg"
 width="380.000000pt" height="447.000000pt" viewBox="0 0 380.000000 447.000000"
 preserveAspectRatio="xMidYMid meet">

<g transform="translate(0.000000,447.000000) scale(0.100000,-0.100000)"
fill="#000000" stroke="none">
<path d="M1258 4448 c5 -5 39 -20 77 -33 73 -27 82 -32 72 -41 -3 -3 -26 2
-51 11 -63 24 -202 17 -266 -14 -25 -12 -36 -19 -25 -16 18 5 18 4 5 -8 -73
-68 -140 -117 -159 -117 -21 0 -101 -36 -101 -45 0 -3 18 4 40 15 50 26 82 27
74 3 -4 -10 3 -5 14 11 35 49 83 62 53 14 -9 -14 -10 -23 -2 -31 20 -20 12
-24 -59 -30 -88 -7 -162 -45 -178 -92 -13 -35 -102 -127 -102 -104 0 26 34 78
68 103 25 18 29 25 17 29 -21 9 -84 -77 -91 -125 -8 -46 -66 -127 -125 -172
-79 -60 -150 -222 -146 -333 2 -66 0 -71 -47 -145 -26 -43 -50 -78 -51 -78 -8
0 14 59 45 120 17 36 25 58 17 50 -9 -8 -32 -49 -53 -90 -20 -41 -49 -89 -64
-107 -16 -17 -31 -44 -34 -60 -14 -73 -25 -185 -20 -211 4 -20 -4 -49 -26 -98
-17 -38 -32 -81 -34 -97 -2 -15 -11 -36 -21 -47 -24 -27 -30 -89 -12 -133 9
-20 20 -37 25 -37 6 0 8 -36 6 -85 -3 -67 -9 -96 -30 -137 -24 -48 -26 -58
-21 -157 5 -119 25 -195 64 -241 29 -35 44 -94 47 -190 4 -88 10 -103 56 -135
22 -15 49 -43 61 -61 11 -19 41 -50 65 -70 24 -20 44 -40 44 -45 0 -5 -27 -22
-59 -39 -57 -28 -99 -63 -55 -46 38 16 54 18 54 7 0 -6 10 -11 21 -11 35 0 9
-21 -95 -75 -87 -46 -113 -65 -86 -65 6 0 52 21 103 46 101 51 243 114 258
114 27 0 -1 -24 -78 -66 -71 -38 -275 -164 -292 -180 -2 -2 -2 -7 2 -10 3 -3
59 28 124 69 141 88 143 90 143 83 0 -3 -44 -39 -98 -79 -53 -41 -103 -81
-111 -90 -27 -33 6 -16 74 39 127 102 304 216 325 209 11 -4 20 -10 20 -14 0
-4 -31 -44 -69 -88 -39 -43 -95 -124 -127 -179 -31 -54 -62 -106 -70 -114 -18
-21 -35 -70 -25 -70 5 0 17 13 28 29 10 16 75 98 145 183 85 103 136 157 157
165 27 10 31 9 31 -6 0 -24 -134 -227 -258 -390 -56 -74 -102 -139 -102 -144
0 -18 26 1 39 29 8 16 49 75 92 131 95 123 202 285 229 346 19 42 21 44 63 44
25 1 58 8 74 17 31 15 80 83 107 146 8 19 36 53 62 74 51 43 47 42 214 37 65
-2 256 31 292 50 11 6 17 17 14 25 -6 15 40 44 70 44 37 0 161 88 244 173 47
48 90 87 96 87 12 0 77 67 137 142 46 58 57 62 57 22 0 -13 4 -25 9 -29 6 -3
8 8 4 28 -6 41 23 120 37 97 5 -8 12 -37 16 -65 7 -54 86 -222 127 -271 13
-16 34 -47 45 -70 24 -47 81 -101 117 -110 14 -3 55 -42 97 -91 54 -64 85 -91
125 -110 29 -14 57 -31 64 -39 16 -20 53 -17 99 6 22 11 49 20 60 20 11 0 38
9 59 20 21 10 41 16 45 13 11 -12 -177 -104 -200 -99 -13 4 -27 -1 -35 -11
-13 -15 -187 -149 -218 -168 -19 -11 -8 7 47 75 l44 55 -52 -54 c-56 -59 -110
-130 -153 -201 -15 -25 -45 -65 -67 -90 l-40 -45 0 77 c0 42 -4 78 -10 80 -12
4 -40 191 -40 270 0 35 7 110 15 167 9 63 11 108 6 115 -5 6 -12 32 -16 59
-13 87 -25 60 -26 -60 -4 -297 -8 -443 -14 -461 -3 -11 -1 -23 4 -26 5 -4 13
4 17 16 l7 23 9 -25 c5 -14 12 -79 15 -146 l6 -121 -32 -47 c-18 -26 -30 -54
-27 -62 9 -23 76 46 76 78 0 14 9 33 20 43 11 10 20 16 20 13 0 -13 -52 -153
-83 -224 -65 -144 -187 -514 -187 -563 0 -27 20 -7 36 37 9 26 24 52 31 59 8
6 19 41 24 78 13 96 17 108 65 225 61 149 146 316 193 377 21 29 86 102 143
163 82 88 122 122 196 166 112 67 258 136 279 132 9 -2 32 -23 52 -47 34 -42
35 -44 11 -36 -14 4 -32 10 -40 12 -8 3 13 -11 47 -30 33 -18 86 -55 117 -82
66 -56 76 -46 12 13 l-45 41 29 21 29 20 53 -21 c130 -52 251 -90 261 -80 10
10 -48 73 -95 103 -14 10 -79 36 -144 58 -64 22 -122 47 -128 55 -6 7 -24 15
-39 17 -47 5 -31 23 28 30 74 10 95 22 95 58 0 37 57 85 110 94 36 6 90 52 90
77 0 11 52 58 111 101 50 36 99 112 99 152 0 17 -9 46 -20 64 -11 18 -20 50
-20 72 0 21 -4 42 -10 45 -5 3 -10 25 -10 48 0 31 8 52 30 81 38 51 40 99 5
122 -20 13 -23 20 -15 34 14 26 12 63 -6 150 -25 124 -90 213 -179 245 -27 10
-73 39 -101 64 -28 25 -63 54 -76 63 -19 13 -27 30 -33 65 -3 26 -12 57 -19
68 -7 11 -16 40 -20 65 -16 103 -88 172 -221 212 -38 11 -75 25 -81 30 -7 5
-16 8 -20 7 -23 -4 -34 4 -58 45 -14 25 -61 75 -104 112 l-77 68 -7 70 c-12
109 -44 204 -83 243 -18 18 -40 33 -48 33 -8 0 -23 13 -34 29 -42 67 -238 251
-267 251 -15 0 -76 46 -76 57 0 7 -48 36 -107 65 l-108 53 -97 -2 c-54 -1
-100 3 -103 8 -4 5 3 9 14 9 12 0 21 5 21 10 0 13 -9 12 -90 -3 -42 -8 -85 -9
-120 -4 -30 4 -82 10 -115 11 -33 2 -73 9 -90 15 -60 24 -166 38 -147 19z
m138 -28 c15 -6 25 -13 22 -15 -2 -3 -26 5 -54 16 -48 19 -21 19 32 -1z m116
-31 c-15 -6 -30 -5 -40 1 -13 7 -8 9 23 9 35 0 37 -1 17 -10z m-192 -9 c16 -5
2 -6 -35 -3 -33 3 -62 7 -64 9 -8 7 74 2 99 -6z m447 2 c16 -10 -11 -52 -33
-52 -15 0 -35 39 -27 53 6 9 45 9 60 -1z m-415 -42 c15 -7 25 -17 22 -21 -9
-15 -79 -10 -120 7 -38 16 -105 15 -164 -1 -23 -7 -24 -6 -10 8 32 33 209 38
272 7z m269 20 c35 -19 19 -30 -45 -30 -46 0 -65 4 -69 14 -3 8 -3 17 0 20 10
10 93 7 114 -4z m380 -15 c58 -16 122 -54 69 -40 -14 3 -76 9 -138 12 -62 3
-110 8 -107 11 3 4 35 5 70 4 40 -2 65 1 65 8 0 5 -19 10 -42 11 -33 0 -38 2
-23 9 22 9 22 9 106 -15z m-181 5 c0 -5 -10 -10 -22 -10 -19 0 -20 2 -8 10 19
13 30 13 30 0z m-345 -10 c8 -13 -5 -13 -25 0 -13 8 -13 10 2 10 9 0 20 -4 23
-10z m-220 -31 c15 -15 -29 -11 -66 6 l-34 16 45 -6 c25 -3 49 -10 55 -16z
m-90 -9 c18 -8 18 -9 -5 -9 -14 0 -32 4 -40 9 -12 8 -12 10 5 9 11 0 29 -4 40
-9z m270 -20 c7 -12 -5 -12 -69 -4 -56 8 -60 22 -8 26 38 3 66 -5 77 -22z
m184 26 c-10 -9 -79 -14 -79 -5 0 5 19 9 42 9 23 0 39 -2 37 -4z m460 -22 c54
-15 138 -52 147 -65 6 -11 -87 1 -141 18 -27 8 -58 22 -67 30 -12 11 -36 14
-92 12 -41 -2 -78 0 -82 4 -4 4 -19 8 -33 9 -14 1 -1 4 29 8 69 9 166 3 239
-16z m-996 9 c-7 -2 -19 -2 -25 0 -7 3 -2 5 12 5 14 0 19 -2 13 -5z m244 -28
c23 -20 25 -24 10 -25 -10 0 -35 11 -55 25 -36 25 -36 25 -10 25 15 0 40 -11
55 -25z m-222 6 c19 -8 19 -8 -2 -19 -31 -17 -83 -15 -83 2 0 24 45 33 85 17z
m149 -6 c19 -15 19 -15 -1 -15 -11 0 -26 7 -33 15 -17 20 7 20 34 0z m623 -11
c-3 -3 -12 -4 -19 -1 -8 3 -5 6 6 6 11 1 17 -2 13 -5z m-665 -16 c9 1 23 -6
30 -15 11 -14 10 -15 -10 -9 -13 5 -22 3 -22 -3 0 -18 -38 -12 -52 7 -7 11
-20 22 -28 26 -8 3 3 3 25 0 22 -3 48 -6 57 -6z m185 6 c-3 -3 -12 -4 -19 -1
-8 3 -5 6 6 6 11 1 17 -2 13 -5z m93 -14 c-20 -13 -50 -13 -50 0 0 6 15 10 33
10 24 0 28 -3 17 -10z m533 3 c-7 -2 -21 -2 -30 0 -10 3 -4 5 12 5 17 0 24 -2
18 -5z m-723 -13 c13 -8 13 -10 -2 -10 -9 0 -20 5 -23 10 -8 13 5 13 25 0z
m944 -61 c15 -12 25 -23 22 -26 -6 -6 -66 29 -66 39 0 14 16 9 44 -13z m-1063
-6 c27 -16 38 -33 22 -33 -5 0 -26 11 -48 25 -46 28 -22 36 26 8z m1122 6 c12
-7 56 -43 97 -81 41 -38 83 -76 93 -84 19 -15 23 -34 7 -34 -5 0 -43 33 -85
73 -41 39 -75 69 -75 65 0 -4 5 -10 10 -13 6 -3 10 -12 10 -18 -1 -7 -21 10
-45 38 -56 62 -60 79 -12 54z m-1293 -13 c0 -2 -7 -6 -15 -10 -8 -3 -15 -1
-15 4 0 6 7 10 15 10 8 0 15 -2 15 -4z m-131 -10 c-2 -2 -24 -14 -49 -26 -37
-19 -42 -20 -30 -5 8 9 23 21 35 25 21 9 52 13 44 6z m1266 -4 c10 -7 54 -65
69 -89 16 -27 -86 25 -111 57 -10 12 -9 18 4 28 19 14 24 14 38 4z m-1256 -16
c-10 -9 -69 -36 -69 -32 0 7 52 35 64 36 5 0 7 -2 5 -4z m1177 -21 c10 -8 14
-15 8 -15 -5 0 -19 7 -30 15 -10 8 -14 15 -8 15 5 0 19 -7 30 -15z m257 -34
c31 -28 36 -61 9 -61 -24 0 -42 19 -42 46 0 12 -7 27 -15 34 -8 7 -15 17 -15
22 0 11 18 -1 63 -41z m-1428 19 c-7 -11 -94 -44 -100 -38 -7 7 88 57 97 52 5
-3 6 -9 3 -14z m753 -58 c16 -11 -50 -47 -103 -56 l-40 -7 55 35 c58 38 67 40
88 28z m-901 -45 c-23 -23 -44 -39 -45 -34 -7 14 49 77 68 77 16 0 11 -9 -23
-43z m943 15 c0 -12 -82 -69 -132 -92 -50 -23 -37 -27 15 -5 20 8 39 15 42 15
11 0 -74 -71 -116 -95 -27 -17 -34 -24 -19 -20 14 4 46 10 72 15 26 5 68 21
93 35 31 19 43 22 39 12 -3 -9 -12 -18 -20 -21 -8 -3 -14 -11 -14 -18 0 -7 17
4 38 23 20 19 45 41 56 49 18 14 18 12 11 -28 -7 -46 4 -55 35 -27 24 22 35 5
54 -88 8 -42 23 -91 31 -107 18 -36 105 -120 123 -120 32 0 46 -156 17 -194
-21 -28 -18 -77 11 -181 17 -62 25 -112 24 -161 -1 -39 6 -108 15 -153 13 -63
15 -88 6 -105 -12 -23 -71 -251 -70 -269 0 -7 7 6 14 28 l14 40 -6 -64 c-4
-47 -3 -62 6 -57 6 4 11 16 11 27 0 11 5 17 10 14 11 -7 46 64 56 114 7 33 24
43 24 14 0 -10 10 -38 21 -63 21 -48 22 -45 -21 -210 -6 -20 -6 -38 -1 -43 12
-12 2 -39 -22 -56 -10 -7 -26 -30 -34 -50 -9 -21 -53 -71 -107 -121 -50 -46
-127 -121 -171 -165 -52 -53 -118 -105 -190 -151 l-110 -69 -98 -3 c-122 -5
-159 2 -194 34 -79 72 -97 91 -120 126 -41 61 -58 45 -28 -26 32 -75 -11 -32
-65 66 -8 15 -37 62 -64 104 -62 97 -74 131 -91 268 -8 61 -22 136 -33 166
-10 30 -22 85 -26 122 -4 40 -15 82 -28 104 -19 32 -20 45 -15 123 6 78 22
151 33 151 3 0 18 -16 35 -35 18 -20 40 -35 53 -35 19 1 19 2 4 11 -29 16 -21
29 17 29 24 0 35 5 35 15 0 11 -11 15 -39 15 -34 0 -40 4 -45 26 -9 34 -3 39
26 22 16 -10 55 -14 136 -13 61 0 112 -2 112 -5 0 -3 -17 -18 -37 -34 -86 -62
-81 -57 -51 -46 15 5 45 19 68 30 46 23 49 18 25 -50 -8 -23 -15 -70 -15 -104
0 -34 -7 -88 -15 -119 -8 -32 -15 -73 -15 -90 0 -18 -4 -37 -9 -42 -5 -6 -21
-39 -36 -73 -35 -86 -27 -115 11 -37 25 52 32 60 54 57 37 -4 43 -16 26 -50
-15 -29 -13 -62 3 -62 16 0 31 26 31 52 0 15 5 28 10 28 6 0 33 -23 60 -50 28
-28 55 -48 59 -45 6 3 5 21 -1 42 -9 33 -8 39 13 55 13 10 29 22 35 27 25 21
51 28 81 24 18 -3 44 -2 59 1 22 6 25 11 20 31 -4 14 -2 25 4 25 5 0 10 8 10
19 0 25 -20 81 -30 81 -12 0 -19 -37 -8 -48 5 -5 8 -25 6 -43 -3 -36 -6 -37
-76 -23 -37 7 -94 -25 -111 -63 -7 -15 -19 -23 -34 -23 -34 0 -105 55 -113 86
-9 37 3 170 21 228 8 27 15 71 15 97 0 27 6 66 14 86 20 54 34 112 41 160 7
58 -35 150 -104 225 -55 61 -92 78 -166 78 -49 0 -125 -28 -125 -46 0 -7 -8
-18 -19 -23 -10 -6 -21 -19 -23 -29 -5 -17 -3 -18 32 -6 44 15 245 8 259 -10
5 -6 12 -26 16 -43 l7 -33 -70 0 c-40 0 -85 -7 -107 -16 -44 -18 -42 -28 3
-15 17 5 60 6 99 1 55 -7 72 -14 90 -35 13 -14 23 -33 23 -41 0 -12 -5 -11
-26 5 -55 43 -227 18 -292 -42 -28 -26 -50 -11 -32 22 6 12 7 27 3 34 -39 60
-41 128 -8 290 49 245 94 327 305 554 l30 33 38 -20 c47 -25 121 -26 193 -2
30 11 60 17 67 15 7 -3 24 2 37 11 27 18 36 20 34 9 -4 -24 4 -33 29 -32 23 2
24 2 5 6 -33 6 -28 20 10 26 37 5 48 0 27 -13 -36 -23 4 -7 62 24 67 37 78 41
78 28z m64 -7 c3 -8 0 -14 -6 -12 -6 1 -15 -12 -20 -30 -8 -32 -52 -69 -126
-107 -60 -31 -56 -11 8 44 39 34 65 50 68 42 5 -17 22 -15 22 3 0 21 28 75 39
75 5 0 11 -7 15 -15z m-304 -4 c0 -11 -80 -42 -156 -61 -48 -12 -124 -7 -124
8 0 13 123 46 195 52 39 4 73 7 78 8 4 1 7 -2 7 -7z m775 -3 c14 -6 25 -14 25
-18 0 -13 -49 2 -54 16 -7 17 -4 17 29 2z m-1030 -4 c22 -9 0 -24 -35 -24 -24
1 -24 1 -6 15 23 17 20 17 41 9z m1265 -65 c0 -5 -4 -9 -10 -9 -9 0 -40 52
-40 67 1 11 50 -46 50 -58z m-163 26 c9 -25 -4 -29 -17 -6 -7 15 -7 21 0 21 6
0 13 -7 17 -15z m243 -63 c0 -15 -2 -15 -11 -2 -5 8 -17 29 -25 45 l-15 30 25
-28 c15 -15 26 -36 26 -45z m-1879 24 c-6 -14 -15 -26 -21 -26 -14 0 -13 7 6
36 21 31 28 26 15 -10z m1149 -2 c0 -8 -4 -14 -10 -14 -5 0 -10 9 -10 21 0 11
5 17 10 14 6 -3 10 -13 10 -21z m530 -17 c0 -10 -4 -15 -10 -12 -5 3 -10 18
-10 33 0 21 2 24 10 12 5 -8 10 -23 10 -33z m306 -43 c35 -78 29 -100 -8 -29
-17 33 -37 64 -44 68 -8 4 -14 15 -14 23 0 31 42 -8 66 -62z m-806 15 c0 -6
-4 -7 -10 -4 -5 3 -10 11 -10 16 0 6 5 7 10 4 6 -3 10 -11 10 -16z m-1210 -14
c-7 -9 -15 -13 -18 -10 -3 2 1 11 8 20 7 9 15 13 18 10 3 -2 -1 -11 -8 -20z
m-30 11 c0 -2 -8 -10 -17 -17 -16 -13 -17 -12 -4 4 13 16 21 21 21 13z m1370
-59 c0 -6 -9 -2 -20 8 -11 10 -20 23 -20 28 0 6 9 2 20 -8 11 -10 20 -23 20
-28z m280 18 c0 -8 -2 -15 -4 -15 -2 0 -6 7 -10 15 -3 8 -1 15 4 15 6 0 10 -7
10 -15z m-365 -72 c9 -32 26 -75 37 -96 25 -50 17 -58 -15 -15 -36 48 -75 191
-48 173 5 -3 17 -31 26 -62z m-1370 30 c-17 -33 -75 -101 -75 -90 0 15 32 72
53 95 28 30 41 28 22 -5z m19 -59 c-25 -47 -26 -47 -20 -15 7 39 38 91 43 75
2 -6 -8 -33 -23 -60z m-33 -104 c-1 -38 -15 -80 -32 -96 -18 -16 -19 -16 -19
2 0 11 6 44 14 74 8 30 12 58 9 63 -3 4 -1 16 3 25 5 13 9 9 16 -18 5 -19 9
-42 9 -50z m-65 -21 c-12 -59 -39 -109 -52 -96 -12 12 15 110 38 134 12 13 22
22 24 20 1 -1 -3 -27 -10 -58z m2305 -42 c-1 -12 -15 -9 -19 4 -3 6 1 10 8 8
6 -3 11 -8 11 -12z m50 -59 l23 -33 -27 24 c-15 14 -27 28 -27 33 0 15 8 8 31
-24z m-2381 -55 c0 -5 -5 -15 -10 -23 -8 -12 -10 -11 -10 8 0 12 5 22 10 22 6
0 10 -3 10 -7z m2410 -42 c-1 -13 -4 -12 -15 3 -8 11 -15 27 -15 35 1 13 4 12
15 -3 8 -11 15 -27 15 -35z m66 3 c15 -36 19 -72 7 -60 -5 4 -15 30 -24 56
-18 54 -5 57 17 4z m149 -83 c58 -27 108 -58 114 -69 11 -21 16 -102 6 -102
-10 0 -110 79 -150 119 -22 21 -50 44 -62 50 -20 10 -34 51 -18 51 3 0 53 -22
110 -49z m-991 21 c2 -4 -1 -33 -8 -63 l-12 -54 -8 42 c-4 23 -5 51 -1 63 7
20 20 26 29 12z m857 -67 c-9 -30 -9 -30 -10 10 -1 25 2 36 9 29 6 -6 6 -21 1
-39z m55 7 c-9 -9 -37 8 -31 18 5 8 11 7 21 -1 8 -6 12 -14 10 -17z m-2456 2
c0 -8 -4 -12 -10 -9 -5 3 -10 10 -10 16 0 5 5 9 10 9 6 0 10 -7 10 -16z m-117
-19 c-3 -9 -8 -14 -10 -11 -3 3 -2 9 2 15 9 16 15 13 8 -4z m2632 -101 c9 -13
11 -24 6 -24 -6 0 -18 13 -27 29 -12 20 -28 31 -52 36 -25 5 -32 10 -28 21 3
9 6 19 6 24 0 12 76 -58 95 -86z m-2790 36 c-11 -12 -13 -20 -6 -25 17 -10 13
-40 -9 -60 -19 -17 -20 -17 -20 1 0 50 39 142 48 115 2 -7 -3 -20 -13 -31z
m99 31 c3 -5 -11 -24 -32 -42 -33 -29 -37 -31 -41 -14 -2 12 8 28 25 42 32 25
40 28 48 14z m2876 -13 c0 -18 -2 -20 -9 -8 -6 8 -7 18 -5 22 9 14 14 9 14
-14z m46 -43 c15 -37 20 -120 5 -111 -4 3 -11 26 -14 51 -4 25 -9 56 -13 70
-9 37 5 30 22 -10z m-312 -6 c-8 -13 -24 -1 -24 18 0 13 3 13 15 3 8 -7 12
-16 9 -21z m-2619 -16 c-11 -63 -40 -83 -51 -37 -5 18 0 32 17 50 32 34 42 30
34 -13z m2501 1 c-4 -9 -9 -15 -11 -12 -3 3 -3 13 1 22 4 9 9 15 11 12 3 -3 3
-13 -1 -22z m399 -91 c-17 -36 -24 -12 -17 57 l6 65 11 -50 c8 -35 8 -56 0
-72z m-2813 85 c-7 -7 -12 -8 -12 -2 0 14 12 26 19 19 2 -3 -1 -11 -7 -17z
m2718 -75 c0 -13 -4 -23 -9 -23 -8 0 -51 91 -51 107 1 19 60 -63 60 -84z
m-1056 42 c5 -22 4 -26 -4 -15 -5 8 -10 24 -10 34 0 26 6 18 14 -19z m-1718
-17 c-9 -43 -26 -60 -26 -26 0 34 9 58 22 58 6 0 8 -13 4 -32z m-76 -30 c0
-10 -44 -77 -52 -78 -6 0 -28 55 -28 70 0 4 10 20 22 35 l21 27 18 -23 c10
-13 19 -27 19 -31z m2740 -14 c7 -19 10 -38 7 -41 -6 -5 -37 62 -37 79 0 20
19 -4 30 -38z m-2070 -31 c0 -20 7 -45 17 -55 15 -17 14 -18 -34 -18 -37 0
-55 5 -68 20 -17 19 -17 21 9 55 18 23 35 35 52 35 21 0 24 -4 24 -37z m-640
3 c0 -14 -7 -26 -17 -30 -10 -3 -24 -9 -30 -12 -19 -9 -16 10 8 40 25 32 39
33 39 2z m2634 9 c3 -8 1 -15 -4 -15 -6 0 -10 7 -10 15 0 8 2 15 4 15 2 0 6
-7 10 -15z m356 6 c0 -6 -4 -13 -10 -16 -5 -3 -10 1 -10 9 0 9 5 16 10 16 6 0
10 -4 10 -9z m-2179 -54 c-6 -15 -17 -27 -26 -27 -11 0 -13 4 -6 18 5 9 12 26
16 36 4 13 9 16 16 9 6 -6 6 -19 0 -36z m1989 9 c0 -13 -6 -28 -13 -34 -10 -9
-12 -4 -9 23 5 39 22 48 22 11z m40 -1 c0 -8 -4 -15 -10 -15 -5 0 -10 7 -10
15 0 8 5 15 10 15 6 0 10 -7 10 -15z m140 -1 c0 -8 -4 -12 -10 -9 -5 3 -10 10
-10 16 0 5 5 9 10 9 6 0 10 -7 10 -16z m-2210 -4 c0 -14 -26 -30 -49 -30 -31
0 -56 14 -48 26 6 10 97 13 97 4z m2136 -38 c-11 -10 -15 4 -8 28 l7 25 3 -23
c2 -13 1 -26 -2 -30z m-2926 8 c0 -5 -4 -10 -9 -10 -5 0 -16 -3 -25 -6 -9 -3
-16 -1 -16 4 0 9 16 17 43 21 4 0 7 -3 7 -9z m2870 -10 c0 -5 -4 -10 -10 -10
-5 0 -10 5 -10 10 0 6 5 10 10 10 6 0 10 -4 10 -10z m120 0 c0 -5 -2 -10 -4
-10 -3 0 -8 5 -11 10 -3 6 -1 10 4 10 6 0 11 -4 11 -10z m-3085 -39 c-8 -17
-18 -31 -21 -31 -3 0 -3 4 0 9 3 4 10 21 16 36 6 15 13 25 16 22 3 -3 -2 -19
-11 -36z m65 14 c0 -3 -15 -24 -33 -48 -19 -24 -45 -81 -61 -132 -43 -135 -47
-139 -42 -52 3 49 10 85 19 95 8 10 29 45 46 80 23 45 37 62 51 62 11 0 20 -2
20 -5z m1855 -59 c6 -31 5 -38 -6 -34 -9 3 -15 23 -17 54 -2 56 12 44 23 -20z
m1165 22 c0 -19 -2 -20 -10 -8 -13 19 -13 30 0 30 6 0 10 -10 10 -22z m152
-40 c37 -39 62 -76 69 -100 18 -68 5 -76 -19 -11 -23 62 -76 123 -107 123 -8
0 -15 4 -15 9 0 5 -3 16 -6 25 -13 35 23 13 78 -46z m-225 30 c-3 -8 -6 -5 -6
6 -1 11 2 17 5 13 3 -3 4 -12 1 -19z m93 -38 c0 -16 -4 -30 -8 -30 -5 0 -7 14
-4 30 2 17 6 30 8 30 2 0 4 -13 4 -30z m-50 10 c0 -5 -2 -10 -4 -10 -3 0 -8 5
-11 10 -3 6 -1 10 4 10 6 0 11 -4 11 -10z m157 -27 c7 -10 20 -31 29 -48 14
-27 12 -27 -21 9 -33 37 -43 56 -29 56 4 0 13 -8 21 -17z m-147 -24 c0 -6 -4
-7 -10 -4 -5 3 -10 11 -10 16 0 6 5 7 10 4 6 -3 10 -11 10 -16z m-2920 -26 c0
-23 -4 -33 -9 -27 -9 8 -4 64 5 64 2 0 4 -17 4 -37z m3214 11 c39 -19 98 -92
121 -150 17 -42 12 -37 -43 40 -18 26 -52 59 -77 74 -69 42 -71 69 -1 36z
m-1414 -4 c0 -5 -4 -10 -10 -10 -5 0 -10 5 -10 10 0 6 5 10 10 10 6 0 10 -4
10 -10z m1060 -10 c0 -5 -5 -10 -11 -10 -5 0 -7 5 -4 10 3 6 8 10 11 10 2 0 4
-4 4 -10z m140 -15 c0 -14 -4 -25 -10 -25 -5 0 -10 11 -10 25 0 14 5 25 10 25
6 0 10 -11 10 -25z m-84 1 c3 -8 4 -23 2 -33 -3 -13 -7 -9 -15 15 -12 31 1 48
13 18z m215 -81 c34 -60 35 -72 8 -125 -25 -48 -45 -64 -36 -29 26 95 19 156
-23 199 -17 17 -30 36 -30 42 0 20 51 -35 81 -87z m-94 53 c-3 -7 -5 -2 -5 12
0 14 2 19 5 13 2 -7 2 -19 0 -25z m-3080 -25 c-3 -10 -5 -2 -5 17 0 19 2 27 5
18 2 -10 2 -26 0 -35z m3269 22 c42 -32 71 -80 79 -130 6 -39 6 -40 -9 -15
-15 24 -16 22 -11 -35 l4 -60 -11 55 c-8 39 -13 50 -17 36 -6 -14 -15 0 -40
60 -53 128 -53 133 5 89z m-1361 -17 c-9 -44 -25 -60 -25 -26 0 33 9 58 22 58
6 0 7 -13 3 -32z m-2093 -76 c3 -54 -5 -68 -17 -30 -10 28 -8 95 2 110 9 14
10 7 15 -80z m3318 52 c6 -14 10 -48 10 -75 l0 -51 -29 30 c-28 27 -29 31 -19
75 11 53 24 60 38 21z m-779 -37 c-8 -8 -11 -5 -11 9 0 27 14 41 18 19 2 -9
-1 -22 -7 -28z m592 23 c3 -11 1 -18 -4 -14 -5 3 -9 12 -9 20 0 20 7 17 13 -6z
m34 -2 c-3 -8 -6 -5 -6 6 -1 11 2 17 5 13 3 -3 4 -12 1 -19z m-3088 -30 c-1
-40 -1 -41 -9 -15 -8 26 -4 57 6 57 2 0 4 -19 3 -42z m2408 -10 c-3 -7 -5 -2
-5 12 0 14 2 19 5 13 2 -7 2 -19 0 -25z m710 10 c-3 -8 -6 -5 -6 6 -1 11 2 17
5 13 3 -3 4 -12 1 -19z m-285 -29 l-9 -24 -8 24 c-5 16 -3 26 6 32 18 11 22
-1 11 -32z m97 -73 c45 -43 40 -62 -6 -33 -39 24 -66 78 -55 107 4 10 9 6 18
-15 7 -17 26 -43 43 -59z m284 33 c11 -18 1 -89 -13 -89 -6 0 -10 9 -10 20 0
11 -7 23 -15 26 -18 7 -20 35 -3 52 15 15 28 11 41 -9z m282 -10 c9 -16 15
-45 13 -62 -4 -32 -4 -31 -16 13 -7 25 -15 53 -18 63 -8 27 4 20 21 -14z
m-3520 -24 l6 -30 -15 25 c-17 28 -22 60 -7 45 5 -6 12 -23 16 -40z m2015 30
c0 -8 -2 -15 -4 -15 -2 0 -6 7 -10 15 -3 8 -1 15 4 15 6 0 10 -7 10 -15z m60
-6 c0 -6 -4 -7 -10 -4 -5 3 -10 11 -10 16 0 6 5 7 10 4 6 -3 10 -11 10 -16z
m47 -41 c-2 -13 -4 -3 -4 22 0 25 2 35 4 23 2 -13 2 -33 0 -45z m-1181 -26
c-4 -3 -11 -1 -18 6 -8 8 -8 15 3 28 13 16 14 16 17 -5 2 -13 1 -25 -2 -29z
m2563 -24 c1 -16 -3 -28 -9 -28 -6 0 -10 24 -9 53 1 41 3 47 9 27 4 -14 8 -37
9 -52z m-599 41 c0 -6 -4 -7 -10 -4 -5 3 -10 11 -10 16 0 6 5 7 10 4 6 -3 10
-11 10 -16z m411 -42 c-13 -13 -15 11 -4 40 7 16 8 15 11 -6 2 -13 -1 -28 -7
-34z m-3318 -5 c-6 -13 -8 -13 -14 4 -4 10 -8 26 -8 34 0 12 3 11 14 -3 7 -11
11 -26 8 -35z m3136 -46 c-9 -8 -10 -3 -5 23 3 18 7 41 8 50 1 9 3 -1 5 -23 3
-22 -1 -43 -8 -50z m161 59 c0 -15 -34 -85 -41 -85 -15 0 -10 53 8 72 15 17
33 24 33 13z m-3273 -57 c-3 -7 -5 -2 -5 12 0 14 2 19 5 13 2 -7 2 -19 0 -25z
m3533 24 c0 -5 -7 -17 -16 -28 -8 -10 -14 -14 -11 -9 2 6 7 18 10 28 7 17 17
23 17 9z m-526 -33 c-10 -16 -24 -9 -24 12 0 18 2 19 15 9 8 -7 12 -16 9 -21z
m202 -26 c-11 -11 -19 6 -11 24 8 17 8 17 12 0 3 -10 2 -21 -1 -24z m274 23
c0 -8 -4 -18 -10 -21 -5 -3 -10 3 -10 14 0 12 5 21 10 21 6 0 10 -6 10 -14z
m-3517 -21 c4 -8 2 -17 -3 -20 -6 -4 -10 3 -10 14 0 25 6 27 13 6z m2044 -32
c-3 -27 1 -66 9 -92 16 -55 16 -51 5 -51 -5 0 -19 20 -31 45 -21 43 -21 46 -5
95 9 27 19 50 22 50 3 0 3 -21 0 -47z m1099 -10 c-11 -11 -19 6 -11 24 8 17 8
17 12 0 3 -10 2 -21 -1 -24z m448 11 c10 -25 7 -37 -15 -74 -20 -32 -22 -33
-35 -15 -27 37 -11 105 25 105 11 0 22 -7 25 -16z m-3624 -31 c-1 -13 -29 -59
-30 -48 0 21 13 55 21 55 5 0 9 -3 9 -7z m-10 -194 c0 -39 20 -89 35 -89 16 0
26 -37 18 -68 -18 -71 -74 65 -79 193 l-4 90 14 -50 c9 -27 15 -62 16 -76z
m2060 91 c0 -11 -4 -20 -10 -20 -5 0 -10 9 -10 20 0 11 5 20 10 20 6 0 10 -9
10 -20z m1256 -45 c-17 -43 -41 -73 -52 -63 -8 8 34 110 48 119 20 13 22 -9 4
-56z m-3245 4 c-10 -23 -10 -23 -10 7 -1 17 2 34 7 38 11 12 14 -18 3 -45z
m3309 -14 c-7 -8 -16 -15 -21 -15 -15 0 -10 22 9 43 15 17 17 17 20 3 2 -9 -2
-23 -8 -31z m90 35 c0 -5 -5 -10 -11 -10 -5 0 -7 5 -4 10 3 6 8 10 11 10 2 0
4 -4 4 -10z m-125 -60 c3 -5 1 -10 -4 -10 -6 0 -11 5 -11 10 0 6 2 10 4 10 3
0 8 -4 11 -10z m175 -9 c0 -20 -49 -86 -57 -77 -8 7 41 96 53 96 2 0 4 -9 4
-19z m6 -63 c-19 -27 -21 -19 -4 18 7 14 14 21 16 15 2 -6 -4 -21 -12 -33z
m-300 -25 c-12 -12 -29 15 -21 34 7 17 8 16 18 -5 5 -12 7 -25 3 -29z m340
-88 l-15 -40 0 44 c-1 24 5 62 12 85 l12 41 3 -45 c1 -25 -4 -63 -12 -85z
m-1696 54 c-30 -27 -64 -55 -75 -61 -11 -5 9 17 45 50 36 34 70 61 75 61 6 0
-15 -22 -45 -50z m1667 11 c-12 -43 -14 -45 -37 -30 -12 8 -10 14 15 40 16 16
30 30 30 30 1 0 -3 -18 -8 -40z m-3417 -42 c0 -10 -2 -18 -5 -18 -6 0 -45 76
-45 87 1 16 50 -53 50 -69z m3515 -12 c8 -40 -9 -78 -54 -120 -36 -35 -37 -33
-11 18 10 21 25 63 31 92 13 58 25 62 34 10z m-125 -11 c0 -23 -22 -65 -31
-59 -11 6 -12 58 -2 67 12 12 33 7 33 -8z m-3430 -21 c0 -8 -4 -14 -10 -14 -5
0 -10 9 -10 21 0 11 5 17 10 14 6 -3 10 -13 10 -21z m3368 -19 c2 -22 -6 -44
-29 -74 l-31 -44 -15 32 c-15 29 -14 34 8 76 29 55 62 60 67 10z m-155 -37
c-45 -65 -48 -68 -38 -43 4 11 10 31 12 45 6 27 29 50 50 50 8 0 -2 -21 -24
-52z m214 -11 c-10 -18 -34 -41 -52 -52 -19 -10 -35 -24 -35 -31 0 -13 -38
-39 -46 -32 -2 3 16 28 41 57 25 29 45 57 45 62 0 4 6 6 14 3 9 -3 20 3 28 15
20 32 24 14 5 -22z m-347 3 c-6 -11 -13 -20 -16 -20 -2 0 0 9 6 20 6 11 13 20
16 20 2 0 0 -9 -6 -20z m389 -12 c-23 -44 -51 -78 -72 -89 -18 -9 -16 -5 9 22
17 19 38 46 47 62 21 33 33 36 16 5z m-3429 -20 c0 -36 -4 -35 -14 5 -4 16 -2
27 4 27 5 0 10 -14 10 -32z m3240 -31 c0 -13 -6 -32 -14 -42 -12 -16 -16 -17
-30 -6 -14 12 -14 16 7 42 27 34 37 36 37 6z m-3263 -24 c-3 -10 -5 -4 -5 12
0 17 2 24 5 18 2 -7 2 -21 0 -30z m3028 27 c-3 -5 -13 -10 -21 -10 -8 0 -12 5
-9 10 3 6 13 10 21 10 8 0 12 -4 9 -10z m-3005 -125 c0 -3 -9 3 -20 12 -11 10
-20 27 -20 38 0 16 4 13 20 -13 11 -18 20 -35 20 -37z m2660 55 c0 -5 -7 -10
-15 -10 -8 0 -15 5 -15 10 0 6 7 10 15 10 8 0 15 -4 15 -10z m390 -14 c0 -3
-4 -8 -10 -11 -5 -3 -10 -1 -10 4 0 6 5 11 10 11 6 0 10 -2 10 -4z m-181 -50
c-12 -10 -59 -15 -59 -6 0 5 14 10 32 10 17 0 29 -2 27 -4z m261 -4 c0 -11
-22 -32 -32 -32 -5 0 -4 9 2 20 11 20 30 28 30 12z m160 -2 c0 -9 -32 -30 -46
-30 -4 0 1 9 11 20 19 21 35 26 35 10z m-671 -36 c3 -16 1 -17 -13 -5 -19 16
-21 34 -3 29 6 -3 14 -13 16 -24z m451 13 c0 -2 -10 -12 -21 -23 -22 -19 -22
-19 -10 4 10 18 31 31 31 19z m-270 -27 c0 -5 -4 -10 -10 -10 -5 0 -10 5 -10
10 0 6 5 10 10 10 6 0 10 -4 10 -10z m-2740 -15 c11 -13 10 -14 -4 -9 -9 3
-16 10 -16 15 0 13 6 11 20 -6z m2935 5 c-3 -5 -11 -10 -16 -10 -6 0 -7 5 -4
10 3 6 11 10 16 10 6 0 7 -4 4 -10z m125 -34 c0 -2 -7 -7 -16 -10 -8 -3 -12
-2 -9 4 6 10 25 14 25 6z m-2975 -26 c8 -13 -5 -13 -25 0 -13 8 -13 10 2 10 9
0 20 -4 23 -10z m2955 -30 c0 -23 -40 -43 -74 -38 -17 2 -12 8 24 30 54 33 50
32 50 8z m-2960 -5 c7 -8 8 -15 2 -15 -5 0 -15 7 -22 15 -7 8 -8 15 -2 15 5 0
15 -7 22 -15z m2860 5 c0 -5 -5 -10 -11 -10 -5 0 -7 5 -4 10 3 6 8 10 11 10 2
0 4 -4 4 -10z m-2802 -41 c7 -12 11 -23 8 -26 -8 -9 -36 17 -36 33 0 20 13 17
28 -7z m2632 -64 c0 -7 -103 -65 -115 -65 -5 0 15 16 45 35 51 33 70 41 70 30z
m137 -6 c36 -13 103 -59 103 -70 0 -16 -25 -9 -98 26 -41 19 -70 39 -67 45 8
13 27 13 62 -1z m-2752 -9 c6 -10 -34 -30 -62 -30 -14 0 -14 3 2 20 19 21 50
26 60 10z m2814 -77 l36 -15 -24 -19 -24 -20 -34 33 c-54 52 -43 58 46 21z
m101 -8 c15 -8 63 -24 107 -36 72 -19 155 -58 125 -59 -19 0 -261 91 -268 101
-8 13 3 11 36 -6z m-2662 -22 c13 -13 13 -15 2 -11 -8 3 -28 -6 -44 -21 l-30
-26 15 25 c9 14 19 31 23 38 9 16 14 15 34 -5z m1992 -57 c0 -2 -8 -10 -17
-17 -16 -13 -17 -12 -4 4 13 16 21 21 21 13z m-221 -300 c-23 -37 -43 -65 -46
-63 -6 7 55 130 69 138 26 16 18 -10 -23 -75z"/>
<path d="M1488 3873 c7 -3 16 -2 19 1 4 3 -2 6 -13 5 -11 0 -14 -3 -6 -6z"/>
<path d="M1422 3329 c-23 -10 -45 -26 -49 -36 -3 -10 -15 -28 -26 -40 -21 -23
-27 -77 -13 -127 5 -20 10 -26 18 -18 7 7 6 21 -3 45 -11 30 -10 39 5 61 11
17 25 26 43 26 15 0 63 10 107 22 72 19 88 20 163 10 55 -7 97 -20 126 -37 24
-14 53 -25 64 -25 23 0 69 -49 84 -88 14 -37 28 -16 15 23 -16 47 -69 100
-126 127 -25 11 -52 27 -60 34 -23 19 -167 44 -240 42 -37 -1 -85 -9 -108 -19z"/>
<path d="M1543 3165 c-27 -12 -103 -89 -103 -106 0 -23 26 -18 47 10 46 58 94
81 170 81 48 0 76 -5 94 -18 14 -9 40 -26 57 -38 27 -18 91 -114 76 -114 -3 0
-38 18 -78 40 -64 35 -81 40 -138 40 -65 0 -102 -12 -175 -56 -18 -10 -33 -22
-33 -25 0 -20 41 -50 80 -58 25 -5 55 -13 68 -16 12 -4 22 -3 22 3 0 5 -28 17
-62 26 -94 25 -93 25 -80 38 8 8 15 8 27 -2 13 -10 15 -9 15 8 0 24 40 52 86
59 33 5 34 4 34 -26 0 -45 14 -66 52 -82 18 -7 36 -17 39 -21 3 -4 27 -2 54 7
27 8 51 13 53 11 2 -2 -2 -13 -9 -25 -7 -11 -10 -24 -5 -28 5 -4 13 0 20 11
27 44 49 66 67 66 25 0 24 12 -3 62 -50 90 -156 152 -274 160 -45 3 -83 1
-101 -7z m281 -202 c-19 -14 -38 -17 -31 -5 2 4 7 15 11 26 5 15 9 16 22 5 14
-12 14 -14 -2 -26z m-54 -4 c0 -21 -63 -24 -79 -5 -9 11 -3 13 34 12 25 0 45
-4 45 -7z"/>
<path d="M1460 2913 c0 -25 101 -80 122 -67 14 9 -27 44 -50 44 -12 0 -34 7
-47 16 -14 9 -25 12 -25 7z"/>
<path d="M1255 2868 c-3 -18 -9 -41 -11 -50 -3 -10 -1 -18 4 -18 5 0 12 21 16
47 7 54 1 70 -9 21z"/>
<path d="M1991 2424 c0 -11 3 -14 6 -6 3 7 2 16 -1 19 -3 4 -6 -2 -5 -13z"/>
<path d="M1606 2271 c-6 -10 7 -22 42 -40 12 -6 22 -8 22 -3 0 13 -58 53 -64
43z"/>
<path d="M1142 2231 c-7 -4 -12 -14 -10 -22 3 -15 -8 -16 -67 -5 -38 7 -49 -8
-14 -19 13 -4 18 -12 15 -22 -5 -13 8 -51 23 -63 26 -22 32 -39 19 -60 -11
-17 -11 -22 1 -29 10 -7 8 -12 -10 -26 -16 -11 -20 -19 -11 -22 6 -3 12 -11
12 -18 0 -11 9 -10 48 1 87 27 217 29 309 5 94 -24 93 -24 93 -11 0 6 -5 10
-11 10 -6 0 -27 14 -46 30 -18 17 -41 30 -51 30 -11 0 -6 7 16 21 41 27 35 36
-8 14 -23 -12 -35 -14 -43 -6 -6 6 -47 11 -92 11 -129 0 -149 6 -184 55 -17
24 -31 48 -31 53 0 11 58 7 107 -7 40 -12 334 -4 387 10 26 7 41 7 45 0 4 -6
12 -6 21 -1 22 13 -4 65 -28 54 -34 -15 -109 -15 -191 0 -69 13 -94 14 -140 5
-48 -10 -61 -10 -88 4 -36 19 -52 21 -71 8z m77 -27 c18 -13 39 -15 114 -10
95 6 168 -2 167 -18 0 -5 -56 -8 -127 -7 -123 2 -181 14 -197 40 -11 16 16 13
43 -5z"/>
<path d="M215 3009 c-4 -6 -5 -12 -2 -15 2 -3 7 2 10 11 7 17 1 20 -8 4z"/>
<path d="M1010 4340 c-8 -5 -10 -10 -5 -10 6 0 17 5 25 10 8 5 11 10 5 10 -5
0 -17 -5 -25 -10z"/>
<path d="M1195 1471 c-3 -6 -11 -9 -16 -6 -14 9 -143 -264 -179 -378 -17 -56
-45 -136 -60 -177 -17 -43 -25 -77 -20 -80 6 -4 1 -27 -10 -58 -21 -56 -26
-102 -11 -102 11 0 -16 -85 -36 -115 -7 -11 -13 -28 -13 -37 0 -10 -10 -22
-22 -27 -30 -11 -226 -40 -348 -52 -207 -19 -240 -25 -240 -40 0 -7 10 -9 28
-4 26 7 415 27 538 29 34 0 79 -5 100 -11 156 -47 365 -83 495 -87 83 -3 110
-9 228 -51 105 -38 144 -57 184 -92 29 -24 63 -46 77 -49 14 -2 57 -14 95 -26
39 -11 97 -27 129 -35 33 -7 66 -19 73 -25 7 -6 16 -8 19 -5 12 12 -8 27 -49
37 -158 40 -227 64 -272 96 -28 18 -85 49 -128 68 -88 38 -100 46 -69 46 47 0
19 32 -43 49 -65 18 -333 59 -427 65 -49 3 -122 17 -165 31 -43 13 -98 27
-123 31 -25 4 -39 9 -32 12 19 6 14 22 -8 22 -11 0 -20 4 -20 9 0 15 29 79 39
85 4 3 11 28 15 55 4 28 36 137 72 243 36 106 71 213 79 238 7 25 41 112 75
194 33 81 59 150 57 153 -3 2 -8 -1 -12 -6z m-127 -268 c-17 -63 -70 -195 -75
-189 -9 9 69 226 81 226 2 0 0 -17 -6 -37z m-125 -770 c-7 -2 -19 -2 -25 0 -7
3 -2 5 12 5 14 0 19 -2 13 -5z m232 -55 c14 -6 5 -7 -28 -3 -27 2 -56 10 -65
15 -21 13 61 3 93 -12z m199 -14 c26 -9 46 -18 44 -19 -4 -4 -160 24 -166 30
-12 12 78 4 122 -11z m234 -34 c28 -7 55 -16 58 -21 6 -10 -17 -7 -103 17 -29
8 -53 17 -53 19 0 6 9 4 98 -15z"/>
<path d="M2140 1315 c0 -8 -9 -19 -20 -25 -11 -6 -20 -16 -20 -23 0 -7 -20
-35 -45 -62 -35 -40 -44 -46 -45 -30 -1 18 -2 17 -15 -5 -8 -14 -14 -33 -15
-44 -1 -49 -87 -269 -125 -316 -6 -8 -19 -67 -28 -130 -10 -64 -26 -141 -36
-170 -26 -75 -36 -124 -23 -116 5 3 18 36 27 73 10 38 35 118 55 178 21 61 41
124 45 140 14 64 36 131 51 150 13 17 16 18 24 5 7 -11 10 -8 10 15 0 30 81
198 101 211 15 9 3 -136 -31 -386 -26 -194 -31 -350 -10 -350 8 0 20 98 20
160 0 21 6 53 14 71 8 19 14 53 14 75 1 23 7 66 15 95 24 87 59 499 43 499 -3
0 -6 -7 -6 -15z m-21 -255 c-12 -114 -36 -261 -45 -269 -4 -3 -4 10 0 29 11
61 25 232 26 302 0 36 3 75 7 85 14 34 21 -58 12 -147z m-89 56 c-17 -31 -34
-56 -37 -56 -13 0 12 68 35 92 38 41 38 27 2 -36z m-63 -118 c-3 -7 -5 -2 -5
12 0 14 2 19 5 13 2 -7 2 -19 0 -25z m-96 -247 c-12 -39 -24 -71 -27 -71 -10
0 7 93 23 123 24 48 26 22 4 -52z"/>
</g>
</svg>
