<?xml version="1.0" standalone="no"?>
<!DOCTYPE svg PUBLIC "-//W3C//DTD SVG 20010904//EN"
 "http://www.w3.org/TR/2001/REC-SVG-20010904/DTD/svg10.dtd">
<svg version="1.0" xmlns="http://www.w3.org/2000/svg"
 width="111.000000pt" height="139.000000pt" viewBox="0 0 111.000000 139.000000"
 preserveAspectRatio="xMidYMid meet">

<g transform="translate(0.000000,139.000000) scale(0.100000,-0.100000)"
fill="#000000" stroke="none">
<path d="M520 1345 c0 -34 -1 -35 -40 -35 -38 0 -40 -2 -40 -29 0 -27 3 -30
38 -33 34 -3 37 -6 37 -32 0 -25 -5 -31 -32 -38 -50 -13 -76 -53 -68 -105 3
-24 4 -43 2 -43 -3 0 -30 12 -62 26 -93 43 -186 24 -268 -55 -48 -45 -66 -79
-77 -144 -18 -117 27 -234 141 -367 l70 -81 -11 -186 c-6 -102 -10 -186 -8
-188 10 -9 269 -25 405 -25 132 0 289 12 299 23 2 2 -2 87 -8 189 l-11 187 60
66 c134 149 179 285 137 424 -19 66 -80 134 -139 157 -67 25 -170 16 -223 -19
l-42 -27 6 44 c10 71 0 95 -51 117 -35 16 -45 25 -45 44 0 20 5 24 38 27 34 3
37 6 40 36 3 31 2 32 -37 32 -40 0 -41 1 -41 35 0 33 -2 35 -35 35 -33 0 -35
-2 -35 -35z m89 -252 c6 -13 11 -39 11 -57 0 -77 -55 -285 -71 -269 -5 5 -20
53 -34 107 -26 104 -32 194 -14 227 23 45 86 40 108 -8z m-276 -107 c102 -43
160 -178 173 -402 l7 -111 -109 -7 -109 -8 -75 79 c-94 98 -131 164 -137 247
-6 70 13 120 65 169 47 45 124 59 185 33z m574 -1 c73 -31 113 -92 113 -174 0
-92 -48 -183 -155 -299 l-54 -59 -53 4 c-29 2 -77 6 -107 9 l-54 6 7 106 c14
225 70 357 171 403 49 23 84 24 132 4z m-192 -605 c49 -6 90 -12 91 -13 1 -1
5 -22 9 -46 l7 -44 -53 8 c-169 23 -341 23 -453 -1 -29 -6 -29 -6 -23 36 3 23
8 45 12 48 20 20 273 27 410 12z m68 -160 c41 -10 47 -15 47 -37 l0 -25 -77 8
c-100 11 -329 12 -410 1 l-63 -9 0 26 c0 26 22 36 105 50 53 8 348 -2 398 -14z
m-86 -100 c35 -6 75 -16 90 -22 27 -11 26 -12 -27 -19 -110 -14 -475 -6 -465
11 2 4 30 12 62 19 32 7 63 15 68 16 24 8 216 4 272 -5z"/>
</g>
</svg>
