<?xml version="1.0" standalone="no"?>
<!DOCTYPE svg PUBLIC "-//W3C//DTD SVG 20010904//EN"
 "http://www.w3.org/TR/2001/REC-SVG-20010904/DTD/svg10.dtd">
<svg version="1.0" xmlns="http://www.w3.org/2000/svg"
 width="70.000000pt" height="50.000000pt" viewBox="0 0 70.000000 50.000000"
 preserveAspectRatio="xMidYMid meet">

<g transform="translate(0.000000,50.000000) scale(0.100000,-0.100000)"
fill="#000000" stroke="none">
<path d="M348 475 c-3 -6 -16 -49 -28 -97 -13 -49 -26 -88 -31 -88 -4 0 -29
-9 -56 -21 l-48 -21 53 -20 c60 -22 63 -27 88 -130 11 -43 22 -78 25 -78 3 0
13 35 23 78 10 42 22 85 27 94 5 9 33 25 61 36 l53 20 -57 25 c-62 28 -56 18
-90 157 -8 30 -17 50 -20 45z"/>
</g>
</svg>
