<?xml version="1.0" standalone="no"?>
<!DOCTYPE svg PUBLIC "-//W3C//DTD SVG 20010904//EN"
 "http://www.w3.org/TR/2001/REC-SVG-20010904/DTD/svg10.dtd">
<svg version="1.0" xmlns="http://www.w3.org/2000/svg"
 width="50.000000pt" height="51.000000pt" viewBox="0 0 50.000000 51.000000"
 preserveAspectRatio="xMidYMid meet">

<g transform="translate(0.000000,51.000000) scale(0.100000,-0.100000)"
fill="#000000" stroke="none">
<path d="M234 496 c-9 -23 0 -51 16 -51 10 0 15 10 15 29 0 32 -21 47 -31 22z"/>
<path d="M125 468 c-8 -20 12 -61 28 -55 19 6 18 23 -2 48 -17 21 -20 22 -26
7z"/>
<path d="M344 455 c-13 -20 -14 -29 -5 -38 10 -9 16 -8 27 7 8 11 14 25 14 32
0 25 -19 24 -36 -1z"/>
<path d="M35 379 c-7 -11 22 -38 42 -39 23 0 23 19 1 34 -26 19 -35 20 -43 5z"/>
<path d="M421 374 c-16 -12 -20 -19 -12 -27 13 -13 63 11 58 27 -6 17 -21 17
-46 0z"/>
<path d="M0 255 c0 -10 11 -15 35 -15 24 0 35 5 35 15 0 10 -11 15 -35 15 -24
0 -35 -5 -35 -15z"/>
<path d="M430 255 c0 -10 11 -15 35 -15 24 0 35 5 35 15 0 10 -11 15 -35 15
-24 0 -35 -5 -35 -15z"/>
<path d="M46 151 c-12 -13 -14 -21 -6 -26 14 -9 63 23 55 35 -10 16 -30 12
-49 -9z"/>
<path d="M405 160 c-3 -5 6 -17 20 -26 20 -13 29 -14 37 -6 9 9 7 16 -8 27
-22 17 -40 19 -49 5z"/>
<path d="M132 80 c-14 -24 -16 -50 -2 -50 14 0 43 48 35 60 -9 15 -19 12 -33
-10z"/>
<path d="M335 90 c-4 -6 1 -22 10 -37 22 -34 44 -16 27 22 -12 26 -26 32 -37
15z"/>
<path d="M234 56 c-9 -23 0 -51 16 -51 10 0 15 10 15 29 0 32 -21 47 -31 22z"/>
</g>
</svg>
