<svg width="34" height="34" xmlns="http://www.w3.org/2000/svg" xmlns:xlink="http://www.w3.org/1999/xlink" overflow="hidden"><defs><clipPath id="clip0"><rect x="111" y="358" width="34" height="34"/></clipPath></defs><g clip-path="url(#clip0)" transform="translate(-111 -358)"><path d="M15.9653 4.50296C15.9965 4.50992 16.0416 4.4995 16.2948 4.43349 16.4648 4.38834 16.5584 4.33277 16.7388 4.15908 16.9192 3.9854 16.9712 3.90202 17.051 3.64845 17.0787 3.56507 17.0926 3.11698 17.0926 2.24507 17.0926 0.994537 17.0857 0.886862 16.9781 0.6298 16.9226 0.504756 16.607 0.181708 16.4856 0.129602 16.1595-0.00934523 15.9757-0.0336656 15.7502 0.0427601 15.4901 0.126115 15.4068 0.17822 15.2334 0.358857 14.9143 0.695809 14.9074 0.730546 14.9074 2.24507 14.9074 3.51991 14.9143 3.60329 15.0322 3.8777 15.0843 3.99928 15.4068 4.3154 15.5317 4.37097 15.6046 4.40224 15.8543 4.47867 15.9653 4.50296ZM22.324 6.18469C22.3517 6.17428 22.435 6.15691 22.5078 6.14649 22.5772 6.13954 22.6466 6.11871 22.657 6.10134 22.6674 6.08397 22.7021 6.07007 22.7333 6.07007 22.768 6.07007 22.8165 6.03882 22.8443 6.00059 22.872 5.96239 22.9206 5.93112 22.9484 5.93112 23.0177 5.93112 23.1912 5.75397 23.1912 5.6845 23.1912 5.65671 23.2224 5.61154 23.2605 5.58375 23.2987 5.55597 23.3299 5.50733 23.3299 5.47259 23.3299 5.43785 23.3472 5.41007 23.3646 5.41007 23.3854 5.41007 23.3993 5.37882 23.3993 5.34059 23.3993 5.30239 23.4166 5.27112 23.434 5.27112 23.4548 5.27112 23.4686 5.23987 23.4686 5.20165 23.4686 5.16344 23.4825 5.13217 23.4964 5.13217 23.5137 5.13217 23.5484 5.09048 23.5727 5.03838 23.6004 4.98281 23.6455 4.91333 23.6768 4.87513 23.7045 4.84039 23.7253 4.80217 23.7253 4.78829 23.7149 4.74311 23.7739 4.62502 23.8294 4.57987 23.8606 4.55206 23.9334 4.43397 23.9889 4.31239 24.0479 4.19081 24.1103 4.08311 24.1277 4.0727 24.1485 4.05882 24.1936 3.98239 24.2317 3.89901 24.2699 3.81566 24.315 3.73923 24.3323 3.72533 24.3878 3.69408 24.4745 3.49607 24.4745 3.40923 24.4745 3.36408 24.4919 3.3189 24.5092 3.30848 24.5578 3.2807 24.5543 2.99585 24.5058 2.84302 24.4294 2.61028 24.3913 2.54427 24.2178 2.36017 23.982 2.11006 23.7496 2.00585 23.434 2.00585 23.3022 2.00585 23.1842 2.02322 23.1738 2.04059 23.1634 2.06144 23.1218 2.07532 23.0836 2.07532 23.049 2.07532 23.0177 2.09269 23.0177 2.11006 23.0177 2.13092 22.9934 2.1448 22.9622 2.1448 22.8894 2.1448 22.4974 2.53386 22.4974 2.60679 22.4974 2.64153 22.4835 2.66585 22.4627 2.66585 22.4454 2.66585 22.4281 2.69712 22.4281 2.73533 22.4281 2.77355 22.4142 2.8048 22.3968 2.8048 22.383 2.8048 22.3171 2.90901 22.2546 3.04101 22.1887 3.16954 22.0985 3.31544 22.05 3.37101 22.0049 3.42311 21.9771 3.4648 21.9945 3.4648 22.0084 3.4648 21.9945 3.49607 21.9598 3.53427 21.9251 3.5725 21.9112 3.60375 21.9251 3.60375 21.9425 3.60375 21.9147 3.64544 21.8696 3.70101 21.8211 3.75311 21.7378 3.88513 21.6858 3.99281 21.6337 4.10397 21.5783 4.20123 21.5609 4.21164 21.5193 4.23596 21.4222 4.43743 21.4222 4.49649 21.4222 4.52081 21.4083 4.54164 21.3875 4.54164 21.3701 4.54164 21.3528 4.57292 21.3528 4.61112 21.3528 4.64934 21.3389 4.68059 21.325 4.68059 21.2765 4.68059 21.214 4.90638 21.214 5.09397 21.214 5.37533 21.5054 5.93112 21.6511 5.93112 21.6719 5.93112 21.7101 5.95544 21.7343 5.98323 21.7968 6.05619 21.9737 6.13954 22.0777 6.13954 22.1263 6.13954 22.1922 6.15691 22.2199 6.17428 22.2477 6.19165 22.2963 6.1986 22.324 6.18469ZM9.7453 6.18469C9.77305 6.17428 9.8459 6.15691 9.90139 6.14996 10.0367 6.12913 10.2101 6.04923 10.2656 5.98323 10.2899 5.95544 10.328 5.93112 10.3488 5.93112 10.4217 5.93112 10.5639 5.74702 10.6749 5.50733 10.7616 5.32671 10.7859 5.22943 10.7859 5.06618 10.7859 4.95153 10.772 4.84732 10.7512 4.83691 10.7339 4.82649 10.7165 4.7848 10.7165 4.7466 10.7165 4.71186 10.7026 4.68059 10.6818 4.68059 10.6645 4.68059 10.6471 4.65976 10.6471 4.63544 10.6471 4.57987 10.5015 4.28461 10.4321 4.20123 10.4043 4.16995 10.3454 4.06574 10.3003 3.96849 10.2552 3.87469 10.1789 3.75311 10.1303 3.70101 10.0818 3.64544 10.0575 3.60375 10.0748 3.60375 10.0887 3.60375 10.0748 3.5725 10.0401 3.53427 10.0054 3.49607 9.99156 3.4648 10.0054 3.4648 10.0228 3.4648 9.99504 3.42311 9.94996 3.37101 9.90139 3.31544 9.81121 3.16954 9.7453 3.04101 9.68287 2.90901 9.61696 2.8048 9.6031 2.8048 9.58575 2.8048 9.57187 2.77355 9.57187 2.73533 9.57187 2.69712 9.55799 2.66585 9.53718 2.66585 9.51984 2.66585 9.5025 2.63807 9.5025 2.60333 9.5025 2.5269 9.11055 2.1448 9.03424 2.1448 9.00649 2.1448 8.98221 2.13092 8.98221 2.11006 8.98221 2.09269 8.95098 2.07532 8.9163 2.07532 8.87815 2.07532 8.83652 2.06144 8.82612 2.04059 8.81572 2.02322 8.69778 2.00585 8.56598 2.00585 8.25034 2.00585 8.01794 2.11006 7.78554 2.36017 7.58088 2.57554 7.52539 2.66934 7.52539 2.78397 7.52539 2.83258 7.51151 2.88123 7.49071 2.89164 7.44908 2.91943 7.44562 3.23555 7.48725 3.3189 7.50459 3.35017 7.53928 3.44397 7.56354 3.52732 7.58782 3.60724 7.62945 3.69059 7.65374 3.71491 7.68148 3.73574 7.73351 3.82259 7.7682 3.9025 7.80634 3.98585 7.85145 4.05882 7.86879 4.0727 7.88614 4.08311 7.94509 4.18039 7.99712 4.29153 8.04914 4.39923 8.1324 4.53123 8.18097 4.5868 8.22606 4.6389 8.2538 4.68059 8.23646 4.68059 8.22257 4.68059 8.23646 4.71186 8.27114 4.75007 8.30583 4.78829 8.31971 4.81954 8.30583 4.81954 8.29195 4.81954 8.29889 4.84732 8.32663 4.88206 8.3544 4.91333 8.39949 4.98281 8.42723 5.03838 8.45152 5.09048 8.4862 5.13217 8.50354 5.13217 8.51741 5.13217 8.53129 5.16344 8.53129 5.20165 8.53129 5.23987 8.54863 5.27112 8.56598 5.27112 8.58678 5.27112 8.60066 5.30239 8.60066 5.34059 8.60066 5.37882 8.618 5.41007 8.63535 5.41007 8.65615 5.41007 8.67003 5.43785 8.67003 5.47259 8.67003 5.50733 8.70126 5.55597 8.73941 5.58375 8.77755 5.61154 8.80878 5.66018 8.80878 5.68796 8.80878 5.75744 8.98567 5.93112 9.05504 5.93112 9.08281 5.93112 9.12789 5.96239 9.15564 6.00059 9.18338 6.03882 9.23195 6.07007 9.26664 6.07007 9.29784 6.07007 9.33601 6.08744 9.34641 6.1048 9.35681 6.12566 9.41924 6.13954 9.47821 6.13954 9.54064 6.13954 9.6135 6.15691 9.64124 6.17428 9.66899 6.19165 9.71756 6.1986 9.7453 6.18469ZM4.77343 10.7473C4.96766 10.8272 5.25209 10.7994 5.50184 10.6813 5.74118 10.5702 5.92501 10.4277 5.92501 10.3548 5.92501 10.334 5.9493 10.2958 5.97704 10.2714 6.05681 10.2054 6.13313 10.0283 6.13313 9.90669 6.13313 9.84764 6.15047 9.78165 6.17127 9.76079 6.19902 9.73301 6.19902 9.70174 6.17127 9.65312 6.15047 9.61489 6.13313 9.535 6.13313 9.47595 6.13313 9.42038 6.11924 9.36132 6.09844 9.3509 6.0811 9.34049 6.06375 9.30226 6.06375 9.27101 6.06375 9.23628 6.03253 9.18764 5.99438 9.15985 5.95621 9.13207 5.92501 9.08342 5.92501 9.05564 5.92501 8.98963 5.75158 8.81248 5.68915 8.81248 5.66487 8.81248 5.61284 8.78121 5.57121 8.74301 5.52958 8.70481 5.47409 8.67353 5.44981 8.67353 5.42552 8.67353 5.40472 8.65963 5.40472 8.6388 5.40472 8.62143 5.37349 8.60406 5.33535 8.60406 5.29718 8.60406 5.26598 8.59016 5.26598 8.56932 5.26598 8.55196 5.23475 8.53459 5.1966 8.53459 5.15843 8.53459 5.12723 8.52068 5.12723 8.50331 5.12723 8.48595 5.01277 8.41647 4.87055 8.347 4.72834 8.27752 4.59306 8.19763 4.57225 8.16638 4.54797 8.13858 4.43003 8.0691 4.30863 8.01353 4.18723 7.95448 4.07971 7.89195 4.06931 7.87459 4.05542 7.85375 3.97911 7.80858 3.89588 7.77037 3.81262 7.73217 3.73631 7.687 3.72245 7.66963 3.69122 7.61406 3.4935 7.52722 3.40679 7.52722 3.3617 7.52722 3.31661 7.51331 3.30621 7.49248 3.27847 7.44384 2.99404 7.44733 2.84141 7.49594 2.60901 7.57237 2.54312 7.61059 2.35929 7.78428 2.10954 8.02048 2.00549 8.25323 2.00549 8.56932 2.00549 8.70132 2.02283 8.81943 2.04017 8.82985 2.06098 8.84027 2.07486 8.88196 2.07486 8.92016 2.07486 8.95489 2.0922 8.98617 2.10954 8.98617 2.13035 8.98617 2.14423 9.01049 2.14423 9.04174 2.14423 9.12165 2.52578 9.50722 2.60209 9.50722 2.63678 9.50722 2.66452 9.52459 2.66452 9.54196 2.66452 9.56279 2.69573 9.57669 2.73389 9.57669 2.77204 9.57669 2.80327 9.5906 2.80327 9.60797 2.80327 9.62185 2.90732 9.68786 3.03913 9.75038 3.16747 9.81639 3.31316 9.90669 3.36864 9.95534 3.42067 10.0005 3.4623 10.0283 3.4623 10.0109 3.4623 9.997 3.4935 10.0109 3.53167 10.0456 3.56982 10.0804 3.60104 10.0943 3.60104 10.0804 3.60104 10.063 3.64267 10.0873 3.69816 10.1359 3.75019 10.1846 3.87159 10.261 3.96525 10.3062 4.06237 10.3513 4.16642 10.4104 4.19765 10.4382 4.28088 10.5076 4.57571 10.6535 4.63123 10.6535 4.65549 10.6535 4.67631 10.6674 4.67631 10.6813 4.67631 10.6987 4.71794 10.7265 4.77343 10.7473ZM26.9039 10.7925C27.0947 10.7925 27.3236 10.7334 27.3236 10.6813 27.3236 10.6674 27.3444 10.6535 27.3687 10.6535 27.4242 10.6535 27.7191 10.5076 27.8023 10.4382 27.8335 10.4104 27.941 10.3513 28.0347 10.3061 28.1318 10.261 28.2498 10.1846 28.3053 10.1359 28.3573 10.0873 28.3989 10.063 28.3989 10.0804 28.3989 10.0943 28.4301 10.0804 28.4683 10.0456 28.5064 10.0109 28.5377 9.997 28.5377 10.0109 28.5377 10.0282 28.5793 10.0005 28.6348 9.95531 28.6868 9.90667 28.8325 9.81636 28.9643 9.75036 29.0926 9.68783 29.1967 9.62185 29.1967 9.60794 29.1967 9.59057 29.2279 9.57667 29.2661 9.57667 29.3042 9.57667 29.3354 9.56279 29.3354 9.54193 29.3354 9.52457 29.3632 9.5072 29.3979 9.5072 29.4742 9.5072 29.8557 9.12163 29.8557 9.04174 29.8557 9.01046 29.8731 8.98614 29.8904 8.98614 29.9112 8.98614 29.9251 8.95489 29.9251 8.92016 29.9251 8.88193 29.9424 8.84027 29.9598 8.82983 29.9806 8.81941 29.9945 8.70132 29.9945 8.5693 29.9945 8.38869 29.9737 8.28448 29.9112 8.14553 29.821 7.95448 29.5227 7.63836 29.3701 7.57237 29.0961 7.45772 28.8117 7.42298 28.6833 7.48899 28.6521 7.50636 28.5585 7.5411 28.4752 7.56542 28.3954 7.58974 28.3122 7.6314 28.2879 7.65573 28.2671 7.68351 28.1804 7.73561 28.1006 7.77035 28.0174 7.80858 27.9445 7.85373 27.9306 7.87456 27.9202 7.89193 27.8127 7.95448 27.6913 8.01351 27.5699 8.0691 27.452 8.13858 27.4277 8.16636 27.4069 8.19763 27.2716 8.27752 27.1294 8.347 26.9872 8.41647 26.8727 8.48595 26.8727 8.50331 26.8727 8.52068 26.8415 8.53456 26.8034 8.53456 26.7652 8.53456 26.734 8.55193 26.734 8.5693 26.734 8.59016 26.7028 8.60404 26.6646 8.60404 26.6265 8.60404 26.5952 8.62141 26.5952 8.63877 26.5952 8.65963 26.5709 8.67351 26.5432 8.67351 26.5155 8.67351 26.4599 8.70478 26.4218 8.74299 26.3837 8.78121 26.3351 8.81246 26.3108 8.81246 26.2484 8.81246 26.0749 8.98963 26.0749 9.05562 26.0749 9.08342 26.0437 9.13204 26.0056 9.15983 25.9674 9.18764 25.9362 9.23625 25.9362 9.27099 25.9362 9.30226 25.9223 9.34046 25.9015 9.35088 25.8842 9.36132 25.8668 9.42035 25.8668 9.47595 25.8668 9.535 25.8495 9.61489 25.8287 9.6531 25.8009 9.70174 25.8009 9.73299 25.8287 9.76079 25.8495 9.78163 25.8668 9.84764 25.8668 9.90667 25.8668 10.0282 25.9431 10.2054 26.0229 10.2714 26.0507 10.2957 26.0749 10.334 26.0749 10.3548 26.0749 10.4277 26.2414 10.5597 26.4842 10.6744 26.6577 10.7612 26.7652 10.789 26.9039 10.7925ZM29.7371 17.0959C31.0344 17.0993 31.1107 17.0924 31.3882 16.9743 31.4923 16.9291 31.9328 16.5088 31.8773 16.5088 31.8599 16.5088 31.8669 16.4845 31.8912 16.4567 31.912 16.4289 31.9362 16.3733 31.9432 16.3282 31.9501 16.283 31.9709 16.1927 31.9883 16.1267 32.0056 16.0572 32.0021 15.953 31.9883 15.8835 31.9709 15.8175 31.9501 15.7272 31.9432 15.6821 31.9362 15.6369 31.912 15.5813 31.8912 15.5535 31.8669 15.5258 31.8599 15.5014 31.8773 15.5014 31.9328 15.5014 31.4923 15.0811 31.3882 15.0359 31.1142 14.9179 31.0309 14.9109 29.758 14.9109 28.485 14.9109 28.4017 14.9179 28.1277 15.0359 28.0167 15.0846 27.708 15.3903 27.6282 15.5327 27.604 15.5779 27.5762 15.6508 27.5727 15.689 27.5658 15.7307 27.545 15.8175 27.5276 15.8835 27.5138 15.953 27.5103 16.0572 27.5276 16.1267 27.545 16.1927 27.5658 16.283 27.5727 16.3282 27.5797 16.3733 27.604 16.4289 27.6248 16.4567 27.649 16.4845 27.656 16.5088 27.6386 16.5088 27.6213 16.5088 27.7011 16.6026 27.8155 16.7207 28.0132 16.9187 28.0965 16.9708 28.3358 17.0542 28.4017 17.0785 28.9359 17.0924 29.7371 17.0959ZM2.22123 17.0959C3.51849 17.0993 3.59479 17.0924 3.87227 16.9743 3.97633 16.9291 4.41685 16.5088 4.36136 16.5088 4.34402 16.5088 4.35096 16.4845 4.37522 16.4567 4.43073 16.3907 4.45502 16.2552 4.45502 16.0051 4.45502 15.7585 4.43419 15.6473 4.37176 15.5327 4.29199 15.3903 3.98327 15.0846 3.87227 15.0359 3.59827 14.9179 3.51501 14.9109 2.24203 14.9109 0.96907 14.9109 0.885814 14.9179 0.611785 15.0359 0.507727 15.0811 0.0672327 15.5014 0.122721 15.5014 0.140064 15.5014 0.133123 15.5258 0.108838 15.5535 0.0880352 15.5813 0.0637504 15.6369 0.0568087 15.6821 0.0498896 15.7272 0.0290644 15.8175 0.0117213 15.8835-0.00213943 15.953-0.00562169 16.0572 0.0117213 16.1267 0.0290644 16.1927 0.0498896 16.283 0.0568087 16.3282 0.0637504 16.3733 0.0880352 16.4289 0.108838 16.4567 0.133123 16.4845 0.140064 16.5088 0.122721 16.5088 0.105378 16.5088 0.185152 16.6026 0.299611 16.7207 0.497326 16.9187 0.580582 16.9708 0.819902 17.0542 0.885814 17.0785 1.41999 17.0924 2.22123 17.0959ZM15.5273 22.9878C15.3941 22.9846 15.301 22.9776 15.282 22.9663 15.2473 22.949 15.1155 22.9281 14.9871 22.9212 14.8553 22.9142 14.7062 22.8899 14.6542 22.8691 14.5986 22.8482 14.5119 22.8308 14.4564 22.8308 14.4009 22.8308 14.3454 22.817 14.335 22.7961 14.3246 22.7787 14.2622 22.7614 14.1963 22.7614 14.1304 22.7614 14.0679 22.7475 14.0575 22.7266 14.0471 22.7093 13.9916 22.6919 13.9361 22.6919 13.8806 22.6919 13.8251 22.678 13.8147 22.6572 13.8043 22.6398 13.7558 22.6224 13.7107 22.6224 13.6656 22.6224 13.617 22.6085 13.6066 22.5877 13.5962 22.5703 13.5581 22.553 13.5199 22.553 13.4852 22.553 13.3673 22.5078 13.2598 22.4487 13.1522 22.3932 13.0412 22.3445 13.0204 22.3445 12.9511 22.3445 12.6528 22.1848 12.5626 22.0979 12.5175 22.0562 12.4793 22.0319 12.4793 22.0493 12.4793 22.0632 12.4516 22.0528 12.4169 22.0215 12.3822 21.9867 12.344 21.9729 12.3302 21.9833 12.3198 21.9937 12.2712 21.9624 12.2261 21.9138 12.181 21.8652 12.1186 21.8235 12.0943 21.8235 12.0666 21.8235 12.0215 21.7922 11.9937 21.754 11.966 21.7158 11.9244 21.6845 11.9001 21.6845 11.8758 21.6845 11.7891 21.622 11.7093 21.5456 11.626 21.4692 11.5463 21.4066 11.5255 21.4066 11.4804 21.4066 10.6063 20.5278 10.6063 20.4826 10.6063 20.4653 10.5439 20.3854 10.4675 20.302 10.3912 20.2221 10.3288 20.1353 10.3288 20.111 10.3288 20.0866 10.2976 20.045 10.2594 20.0172 10.2213 19.9894 10.1901 19.9442 10.1901 19.9164 10.1901 19.8921 10.1554 19.8365 10.1137 19.7949 10.0687 19.7566 10.034 19.708 10.0305 19.6872 10.027 19.6038 9.94377 19.4614 9.87788 19.4197 9.83971 19.3954 9.80851 19.3572 9.80851 19.3329 9.80851 19.3085 9.77728 19.2356 9.73913 19.1661 9.70096 19.0966 9.66976 19.0202 9.66976 18.9959 9.66976 18.9681 9.62467 18.857 9.5657 18.7493 9.51019 18.6416 9.46165 18.5235 9.46165 18.4887 9.46165 18.4505 9.44776 18.4123 9.42696 18.4019 9.40962 18.3915 9.39227 18.3429 9.39227 18.2977 9.39227 18.2525 9.37839 18.2039 9.35759 18.1935 9.34024 18.1831 9.3229 18.1275 9.3229 18.0719 9.3229 18.0163 9.30902 17.9608 9.28821 17.9503 9.27087 17.9399 9.25353 17.8774 9.25353 17.8114 9.25353 17.7454 9.23965 17.6829 9.21884 17.6724 9.2015 17.662 9.18416 17.6064 9.18416 17.5508 9.18416 17.4953 9.16681 17.4084 9.14599 17.3529 9.12519 17.3008 9.10438 17.1514 9.09396 17.0194 9.08704 16.8908 9.06621 16.7554 9.04887 16.7206 9.00032 16.6303 9.03501 15.3763 9.09744 14.9803 9.12519 14.7997 9.15987 14.5843 9.17027 14.5009 9.18416 14.4211 9.20844 14.3446 9.2223 14.3342 9.23965 14.3238 9.25353 14.2647 9.25353 14.1987 9.25353 14.1327 9.27087 14.0702 9.28821 14.0598 9.30902 14.0494 9.3229 13.9938 9.3229 13.9382 9.3229 13.8826 9.34024 13.8271 9.35759 13.8166 9.37839 13.8062 9.39227 13.7576 9.39227 13.7124 9.39227 13.6673 9.40962 13.6186 9.42696 13.6082 9.44776 13.5978 9.46165 13.5596 9.46165 13.5214 9.46165 13.4866 9.51019 13.3685 9.5657 13.2608 9.62467 13.1532 9.66976 13.042 9.66976 13.0212 9.66976 12.9517 9.82931 12.6529 9.91602 12.5626 9.95765 12.5175 9.98194 12.4793 9.96459 12.4793 9.95071 12.4793 9.96459 12.448 9.99928 12.4098 10.034 12.3716 10.0548 12.3299 10.0409 12.3195 10.0305 12.3091 10.0582 12.2639 10.1068 12.2187 10.1519 12.1771 10.1901 12.118 10.1901 12.0937 10.1901 12.0659 10.2213 12.0207 10.2594 11.9929 10.2976 11.9652 10.3288 11.9235 10.3288 11.8992 10.3288 11.8748 10.3912 11.788 10.4675 11.7081 10.5439 11.6247 10.6063 11.5448 10.6063 11.5275 10.6063 11.4823 11.4804 10.6035 11.5255 10.6035 11.5463 10.6035 11.626 10.5409 11.7093 10.4645 11.7891 10.3881 11.8758 10.3256 11.9001 10.3256 11.9244 10.3256 11.966 10.2943 11.9937 10.2561 12.0215 10.2179 12.0666 10.1866 12.0943 10.1866 12.1186 10.1866 12.181 10.145 12.2261 10.0963 12.2712 10.0477 12.3198 10.0164 12.3302 10.0268 12.344 10.0373 12.3822 10.0234 12.4169 9.98864 12.4516 9.95736 12.4793 9.94695 12.4793 9.96083 12.4793 9.9782 12.5175 9.9539 12.5626 9.91221 12.6528 9.82537 12.9511 9.66556 13.0204 9.66556 13.0412 9.66556 13.1522 9.62041 13.2598 9.56135 13.3673 9.50578 13.4852 9.45714 13.5199 9.45714 13.5581 9.45714 13.5962 9.44326 13.6066 9.42241 13.617 9.40504 13.6656 9.38767 13.7107 9.38767 13.7558 9.38767 13.8043 9.37379 13.8147 9.35293 13.8251 9.33556 13.8806 9.3182 13.9361 9.3182 13.9916 9.3182 14.0437 9.30431 14.0541 9.28695 14.0645 9.26958 14.1234 9.24872 14.1859 9.23831 14.4668 9.18969 14.668 9.148 14.6992 9.12714 14.72 9.11673 14.8449 9.09936 14.9767 9.09241 15.112 9.08199 15.2473 9.06116 15.282 9.04379 15.3583 9.0021 16.6313 9.02642 16.9018 9.07504 17.0163 9.09589 17.1377 9.10631 17.1723 9.09589 17.2036 9.08894 17.2799 9.10285 17.3354 9.13409 17.3944 9.16188 17.4741 9.17925 17.5158 9.17578 17.5608 9.16883 17.6302 9.18274 17.6718 9.20706 17.7134 9.23135 17.7863 9.24872 17.8348 9.24872 17.8834 9.24872 17.932 9.26609 17.9424 9.28346 17.9528 9.30083 18.0083 9.3182 18.0638 9.3182 18.1193 9.3182 18.1748 9.33556 18.1852 9.35293 18.1956 9.37379 18.2442 9.38767 18.2892 9.38767 18.3343 9.38767 18.3829 9.40157 18.3933 9.42241 18.4037 9.44326 18.4419 9.45714 18.48 9.45714 18.5147 9.45714 18.6326 9.50578 18.7402 9.56135 18.8477 9.62041 18.9587 9.66556 18.9795 9.66556 19.0489 9.66556 19.3472 9.82537 19.4373 9.91221 19.4824 9.9539 19.5206 9.9782 19.5206 9.96083 19.5206 9.94695 19.5483 9.95736 19.583 9.98864 19.6177 10.0234 19.6559 10.0373 19.6697 10.0268 19.6801 10.0164 19.7287 10.0477 19.7738 10.0963 19.8189 10.145 19.8813 10.1866 19.9056 10.1866 19.9333 10.1866 19.9785 10.2179 20.0062 10.2561 20.0339 10.2943 20.0756 10.3256 20.0999 10.3256 20.1241 10.3256 20.2108 10.3881 20.2906 10.4645 20.3739 10.5409 20.4536 10.6035 20.4745 10.6035 20.5196 10.6035 21.3936 11.4823 21.3936 11.5275 21.3936 11.5448 21.4561 11.6247 21.5324 11.7081 21.6087 11.788 21.6711 11.8748 21.6711 11.8992 21.6711 11.9235 21.7023 11.9652 21.7405 11.9929 21.7787 12.0207 21.8099 12.0659 21.8099 12.0937 21.8099 12.118 21.848 12.1771 21.8931 12.2187 21.9417 12.2639 21.9694 12.3091 21.959 12.3195 21.9451 12.3299 21.9625 12.3681 21.9937 12.4029 22.0284 12.4376 22.0457 12.4758 22.0319 12.4862 22.0215 12.4966 22.0527 12.5383 22.1012 12.5765 22.1533 12.6147 22.1914 12.6634 22.1914 12.6842 22.1914 12.705 22.2226 12.7745 22.2608 12.844 22.2989 12.9135 22.3302 12.9899 22.3302 13.0142 22.3302 13.042 22.3787 13.1532 22.4342 13.2608 22.4932 13.3685 22.5383 13.4866 22.5383 13.5214 22.5383 13.5596 22.5556 13.5978 22.573 13.6082 22.5938 13.6186 22.6077 13.6673 22.6077 13.7124 22.6077 13.7576 22.625 13.8062 22.6423 13.8166 22.6631 13.8271 22.677 13.8826 22.677 13.9382 22.677 13.9938 22.6944 14.0494 22.7117 14.0598 22.7325 14.0702 22.7464 14.1327 22.7464 14.1987 22.7464 14.2647 22.7603 14.3238 22.7776 14.3342 22.7915 14.3446 22.8158 14.4211 22.8296 14.5009 22.8401 14.5843 22.8747 14.7997 22.9025 14.9803 22.9753 15.4354 22.9788 16.5886 22.9059 17.0298 22.8747 17.2104 22.8401 17.4258 22.8296 17.5092 22.8158 17.5891 22.7915 17.6655 22.7776 17.6759 22.7603 17.6863 22.7464 17.7454 22.7464 17.8114 22.7464 17.8774 22.7325 17.9399 22.7117 17.9503 22.6944 17.9608 22.677 18.0163 22.677 18.0719 22.677 18.1275 22.6631 18.1831 22.6423 18.1935 22.625 18.2039 22.6077 18.2525 22.6077 18.2977 22.6077 18.3429 22.5938 18.3915 22.573 18.4019 22.5556 18.4123 22.5383 18.4505 22.5383 18.4887 22.5383 18.5235 22.4932 18.6416 22.4342 18.7493 22.3787 18.857 22.3302 18.9681 22.3302 18.989 22.3302 19.048 22.1775 19.3467 22.0978 19.4371 22.0111 19.5413 21.9417 19.6733 21.9625 19.6941 21.9694 19.7045 21.9417 19.7462 21.8931 19.7914 21.848 19.8331 21.8099 19.8921 21.8099 19.9164 21.8099 19.9442 21.7787 19.9894 21.7405 20.0172 21.7023 20.045 21.6711 20.0866 21.6711 20.111 21.6711 20.1353 21.6087 20.2221 21.5324 20.302 21.4561 20.3854 21.3936 20.4653 21.3936 20.4826 21.3936 20.5278 20.5196 21.4066 20.4745 21.4066 20.4536 21.4066 20.3739 21.4692 20.2906 21.5456 20.2108 21.622 20.1241 21.6845 20.0999 21.6845 20.0756 21.6845 20.0339 21.7158 20.0062 21.754 19.9785 21.7922 19.9333 21.8235 19.9056 21.8235 19.8813 21.8235 19.8189 21.8652 19.7738 21.9138 19.7287 21.9624 19.6801 21.9937 19.6697 21.9833 19.6559 21.9729 19.6177 21.9867 19.583 22.0215 19.5483 22.0528 19.5206 22.0632 19.5206 22.0493 19.5206 22.0319 19.4824 22.0562 19.4373 22.0979 19.3472 22.1848 19.0489 22.3445 18.9795 22.3445 18.9587 22.3445 18.8477 22.3932 18.7402 22.4487 18.6326 22.5078 18.5147 22.553 18.48 22.553 18.4419 22.553 18.4037 22.5703 18.3933 22.5877 18.3829 22.6085 18.3343 22.6224 18.2892 22.6224 18.2442 22.6224 18.1956 22.6398 18.1852 22.6572 18.1748 22.678 18.1193 22.6919 18.0638 22.6919 18.0083 22.6919 17.9562 22.7058 17.9458 22.7232 17.9354 22.7405 17.8765 22.7614 17.814 22.7718 17.4845 22.8274 17.325 22.8656 17.2868 22.8969 17.2625 22.9177 17.214 22.9246 17.1758 22.9142 17.1411 22.9038 17.0163 22.9142 16.9018 22.9351 16.6885 22.9741 15.9269 22.9976 15.5273 22.9878ZM3.0882 24.5486C3.18575 24.5508 3.27678 24.5421 3.31668 24.5212 3.34791 24.5038 3.44157 24.4691 3.5248 24.4448 3.60457 24.4205 3.68783 24.3788 3.71211 24.3545 3.73292 24.3267 3.81963 24.2746 3.8994 24.2399 3.98266 24.2016 4.05549 24.1565 4.06938 24.1356 4.07978 24.1183 4.18732 24.0557 4.30872 23.9967 4.43012 23.9411 4.54804 23.8716 4.57232 23.8438 4.59313 23.8126 4.72841 23.7327 4.87061 23.6632 5.01284 23.5937 5.1273 23.5243 5.1273 23.5069 5.1273 23.4895 5.15853 23.4756 5.19667 23.4756 5.23482 23.4756 5.26604 23.4617 5.26604 23.4409 5.26604 23.4235 5.29727 23.4062 5.33542 23.4062 5.37356 23.4062 5.40479 23.3923 5.40479 23.3714 5.40479 23.3541 5.42559 23.3367 5.44988 23.3367 5.47416 23.3367 5.52965 23.3054 5.57128 23.2672 5.6129 23.229 5.66493 23.1978 5.68922 23.1978 5.75165 23.1978 5.92508 23.0206 5.92508 22.9546 5.92508 22.9268 5.95631 22.8782 5.99445 22.8504 6.0326 22.8226 6.06382 22.774 6.06382 22.7392 6.06382 22.7079 6.07771 22.6732 6.09505 22.6628 6.12279 22.6454 6.16788 22.4301 6.16788 22.2946 6.17482 22.114 6.07076 21.8187 5.97711 21.7388 5.94936 21.7145 5.92508 21.6763 5.92508 21.6554 5.92508 21.5825 5.74125 21.4401 5.5019 21.3289 5.32153 21.242 5.22442 21.2177 5.06139 21.2177 4.94693 21.2177 4.84287 21.2351 4.83247 21.2525 4.82207 21.2733 4.78044 21.2872 4.74229 21.2872 4.70761 21.2872 4.67638 21.3046 4.67638 21.322 4.67638 21.3428 4.64515 21.3567 4.60701 21.3567 4.56886 21.3567 4.53764 21.3741 4.53764 21.3914 4.53764 21.4123 4.51683 21.4262 4.49255 21.4262 4.43358 21.4262 4.2324 21.5234 4.20812 21.5651 4.19772 21.5825 4.1006 21.6381 3.9896 21.6902 3.88206 21.7423 3.75026 21.8256 3.69823 21.8743 3.64274 21.9194 3.60111 21.9472 3.60111 21.9299 3.60111 21.916 3.56989 21.9299 3.53174 21.9646 3.4936 21.9993 3.46237 22.0132 3.46237 21.9993 3.46237 21.982 3.42074 22.0097 3.36871 22.0549 3.31322 22.1035 3.16754 22.1938 3.03919 22.2599 2.90739 22.3224 2.80333 22.3884 2.80333 22.4023 2.80333 22.4196 2.77211 22.4335 2.73396 22.4335 2.69582 22.4335 2.66459 22.4509 2.66459 22.4683 2.66459 22.4891 2.64031 22.503 2.60562 22.503 2.53279 22.503 2.1443 22.8955 2.1443 22.9685 2.1443 22.9997 2.13042 23.0241 2.10961 23.0241 2.09227 23.0241 2.07493 23.0553 2.07493 23.0901 2.07493 23.1283 2.06104 23.1699 2.04024 23.1804 2.0229 23.1908 2.00555 23.3089 2.00555 23.4409 2.00555 23.757 2.10961 23.9897 2.35936 24.226 2.53625 24.3962 2.60216 24.4344 2.82068 24.5108 2.88657 24.5334 2.99062 24.5464 3.0882 24.5486ZM28.8792 24.5525C28.9729 24.5516 29.0821 24.5386 29.1585 24.5143 29.3909 24.4378 29.4568 24.3996 29.6406 24.2259 29.8903 23.9897 29.9944 23.757 29.9944 23.4409 29.9944 23.3089 29.9805 23.1908 29.9597 23.1804 29.9424 23.1699 29.925 23.1283 29.925 23.0901 29.925 23.0553 29.9111 23.024 29.8903 23.024 29.873 23.024 29.8557 22.9997 29.8557 22.9719 29.8557 22.8955 29.4741 22.503 29.3978 22.503 29.3631 22.503 29.3354 22.4891 29.3354 22.4683 29.3354 22.4509 29.3041 22.4335 29.266 22.4335 29.2278 22.4335 29.1966 22.4196 29.1966 22.4022 29.1966 22.3884 29.0926 22.3224 28.9642 22.2598 28.8324 22.1938 28.6867 22.1035 28.6347 22.0549 28.5792 22.0097 28.5376 21.9819 28.5376 21.9993 28.5376 22.0132 28.5064 21.9993 28.4682 21.9646 28.43 21.9298 28.3988 21.9159 28.3988 21.9298 28.3988 21.9472 28.3572 21.9229 28.3052 21.8743 28.2497 21.8256 28.1318 21.7492 28.0346 21.704 27.941 21.6589 27.8334 21.5998 27.8022 21.572 27.719 21.5026 27.4241 21.3567 27.3687 21.3567 27.3444 21.3567 27.3236 21.3428 27.3236 21.3289 27.3236 21.2802 27.0981 21.2177 26.9108 21.2177 26.6298 21.2177 26.0749 21.5095 26.0749 21.6554 26.0749 21.6763 26.0506 21.7145 26.0228 21.7388 25.9292 21.8187 25.8251 22.1139 25.8321 22.2946 25.8321 22.4301 25.8772 22.6454 25.9049 22.6628 25.9222 22.6732 25.9361 22.7079 25.9361 22.7392 25.9361 22.7739 25.9673 22.8226 26.0055 22.8504 26.0436 22.8781 26.0749 22.9268 26.0749 22.9546 26.0749 23.0484 26.2622 23.2047 26.5015 23.3089 26.5535 23.3332 26.5951 23.3645 26.5951 23.3784 26.5951 23.3922 26.6264 23.4061 26.6645 23.4061 26.7027 23.4061 26.7339 23.4235 26.7339 23.4409 26.7339 23.4617 26.7651 23.4756 26.8033 23.4756 26.8414 23.4756 26.8726 23.4895 26.8726 23.5069 26.8726 23.5243 26.9871 23.5937 27.1293 23.6632 27.2715 23.7327 27.4068 23.8126 27.4276 23.8438 27.4519 23.8716 27.5698 23.9411 27.6912 23.9967 27.8126 24.0557 27.9202 24.1183 27.9306 24.1356 27.9444 24.1565 28.0208 24.2016 28.104 24.2398 28.1872 24.278 28.2636 24.3232 28.2774 24.3406 28.3086 24.3962 28.5064 24.483 28.5931 24.483 28.6382 24.483 28.6832 24.5004 28.6937 24.5177 28.7075 24.5421 28.7856 24.5533 28.8792 24.5525ZM15.6981 25.1831C16.0745 25.181 16.7821 25.153 17.0059 25.127 17.1585 25.1061 17.3631 25.0818 17.4568 25.0714 17.5539 25.0575 17.6614 25.0366 17.6996 25.0193 17.7377 25.0019 17.8314 24.9811 17.9077 24.9707 17.984 24.9637 18.1089 24.9394 18.1852 24.9185 18.2615 24.9012 18.3725 24.8734 18.428 24.8595 18.487 24.8456 18.5563 24.8143 18.5841 24.79 18.6153 24.7657 18.6743 24.7518 18.7159 24.7657 18.7679 24.7761 18.7991 24.7657 18.813 24.724 18.8303 24.6858 18.8616 24.6719 18.9136 24.6858 18.9621 24.6997 19.0107 24.6858 19.035 24.6545 19.0593 24.6268 19.1148 24.6024 19.1599 24.6024 19.2015 24.6024 19.2501 24.5885 19.2605 24.5677 19.2709 24.5503 19.309 24.533 19.3437 24.533 19.3784 24.533 19.5275 24.4704 19.6767 24.394 19.8258 24.3176 19.968 24.2551 19.9923 24.2551 20.0201 24.2551 20.0409 24.2412 20.0409 24.2203 20.0409 24.203 20.0721 24.1856 20.1103 24.1856 20.1484 24.1856 20.1796 24.1717 20.1796 24.1509 20.1796 24.1335 20.2108 24.1161 20.249 24.1161 20.2872 24.1161 20.3184 24.1022 20.3184 24.0814 20.3184 24.064 20.3496 24.0466 20.3878 24.0466 20.4259 24.0466 20.4571 24.0328 20.4571 24.0119 20.4571 23.9945 20.4883 23.9772 20.523 23.9772 20.5612 23.9772 20.6236 23.9355 20.6618 23.8869 20.6999 23.8382 20.745 23.807 20.7624 23.8174 20.7832 23.8278 20.8144 23.8139 20.8387 23.7861 20.863 23.7583 20.8942 23.741 20.908 23.7514 20.9219 23.7583 20.9705 23.7271 21.0121 23.6819 21.0572 23.6333 21.1127 23.5951 21.1335 23.5951 21.1543 23.5951 21.2167 23.5499 21.2722 23.4908 21.3277 23.4353 21.3902 23.3866 21.411 23.3866 21.4318 23.3866 21.4942 23.3415 21.5497 23.2824 21.6052 23.2269 21.6677 23.1782 21.6885 23.1782 21.7093 23.1782 21.8411 23.0601 21.9833 22.9177 22.1255 22.7753 22.2573 22.6572 22.2747 22.6572 22.3232 22.6572 22.6423 22.3376 22.6423 22.2924 22.6423 22.2716 22.7603 22.1396 22.9025 21.9972 23.0447 21.8548 23.1626 21.7228 23.1626 21.7019 23.1626 21.6811 23.2112 21.6185 23.2667 21.563 23.3257 21.5074 23.3708 21.4449 23.3708 21.424 23.3708 21.4032 23.4193 21.3406 23.4748 21.2851 23.5338 21.2295 23.5789 21.167 23.5789 21.1461 23.5789 21.1253 23.617 21.0697 23.6656 21.0245 23.7107 20.9829 23.7419 20.9342 23.735 20.9203 23.7246 20.9064 23.7419 20.8752 23.7696 20.8508 23.7974 20.8265 23.8113 20.7953 23.8008 20.7744 23.7904 20.7571 23.8217 20.7119 23.8702 20.6737 23.9188 20.6355 23.9604 20.573 23.9604 20.5347 23.9604 20.5 23.9778 20.4687 23.9951 20.4687 24.0159 20.4687 24.0298 20.4375 24.0298 20.3993 24.0298 20.3611 24.0471 20.3298 24.0645 20.3298 24.0853 20.3298 24.0992 20.2985 24.0992 20.2603 24.0992 20.2221 24.1165 20.1908 24.1338 20.1908 24.1546 20.1908 24.1685 20.1596 24.1685 20.1214 24.1685 20.0832 24.1859 20.0519 24.2032 20.0519 24.224 20.0519 24.2379 20.0206 24.2379 19.9824 24.2379 19.9442 24.2552 19.9129 24.2726 19.9129 24.2934 19.9129 24.3073 19.8921 24.3073 19.8643 24.3073 19.8365 24.3558 19.7254 24.4113 19.6177 24.4703 19.51 24.5154 19.3919 24.5154 19.3572 24.5154 19.3224 24.5362 19.2773 24.5639 19.2529 24.5917 19.2321 24.6056 19.1904 24.5952 19.1626 24.5848 19.1349 24.6021 19.0828 24.6333 19.048 24.668 19.0133 24.6819 18.9612 24.668 18.9264 24.6541 18.8882 24.668 18.85 24.7062 18.8222 24.7478 18.791 24.7617 18.7562 24.7443 18.7145 24.7304 18.6798 24.7409 18.6277 24.7686 18.5964 24.7963 18.5652 24.8276 18.4957 24.8414 18.4366 24.8553 18.3811 24.8796 18.2699 24.9004 18.1935 25.1328 17.266 25.223 15.9286 25.112 15.0324 25.0877 14.8414 25.06 14.6156 25.0495 14.5287 25.0391 14.4419 25.0183 14.3412 25.001 14.3029 24.9837 14.2647 24.9628 14.1709 24.9524 14.0945 24.9455 14.0181 24.9212 13.893 24.9004 13.8166 24.8831 13.7402 24.8553 13.6325 24.8414 13.5735 24.8276 13.5179 24.7963 13.4415 24.7686 13.4102 24.7409 13.3789 24.727 13.3338 24.7409 13.3164 24.7651 13.2713 24.6958 13.042 24.6299 12.9621 24.6056 12.9343 24.5848 12.8753 24.5848 12.8336 24.5848 12.7954 24.5709 12.7502 24.5501 12.7398 24.5327 12.7294 24.5154 12.6912 24.5154 12.6529 24.5154 12.6182 24.4703 12.5001 24.4113 12.3924 24.3558 12.2847 24.3073 12.1736 24.3073 12.1458 24.3073 12.118 24.2934 12.0971 24.2726 12.0971 24.2552 12.0971 24.2379 12.0659 24.2379 12.0277 24.2379 11.9895 24.224 11.9582 24.2032 11.9582 24.1859 11.9582 24.1685 11.927 24.1685 11.8887 24.1685 11.8505 24.1546 11.8193 24.1338 11.8193 24.1165 11.8193 24.0992 11.788 24.0992 11.7498 24.0992 11.7116 24.0853 11.6803 24.0645 11.6803 24.0471 11.6803 24.0298 11.6491 24.0298 11.6108 24.0298 11.5726 24.0159 11.5414 23.9951 11.5414 23.9778 11.5414 23.9604 11.5101 23.9604 11.4754 23.9604 11.4371 23.9188 11.3746 23.8702 11.3364 23.8217 11.2982 23.7904 11.253 23.8008 11.2357 23.8113 11.2148 23.7974 11.1836 23.7696 11.1593 23.7419 11.135 23.7246 11.1037 23.735 11.0898 23.7419 11.0759 23.7107 11.0273 23.6656 10.9856 23.617 10.9404 23.5789 10.8848 23.5789 10.864 23.5789 10.8432 23.5338 10.7806 23.4748 10.725 23.4193 10.6695 23.3708 10.6069 23.3708 10.5861 23.3708 10.5653 23.3257 10.5027 23.2667 10.4471 23.2112 10.3916 23.1626 10.3291 23.1626 10.3082 23.1626 10.2874 23.0447 10.1554 22.9025 10.0129 22.7603 9.87052 22.6423 9.73853 22.6423 9.72116 22.6423 9.67252 22.3232 9.35293 22.2781 9.35293 22.2573 9.35293 22.1255 9.23484 21.9833 9.09241 21.8411 8.94999 21.7093 8.83188 21.6885 8.83188 21.6677 8.83188 21.6052 8.78673 21.5497 8.72767 21.4942 8.6721 21.4318 8.62346 21.411 8.62346 21.3902 8.62346 21.3277 8.57484 21.2722 8.51925 21.2167 8.46021 21.1543 8.41504 21.1335 8.41504 21.1127 8.41504 21.0572 8.37683 21.0121 8.32819 20.9705 8.28304 20.9219 8.25179 20.908 8.25872 20.8942 8.26916 20.863 8.25179 20.8387 8.22398 20.8144 8.1962 20.7832 8.18232 20.7658 8.19273 20.7485 8.20315 20.6964 8.17188 20.6514 8.12326 20.6063 8.07462 20.5438 8.03293 20.5126 8.03293 20.4814 8.03293 20.4571 8.01905 20.4571 7.99819 20.4571 7.98082 20.4259 7.96346 20.3878 7.96346 20.3496 7.96346 20.3184 7.94958 20.3184 7.92872 20.3184 7.91135 20.2872 7.89398 20.249 7.89398 20.2108 7.89398 20.1796 7.8801 20.1796 7.85925 20.1796 7.84188 20.1484 7.82451 20.1103 7.82451 20.0721 7.82451 20.0409 7.81063 20.0409 7.78977 20.0409 7.7724 20.0201 7.75503 19.9923 7.75503 19.968 7.75503 19.8258 7.69251 19.6767 7.61609 19.5275 7.53968 19.3784 7.47714 19.3437 7.47714 19.309 7.47714 19.2709 7.46326 19.2605 7.4424 19.2501 7.42503 19.2015 7.40767 19.1599 7.40767 19.1148 7.40767 19.0593 7.38683 19.0385 7.35905 19.0142 7.33126 18.9656 7.31736 18.9275 7.32778 18.8858 7.34168 18.8407 7.32431 18.813 7.28609 18.7818 7.24442 18.7471 7.23052 18.7055 7.24789 18.6708 7.26179 18.6188 7.25135 18.5875 7.22357 18.5563 7.19578 18.487 7.16451 18.428 7.15063 18.3725 7.13672 18.2615 7.10894 18.1852 7.09157 18.1089 7.07074 17.984 7.04642 17.9077 7.03946 17.8314 7.02905 17.7377 7.00819 17.6996 6.99082 17.6614 6.97346 17.5608 6.95262 17.4741 6.94221 17.3874 6.93179 17.1619 6.90398 16.9712 6.87968 16.5237 6.82409 15.4762 6.82409 15.0288 6.87968 14.838 6.90398 14.6125 6.93179 14.5258 6.94221 14.4391 6.95262 14.3385 6.97346 14.3003 6.99082 14.2622 7.00819 14.1685 7.02905 14.0922 7.03946 14.0159 7.04642 13.8911 7.07074 13.8147 7.09157 13.7384 7.10894 13.6309 7.13672 13.5719 7.15063 13.5164 7.16451 13.4436 7.19578 13.4124 7.22357 13.3812 7.24789 13.3326 7.26179 13.3014 7.25135 13.2736 7.23747 13.2008 7.25135 13.1453 7.28262 13.0898 7.31041 13.0343 7.32778 13.0274 7.31736 13.017 7.31041 12.9892 7.32431 12.9649 7.35556 12.9407 7.38337 12.8852 7.40767 12.8401 7.40767 12.7984 7.40767 12.7499 7.42503 12.7395 7.4424 12.7291 7.46326 12.6909 7.47714 12.6528 7.47714 12.6181 7.47714 12.5001 7.52578 12.3926 7.58135 12.2851 7.63694 12.1741 7.68556 12.1463 7.68556 12.1186 7.68556 12.0978 7.70293 12.0978 7.7203 12.0978 7.74115 12.0666 7.75503 12.0284 7.75503 11.9902 7.75503 11.959 7.7724 11.959 7.78977 11.959 7.81063 11.9278 7.82451 11.8897 7.82451 11.8515 7.82451 11.8203 7.84188 11.8203 7.85925 11.8203 7.8801 11.7891 7.89398 11.7509 7.89398 11.7128 7.89398 11.6816 7.91135 11.6816 7.92872 11.6816 7.94958 11.6503 7.96346 11.6122 7.96346 11.574 7.96346 11.5428 7.98082 11.5428 7.99819 11.5428 8.01905 11.5116 8.03293 11.4769 8.03293 11.4387 8.03293 11.3763 8.07462 11.3382 8.12326 11.3 8.17188 11.2549 8.20315 11.2376 8.19273 11.2168 8.18232 11.1855 8.1962 11.1613 8.22398 11.137 8.25179 11.1058 8.26916 11.0919 8.25872 11.078 8.25179 11.0295 8.28304 10.9878 8.32819 10.9427 8.37683 10.8872 8.41504 10.8664 8.41504 10.8456 8.41504 10.7832 8.46021 10.7277 8.51925 10.6722 8.5783 10.6097 8.62346 10.5889 8.62346 10.5681 8.62346 10.5057 8.66863 10.4502 8.72767 10.3947 8.78326 10.3323 8.83188 10.3115 8.83188 10.2906 8.83188 10.1588 8.94999 10.0166 9.09241 9.8744 9.23484 9.74259 9.35293 9.72525 9.35293 9.6767 9.35293 9.35759 9.67252 9.35759 9.71767 9.35759 9.73853 9.23965 9.87052 9.09744 10.0129 8.95521 10.1554 8.8373 10.2874 8.8373 10.3082 8.8373 10.3291 8.79221 10.3916 8.73324 10.4471 8.67773 10.5027 8.62918 10.5653 8.62918 10.5861 8.62918 10.6069 8.58409 10.6695 8.52512 10.725 8.46961 10.7806 8.42106 10.8432 8.42106 10.864 8.42106 10.8848 8.3829 10.9404 8.33435 10.9856 8.28926 11.0273 8.25803 11.0759 8.26498 11.0898 8.27538 11.1037 8.25803 11.135 8.23029 11.1593 8.20255 11.1836 8.18866 11.2148 8.19906 11.2357 8.20947 11.253 8.17826 11.2982 8.12969 11.3364 8.08114 11.3746 8.03952 11.4371 8.03952 11.4754 8.03952 11.5101 8.02563 11.5414 8.00483 11.5414 7.98749 11.5414 7.97014 11.5726 7.97014 11.6108 7.97014 11.6491 7.95626 11.6803 7.93546 11.6803 7.91812 11.6803 7.90077 11.7116 7.90077 11.7498 7.90077 11.788 7.88689 11.8193 7.86609 11.8193 7.84874 11.8193 7.8314 11.8505 7.8314 11.8887 7.8314 11.927 7.81752 11.9582 7.79671 11.9582 7.77937 11.9582 7.76203 11.9895 7.76203 12.0277 7.76203 12.0659 7.74814 12.0971 7.72734 12.0971 7.71 12.0971 7.69266 12.118 7.69266 12.1458 7.69266 12.1736 7.64757 12.2847 7.5886 12.3924 7.53309 12.5001 7.48454 12.6182 7.48454 12.6529 7.48454 12.6877 7.46371 12.7329 7.43597 12.7571 7.40823 12.778 7.39434 12.8197 7.40477 12.8475 7.41517 12.8753 7.39782 12.9274 7.3666 12.9621 7.33191 12.9968 7.31805 13.0489 7.33191 13.0837 7.3458 13.1219 7.33191 13.1601 7.29377 13.1879 7.25214 13.2192 7.23826 13.2539 7.2556 13.2956 7.26948 13.3303 7.25908 13.3824 7.23134 13.4137 7.20357 13.445 7.17237 13.5179 7.15848 13.5735 7.14462 13.6325 7.12034 13.7402 7.09951 13.8166 6.75959 15.1609 6.75959 16.8596 7.09951 18.1935 7.12034 18.2699 7.14462 18.3811 7.15848 18.4366 7.17237 18.4957 7.20357 18.5652 7.23134 18.5964 7.25908 18.6277 7.26948 18.6798 7.2556 18.7145 7.23826 18.7562 7.25214 18.791 7.29377 18.8222 7.33191 18.85 7.3458 18.8882 7.33191 18.9264 7.31805 18.9612 7.33191 19.0133 7.3666 19.048 7.39782 19.0828 7.41517 19.1349 7.40477 19.1626 7.39434 19.1904 7.40823 19.2321 7.43597 19.2529 7.46371 19.2773 7.48454 19.3224 7.48454 19.3572 7.48454 19.3919 7.53309 19.51 7.5886 19.6177 7.64757 19.7254 7.69266 19.8365 7.69266 19.8643 7.69266 19.8921 7.71 19.9129 7.72734 19.9129 7.74814 19.9129 7.76203 19.9442 7.76203 19.9824 7.76203 20.0206 7.77937 20.0519 7.79671 20.0519 7.81752 20.0519 7.8314 20.0832 7.8314 20.1214 7.8314 20.1596 7.84874 20.1908 7.86609 20.1908 7.88689 20.1908 7.90077 20.2221 7.90077 20.2603 7.90077 20.2985 7.91812 20.3298 7.93546 20.3298 7.95626 20.3298 7.97014 20.3611 7.97014 20.3993 7.97014 20.4375 7.98749 20.4687 8.00483 20.4687 8.02563 20.4687 8.03952 20.5 8.03952 20.5347 8.03952 20.573 8.08114 20.6355 8.12969 20.6737 8.17826 20.7119 8.20947 20.7571 8.19906 20.7744 8.18866 20.7953 8.20255 20.8265 8.23029 20.8508 8.25803 20.8752 8.27538 20.9064 8.26498 20.9203 8.25803 20.9342 8.28926 20.9829 8.33435 21.0245 8.3829 21.0697 8.42106 21.1253 8.42106 21.1461 8.42106 21.167 8.46961 21.2295 8.52512 21.2851 8.58409 21.3406 8.62918 21.4032 8.62918 21.424 8.62918 21.4449 8.67773 21.5074 8.73324 21.563 8.79221 21.6185 8.8373 21.6811 8.8373 21.7019 8.8373 21.7228 8.95521 21.8548 9.09744 21.9972 9.23965 22.1396 9.35759 22.2716 9.35759 22.289 9.35759 22.3376 9.6767 22.6572 9.72179 22.6572 9.74259 22.6572 9.8744 22.7753 10.0166 22.9177 10.1588 23.0601 10.2906 23.1782 10.3115 23.1782 10.3323 23.1782 10.3947 23.2269 10.4502 23.2824 10.5057 23.3415 10.5681 23.3866 10.5889 23.3866 10.6097 23.3866 10.6722 23.4353 10.7277 23.4908 10.7832 23.5499 10.8456 23.5951 10.8664 23.5951 10.8872 23.5951 10.9427 23.6333 10.9878 23.6819 11.0295 23.7271 11.078 23.7583 11.0919 23.7514 11.1058 23.741 11.137 23.7583 11.1613 23.7861 11.1855 23.8139 11.2168 23.8278 11.2376 23.8174 11.2549 23.807 11.3 23.8382 11.3382 23.8869 11.3763 23.9355 11.4387 23.9772 11.4769 23.9772 11.5116 23.9772 11.5428 23.9945 11.5428 24.0119 11.5428 24.0328 11.574 24.0466 11.6122 24.0466 11.6503 24.0466 11.6816 24.064 11.6816 24.0814 11.6816 24.1022 11.7128 24.1161 11.7509 24.1161 11.7891 24.1161 11.8203 24.1335 11.8203 24.1509 11.8203 24.1717 11.8515 24.1856 11.8897 24.1856 11.9278 24.1856 11.959 24.203 11.959 24.2203 11.959 24.2412 11.9902 24.2551 12.0284 24.2551 12.0666 24.2551 12.0978 24.2724 12.0978 24.2898 12.0978 24.3107 12.1186 24.3245 12.1463 24.3245 12.1741 24.3245 12.2851 24.3732 12.3926 24.4287 12.5001 24.4878 12.6181 24.533 12.6528 24.533 12.6909 24.533 12.7291 24.5503 12.7395 24.5677 12.7499 24.5885 12.795 24.6024 12.8366 24.6024 12.8782 24.6024 12.9407 24.6268 12.9753 24.6545 13.0135 24.6789 13.0621 24.6928 13.0898 24.6823 13.1175 24.6719 13.1627 24.6928 13.1869 24.724 13.2181 24.7657 13.2528 24.7796 13.2945 24.7622 13.3291 24.7483 13.3812 24.7587 13.4124 24.7866 13.4436 24.8143 13.5164 24.8456 13.5719 24.8595 13.6309 24.8734 13.7384 24.9012 13.8147 24.9185 13.8911 24.9394 14.0159 24.9637 14.0922 24.9707 14.1685 24.9811 14.2622 25.0019 14.3003 25.0193 14.3732 25.0505 14.4391 25.061 15.0461 25.1235 15.2473 25.1443 15.4346 25.1652 15.4623 25.1756 15.484 25.1817 15.5727 25.1838 15.6981 25.1831ZM8.5556 30.0008C8.69086 30.0043 8.81574 29.9904 8.82614 29.9696 8.83654 29.9522 8.87817 29.9348 8.91632 29.9348 8.951 29.9348 8.98223 29.9209 8.98223 29.9001 8.98223 29.8827 9.00652 29.8653 9.03426 29.8653 9.11057 29.8653 9.50252 29.4832 9.50252 29.4068 9.50252 29.3721 9.51986 29.3443 9.53721 29.3443 9.55801 29.3443 9.57189 29.313 9.57189 29.2748 9.57189 29.2366 9.58575 29.2053 9.6031 29.2053 9.61698 29.2053 9.68289 29.1011 9.74532 28.9726 9.81121 28.8406 9.90141 28.6947 9.94996 28.6426 9.99507 28.587 10.0228 28.5453 10.0055 28.5453 9.99159 28.5453 10.0055 28.5141 10.0402 28.4759 10.0748 28.4377 10.0887 28.4064 10.0748 28.4064 10.0575 28.4064 10.0852 28.3647 10.1303 28.3126 10.1789 28.257 10.2621 28.125 10.3142 28.0173 10.3662 27.9062 10.4217 27.8089 10.439 27.7985 10.4807 27.7742 10.5778 27.5727 10.5778 27.5137 10.5778 27.4893 10.5951 27.4685 10.6125 27.4685 10.6333 27.4685 10.6472 27.4372 10.6472 27.399 10.6472 27.3608 10.661 27.3295 10.6749 27.3295 10.7235 27.3295 10.7859 27.1038 10.7859 26.9162 10.7859 26.6348 10.4945 26.079 10.3488 26.079 10.328 26.079 10.2899 26.0547 10.2656 26.0269 10.1858 25.9331 9.89101 25.8289 9.71064 25.8359 9.57535 25.8359 9.3603 25.881 9.34295 25.9088 9.33255 25.9262 9.29786 25.9401 9.26666 25.9401 9.23197 25.9401 9.1834 25.9713 9.15566 26.0095 9.12792 26.0478 9.08281 26.079 9.05506 26.079 8.98569 26.079 8.8088 26.2527 8.8088 26.3222 8.8088 26.35 8.77757 26.3986 8.73943 26.4264 8.70126 26.4542 8.67006 26.5028 8.67006 26.5376 8.67006 26.5723 8.65617 26.6001 8.63537 26.6001 8.61803 26.6001 8.60068 26.6313 8.60068 26.6695 8.60068 26.7078 8.5868 26.739 8.566 26.739 8.54866 26.739 8.53131 26.7703 8.53131 26.8085 8.53131 26.8467 8.51743 26.878 8.50357 26.878 8.48622 26.878 8.45154 26.9197 8.42725 26.9752 8.39951 27.0273 8.3544 27.0968 8.32666 27.1315 8.29891 27.1628 8.29197 27.1906 8.30585 27.1906 8.31971 27.1906 8.30585 27.2219 8.27117 27.2601 8.23648 27.2983 8.2226 27.3295 8.23648 27.3295 8.25382 27.3295 8.22608 27.3712 8.18097 27.4268 8.13242 27.4789 8.04917 27.6109 7.99714 27.7186 7.94511 27.8298 7.88614 27.927 7.86879 27.9374 7.85145 27.9514 7.80636 28.0243 7.76822 28.1077 7.73353 28.1876 7.6815 28.2744 7.65376 28.2952 7.62947 28.3196 7.58785 28.4029 7.56356 28.4828 7.53928 28.5662 7.50459 28.66 7.48725 28.6912 7.41788 28.8232 7.45604 29.1046 7.58091 29.3964 7.64682 29.5458 7.94511 29.8306 8.13936 29.9209 8.26077 29.98 8.37174 30.0008 8.5556 30.0008ZM23.434 30.0043C23.6143 30.0043 23.7184 29.9834 23.8571 29.9209 24.0479 29.8306 24.3635 29.5319 24.4294 29.379 24.5439 29.1046 24.5786 28.8197 24.5127 28.6912 24.4953 28.66 24.4607 28.5662 24.4364 28.4828 24.4121 28.4029 24.3705 28.3196 24.3462 28.2952 24.3184 28.2744 24.2664 28.1875 24.2317 28.1076 24.1936 28.0243 24.1485 27.9513 24.1277 27.9374 24.1103 27.927 24.0479 27.8193 23.9889 27.6978 23.9334 27.5762 23.8606 27.4581 23.8294 27.4303 23.7773 27.3886 23.7288 27.2948 23.7114 27.208 23.708 27.1906 23.6872 27.1489 23.6629 27.1211 23.6421 27.0933 23.6004 27.0273 23.5727 26.9752 23.5484 26.9196 23.5137 26.878 23.4964 26.878 23.4825 26.878 23.4686 26.8467 23.4686 26.8085 23.4686 26.7703 23.4548 26.739 23.434 26.739 23.4166 26.739 23.3993 26.7078 23.3993 26.6695 23.3993 26.6313 23.3854 26.6001 23.3646 26.6001 23.3472 26.6001 23.3299 26.5723 23.3299 26.5375 23.3299 26.5028 23.2987 26.4542 23.2605 26.4264 23.2224 26.3986 23.1912 26.35 23.1912 26.3222 23.1912 26.2527 23.0142 26.079 22.9449 26.079 22.9171 26.079 22.872 26.0478 22.8443 26.0095 22.8165 25.9713 22.768 25.9401 22.7333 25.9401 22.7021 25.9401 22.6674 25.9262 22.657 25.9088 22.6396 25.881 22.4246 25.8359 22.2893 25.8359 22.1089 25.8289 21.8141 25.9331 21.7343 26.0269 21.7101 26.0547 21.6719 26.079 21.6511 26.079 21.5783 26.079 21.436 26.2631 21.325 26.5028 21.2383 26.6834 21.214 26.7807 21.214 26.944 21.214 27.0586 21.2314 27.1628 21.2487 27.1732 21.2695 27.1837 21.2834 27.2253 21.2834 27.2635 21.2834 27.2983 21.3008 27.3295 21.3181 27.3295 21.3389 27.3295 21.3528 27.3608 21.3528 27.399 21.3528 27.4372 21.3701 27.4685 21.3875 27.4685 21.4083 27.4685 21.4222 27.4893 21.4222 27.5137 21.4222 27.5727 21.5193 27.7742 21.5609 27.7985 21.5783 27.8089 21.6337 27.9062 21.6858 28.0173 21.7378 28.125 21.8211 28.257 21.8696 28.3126 21.9147 28.3647 21.9425 28.4064 21.9251 28.4064 21.9112 28.4064 21.9251 28.4376 21.9598 28.4759 21.9945 28.5141 22.0083 28.5453 21.9945 28.5453 21.9771 28.5453 22.0049 28.587 22.05 28.6426 22.0985 28.6947 22.1887 28.8406 22.2546 28.9726 22.3171 29.1011 22.383 29.2053 22.3968 29.2053 22.4142 29.2053 22.4281 29.2366 22.4281 29.2748 22.4281 29.313 22.4454 29.3443 22.4627 29.3443 22.4835 29.3443 22.4974 29.3721 22.4974 29.4068 22.4974 29.4832 22.8824 29.8653 22.9622 29.8653 22.9934 29.8653 23.0177 29.8827 23.0177 29.9001 23.0177 29.9209 23.0489 29.9348 23.0836 29.9348 23.1218 29.9348 23.1634 29.9522 23.1738 29.9696 23.1842 29.9904 23.3022 30.0043 23.434 30.0043ZM16.2567 31.964C16.5099 31.8841 16.5931 31.8319 16.7665 31.6513 17.0857 31.3144 17.0926 31.2796 17.0926 29.7651 17.0926 28.2506 17.0857 28.2158 16.7665 27.8789 16.5931 27.6983 16.5099 27.6461 16.2497 27.5628 16.0243 27.4864 15.8404 27.5107 15.5144 27.6496 15.393 27.7017 15.0773 28.0248 15.0218 28.1498 14.9143 28.4069 14.9074 28.5146 14.9074 29.7651 14.9074 31.2796 14.9143 31.3144 15.2334 31.6513 15.3999 31.825 15.4832 31.8771 15.7225 31.9605 15.8647 32.0126 16.111 32.0126 16.2567 31.964Z" fill-rule="evenodd" transform="matrix(1 0 0 -1 112 391)"/></g></svg>