<?xml version="1.0" standalone="no"?>
<!DOCTYPE svg PUBLIC "-//W3C//DTD SVG 20010904//EN"
 "http://www.w3.org/TR/2001/REC-SVG-20010904/DTD/svg10.dtd">
<svg version="1.0" xmlns="http://www.w3.org/2000/svg"
 width="361.000000pt" height="346.000000pt" viewBox="0 0 361.000000 346.000000"
 preserveAspectRatio="xMidYMid meet">

<g transform="translate(0.000000,346.000000) scale(0.100000,-0.100000)"
fill="#000000" stroke="none">
<path d="M1341 3444 c-139 -13 -147 -15 -230 -58 -47 -24 -153 -71 -236 -104
-211 -85 -275 -115 -357 -168 -186 -120 -255 -205 -404 -499 l-114 -226 0
-122 c0 -166 28 -260 117 -397 29 -46 46 -60 102 -87 39 -19 101 -63 151 -108
203 -181 314 -255 382 -255 22 0 34 -10 61 -52 70 -108 126 -136 308 -154 88
-9 139 -19 167 -33 l40 -20 63 21 c51 17 76 33 121 80 55 56 60 58 108 58 32
0 52 -5 54 -12 2 -7 14 -91 27 -186 22 -167 22 -174 5 -251 -26 -123 -24 -165
11 -214 16 -23 55 -88 86 -143 62 -111 129 -192 190 -231 53 -33 492 -187 652
-228 150 -39 296 -58 409 -53 l80 3 32 55 c18 30 79 105 136 166 98 106 138
167 152 236 3 14 33 63 66 107 73 99 75 114 28 313 l-32 138 22 45 c29 59 29
99 0 119 -15 11 -26 12 -32 6 -36 -36 -96 21 -96 91 0 71 73 245 149 359 74
109 68 129 -64 225 -103 75 -185 154 -185 177 0 7 25 33 56 58 81 64 88 92 54
202 -23 74 -78 145 -149 189 -40 26 -49 40 -114 184 l-70 155 -136 133 c-252
243 -466 369 -696 407 -38 7 -97 22 -130 35 -110 43 -209 55 -434 54 -113 -1
-271 -8 -350 -15z"/>
</g>
</svg>
