<?xml version="1.0" standalone="no"?>
<!DOCTYPE svg PUBLIC "-//W3C//DTD SVG 20010904//EN"
 "http://www.w3.org/TR/2001/REC-SVG-20010904/DTD/svg10.dtd">
<svg version="1.0" xmlns="http://www.w3.org/2000/svg"
 width="314.000000pt" height="350.000000pt" viewBox="0 0 314.000000 350.000000"
 preserveAspectRatio="xMidYMid meet">

<g transform="translate(0.000000,350.000000) scale(0.100000,-0.100000)"
fill="#000000" stroke="none">
<path d="M1125 3485 c-80 -15 -277 -93 -400 -158 -101 -55 -213 -137 -281
-208 -62 -65 -247 -336 -297 -436 -38 -75 -77 -199 -77 -245 0 -15 -9 -49 -19
-76 -37 -92 -43 -166 -42 -451 l2 -274 34 -66 c44 -83 123 -171 273 -304 107
-94 124 -106 190 -126 40 -12 141 -49 225 -82 175 -70 231 -79 306 -54 l53 17
69 -32 c95 -43 187 -50 323 -22 112 24 143 44 152 104 4 21 10 36 14 33 16
-10 23 -76 25 -235 3 -178 18 -280 62 -415 47 -145 62 -168 140 -202 83 -37
228 -74 431 -108 167 -29 245 -49 337 -88 33 -15 102 -34 153 -43 91 -16 94
-16 120 3 15 11 37 37 50 59 21 36 23 46 16 124 -11 127 -9 162 12 199 11 18
26 46 35 62 9 15 33 53 54 84 35 50 39 63 45 142 4 49 3 102 -2 118 -4 17 -8
103 -7 193 1 187 4 180 -91 208 -81 24 -89 34 -62 86 12 24 40 72 62 108 22
35 45 82 51 105 5 22 19 59 30 82 11 24 21 51 21 60 1 10 -19 47 -44 83 -24
36 -59 103 -78 149 -33 82 -33 85 -20 140 22 92 24 175 5 204 -30 46 -36 92
-36 253 1 148 -1 171 -30 285 -37 150 -84 243 -159 319 -100 102 -187 145
-563 284 -82 30 -169 67 -195 83 -45 27 -52 28 -197 29 -82 1 -199 7 -260 13
-144 14 -342 13 -430 -4z"/>
</g>
</svg>
