<?xml version="1.0" standalone="no"?>
<!DOCTYPE svg PUBLIC "-//W3C//DTD SVG 20010904//EN"
 "http://www.w3.org/TR/2001/REC-SVG-20010904/DTD/svg10.dtd">
<svg version="1.0" xmlns="http://www.w3.org/2000/svg"
 width="546.000000pt" height="500.000000pt" viewBox="0 0 546.000000 500.000000"
 preserveAspectRatio="xMidYMid meet">

<g transform="translate(0.000000,500.000000) scale(0.100000,-0.100000)"
fill="#000000" stroke="none">
<path d="M2200 4984 c-14 -3 -92 -23 -175 -45 -82 -22 -199 -50 -260 -63 -125
-28 -190 -48 -256 -82 -32 -16 -49 -20 -57 -12 -7 7 -25 5 -61 -7 -57 -19
-212 -109 -224 -131 -4 -8 -27 -24 -50 -35 -75 -39 -231 -147 -287 -199 -30
-28 -84 -73 -120 -100 -73 -54 -347 -337 -402 -415 -20 -27 -48 -75 -63 -105
-15 -30 -51 -93 -80 -140 -29 -47 -58 -101 -63 -120 -6 -19 -18 -60 -27 -90
-8 -30 -22 -62 -31 -71 -20 -22 -29 -168 -16 -274 7 -64 6 -82 -4 -88 -29 -17
-10 -204 25 -241 25 -27 51 -91 51 -125 0 -44 144 -261 174 -261 15 0 86 -72
86 -88 0 -6 26 -30 58 -54 31 -23 72 -55 90 -70 18 -15 39 -28 47 -28 8 0 43
-21 77 -46 89 -66 301 -168 335 -161 28 5 148 -27 158 -42 11 -19 175 -33 343
-29 157 3 175 5 188 22 12 17 23 18 106 13 53 -4 156 -22 238 -42 189 -46 294
-54 373 -28 68 24 67 24 87 -72 16 -75 26 -95 47 -95 13 0 15 -9 9 -57 -4 -37
-12 -61 -23 -66 -13 -8 -15 -35 -13 -201 1 -105 -3 -243 -10 -306 -10 -101
-10 -115 4 -126 9 -6 16 -22 16 -35 0 -13 9 -38 19 -55 13 -21 16 -35 9 -42
-14 -14 2 -40 61 -95 29 -27 60 -47 73 -47 29 0 78 -48 78 -76 0 -31 80 -99
146 -124 62 -23 85 -25 101 -9 13 13 119 -5 142 -25 9 -8 45 -17 81 -21 158
-16 419 -105 753 -255 205 -92 237 -99 452 -107 197 -6 311 4 416 36 61 19 74
29 195 148 71 71 146 153 166 184 50 76 128 237 128 265 0 13 5 26 10 29 21
13 47 82 59 155 8 50 19 82 33 97 19 20 22 38 25 136 3 61 9 124 15 139 14 37
-7 98 -97 278 -124 247 -157 372 -159 590 -1 133 2 143 66 251 19 32 20 39 8
68 -7 17 -48 71 -92 119 -50 55 -92 114 -115 160 -33 66 -37 81 -36 150 0 82
14 140 58 237 91 204 115 457 55 575 -26 51 -63 76 -131 88 -31 6 -82 20 -115
30 -32 11 -78 25 -102 32 -35 9 -67 34 -159 123 -63 62 -158 165 -210 229 -58
72 -103 118 -116 120 -15 2 -35 30 -72 99 -86 160 -163 253 -276 332 -42 29
-83 60 -93 69 -26 27 -148 97 -208 120 -29 11 -73 22 -98 23 -25 1 -76 10
-115 19 -38 9 -140 28 -225 41 -142 23 -191 25 -575 29 -231 3 -431 2 -445 0z"/>
</g>
</svg>
