<?xml version="1.0" standalone="no"?>
<!DOCTYPE svg PUBLIC "-//W3C//DTD SVG 20010904//EN"
 "http://www.w3.org/TR/2001/REC-SVG-20010904/DTD/svg10.dtd">
<svg version="1.0" xmlns="http://www.w3.org/2000/svg"
 width="148.000000pt" height="134.000000pt" viewBox="0 0 148.000000 134.000000"
 preserveAspectRatio="xMidYMid meet">

<g transform="translate(0.000000,134.000000) scale(0.100000,-0.100000)"
fill="#000000" stroke="none">
<path d="M585 1323 c-11 -2 -49 -13 -85 -23 -36 -10 -77 -21 -91 -24 -45 -10
-126 -70 -219 -161 -77 -77 -150 -170 -159 -202 -19 -77 -24 -197 -8 -234 15
-38 138 -168 176 -189 13 -6 73 -25 134 -40 81 -20 118 -25 140 -19 18 5 37 4
48 -2 23 -12 54 2 70 32 10 19 12 19 28 5 26 -24 54 -19 73 11 l17 28 11 -30
c7 -18 10 -77 8 -150 -3 -119 -3 -120 28 -170 38 -62 81 -92 142 -100 106 -14
261 -36 317 -46 77 -13 99 -5 157 59 50 57 83 132 98 228 12 77 9 85 -67 167
-48 53 -53 62 -53 105 0 37 7 58 35 99 19 29 35 56 35 60 0 4 -14 28 -30 53
-34 51 -36 74 -15 144 22 71 6 100 -55 104 -43 3 -47 6 -74 53 -15 28 -41 66
-58 84 -30 35 -133 97 -203 122 -87 32 -326 53 -400 36z"/>
</g>
</svg>
