<?xml version="1.0" standalone="no"?>
<!DOCTYPE svg PUBLIC "-//W3C//DTD SVG 20010904//EN"
 "http://www.w3.org/TR/2001/REC-SVG-20010904/DTD/svg10.dtd">
<svg version="1.0" xmlns="http://www.w3.org/2000/svg"
 width="134.000000pt" height="129.000000pt" viewBox="0 0 134.000000 129.000000"
 preserveAspectRatio="xMidYMid meet">

<g transform="translate(0.000000,129.000000) scale(0.100000,-0.100000)"
fill="#000000" stroke="none">
<path d="M490 1265 c-149 -27 -229 -70 -340 -185 -111 -114 -159 -216 -145
-310 14 -94 89 -196 176 -241 78 -39 247 -57 265 -28 3 5 19 9 35 9 17 0 39 5
50 10 30 17 39 -23 39 -170 0 -122 1 -130 24 -157 45 -53 96 -80 165 -87 44
-4 92 -19 150 -46 89 -40 191 -60 246 -46 33 8 100 77 127 131 12 22 29 73 39
114 l18 74 -34 64 c-41 77 -52 138 -35 197 11 40 10 45 -15 82 -29 43 -30 77
-5 184 18 77 3 106 -68 132 -45 17 -61 31 -111 96 -111 145 -155 170 -320 183
-134 10 -180 9 -261 -6z"/>
</g>
</svg>
