<?xml version="1.0" standalone="no"?>
<!DOCTYPE svg PUBLIC "-//W3C//DTD SVG 20010904//EN"
 "http://www.w3.org/TR/2001/REC-SVG-20010904/DTD/svg10.dtd">
<svg version="1.0" xmlns="http://www.w3.org/2000/svg"
 width="602.000000pt" height="548.000000pt" viewBox="0 0 602.000000 548.000000"
 preserveAspectRatio="xMidYMid meet">

<g transform="translate(0.000000,548.000000) scale(0.100000,-0.100000)"
fill="#000000" stroke="none">
<path d="M2365 5463 c-22 -1 -103 -7 -180 -13 -397 -31 -764 -113 -976 -220
-73 -37 -200 -123 -271 -183 -64 -55 -392 -402 -455 -482 -18 -22 -66 -108
-108 -192 -51 -102 -86 -160 -106 -175 -118 -90 -168 -173 -213 -353 -42 -167
-47 -239 -42 -597 l4 -335 27 -62 c34 -76 122 -161 215 -210 50 -26 97 -66
200 -171 90 -92 152 -146 185 -163 92 -46 277 -88 420 -97 72 -4 173 -17 225
-28 210 -46 395 -50 547 -11 86 22 129 43 210 103 96 72 121 79 339 84 l190 4
28 -88 c28 -88 28 -92 33 -404 4 -264 2 -334 -12 -429 -37 -240 -9 -315 220
-601 51 -63 126 -167 167 -231 117 -180 151 -199 374 -209 144 -7 154 -9 230
-43 99 -45 149 -56 244 -57 155 0 303 -34 699 -159 353 -112 455 -134 611
-135 206 -1 286 39 372 187 85 148 101 168 163 213 153 108 174 155 254 546
59 289 76 500 45 560 -13 25 -14 40 -5 92 33 190 -22 418 -142 596 -53 77
-147 169 -282 273 -146 113 -443 404 -523 512 -79 106 -102 158 -102 230 0 95
-29 142 -170 274 -101 95 -125 123 -155 184 -19 40 -42 105 -51 146 l-15 73
60 127 c97 204 112 313 57 425 -36 73 -105 135 -235 210 -128 74 -178 110
-410 295 -344 273 -550 384 -861 462 -167 42 -342 59 -570 57 -107 -1 -213 -3
-235 -5z"/>
</g>
</svg>
