<?xml version="1.0" standalone="no"?>
<!DOCTYPE svg PUBLIC "-//W3C//DTD SVG 20010904//EN"
 "http://www.w3.org/TR/2001/REC-SVG-20010904/DTD/svg10.dtd">
<svg version="1.0" xmlns="http://www.w3.org/2000/svg"
 width="672.000000pt" height="329.000000pt" viewBox="0 0 672.000000 329.000000"
 preserveAspectRatio="xMidYMid meet">

<g transform="translate(0.000000,329.000000) scale(0.100000,-0.100000)"
fill="#000000" stroke="none">
<path d="M5099 3227 c-31 -22 -34 -27 -33 -73 1 -28 21 -113 44 -189 64 -213
73 -245 69 -249 -2 -2 -114 -39 -249 -81 -135 -42 -247 -79 -249 -81 -2 -2 21
-86 52 -186 91 -298 93 -312 51 -328 -72 -28 -83 -10 -171 260 -36 113 -67
206 -69 208 -3 5 -354 -105 -362 -112 -3 -4 17 -82 46 -174 57 -188 82 -281
82 -310 0 -22 -46 -46 -76 -40 -29 5 -54 59 -124 267 -49 147 -70 197 -84 199
-25 5 -337 -90 -343 -104 -2 -7 23 -102 56 -213 34 -111 64 -218 67 -239 6
-36 4 -39 -30 -57 -68 -37 -94 2 -177 258 -34 106 -65 196 -69 200 -7 7 -337
-88 -351 -102 -4 -3 17 -85 47 -180 58 -189 79 -281 69 -311 -9 -27 -82 -47
-102 -27 -8 8 -47 115 -88 238 -40 123 -78 225 -85 227 -11 4 -315 -92 -338
-107 -15 -9 -3 -60 73 -311 19 -63 34 -132 35 -153 0 -35 -3 -39 -37 -54 -24
-9 -43 -12 -52 -6 -18 11 -58 115 -123 321 -30 93 -56 161 -62 159 -6 -3 -87
-28 -181 -57 -93 -29 -172 -55 -174 -56 -2 -2 17 -70 42 -151 59 -188 87 -292
87 -319 0 -50 -84 -75 -113 -33 -9 11 -48 118 -88 237 -39 120 -73 218 -74
219 -1 2 -64 -18 -141 -42 -242 -79 -406 -175 -501 -294 -55 -69 -147 -254
-168 -340 -11 -44 -16 -106 -16 -196 l1 -132 -58 -17 c-567 -174 -985 -311
-1037 -339 -68 -38 -70 -111 -4 -160 27 -19 27 -19 126 6 55 14 310 91 569
172 424 132 470 145 479 129 117 -199 241 -310 440 -395 95 -41 162 -54 280
-54 123 1 130 2 560 131 327 98 634 194 1590 494 435 137 828 261 875 275 47
15 213 67 369 116 156 50 287 86 291 82 4 -4 38 -100 76 -213 71 -213 91 -250
138 -250 59 0 116 44 116 89 0 38 -40 180 -137 494 -52 166 -83 281 -77 286 9
9 560 186 599 193 16 2 24 -12 55 -102 54 -160 78 -190 151 -190 34 0 75 35
84 73 10 39 -154 595 -347 1175 -85 258 -109 302 -162 302 -58 0 -106 -48
-106 -107 0 -15 14 -79 32 -141 17 -61 29 -115 25 -118 -7 -7 -597 -194 -613
-194 -5 0 -20 33 -33 73 -80 257 -196 609 -213 650 -33 76 -95 97 -159 54z"/>
</g>
</svg>
