<?xml version="1.0" standalone="no"?>
<!DOCTYPE svg PUBLIC "-//W3C//DTD SVG 20010904//EN"
 "http://www.w3.org/TR/2001/REC-SVG-20010904/DTD/svg10.dtd">
<svg version="1.0" xmlns="http://www.w3.org/2000/svg"
 width="231.000000pt" height="147.000000pt" viewBox="0 0 231.000000 147.000000"
 preserveAspectRatio="xMidYMid meet">

<g transform="translate(0.000000,147.000000) scale(0.100000,-0.100000)"
fill="#000000" stroke="none">
<path d="M169 1441 c-62 -39 -124 -112 -143 -168 -24 -69 -21 -136 7 -167 19
-22 339 -207 987 -573 183 -104 185 -104 201 -84 18 22 39 27 55 12 5 -5 95
-55 199 -111 177 -94 192 -101 221 -91 28 10 41 5 179 -74 108 -62 158 -85
183 -85 37 0 124 -47 154 -84 l17 -21 25 24 c28 26 61 113 52 136 -3 8 -14 15
-26 15 -38 0 -147 50 -158 73 -6 13 -74 59 -166 112 -139 80 -156 93 -156 116
0 15 -7 32 -16 40 -8 7 -99 60 -202 119 -177 100 -187 107 -190 138 -3 28 -12
37 -75 73 -40 23 -166 96 -282 164 -371 216 -805 465 -813 465 -4 0 -28 -13
-53 -29z m1195 -688 c-14 -77 -108 -243 -137 -243 -5 0 5 17 22 39 41 51 101
179 101 213 0 15 5 28 10 28 7 0 8 -14 4 -37z m-159 -273 c-10 -11 -20 -18
-23 -15 -7 6 18 35 31 35 5 0 2 -9 -8 -20z m576 -87 c-11 -42 -79 -123 -102
-123 -8 0 -5 6 8 15 32 22 80 106 89 156 7 36 9 39 12 17 2 -14 -2 -44 -7 -65z
m309 -227 c-7 -23 -18 -35 -35 -38 l-24 -5 24 29 c14 16 28 42 32 56 5 20 8
22 11 9 2 -9 -2 -32 -8 -51z"/>
</g>
</svg>
