<?xml version="1.0" standalone="no"?>
<!DOCTYPE svg PUBLIC "-//W3C//DTD SVG 20010904//EN"
 "http://www.w3.org/TR/2001/REC-SVG-20010904/DTD/svg10.dtd">
<svg version="1.0" xmlns="http://www.w3.org/2000/svg"
 width="714.000000pt" height="434.000000pt" viewBox="0 0 714.000000 434.000000"
 preserveAspectRatio="xMidYMid meet">

<g transform="translate(0.000000,434.000000) scale(0.100000,-0.100000)"
fill="#000000" stroke="none">
<path d="M50 4291 c0 -5 13 -61 29 -123 51 -196 53 -273 49 -1783 -4 -1527 -1
-1439 -68 -1564 -17 -30 -28 -56 -26 -59 3 -2 183 -9 401 -14 294 -8 413 -8
459 0 160 30 298 144 380 314 85 176 118 365 119 668 0 228 -17 367 -60 504
-64 202 -144 303 -288 358 -30 11 -55 24 -55 27 0 3 18 16 40 29 74 42 147
153 194 294 47 140 60 244 60 488 0 253 -13 361 -65 514 -73 220 -177 321
-354 346 -90 12 -815 13 -815 1z m701 -243 c49 -33 103 -148 131 -278 19 -92
22 -136 23 -350 0 -230 -1 -250 -23 -320 -32 -101 -77 -183 -124 -225 -33 -30
-45 -35 -88 -35 -27 0 -68 7 -90 16 l-40 16 0 588 0 588 63 10 c96 15 112 14
148 -10z m-12 -1543 c73 -37 152 -166 204 -331 59 -186 76 -370 58 -620 -30
-408 -118 -583 -294 -584 -78 0 -113 20 -140 78 -22 47 -22 54 -25 739 l-3
691 58 20 c71 25 105 27 142 7z"/>
<path d="M2615 4048 c-7 -23 -45 -168 -45 -174 0 -3 16 7 36 23 29 21 50 28
99 31 l63 4 7 -67 c4 -37 5 -284 3 -549 -5 -505 -7 -528 -51 -565 -10 -7 -17
-17 -17 -22 0 -5 77 -9 172 -9 l171 0 -21 23 c-13 13 -27 39 -32 58 -6 20 -10
256 -10 583 l0 548 60 -4 c49 -3 67 -10 102 -38 23 -19 39 -27 36 -19 -5 13
-47 151 -54 177 -3 9 -63 12 -259 12 -196 0 -257 -3 -260 -12z"/>
<path d="M3127 3738 c10 -83 10 -829 0 -891 l-8 -48 108 3 c90 3 107 5 104 18
-3 8 -7 124 -9 258 l-4 242 112 0 111 0 -4 -237 c-2 -131 -6 -247 -8 -258 -4
-19 2 -20 109 -23 94 -2 113 0 118 13 4 8 -1 66 -10 128 -8 61 -18 186 -21
277 -6 167 7 516 20 558 7 22 7 22 -102 22 l-109 0 1 -172 0 -173 -105 0 -105
0 0 140 c0 77 2 154 5 170 l5 30 -108 3 -108 3 8 -63z"/>
<path d="M3776 3773 c11 -35 12 -898 1 -935 l-7 -28 240 0 c132 0 240 1 240 3
0 1 6 39 14 85 7 45 12 82 10 82 -2 0 -24 -15 -48 -34 -34 -26 -62 -37 -115
-46 -114 -19 -106 -35 -109 198 l-2 202 74 0 c41 0 86 -4 100 -10 l26 -10 0
73 0 73 -100 -4 -100 -4 0 136 0 136 99 0 c77 0 101 -3 111 -15 19 -23 27 -8
34 63 l7 62 -242 0 -241 0 8 -27z"/>
<path d="M4150 2670 c-36 -4 -228 -8 -427 -9 -199 0 -364 -5 -367 -9 -12 -20
-98 -512 -90 -520 1 -2 12 16 24 40 28 55 75 104 122 129 37 19 145 26 196 13
l22 -6 0 -922 c0 -506 -5 -964 -10 -1017 -10 -107 -33 -175 -85 -262 -19 -32
-35 -60 -35 -63 0 -2 133 -4 295 -4 162 0 295 2 295 4 0 2 -16 27 -35 56 -39
57 -51 95 -65 202 -6 41 -13 490 -17 1036 -5 822 -4 965 8 973 8 5 45 9 82 9
104 0 164 -40 236 -155 17 -27 31 -43 31 -35 0 27 -104 550 -110 548 -3 0 -34
-4 -70 -8z"/>
<path d="M6398 2631 c-78 -25 -136 -61 -185 -113 -145 -158 -179 -382 -88
-576 50 -106 118 -169 305 -281 174 -106 244 -167 291 -255 57 -105 51 -259
-12 -346 -78 -107 -252 -149 -370 -89 -50 25 -114 101 -133 156 -20 59 -21
147 -1 177 18 27 10 56 -15 56 -29 0 -81 -50 -103 -100 -13 -28 -21 -72 -23
-119 -3 -68 -6 -77 -34 -106 -54 -56 -118 -83 -245 -105 -144 -25 -168 -25
-189 -2 -15 17 -16 55 -14 383 l3 364 150 -1 c115 0 159 -4 188 -17 l37 -16 0
146 0 145 -22 -7 c-70 -21 -105 -25 -225 -25 l-133 0 0 254 0 254 58 6 c31 4
118 3 192 -3 l134 -9 28 -33 c15 -18 28 -29 28 -24 0 6 7 57 15 115 8 58 15
115 15 128 l0 22 -454 0 -455 0 21 -47 c18 -40 22 -79 30 -297 5 -138 8 -450
6 -693 l-3 -442 -40 -41 c-60 -62 -123 -98 -210 -120 -111 -28 -158 -27 -184
6 -21 26 -21 35 -20 548 1 717 10 1011 32 1053 9 18 17 34 17 38 0 3 -100 5
-221 5 l-221 0 6 -22 c33 -114 38 -164 43 -488 2 -184 0 -535 -5 -780 -10
-433 -15 -488 -47 -562 -7 -16 43 -17 848 -17 l855 0 5 22 c3 12 11 58 18 102
6 44 15 84 19 88 3 4 20 -14 37 -41 80 -129 251 -203 433 -187 236 20 399 116
483 284 52 103 70 199 65 335 -4 104 -7 119 -39 187 -65 135 -153 213 -399
353 -214 122 -255 173 -255 316 0 72 4 92 25 130 14 24 45 58 68 75 40 27 51
30 125 30 104 0 162 -22 234 -86 29 -27 57 -49 61 -49 6 0 72 232 72 253 0 3
-13 0 -29 -6 -26 -9 -40 -7 -98 18 -157 66 -191 75 -308 74 -78 0 -126 -5
-167 -18z m-1211 -1698 c-6 -81 -24 -159 -34 -149 -7 6 27 226 35 226 3 0 2
-35 -1 -77z"/>
<path d="M2630 2610 c0 -5 4 -10 10 -10 5 0 17 -14 26 -32 25 -48 14 -135 -50
-418 -30 -135 -83 -375 -116 -535 -118 -563 -158 -728 -181 -749 -8 -8 -10 -6
-5 9 3 11 10 52 16 90 5 39 13 85 16 104 l5 34 -63 -57 c-35 -31 -81 -65 -103
-76 -41 -19 -243 -60 -301 -60 -65 0 -67 16 -58 428 l7 344 146 -4 c102 -3
157 -9 183 -21 20 -8 39 -13 42 -9 7 6 8 282 1 282 -2 0 -30 -7 -62 -15 -36
-10 -104 -15 -185 -15 l-128 0 0 254 0 255 53 6 c28 3 112 2 185 -3 126 -9
135 -11 163 -38 16 -15 30 -26 33 -23 2 2 10 61 18 132 l14 127 -454 0 c-429
0 -454 -1 -447 -17 40 -93 40 -86 39 -913 0 -692 -2 -801 -15 -845 -9 -27 -18
-57 -20 -65 -4 -13 72 -15 630 -18 607 -3 633 -2 626 15 -20 51 -12 147 31
356 l6 27 158 0 c186 0 163 24 181 -193 10 -115 10 -153 1 -168 -7 -10 -12
-22 -12 -26 0 -5 110 -10 245 -11 135 -2 245 -1 245 2 0 3 -13 24 -29 48 -73
110 -122 296 -245 923 -30 154 -74 370 -96 480 -32 154 -41 216 -38 269 4 64
6 70 41 102 20 19 37 36 37 39 0 3 -124 5 -275 5 -177 0 -275 -4 -275 -10z
m274 -765 c26 -165 49 -310 51 -322 5 -23 4 -23 -106 -23 -110 0 -111 0 -106
23 3 12 26 153 52 312 48 296 53 321 59 314 2 -2 25 -139 50 -304z"/>
</g>
</svg>
