<?xml version="1.0" standalone="no"?>
<!DOCTYPE svg PUBLIC "-//W3C//DTD SVG 20010904//EN"
 "http://www.w3.org/TR/2001/REC-SVG-20010904/DTD/svg10.dtd">
<svg version="1.0" xmlns="http://www.w3.org/2000/svg"
 width="474.000000pt" height="388.000000pt" viewBox="0 0 474.000000 388.000000"
 preserveAspectRatio="xMidYMid meet">

<g transform="translate(0.000000,388.000000) scale(0.100000,-0.100000)"
fill="#000000" stroke="none">
<path d="M2234 3773 c-12 -2 -29 -12 -38 -22 -16 -17 -16 -21 5 -57 11 -22 27
-43 35 -47 8 -4 14 -16 14 -25 0 -9 7 -26 15 -36 8 -11 15 -30 15 -42 0 -12 6
-24 13 -27 6 -2 9 -8 5 -12 -8 -8 -19 -4 -63 25 -16 10 -53 31 -82 45 -28 14
-54 32 -57 40 -3 8 -17 15 -31 15 -40 0 -46 -34 -44 -231 1 -97 -1 -181 -4
-187 -11 -16 21 -38 35 -24 7 7 20 12 29 12 9 0 24 11 33 25 9 14 24 25 34 25
10 0 22 4 27 9 11 10 85 26 85 19 0 -3 -11 -27 -25 -54 -14 -27 -25 -57 -25
-66 0 -9 -16 -30 -35 -45 -20 -15 -54 -54 -76 -87 -35 -50 -41 -68 -46 -127
-3 -40 -2 -74 4 -81 6 -7 13 -26 17 -43 4 -16 11 -32 14 -35 4 -3 19 -22 35
-42 30 -40 37 -66 8 -32 -11 15 -31 23 -57 24 -59 4 -69 2 -100 -22 -23 -19
-38 -22 -90 -19 -37 1 -64 -2 -68 -8 -4 -6 -34 -11 -66 -11 -32 0 -62 -4 -65
-10 -3 -5 -15 -10 -26 -10 -10 0 -19 -7 -19 -15 0 -8 -5 -15 -12 -15 -6 0 -19
-7 -28 -15 -9 -8 -40 -16 -74 -17 -32 -1 -59 -5 -62 -9 -2 -4 -33 -4 -68 -2
-36 3 -73 2 -83 -2 -10 -4 -24 -9 -31 -11 -8 -1 -31 -15 -53 -30 -37 -25 -42
-26 -79 -14 -34 11 -43 11 -77 -6 -21 -10 -44 -19 -52 -20 -8 -2 -24 -14 -35
-27 -16 -20 -34 -26 -76 -30 -30 -3 -62 -8 -70 -10 -8 -2 -30 -8 -48 -12 -24
-6 -36 -16 -47 -41 -13 -31 -18 -34 -57 -34 -49 0 -98 -19 -98 -37 0 -7 -6
-13 -12 -13 -15 -1 -68 -45 -68 -58 0 -26 -27 -62 -48 -62 -26 0 -68 -25 -97
-57 -11 -13 -26 -23 -33 -23 -8 0 -12 -20 -12 -64 0 -63 0 -64 -32 -76 -55
-20 -63 -26 -66 -54 -2 -14 -9 -38 -17 -52 -13 -25 -10 -60 6 -70 5 -3 9 -19
9 -36 0 -23 4 -29 15 -24 21 8 20 -32 -2 -57 -13 -13 -19 -41 -21 -92 -4 -67
-2 -74 17 -80 12 -3 29 -17 37 -31 9 -13 22 -24 30 -24 8 0 11 -6 7 -16 -5
-13 1 -15 28 -14 49 3 53 2 40 -13 -14 -18 21 -51 64 -61 32 -8 125 -92 125
-113 0 -7 7 -13 15 -13 9 0 12 -6 9 -15 -7 -18 27 -94 43 -95 19 0 83 -82 83
-105 0 -13 10 -27 25 -35 34 -18 31 -35 -10 -54 -19 -9 -37 -21 -40 -26 -9
-14 30 -75 50 -79 25 -4 94 19 128 43 21 15 30 17 39 8 9 -9 7 -12 -8 -12 -11
0 -31 -12 -45 -26 l-24 -26 31 -26 c17 -15 40 -34 52 -42 12 -8 22 -25 22 -37
0 -13 5 -23 10 -23 6 0 10 -13 10 -30 0 -16 -4 -30 -10 -30 -5 0 -10 13 -10
30 0 38 -49 96 -74 87 -9 -4 -19 -15 -23 -24 -3 -10 -17 -30 -30 -44 -14 -15
-27 -43 -29 -65 -4 -33 -1 -42 21 -57 25 -18 25 -18 37 8 12 27 54 35 76 13 8
-8 15 -8 27 2 12 10 15 10 15 -4 0 -20 52 -22 72 -4 25 23 57 38 82 38 14 0
28 5 31 10 3 6 21 10 38 10 18 1 43 7 57 15 14 8 46 14 72 15 26 0 50 5 53 10
3 6 24 10 45 10 21 0 41 4 44 9 9 14 79 22 221 27 72 3 134 9 140 15 5 5 27 9
50 9 23 0 45 4 50 9 15 13 769 23 782 10 5 -5 51 -13 102 -16 50 -3 91 -10 91
-16 0 -5 24 -7 60 -4 33 2 63 1 66 -4 3 -5 34 -9 69 -9 35 0 67 -5 70 -11 4
-6 13 -8 21 -5 7 3 16 1 19 -4 4 -6 21 -10 39 -10 18 0 36 -3 40 -8 4 -4 17
-8 29 -9 56 -6 98 -16 103 -24 3 -5 22 -9 43 -9 22 0 44 -6 51 -15 7 -8 18
-15 26 -15 15 0 98 -26 129 -40 11 -5 32 -14 48 -20 26 -9 27 -8 27 20 0 17 4
30 9 30 4 0 11 18 14 40 6 43 46 99 86 118 31 15 46 15 71 0 26 -16 36 -4 22
27 -13 27 2 45 21 26 29 -29 108 0 107 40 -1 29 -52 69 -89 69 -11 0 -22 4
-26 9 -9 15 15 24 30 11 19 -16 40 -7 60 23 12 19 13 30 5 53 -9 23 -9 27 1
17 37 -37 129 6 129 58 0 39 -21 59 -61 59 -24 0 -40 -8 -56 -27 -23 -26 -40
-26 -30 0 8 23 66 47 109 47 28 0 40 5 45 18 9 22 124 132 140 132 7 0 16 6
20 13 4 8 16 16 26 20 50 18 -16 47 -109 47 -55 0 -73 4 -78 15 -3 8 -13 15
-23 15 -22 0 -93 -56 -93 -73 -1 -36 -18 -37 -52 -3 -32 32 -42 36 -87 36 -49
0 -51 -1 -51 -27 0 -14 7 -35 17 -45 20 -23 9 -36 -17 -20 -25 15 -39 15 -73
0 -25 -12 -38 -38 -18 -38 5 0 11 -8 15 -17 3 -10 11 -26 18 -35 10 -14 9 -20
-5 -36 -16 -18 -16 -20 2 -40 14 -17 29 -22 71 -22 37 0 50 -4 48 -12 -7 -20
-82 -22 -98 -3 -7 8 -21 15 -32 15 -29 0 -98 48 -98 68 0 5 9 17 20 27 39 35
14 105 -37 105 -26 0 -63 -41 -63 -71 0 -13 -4 -28 -8 -34 -13 -18 -51 -35
-79 -35 -50 0 -141 56 -122 75 2 2 22 -5 44 -15 37 -17 75 -24 118 -21 12 1
17 9 17 31 0 19 5 30 14 30 23 0 45 73 25 85 -15 10 -11 35 5 29 25 -10 29 17
7 47 -11 15 -21 33 -21 39 0 10 -12 14 -41 11 -23 -2 -54 36 -42 51 9 11 24
57 27 80 1 3 4 10 9 14 4 4 7 -9 7 -30 0 -29 5 -38 23 -45 17 -7 24 -4 29 10
4 11 18 24 30 29 13 6 30 14 38 19 8 5 29 14 45 21 17 7 38 16 47 21 10 5 25
9 33 9 19 0 19 34 0 50 -8 7 -15 23 -15 36 0 13 -4 24 -10 24 -6 0 -10 38 -10
94 0 53 -4 98 -10 101 -5 3 -10 19 -10 35 0 16 -4 32 -10 35 -5 3 -10 15 -10
26 0 10 -6 19 -13 19 -7 0 -19 16 -27 35 -8 20 -19 34 -24 32 -17 -6 -19 -37
-6 -63 7 -13 10 -35 6 -51 -16 -67 -18 -103 -5 -103 9 0 10 -19 5 -77 -6 -75
-8 -80 -46 -115 -23 -21 -47 -38 -55 -38 -8 0 -20 -9 -28 -21 -11 -14 -23 -20
-43 -17 -27 3 -29 7 -32 51 -2 26 0 47 3 47 4 0 22 -7 40 -16 30 -14 35 -14
66 3 19 11 37 31 42 48 5 17 17 39 27 50 19 23 18 62 -4 107 -17 32 -21 70
-10 81 4 4 8 28 9 53 1 34 -3 52 -17 66 -10 10 -18 27 -18 39 0 18 4 20 28 14
15 -3 37 -15 48 -26 12 -11 25 -19 30 -18 13 3 63 -12 93 -27 14 -8 32 -14 39
-14 6 0 12 -4 12 -9 0 -5 8 -12 18 -15 32 -12 64 -34 101 -70 20 -20 42 -36
48 -36 9 0 29 -21 85 -89 34 -42 46 -85 49 -179 2 -53 1 -101 -2 -107 -11 -17
-21 -104 -14 -124 14 -44 194 -91 231 -60 9 7 30 12 46 11 26 -2 29 0 19 12
-9 11 -9 15 0 18 8 3 14 30 17 69 3 56 1 69 -22 102 -29 43 -32 57 -12 57 27
0 40 30 38 93 -1 33 -6 65 -12 71 -5 5 -10 17 -10 26 0 24 -72 90 -98 90 -24
0 -28 10 -11 27 8 8 8 13 0 17 -6 4 -11 19 -11 33 0 36 -31 83 -54 83 -11 0
-33 12 -48 27 -22 21 -31 24 -40 15 -7 -7 -24 -12 -39 -12 -20 0 -30 8 -42 33
-19 40 -43 62 -77 71 -14 4 -35 12 -48 19 -18 8 -28 8 -42 -1 -26 -16 -40 -15
-40 1 0 18 -28 43 -76 68 -32 16 -43 17 -61 8 -26 -14 -53 -5 -60 19 -5 23
-56 42 -128 49 -30 3 -60 12 -66 19 -6 8 -22 14 -34 14 -13 0 -25 6 -28 13 -2
7 -21 11 -50 10 -32 -1 -47 3 -47 11 0 7 -13 25 -30 41 -25 24 -38 28 -89 29
-58 1 -61 2 -83 37 -23 38 -51 49 -121 49 -29 0 -56 13 -99 47 -21 16 -36 20
-66 16 -27 -4 -48 1 -75 16 -21 12 -50 21 -65 21 -63 0 -72 2 -72 9 0 4 9 16
19 25 11 10 20 25 20 34 1 39 15 88 29 105 14 16 14 21 -1 53 -9 19 -17 46
-17 59 0 23 -8 44 -32 85 -5 8 -11 23 -14 33 -4 9 -12 17 -19 17 -7 0 -20 11
-28 24 -9 13 -22 30 -29 37 -7 8 -22 31 -32 52 -11 20 -23 37 -28 37 -4 0 -8
10 -8 21 0 18 4 20 23 14 12 -3 33 -9 47 -12 24 -6 79 -39 91 -55 11 -16 66
-27 78 -15 13 13 14 297 3 362 -8 39 -9 40 -46 38 -29 -2 -51 -14 -90 -46 -28
-24 -64 -47 -79 -51 -28 -7 -29 -6 -22 25 4 18 16 46 26 63 30 50 59 114 59
129 0 30 -29 38 -166 42 -75 2 -142 9 -148 15 -5 5 -12 9 -15 9 -4 -1 -16 -4
-27 -6z m74 -757 c4 -93 -7 -105 -91 -99 -33 2 -63 6 -65 8 -2 2 6 25 19 52
27 57 86 114 114 110 17 -2 20 -11 23 -71z m222 49 c7 -14 18 -25 23 -25 15 0
36 -32 37 -55 0 -12 5 -26 11 -32 7 -7 9 -19 6 -27 -5 -12 -22 -16 -73 -16
-92 0 -111 26 -81 111 24 70 54 87 77 44z m-120 -237 c227 6 234 0 125 -115
-45 -49 -53 -53 -95 -53 -25 0 -51 -4 -58 -9 -16 -10 -66 6 -105 34 -60 42
-97 78 -97 92 0 9 -8 22 -17 29 -17 12 -16 13 7 14 14 0 32 5 40 10 8 5 18 6
23 1 4 -4 84 -6 177 -3z m196 -200 c-8 -18 -23 -37 -35 -43 -23 -11 -29 -35
-7 -35 7 0 19 -7 26 -15 7 -8 25 -15 41 -15 15 0 31 -4 34 -10 3 -5 18 -10 33
-10 15 0 40 -7 56 -15 15 -8 38 -15 50 -15 13 0 33 -11 45 -24 14 -15 40 -27
65 -31 22 -4 52 -17 66 -29 35 -30 85 -56 108 -56 11 0 22 -8 25 -19 2 -11 24
-28 48 -39 24 -11 55 -32 68 -46 14 -14 29 -26 33 -26 11 0 38 -25 38 -35 0
-4 16 -25 35 -48 21 -24 38 -56 41 -79 4 -21 10 -38 15 -38 5 0 9 -8 9 -17 0
-9 6 -24 14 -32 7 -9 16 -44 18 -79 4 -51 1 -65 -14 -79 -25 -23 -24 -63 3
-70 21 -6 21 -6 1 -17 -11 -6 -41 -30 -67 -54 l-47 -42 -25 19 -25 20 26 7
c17 4 28 15 32 33 4 14 18 38 32 54 23 25 27 37 30 123 3 63 1 99 -7 107 -6 6
-11 22 -11 35 0 31 -17 62 -35 62 -8 0 -15 6 -15 13 0 15 -111 127 -126 127
-5 0 -25 16 -44 35 -18 19 -46 37 -61 40 -16 4 -31 10 -34 15 -3 5 -38 25 -78
45 -40 20 -79 40 -87 44 -8 5 -44 22 -80 37 -36 16 -66 32 -68 37 -2 4 -13 7
-25 7 -12 0 -33 6 -47 13 -38 20 -102 28 -117 15 -15 -12 -18 -48 -3 -48 6 0
10 -6 10 -12 0 -13 44 -38 66 -38 6 0 17 -7 24 -15 7 -8 23 -15 36 -15 12 0
26 -4 29 -10 3 -5 14 -10 23 -10 9 0 30 -7 46 -15 15 -8 33 -15 39 -15 6 0 18
-6 26 -13 9 -7 36 -22 61 -32 25 -10 59 -29 77 -42 17 -13 36 -23 41 -23 4 0
19 -11 32 -25 13 -14 28 -25 34 -25 18 0 131 -121 149 -159 11 -21 17 -59 17
-99 0 -53 -5 -72 -27 -108 -16 -24 -35 -43 -44 -44 -9 0 -23 -8 -33 -19 -13
-14 -14 -24 -7 -45 6 -14 15 -26 21 -26 5 0 10 -6 10 -14 0 -23 22 -31 35 -13
7 10 17 17 24 17 16 0 14 -25 -5 -41 -12 -9 -15 -27 -12 -69 l3 -57 -35 9
c-19 5 -44 14 -56 19 -11 6 -40 9 -65 7 l-44 -3 -5 -45 c-5 -41 -7 -45 -35
-48 -16 -2 -34 -7 -38 -12 -10 -8 11 -50 31 -63 18 -12 15 -54 -5 -66 -15 -8
-15 -11 8 -35 13 -14 39 -29 57 -32 18 -3 35 -10 38 -15 8 -13 88 -11 102 3 9
9 12 9 12 1 0 -11 -16 -26 -30 -29 -9 -2 -45 -16 -67 -26 -11 -6 -27 -7 -34
-2 -8 4 -28 7 -46 5 -18 -1 -33 2 -33 7 0 5 -10 13 -22 17 -13 4 -25 8 -28 9
-3 2 -18 8 -33 14 -16 7 -31 21 -34 32 -3 11 -13 20 -23 20 -10 0 -25 3 -34 6
-11 4 -21 -4 -33 -25 -10 -17 -24 -31 -30 -31 -7 0 -13 -4 -13 -10 0 -13 -107
-13 -115 0 -3 6 -17 10 -29 10 -13 0 -29 7 -36 15 -7 8 -21 15 -31 15 -11 0
-19 6 -19 13 0 7 -9 18 -20 25 -11 7 -20 21 -20 32 0 17 5 19 33 13 17 -3 39
-12 48 -19 22 -20 56 -17 106 7 33 16 43 26 43 44 0 25 4 29 53 66 44 33 35
72 -27 104 -11 7 -19 18 -17 26 2 8 4 20 5 28 2 20 -73 56 -119 56 -38 0 -40
1 -37 30 12 110 -3 140 -68 139 -31 -1 -40 2 -40 16 0 20 -36 55 -66 64 -29 9
-75 -10 -81 -34 -4 -16 -13 -19 -44 -18 -54 2 -69 -14 -69 -76 0 -41 5 -56 25
-75 38 -35 33 -53 -12 -45 -21 3 -42 10 -47 15 -16 14 -90 10 -124 -7 -40 -20
-45 -29 -31 -52 9 -15 9 -26 -2 -51 -8 -17 -19 -31 -25 -31 -7 0 -14 -7 -18
-15 -3 -9 11 -28 39 -51 36 -31 43 -42 39 -64 -6 -30 4 -40 56 -58 24 -8 48
-8 75 -2 67 16 95 13 95 -10 0 -23 -68 -60 -110 -60 -14 0 -32 -6 -38 -12 -10
-10 -17 -10 -33 0 -11 7 -40 12 -64 11 -46 -3 -85 19 -85 48 0 7 -6 13 -14 13
-7 0 -19 6 -25 14 -9 10 -8 15 4 20 8 3 15 14 15 24 0 10 5 23 12 30 9 9 9 12
0 12 -7 0 -12 6 -12 13 0 15 -53 40 -77 35 -23 -4 -41 -72 -27 -96 6 -9 20
-21 32 -27 12 -5 22 -13 22 -16 0 -15 -104 -100 -116 -95 -7 3 -16 0 -20 -6
-9 -15 -140 -3 -158 14 -11 12 -4 13 45 10 48 -4 63 -1 88 18 26 18 31 28 31
64 0 32 6 48 25 66 42 39 27 80 -28 80 -27 0 -29 2 -24 29 8 41 -26 71 -81 71
-23 0 -42 -4 -42 -10 0 -5 -6 -10 -14 -10 -18 0 -25 48 -12 71 14 25 -13 74
-58 104 l-37 25 -30 -21 c-32 -23 -58 -19 -66 9 -2 11 -20 25 -39 32 l-34 14
0 112 c0 62 4 115 9 118 5 3 12 22 15 42 10 50 38 95 66 106 23 8 23 8 7 -10
-9 -10 -17 -23 -17 -28 0 -5 -11 -30 -23 -55 -21 -41 -23 -56 -19 -140 4 -99
19 -141 53 -160 36 -19 179 4 179 28 0 12 -43 53 -56 53 -19 0 -33 24 -40 66
-12 77 -9 100 15 144 27 50 90 120 107 120 7 0 22 11 35 25 13 13 28 25 34 25
5 0 35 12 65 26 30 15 80 38 110 52 30 14 72 33 93 43 22 11 56 19 77 19 21 0
43 7 50 14 6 8 32 16 58 18 42 3 47 6 69 45 19 35 21 46 11 62 -9 15 -9 23 0
34 8 10 9 28 3 60 -5 26 -7 47 -5 47 2 0 15 -5 29 -12 23 -10 25 -16 25 -79 0
-37 -4 -71 -10 -74 -5 -3 -9 -16 -9 -28 2 -45 -14 -133 -27 -152 -8 -11 -14
-28 -14 -38 0 -18 -24 -104 -40 -142 -5 -11 -11 -31 -14 -45 -3 -14 -14 -35
-26 -47 -11 -12 -20 -31 -20 -41 0 -10 -13 -31 -30 -47 -26 -25 -43 -78 -22
-73 13 2 62 -21 62 -31 0 -15 48 -41 65 -35 8 4 18 16 21 28 5 20 14 26 92 56
17 7 32 18 32 25 0 9 20 14 63 17 77 5 87 2 87 -28 0 -14 6 -24 14 -24 7 0 19
-7 26 -15 7 -8 22 -15 34 -15 17 0 29 -12 45 -45 26 -53 45 -57 69 -15 9 16
23 30 30 30 6 0 12 6 12 14 0 7 7 19 15 26 23 19 18 57 -12 98 -16 20 -31 39
-35 40 -5 2 -8 14 -8 27 0 13 -4 26 -9 29 -5 3 -12 27 -16 52 -3 26 -15 55
-25 66 -10 11 -21 41 -24 66 -3 26 -10 85 -15 132 -24 199 -24 224 1 247 18
16 73 50 85 53 1 0 -4 -15 -11 -32z m-521 -38 c-19 -36 -41 -39 -47 -5 -6 31
-2 35 34 35 28 0 28 0 13 -30z m618 -11 c10 -11 17 -23 14 -25 -7 -8 -57 21
-57 34 0 19 24 14 43 -9z m-309 1 c21 -8 26 -16 26 -44 0 -49 -19 -61 -72 -45
-49 16 -62 47 -32 80 19 21 40 24 78 9z m-444 -26 c0 -10 -13 -14 -40 -14 -27
0 -40 4 -40 14 0 9 13 13 40 13 27 0 40 -4 40 -13z m930 -6 c0 -19 2 -20 10
-8 8 13 11 12 23 -5 14 -18 14 -21 -10 -64 -1 -2 -18 4 -38 13 -37 18 -47 50
-23 74 19 19 38 14 38 -10z m-1080 -38 c0 -3 -16 -14 -36 -24 -52 -24 -68 -6
-29 34 27 28 30 29 47 13 10 -9 18 -19 18 -23z m1296 -41 c25 -28 8 -53 -40
-57 -38 -3 -76 18 -76 43 0 38 84 49 116 14z m-1723 -27 c10 -11 14 -26 10
-40 -4 -18 -13 -22 -43 -22 -54 0 -67 20 -34 54 31 31 45 32 67 8z m205 -21
c3 -17 -5 -31 -25 -47 -36 -30 -43 -30 -69 3 l-22 28 22 22 c30 33 89 29 94
-6z m330 22 c-10 -2 -18 -9 -18 -14 0 -5 -11 -9 -24 -9 -13 0 -26 -6 -29 -12
-4 -10 -7 -10 -18 0 -11 10 -10 12 4 12 9 0 17 4 17 9 0 9 33 18 70 18 9 1 8
-1 -2 -4z m485 -25 c15 -7 27 -19 27 -25 0 -7 5 -13 10 -13 16 0 11 -36 -7
-52 -10 -9 -31 -19 -48 -22 -42 -9 -90 34 -80 73 13 52 43 64 98 39z m887 -70
c0 -16 -9 -33 -22 -42 -20 -14 -24 -14 -43 0 -11 8 -28 17 -37 21 -11 3 -18
16 -18 33 0 39 33 51 82 31 30 -13 38 -21 38 -43z m-2162 10 c-2 -25 -8 -34
-25 -36 -20 -3 -23 1 -23 32 0 32 3 36 26 36 23 0 25 -3 22 -32z m578 -3 c-17
-13 -41 -27 -55 -30 -37 -9 -81 -29 -81 -37 0 -3 -13 -13 -30 -22 -33 -16 -40
-9 -12 14 20 18 85 50 101 50 12 0 52 21 61 31 5 6 30 17 40 18 3 0 -8 -11
-24 -24z m-794 -31 c32 -12 31 -47 -4 -76 -39 -34 -48 -35 -77 -4 l-22 24 32
36 c17 20 37 34 43 31 6 -3 18 -8 28 -11z m2558 -18 c0 -13 6 -26 13 -29 9 -3
9 -8 1 -16 -8 -9 -14 -8 -24 4 -7 8 -18 15 -25 15 -7 0 -24 6 -38 13 -35 18
-17 37 35 37 34 0 38 -3 38 -24z m-2100 -33 c0 -3 -7 -15 -17 -25 -21 -23 -58
-25 -49 -2 3 9 6 20 6 25 0 5 14 9 30 9 17 0 30 -3 30 -7z m2263 -17 c9 -7 17
-21 17 -30 0 -23 -18 -56 -31 -56 -20 0 -69 41 -69 59 0 38 47 54 83 27z
m-2423 -36 c0 -26 -4 -40 -13 -40 -18 0 -67 -24 -67 -32 0 -5 -7 -8 -15 -8 -8
0 -15 -6 -15 -14 0 -8 -4 -16 -10 -18 -17 -5 -25 -126 -10 -153 12 -22 11 -28
-7 -48 -25 -27 -40 -112 -23 -132 7 -8 9 -19 5 -24 -3 -6 -1 -20 5 -31 9 -17
21 -20 88 -20 49 0 83 5 91 13 10 10 12 7 9 -13 -2 -21 -9 -26 -40 -28 -52 -4
-65 -36 -42 -102 4 -14 8 -28 9 -32 0 -3 3 -10 8 -14 17 -17 7 -34 -18 -28
-15 4 -25 2 -25 -5 0 -6 -11 -11 -25 -11 -33 0 -63 -44 -47 -70 9 -16 6 -22
-23 -45 -41 -30 -45 -59 -13 -92 15 -16 33 -23 59 -23 21 0 41 -5 44 -11 11
-17 -1 -21 -29 -8 -23 11 -29 9 -51 -11 -30 -28 -33 -70 -5 -90 11 -8 20 -21
20 -30 -1 -19 -24 -50 -39 -50 -6 0 -11 -6 -11 -12 0 -7 -12 -19 -27 -25 -32
-15 -153 -17 -153 -3 0 6 20 10 43 10 31 0 49 6 62 20 10 11 26 22 36 25 23 8
26 57 4 75 -17 14 -12 44 12 72 8 9 13 27 11 40 -3 20 -9 23 -55 26 -50 3 -52
4 -55 35 -3 31 -4 32 -56 35 -43 3 -53 0 -59 -15 -9 -26 -54 -73 -70 -73 -8 0
-13 13 -13 39 0 33 -7 45 -51 86 -31 29 -56 45 -65 41 -9 -3 -20 -6 -25 -6 -5
0 -9 -7 -9 -15 0 -20 -43 -40 -66 -31 -15 6 -14 10 11 36 16 17 25 30 20 30
-5 0 -4 5 3 12 16 16 15 81 0 97 -16 15 -14 189 1 204 6 6 11 21 11 34 0 29
32 103 44 103 5 0 18 7 28 17 11 10 18 12 18 4 0 -6 -7 -14 -15 -17 -8 -4 -15
-13 -15 -21 0 -8 -12 -35 -26 -60 -18 -32 -24 -56 -21 -80 3 -18 1 -36 -4 -39
-14 -8 -11 -102 4 -107 9 -3 9 -9 0 -24 -9 -17 -6 -23 23 -47 19 -15 34 -33
34 -41 0 -8 10 -20 23 -26 32 -16 77 -61 77 -75 0 -45 55 -10 90 59 l21 39
-26 34 c-14 19 -34 34 -44 34 -18 0 -63 50 -88 99 -16 28 -17 58 -3 66 6 3 10
22 10 41 0 41 36 117 79 165 40 44 38 42 96 89 69 56 66 54 108 73 38 19 46
34 25 55 -22 22 -63 13 -105 -23 -23 -19 -45 -35 -50 -35 -8 0 -77 -53 -138
-106 -21 -18 -31 -22 -34 -13 -4 14 110 125 144 140 11 5 27 13 35 18 37 21
103 51 114 51 22 0 66 25 66 38 0 7 13 12 29 12 17 0 32 4 36 9 3 6 27 13 53
16 26 3 56 10 67 15 11 5 21 9 23 9 1 1 2 -17 2 -39z m1190 20 c0 -5 7 -10 16
-10 20 0 15 -60 -6 -70 -8 -4 -25 -12 -37 -19 -15 -7 -23 -7 -23 -1 0 5 -5 10
-11 10 -31 0 -50 65 -27 88 14 14 88 16 88 2z m1028 -23 c35 -36 33 -47 -9
-47 -41 0 -84 51 -62 73 14 15 41 5 71 -26z m360 -19 c8 -8 15 -8 26 1 32 27
23 -29 -11 -66 -14 -15 -33 -17 -33 -3 0 6 -11 10 -25 10 -20 0 -25 5 -25 25
0 16 6 25 15 25 8 0 15 5 15 10 0 14 23 13 38 -2z m-3097 -30 c15 14 29 16 29
4 0 -11 -68 -82 -78 -82 -5 0 -17 9 -27 20 -16 18 -17 23 -4 48 20 39 30 43
50 19 14 -18 20 -20 30 -9z m3315 -52 c19 -19 18 -75 -1 -82 -19 -8 -66 9 -78
27 -5 8 -4 25 2 42 12 31 52 37 77 13z m-2773 -30 c6 -16 -14 -91 -28 -105 -6
-6 -20 -8 -33 -5 -19 5 -22 13 -22 53 0 26 5 52 12 59 16 16 65 15 71 -2z
m1135 -4 c21 3 82 -44 82 -64 0 -29 -54 -68 -93 -68 -25 0 -37 5 -37 14 0 7
-7 20 -16 27 -11 9 -14 23 -10 47 7 45 24 66 42 51 7 -6 21 -9 32 -7z m1219
-34 c32 -30 29 -62 -6 -87 -37 -26 -52 -26 -85 0 -29 23 -32 42 -13 82 16 35
69 38 104 5z m-3059 -10 c18 -18 15 -63 -5 -86 -24 -27 -83 -40 -83 -18 0 9
-6 26 -12 37 -10 17 -10 23 0 26 6 3 12 10 12 17 0 20 22 36 50 36 14 0 31 -5
38 -12z m3669 -58 c14 0 26 -7 29 -17 3 -10 10 -28 16 -40 8 -16 6 -27 -8 -47
-11 -14 -23 -26 -29 -26 -19 0 -75 64 -75 88 0 35 19 67 33 53 6 -6 21 -11 34
-11z m-3009 -112 c21 -21 15 -86 -8 -98 -30 -16 -80 7 -80 37 0 13 5 23 10 23
6 0 10 6 10 13 0 18 21 37 40 37 9 0 21 -5 28 -12z m-781 -40 c26 -25 30 -60
8 -78 -8 -7 -15 -18 -15 -26 0 -21 -17 -26 -42 -12 -47 27 -59 59 -35 101 24
43 49 48 84 15z m3177 2 c20 -7 26 -17 26 -38 0 -35 -16 -52 -50 -52 -29 0
-70 25 -70 42 0 16 41 58 56 58 7 0 24 -4 38 -10z m795 -90 c7 -17 11 -37 8
-45 -7 -17 -71 -48 -92 -43 -23 4 -54 59 -37 65 6 3 12 10 12 17 0 22 23 36
60 36 30 0 37 -5 49 -30z m-899 -50 c0 -5 -4 -10 -10 -10 -5 0 -10 5 -10 10 0
6 5 10 10 10 6 0 10 -4 10 -10z m-3066 -131 c28 -16 36 -27 36 -49 0 -58 -62
-80 -107 -38 -28 26 -30 61 -3 88 25 25 31 25 74 -1z m1976 -8 c0 -6 -16 -11
-36 -13 -24 -2 -41 -10 -48 -23 -6 -11 -15 -23 -19 -26 -13 -10 -4 -61 13 -70
8 -4 30 -14 49 -22 18 -8 28 -17 23 -21 -6 -3 -13 -2 -17 4 -3 5 -17 10 -31
10 -13 0 -24 5 -24 10 0 6 -7 10 -15 10 -41 0 -43 116 -2 137 28 13 107 16
107 4z m57 -72 c-1 -10 -5 -19 -9 -19 -12 0 -48 62 -41 73 8 13 52 -33 50 -54z
m1926 39 c25 -13 21 -51 -8 -83 -21 -21 -31 -26 -53 -20 -41 10 -52 24 -52 63
0 57 48 74 113 40z m-2988 -38 c-3 -5 -20 -10 -36 -10 -29 0 -30 -2 -28 -34 2
-19 0 -38 -4 -42 -4 -4 -7 11 -7 32 0 22 5 45 12 52 15 15 72 16 63 2z m1050
-59 c-3 -6 -11 -11 -17 -11 -6 0 -6 6 2 15 14 17 26 13 15 -4z m-965 -8 c-1
-25 -14 -53 -26 -53 -17 0 -17 1 -4 34 9 24 30 37 30 19z m1910 -13 c0 -5 -4
-10 -10 -10 -5 0 -10 5 -10 10 0 6 5 10 10 10 6 0 10 -4 10 -10z m-110 -70 c0
-11 -2 -20 -4 -20 -2 0 -6 9 -9 20 -3 11 -1 20 4 20 5 0 9 -9 9 -20z m134 -5
c-4 -8 -8 -15 -10 -15 -2 0 -4 7 -4 15 0 8 4 15 10 15 5 0 7 -7 4 -15z m-31
-54 c-9 -9 -26 -11 -50 -8 -60 10 -57 23 5 22 50 0 56 -2 45 -14z m-995 -35
c13 -4 22 -15 22 -27 0 -16 -7 -19 -45 -19 -25 0 -45 5 -45 10 0 18 33 62 39
52 3 -5 16 -12 29 -16z m-1183 -52 c12 -13 27 -15 70 -9 69 8 83 -11 39 -56
-23 -24 -36 -29 -74 -29 -57 0 -70 12 -70 67 0 46 9 53 35 27z m273 -36 c17
-17 15 -31 -3 -25 -8 4 -17 2 -20 -3 -9 -15 -35 -12 -35 3 0 16 20 37 35 37 6
0 16 -5 23 -12z m1852 -3 c7 -8 9 -15 5 -15 -4 0 -2 -6 4 -14 25 -30 -16 -30
-67 0 -2 1 1 12 8 23 13 25 33 27 50 6z m-985 -24 c8 -14 92 -14 100 -1 8 12
92 13 99 1 3 -4 37 -6 76 -3 41 3 75 0 82 -6 7 -6 72 -13 144 -17 188 -10 198
-11 202 -24 2 -7 31 -11 77 -11 41 0 77 -5 80 -11 4 -5 17 -9 28 -8 12 1 29
-1 37 -4 13 -5 44 -9 158 -21 18 -2 35 -6 39 -10 3 -3 17 -6 29 -6 13 0 26 -4
29 -10 3 -5 28 -12 56 -16 27 -4 52 -11 55 -15 3 -5 15 -9 26 -9 12 0 18 -3
14 -7 -12 -12 -50 -14 -71 -4 -28 13 -74 22 -112 21 -17 0 -34 4 -38 10 -3 5
-21 10 -39 10 -19 0 -47 7 -62 15 -16 8 -53 15 -81 15 -33 0 -53 4 -53 11 0 8
-12 10 -35 6 -19 -3 -37 -1 -40 4 -4 5 -24 9 -45 9 -21 0 -41 4 -44 9 -4 5
-35 7 -71 4 -44 -4 -70 -1 -80 7 -12 10 -18 10 -30 0 -11 -9 -19 -10 -28 -1
-7 6 -72 13 -143 17 -71 3 -136 8 -144 11 -17 7 -549 4 -712 -3 -71 -3 -108
-1 -108 6 0 6 33 10 84 10 47 0 87 4 90 9 3 5 48 8 100 6 51 -1 99 1 105 4 19
12 218 13 226 2z m-666 -45 c-3 -3 -36 -10 -74 -16 -39 -6 -74 -15 -79 -21 -6
-5 -23 -9 -39 -9 -47 0 -26 25 24 28 24 2 48 7 54 13 5 5 34 9 64 9 30 0 52
-2 50 -4z m-279 -56 c0 -5 -20 -10 -45 -10 -25 0 -45 5 -45 10 0 6 20 10 45
10 25 0 45 -4 45 -10z m-115 -20 c-3 -5 -21 -10 -40 -10 -19 0 -37 -4 -40 -10
-3 -5 -28 -12 -56 -16 -27 -4 -52 -11 -55 -15 -3 -5 -19 -9 -35 -9 -47 0 -24
19 32 26 27 4 52 11 55 15 3 5 18 9 34 9 16 0 32 5 35 10 3 6 22 10 41 10 21
0 33 -4 29 -10z m1132 -11 c7 -7 72 -12 170 -14 257 -6 447 -16 459 -26 6 -5
51 -12 100 -15 52 -4 94 -13 102 -21 7 -7 33 -13 57 -13 24 0 47 -4 50 -10 3
-5 23 -10 44 -10 21 0 41 -3 45 -7 3 -4 21 -7 39 -7 23 -1 33 -6 35 -20 3 -15
0 -17 -14 -11 -11 5 -55 13 -99 18 -44 5 -89 13 -100 17 -11 5 -58 12 -105 15
-47 4 -91 12 -98 18 -7 6 -59 12 -115 15 -56 2 -107 8 -114 14 -6 5 -38 8 -71
7 -32 -1 -65 2 -72 6 -22 14 -894 12 -911 -1 -8 -7 -68 -12 -144 -13 -71 -2
-134 -6 -140 -11 -15 -13 -208 -29 -220 -19 -5 5 9 9 32 9 23 0 45 5 48 10 3
6 26 10 51 10 24 0 44 5 44 10 0 6 30 10 69 10 39 0 73 5 76 10 3 6 37 10 74
10 37 0 71 4 77 10 5 5 108 11 244 13 129 1 267 3 306 5 41 1 75 -3 81 -9z
m1318 -58 c3 -6 26 -13 50 -17 25 -3 45 -10 45 -15 0 -5 11 -9 25 -9 14 0 25
-4 25 -10 0 -12 -37 -13 -44 -1 -3 5 -27 12 -53 16 -56 8 -86 22 -78 36 8 12
22 12 30 0z m-2470 -48 c-16 -3 -34 -9 -39 -14 -6 -5 -19 -9 -30 -9 -12 0 -16
4 -10 9 12 12 42 19 79 18 l30 0 -30 -4z m1110 -13 c4 -6 10 -8 15 -5 4 2 19
-4 33 -15 14 -11 30 -20 36 -20 18 0 13 -27 -6 -34 -24 -9 -79 -41 -97 -55
-10 -8 -16 -9 -21 -1 -3 5 -26 19 -50 30 -52 24 -61 36 -44 56 32 38 120 67
134 44z m1550 0 c3 -5 -1 -10 -10 -10 -9 0 -13 5 -10 10 3 6 8 10 10 10 2 0 7
-4 10 -10z m-1955 -21 c0 -5 7 -9 15 -9 8 0 15 -4 15 -9 0 -5 -7 -14 -15 -21
-8 -7 -15 -19 -15 -26 0 -17 -18 -18 -53 -1 -30 14 -40 32 -32 58 8 25 85 33
85 8z m-847 4 c8 -8 -39 -33 -62 -33 -33 0 -32 14 1 26 40 14 53 16 61 7z
m2500 -17 c18 -8 49 -17 70 -21 56 -9 47 -28 -10 -19 -27 3 -53 10 -58 14 -6
5 -25 10 -44 12 -42 4 -55 28 -16 28 15 0 41 -6 58 -14z m-740 -18 c4 -13 0
-29 -8 -38 -8 -9 -15 -22 -15 -28 0 -17 -32 -15 -58 4 -24 17 -29 53 -10 72 7
7 29 12 49 12 29 0 38 -4 42 -22z m-1274 -9 c2 -6 14 -15 28 -20 21 -8 23 -12
13 -24 -7 -8 -20 -15 -29 -15 -9 0 -22 -5 -28 -11 -27 -27 -57 -35 -84 -22
-52 26 -53 37 -8 78 35 31 46 36 73 31 17 -4 33 -11 35 -17z m-606 4 c-7 -2
-19 -2 -25 0 -7 3 -2 5 12 5 14 0 19 -2 13 -5z m2307 -47 c60 -44 64 -66 12
-66 -23 0 -45 -6 -52 -15 -15 -18 -40 -12 -85 19 -16 11 -31 22 -33 22 -2 1 0
13 4 28 4 16 13 26 24 26 11 0 22 5 25 10 12 19 61 8 105 -24z m548 -6 c6 0
12 -4 12 -10 0 -5 -4 -10 -8 -10 -16 0 -72 31 -72 40 0 5 12 2 28 -6 15 -7 33
-14 40 -14z m-2638 -39 c15 -29 13 -36 -15 -51 -20 -11 -27 -11 -40 0 -19 16
-19 40 0 40 8 0 15 7 15 15 0 22 27 19 40 -4z m2700 15 c0 -11 -19 -15 -25 -6
-3 5 1 10 9 10 9 0 16 -2 16 -4z m-267 -42 c20 -7 23 -44 5 -62 -7 -7 -24 -12
-38 -12 -50 0 -68 47 -28 74 13 9 27 14 33 11 5 -3 18 -8 28 -11z"/>
<path d="M2777 1403 c-4 -3 -7 -16 -7 -28 0 -11 -5 -26 -12 -33 -9 -9 -5 -19
17 -42 40 -42 66 -39 99 12 l27 41 -27 29 c-27 27 -80 39 -97 21z"/>
<path d="M1046 2141 c-10 -11 -23 -18 -27 -15 -5 3 -9 -6 -9 -19 0 -13 -9 -32
-20 -42 -11 -10 -20 -24 -20 -30 0 -7 -9 -24 -20 -38 -11 -14 -20 -34 -20 -45
0 -12 -4 -24 -10 -27 -5 -3 -10 -19 -10 -35 0 -16 -5 -32 -11 -36 -6 -3 -8
-17 -5 -29 3 -13 2 -27 -4 -30 -5 -3 -10 -15 -10 -25 0 -10 -7 -25 -15 -34 -8
-8 -15 -22 -15 -30 0 -9 -5 -25 -12 -35 -15 -25 6 -54 33 -46 26 9 104 -52
120 -94 14 -33 43 -61 66 -61 7 0 19 15 28 34 9 19 23 37 31 40 9 3 14 20 14
44 0 34 -7 46 -57 94 -32 31 -64 65 -70 77 -20 32 -15 72 10 99 19 21 23 37
28 137 3 70 10 119 18 129 20 24 8 40 -13 17z"/>
<path d="M3771 1997 c-13 -13 -15 -37 -2 -37 5 0 11 -8 13 -18 3 -11 26 -29
50 -41 25 -12 64 -39 88 -61 24 -22 46 -40 49 -40 9 0 41 -77 41 -98 0 -10 5
-23 11 -29 18 -18 1 -128 -22 -149 -10 -9 -19 -22 -19 -29 0 -20 -32 -41 -82
-56 -27 -7 -48 -16 -48 -19 0 -11 43 -45 75 -60 17 -8 38 -22 48 -32 22 -22
47 -23 47 -3 0 9 10 20 23 26 22 10 57 72 57 101 0 9 7 21 15 28 9 7 15 29 15
51 0 21 5 41 10 44 6 3 10 28 10 55 0 27 -4 52 -10 55 -5 3 -10 19 -10 35 0
19 -7 33 -21 40 -11 7 -19 19 -17 30 3 20 -28 60 -49 60 -7 0 -13 5 -13 11 0
16 -23 35 -50 44 -14 4 -36 17 -50 29 -31 27 -66 46 -82 46 -7 0 -25 6 -40 14
-19 10 -29 11 -37 3z"/>
<path d="M160 1565 c0 -8 7 -15 15 -15 8 0 15 7 15 15 0 8 -7 15 -15 15 -8 0
-15 -7 -15 -15z"/>
<path d="M2160 647 c-3 -3 -48 -6 -100 -8 -52 -1 -102 -6 -110 -10 -9 -4 -65
-10 -125 -12 -61 -3 -117 -8 -125 -11 -8 -3 -40 -7 -70 -9 -57 -5 -87 -9 -180
-28 -30 -6 -86 -13 -125 -16 -38 -2 -74 -9 -80 -14 -5 -5 -22 -9 -37 -9 -15 0
-28 -4 -28 -10 0 -5 -12 -10 -27 -10 -16 0 -48 -11 -72 -25 -23 -14 -51 -25
-61 -25 -10 0 -20 -7 -24 -15 -3 -8 -16 -15 -28 -15 -18 0 -28 -10 -41 -41
-25 -59 -20 -83 20 -87 38 -4 73 13 73 34 0 8 13 17 29 20 17 4 38 15 47 25 9
11 29 19 44 19 16 0 30 7 34 15 4 11 20 15 56 15 27 0 50 5 50 10 0 6 24 10
54 10 30 0 58 5 61 10 10 16 55 12 55 -5 0 -15 -18 -19 -122 -30 -32 -4 -58
-11 -58 -16 0 -5 -13 -9 -29 -9 -17 0 -33 -4 -36 -10 -3 -5 -17 -10 -30 -10
-13 0 -27 -4 -30 -10 -3 -5 -17 -10 -29 -10 -13 0 -29 -7 -36 -15 -7 -8 -19
-15 -26 -15 -8 0 -14 -10 -14 -25 0 -20 6 -25 35 -31 19 -3 38 -10 41 -15 3
-5 21 -9 40 -9 19 0 34 -5 34 -11 0 -6 8 -8 19 -4 11 3 22 1 26 -5 3 -5 24
-10 45 -10 21 0 42 -5 45 -10 4 -7 29 -9 61 -6 29 2 56 0 59 -5 4 -5 17 -9 30
-9 13 0 26 -4 29 -9 3 -5 53 -6 111 -4 76 4 109 2 120 -7 10 -8 15 -9 15 -1 0
14 57 15 66 0 4 -7 46 -8 135 -4 100 6 129 5 129 -5 0 -10 3 -10 14 -1 14 12
215 12 241 1 20 -8 1035 12 1041 21 3 5 25 9 49 9 24 0 47 5 50 10 3 6 33 10
66 10 45 0 65 5 80 19 25 23 22 62 -7 76 -24 12 -54 40 -54 51 0 5 5 3 12 -4
7 -7 22 -12 35 -12 12 0 37 -12 55 -27 40 -34 73 -53 91 -53 17 0 57 42 57 60
0 37 -100 120 -144 120 -8 0 -27 7 -42 15 -16 8 -37 15 -46 15 -9 0 -19 4 -22
9 -3 4 -25 11 -48 14 -24 3 -65 17 -93 31 -27 14 -62 26 -77 26 -15 0 -30 5
-33 11 -4 6 -24 9 -46 8 -21 -2 -41 0 -45 4 -4 4 -23 7 -41 7 -19 0 -43 5 -55
11 -18 10 -119 26 -209 33 -20 2 -41 6 -47 10 -13 8 -695 21 -702 13z m515
-106 c101 -2 187 -11 200 -21 6 -4 54 -10 108 -13 54 -3 103 -10 110 -15 7 -6
47 -13 91 -17 43 -4 90 -14 105 -21 14 -8 36 -14 47 -14 27 0 76 -25 67 -33
-9 -10 -43 -8 -43 2 0 4 -28 11 -62 15 -34 3 -67 11 -72 16 -6 6 -22 10 -36
10 -15 0 -30 3 -34 7 -4 4 -27 6 -52 4 -25 -1 -51 2 -59 9 -18 15 -292 30
-525 30 -338 0 -790 -12 -796 -21 -3 -5 -29 -9 -59 -9 -30 0 -57 -5 -60 -10
-7 -11 -128 -14 -138 -3 -15 14 50 33 117 33 40 0 77 5 82 10 6 6 31 13 55 15
24 3 80 9 124 15 123 16 136 17 141 8 3 -5 11 -5 17 -1 14 9 555 21 577 12 8
-3 51 -6 95 -8z m810 -141 c3 -5 17 -10 31 -10 15 0 24 -6 24 -15 0 -8 -6 -15
-14 -15 -7 0 -19 7 -26 15 -7 8 -26 15 -42 15 -17 0 -27 4 -23 10 3 6 15 10
25 10 10 0 22 -4 25 -10z"/>
<path d="M3797 633 c-4 -3 -7 -14 -7 -24 0 -10 -9 -34 -20 -54 -25 -45 -25
-54 3 -64 15 -6 27 -4 38 5 8 8 23 14 32 14 9 0 29 12 44 28 24 23 28 25 31
10 2 -10 10 -18 18 -18 25 0 11 34 -19 48 -16 8 -32 25 -37 38 -8 19 -17 24
-43 24 -19 0 -37 -3 -40 -7z"/>
</g>
</svg>
