<?xml version="1.0" standalone="no"?>
<!DOCTYPE svg PUBLIC "-//W3C//DTD SVG 20010904//EN"
 "http://www.w3.org/TR/2001/REC-SVG-20010904/DTD/svg10.dtd">
<svg version="1.0" xmlns="http://www.w3.org/2000/svg"
 width="472.000000pt" height="394.000000pt" viewBox="0 0 472.000000 394.000000"
 preserveAspectRatio="xMidYMid meet">

<g transform="translate(0.000000,394.000000) scale(0.100000,-0.100000)"
fill="#000000" stroke="none">
<path d="M500 3866 c-19 -14 -63 -39 -96 -55 -59 -28 -62 -31 -73 -78 -7 -27
-12 -67 -12 -89 1 -21 -2 -59 -5 -83 l-6 -43 22 22 c21 21 24 22 35 6 10 -14
10 -26 -3 -65 -17 -56 -11 -91 13 -71 10 9 15 9 15 1 0 -6 7 -11 15 -11 12 0
13 -4 5 -19 -5 -11 -10 -35 -10 -53 l1 -33 21 28 c16 22 23 25 29 15 6 -10 11
-9 22 6 13 18 14 16 14 -23 0 -41 12 -67 20 -45 2 6 10 20 18 30 14 18 14 18
15 -8 0 -37 14 -35 30 2 20 48 27 43 22 -17 -4 -53 -4 -55 17 -48 17 5 21 2
21 -15 0 -12 4 -19 9 -16 5 3 11 -7 14 -22 4 -20 20 -37 51 -57 25 -16 46 -32
46 -36 0 -4 -31 -17 -70 -30 -67 -21 -178 -98 -163 -113 10 -10 -46 -56 -61
-50 -8 3 -17 1 -20 -5 -4 -6 -13 -8 -21 -5 -7 3 -18 -4 -25 -16 -6 -12 -14
-19 -17 -16 -4 3 -14 -1 -23 -9 -15 -14 -18 -14 -30 0 -16 19 -30 19 -30 0 0
-8 -9 -19 -20 -25 -17 -9 -22 -7 -32 15 -13 29 -28 33 -28 6 0 -26 -48 -35
-62 -11 -7 10 -18 16 -25 13 -7 -3 -13 0 -13 6 0 6 -4 11 -10 11 -5 0 -10 -18
-10 -40 0 -30 -4 -40 -16 -40 -14 0 -16 -8 -11 -52 10 -97 27 -129 79 -155 25
-13 76 -31 112 -40 62 -17 75 -16 263 1 109 10 231 19 272 20 l74 1 33 -79
c39 -93 46 -101 146 -177 42 -33 80 -64 83 -70 4 -5 0 -18 -10 -29 -11 -13
-17 -40 -19 -96 -1 -44 -8 -89 -15 -102 -7 -13 -10 -30 -7 -38 8 -20 -2 -18
-54 12 -38 22 -53 25 -98 20 -69 -8 -128 -33 -152 -64 -27 -33 -27 -63 0 -31
l19 24 1 -24 c0 -22 1 -23 13 -8 19 25 81 47 126 43 30 -2 52 -14 87 -45 61
-54 94 -54 107 -1 4 14 21 42 38 63 l31 38 16 -23 c8 -13 33 -41 54 -64 l39
-41 -60 -23 c-67 -25 -134 -77 -157 -122 -18 -36 -11 -48 14 -25 28 26 31 21
14 -29 -12 -35 -12 -48 -3 -57 8 -8 11 -8 9 -1 -3 10 20 45 70 105 34 42 126
88 181 91 44 3 51 0 100 -44 l52 -47 -16 -143 c-29 -246 -21 -387 26 -480 24
-47 52 -74 109 -103 61 -31 250 -211 250 -237 0 -24 -108 -149 -164 -190 -22
-15 -73 -39 -115 -52 -42 -14 -92 -31 -111 -39 -28 -12 -45 -13 -83 -4 -42 9
-53 8 -97 -13 -28 -13 -50 -29 -50 -36 0 -6 -21 -17 -47 -23 -56 -15 -113 -67
-113 -105 0 -28 9 -33 29 -13 10 10 11 7 6 -15 -4 -15 -4 -35 -1 -46 6 -19 8
-18 36 9 32 33 52 35 105 14 39 -17 65 -13 90 12 20 20 30 11 16 -15 -13 -24
-15 -82 -3 -82 5 0 17 9 28 21 30 33 50 40 77 28 20 -9 48 -3 168 36 112 37
168 49 254 57 61 6 122 16 136 23 31 17 48 69 42 128 -7 63 12 163 48 248 37
86 40 130 13 163 -10 13 -32 40 -47 60 -22 26 -31 52 -37 99 -8 66 -46 155
-82 193 -11 13 -38 25 -64 29 -54 8 -64 22 -34 47 21 17 25 17 40 3 26 -23
115 -19 175 8 73 34 99 39 179 31 70 -7 72 -8 116 -58 87 -101 246 -252 275
-263 17 -7 49 -17 72 -23 54 -14 123 -66 146 -110 30 -57 19 -151 -30 -252
-66 -137 -118 -199 -210 -248 -43 -24 -84 -48 -92 -54 -7 -6 -40 -11 -73 -11
-48 0 -62 -4 -76 -21 -9 -12 -30 -24 -45 -28 -44 -10 -97 -65 -104 -109 l-6
-37 57 26 c30 14 68 24 83 22 25 -3 28 -6 25 -38 -3 -40 5 -80 16 -80 4 0 12
13 18 29 12 30 46 43 80 30 35 -14 91 -10 105 8 12 14 15 11 19 -32 6 -58 19
-65 43 -24 16 28 20 30 55 25 45 -8 113 11 166 47 26 18 52 27 78 27 79 0 133
91 165 278 13 79 14 110 4 188 -16 131 -14 168 10 214 28 54 20 90 -36 170
-25 35 -45 74 -45 87 0 70 -53 127 -167 179 -40 18 -73 37 -73 43 0 5 35 12
78 16 42 4 120 13 172 21 356 52 657 38 939 -46 143 -43 365 -131 504 -201 72
-36 117 -54 117 -46 0 24 -173 182 -253 231 -156 97 -539 261 -936 401 -399
141 -434 161 -624 377 -44 51 -106 104 -185 159 -85 60 -160 126 -272 240
-170 171 -203 193 -360 244 -76 25 -99 27 -220 27 l-135 -1 -90 101 c-120 135
-121 137 -94 189 16 32 19 52 15 88 -4 25 -7 57 -7 71 -2 60 -11 90 -39 125
-17 21 -30 50 -30 64 0 35 -17 93 -33 116 -9 12 -26 18 -47 17 -80 -2 -249 79
-342 164 -81 74 -216 173 -268 197 -30 14 -73 22 -130 25 -79 4 -87 2 -120
-22z"/>
</g>
</svg>
