<svg width="37" height="31" xmlns="http://www.w3.org/2000/svg" xmlns:xlink="http://www.w3.org/1999/xlink" overflow="hidden"><defs><clipPath id="clip0"><rect x="697" y="361" width="37" height="31"/></clipPath></defs><g clip-path="url(#clip0)" transform="translate(-697 -361)"><path d="M34.4054 4.97613 36 4.97613 36 4.06891 36 3.16172 34.6607 3.16911 33.3177 3.18021 33.2955 3.45793C33.2511 3.93931 33.1105 4.38735 32.8256 4.9502 32.8182 4.96502 33.5285 4.97613 34.4054 4.97613ZM12.9994 4.97613 19.9365 4.97613C23.7509 4.97613 26.8735 4.96872 26.8735 4.96131 26.8735 4.9539 26.8218 4.84283 26.7589 4.71323 26.5406 4.27629 26.4333 3.88748 26.4111 3.48386 26.4 3.34684 26.3852 3.21724 26.3741 3.19873 26.3593 3.17652 24.0247 3.16172 19.9402 3.16172L13.5248 3.16172 13.4989 3.30243C13.4841 3.37649 13.4656 3.53199 13.4582 3.64308 13.4471 3.89487 13.2917 4.39476 13.1252 4.72803ZM3.43026 4.97618 5.24315 4.97618C6.24208 4.97618 7.05603 4.96877 7.05603 4.96135 7.05603 4.95394 6.98944 4.80213 6.90436 4.62068 6.74157 4.26521 6.57506 3.62461 6.57506 3.33948L6.57506 3.16175 5.03595 3.15433C4.10361 3.14695 3.48575 3.15805 3.46356 3.17657 3.44507 3.19877 3.43026 3.58758 3.43026 4.09489ZM30.1149 6.30792C30.3924 6.28986 30.6514 6.24542 30.8105 6.17878 31.421 5.92698 31.7243 5.73812 32.0721 5.38636 33.0896 4.37175 33.2856 2.77581 32.5494 1.53163 32.3459 1.19468 31.7613 0.598517 31.4764 0.450401 31.3655 0.391163 31.2619 0.324492 31.2508 0.305977 31.2397 0.287487 31.2138 0.276358 31.1953 0.276358 31.1324 0.280076 30.9215 0.191196 30.9215 0.157884 30.9215 0.143063 30.9067 0.135652 30.8919 0.146756 30.8771 0.154167 30.7476 0.128242 30.607 0.0875192 30.4072 0.0282821 30.2296 0.00605005 29.83 0.00235685 29.5452-0.00136065 29.2899 0.00605005 29.2566 0.0245646 29.227 0.0393861 29.0568 0.0949299 28.8829 0.146756 28.709 0.198607 28.4722 0.29118 28.3575 0.354134 28.2428 0.417065 28.1466 0.461504 28.1466 0.454094 28.1466 0.435579 27.9247 0.624443 27.6546 0.872543 27.2439 1.25394 26.9294 1.77232 26.774 2.33517 26.7037 2.57586 26.689 2.73878 26.6852 3.19795 26.6815 3.50529 26.689 3.76077 26.7 3.76077 26.7148 3.76077 26.7555 3.87927 26.7925 4.02369 26.9442 4.61616 27.3845 5.27528 27.8803 5.64555 28.1208 5.827 28.6535 6.13064 28.7312 6.13064 28.7534 6.13064 28.8163 6.14916 28.8755 6.17506 28.931 6.20098 29.1271 6.24542 29.3084 6.27876 29.5415 6.31763 29.8374 6.32597 30.1149 6.30792ZM9.97809 6.32303C10.3362 6.32043 10.8364 6.27042 10.9307 6.21211 10.9529 6.19729 11.0713 6.15285 11.2008 6.10843 11.8224 5.88995 12.4698 5.32341 12.825 4.6865 12.9508 4.46063 13.1136 4.00887 13.1506 3.77931 13.1654 3.69784 13.1839 3.60527 13.195 3.57565 13.2283 3.48308 13.2098 2.79063 13.1691 2.59438 13.0729 2.1241 12.862 1.63534 12.6067 1.29097 12.1628 0.687397 11.5227 0.257868 10.8197 0.0912367 10.7198 0.0653114 10.62 0.0356929 10.5977 0.0208714 10.5792 0.00605005 10.3277-0.00505386 10.0428 0.00235685 9.63952 0.00605005 9.46932 0.0282821 9.26954 0.0875192 9.12893 0.131959 9.00314 0.157884 8.98464 0.150474 8.96986 0.13937 8.95136 0.143063 8.94395 0.157884 8.94024 0.176399 8.84035 0.228225 8.72936 0.280076 7.9265 0.650368 7.27536 1.39465 7.03486 2.22409 6.85726 2.83507 6.84617 3.33124 6.99787 3.94594 7.13476 4.50136 7.41965 5.00125 7.83401 5.40488 8.07079 5.63816 8.44077 5.90847 8.61837 5.98253 8.68127 6.00845 8.72936 6.03807 8.72936 6.05289 8.72936 6.06769 8.76267 6.07879 8.80335 6.08251 8.84035 6.0862 8.92915 6.11213 8.99576 6.14544 9.11043 6.19729 9.28432 6.23801 9.68761 6.30838 9.75514 6.31948 9.85872 6.32388 9.97809 6.32303ZM5.65845 30C6.02935 30 6.37528 29.9935 6.37528 29.9806 6.37528 29.9768 6.53807 29.9435 6.73785 29.9102 6.95245 29.8695 7.09674 29.8584 7.09674 29.8806 7.09674 29.9028 7.12633 29.8917 7.16333 29.8621 7.19664 29.8324 7.41863 29.7547 7.6517 29.6843 7.88479 29.6177 8.21778 29.5066 8.39166 29.4362 8.83933 29.2585 9.6829 28.8141 10.1121 28.529 10.4524 28.3031 11.0592 27.881 11.148 27.807 11.3404 27.6403 12.75 26.5998 13.0534 26.3999 13.4715 26.1221 14.0116 25.8074 14.093 25.7889 14.1226 25.7815 14.1522 25.7667 14.1633 25.7556 14.2151 25.6926 15.2325 25.3075 15.2769 25.3371 15.2954 25.3482 15.3102 25.3408 15.3102 25.3223 15.3102 25.289 15.7838 25.1446 15.843 25.1594 15.8578 25.1668 15.8911 25.152 15.917 25.1335 15.9577 25.1001 16.2315 25.0187 16.3462 25.0039 16.3758 24.9965 16.4276 24.9854 16.4572 24.9705 16.4868 24.9594 16.6385 24.9224 16.7901 24.8928 16.9418 24.8632 17.1083 24.8298 17.1601 24.815 17.2748 24.7891 17.8224 24.6928 17.9001 24.6891 17.9297 24.6854 18.1406 24.6521 18.3626 24.6114 18.5883 24.5706 18.8065 24.5447 18.8509 24.5558 18.8953 24.5669 18.9434 24.5558 18.9545 24.5336 18.9693 24.5151 19.0248 24.5003 19.0766 24.504 19.1321 24.5077 19.2024 24.5003 19.232 24.4892 19.2912 24.467 19.9498 24.3892 20.2309 24.3707 20.3234 24.367 20.4566 24.3485 20.5269 24.3373 20.5972 24.3226 20.9154 24.2892 21.2299 24.2559 21.5444 24.2263 21.844 24.193 21.8958 24.1892 21.9477 24.1818 22.2288 24.1485 22.5248 24.1152 22.8208 24.0781 23.2611 24.0189 23.5053 23.9819 23.7494 23.9411 23.9899 23.9115 24.0417 23.9078 24.186 23.9041 24.4339 23.8782 24.8742 23.8152 25.0999 23.7819 25.3329 23.7523 25.3921 23.7449 25.455 23.7375 25.529 23.7227 25.5586 23.7116 25.603 23.6967 25.9397 23.6042 26.0026 23.5894 26.0137 23.5894 26.047 23.5783 26.0766 23.5635 26.1062 23.5523 26.2061 23.5227 26.2986 23.5005 26.3911 23.4783 26.5909 23.419 26.7426 23.3709 26.8942 23.319 27.2272 23.2154 27.4751 23.1339 27.7267 23.0525 27.9524 22.9932 27.9746 23.0006 28.0005 23.0117 28.0708 23.0376 28.13 23.0599 28.1929 23.0858 28.2706 23.1006 28.3076 23.0969 28.3409 23.0932 28.3705 23.1006 28.3705 23.1191 28.3705 23.208 30.0391 23.2043 30.2611 23.1154 30.2943 23.1006 30.335 23.0932 30.3535 23.0969 30.372 23.1006 30.4127 23.0969 30.4423 23.0821 30.5126 23.0561 30.7642 22.9784 30.8234 22.9673 31.1194 22.9043 31.6781 22.5748 32.0406 22.2526 32.6437 21.7157 33.2431 20.7233 33.5242 19.7976 33.6205 19.4792 33.7388 18.9533 33.7425 18.8164 33.7462 18.7756 33.7758 18.5164 33.8128 18.2424 33.8498 17.9684 33.8905 17.6499 33.8979 17.5388 33.9423 17.0315 34.0015 16.5168 34.02 16.465 34.0311 16.4354 34.0385 16.3243 34.0348 16.2206 34.0274 16.1132 34.0459 16.017 34.0681 16.0022 34.0903 15.9873 34.0977 15.9281 34.0866 15.8614 34.0755 15.7948 34.0903 15.4097 34.1199 15.0024 34.1495 14.595 34.1606 14.247 34.1421 14.2322 34.1273 14.2137 33.4909 14.1914 32.7288 14.1803L31.3414 14.1581 31.3155 15.1357C31.2822 16.4317 31.2341 17.3315 31.1601 17.9647 31.1527 18.0462 31.1379 18.198 31.1305 18.2979 31.0602 19.1311 30.8715 20.0605 30.6606 20.6048 30.4571 21.1307 30.2241 21.575 30.0428 21.7675 29.8726 21.949 29.4471 22.2008 29.2806 22.2193 29.2362 22.223 29.177 22.2415 29.1511 22.2563 29.103 22.2897 28.5258 22.3452 28.4999 22.323 28.4925 22.3156 28.5851 22.1897 28.7034 22.0453 29.2399 21.3824 29.6876 20.5271 29.9059 19.7421 29.9392 19.6199 29.9762 19.494 29.9836 19.4643 29.9947 19.4347 30.0095 19.3162 30.0206 19.2051 30.028 19.0941 30.0501 18.8275 30.0686 18.6127 30.0983 18.3016 30.0945 18.1683 30.0501 17.9462 29.991 17.6721 29.7764 17.076 29.6765 16.9242 29.6506 16.8797 29.6025 16.7316 29.5766 16.5909 29.547 16.4502 29.4915 16.1799 29.4471 15.9873 29.4027 15.7948 29.3731 15.6208 29.3805 15.5985 29.3879 15.5763 29.3768 15.5393 29.3509 15.5171 29.3287 15.4949 29.2806 15.3801 29.2399 15.269 29.177 15.0764 29.1733 15.0357 29.2177 14.7728 29.2436 14.6136 29.3065 14.3692 29.3583 14.2285 29.584 13.6027 30.1427 12.7325 30.6495 12.2141 31.0565 11.7957 31.112 11.6661 31.038 11.3106 31.0121 11.1921 30.9751 10.9551 30.9566 10.7885 30.9344 10.6218 30.9085 10.4441 30.9011 10.3923 30.8456 10.0257 30.8086 9.22955 30.8234 8.66673 30.8382 8.10019 30.853 7.97059 30.9196 7.81506 31.001 7.61881 31.0713 7.36701 31.0898 7.18928 31.0972 7.13002 31.1416 6.9708 31.1934 6.8375 31.2452 6.70418 31.297 6.52645 31.3118 6.44128 31.334 6.30058 31.3303 6.28206 31.2674 6.28206 31.2267 6.28206 31.1823 6.29688 31.1601 6.3154 31.1416 6.33761 30.9603 6.39684 30.7568 6.44869 30.2277 6.5894 29.584 6.5894 29.0586 6.44869 28.8551 6.39684 28.6738 6.3413 28.6516 6.3265 28.6294 6.31168 28.6036 6.30058 28.5924 6.30058 28.5813 6.30058 28.5184 6.27837 28.4519 6.24873 28.3853 6.21911 28.3224 6.208 28.3113 6.21911 28.2965 6.23021 28.3076 6.31909 28.3298 6.41908 28.3667 6.58571 28.4629 7.14853 28.5073 7.45959 28.5184 7.53365 28.5369 8.0039 28.5443 8.5001 28.5628 9.54061 28.5702 9.51099 28.1855 10.2812 28.0671 10.5145 27.9598 10.7478 27.945 10.7996 27.8636 11.0847 27.6453 11.5957 27.5528 11.7142 27.2161 12.1548 26.5206 13.2213 26.5206 13.2953 26.5206 13.3213 25.6992 14.7321 25.5512 14.9653 25.4217 15.1653 25.2257 15.3393 25.1258 15.3467 25.0776 15.3467 24.7114 15.2838 24.3118 15.2023 23.9085 15.1209 23.4461 15.0283 23.2833 14.9987 23.1205 14.969 22.9614 14.9357 22.9318 14.9209 22.9022 14.9098 22.843 14.895 22.8023 14.8913 22.6395 14.8765 22.2621 14.7876 22.2436 14.758 22.2362 14.7432 22.2029 14.7358 22.177 14.7469 22.1474 14.758 22.1141 14.7469 22.0993 14.7283 22.0882 14.7061 22.0586 14.695 22.0401 14.7061 22.0216 14.721 21.8737 14.695 21.7146 14.6543 21.389 14.5691 21.0301 14.4988 20.3419 14.3877 20.0867 14.3433 19.8536 14.2988 19.824 14.2877 19.7944 14.2766 19.7093 14.2618 19.639 14.2581 19.5687 14.2507 19.3504 14.2211 19.158 14.1877 18.9656 14.1544 18.7436 14.1285 18.6659 14.1285 18.5883 14.1322 18.5105 14.1248 18.4884 14.1137 18.3774 14.0433 16.2796 14.0174 15.3472 14.0729 14.5629 14.1174 14.5111 14.1248 14.1263 14.184 13.9339 14.2137 13.6602 14.247 13.5159 14.2581 13.3753 14.2692 13.0016 14.3099 12.6871 14.3507 12.3763 14.3914 12.1099 14.4247 12.0951 14.421 12.084 14.4173 12.0248 14.4358 11.9657 14.4618 11.8102 14.5247 11.7548 14.4914 11.7585 14.3284 11.7585 14.2507 11.7511 14.1211 11.74 14.0396 11.7289 13.9582 11.6956 13.6915 11.666 13.4471 11.629 13.162 11.6142 12.8843 11.629 12.6696 11.6401 12.4881 11.6697 12.0956 11.6919 11.7994 11.7104 11.5031 11.7252 11.1588 11.7252 11.0292 11.7215 10.8996 11.7289 10.7774 11.7437 10.7552 11.8214 10.6293 11.8251 9.45914 11.7473 9.32954 11.7326 9.30733 11.7215 9.23327 11.7178 9.16291 11.7178 9.09626 11.7104 8.72597 11.6993 8.33716 11.6771 7.50772 11.6956 7.38922 11.9842 6.59681 12.0544 6.40056 12.0766 6.07471 12.0212 5.98952 11.9952 5.9488 11.9693 5.95249 11.8843 6.01175 11.629 6.19318 10.8927 6.48942 10.7743 6.46352 10.7558 6.4598 10.6929 6.47462 10.63 6.50052 10.3821 6.60422 9.29811 6.54496 9.14272 6.41908 9.07613 6.37094 9.07982 6.46352 9.14641 6.64125 9.2907 7.02634 9.4942 7.91874 9.5571 8.44084 9.58298 8.6445 9.51639 9.09626 9.46459 9.09626 9.4498 9.09626 9.43871 9.41842 9.435 9.81092 9.42021 11.255 9.3536 12.3881 9.27221 12.6881 9.22781 12.8399 9.18341 12.9843 9.16862 13.0028 9.15381 13.025 9.11313 13.1324 9.07613 13.2435 9.01693 13.4286 8.93184 13.6397 8.51746 14.6506 8.35836 15.032 8.37317 15.0024 8.09939 15.6059 7.90698 16.0355 7.84408 16.1318 7.6073 16.3872 6.94504 17.1019 6.82665 17.6055 6.81925 19.7421 6.81556 21.4898 6.78597 22.0008 6.67127 22.5081 6.55657 23.0302 6.41599 23.4227 6.17549 23.8967 5.89431 24.4558 5.9313 24.4299 5.62053 24.2781 5.47624 24.2115 5.35785 24.1374 5.35785 24.1189 5.35785 24.1041 5.34675 24.0967 5.33194 24.1041 5.31345 24.1152 5.24686 24.0967 5.17656 24.0596 5.05817 24.0041 5.04336 23.9745 4.96196 23.6671 4.91387 23.4857 4.82507 23.1932 4.76218 23.0191 4.41069 22.0378 4.3996 21.986 4.3811 21.1862 4.37741 21.0047 4.35151 20.8159 4.3293 20.7715 4.26271 20.6493 4.10732 20.5419 3.95563 20.516 3.88164 20.5012 3.72994 20.4456 3.61895 20.3901 3.50796 20.3345 3.30077 20.2605 3.16389 20.2234 2.89011 20.1531 2.8235 20.1605 2.42023 20.3234 2.18343 20.4197 2.05394 20.516 1.89855 20.7196 1.76536 20.8863 1.70246 21.0566 1.66918 21.3306 1.63587 21.6231 1.62847 21.6713 1.58778 22.2045 1.56557 22.5007 1.53598 22.8488 1.52488 22.9821 1.51379 23.1154 1.49898 24.1892 1.49158 25.3704 1.48417 26.5961 1.46199 27.6625 1.43977 27.8514 1.41759 28.0365 1.39909 28.1958 1.39909 28.2069 1.39909 28.218 1.2548 28.3476 1.0772 28.4957 0.895908 28.6401 0.710929 28.7993 0.659126 28.8438 0.607322 28.8882 0.429747 29.0326 0.259553 29.1659-0.0364374 29.3992-0.0401272 29.4066 0.0560762 29.4288 0.222557 29.4696 1.166 29.4658 1.60256 29.4251 1.82825 29.4029 2.19083 29.3548 2.40911 29.3103 2.63111 29.2696 2.84571 29.2474 2.89011 29.2622 2.93448 29.277 3.21197 29.4029 3.50425 29.5399 4.09623 29.825 4.41441 29.9324 4.79177 29.9806 4.89169 29.9935 5.28755 30 5.65845 30Z" fill-rule="evenodd" transform="matrix(1 0 0 -1 698 391)"/></g></svg>