<svg width="248" height="204" xmlns="http://www.w3.org/2000/svg" xmlns:xlink="http://www.w3.org/1999/xlink" xml:space="preserve" overflow="hidden"><g transform="translate(-547 -289)"><path d="M768.95 340.29C769.1 342.46 769.1 344.63 769.1 346.82 769.1 413.55 718.3 490.51 625.41 490.51L625.41 490.47C597.97 490.51 571.1 482.65 548 467.83 551.99 468.31 556 468.55 560.02 468.56 582.76 468.58 604.85 460.95 622.74 446.9 601.13 446.49 582.18 432.4 575.56 411.83 583.13 413.29 590.93 412.99 598.36 410.96 574.8 406.2 557.85 385.5 557.85 361.46L557.85 360.82C564.87 364.73 572.73 366.9 580.77 367.14 558.58 352.31 551.74 322.79 565.14 299.71 590.78 331.26 628.61 350.44 669.22 352.47 665.15 334.93 670.71 316.55 683.83 304.22 704.17 285.1 736.16 286.08 755.28 306.41 766.59 304.18 777.43 300.03 787.35 294.15 783.58 305.84 775.69 315.77 765.15 322.08 775.16 320.9 784.94 318.22 794.15 314.13 787.37 324.29 778.83 333.14 768.95 340.29Z"/></g></svg>