<?xml version="1.0" standalone="no"?>
<!DOCTYPE svg PUBLIC "-//W3C//DTD SVG 20010904//EN"
 "http://www.w3.org/TR/2001/REC-SVG-20010904/DTD/svg10.dtd">
<svg version="1.0" xmlns="http://www.w3.org/2000/svg"
 width="981.000000pt" height="658.000000pt" viewBox="0 0 981.000000 658.000000"
 preserveAspectRatio="xMidYMid meet">

<g transform="translate(0.000000,658.000000) scale(0.100000,-0.100000)"
fill="#000000" stroke="none">
<path d="M6265 6560 c-47 -24 -62 -25 -104 -4 -49 24 -132 15 -213 -25 -95
-46 -131 -49 -222 -17 -107 37 -156 34 -156 -8 0 -12 -9 -50 -21 -83 -17 -52
-26 -64 -57 -79 -52 -25 -148 -31 -170 -11 -23 21 -148 40 -231 35 -49 -2 -75
-9 -99 -27 -32 -22 -34 -22 -73 -7 -50 20 -119 7 -119 -23 0 -9 -33 -54 -74
-99 -47 -52 -80 -99 -89 -126 -8 -24 -25 -54 -36 -65 -27 -27 -28 -88 -1 -159
24 -63 26 -134 4 -156 -22 -22 -76 -20 -107 4 -14 11 -31 36 -37 55 -6 19 -27
48 -46 65 -40 35 -90 39 -170 15 -63 -19 -93 -19 -100 0 -10 25 -54 17 -105
-21 -29 -21 -66 -38 -89 -41 l-39 -6 -40 84 c-47 99 -65 124 -83 114 -7 -4
-44 -23 -83 -43 -55 -29 -74 -45 -88 -74 -10 -21 -24 -38 -31 -38 -18 0 -42
29 -53 65 -9 29 -12 30 -79 33 -64 3 -72 6 -106 39 -39 38 -49 37 -81 -4 -25
-31 -95 -32 -122 -3 -23 25 -41 12 -55 -40 -19 -72 -60 -78 -60 -10 0 56 -20
64 -137 56 l-95 -7 4 28 c2 23 -1 29 -19 31 -15 2 -25 12 -29 30 -12 55 -10
54 -77 47 -50 -6 -80 -2 -140 14 -42 12 -122 31 -179 41 -56 11 -132 30 -168
42 -63 22 -76 23 -440 22 -444 0 -491 -6 -535 -60 -71 -88 -139 -153 -181
-175 -43 -23 -46 -23 -58 -6 -16 21 -127 25 -144 4 -14 -16 1 -235 18 -267 7
-13 31 -49 54 -80 23 -32 52 -85 65 -119 14 -39 38 -78 67 -108 24 -26 44 -53
44 -60 0 -7 -17 -16 -39 -19 l-40 -6 34 -64 c36 -67 52 -125 40 -146 -61 -115
-59 -112 -115 -126 -75 -19 -116 -51 -260 -198 -228 -235 -390 -446 -390 -507
0 -18 7 -89 14 -159 13 -120 16 -130 45 -164 41 -46 39 -78 -5 -82 -18 -2 -49
4 -69 12 -21 9 -41 16 -45 16 -13 0 -98 -164 -120 -232 -12 -38 -37 -84 -60
-112 -62 -75 -78 -169 -34 -191 38 -19 56 -39 75 -82 14 -34 24 -43 42 -43 23
0 40 -15 114 -104 17 -21 30 -26 66 -26 54 0 77 -22 77 -73 0 -26 4 -37 15
-37 8 0 15 6 15 14 0 9 12 16 32 18 25 2 39 12 57 41 28 42 47 46 84 17 45
-35 109 -58 197 -70 46 -6 92 -16 101 -21 10 -5 44 -9 76 -9 35 -1 66 -6 77
-15 27 -20 62 -19 169 6 l91 21 43 -50 c24 -28 60 -61 79 -72 19 -12 41 -35
49 -51 11 -19 23 -29 39 -29 29 0 96 48 126 89 36 52 82 67 281 96 255 36 253
36 293 98 43 66 69 89 131 116 28 12 67 39 88 59 33 32 40 35 57 24 27 -17 28
-16 36 24 8 43 20 49 65 30 30 -13 36 -13 51 1 15 13 24 13 67 2 49 -12 52
-12 77 12 65 61 222 66 298 10 22 -16 62 -44 89 -62 27 -19 47 -40 47 -51 0
-13 8 -18 30 -18 17 0 30 -5 30 -11 0 -8 15 -10 46 -6 52 5 68 -11 40 -42 -22
-24 -20 -29 9 -23 20 3 25 0 25 -17 0 -27 13 -27 50 0 23 17 38 21 75 17 52
-6 80 -28 128 -98 30 -44 65 -79 80 -80 4 0 12 11 17 25 5 14 13 25 18 25 19
0 52 -43 63 -83 14 -53 6 -177 -16 -237 -20 -56 -13 -107 18 -119 30 -12 83
-70 96 -103 13 -35 34 -36 56 -1 17 25 18 26 31 8 20 -27 18 -139 -2 -160 -18
-18 -12 -45 11 -45 11 0 15 -12 15 -48 0 -56 12 -71 103 -121 32 -18 64 -43
72 -55 22 -33 30 -128 15 -181 l-13 -46 53 -54 c36 -37 49 -56 39 -58 -8 -2
-32 -9 -54 -14 -22 -6 -48 -13 -57 -17 -12 -6 -21 0 -32 23 -21 39 -52 57 -72
40 -8 -6 -14 -17 -14 -25 0 -25 -21 -25 -55 1 -19 14 -35 35 -35 46 0 23 -22
25 -40 4 -7 -8 -21 -15 -31 -15 -10 0 -31 -16 -46 -35 -15 -19 -31 -35 -35
-35 -5 0 -8 29 -8 64 0 36 -4 67 -10 71 -14 9 -108 -42 -121 -67 -13 -25 -6
-105 15 -166 14 -38 13 -49 -3 -114 -17 -71 -19 -74 -64 -96 -38 -18 -48 -29
-57 -61 -6 -22 -29 -63 -53 -92 -78 -96 -79 -97 -73 -171 l5 -66 -73 5 c-86 7
-94 1 -76 -64 21 -71 62 -107 162 -138 102 -32 124 -31 120 7 -4 34 12 43 48
28 26 -11 32 -9 67 19 114 91 279 106 336 29 11 -14 22 -49 24 -75 l5 -49 377
-43 c207 -23 386 -42 399 -41 27 0 121 47 396 197 489 268 821 461 895 521 42
34 91 117 91 155 0 30 26 30 102 2 82 -30 100 -40 117 -72 8 -17 21 -23 44
-23 59 -1 109 -18 141 -49 26 -25 40 -31 76 -31 25 0 64 -9 88 -20 35 -16 43
-24 40 -42 -7 -48 -122 -50 -134 -3 -6 26 -15 29 -95 40 -29 4 -54 14 -65 27
-23 26 -81 51 -96 42 -18 -11 -3 -123 21 -155 12 -16 21 -33 21 -38 0 -17 -62
-57 -108 -70 -24 -7 -64 -25 -90 -40 -26 -15 -112 -62 -191 -105 -245 -132
-293 -173 -272 -229 14 -36 25 -40 76 -22 53 17 122 20 162 4 15 -5 46 -27 68
-48 66 -63 84 -71 153 -71 62 0 64 -1 112 -50 l50 -49 0 -83 c0 -76 -13 -201
-25 -238 -3 -9 -18 -21 -35 -27 -33 -13 -37 -30 -15 -73 9 -18 28 -33 52 -40
21 -7 55 -24 76 -37 33 -23 47 -26 130 -26 57 0 102 4 117 13 59 30 128 93
153 138 76 140 289 252 372 198 35 -23 51 -15 59 28 5 24 20 46 48 71 23 19
45 35 50 35 4 0 16 17 27 39 46 90 126 116 206 66 32 -20 53 -24 110 -25 76 0
255 26 268 39 4 4 14 50 22 102 16 104 36 141 81 149 17 3 30 12 32 23 10 51
-201 72 -290 29 -25 -13 -54 -34 -62 -47 -22 -34 -52 -31 -87 6 -31 34 -59 33
-59 0 0 -13 -12 -27 -32 -37 -18 -9 -43 -28 -55 -43 -21 -25 -25 -26 -125 -25
-69 1 -115 6 -140 17 -33 14 -39 22 -53 74 -41 145 -67 186 -142 219 -53 24
-73 49 -73 95 0 18 9 19 188 19 103 0 306 5 451 12 251 11 264 13 272 32 4 12
40 138 79 281 39 143 76 274 81 292 9 28 36 46 222 154 368 211 358 202 372
352 4 40 13 73 22 83 14 14 13 17 -8 40 -22 24 -22 25 -7 77 9 28 20 68 23 87
17 82 61 120 140 120 23 0 41 7 52 20 10 11 23 20 31 20 7 0 25 26 39 58 14
31 29 60 35 63 25 16 154 19 308 8 154 -11 171 -11 194 5 24 15 26 22 26 86 0
39 4 70 9 70 5 0 11 17 15 38 3 21 21 60 41 87 19 28 35 55 35 62 0 6 -13 14
-30 18 -35 8 -47 22 -31 38 17 17 13 77 -8 122 -20 45 -45 69 -80 80 -21 6
-23 11 -17 48 8 45 52 133 71 140 6 3 30 0 53 -6 36 -9 44 -8 62 8 34 31 25
42 -39 50 -66 8 -118 34 -130 68 -12 32 3 53 54 76 84 37 196 163 195 218 0
10 -12 36 -25 58 -28 45 -32 100 -10 129 20 26 19 33 -5 41 -12 4 -43 -4 -79
-20 l-59 -27 -40 21 c-38 19 -92 73 -92 92 0 5 -9 18 -20 29 -15 15 -33 20
-77 20 -68 0 -72 2 -107 58 -14 23 -29 42 -32 42 -3 0 -17 -9 -31 -20 -31 -24
-101 -28 -109 -5 -4 8 -32 29 -64 46 -32 17 -61 37 -64 45 -4 9 -15 12 -34 8
-48 -10 -109 13 -138 52 -38 49 -74 45 -92 -10 -17 -53 -29 -66 -61 -66 -19 0
-38 14 -69 50 -24 28 -49 50 -57 50 -41 0 -111 96 -119 162 -2 18 -4 36 -5 40
0 3 -16 15 -35 26 -22 13 -35 30 -39 50 -3 16 -13 32 -21 35 -8 3 -45 -10 -82
-29 -43 -24 -89 -39 -133 -45 -77 -11 -106 -21 -181 -66 -59 -35 -90 -42 -90
-19 0 29 -30 46 -81 46 -45 0 -54 4 -103 49 -31 28 -73 55 -96 62 -38 12 -44
10 -114 -25 -41 -21 -82 -36 -92 -34 -18 3 -94 102 -114 148 -21 47 -23 76 -5
94 22 22 16 52 -36 174 l-40 94 21 23 21 22 -46 5 c-51 6 -67 21 -84 79 -18
59 -25 61 -141 39 -106 -21 -119 -19 -120 17 0 21 -79 35 -157 28 -81 -7 -84
-5 -52 50 l22 36 -22 23 c-15 16 -21 35 -21 71 0 39 -7 62 -36 108 -42 68 -41
69 45 86 65 13 101 34 101 60 0 19 -54 74 -82 84 -10 3 -38 34 -63 68 -40 54
-51 83 -46 113 10 50 -106 189 -174 210 -12 3 -37 -2 -60 -14z m785 -5379 c0
-12 -54 -51 -69 -51 -19 0 -12 28 11 44 25 18 58 21 58 7z"/>
</g>
</svg>
