<?xml version="1.0" standalone="no"?>
<!DOCTYPE svg PUBLIC "-//W3C//DTD SVG 20010904//EN"
 "http://www.w3.org/TR/2001/REC-SVG-20010904/DTD/svg10.dtd">
<svg version="1.0" xmlns="http://www.w3.org/2000/svg"
 width="1853.000000pt" height="1564.000000pt" viewBox="0 0 1853.000000 1564.000000"
 preserveAspectRatio="xMidYMid meet">

<g transform="translate(0.000000,1564.000000) scale(0.100000,-0.100000)"
fill="#000000" stroke="none">
<path d="M9377 15596 c-3 -8 -16 -16 -28 -18 -33 -4 -85 -78 -110 -156 -25
-77 -39 -322 -21 -345 6 -7 16 -51 21 -97 9 -68 20 -103 56 -175 24 -49 60
-110 80 -135 19 -25 65 -90 102 -144 45 -67 116 -148 220 -253 84 -84 157
-153 163 -153 5 0 10 -7 10 -15 0 -8 9 -19 20 -25 12 -6 51 -37 88 -69 37 -31
81 -66 97 -76 17 -11 33 -25 38 -32 4 -6 23 -17 42 -23 19 -6 35 -17 35 -23 0
-25 187 -167 218 -167 9 0 25 -9 37 -20 11 -11 49 -42 85 -70 66 -51 88 -68
151 -120 20 -17 41 -30 46 -30 5 0 21 -12 35 -27 57 -61 191 -173 207 -173 6
0 18 -11 27 -25 9 -14 23 -25 31 -25 7 0 25 -11 38 -24 13 -13 34 -31 47 -40
12 -9 64 -55 116 -103 52 -49 105 -94 118 -101 13 -7 24 -17 24 -23 0 -5 12
-15 28 -21 15 -7 39 -23 53 -37 14 -15 59 -57 100 -95 294 -275 464 -458 498
-532 5 -11 28 -43 51 -70 23 -27 54 -64 68 -82 15 -18 37 -44 50 -58 12 -14
22 -30 22 -36 0 -5 21 -54 46 -107 25 -53 57 -119 70 -146 13 -28 24 -59 24
-70 0 -11 11 -44 25 -73 13 -29 31 -76 40 -104 8 -28 19 -56 24 -62 14 -18 30
-77 36 -136 4 -30 18 -89 33 -130 26 -71 27 -85 27 -260 l0 -185 -38 -77 c-20
-42 -51 -88 -67 -102 -56 -47 -136 -43 -198 8 -15 13 -36 26 -48 30 -12 3 -26
18 -32 31 -6 14 -16 25 -20 25 -9 0 -92 105 -92 116 0 3 -15 29 -33 57 -41 63
-139 232 -154 267 -7 14 -31 72 -53 130 -23 58 -45 110 -50 115 -4 6 -13 28
-20 50 -12 39 -124 313 -157 385 -14 32 -48 124 -95 260 -10 30 -29 80 -43
110 -13 30 -38 89 -56 130 -51 122 -180 383 -194 395 -7 5 -16 17 -21 26 -18
33 -120 141 -164 173 -25 18 -66 38 -92 44 -92 23 -209 10 -254 -30 -11 -10
-25 -18 -32 -18 -14 0 -102 -88 -102 -103 0 -6 -7 -19 -16 -28 -37 -41 -34
-311 5 -453 11 -39 19 -78 18 -86 -3 -22 32 -169 49 -211 8 -19 14 -39 13 -45
-4 -14 20 -113 36 -148 7 -17 21 -58 30 -91 10 -33 24 -71 32 -83 8 -13 25
-60 39 -104 13 -44 28 -86 33 -92 5 -6 12 -25 16 -43 3 -18 16 -47 29 -65 12
-18 30 -54 40 -81 10 -26 24 -53 31 -61 8 -7 23 -40 35 -72 11 -33 25 -60 30
-62 6 -2 10 -9 10 -17 0 -15 40 -108 49 -115 4 -3 17 -30 30 -60 13 -30 29
-62 37 -71 8 -8 14 -20 14 -26 0 -15 40 -106 55 -123 14 -16 31 -74 100 -350
7 -30 22 -82 33 -115 22 -65 45 -176 68 -325 8 -52 26 -156 39 -230 14 -74 29
-171 35 -216 5 -45 20 -114 34 -155 14 -41 30 -96 36 -124 6 -27 17 -56 25
-65 7 -8 18 -34 24 -56 6 -23 19 -52 29 -65 10 -13 24 -39 32 -58 7 -18 23
-45 35 -60 12 -14 27 -47 35 -73 7 -26 23 -62 36 -79 12 -17 26 -46 30 -63 3
-17 13 -39 22 -49 8 -9 24 -40 33 -69 10 -28 28 -57 39 -65 11 -8 20 -21 20
-30 0 -8 14 -35 30 -60 17 -24 30 -50 30 -57 0 -7 9 -25 20 -39 20 -26 76
-125 118 -212 14 -27 33 -61 43 -74 11 -13 19 -31 19 -41 0 -9 14 -42 30 -73
17 -31 30 -68 30 -83 0 -14 14 -56 30 -94 17 -38 30 -77 30 -88 0 -10 14 -59
31 -107 l30 -89 4 -831 c2 -456 6 -868 9 -915 4 -47 11 -144 17 -216 5 -71 9
-168 8 -215 -3 -105 18 -362 32 -409 7 -19 18 -43 27 -53 8 -9 20 -27 26 -39
6 -13 20 -27 31 -33 11 -6 32 -18 47 -29 23 -15 50 -18 175 -19 202 -2 847 18
861 27 6 4 84 11 173 16 179 10 219 22 255 77 29 44 54 149 54 230 0 37 6 102
14 143 16 82 26 399 31 900 5 477 24 1352 36 1655 6 149 8 297 4 331 -3 33 -1
458 5 945 6 486 12 1048 14 1249 3 201 8 463 12 583 8 234 3 295 -43 507 -14
63 -33 138 -43 165 -79 216 -113 293 -165 372 -55 82 -173 212 -268 293 -54
47 -106 92 -115 100 -10 9 -35 29 -56 45 -22 16 -56 45 -75 65 -20 20 -72 67
-116 104 -44 38 -111 96 -149 130 -88 77 -137 116 -146 116 -4 0 -18 11 -31
24 -13 12 -58 51 -99 86 -74 62 -186 162 -303 273 -34 31 -65 57 -69 57 -5 0
-17 9 -28 20 -44 44 -280 246 -315 270 -21 14 -52 39 -69 56 -41 40 -234 206
-264 226 -22 15 -102 84 -164 141 -17 15 -46 38 -65 51 -41 28 -127 103 -197
173 -29 28 -67 58 -86 66 -19 8 -79 56 -133 106 -55 50 -103 91 -108 91 -16 0
-148 117 -230 204 -42 45 -94 90 -115 101 -22 11 -134 99 -249 196 -116 96
-220 181 -233 188 -12 6 -22 18 -22 25 0 8 -10 20 -22 29 -13 8 -45 35 -73 61
-27 26 -81 72 -120 104 -38 31 -77 64 -86 72 -30 26 -159 143 -201 183 -22 20
-44 37 -49 37 -5 0 -9 6 -9 14 0 7 -12 22 -27 31 -16 10 -32 24 -36 32 -12 20
-126 73 -158 73 -15 0 -29 -6 -32 -14z"/>
<path d="M8765 15558 c-11 -6 -24 -17 -28 -25 -4 -7 -14 -13 -21 -13 -19 0
-214 -170 -333 -291 -56 -57 -116 -115 -133 -129 -17 -14 -48 -41 -70 -61 -40
-37 -94 -85 -250 -221 -47 -41 -119 -110 -160 -152 -41 -43 -235 -236 -430
-430 -195 -193 -383 -379 -418 -413 -35 -35 -75 -69 -90 -77 -15 -8 -54 -42
-87 -76 -104 -108 -150 -152 -270 -260 -125 -113 -352 -330 -549 -525 -66 -67
-175 -167 -241 -223 -66 -57 -235 -216 -375 -355 -140 -139 -294 -287 -342
-330 -84 -75 -229 -235 -296 -327 -18 -25 -57 -85 -87 -135 -29 -49 -74 -124
-99 -167 -78 -128 -119 -281 -146 -533 -12 -117 -13 -358 -1 -422 6 -27 12
-128 15 -225 3 -96 10 -230 16 -299 6 -68 17 -257 25 -419 8 -162 19 -309 24
-325 5 -17 12 -79 16 -140 21 -376 36 -596 45 -640 10 -45 19 -193 50 -775 5
-102 14 -223 20 -270 5 -47 15 -168 20 -270 6 -102 15 -232 20 -290 5 -58 14
-195 20 -305 12 -252 49 -805 55 -825 5 -18 31 -303 40 -440 3 -52 12 -138 20
-190 8 -52 19 -162 24 -245 12 -171 19 -200 56 -250 38 -49 96 -63 300 -76 94
-5 215 -13 270 -18 128 -10 754 -1 780 11 64 30 155 104 155 126 0 4 11 19 24
31 42 39 48 95 37 320 -6 112 -11 246 -11 297 0 52 -4 124 -10 161 -15 106
-29 425 -35 808 -4 193 -10 379 -16 415 -25 175 -30 238 -26 385 3 172 33 365
67 441 10 23 21 56 25 73 3 17 11 33 16 36 5 4 9 17 9 30 0 13 11 41 25 61 14
21 28 49 31 63 3 14 12 37 20 51 8 14 22 41 31 60 9 19 24 51 33 70 10 19 23
55 30 80 6 25 20 57 30 71 11 15 27 51 37 80 10 30 26 65 35 79 10 14 24 45
32 68 9 24 25 55 36 69 10 14 22 41 26 61 4 19 17 51 30 70 13 19 24 43 24 53
0 10 11 42 25 71 34 75 82 224 118 373 28 114 58 210 78 248 11 21 24 72 29
115 5 42 18 118 28 167 11 50 23 124 27 165 10 126 26 231 46 310 19 79 24
108 34 230 7 80 54 249 87 314 11 22 27 67 35 100 7 33 18 65 24 72 10 12 34
97 46 159 3 17 11 37 18 45 8 8 23 50 34 93 11 43 26 84 34 91 7 7 19 33 26
57 7 24 19 55 26 69 21 41 55 134 55 152 0 9 6 21 14 25 8 4 24 40 35 78 11
39 26 90 34 115 8 25 21 72 27 105 7 33 20 80 30 105 18 45 34 127 46 230 3
30 13 84 22 120 21 86 24 472 4 510 -37 70 -52 91 -87 124 -21 20 -41 36 -44
36 -3 0 -28 12 -56 27 -41 21 -64 26 -125 26 -111 1 -178 -34 -297 -155 -81
-82 -99 -108 -152 -213 -33 -66 -72 -154 -86 -195 -14 -41 -32 -86 -39 -100
-8 -14 -33 -92 -56 -175 -23 -82 -50 -175 -60 -205 -18 -53 -69 -225 -106
-360 -9 -36 -21 -69 -25 -75 -4 -5 -15 -39 -24 -75 -29 -113 -74 -231 -126
-334 -156 -305 -193 -366 -276 -453 -65 -67 -114 -93 -178 -93 -63 0 -97 16
-139 66 -35 42 -38 51 -49 147 -6 56 -12 147 -12 202 0 169 34 484 55 510 5 6
16 46 25 90 9 43 22 93 30 110 8 16 21 57 31 90 9 33 24 69 34 80 10 11 28 41
39 68 11 26 24 47 29 47 4 0 14 16 22 35 8 20 22 43 32 52 10 9 27 36 38 60
10 24 23 43 29 43 5 0 19 21 31 46 13 25 33 58 46 72 13 15 33 37 44 50 11 12
27 36 35 52 9 17 19 30 24 30 12 0 98 114 106 141 4 13 25 45 46 70 22 26 39
49 39 52 0 3 26 32 58 65 112 117 142 147 159 163 10 10 32 33 48 52 82 96
111 127 119 127 9 0 53 34 119 92 23 20 65 56 93 80 59 50 84 73 122 109 15
15 37 30 50 34 12 3 27 15 32 26 6 10 16 19 22 19 12 0 66 42 135 106 24 22
57 50 74 64 17 14 45 37 63 52 17 16 60 51 96 79 36 28 106 90 156 138 185
177 222 211 227 211 3 0 44 38 91 85 48 47 90 85 94 85 4 0 27 23 52 51 25 27
57 62 71 77 25 26 190 214 278 316 24 28 46 53 50 56 9 7 59 76 97 132 30 45
77 158 104 253 20 71 24 310 7 402 -17 87 -63 175 -108 207 -27 18 -104 21
-134 4z"/>
<path d="M3794 14582 c-38 -21 -83 -47 -100 -59 -70 -53 -102 -76 -154 -110
-30 -19 -68 -48 -85 -62 -16 -15 -47 -34 -67 -44 -32 -14 -164 -118 -268 -211
-19 -17 -97 -94 -173 -171 -136 -137 -185 -195 -259 -305 -20 -30 -51 -75 -69
-100 -38 -53 -93 -155 -104 -190 -10 -33 -61 -153 -92 -215 -60 -120 -87 -237
-61 -263 30 -30 63 -13 151 73 47 47 91 85 97 85 6 0 15 11 22 25 6 13 23 28
39 34 15 5 37 19 48 30 11 11 38 32 60 45 21 14 72 58 113 98 40 41 88 80 106
87 17 7 32 18 32 23 0 5 20 18 45 29 25 11 49 28 55 38 5 10 21 21 34 25 14 3
28 15 31 27 4 11 18 24 31 29 13 5 29 20 35 34 6 13 22 29 35 35 13 6 24 17
24 24 0 17 45 70 132 154 38 38 97 100 210 224 20 22 40 50 44 62 4 12 15 28
25 35 9 6 20 26 24 42 4 16 15 36 24 42 10 7 28 30 39 52 11 21 30 45 41 53
12 8 21 20 21 27 0 7 9 21 21 32 12 10 27 31 34 45 8 14 27 40 44 58 17 18 31
42 31 53 0 10 5 29 11 40 9 16 7 28 -8 55 -34 66 -111 71 -219 15z"/>
<path d="M14600 14567 c-34 -12 -35 -14 -32 -57 2 -25 12 -54 22 -65 10 -11
26 -36 35 -55 10 -19 28 -48 41 -63 13 -16 24 -36 24 -45 0 -9 13 -32 29 -51
16 -19 32 -49 35 -67 4 -17 13 -35 21 -38 8 -3 21 -21 29 -40 8 -19 23 -43 35
-55 11 -11 27 -34 36 -50 8 -17 24 -35 35 -41 11 -6 20 -17 20 -25 0 -8 14
-24 30 -37 17 -12 30 -27 30 -33 0 -6 24 -32 53 -58 28 -27 63 -59 77 -73 14
-13 29 -24 34 -24 5 0 33 -25 61 -55 29 -30 58 -55 64 -55 7 0 24 -12 39 -27
44 -45 140 -123 151 -123 6 0 15 -9 21 -20 6 -11 17 -20 26 -20 16 0 31 -13
178 -155 54 -52 102 -95 107 -95 4 0 11 -9 14 -20 4 -11 23 -29 43 -39 20 -11
50 -33 66 -50 17 -17 38 -31 48 -31 9 0 22 -9 28 -21 16 -30 61 -22 78 14 26
55 -25 204 -143 418 -30 53 -58 114 -64 135 -13 48 -64 148 -117 231 -68 107
-362 413 -450 469 -28 18 -54 37 -56 41 -7 17 -125 103 -190 138 -38 20 -68
40 -68 45 0 4 -21 18 -47 30 -27 12 -57 31 -69 41 -37 35 -203 50 -274 26z"/>
<path d="M15995 14286 c-15 -22 -15 -30 0 -87 9 -35 27 -75 40 -91 13 -15 28
-50 34 -78 6 -27 19 -58 29 -68 12 -12 22 -48 31 -117 7 -55 21 -121 32 -147
11 -26 26 -92 33 -147 8 -54 22 -110 31 -124 8 -13 20 -53 26 -87 5 -34 17
-81 25 -103 18 -47 28 -93 43 -186 6 -35 18 -72 27 -82 9 -10 22 -50 30 -89 7
-39 22 -83 32 -98 11 -15 22 -43 25 -62 16 -88 28 -134 36 -144 5 -6 17 -37
27 -70 10 -32 24 -60 31 -63 6 -3 22 -37 34 -76 12 -40 25 -76 29 -82 4 -5 16
-39 25 -75 10 -36 24 -76 32 -88 8 -13 23 -47 32 -75 10 -29 29 -68 43 -88 32
-48 53 -141 38 -169 -15 -28 -51 -23 -67 10 -43 86 -151 281 -173 315 -15 22
-43 70 -63 107 -19 37 -55 91 -80 120 -24 29 -57 73 -74 98 -65 96 -204 213
-290 244 -49 18 -133 69 -206 126 -65 51 -128 89 -204 125 -29 13 -53 28 -53
33 0 11 -142 115 -330 242 -41 28 -94 68 -118 90 -48 44 -186 114 -208 106 -8
-3 -19 -17 -25 -30 -16 -35 0 -69 62 -137 28 -30 57 -67 64 -84 7 -16 27 -48
44 -70 16 -22 43 -57 58 -78 15 -22 38 -50 50 -63 12 -13 24 -31 27 -41 3 -10
24 -38 46 -63 22 -25 53 -59 68 -77 15 -18 79 -84 142 -148 63 -63 118 -118
122 -122 108 -112 138 -146 138 -159 0 -8 11 -19 25 -24 14 -5 25 -15 25 -22
0 -17 88 -98 106 -98 7 0 21 -11 30 -25 9 -14 22 -25 29 -25 6 0 20 -9 31 -21
10 -12 36 -30 57 -41 21 -10 41 -26 44 -34 3 -8 22 -23 42 -34 20 -10 44 -28
53 -39 10 -12 24 -21 31 -21 8 0 34 -16 58 -35 24 -19 51 -35 60 -35 8 0 24
-8 35 -18 10 -10 28 -21 39 -26 24 -9 87 -55 173 -127 37 -30 84 -65 105 -78
20 -12 37 -27 37 -32 0 -6 16 -17 35 -24 19 -8 39 -23 44 -32 5 -10 29 -25 53
-34 63 -23 109 -8 121 41 5 19 9 271 10 560 2 455 -1 541 -16 645 -37 257 -50
322 -71 385 -13 36 -26 83 -30 105 -4 22 -23 72 -41 110 -18 39 -50 111 -71
160 -61 143 -184 335 -288 446 -33 37 -72 81 -86 100 -36 47 -105 111 -180
166 -36 27 -73 56 -82 66 -25 24 -55 21 -73 -7z"/>
<path d="M2385 14160 c-4 -6 -23 -19 -44 -29 -45 -23 -148 -124 -233 -228 -34
-43 -71 -87 -80 -97 -10 -11 -18 -25 -18 -31 0 -7 -9 -20 -20 -30 -11 -10 -33
-41 -50 -69 -39 -66 -51 -85 -76 -121 -11 -16 -40 -73 -63 -125 -24 -52 -55
-122 -70 -155 -59 -126 -81 -182 -97 -240 -8 -33 -25 -87 -36 -120 -11 -33
-26 -114 -34 -180 -8 -66 -19 -134 -25 -152 -6 -17 -16 -130 -24 -250 -17
-285 -8 -483 32 -643 26 -107 28 -129 28 -327 0 -149 4 -215 12 -224 19 -19
79 -2 98 29 20 30 31 44 105 122 91 97 98 105 105 128 3 12 13 22 20 22 8 0
20 10 26 23 7 12 35 44 63 70 28 26 60 56 71 67 12 11 26 20 32 20 6 0 30 17
52 38 22 20 59 53 80 72 22 19 81 74 131 123 50 48 95 87 100 87 4 0 27 15 49
34 23 19 51 38 64 42 23 7 38 19 98 79 19 19 39 35 44 35 4 0 33 26 64 58 31
32 64 61 74 65 9 3 21 17 27 31 5 13 18 27 28 30 11 4 25 20 32 36 7 16 20 32
30 35 10 3 21 16 24 28 3 12 23 42 46 67 22 24 40 50 40 56 0 7 7 15 15 18 9
3 23 22 31 41 8 19 21 35 30 35 8 0 20 13 25 30 6 16 19 32 29 35 10 3 23 18
30 34 6 16 23 38 36 50 14 12 32 37 39 54 7 18 23 40 34 49 12 10 21 24 21 31
0 8 9 22 20 32 11 10 29 37 41 61 11 24 25 44 30 44 5 0 16 15 25 33 9 17 30
47 45 65 16 18 29 38 29 45 1 7 14 28 30 47 17 19 30 41 30 48 0 8 14 30 30
49 40 45 40 125 0 138 -39 13 -104 -33 -285 -198 -11 -10 -49 -37 -86 -60 -36
-23 -78 -52 -95 -65 -16 -13 -54 -39 -84 -59 -30 -19 -68 -48 -85 -62 -16 -15
-42 -32 -56 -38 -14 -6 -51 -28 -83 -49 -32 -22 -85 -55 -117 -74 -32 -19 -83
-55 -114 -80 -30 -25 -72 -58 -93 -75 -59 -47 -222 -226 -243 -266 -10 -20
-40 -61 -66 -90 -58 -64 -101 -122 -124 -164 -58 -108 -105 -186 -138 -230
-21 -27 -58 -92 -82 -143 -26 -53 -52 -95 -62 -98 -23 -7 -47 12 -47 38 0 30
30 128 55 178 12 25 28 68 35 95 7 28 20 59 27 71 7 12 20 51 28 88 7 37 21
73 29 79 8 7 24 54 36 107 11 52 25 104 30 115 14 32 30 97 30 129 0 16 11 52
24 80 13 28 29 76 36 106 6 30 20 71 30 90 24 47 30 91 39 272 7 128 12 160
29 193 12 23 24 63 28 90 6 56 22 105 34 105 9 0 40 91 40 119 0 11 7 24 15
28 14 8 49 117 54 166 1 4 7 7 14 7 15 0 37 62 37 102 0 14 8 36 19 49 24 32
34 64 26 89 -11 36 -94 66 -110 40z"/>
<path d="M9085 13269 c-108 -13 -154 -26 -189 -53 -19 -14 -38 -26 -42 -26
-12 0 -108 -68 -131 -93 -31 -34 -75 -118 -116 -222 -55 -142 -57 -151 -59
-325 -3 -140 0 -182 20 -275 22 -105 61 -227 86 -270 7 -11 23 -46 35 -77 13
-32 27 -58 31 -58 5 0 12 -10 16 -22 4 -13 26 -51 50 -86 67 -98 87 -160 82
-263 -4 -77 -7 -91 -37 -135 -40 -62 -178 -205 -296 -307 -49 -43 -95 -87
-103 -98 -7 -10 -18 -19 -23 -19 -22 0 -277 -218 -360 -308 -68 -74 -129 -175
-148 -249 -16 -57 -15 -1435 0 -2033 12 -476 14 -624 24 -1435 3 -315 10 -536
16 -560 12 -43 114 -197 170 -255 19 -20 46 -41 62 -48 15 -6 27 -16 27 -22 0
-16 41 -11 87 11 37 18 58 20 139 17 l95 -3 40 -42 c44 -47 45 -58 25 -157
-10 -44 -13 -98 -10 -150 3 -45 9 -265 14 -491 4 -225 10 -428 14 -449 11 -66
41 -118 108 -189 55 -58 74 -71 134 -92 65 -22 74 -23 158 -13 67 9 107 9 158
0 85 -15 230 -15 368 -2 215 21 320 41 320 60 0 4 19 18 43 30 70 36 107 67
140 117 l32 48 4 170 c5 231 -16 767 -34 890 -19 125 -19 188 -1 224 26 50 41
56 165 61 100 4 120 8 144 27 15 12 46 24 68 28 53 9 153 92 186 155 l25 45
-6 655 c-6 832 -22 1730 -30 1750 -4 9 -8 202 -11 430 -7 715 -21 1243 -32
1270 -6 14 -20 54 -31 90 -37 118 -130 253 -222 320 -33 25 -93 71 -131 103
-39 31 -75 57 -81 57 -6 0 -26 14 -45 30 -18 17 -42 30 -52 30 -10 0 -35 13
-55 29 -21 17 -53 35 -72 41 -19 6 -34 16 -34 21 0 5 -19 21 -42 35 -82 51
-166 133 -192 187 -27 55 -48 180 -39 232 8 48 35 129 48 145 20 25 102 171
129 230 13 30 37 93 53 140 25 79 28 99 31 283 4 183 2 206 -23 325 -31 149
-43 191 -60 212 -7 8 -20 35 -29 60 -17 46 -86 130 -107 130 -6 0 -24 11 -40
25 -16 13 -44 28 -62 33 -18 5 -49 20 -69 34 -28 19 -60 28 -135 37 -54 7
-107 13 -118 15 -11 2 -47 -1 -80 -5z"/>
<path d="M17295 12871 c-27 -5 -30 -10 -33 -49 -2 -25 3 -56 13 -75 26 -52 35
-173 35 -487 0 -321 -15 -670 -32 -710 -12 -30 -27 -329 -28 -579 -1 -201 13
-409 36 -512 8 -37 14 -104 14 -149 0 -45 5 -124 11 -177 8 -69 8 -101 0 -119
-23 -50 -62 -19 -81 66 -7 30 -31 100 -53 155 -22 55 -47 134 -57 175 -56 239
-108 365 -191 456 -28 31 -57 72 -65 90 -18 43 -72 133 -95 159 -38 43 -81 93
-138 163 -60 73 -125 132 -171 154 -35 17 -128 93 -152 124 -19 23 -82 75
-162 131 -17 12 -49 36 -71 53 -22 16 -63 46 -92 65 -28 19 -54 39 -58 45 -10
17 -92 12 -99 -6 -13 -35 -4 -81 24 -123 17 -24 30 -52 30 -61 0 -10 14 -34
30 -55 17 -21 30 -48 30 -60 0 -12 13 -42 30 -66 16 -24 30 -51 30 -60 0 -9
13 -33 29 -52 16 -20 34 -57 40 -83 6 -25 20 -55 30 -65 10 -11 22 -34 25 -51
3 -17 18 -46 32 -65 14 -18 30 -48 36 -66 6 -17 19 -41 28 -52 10 -11 24 -34
33 -50 8 -17 24 -39 36 -49 12 -11 21 -27 21 -36 0 -10 11 -28 24 -41 13 -13
33 -43 45 -66 12 -24 26 -43 32 -43 5 0 18 -19 28 -43 10 -23 25 -48 34 -55 8
-7 21 -26 27 -43 7 -17 25 -43 39 -59 68 -75 81 -92 81 -104 0 -8 16 -33 35
-56 19 -23 35 -50 35 -60 0 -9 14 -34 30 -55 17 -21 30 -44 30 -51 0 -8 13
-26 29 -40 16 -14 32 -36 35 -49 3 -13 15 -27 26 -30 11 -3 20 -15 20 -25 0
-10 18 -37 40 -60 22 -23 40 -50 40 -61 0 -10 11 -26 24 -35 14 -8 26 -25 28
-37 2 -12 13 -26 26 -32 12 -5 22 -14 22 -19 0 -5 20 -31 45 -57 46 -50 48
-56 49 -159 l1 -55 44 -11 c27 -6 52 -21 65 -37 12 -15 27 -27 34 -27 6 0 18
-16 26 -35 8 -19 22 -38 31 -41 8 -3 15 -12 15 -19 0 -6 9 -20 19 -29 17 -15
24 -16 61 -5 50 15 65 43 100 185 12 49 33 112 46 140 13 28 31 96 39 150 8
54 24 124 36 154 11 30 25 81 30 112 5 32 18 72 28 90 11 18 25 62 31 98 6 36
20 79 31 96 10 17 26 64 34 105 8 41 21 101 29 135 7 33 19 143 26 245 14 204
2 512 -24 624 -8 33 -17 85 -21 115 -22 192 -83 499 -108 550 -9 18 -21 60
-28 94 -6 33 -21 88 -34 121 -12 33 -27 74 -33 90 -5 17 -21 48 -36 69 -14 21
-26 46 -26 55 0 9 -14 36 -30 61 -16 25 -30 52 -30 61 0 9 -11 33 -25 53 -14
21 -31 52 -39 69 -12 31 -79 98 -94 96 -4 -1 -20 -4 -37 -8z"/>
<path d="M1116 12707 c-24 -24 -46 -53 -50 -64 -4 -12 -13 -24 -21 -27 -8 -3
-15 -12 -15 -20 0 -8 -31 -75 -70 -150 -38 -75 -70 -146 -70 -157 0 -11 -11
-40 -25 -64 -15 -25 -32 -78 -41 -130 -8 -48 -23 -108 -34 -134 -11 -28 -23
-101 -30 -172 -6 -68 -20 -151 -30 -184 -10 -33 -21 -112 -24 -175 -4 -63 -14
-201 -23 -307 -13 -161 -14 -220 -4 -365 18 -263 27 -337 54 -413 14 -40 30
-117 36 -177 7 -59 18 -129 26 -155 9 -26 22 -87 29 -135 9 -50 26 -107 40
-135 14 -26 26 -59 26 -73 0 -14 12 -52 26 -85 13 -33 29 -82 34 -110 6 -27
21 -90 34 -140 39 -147 75 -306 86 -373 5 -35 14 -70 19 -76 14 -17 86 -19 98
-3 6 6 13 36 16 66 4 29 11 59 17 66 14 17 28 65 40 139 5 32 16 66 24 75 7 9
24 41 37 71 12 30 31 63 41 73 10 10 18 26 18 37 0 11 14 35 30 54 17 19 35
48 41 65 6 17 20 36 30 42 10 5 19 16 19 24 0 8 14 24 30 37 17 12 30 27 30
34 0 7 18 34 40 59 22 25 40 53 40 62 0 8 14 28 30 43 17 16 33 42 36 59 4 18
15 36 26 42 10 6 23 21 28 35 5 13 21 29 35 34 14 5 30 21 35 35 5 14 16 25
24 25 8 0 20 16 26 35 6 19 20 40 30 45 10 6 22 20 26 32 4 13 22 40 40 61 19
20 34 44 34 52 0 8 11 22 25 31 14 9 25 23 25 31 0 8 14 28 30 43 17 16 37 46
46 66 9 21 25 45 35 52 10 7 19 19 19 26 0 7 14 30 30 51 17 21 33 55 36 76 4
22 17 51 31 66 13 16 27 41 30 56 3 15 13 33 23 40 23 17 50 71 50 102 0 14 7
28 15 32 17 6 45 65 45 93 0 9 9 29 20 43 12 15 27 48 35 75 8 27 22 55 30 62
9 7 20 32 26 55 6 23 24 57 40 76 16 19 29 44 29 56 0 12 11 35 25 51 13 16
29 51 35 78 6 27 20 62 32 78 27 37 35 114 15 140 -14 19 -15 19 -53 1 -57
-26 -610 -561 -703 -680 -27 -34 -60 -75 -74 -90 -14 -15 -33 -37 -43 -48 -19
-20 -84 -98 -124 -147 -39 -48 -89 -119 -104 -148 -8 -16 -22 -32 -31 -35 -8
-4 -15 -13 -15 -20 0 -8 -10 -27 -22 -42 -24 -31 -65 -103 -99 -175 -12 -25
-34 -70 -50 -101 -16 -31 -29 -64 -29 -73 0 -9 -11 -38 -24 -64 -13 -26 -29
-72 -36 -102 -7 -30 -23 -85 -36 -123 -13 -37 -28 -112 -35 -167 -14 -118 -31
-145 -77 -119 l-27 15 -2 169 c0 104 3 178 10 190 16 31 27 84 36 180 6 63 15
101 30 127 16 25 25 66 32 132 6 59 18 113 32 143 21 46 22 63 25 370 4 329
-6 502 -32 563 -8 19 -21 94 -29 166 -10 84 -22 144 -34 165 -16 31 -18 61
-17 334 1 246 4 309 17 350 16 50 20 82 18 142 -1 24 -9 36 -35 52 -18 12 -36
21 -40 21 -3 0 -26 -19 -50 -43z"/>
<path d="M18342 10543 c-16 -6 -42 -56 -42 -82 0 -11 -6 -26 -13 -33 -22 -22
-34 -50 -41 -98 -4 -25 -18 -61 -31 -80 -14 -20 -29 -58 -34 -85 -5 -27 -14
-51 -20 -53 -16 -5 -41 -57 -41 -83 0 -13 -11 -35 -25 -49 -14 -15 -29 -46
-34 -72 -4 -26 -20 -61 -35 -78 -14 -17 -26 -40 -26 -51 0 -24 -18 -61 -35
-71 -7 -4 -16 -20 -20 -35 -3 -16 -19 -48 -35 -73 -15 -25 -31 -61 -35 -80 -4
-19 -18 -54 -31 -77 -13 -23 -29 -66 -34 -94 -6 -29 -17 -60 -26 -70 -20 -22
-43 -86 -44 -121 0 -15 -11 -44 -25 -64 -14 -20 -25 -46 -25 -58 0 -12 -9 -37
-19 -56 -39 -70 -51 -101 -55 -140 -2 -21 -11 -54 -20 -72 -15 -29 -32 -101
-51 -210 -3 -21 -9 -38 -14 -38 -9 0 -38 -97 -45 -154 -3 -21 -12 -46 -20 -55
-8 -9 -19 -36 -25 -61 -5 -25 -15 -65 -21 -90 -6 -25 -18 -99 -26 -165 -16
-134 -28 -181 -49 -188 -31 -12 -42 25 -48 163 -5 96 -12 149 -25 185 -11 28
-25 86 -31 130 -7 44 -20 100 -28 125 -11 30 -16 88 -17 176 -2 125 -3 133
-32 185 -17 30 -36 80 -42 113 -7 32 -19 73 -28 90 -9 17 -33 82 -55 145 -21
63 -51 132 -66 154 -15 22 -35 50 -43 62 -8 13 -40 56 -71 96 -31 41 -60 85
-64 99 -4 14 -20 41 -35 60 -55 71 -65 93 -134 290 -31 87 -82 187 -111 216
-26 26 -60 30 -99 12 -40 -17 -42 -48 -33 -384 4 -158 9 -207 21 -225 8 -13
20 -57 26 -96 5 -40 14 -104 20 -142 5 -37 17 -81 25 -97 8 -16 15 -40 15 -53
0 -33 29 -140 45 -165 7 -11 16 -41 20 -66 12 -83 17 -100 33 -117 9 -9 23
-39 30 -66 6 -27 23 -62 36 -78 13 -16 29 -52 35 -81 7 -29 20 -62 30 -73 11
-11 24 -39 30 -61 6 -23 20 -53 31 -67 11 -14 20 -32 20 -41 0 -29 32 -96 46
-96 7 0 18 -17 24 -38 5 -21 21 -49 35 -62 13 -13 28 -39 31 -59 7 -40 20 -69
41 -89 11 -12 14 -21 13 -47 -1 -12 34 -71 47 -81 8 -5 19 -32 24 -60 5 -27
17 -56 28 -64 10 -9 21 -29 24 -45 12 -63 30 -121 45 -137 8 -9 17 -32 21 -50
4 -20 15 -37 29 -43 12 -5 22 -15 22 -22 0 -16 35 -26 69 -18 16 3 43 19 60
36 17 16 35 29 39 29 5 0 14 11 20 24 6 13 38 55 71 94 33 38 63 82 67 96 3
14 12 30 19 34 6 4 25 27 41 52 16 24 37 52 47 62 9 10 17 24 17 32 0 13 32
52 89 111 17 17 33 44 37 60 4 17 15 39 25 50 10 11 27 41 39 67 11 26 25 50
30 53 5 3 19 27 30 53 12 26 29 56 39 67 10 11 21 32 25 48 3 15 11 27 16 27
5 0 24 21 42 48 17 26 38 53 45 60 7 7 16 28 22 46 5 19 17 42 28 53 10 10 24
48 32 88 8 40 22 78 32 87 10 10 21 35 24 55 3 21 19 65 35 98 18 37 31 83 34
121 6 67 14 94 26 94 12 0 20 27 40 135 10 55 26 125 34 155 9 30 20 83 25
117 5 34 16 76 24 95 21 47 37 279 37 518 0 221 -11 298 -48 345 -12 15 -22
34 -22 41 0 14 -50 18 -78 7z"/>
<path d="M93 10418 c-12 -15 -39 -130 -54 -233 -14 -92 -7 -322 10 -354 7 -12
19 -89 26 -170 8 -80 21 -173 30 -206 9 -33 23 -121 30 -195 9 -99 20 -152 38
-195 13 -33 27 -76 31 -96 3 -19 17 -51 31 -69 14 -19 25 -46 25 -60 0 -14 16
-57 35 -96 19 -38 35 -79 35 -91 0 -12 11 -35 25 -51 13 -16 29 -48 34 -72 5
-23 21 -54 35 -69 14 -15 26 -37 26 -49 0 -12 9 -31 19 -41 10 -10 31 -40 46
-65 15 -25 30 -46 34 -46 4 0 18 -25 30 -55 13 -30 27 -55 33 -55 5 0 18 -20
29 -45 11 -25 24 -45 29 -45 5 0 18 -19 29 -42 10 -24 46 -72 80 -108 93 -100
95 -102 112 -145 17 -44 24 -53 124 -158 36 -37 65 -73 65 -81 0 -7 10 -21 21
-32 12 -10 30 -37 40 -60 10 -22 27 -49 39 -59 11 -10 20 -24 20 -31 0 -7 16
-30 35 -51 19 -21 37 -45 40 -54 3 -9 23 -30 44 -47 33 -26 45 -31 73 -25 41
7 58 20 58 43 0 10 11 40 25 67 15 29 28 79 34 128 6 49 15 83 24 90 17 13 47
79 47 106 0 10 9 26 19 36 12 12 24 45 32 97 8 45 21 86 30 95 19 18 42 59 45
81 2 8 10 20 19 26 9 6 24 35 34 64 10 29 23 55 29 59 14 8 32 57 38 98 2 17
15 48 29 69 14 20 25 47 25 59 0 12 13 39 29 59 16 20 32 51 35 69 3 19 15 43
25 54 21 22 53 117 43 127 -3 4 6 18 21 32 15 14 27 28 27 32 0 37 24 142 37
161 10 15 19 66 25 135 5 61 21 147 34 191 21 71 25 110 33 335 8 253 3 412
-15 430 -5 5 -27 12 -49 15 -35 6 -43 3 -67 -22 -14 -15 -40 -54 -57 -85 -17
-31 -35 -65 -40 -75 -23 -44 -71 -156 -71 -168 0 -17 -86 -184 -105 -205 -8
-9 -15 -22 -15 -29 0 -7 -30 -78 -66 -158 -67 -149 -88 -202 -129 -333 -13
-41 -40 -120 -60 -175 -20 -55 -47 -150 -60 -212 -13 -62 -30 -125 -38 -140
-19 -36 -25 -90 -37 -303 -5 -109 -15 -191 -24 -218 -9 -24 -22 -97 -30 -164
-9 -66 -20 -126 -27 -134 -15 -18 -63 -18 -79 1 -7 8 -15 70 -20 148 -10 160
-17 201 -41 246 -10 19 -21 61 -25 93 -5 40 -16 72 -35 101 -18 27 -29 55 -29
78 0 20 -11 58 -26 84 -15 30 -27 72 -31 111 -3 36 -14 75 -24 91 -10 15 -23
35 -28 43 -6 8 -13 32 -16 53 -3 22 -16 47 -30 58 -15 14 -25 37 -30 67 -4 26
-18 67 -31 91 -13 25 -26 71 -30 103 -5 42 -14 68 -34 93 -17 22 -30 52 -34
84 -5 37 -13 53 -31 65 -14 9 -25 26 -25 37 0 24 -23 71 -44 88 -8 7 -18 25
-21 41 -4 16 -20 46 -36 66 -16 20 -29 47 -29 59 0 12 -11 43 -25 69 -14 26
-28 66 -32 88 -3 23 -16 51 -27 62 -12 12 -30 40 -41 64 -10 24 -27 48 -37 53
-10 5 -18 20 -18 33 0 13 -13 50 -30 81 -16 31 -30 71 -31 88 -4 78 -21 160
-44 203 -14 26 -25 58 -25 72 0 18 -68 178 -85 200 -9 12 -73 12 -82 0z"/>
<path d="M16316 8344 c-3 -9 -6 -24 -6 -33 0 -10 -11 -39 -25 -65 -14 -26 -31
-83 -39 -127 -8 -44 -19 -86 -25 -93 -18 -21 -31 -73 -37 -146 -3 -36 -12 -92
-20 -125 -25 -101 -34 -190 -44 -455 -11 -296 1 -598 30 -725 10 -44 26 -132
35 -195 9 -63 25 -144 35 -180 30 -108 77 -656 79 -911 1 -130 12 -196 35
-211 6 -4 27 -8 46 -8 31 0 45 10 105 70 39 38 84 85 100 104 47 55 52 59 91
91 20 17 66 59 103 94 36 35 82 71 102 81 19 10 41 26 48 34 8 9 18 16 25 16
6 0 22 11 36 25 32 31 116 101 170 140 44 32 99 79 140 120 14 14 32 25 39 25
8 0 73 57 144 128 195 190 246 244 263 274 8 15 23 32 34 38 11 6 20 19 20 30
0 11 11 29 24 42 13 13 32 39 43 58 10 20 28 46 41 60 12 13 22 30 22 38 0 8
13 30 30 48 16 19 34 52 40 74 6 22 14 40 19 40 9 0 41 66 41 86 0 9 11 29 25
45 13 16 27 46 31 67 4 20 20 53 35 72 16 19 29 45 29 58 0 13 13 51 29 85 17
34 32 79 35 99 3 20 15 55 27 78 12 22 27 78 33 124 6 46 17 90 24 99 35 42
54 187 43 335 -5 62 -14 119 -21 127 -26 31 -100 9 -100 -30 0 -8 -13 -23 -30
-35 -17 -12 -33 -36 -39 -56 -5 -20 -19 -46 -31 -57 -39 -40 -100 -131 -100
-150 0 -10 -9 -21 -19 -24 -11 -3 -25 -18 -32 -35 -13 -31 -60 -95 -101 -136
-12 -13 -28 -36 -35 -52 -6 -17 -16 -30 -21 -30 -8 0 -44 -50 -98 -137 -11
-18 -28 -39 -36 -46 -9 -6 -21 -28 -27 -49 -7 -20 -18 -39 -25 -41 -8 -3 -22
-26 -31 -51 -10 -25 -26 -48 -35 -51 -10 -3 -23 -19 -28 -34 -6 -16 -19 -32
-29 -35 -10 -3 -29 -26 -43 -51 -13 -24 -30 -47 -36 -49 -7 -3 -17 -20 -24
-40 -6 -19 -20 -38 -30 -41 -10 -3 -21 -16 -24 -28 -3 -12 -31 -49 -62 -82
-30 -33 -63 -72 -73 -87 -10 -15 -29 -37 -44 -48 -15 -12 -27 -28 -27 -35 0
-8 -9 -19 -19 -24 -10 -6 -24 -25 -30 -42 -6 -18 -19 -38 -29 -45 -10 -7 -27
-31 -37 -53 -11 -22 -25 -41 -32 -41 -6 0 -20 -16 -32 -35 -11 -19 -25 -35
-31 -35 -6 0 -17 -15 -25 -32 -7 -18 -23 -41 -34 -50 -12 -10 -21 -24 -21 -31
0 -8 -18 -33 -40 -58 -22 -24 -40 -51 -40 -60 0 -9 -10 -20 -22 -26 -15 -6
-41 -46 -73 -109 -47 -92 -52 -99 -80 -99 -28 0 -30 3 -29 35 3 77 16 179 34
255 11 44 28 120 40 169 11 48 30 106 41 128 16 32 22 73 30 202 6 88 8 182 4
209 -3 26 -10 105 -15 176 -10 135 -36 269 -75 386 -13 39 -41 126 -61 195
-20 68 -45 138 -54 155 -10 17 -25 87 -35 160 -10 72 -23 153 -30 180 -8 28
-21 109 -30 180 -18 148 -29 191 -51 199 -30 11 -72 6 -78 -10z"/>
<path d="M2205 8264 c-21 -33 -60 -163 -69 -234 -4 -30 -18 -98 -31 -150 -13
-52 -29 -151 -35 -220 -6 -69 -18 -168 -27 -220 -8 -52 -19 -117 -23 -145 -19
-120 -33 -370 -34 -620 -1 -326 15 -529 50 -630 14 -38 29 -111 34 -161 5 -54
26 -146 50 -225 22 -74 40 -141 40 -150 0 -23 -26 -42 -48 -35 -28 9 -160 151
-176 191 -8 19 -24 44 -35 57 -12 12 -21 27 -21 34 0 7 -11 25 -24 41 -13 15
-27 43 -31 62 -4 18 -20 47 -36 64 -16 16 -29 36 -29 44 0 7 -11 23 -25 35
-14 12 -25 27 -25 33 0 6 -19 32 -42 58 -56 61 -91 106 -101 130 -4 10 -15 21
-26 24 -10 2 -24 16 -30 29 -6 13 -22 29 -36 36 -14 6 -25 17 -25 24 0 8 -13
23 -30 36 -17 12 -30 27 -30 34 0 7 -11 21 -25 32 -14 11 -25 25 -25 31 0 12
-109 122 -321 326 -63 60 -121 120 -130 132 -14 21 -81 97 -167 189 -17 19
-32 39 -32 45 0 6 -11 20 -25 31 -14 11 -25 24 -25 30 0 5 -27 41 -60 80 -33
38 -67 82 -75 97 -8 16 -21 31 -30 34 -8 4 -15 13 -15 22 0 24 -30 78 -51 93
-11 7 -19 22 -19 33 0 26 -23 69 -49 93 -12 11 -21 27 -21 37 0 10 -9 23 -20
29 -11 6 -27 24 -35 40 -17 32 -40 38 -70 17 -17 -13 -17 -20 -5 -113 18 -147
30 -201 45 -214 8 -7 20 -39 26 -72 7 -33 23 -75 36 -95 13 -19 26 -49 29 -67
11 -65 14 -73 39 -100 14 -15 25 -37 25 -49 0 -12 14 -51 30 -85 17 -35 30
-74 30 -86 0 -12 16 -53 35 -92 19 -38 35 -74 35 -81 0 -6 11 -24 23 -40 13
-15 27 -39 30 -53 4 -14 20 -41 37 -60 17 -19 33 -45 37 -57 3 -13 14 -28 24
-34 11 -5 19 -17 19 -25 0 -21 29 -75 51 -97 11 -10 19 -26 19 -36 0 -10 7
-24 16 -32 9 -7 30 -33 47 -58 17 -25 38 -52 48 -58 9 -7 19 -23 23 -36 3 -13
17 -29 31 -35 14 -6 25 -18 25 -26 0 -16 44 -65 245 -273 66 -69 128 -140 138
-159 9 -19 22 -34 27 -34 5 0 23 -12 39 -27 16 -16 56 -46 87 -68 31 -22 69
-52 83 -67 14 -16 29 -28 34 -28 7 0 45 -31 190 -153 21 -18 48 -37 61 -42 13
-6 32 -17 43 -26 10 -9 32 -21 49 -28 18 -7 44 -26 60 -42 15 -16 32 -29 36
-29 5 0 54 -38 110 -85 123 -103 168 -121 241 -90 22 9 37 23 41 38 3 13 10
120 16 238 6 118 17 236 25 264 7 27 16 93 20 145 14 224 15 231 49 422 24
134 30 615 11 848 -9 102 -20 199 -25 215 -5 17 -14 106 -20 199 -6 98 -19
201 -30 245 -10 42 -26 124 -35 184 -8 60 -24 124 -36 146 -11 22 -22 57 -24
78 -5 52 -24 135 -34 148 -9 10 -24 62 -36 118 -4 19 -12 27 -26 27 -11 0 -22
7 -25 15 -9 23 -40 18 -59 -11z"/>
<path d="M15815 6400 c-4 -11 -17 -28 -31 -36 -13 -9 -24 -22 -24 -28 0 -7
-14 -28 -30 -46 -17 -19 -35 -52 -41 -74 -6 -23 -19 -50 -30 -62 -10 -11 -26
-44 -34 -72 -9 -29 -20 -52 -25 -52 -13 0 -40 -54 -40 -79 0 -11 -8 -26 -19
-33 -21 -15 -51 -69 -51 -93 0 -9 -7 -18 -15 -22 -19 -7 -45 -55 -45 -83 0
-11 -9 -29 -19 -39 -26 -26 -51 -75 -51 -100 0 -11 -6 -24 -13 -28 -15 -10
-37 -57 -37 -81 0 -9 -14 -37 -30 -61 -17 -24 -30 -56 -30 -71 0 -15 -9 -39
-21 -54 -11 -15 -27 -53 -35 -86 -7 -33 -27 -84 -44 -113 -16 -30 -30 -61 -30
-70 0 -9 -8 -22 -18 -29 -21 -16 -42 -61 -42 -91 0 -12 -9 -36 -19 -53 -10
-17 -24 -58 -31 -90 -19 -98 -32 -144 -40 -144 -4 0 -17 -52 -29 -115 -12 -64
-29 -132 -38 -153 -10 -25 -18 -94 -24 -214 -5 -112 -16 -210 -29 -265 -13
-58 -25 -174 -34 -338 -12 -193 -20 -264 -36 -313 -11 -35 -20 -88 -20 -118 0
-62 18 -87 90 -119 37 -17 43 -17 78 -2 20 9 48 19 62 23 14 3 39 16 55 28 17
12 46 28 65 36 19 7 49 21 65 31 17 10 61 25 99 33 37 9 80 23 95 31 29 17
133 53 261 91 47 14 91 31 99 37 8 7 39 25 70 40 93 48 213 108 256 128 22 11
51 25 65 33 14 7 59 30 100 51 41 20 106 58 143 84 38 25 80 54 94 63 14 9 35
26 47 37 12 12 52 41 90 66 80 51 214 163 222 185 3 8 33 36 67 61 34 25 91
79 126 120 35 41 85 97 110 124 49 54 57 64 112 146 20 30 46 63 58 73 11 11
21 24 21 30 0 9 18 39 80 131 15 22 31 51 35 65 4 14 22 45 40 70 18 25 35 55
39 67 4 11 13 24 21 27 8 3 15 11 15 18 0 19 91 200 112 222 10 11 18 26 18
33 0 8 14 41 30 74 32 61 59 167 66 254 4 42 0 55 -21 80 -21 26 -27 28 -42
17 -10 -7 -33 -19 -50 -27 -18 -9 -33 -22 -33 -30 0 -9 -11 -21 -25 -27 -14
-6 -32 -22 -40 -35 -9 -12 -22 -23 -30 -23 -8 0 -24 -13 -36 -29 -11 -15 -43
-45 -70 -66 -27 -20 -52 -48 -55 -62 -4 -13 -17 -29 -30 -33 -14 -6 -24 -18
-24 -29 0 -11 -13 -29 -30 -41 -16 -12 -30 -26 -30 -31 0 -6 -51 -60 -112
-120 -62 -61 -117 -114 -121 -119 -5 -4 -18 -16 -28 -26 -11 -11 -34 -34 -51
-51 -18 -18 -37 -33 -44 -33 -6 0 -19 -11 -28 -25 -9 -14 -22 -25 -30 -25 -7
0 -34 -18 -59 -40 -25 -22 -49 -40 -54 -40 -5 0 -19 -13 -31 -30 -13 -16 -29
-30 -36 -30 -8 0 -21 -11 -30 -25 -9 -14 -23 -25 -31 -25 -8 0 -32 -15 -52
-33 -21 -18 -54 -44 -73 -59 -19 -14 -53 -44 -75 -67 -22 -22 -44 -41 -50 -41
-5 0 -23 -12 -40 -26 -16 -14 -43 -32 -58 -40 -15 -8 -37 -23 -47 -32 -10 -9
-37 -33 -60 -52 -22 -19 -54 -47 -71 -62 -16 -16 -36 -28 -43 -28 -8 0 -27
-14 -43 -31 -15 -17 -39 -37 -53 -44 -14 -8 -43 -33 -65 -56 -97 -103 -191
-189 -206 -189 -8 0 -26 -11 -39 -25 -13 -14 -28 -25 -34 -25 -9 0 -37 -25
-145 -130 -31 -31 -96 -91 -146 -135 -49 -43 -100 -89 -113 -101 -40 -39 -102
-43 -102 -8 0 19 45 98 77 138 13 16 33 46 43 66 19 37 75 104 137 164 32 31
113 174 113 200 0 8 11 38 24 67 12 30 37 104 55 164 18 61 45 135 60 165 49
95 80 228 111 474 16 128 32 275 35 327 4 52 16 146 27 209 10 63 23 149 28
190 5 41 14 97 19 125 5 27 12 73 16 100 3 28 12 73 20 100 8 28 21 111 30
185 9 74 23 161 32 192 19 70 13 146 -13 165 -28 20 -72 16 -79 -7z"/>
<path d="M2851 6101 c-11 -7 -13 -31 -8 -123 9 -188 47 -509 67 -573 10 -33
24 -94 31 -135 6 -41 18 -93 26 -115 8 -22 23 -87 34 -144 11 -57 27 -120 34
-140 8 -20 21 -65 30 -101 9 -36 24 -92 35 -125 10 -33 35 -121 55 -195 20
-74 54 -187 75 -250 22 -63 53 -169 70 -235 17 -66 37 -130 45 -142 8 -12 24
-45 35 -72 11 -28 43 -85 73 -128 102 -151 139 -219 135 -255 -2 -26 -8 -34
-26 -36 -23 -3 -132 46 -132 60 0 9 -68 48 -84 48 -7 0 -21 9 -31 20 -10 11
-22 20 -27 20 -10 0 -65 43 -133 103 -23 20 -46 37 -50 37 -8 0 -45 30 -135
110 -123 109 -174 150 -186 150 -7 0 -16 9 -19 21 -4 11 -20 25 -36 31 -15 5
-31 18 -34 28 -3 11 -16 22 -28 26 -24 7 -63 37 -129 97 -23 20 -47 37 -54 37
-6 0 -25 12 -42 28 -57 50 -100 82 -109 82 -4 0 -26 14 -47 32 -22 18 -51 39
-66 48 -70 40 -96 57 -130 88 -21 17 -43 32 -51 32 -7 0 -25 12 -39 26 -35 36
-110 94 -121 94 -4 0 -24 16 -43 35 -20 19 -41 35 -48 35 -7 0 -24 11 -38 25
-34 34 -90 84 -136 120 -20 17 -66 58 -102 93 -35 34 -68 62 -73 62 -4 0 -22
20 -39 45 -17 25 -37 45 -45 45 -7 0 -16 8 -19 18 -3 10 -19 26 -36 35 -16 10
-30 23 -30 28 0 5 -16 19 -35 30 -19 12 -35 27 -35 35 0 7 -9 18 -21 24 -29
16 -99 85 -99 99 0 6 -13 20 -30 33 -16 12 -30 27 -30 33 0 6 -15 26 -32 44
-18 18 -38 47 -44 65 -9 26 -17 31 -45 34 -53 4 -61 -7 -62 -84 0 -55 5 -79
25 -119 14 -27 29 -64 32 -81 4 -17 18 -46 32 -65 13 -18 24 -42 24 -52 0 -11
16 -54 35 -97 19 -43 35 -84 35 -91 0 -8 11 -32 25 -54 13 -22 25 -47 25 -56
0 -23 94 -212 113 -228 10 -7 17 -19 17 -26 0 -13 34 -58 130 -174 70 -85 98
-125 127 -181 13 -25 34 -61 46 -80 29 -47 275 -332 296 -344 9 -5 27 -19 41
-32 41 -39 93 -80 135 -107 152 -100 194 -128 221 -151 18 -14 35 -26 39 -26
5 0 22 -11 39 -23 33 -26 165 -87 231 -107 22 -7 51 -21 64 -31 13 -11 42 -24
65 -30 22 -6 59 -19 81 -29 22 -11 72 -26 111 -34 40 -9 89 -22 110 -30 22 -9
109 -25 194 -36 242 -32 431 -66 471 -86 14 -7 63 -20 110 -30 46 -9 104 -27
129 -39 60 -30 119 -39 168 -25 37 9 42 15 48 48 11 53 8 66 -21 128 -15 31
-31 86 -37 123 -5 36 -16 80 -23 96 -8 17 -21 66 -30 110 -8 44 -22 100 -30
125 -8 25 -21 104 -29 176 -8 72 -24 157 -35 190 -10 32 -24 82 -30 109 -35
162 -61 312 -70 397 -5 53 -19 118 -30 145 -11 26 -25 75 -31 108 -5 33 -19
72 -30 87 -11 15 -20 36 -20 46 0 27 -30 114 -46 132 -7 9 -18 40 -25 69 -6
29 -20 60 -30 69 -11 10 -24 33 -29 52 -5 19 -23 50 -39 69 -16 19 -32 49 -35
67 -4 17 -14 38 -23 45 -9 8 -25 33 -35 57 -11 24 -26 46 -34 49 -8 3 -14 14
-14 24 0 22 -24 64 -52 92 -10 10 -18 26 -18 36 0 10 -16 35 -35 55 -19 21
-38 48 -41 62 -4 13 -14 29 -24 34 -10 5 -21 23 -25 40 -4 16 -20 42 -35 57
-16 15 -32 40 -35 55 -4 16 -15 33 -26 38 -10 6 -19 18 -19 26 0 22 -30 77
-51 92 -10 7 -19 22 -21 35 -2 18 -10 22 -43 25 -22 1 -46 -2 -54 -7z"/>
<path d="M14740 4799 c-26 -11 -110 -93 -110 -109 0 -10 -65 -90 -105 -130
-14 -14 -25 -31 -25 -37 0 -6 -11 -20 -24 -30 -13 -10 -30 -33 -39 -50 -9 -17
-23 -33 -30 -36 -8 -3 -24 -26 -37 -51 -12 -25 -26 -46 -31 -46 -5 0 -15 -15
-23 -34 -8 -19 -20 -38 -28 -42 -7 -5 -22 -22 -32 -39 -11 -16 -34 -45 -53
-64 -18 -19 -33 -38 -33 -44 0 -5 -11 -18 -25 -29 -14 -11 -25 -26 -25 -33 0
-7 -11 -22 -25 -33 -14 -11 -25 -25 -25 -31 0 -6 -14 -26 -31 -44 -17 -17 -40
-49 -50 -69 -11 -21 -24 -38 -29 -38 -6 0 -16 -12 -23 -27 -6 -15 -32 -48 -56
-73 -24 -25 -54 -62 -67 -82 -13 -21 -28 -38 -32 -38 -4 0 -21 -20 -36 -45
-16 -25 -33 -45 -38 -45 -5 0 -16 -16 -24 -35 -8 -19 -19 -35 -24 -35 -6 0
-16 -12 -22 -27 -7 -16 -27 -46 -45 -67 -18 -22 -33 -45 -33 -52 0 -7 -11 -26
-25 -42 -14 -17 -25 -34 -25 -40 0 -5 -14 -27 -31 -48 -17 -22 -37 -54 -44
-71 -8 -18 -19 -33 -24 -33 -6 0 -18 -15 -27 -32 -9 -18 -27 -45 -40 -60 -12
-15 -25 -41 -29 -58 -4 -16 -15 -36 -24 -42 -10 -7 -25 -26 -34 -43 -8 -16
-27 -43 -41 -60 -14 -16 -26 -38 -26 -47 0 -9 -14 -32 -31 -50 -16 -18 -33
-45 -36 -60 -3 -15 -16 -37 -29 -49 -13 -12 -24 -28 -24 -36 0 -7 -12 -23 -26
-36 -23 -19 -80 -91 -109 -136 -19 -28 -79 -87 -98 -94 -37 -14 -125 -93 -136
-123 -17 -47 -15 -53 42 -77 63 -28 163 -45 317 -52 143 -7 175 -12 220 -34
19 -10 80 -24 135 -30 96 -12 176 -22 315 -41 36 -5 193 -9 349 -10 244 0 294
3 365 19 44 11 125 22 179 26 127 8 198 20 239 39 18 9 66 22 107 31 41 8 88
24 105 34 17 10 55 24 84 30 29 6 75 22 102 36 27 14 55 25 63 25 27 0 282
138 297 160 3 5 41 27 85 50 44 23 97 57 117 76 21 19 43 34 50 34 14 0 80 48
172 125 39 33 100 83 136 110 76 59 169 151 225 226 22 29 65 83 95 121 121
150 130 165 130 209 0 16 -9 38 -20 49 -16 16 -28 19 -67 14 -27 -4 -64 -17
-84 -30 -19 -13 -44 -24 -55 -24 -10 0 -32 -9 -49 -20 -52 -34 -59 -38 -103
-51 -23 -7 -47 -18 -53 -25 -6 -7 -34 -20 -62 -30 -29 -9 -61 -25 -73 -35 -11
-11 -25 -19 -32 -19 -13 0 -85 -32 -92 -41 -9 -12 -82 -39 -104 -39 -12 0 -37
-11 -56 -25 -19 -14 -43 -25 -54 -25 -10 0 -42 -13 -70 -29 -28 -15 -69 -34
-91 -41 -22 -7 -58 -23 -80 -35 -22 -13 -65 -28 -95 -35 -30 -7 -60 -19 -67
-26 -7 -7 -32 -15 -55 -19 -83 -12 -137 -27 -149 -41 -15 -18 -67 -31 -152
-39 -38 -4 -87 -15 -110 -25 -23 -10 -80 -26 -127 -34 -46 -9 -87 -20 -90 -25
-3 -5 -52 -19 -110 -30 -58 -11 -123 -29 -145 -40 -22 -11 -68 -25 -102 -30
-34 -5 -72 -16 -85 -25 -13 -8 -41 -17 -63 -21 -82 -13 -141 -29 -177 -47 -20
-11 -70 -24 -110 -30 -40 -5 -96 -21 -124 -34 -28 -13 -59 -24 -70 -24 -10 0
-45 -11 -77 -24 -86 -36 -182 -59 -211 -52 -14 3 -30 15 -36 26 -9 17 -6 24
13 43 23 20 145 96 227 141 19 10 45 29 57 42 12 13 27 24 32 24 6 0 18 8 28
18 10 11 43 38 73 61 77 59 185 167 228 226 20 28 39 52 42 55 27 25 96 131
131 200 24 47 67 123 96 169 29 47 53 89 53 93 0 10 76 192 94 228 7 14 19 43
26 65 7 22 36 94 65 160 29 66 60 153 69 194 9 40 24 90 32 110 9 20 24 59 34
86 10 28 37 97 59 155 23 58 53 150 67 204 14 55 31 114 39 131 18 44 28 110
20 135 -7 22 -34 25 -75 9z"/>
<path d="M3954 4605 c-14 -10 -16 -21 -11 -59 10 -70 53 -207 102 -322 24 -56
57 -139 73 -185 17 -46 41 -106 55 -134 13 -27 33 -68 42 -90 10 -22 51 -109
92 -194 40 -84 73 -156 73 -160 0 -3 21 -47 47 -96 25 -50 61 -117 78 -150 42
-81 138 -227 193 -295 101 -122 369 -376 457 -433 22 -15 58 -40 80 -57 72
-54 140 -98 178 -114 20 -8 52 -26 69 -40 18 -13 45 -27 60 -31 14 -4 34 -16
44 -26 10 -11 49 -29 88 -41 88 -27 143 -80 105 -104 -44 -27 -203 -21 -265
11 -18 8 -80 20 -139 25 -78 8 -122 17 -161 36 -29 13 -77 27 -106 31 -29 3
-74 16 -100 29 -26 13 -59 24 -74 24 -31 0 -145 28 -159 40 -11 8 -48 17 -110
25 -99 13 -122 18 -155 32 -19 8 -74 21 -122 28 -47 8 -107 23 -132 34 -25 12
-80 26 -123 32 -43 6 -89 17 -103 24 -49 27 -69 34 -111 39 -100 12 -136 19
-162 33 -15 7 -73 22 -130 32 -56 11 -115 26 -132 34 -16 8 -84 20 -150 27
-85 8 -135 18 -170 34 -27 13 -66 26 -86 30 -21 4 -48 15 -60 25 -13 10 -56
26 -96 35 -40 10 -77 24 -84 32 -6 8 -30 19 -53 25 -22 6 -57 21 -76 34 -19
13 -57 29 -85 35 -27 6 -66 22 -85 35 -19 13 -48 27 -65 31 -16 3 -47 18 -67
31 -54 36 -126 48 -151 26 -25 -23 -16 -82 22 -143 16 -25 30 -50 32 -57 4
-13 146 -170 215 -237 92 -90 239 -208 295 -236 21 -11 42 -26 46 -32 7 -12
71 -61 151 -116 18 -13 51 -32 75 -43 55 -26 127 -69 161 -96 15 -12 44 -27
64 -34 20 -6 44 -20 55 -29 10 -10 39 -23 64 -29 25 -7 57 -21 71 -31 15 -11
53 -25 86 -31 32 -6 74 -19 95 -29 20 -10 74 -26 121 -35 47 -8 99 -20 115
-25 31 -10 279 -48 490 -75 126 -16 239 -18 340 -5 39 5 153 16 255 25 215 19
378 41 394 54 6 5 59 16 118 24 58 9 133 27 166 41 33 14 102 32 153 41 52 8
139 25 193 38 91 22 103 27 143 68 24 24 43 50 43 57 0 32 -63 111 -110 136
-26 14 -53 33 -60 41 -7 8 -18 15 -26 15 -7 0 -25 11 -40 25 -15 14 -30 25
-34 25 -10 0 -134 128 -164 170 -14 19 -34 52 -46 73 -11 20 -24 37 -29 37 -4
0 -20 22 -35 50 -15 27 -31 52 -37 55 -5 4 -16 23 -25 43 -8 20 -22 45 -32 55
-17 19 -41 61 -85 152 -14 28 -32 57 -41 64 -9 7 -16 20 -16 28 0 20 -27 70
-51 94 -10 10 -19 27 -19 37 0 15 -26 52 -100 142 -65 79 -89 113 -95 130 -4
11 -10 20 -15 20 -5 0 -16 12 -23 27 -30 56 -396 428 -613 621 -23 21 -60 54
-82 75 -23 20 -46 37 -51 37 -5 0 -11 9 -14 21 -3 11 -15 23 -27 26 -11 3 -27
18 -35 34 -8 15 -24 30 -35 34 -11 3 -20 11 -20 16 0 5 -20 31 -44 57 -144
155 -176 192 -176 200 0 17 -78 31 -96 17z"/>
<path d="M11055 1890 c-27 -5 -114 -9 -192 -9 -174 -1 -389 -24 -463 -50 -30
-10 -89 -22 -130 -25 -83 -8 -140 -20 -185 -41 -17 -8 -74 -18 -128 -24 -68
-7 -114 -18 -152 -35 -29 -14 -65 -26 -78 -26 -31 0 -89 -20 -102 -36 -5 -6
-21 -14 -35 -17 -14 -3 -63 -16 -110 -27 -82 -21 -86 -21 -150 -5 -36 9 -81
20 -100 25 -19 4 -48 14 -64 23 -15 8 -67 20 -115 27 -100 13 -148 23 -211 43
-25 8 -116 22 -203 31 -86 8 -165 19 -175 25 -9 5 -98 14 -197 21 -172 12
-284 25 -424 50 -113 21 -860 -33 -967 -69 -33 -11 -81 -23 -109 -26 -87 -11
-159 -27 -180 -40 -11 -7 -54 -21 -95 -30 -41 -9 -84 -25 -95 -35 -11 -10 -42
-24 -70 -30 -27 -6 -64 -20 -81 -31 -18 -10 -58 -24 -90 -30 -33 -6 -82 -22
-110 -35 -28 -13 -61 -24 -73 -24 -36 0 -115 -23 -129 -37 -13 -13 -27 -17
-93 -28 -21 -3 -48 -13 -60 -23 -13 -10 -57 -28 -96 -40 -40 -13 -73 -27 -73
-32 0 -10 -47 -26 -105 -36 -22 -3 -58 -15 -80 -24 -22 -10 -74 -21 -115 -25
-112 -9 -209 -25 -261 -41 -65 -21 -267 -33 -524 -33 -251 0 -411 11 -453 33
-33 17 -159 31 -196 22 -16 -4 -32 -20 -42 -43 -17 -36 -17 -36 7 -54 13 -10
36 -27 50 -38 15 -12 53 -27 84 -36 32 -8 65 -21 74 -29 9 -8 47 -22 86 -31
38 -8 76 -22 85 -29 14 -12 130 -46 158 -46 6 0 27 -11 46 -24 20 -13 51 -27
71 -30 20 -4 57 -18 82 -32 25 -13 62 -24 83 -24 46 0 152 -19 165 -30 20 -17
133 -38 230 -45 55 -3 180 -13 278 -21 134 -11 191 -12 235 -4 31 6 127 15
212 20 190 13 283 26 352 50 29 10 85 21 123 25 108 10 186 25 209 40 12 7 47
18 78 24 32 6 82 22 111 36 30 14 67 25 84 25 16 0 60 16 99 35 38 19 76 35
84 35 9 0 34 9 55 21 22 11 75 27 119 35 43 8 93 23 110 33 17 11 51 25 76 31
25 7 52 18 60 25 8 7 38 23 67 35 29 12 57 28 63 36 7 7 35 21 63 30 29 9 63
25 77 34 14 10 57 26 95 35 39 10 75 21 80 26 6 4 53 17 105 28 52 10 115 26
140 35 25 9 104 23 175 32 72 8 157 21 190 29 33 8 125 19 205 25 80 6 190 16
245 22 55 6 157 12 227 15 140 5 148 2 134 -53 -5 -18 -20 -31 -54 -46 -26
-11 -54 -26 -62 -33 -8 -7 -38 -20 -67 -29 -28 -10 -57 -24 -63 -32 -7 -7 -18
-14 -25 -14 -13 0 -88 -33 -115 -50 -8 -6 -35 -19 -60 -30 -97 -44 -161 -81
-166 -95 -3 -8 -23 -19 -45 -25 -21 -6 -51 -22 -67 -35 -16 -13 -42 -29 -57
-35 -44 -17 -145 -84 -145 -97 0 -6 -10 -15 -22 -18 -30 -9 -146 -84 -175
-113 -12 -12 -28 -22 -34 -22 -12 0 -100 -64 -145 -105 -12 -11 -34 -31 -50
-45 -16 -13 -49 -41 -74 -63 -25 -21 -63 -52 -84 -70 -36 -30 -152 -135 -238
-217 -59 -56 -98 -111 -98 -137 0 -15 16 -40 43 -67 39 -38 50 -43 103 -49 70
-6 142 4 170 24 19 13 95 97 147 162 12 15 36 44 53 64 17 20 44 50 59 68 66
77 224 229 257 246 12 6 42 32 68 58 25 25 65 59 88 75 23 16 42 33 42 38 0 5
16 16 35 23 19 8 39 24 45 35 6 11 17 20 25 20 8 0 27 11 42 25 51 46 117 95
150 110 17 8 34 19 38 25 4 6 23 17 43 26 20 8 48 26 62 38 14 13 36 27 50 31
14 4 38 17 54 29 17 11 47 30 67 41 110 59 136 75 153 94 11 12 28 21 38 21
11 0 52 16 92 35 40 19 82 35 93 35 11 0 37 12 58 26 77 52 245 57 365 11 36
-14 90 -31 120 -37 30 -7 69 -21 85 -30 17 -10 53 -24 80 -31 28 -6 68 -23 91
-35 22 -13 51 -24 62 -24 12 0 37 -14 55 -31 17 -17 50 -40 72 -51 55 -26 104
-57 150 -96 22 -17 44 -32 50 -32 6 0 16 -9 23 -20 7 -11 21 -20 31 -20 10 0
42 -16 70 -35 28 -19 55 -35 61 -35 6 0 21 -10 33 -23 35 -35 109 -93 145
-111 17 -9 32 -21 32 -26 0 -6 16 -18 35 -27 19 -9 35 -20 35 -24 0 -4 30 -31
68 -61 94 -74 199 -171 490 -450 47 -45 147 -62 202 -33 64 33 86 95 52 147
-23 35 -169 157 -209 174 -17 7 -33 18 -35 23 -8 22 -215 202 -279 242 -39 24
-101 69 -138 100 -36 31 -82 64 -101 73 -19 9 -69 40 -110 70 -41 31 -83 55
-92 56 -10 0 -22 8 -27 18 -6 11 -32 27 -58 37 -26 10 -57 26 -69 36 -11 11
-24 19 -30 19 -5 0 -34 16 -64 35 -30 19 -60 35 -68 35 -8 0 -29 13 -48 29
-18 17 -49 34 -69 40 -19 5 -42 16 -50 25 -9 9 -40 23 -70 31 -29 9 -56 22
-59 30 -3 8 -31 22 -63 31 -32 9 -67 23 -78 30 -11 7 -52 20 -90 28 -93 19
-105 25 -105 46 0 39 24 44 144 32 62 -7 152 -12 199 -12 50 0 120 -8 169 -20
46 -10 129 -26 185 -34 57 -9 116 -22 132 -30 16 -9 88 -24 161 -36 72 -11
135 -22 140 -25 4 -3 55 -14 112 -26 56 -11 117 -29 133 -39 17 -10 62 -24
100 -31 39 -6 86 -20 106 -30 20 -10 75 -25 123 -34 48 -9 102 -24 119 -34 18
-10 59 -24 92 -31 33 -6 69 -18 80 -25 12 -7 50 -20 85 -29 35 -9 78 -25 96
-36 17 -11 58 -25 90 -31 33 -6 74 -19 92 -30 18 -10 68 -26 110 -34 42 -9 94
-23 115 -31 21 -8 87 -19 145 -25 59 -6 139 -17 177 -25 39 -8 99 -20 135 -26
92 -15 629 -15 705 0 72 15 162 27 310 42 65 7 129 20 155 32 28 12 94 25 172
33 76 8 140 21 160 31 18 10 62 23 97 31 35 7 78 22 95 32 17 10 55 24 85 30
29 6 66 20 81 31 15 10 49 24 76 30 27 6 74 24 104 39 30 15 67 31 82 35 31 7
71 58 66 84 -2 11 -23 24 -58 36 -50 16 -64 17 -150 6 -223 -28 -630 -22 -690
10 -10 5 -82 17 -161 26 -79 9 -164 23 -189 31 -25 8 -93 24 -151 36 -58 12
-113 28 -122 35 -9 8 -51 22 -94 33 -42 11 -80 24 -83 29 -7 11 -129 40 -169
40 -13 0 -38 9 -55 19 -17 11 -67 25 -111 32 -44 7 -101 23 -126 36 -26 14
-79 27 -129 34 -45 5 -95 16 -109 24 -32 16 -160 35 -241 35 -62 0 -158 17
-175 30 -17 14 -124 28 -260 35 -71 4 -184 13 -250 21 -129 15 -601 17 -690 4z"/>
</g>
</svg>
