<?xml version="1.0" standalone="no"?>
<!DOCTYPE svg PUBLIC "-//W3C//DTD SVG 20010904//EN"
 "http://www.w3.org/TR/2001/REC-SVG-20010904/DTD/svg10.dtd">
<svg version="1.0" xmlns="http://www.w3.org/2000/svg"
 width="1067.000000pt" height="667.000000pt" viewBox="0 0 1067.000000 667.000000"
 preserveAspectRatio="xMidYMid meet">

<g transform="translate(0.000000,667.000000) scale(0.100000,-0.100000)"
fill="#000000" stroke="none">
<path d="M1210 6620 c-68 -6 -121 -22 -200 -64 -14 -7 -49 -16 -77 -19 -29 -3
-65 -15 -80 -25 -20 -14 -52 -22 -113 -26 -47 -3 -110 -12 -141 -20 -31 -8
-99 -18 -152 -21 -52 -3 -121 -10 -152 -15 -32 -5 -61 -8 -64 -6 -4 3 -42 0
-86 -5 -72 -8 -81 -7 -97 11 -11 11 -25 20 -33 20 -13 0 -15 -40 -15 -275 0
-186 3 -275 11 -275 14 0 39 -63 39 -102 0 -18 11 -64 25 -103 18 -52 25 -91
25 -151 0 -44 7 -103 15 -130 19 -60 65 -371 65 -436 0 -26 11 -96 24 -155 19
-82 26 -149 30 -273 2 -91 11 -203 20 -250 24 -131 53 -564 62 -925 2 -115 7
-286 9 -380 2 -93 8 -195 12 -225 7 -50 10 -55 33 -55 22 0 25 5 28 37 3 33
-1 39 -28 53 -29 15 -31 19 -28 68 l3 52 81 3 c71 2 84 6 104 27 19 20 33 25
71 25 36 0 50 5 60 21 13 18 25 20 119 22 93 2 109 5 134 25 22 17 42 22 85
22 44 0 59 4 68 19 12 20 80 34 148 31 22 0 114 -2 203 -3 155 -2 165 -3 181
-24 15 -18 32 -22 107 -27 112 -7 139 -7 242 0 67 4 84 9 92 25 14 25 37 24
52 -1 10 -16 24 -20 63 -20 41 0 53 -4 70 -26 l20 -26 28 26 27 25 389 1 389
1 30 -26 30 -25 449 0 c437 0 448 0 461 -20 9 -16 23 -20 60 -20 39 0 53 -5
72 -25 21 -22 32 -25 92 -25 61 0 69 2 84 25 16 24 20 25 121 25 99 0 107 2
136 26 l31 26 23 -26 c25 -29 77 -36 87 -11 3 8 14 15 25 15 10 0 21 -7 25
-15 4 -13 34 -15 183 -15 98 0 192 -4 208 -8 38 -10 655 13 715 27 117 27 140
29 211 24 74 -6 78 -5 100 21 20 24 29 26 95 26 64 0 73 -2 87 -24 15 -23 17
-23 199 -22 174 1 185 2 212 24 26 20 40 22 136 22 104 0 108 -1 124 -25 28
-42 86 -28 86 21 0 41 19 46 192 44 90 -1 269 -1 398 0 212 1 237 3 265 20 28
17 54 20 225 22 189 2 193 2 208 -20 12 -18 24 -22 71 -22 38 0 66 -6 89 -20
27 -17 50 -20 145 -20 109 0 114 -1 138 -26 21 -22 30 -25 68 -21 25 3 64 -1
87 -8 23 -7 54 -10 69 -8 15 3 33 -1 43 -9 12 -11 50 -17 124 -21 75 -4 114
-11 132 -23 23 -14 59 -16 274 -16 l247 0 26 -24 c22 -21 28 -22 37 -11 14 16
-10 98 -34 118 -9 7 -14 30 -14 61 0 34 -6 59 -20 77 -28 40 -70 176 -70 228
0 50 -14 83 -35 83 -17 0 -20 -26 -5 -35 40 -24 -38 -91 -92 -80 -35 8 -128
14 -359 23 -143 6 -180 10 -195 23 -13 12 -43 18 -96 21 -53 2 -82 8 -95 20
-10 9 -34 17 -53 17 -93 1 -166 14 -185 31 -18 17 -44 19 -252 22 -226 3 -232
4 -264 27 -30 23 -37 24 -140 18 -69 -3 -118 -11 -138 -21 -27 -14 -113 -17
-678 -23 -578 -5 -650 -7 -667 -22 -15 -14 -53 -16 -249 -19 -220 -3 -232 -2
-258 17 -40 30 -167 30 -194 1 -17 -19 -31 -20 -312 -20 -198 0 -301 -4 -315
-11 -33 -17 -407 -47 -452 -35 -21 5 -26 12 -26 38 0 17 -10 47 -22 66 -20 33
-22 47 -20 210 1 148 4 177 18 193 25 28 52 33 80 14 20 -13 50 -16 140 -16
63 0 119 3 125 6 12 8 91 14 299 21 140 6 169 9 189 25 22 18 49 19 487 19
l462 0 31 26 31 26 383 -4 c377 -3 382 -3 412 -25 l30 -23 552 0 c520 -1 553
-2 575 -20 20 -15 46 -19 168 -22 130 -3 149 -5 182 -26 34 -21 46 -22 162
-20 116 3 126 1 148 -19 21 -20 36 -22 198 -28 96 -3 191 -6 211 -6 29 0 44
-8 75 -39 52 -53 69 -53 60 2 -4 23 -16 56 -27 74 -26 43 -30 248 -5 286 19
29 33 208 17 208 -7 0 -11 -23 -11 -54 0 -62 -5 -66 -84 -66 -40 0 -57 5 -70
19 -16 18 -35 20 -210 23 -181 3 -193 4 -220 26 -22 17 -42 22 -88 22 -39 0
-72 7 -98 20 -25 13 -59 20 -95 20 -31 0 -83 9 -118 22 -60 21 -77 21 -602 23
-525 2 -541 2 -573 -18 -28 -16 -45 -19 -100 -14 -37 3 -85 13 -107 23 -31 13
-57 15 -120 11 -44 -4 -174 -1 -290 4 -115 6 -229 12 -251 13 -23 1 -49 8 -58
15 -22 18 -198 7 -259 -16 -36 -14 -89 -16 -367 -15 -272 2 -330 0 -354 -13
-37 -20 -133 -35 -221 -35 -53 0 -77 -5 -100 -20 -28 -19 -47 -20 -312 -20
-201 0 -284 3 -289 11 -4 7 -6 47 -6 90 2 69 -1 81 -23 107 -24 28 -25 36 -25
151 0 99 -3 123 -15 127 -22 9 -18 29 11 61 l26 28 276 -3 c252 -4 280 -6 308
-23 42 -25 63 -24 104 6 33 24 38 25 206 25 144 0 183 -3 236 -20 78 -25 160
-26 194 -3 18 11 55 18 113 21 70 4 89 8 99 24 13 18 39 18 682 18 632 -1 670
-2 692 -19 17 -14 45 -20 110 -22 71 -3 90 -8 110 -25 13 -12 43 -25 68 -29
65 -10 283 -10 522 0 194 8 208 7 235 -11 24 -16 53 -20 203 -24 149 -4 179
-8 203 -24 27 -18 51 -21 275 -28 65 -2 86 -6 99 -20 21 -23 38 -23 73 2 22
16 47 20 136 22 l109 3 6 165 c4 91 11 181 18 200 6 19 11 43 11 53 0 28 -33
17 -40 -13 -8 -35 -44 -50 -126 -50 -57 0 -74 4 -88 19 -14 15 -36 20 -104 24
-129 8 -150 12 -171 31 -14 13 -36 16 -99 15 -65 -1 -87 2 -109 17 -26 18 -60
19 -453 25 -234 4 -432 7 -440 7 -8 1 -107 -2 -219 -4 l-203 -6 -29 28 c-27
26 -31 27 -108 20 -74 -6 -81 -5 -108 18 -24 20 -41 24 -115 27 -61 3 -91 9
-104 20 -20 17 -143 34 -220 31 -30 -1 -46 3 -59 18 -17 19 -31 20 -223 20
-203 0 -205 0 -227 -24 -21 -23 -28 -24 -130 -22 -77 1 -116 -3 -134 -12 -14
-8 -37 -17 -51 -20 -14 -3 -225 -8 -470 -11 -415 -6 -448 -7 -475 -25 -26 -17
-51 -19 -302 -19 -266 0 -274 0 -296 21 -13 12 -34 22 -47 22 -16 0 -37 14
-57 37 -30 34 -33 42 -33 104 0 61 -2 68 -26 84 -26 17 -26 20 -21 86 6 65 5
70 -19 85 -21 14 -24 24 -24 75 0 54 2 59 24 65 30 7 63 -2 95 -27 23 -18 55
-19 673 -19 l650 0 30 25 c28 24 34 25 109 19 61 -5 83 -4 101 8 41 27 89 31
417 35 l323 4 23 -25 c19 -21 29 -24 63 -19 35 5 44 2 65 -21 22 -23 32 -26
94 -26 61 0 72 -3 93 -25 22 -23 30 -25 86 -21 56 3 65 1 85 -20 l22 -24 272
0 c264 0 274 1 343 25 39 14 91 25 115 25 31 0 49 6 62 20 17 19 31 20 215 20
179 0 198 -2 214 -19 12 -13 36 -20 88 -24 52 -4 77 -12 93 -27 20 -18 34 -20
177 -20 140 0 157 -2 172 -19 10 -11 38 -22 67 -26 27 -4 59 -15 71 -24 14
-11 51 -21 93 -25 38 -4 77 -14 86 -22 12 -10 44 -14 130 -14 l115 0 35 -36
34 -35 2 -114 c1 -120 9 -163 24 -148 20 20 37 570 19 603 -6 11 -31 30 -55
41 -24 11 -56 33 -72 47 -27 26 -58 46 -113 73 -14 7 -33 19 -43 28 -12 10
-56 16 -155 21 -119 5 -142 9 -175 30 -35 20 -52 23 -175 25 -141 2 -280 28
-326 61 -14 10 -49 14 -116 14 -64 0 -121 7 -171 20 -93 25 -106 25 -176 0
-32 -11 -77 -20 -101 -20 -26 0 -58 -8 -76 -19 -47 -29 -248 -48 -349 -33 -43
7 -131 12 -195 12 -99 0 -122 3 -150 20 -18 11 -50 20 -73 20 -23 0 -61 11
-89 25 -44 22 -62 25 -158 25 -113 0 -203 22 -293 70 -20 11 -54 20 -75 20
-22 0 -57 5 -78 10 -24 5 -125 5 -260 -2 -197 -9 -227 -13 -278 -34 -32 -13
-68 -24 -80 -24 -13 0 -56 -9 -96 -20 -39 -11 -90 -20 -113 -20 -25 0 -57 -9
-84 -26 l-44 -25 -214 3 c-172 2 -218 6 -232 18 -13 11 -46 15 -119 17 -132 2
-244 16 -283 37 -18 9 -39 16 -48 16 -9 0 -35 10 -58 21 -41 22 -41 22 -134 3
l-93 -18 -52 22 c-30 12 -71 22 -92 22 -21 0 -53 9 -70 19 -17 10 -51 22 -76
26 -25 4 -57 14 -72 21 -15 8 -50 14 -77 14 -28 0 -77 9 -108 19 -61 21 -212
42 -241 34 -18 -4 -182 46 -233 72 -45 24 -263 21 -309 -4 -81 -43 -134 -50
-424 -55 -163 -3 -319 -1 -375 5 -53 5 -259 14 -458 18 -313 7 -366 11 -388
25 -37 24 -200 37 -335 26z m1394 -438 c63 7 81 -13 42 -49 -25 -23 -27 -29
-21 -78 9 -67 -5 -95 -45 -95 -19 0 -34 7 -42 20 -16 26 -34 25 -48 -1 -9 -16
-19 -19 -48 -17 l-37 3 -3 74 c-3 67 -1 77 20 96 13 12 38 39 57 60 l34 38 23
-28 c20 -25 27 -27 68 -23z m-669 -46 c38 -41 47 -45 96 -48 l54 -3 3 -37 c2
-29 -1 -39 -17 -48 -18 -9 -21 -20 -21 -80 0 -100 -35 -128 -92 -73 l-28 27
-30 -23 c-23 -16 -42 -21 -73 -19 -41 3 -42 4 -45 43 -4 68 -11 82 -47 104
-38 22 -57 57 -48 89 4 18 14 22 66 24 53 3 62 6 65 23 9 61 12 65 44 65 24 0
41 -10 73 -44z m1174 30 c6 -7 9 -21 5 -30 -9 -22 13 -46 43 -46 27 0 93 -58
93 -83 0 -9 -10 -25 -22 -36 -11 -11 -24 -37 -27 -58 l-6 -38 -105 0 -105 0
-3 30 c-2 17 -14 40 -28 53 -18 17 -24 33 -24 65 0 54 8 65 50 69 26 2 36 8
38 23 9 61 12 65 46 65 18 0 39 -6 45 -14z m-1654 -439 c41 -42 53 -62 58 -96
5 -38 2 -46 -31 -82 -25 -27 -44 -39 -64 -39 -17 0 -31 -7 -38 -20 -9 -17 -21
-20 -69 -20 -71 0 -80 13 -44 63 30 42 25 67 -14 67 -33 1 -93 51 -93 78 0 34
32 52 88 49 44 -2 55 2 79 26 41 41 68 35 128 -26z m2191 -12 c21 -32 66 -34
86 -3 9 14 20 19 31 15 13 -5 17 -20 17 -69 0 -82 -11 -100 -42 -72 -13 12
-29 19 -35 17 -20 -7 -15 -33 9 -52 17 -14 22 -29 22 -67 1 -57 -18 -68 -60
-35 -17 13 -41 21 -65 21 -28 0 -42 6 -51 20 -7 11 -24 20 -38 20 -37 0 -48
11 -52 50 -2 26 -8 36 -23 38 -64 9 -66 11 -63 50 l3 37 57 3 c47 2 59 7 72
27 14 21 24 25 66 25 42 0 52 -4 66 -25z m-2498 -477 c7 -7 12 -24 12 -40 0
-17 7 -31 20 -38 18 -10 20 -21 20 -115 0 -97 -1 -105 -19 -105 -11 0 -23 9
-26 20 -8 26 -31 26 -45 -1 -9 -16 -19 -19 -48 -17 l-37 3 -3 57 c-2 45 -7 60
-22 68 -38 20 -26 65 33 125 53 54 90 68 115 43z m2697 -52 c12 -9 21 -31 24
-62 7 -56 29 -68 64 -36 34 30 44 33 60 18 20 -21 11 -106 -14 -126 -13 -11
-19 -31 -21 -70 l-3 -55 -40 -3 c-70 -4 -85 -11 -102 -48 -18 -36 -42 -48 -89
-42 -27 3 -29 6 -32 52 -3 39 1 53 19 72 l22 24 -21 23 c-33 35 -31 112 3 143
19 18 25 33 25 67 0 24 3 47 7 50 12 12 79 7 98 -7z m-2645 -586 c6 -11 19
-20 29 -20 10 0 26 9 36 20 37 40 115 10 115 -45 0 -25 -16 -45 -64 -78 -15
-10 -26 -28 -26 -40 0 -13 -14 -33 -35 -50 -33 -27 -39 -28 -132 -25 l-98 3
-3 97 -3 96 33 31 c28 26 41 31 85 31 42 0 54 -4 63 -20z m2580 -158 c0 -19 8
-35 21 -44 17 -11 22 -24 22 -60 0 -25 -3 -50 -7 -57 -4 -6 -30 -11 -58 -11
-45 0 -54 4 -84 36 -38 40 -41 62 -15 119 10 22 21 53 25 70 4 16 13 33 19 37
19 11 77 -57 77 -90z m-2279 -322 c5 -8 13 -27 19 -42 9 -26 14 -28 59 -28 39
0 53 -4 61 -19 16 -31 12 -49 -15 -73 -20 -17 -25 -31 -25 -68 0 -58 -12 -70
-70 -70 -35 0 -52 -5 -65 -20 -13 -14 -29 -20 -49 -18 l-31 3 -5 80 c-5 86 -1
81 -77 101 -17 4 -17 59 0 72 7 6 35 12 62 14 47 3 50 5 53 33 2 17 9 36 15
43 13 17 57 12 68 -8z m1914 -172 c52 -49 55 -55 55 -99 0 -41 -5 -52 -32 -78
-18 -17 -43 -31 -56 -31 -12 0 -32 -11 -44 -25 -24 -28 -69 -33 -87 -11 -7 8
-9 30 -6 52 3 22 2 44 -2 49 -17 21 -73 55 -91 55 -25 0 -46 25 -39 45 9 21
54 30 84 16 23 -11 28 -8 66 34 57 61 81 60 152 -7z m-1292 -236 c12 -10 30
-22 40 -25 14 -5 17 -19 17 -80 0 -43 -5 -78 -12 -85 -7 -7 -32 -12 -57 -12
-41 0 -51 -5 -90 -45 -45 -45 -76 -56 -99 -33 -21 21 -14 66 13 84 44 29 30
84 -21 84 -39 0 -59 27 -50 66 5 19 13 24 39 24 24 0 40 8 56 26 21 25 28 26
83 21 39 -3 67 -12 81 -25z m677 3 c13 -14 34 -25 48 -25 26 0 82 -50 82 -73
0 -8 -9 -17 -20 -20 -14 -4 -20 -14 -20 -33 0 -18 -11 -40 -32 -61 -31 -32
-35 -33 -110 -33 -70 0 -78 2 -78 19 0 10 9 21 20 24 25 6 26 35 3 44 -26 9
-33 23 -33 65 0 28 8 46 37 77 42 48 69 52 103 16z"/>
<path d="M9741 4691 c-6 -11 -7 -38 -2 -70 9 -55 18 -73 25 -50 10 28 22 115
18 127 -6 18 -30 14 -41 -7z"/>
<path d="M10016 2741 c-3 -4 3 -16 14 -26 11 -10 20 -28 20 -41 0 -27 19 -42
30 -23 10 15 2 68 -13 87 -11 14 -43 16 -51 3z"/>
<path d="M1726 2691 c-16 -17 -37 -20 -194 -25 -97 -2 -186 -5 -197 -6 -11 0
-41 -19 -67 -40 l-47 -40 -153 0 c-149 0 -155 -1 -188 -25 -19 -14 -41 -25
-50 -25 -9 0 -25 -9 -35 -20 -17 -19 -31 -20 -221 -20 -131 0 -205 -4 -209
-10 -8 -14 -8 -517 0 -530 11 -17 22 -11 35 20 15 35 25 38 42 10 16 -25 39
-25 80 0 25 15 51 20 104 20 56 0 77 4 96 20 14 10 45 22 69 26 25 4 50 15 57
26 8 11 25 18 46 18 19 0 46 10 66 25 29 21 41 24 81 19 43 -6 48 -4 64 20 15
23 24 26 70 26 39 0 56 5 70 20 16 17 31 20 114 20 85 0 98 -2 109 -20 18 -29
114 -29 133 0 14 21 21 21 669 22 654 1 865 -4 928 -24 26 -8 46 -6 85 6 37
11 61 14 83 7 19 -5 37 -5 48 1 10 6 82 10 160 10 121 0 145 3 172 19 38 23
57 24 90 2 16 -10 51 -17 94 -19 53 -2 76 -7 96 -23 23 -18 41 -21 119 -21 79
0 94 -3 110 -20 23 -25 52 -25 90 0 42 28 111 27 143 -2 23 -22 32 -23 180
-23 146 0 160 -2 192 -22 30 -20 49 -23 126 -23 76 0 96 -3 117 -20 25 -20 40
-20 1045 -20 1006 0 1019 0 1037 20 17 19 31 20 195 20 169 0 179 1 206 22 26
21 37 23 144 20 110 -3 116 -2 149 22 30 22 45 26 108 26 51 0 93 7 136 22 59
22 76 23 331 21 256 -1 270 -2 297 -22 21 -16 43 -21 90 -21 51 0 66 -4 91
-25 27 -23 35 -25 93 -19 57 6 70 4 114 -20 28 -14 67 -26 88 -26 23 0 45 -7
58 -20 21 -20 33 -21 539 -21 284 0 521 3 526 6 17 10 11 40 -15 75 -14 19
-25 41 -25 49 0 9 -6 26 -13 38 -62 110 -77 139 -77 154 0 10 -4 20 -9 23 -12
8 -61 112 -76 160 -17 58 -32 55 -42 -6 l-8 -53 -125 2 c-69 1 -138 2 -155 3
-38 2 -111 -14 -151 -34 -19 -10 -65 -17 -119 -19 -82 -3 -89 -2 -108 20 -19
22 -27 23 -138 23 -105 0 -119 2 -128 19 -9 16 -27 19 -146 23 -121 5 -139 8
-159 27 -20 19 -34 21 -143 21 -108 0 -122 2 -134 19 -13 18 -35 21 -254 31
-169 8 -249 8 -269 1 -15 -6 -71 -11 -125 -11 -85 0 -100 -3 -116 -20 -17 -19
-31 -20 -218 -20 -190 0 -202 -1 -223 -21 -17 -16 -26 -18 -41 -11 -13 7 -25
7 -38 -1 -13 -8 -112 -14 -285 -18 -296 -8 -358 -12 -388 -28 -12 -6 -71 -11
-136 -11 -105 0 -117 -2 -128 -20 -10 -16 -24 -20 -68 -20 -44 0 -58 4 -68 20
-11 18 -23 20 -127 20 -103 0 -117 2 -132 20 -13 15 -30 20 -65 20 -39 0 -52
5 -70 25 -28 33 -68 33 -97 -1 l-22 -25 -522 3 -523 3 -28 23 c-28 21 -36 22
-229 22 -193 0 -202 1 -224 22 -19 18 -37 22 -95 24 -59 2 -74 6 -87 23 -16
20 -21 21 -568 21 -531 1 -552 2 -576 20 -23 18 -42 20 -196 20 -158 0 -174
-2 -200 -21 -26 -19 -38 -20 -338 -17 -279 3 -313 5 -330 21 -25 22 -46 22
-67 -2z"/>
<path d="M10362 1978 c7 -19 38 -22 38 -4 0 10 -9 16 -21 16 -12 0 -19 -5 -17
-12z"/>
<path d="M10416 1923 c-12 -12 -6 -43 9 -43 8 0 15 9 15 19 0 21 -13 34 -24
24z"/>
<path d="M10456 1814 c-13 -33 -6 -62 19 -78 17 -11 25 -26 25 -46 0 -20 5
-30 15 -30 19 0 20 47 2 69 -8 9 -19 35 -26 59 -12 44 -25 53 -35 26z"/>
<path d="M1551 1756 c-23 -24 -30 -26 -120 -26 -79 0 -101 -4 -126 -20 -19
-13 -47 -20 -76 -20 -36 0 -51 -5 -69 -25 -21 -22 -29 -24 -70 -19 -42 6 -48
4 -63 -20 -16 -24 -23 -26 -91 -26 -68 0 -75 -2 -90 -25 -14 -22 -22 -24 -54
-19 -29 4 -45 0 -75 -20 -36 -25 -45 -26 -165 -26 -86 0 -132 4 -140 12 -7 7
-12 36 -12 64 0 51 -13 75 -30 58 -5 -5 -10 -145 -12 -312 -3 -282 -2 -302 14
-302 10 0 23 9 30 20 10 16 24 20 71 20 44 0 65 5 84 20 19 14 41 20 80 20 40
0 71 8 119 31 56 27 71 30 117 25 46 -6 56 -4 72 14 16 17 30 20 110 20 75 0
97 4 116 18 17 13 49 21 108 25 66 5 88 11 103 27 16 17 31 20 116 20 66 0
104 4 117 14 11 7 33 16 49 20 15 4 251 7 523 7 480 0 495 -1 527 -21 33 -20
45 -20 857 -20 l824 0 40 -25 c26 -16 55 -24 84 -25 27 0 52 -7 63 -17 15 -14
22 -14 41 -4 21 11 29 9 69 -18 25 -17 54 -31 64 -31 11 0 50 -14 89 -30 61
-26 81 -30 167 -30 54 0 106 -4 116 -9 46 -23 98 -31 207 -31 126 0 238 -15
270 -37 12 -8 50 -13 101 -13 61 0 93 -5 129 -21 46 -20 50 -20 76 -5 24 14
72 18 296 22 244 6 270 8 295 26 23 16 51 20 153 25 104 5 127 9 141 25 10 10
31 18 49 18 18 0 38 7 46 16 8 10 22 14 41 10 15 -3 42 1 60 8 22 9 100 15
235 19 164 4 207 8 228 21 14 10 45 16 77 16 40 0 57 5 75 22 18 17 39 23 91
26 44 3 76 11 94 23 22 16 45 19 133 19 91 0 113 3 141 20 31 20 44 21 376 17
228 -3 360 -8 393 -16 28 -7 91 -16 140 -19 61 -5 98 -13 115 -24 13 -10 36
-18 51 -18 14 0 47 -11 73 -25 26 -14 62 -25 80 -25 18 0 45 -9 59 -20 18 -14
40 -20 79 -20 45 0 59 -4 78 -25 l23 -25 277 0 c258 0 279 -1 302 -19 21 -17
44 -20 165 -23 131 -3 143 -5 165 -25 14 -13 37 -23 52 -23 16 0 43 -13 66
-32 31 -26 36 -36 29 -51 -11 -19 -3 -57 11 -57 15 0 28 34 20 54 -4 11 0 32
8 49 15 30 14 63 -7 272 -9 93 -48 325 -55 333 -12 12 -26 -14 -26 -47 0 -21
-5 -52 -11 -70 -13 -36 -43 -41 -100 -17 -26 11 -85 14 -238 14 -192 0 -204 1
-225 21 -20 19 -35 21 -135 21 -99 0 -117 3 -143 21 -17 12 -49 23 -72 25 -27
2 -47 10 -58 23 -14 19 -27 21 -116 21 -86 0 -103 3 -126 21 -24 19 -42 22
-159 24 -96 2 -144 8 -177 20 -34 13 -86 19 -210 22 -139 4 -170 8 -198 24
-43 25 -202 28 -222 4 -16 -19 -106 -19 -140 0 -16 9 -56 14 -112 15 -77 0
-89 -2 -98 -20 -10 -18 -21 -20 -128 -20 -111 0 -120 -2 -152 -25 -32 -23 -40
-25 -106 -19 -67 6 -72 5 -95 -19 -24 -25 -27 -25 -201 -29 -149 -3 -180 -7
-196 -21 -15 -13 -38 -17 -109 -17 -80 0 -94 -3 -127 -25 -29 -20 -49 -25 -96
-25 -49 0 -63 -4 -84 -25 -23 -23 -29 -24 -108 -18 -71 4 -91 2 -138 -17 -51
-21 -75 -23 -325 -28 l-271 -5 -49 27 c-42 22 -63 26 -127 26 -67 0 -79 3 -88
20 -10 18 -21 20 -122 20 -98 0 -117 3 -164 25 -39 19 -66 24 -107 22 -42 -1
-60 2 -76 17 -18 17 -41 19 -212 22 -184 3 -192 4 -216 26 -21 20 -35 23 -106
24 -57 0 -102 7 -146 22 -48 17 -88 22 -159 22 -80 0 -100 3 -130 22 l-35 22
-626 -2 -626 -1 -26 25 -26 25 -334 -5 c-184 -2 -343 -5 -354 -5 -11 -1 -141
2 -290 5 l-270 6 -24 -26z"/>
<path d="M1457 870 c-14 -11 -46 -23 -71 -26 -25 -4 -53 -15 -62 -25 -14 -16
-32 -19 -104 -19 -74 0 -90 -3 -105 -20 -10 -11 -31 -20 -46 -20 -15 0 -41
-11 -57 -25 -26 -22 -39 -25 -105 -25 -61 0 -79 -4 -102 -22 -16 -12 -47 -23
-76 -26 -30 -3 -55 -12 -65 -23 -12 -14 -31 -19 -66 -19 -29 0 -63 -8 -85 -20
-21 -11 -52 -20 -70 -20 -22 0 -36 6 -43 20 -6 11 -17 20 -25 20 -8 0 -20 9
-28 21 -13 18 -16 1 -22 -163 -10 -271 -10 -352 -2 -366 12 -18 87 -15 108 4
10 9 39 20 65 25 26 5 55 16 65 25 12 11 41 17 86 19 38 2 86 11 108 20 22 10
56 21 75 25 107 24 199 40 225 40 17 0 49 10 70 22 30 16 66 23 145 28 58 4
121 14 140 22 51 23 129 36 370 65 290 34 394 38 505 19 50 -8 128 -20 175
-27 93 -13 196 -43 221 -65 8 -8 33 -14 53 -14 26 0 48 -8 67 -24 56 -47 282
-47 368 0 28 16 60 24 90 24 26 0 62 8 81 18 86 46 291 66 595 59 229 -5 316
-19 378 -60 14 -9 44 -17 66 -17 28 0 48 -8 69 -25 17 -14 38 -25 48 -25 11 0
30 -9 44 -20 14 -11 32 -20 41 -20 8 0 26 -11 39 -25 14 -15 35 -25 51 -25 15
0 30 -4 34 -9 3 -6 27 -25 53 -42 45 -31 51 -33 130 -30 55 1 96 8 125 21 23
11 53 20 67 20 14 0 84 10 156 21 129 21 133 21 230 4 55 -10 131 -21 169 -25
39 -4 87 -15 107 -24 26 -11 67 -16 132 -16 83 0 101 -3 143 -26 47 -25 51
-26 213 -22 136 4 176 8 227 26 44 16 86 22 143 22 50 0 91 5 108 14 15 8 45
18 66 22 22 4 54 17 72 29 27 18 49 23 105 24 39 0 101 8 137 16 37 9 108 20
157 26 50 5 115 14 145 19 30 6 76 13 102 16 31 4 54 15 69 30 19 21 32 24 88
24 50 0 72 5 91 20 14 11 32 20 40 20 8 0 32 6 55 14 22 8 74 20 115 26 41 7
103 21 138 31 57 18 96 20 398 20 319 0 336 -1 381 -21 27 -12 71 -24 98 -27
28 -3 66 -14 85 -25 19 -10 41 -18 48 -18 7 0 30 -9 52 -20 22 -11 57 -20 78
-20 28 0 47 -7 66 -25 17 -16 39 -25 59 -25 18 0 46 -9 62 -20 17 -11 38 -20
48 -20 10 0 38 -12 63 -26 31 -18 52 -24 71 -20 21 5 37 0 63 -19 18 -14 43
-25 55 -25 11 0 37 -9 58 -20 25 -14 56 -20 99 -20 35 0 101 -6 148 -14 87
-14 190 -26 414 -47 77 -8 134 -18 141 -26 18 -18 52 -16 59 2 3 8 12 15 21
15 24 0 18 46 -9 73 -14 14 -27 40 -30 58 -3 19 -12 76 -21 127 -8 51 -15 154
-15 232 0 132 -1 140 -19 140 -26 0 -33 -26 -30 -118 2 -43 0 -83 -5 -90 -5
-8 -34 -12 -85 -12 -67 0 -82 3 -111 25 -26 19 -46 25 -85 25 -39 0 -56 5 -70
20 -16 18 -31 20 -130 20 -106 0 -114 1 -139 25 -23 21 -37 25 -90 25 -48 0
-69 5 -89 20 -16 13 -40 20 -69 20 -24 0 -52 6 -63 13 -24 17 -74 29 -139 33
-32 2 -56 10 -70 23 -18 17 -35 21 -94 21 -56 0 -74 4 -84 18 -33 43 -79 64
-158 71 -53 4 -85 12 -98 24 -10 9 -23 17 -29 17 -6 0 -23 10 -39 22 -28 23
-32 23 -402 26 -278 3 -377 0 -388 -9 -11 -9 -21 -9 -45 1 -27 11 -33 11 -59
-8 -16 -12 -48 -25 -72 -28 -24 -4 -61 -15 -83 -25 -29 -13 -65 -19 -126 -19
-73 0 -89 -3 -104 -20 -10 -11 -27 -22 -39 -26 -11 -3 -29 -14 -40 -23 -14
-12 -52 -18 -175 -23 -86 -4 -179 -9 -207 -10 -28 -2 -59 -9 -68 -17 -12 -10
-48 -14 -126 -15 -98 -1 -111 -3 -132 -24 -17 -15 -37 -22 -64 -22 -22 0 -44
-4 -49 -8 -19 -16 -93 -32 -152 -32 -47 0 -66 -5 -93 -25 l-34 -25 -387 0
c-381 0 -387 0 -414 22 -34 26 -32 26 -486 28 l-366 1 -43 42 c-37 35 -48 40
-83 38 -31 -1 -46 4 -66 23 -22 20 -39 25 -111 30 -47 3 -96 6 -109 6 -14 0
-45 17 -71 39 l-46 39 -145 4 c-129 3 -148 6 -181 27 -28 17 -45 21 -68 16
-30 -7 -92 4 -179 31 -58 18 -171 18 -213 0 -18 -8 -53 -19 -78 -26 -25 -7
-65 -20 -90 -30 -25 -10 -78 -21 -118 -24 -40 -4 -83 -12 -95 -20 -12 -8 -37
-17 -56 -21 -18 -4 -52 -16 -75 -26 -52 -24 -110 -24 -134 -1 -60 57 -84 67
-187 73 -55 4 -129 13 -165 22 -36 8 -107 19 -158 23 -67 5 -99 12 -116 25
-23 18 -47 19 -364 19 -325 0 -340 -1 -365 -20z"/>
</g>
</svg>
