<?xml version="1.0" standalone="no"?>
<!DOCTYPE svg PUBLIC "-//W3C//DTD SVG 20010904//EN"
 "http://www.w3.org/TR/2001/REC-SVG-20010904/DTD/svg10.dtd">
<svg version="1.0" xmlns="http://www.w3.org/2000/svg"
 width="429.000000pt" height="247.000000pt" viewBox="0 0 429.000000 247.000000"
 preserveAspectRatio="xMidYMid meet">

<g transform="translate(0.000000,247.000000) scale(0.100000,-0.100000)"
fill="#000000" stroke="none">
<path d="M3595 2447 c-94 -25 -168 -74 -198 -133 -25 -48 -35 -101 -52 -262
-25 -244 -38 -260 -181 -218 -104 31 -175 33 -374 11 -162 -17 -199 -24 -373
-69 -167 -43 -242 -51 -697 -76 -202 -11 -409 -24 -460 -30 -373 -42 -750
-141 -1120 -293 -146 -60 -136 -70 31 -32 351 81 525 109 772 127 445 32 910
-70 1296 -285 126 -70 181 -111 181 -133 0 -18 -146 -257 -191 -316 -16 -20
-41 -62 -55 -93 -23 -50 -25 -65 -21 -143 6 -107 23 -216 45 -289 26 -83 47
-95 182 -102 l111 -6 32 -37 c46 -54 105 -71 226 -66 54 2 111 10 130 19 l33
14 -51 50 c-27 28 -66 65 -86 82 -30 27 -36 38 -33 65 3 31 5 33 51 38 l49 5
-24 35 c-29 43 -65 49 -135 21 -27 -10 -55 -16 -61 -12 -35 21 -44 163 -14
221 10 19 61 92 114 162 101 131 135 190 183 317 43 108 50 111 176 60 126
-50 143 -63 135 -103 -7 -34 -33 -66 -54 -66 -7 0 -27 9 -42 20 l-28 20 5 -22
c3 -13 2 -20 -2 -16 -4 4 -16 -4 -27 -17 -51 -66 57 -132 146 -90 22 10 53 40
75 71 40 56 44 57 70 6 10 -19 6 -31 -33 -92 -46 -71 -51 -74 -96 -61 -19 5
-27 2 -35 -14 -6 -11 -17 -20 -25 -20 -63 0 -24 -114 49 -145 26 -11 36 -9 76
10 65 31 109 89 145 189 54 148 54 149 -35 261 -80 100 -88 120 -83 216 5 101
39 176 124 274 84 97 129 168 188 293 44 93 62 121 109 164 68 61 114 80 302
122 147 33 187 52 223 106 30 43 28 74 -9 118 -44 54 -71 65 -269 107 -206 45
-322 55 -395 37z m-1161 -1832 c-45 -88 -46 -91 -40 -160 3 -38 9 -87 12 -108
l7 -38 -29 11 c-45 18 -62 38 -73 91 -16 71 -1 138 47 211 25 38 114 106 119
91 2 -5 -18 -49 -43 -98z"/>
</g>
</svg>
