<?xml version="1.0" standalone="no"?>
<!DOCTYPE svg PUBLIC "-//W3C//DTD SVG 20010904//EN"
 "http://www.w3.org/TR/2001/REC-SVG-20010904/DTD/svg10.dtd">
<svg version="1.0" xmlns="http://www.w3.org/2000/svg"
 width="351.000000pt" height="457.000000pt" viewBox="0 0 351.000000 457.000000"
 preserveAspectRatio="xMidYMid meet">

<g transform="translate(0.000000,457.000000) scale(0.100000,-0.100000)"
fill="#000000" stroke="none">
<path d="M682 4560 c-140 -20 -260 -63 -334 -122 -79 -62 -192 -249 -253 -418
-73 -205 -102 -461 -76 -691 67 -596 185 -1113 296 -1303 66 -113 279 -274
551 -417 65 -34 131 -71 146 -81 37 -25 66 -91 83 -188 8 -46 21 -93 30 -106
18 -28 71 -44 146 -44 31 0 77 -3 103 -6 45 -7 46 -7 46 -43 0 -20 -4 -42 -8
-48 -4 -7 -44 -18 -87 -24 -173 -23 -232 -44 -260 -92 -22 -37 -31 -183 -37
-563 -2 -198 0 -244 11 -258 56 -67 329 -133 626 -152 254 -16 683 56 782 132
l33 25 -1 232 c0 128 -4 305 -8 395 -7 138 -11 168 -28 190 -28 39 -80 61
-180 78 -188 32 -168 23 -171 75 l-3 46 47 7 c26 3 73 6 105 6 66 0 135 23
149 51 6 10 17 57 25 104 18 99 43 155 82 183 16 10 82 47 148 81 291 152 510
328 572 461 91 195 181 570 244 1022 42 304 48 502 21 663 -48 278 -190 581
-322 685 -52 41 -135 77 -239 102 -133 33 -294 29 -641 -16 -462 -60 -583 -60
-1099 5 -269 33 -409 42 -499 29z m-189 -974 c86 -17 239 -75 453 -172 236
-106 316 -156 394 -241 185 -203 168 -480 -45 -722 -86 -98 -182 -173 -285
-224 -82 -40 -89 -42 -180 -42 -91 0 -98 2 -180 42 -138 67 -229 177 -283 340
-61 187 -150 659 -151 808 -1 113 11 147 65 186 56 40 104 45 212 25z m2695
-15 c83 -42 103 -148 67 -365 -26 -161 -102 -525 -126 -601 -32 -107 -97 -223
-156 -283 -37 -38 -79 -65 -140 -94 -204 -96 -370 -47 -595 174 -84 83 -112
119 -145 183 -97 188 -100 370 -9 513 40 64 128 146 203 191 69 41 314 156
458 215 233 96 351 114 443 67z"/>
</g>
</svg>
