<?xml version="1.0" standalone="no"?>
<!DOCTYPE svg PUBLIC "-//W3C//DTD SVG 20010904//EN"
 "http://www.w3.org/TR/2001/REC-SVG-20010904/DTD/svg10.dtd">
<svg version="1.0" xmlns="http://www.w3.org/2000/svg"
 width="551.000000pt" height="628.000000pt" viewBox="0 0 551.000000 628.000000"
 preserveAspectRatio="xMidYMid meet">

<g transform="translate(0.000000,628.000000) scale(0.100000,-0.100000)"
fill="#000000" stroke="none">
<path d="M2030 6248 c0 -19 5 -39 11 -45 6 -6 13 -60 16 -120 l5 -110 -29 -29
c-140 -139 -412 -385 -503 -454 -25 -19 -50 -39 -56 -45 -6 -5 -53 -35 -103
-65 -247 -147 -309 -197 -396 -321 -99 -141 -153 -176 -335 -214 -188 -41
-220 -49 -305 -82 -98 -39 -207 -108 -270 -173 -36 -36 -39 -46 -43 -102 -7
-106 12 -200 57 -292 40 -80 62 -147 76 -233 4 -24 11 -46 17 -49 5 -3 23 7
39 24 46 47 165 142 178 142 6 0 11 3 11 8 0 10 111 66 175 87 31 11 105 20
195 25 183 11 336 37 410 71 73 34 99 50 202 127 62 46 129 93 148 106 46 30
184 100 238 120 179 67 461 101 650 78 57 -7 59 -9 127 -142 7 -14 25 -50 41
-80 16 -30 41 -80 57 -110 15 -30 33 -64 40 -74 43 -70 75 -123 81 -136 4 -8
12 -24 19 -35 72 -120 92 -150 99 -153 4 -2 8 -8 8 -13 0 -8 158 -256 211
-331 10 -15 19 -30 19 -34 0 -3 9 -17 20 -32 l21 -26 -45 -45 c-37 -39 -86
-125 -116 -206 -38 -103 -157 -301 -201 -335 -14 -11 -89 -124 -89 -134 0 -6
-17 -31 -38 -55 -27 -31 -43 -43 -55 -38 -24 9 -32 53 -17 97 17 52 7 90 -24
90 -13 0 -44 11 -67 25 -87 49 -189 26 -253 -58 -50 -65 -26 -197 48 -266 31
-29 33 -61 6 -86 -17 -15 -35 -18 -103 -17 -85 2 -137 -9 -157 -33 -6 -8 -23
-81 -36 -162 -50 -309 -49 -307 -165 -360 -28 -13 -91 -66 -159 -131 l-113
-110 6 -43 c5 -34 2 -50 -13 -69 -19 -25 -19 -25 5 -66 l24 -41 -43 -57 c-23
-31 -54 -80 -69 -109 -65 -125 -120 -210 -162 -252 -18 -18 -83 -65 -90 -65
-26 0 -155 -103 -229 -182 -48 -52 -121 -121 -161 -152 -40 -31 -91 -77 -114
-101 -22 -24 -70 -63 -106 -87 -40 -26 -68 -52 -72 -66 -5 -22 19 -67 74 -136
27 -32 63 -108 63 -130 0 -8 -9 -20 -21 -26 -11 -7 -32 -21 -46 -33 -13 -12
-52 -29 -86 -37 -51 -12 -63 -19 -65 -37 l-3 -23 2510 0 2511 0 0 24 c0 46
-29 95 -68 115 -41 21 -104 84 -177 176 -56 70 -85 91 -140 99 -42 7 -50 2
-221 -124 -27 -20 -58 -32 -90 -36 -27 -3 -62 -10 -79 -14 -16 -5 -65 -11
-107 -14 -89 -7 -96 0 -55 57 16 21 30 64 41 122 9 50 21 104 26 120 5 17 21
80 36 140 15 62 37 127 51 149 22 33 24 46 19 90 -4 28 -7 56 -7 61 -3 29 51
148 92 206 56 80 63 92 83 150 21 59 20 87 -4 137 -26 54 -25 59 9 59 17 0 44
13 70 33 l42 34 45 -24 c38 -20 47 -21 55 -9 5 8 9 19 9 26 0 6 4 13 8 15 5 2
23 23 40 47 22 30 32 55 32 80 -1 81 -53 164 -126 200 -65 34 -101 28 -219
-37 -11 -6 -28 -13 -38 -16 -9 -3 -22 -17 -27 -31 -12 -33 -22 -32 -60 6 -35
36 -53 68 -76 136 -21 63 -67 131 -115 168 -21 17 -49 38 -61 49 -73 61 -281
184 -346 205 -73 25 -157 73 -175 102 -19 30 0 66 48 89 49 24 57 39 25 47
-12 3 -30 24 -42 47 -27 54 -72 94 -122 107 -39 11 -128 7 -188 -7 -27 -6 -28
-5 -28 32 -1 80 -34 171 -118 318 -27 48 -31 65 -23 78 16 25 14 55 -4 62 -8
3 -15 12 -15 21 0 8 -3 15 -7 15 -5 0 -15 13 -24 29 -9 16 -29 31 -45 35 -16
4 -35 13 -42 19 -11 9 -82 149 -82 162 0 4 -38 88 -91 203 -16 34 -29 64 -29
66 0 3 -16 40 -36 83 -67 146 -82 178 -119 263 -35 78 -53 119 -114 252 -11
26 -21 49 -21 52 0 3 -15 39 -34 78 -19 40 -41 89 -49 108 -18 41 -57 127
-103 228 -19 41 -34 75 -34 77 0 2 -15 36 -34 77 -57 124 -88 194 -136 303
-10 22 -30 67 -45 100 -15 33 -35 79 -46 103 -10 23 -28 61 -38 85 -11 23 -29
65 -41 92 -12 28 -27 64 -35 80 -7 17 -25 57 -40 90 -37 83 -59 130 -91 200
-17 36 -31 84 -34 120 l-5 60 -42 3 c-43 3 -43 3 -43 -30z m165 -418 c10 -25
34 -78 52 -118 18 -41 33 -75 33 -77 0 -2 13 -32 29 -67 53 -115 121 -268 121
-272 0 -3 15 -37 34 -78 65 -142 86 -189 112 -251 35 -83 59 -138 99 -222 18
-38 56 -124 84 -190 54 -125 57 -132 115 -257 20 -42 36 -79 36 -82 0 -3 18
-44 41 -93 22 -48 44 -97 49 -108 14 -32 60 -137 77 -175 30 -69 66 -145 79
-172 16 -30 18 -48 5 -48 -10 0 -207 313 -326 520 -117 200 -268 503 -297 595
-5 17 -13 39 -18 50 -4 11 -15 38 -23 60 -64 165 -111 285 -122 310 -7 17 -32
80 -55 140 -23 61 -46 119 -50 130 -39 92 -120 399 -120 451 0 24 2 26 13 14
7 -8 22 -35 32 -60z m2352 -4584 c16 -15 6 -116 -12 -116 -6 0 -40 22 -74 50
-33 27 -69 53 -78 58 -8 5 -13 13 -10 18 8 13 159 5 174 -10z m-2554 -25 c17
-17 -138 -304 -190 -352 -15 -15 -59 -48 -98 -74 -84 -58 -142 -111 -198 -185
-117 -155 -189 -219 -316 -286 -43 -23 -71 -43 -71 -53 0 -9 14 -33 31 -54 17
-21 28 -41 24 -45 -6 -6 -62 -18 -177 -38 -40 -7 -118 9 -155 33 -27 16 -53
73 -53 115 0 46 21 119 37 125 7 3 37 -6 65 -21 58 -30 50 -34 142 64 134 145
306 310 391 375 109 84 98 76 314 265 167 145 176 152 209 146 20 -3 40 -10
45 -15z m1093 -107 c49 -26 110 -60 137 -75 26 -16 50 -29 54 -29 13 0 73 -52
73 -64 0 -16 -41 -54 -103 -95 -26 -18 -62 -52 -80 -75 -56 -77 -63 -77 -124
-12 -48 51 -51 58 -41 81 8 19 8 38 0 77 -6 29 -14 88 -17 131 -3 43 -8 84
-12 92 -9 25 20 17 113 -31z m913 -103 c117 -42 141 -55 141 -75 0 -23 -116
-134 -166 -159 -28 -14 -82 -36 -120 -48 -73 -23 -144 -63 -144 -79 0 -6 12
-28 26 -50 l26 -39 -32 -39 c-18 -24 -46 -44 -70 -52 -21 -7 -62 -30 -91 -52
-28 -22 -70 -46 -92 -54 -44 -15 -197 -19 -197 -5 0 5 17 32 38 60 37 48 73
87 370 394 121 125 152 170 152 223 0 32 2 32 159 -25z m486 -351 c7 -21 5
-123 -2 -153 -9 -37 -73 -45 -73 -8 0 9 -9 40 -20 69 -27 71 -26 77 18 95 51
21 70 20 77 -3z m-160 -132 c14 -46 32 -96 40 -113 7 -16 20 -52 30 -80 9 -27
21 -60 27 -72 20 -42 -1 -44 -70 -7 -37 20 -80 48 -97 62 -35 29 -108 62 -138
62 -23 0 -104 84 -107 111 -4 28 0 39 15 39 23 0 176 49 205 65 53 30 65 22
95 -67z"/>
</g>
</svg>
