<?xml version="1.0" standalone="no"?>
<!DOCTYPE svg PUBLIC "-//W3C//DTD SVG 20010904//EN"
 "http://www.w3.org/TR/2001/REC-SVG-20010904/DTD/svg10.dtd">
<svg version="1.0" xmlns="http://www.w3.org/2000/svg"
 width="965.000000pt" height="520.000000pt" viewBox="0 0 965.000000 520.000000"
 preserveAspectRatio="xMidYMid meet">

<g transform="translate(0.000000,520.000000) scale(0.100000,-0.100000)"
fill="#000000" stroke="none">
<path d="M8205 5163 c-11 -3 -31 -13 -45 -22 -14 -10 -45 -23 -70 -30 -109
-32 -192 -105 -245 -216 -19 -41 -35 -82 -35 -92 -1 -60 -57 -256 -85 -297 -8
-11 -15 -39 -15 -61 0 -47 -23 -137 -42 -168 -29 -46 -57 -135 -68 -212 -9
-60 -20 -94 -46 -135 -21 -34 -34 -69 -34 -90 -1 -45 -16 -71 -68 -115 -23
-20 -42 -43 -42 -50 0 -25 -43 -45 -95 -45 -28 0 -60 -6 -72 -15 -11 -8 -39
-17 -63 -21 -23 -4 -55 -18 -71 -31 -36 -31 -200 -76 -251 -70 -21 3 -50 15
-65 27 -27 21 -33 22 -173 15 -96 -5 -152 -12 -165 -21 -25 -18 -73 -17 -155
2 -36 8 -96 19 -135 25 -65 11 -89 19 -187 70 -20 10 -44 19 -52 19 -8 0 -31
14 -51 31 -31 27 -35 37 -35 78 0 44 3 49 63 106 35 33 82 75 105 93 23 18 51
53 62 77 13 29 38 58 73 84 65 48 157 151 157 175 0 15 56 81 135 162 102 103
215 228 230 255 6 10 39 49 75 87 65 68 108 147 96 177 -9 24 -61 51 -134 69
-37 10 -80 25 -96 33 -22 12 -80 19 -222 26 -217 12 -294 2 -345 -41 -16 -13
-62 -35 -101 -49 -40 -14 -86 -36 -103 -48 -16 -13 -59 -33 -95 -46 -36 -12
-79 -32 -95 -45 -42 -32 -115 -64 -146 -64 -14 0 -46 -13 -70 -30 -24 -16 -72
-39 -105 -50 -34 -11 -79 -36 -100 -54 -22 -18 -61 -39 -89 -46 -27 -7 -84
-33 -125 -57 -41 -23 -82 -43 -91 -43 -25 0 -90 -29 -126 -56 -17 -13 -35 -24
-38 -24 -4 0 -63 -27 -131 -60 -68 -33 -129 -60 -136 -60 -8 0 -31 -12 -53
-27 -58 -39 -108 -49 -216 -42 -52 3 -119 2 -149 -2 -30 -5 -79 -9 -108 -9
-38 0 -62 -6 -83 -21 -23 -16 -45 -20 -106 -21 -140 -2 -437 9 -480 17 -28 5
-47 4 -56 -4 -8 -6 -35 -14 -60 -17 -63 -9 -377 16 -402 31 -11 7 -62 16 -113
20 -64 4 -104 13 -126 26 -28 16 -60 19 -256 24 -171 5 -228 10 -244 21 -26
18 -85 18 -110 -1 -11 -8 -28 -15 -37 -15 -10 0 -30 -11 -46 -24 -15 -13 -48
-33 -73 -45 -25 -13 -66 -46 -91 -74 l-46 -51 -508 -3 c-486 -3 -509 -4 -535
-23 -17 -12 -44 -20 -68 -20 -23 0 -49 -8 -63 -19 -13 -10 -48 -21 -77 -25
-30 -4 -84 -23 -129 -46 -42 -22 -83 -40 -91 -40 -31 0 -83 -43 -102 -85 -30
-66 -28 -216 3 -266 44 -73 200 -224 277 -270 101 -61 277 -145 320 -154 71
-14 146 -39 165 -56 13 -12 53 -21 120 -29 104 -12 208 -39 247 -64 20 -13 81
-24 368 -71 41 -7 89 -19 105 -28 17 -9 37 -17 45 -17 8 0 78 -31 156 -70 78
-38 148 -70 156 -70 8 0 31 -9 53 -20 25 -13 59 -20 94 -20 52 0 56 -2 99 -47
69 -74 86 -83 173 -83 103 0 335 -19 384 -32 22 -5 108 -18 190 -27 83 -10
163 -23 178 -29 16 -7 66 -12 113 -12 99 0 271 -18 295 -30 9 -5 67 -14 130
-20 63 -6 128 -18 144 -25 17 -8 80 -16 150 -20 175 -8 297 -20 320 -32 11 -6
65 -14 120 -17 55 -4 118 -14 140 -21 36 -13 247 -35 328 -35 25 0 47 12 88
46 l54 47 126 -7 c88 -5 163 -2 245 8 65 8 182 18 259 21 77 3 181 13 230 20
50 8 180 19 290 25 110 6 211 13 225 16 48 11 277 34 341 34 36 0 137 9 225
19 87 11 211 22 274 26 63 3 162 13 220 21 58 8 204 19 325 24 345 15 497 27
546 45 24 9 73 21 108 26 36 5 90 17 120 28 31 10 76 22 101 26 25 3 77 19
115 35 39 16 104 36 145 46 63 14 81 23 123 63 27 25 53 56 58 69 13 33 -11
82 -54 115 -28 22 -37 36 -43 72 -14 96 18 151 142 244 100 74 231 188 253
220 11 16 42 45 69 65 26 21 59 57 72 81 23 42 23 44 6 70 -9 14 -31 35 -49
45 -29 18 -51 20 -230 20 -205 0 -271 -9 -319 -42 -14 -10 -32 -18 -39 -18 -6
0 -36 -12 -66 -26 -65 -32 -178 -38 -198 -10 -8 11 -12 62 -12 149 0 102 -4
139 -16 158 -9 16 -17 64 -22 139 -5 94 -10 119 -26 136 -10 11 -19 30 -19 41
0 11 -10 33 -22 48 -21 27 -22 40 -26 234 -4 180 -6 209 -22 226 -10 11 -21
45 -25 80 -4 33 -13 68 -21 79 -8 11 -14 28 -14 37 0 29 -76 89 -113 89 -17 0
-54 2 -82 4 -27 3 -59 2 -70 -1z"/>
<path d="M4075 1961 c-23 -10 -62 -42 -88 -71 -66 -73 -64 -93 16 -173 73 -75
122 -108 197 -131 30 -10 69 -24 87 -32 17 -8 46 -17 65 -20 18 -4 48 -15 66
-26 28 -17 43 -19 117 -13 l86 7 60 -57 c59 -56 61 -57 107 -52 44 5 53 11
125 87 42 46 77 90 77 99 0 9 7 25 15 35 8 11 15 35 15 55 0 29 -10 45 -68
103 -78 77 -104 85 -154 43 -52 -44 -144 -24 -269 58 -14 9 -48 20 -75 23 -27
4 -58 13 -69 20 -11 8 -40 14 -66 14 -30 0 -62 9 -93 25 -55 29 -95 31 -151 6z"/>
<path d="M5660 1004 l-59 -56 -58 12 c-32 7 -67 19 -78 26 -29 21 -174 19
-204 -2 -17 -12 -51 -17 -129 -19 -138 -4 -195 -22 -248 -77 -54 -55 -65 -78
-66 -135 -1 -44 3 -50 54 -99 45 -43 63 -54 112 -64 35 -7 81 -9 113 -5 30 4
124 10 208 14 144 7 156 9 192 34 50 35 131 38 170 7 15 -12 41 -20 63 -20 33
0 45 9 123 89 l87 88 0 62 0 62 -68 70 c-63 64 -71 69 -111 69 -38 0 -49 -6
-101 -56z"/>
<path d="M4850 458 c-19 -5 -44 -18 -56 -29 -26 -24 -130 -27 -160 -4 -23 18
-56 19 -72 3 -12 -12 -60 -16 -212 -18 -117 -1 -186 -28 -254 -100 -76 -79
-74 -124 7 -208 71 -74 101 -82 289 -82 121 0 169 4 183 14 11 7 40 16 65 20
24 4 59 16 76 27 29 17 47 19 158 17 l126 -3 55 55 c54 55 55 56 57 118 1 59
0 64 -39 109 -75 89 -127 108 -223 81z"/>
</g>
</svg>
