<?xml version="1.0" standalone="no"?>
<!DOCTYPE svg PUBLIC "-//W3C//DTD SVG 20010904//EN"
 "http://www.w3.org/TR/2001/REC-SVG-20010904/DTD/svg10.dtd">
<svg version="1.0" xmlns="http://www.w3.org/2000/svg"
 width="94.000000pt" height="63.000000pt" viewBox="0 0 94.000000 63.000000"
 preserveAspectRatio="xMidYMid meet">

<g transform="translate(0.000000,63.000000) scale(0.100000,-0.100000)"
fill="#000000" stroke="none">
<path d="M300 465 l0 -35 -50 0 c-38 0 -50 -4 -50 -15 0 -11 12 -15 51 -15 47
0 50 -1 44 -22 -10 -34 -38 -70 -73 -94 -22 -15 -28 -24 -20 -32 18 -18 66 14
97 63 l27 43 19 -35 c11 -19 35 -47 53 -61 28 -21 35 -23 43 -11 6 10 -2 23
-31 48 -35 28 -70 77 -70 96 0 3 25 5 55 5 42 0 55 3 55 15 0 12 -13 15 -61
15 l-61 0 6 35 c6 31 4 35 -14 35 -16 0 -20 -6 -20 -35z"/>
<path d="M520 465 c0 -12 17 -15 95 -15 78 0 95 3 95 15 0 12 -17 15 -95 15
-78 0 -95 -3 -95 -15z"/>
<path d="M490 395 c0 -10 11 -15 35 -15 32 0 35 -2 35 -30 0 -30 -20 -58 -56
-78 -15 -8 -16 -14 -7 -23 9 -9 19 -6 43 11 33 24 50 56 50 96 0 17 5 24 20
24 18 0 20 -7 20 -58 0 -66 11 -82 54 -82 40 0 55 10 58 39 4 30 -18 39 -25
11 -4 -16 -12 -21 -29 -18 -20 3 -23 9 -26 56 l-3 52 40 0 c30 0 41 4 41 15 0
13 -21 15 -125 15 -104 0 -125 -2 -125 -15z"/>
</g>
</svg>
